<svg width="423" height="43" viewBox="0 0 423 43" fill="none" xmlns="http://www.w3.org/2000/svg">
<path d="M5.95341 0.599999H0.505406V18H2.95341V11.112H5.95341C7.00941 11.112 7.96941 11.04 8.85741 10.896C9.74541 10.752 10.5134 10.488 11.1614 10.104C11.7854 9.72 12.2894 9.192 12.6494 8.52C12.9854 7.848 13.1774 6.96 13.1774 5.88C13.1774 4.8 12.9854 3.912 12.6494 3.24C12.2894 2.568 11.7854 2.016 11.1614 1.632C10.5134 1.248 9.74541 0.983999 8.85741 0.839999C7.96941 0.696 7.00941 0.599999 5.95341 0.599999ZM2.95341 2.688H6.14541C6.76941 2.688 7.36941 2.712 7.92141 2.784C8.47341 2.832 8.95341 2.976 9.36141 3.216C9.76941 3.432 10.0814 3.744 10.3214 4.176C10.5614 4.608 10.6814 5.16 10.6814 5.88C10.6814 6.6 10.5614 7.152 10.3214 7.56C10.0814 7.968 9.76941 8.28 9.36141 8.496C8.95341 8.712 8.47341 8.856 7.92141 8.904C7.36941 8.952 6.76941 9 6.14541 9H2.95341V2.688ZM17.6112 18V0.599999H15.4272V18H17.6112ZM29.2117 11.784V12.6C29.2117 13.368 29.0917 14.016 28.8757 14.52C28.6357 15.024 28.3477 15.432 27.9877 15.744C27.6037 16.056 27.1957 16.272 26.7157 16.392C26.2357 16.536 25.7317 16.584 25.2277 16.584C24.4357 16.584 23.8117 16.416 23.3797 16.032C22.9477 15.648 22.7317 15.168 22.7317 14.544C22.7317 14.112 22.8757 13.728 23.1877 13.416C23.4757 13.128 23.9077 12.864 24.4837 12.648C25.0357 12.456 25.7077 12.288 26.5237 12.144C27.3157 12 28.2037 11.88 29.2117 11.784ZM24.7237 18.312C25.8757 18.312 26.8117 18.144 27.5077 17.784C28.2037 17.424 28.7557 16.896 29.1397 16.224C29.1637 16.608 29.1877 16.944 29.2117 17.232C29.2597 17.52 29.2837 17.76 29.3077 18H31.5157C31.3957 17.4 31.2997 16.704 31.2517 15.936C31.2037 15.168 31.1797 14.232 31.2037 13.128L31.2277 10.152C31.2277 8.328 30.8197 6.984 30.0037 6.12C29.1877 5.256 27.8677 4.824 26.0917 4.824C25.4677 4.824 24.8437 4.92 24.2437 5.112C23.6437 5.304 23.1157 5.592 22.6357 5.952C22.1557 6.336 21.7477 6.792 21.4357 7.32C21.1237 7.872 20.9557 8.496 20.9077 9.168H23.1637C23.2117 8.376 23.4757 7.752 23.9797 7.296C24.4837 6.84 25.2037 6.6 26.1157 6.6C26.4997 6.6 26.8837 6.672 27.2437 6.768C27.6037 6.864 27.9157 7.056 28.1797 7.296C28.4437 7.536 28.6597 7.872 28.8037 8.256C28.9477 8.664 29.0437 9.168 29.0437 9.744V10.056C27.6997 10.2 26.4997 10.392 25.4437 10.584C24.3637 10.8 23.4517 11.064 22.6837 11.4C21.9157 11.736 21.3397 12.168 20.9317 12.672C20.4997 13.2 20.3077 13.824 20.3077 14.592C20.3077 15.192 20.4037 15.72 20.6437 16.176C20.8837 16.656 21.1957 17.04 21.6037 17.352C22.0117 17.664 22.4917 17.904 23.0197 18.072C23.5477 18.24 24.1237 18.312 24.7237 18.312ZM43.8207 5.088H41.5407L38.3487 15.048L35.0607 5.088H32.6367L37.2927 18L37.1967 18.264C37.0527 18.792 36.8847 19.176 36.7167 19.464C36.5487 19.752 36.3567 19.944 36.1647 20.088C35.9487 20.232 35.7087 20.304 35.4207 20.352C35.1327 20.376 34.8207 20.4 34.4607 20.4H33.5727V22.224H34.7007C35.4207 22.224 36.0207 22.152 36.5007 22.032C36.9807 21.912 37.3647 21.72 37.6767 21.432C38.0127 21.144 38.2767 20.784 38.4927 20.328C38.7327 19.848 38.9487 19.272 39.1887 18.576L43.8207 5.088ZM57.0237 5.088L54.4557 14.64L51.9837 5.088H49.6317L53.3517 18H55.3437L58.1037 7.608L60.9597 18H62.9517L66.6717 5.088H64.3197L61.8477 14.64L59.2797 5.088H57.0237ZM70.6972 5.088H68.5132V18H70.6972V5.088ZM70.6972 0.599999H68.5132V3.24H70.6972V0.599999ZM74.7856 1.848V5.088H72.7456V6.84H74.7856V14.76C74.7856 15.432 74.8096 15.984 74.9056 16.416C75.0016 16.848 75.1456 17.16 75.3856 17.4C75.6016 17.64 75.9136 17.784 76.2976 17.88C76.6816 17.976 77.1856 18.024 77.8096 18.024H79.3936V16.2H78.2896C77.9776 16.2 77.7376 16.176 77.5696 16.128C77.3776 16.08 77.2576 15.984 77.1616 15.864C77.0656 15.72 77.0176 15.552 76.9936 15.336C76.9696 15.12 76.9696 14.856 76.9696 14.52V6.864H79.4176V5.112H76.9696V1.872L74.7856 1.848ZM84.3847 7.032V0.599999H82.2007V18H84.3847V10.992C84.3847 9.6 84.6727 8.568 85.2967 7.848C85.8967 7.128 86.7367 6.768 87.7927 6.768C88.4167 6.768 88.8967 6.888 89.2807 7.08C89.6647 7.272 89.9527 7.56 90.1447 7.896C90.3367 8.232 90.4567 8.64 90.5287 9.072C90.5767 9.528 90.6247 10.008 90.6247 10.488V18H92.8087V9.84C92.8087 9.12 92.7127 8.448 92.5687 7.824C92.4247 7.224 92.1847 6.696 91.8487 6.264C91.5127 5.832 91.0567 5.496 90.5287 5.256C90.0007 5.016 89.3287 4.896 88.5607 4.896C87.4567 4.896 86.5927 5.088 85.9207 5.52C85.2487 5.928 84.7447 6.432 84.3847 7.032ZM107.123 4.872C106.163 4.872 105.299 5.04 104.531 5.376C103.763 5.712 103.091 6.192 102.563 6.792C102.035 7.392 101.603 8.088 101.315 8.904C101.027 9.72 100.883 10.608 100.883 11.568C100.883 12.576 101.003 13.488 101.291 14.304C101.579 15.12 101.963 15.84 102.491 16.416C103.019 17.016 103.643 17.472 104.387 17.808C105.131 18.144 105.971 18.312 106.907 18.312C107.651 18.312 108.347 18.192 109.019 17.952C109.667 17.712 110.243 17.4 110.747 16.968C111.251 16.56 111.659 16.08 111.995 15.528C112.331 15 112.547 14.424 112.667 13.8H110.411C110.315 14.136 110.195 14.472 110.003 14.784C109.811 15.096 109.547 15.36 109.259 15.6C108.971 15.84 108.611 16.032 108.227 16.176C107.843 16.32 107.411 16.392 106.979 16.392C106.499 16.392 106.019 16.296 105.587 16.104C105.131 15.912 104.723 15.6 104.387 15.192C104.051 14.808 103.763 14.304 103.571 13.68C103.355 13.08 103.259 12.36 103.259 11.544C103.259 10.728 103.355 10.032 103.571 9.432C103.763 8.856 104.051 8.352 104.387 7.968C104.723 7.584 105.131 7.272 105.587 7.08C106.019 6.888 106.499 6.792 106.979 6.792C107.819 6.792 108.539 7.056 109.163 7.536C109.763 8.016 110.147 8.64 110.315 9.408H112.523C112.427 8.88 112.259 8.328 111.995 7.776C111.707 7.248 111.347 6.744 110.891 6.312C110.411 5.88 109.859 5.544 109.235 5.28C108.611 5.016 107.891 4.872 107.123 4.872ZM116.736 11.592C116.736 10.728 116.832 9.984 117.048 9.36C117.264 8.76 117.552 8.256 117.912 7.872C118.272 7.488 118.68 7.224 119.16 7.056C119.616 6.888 120.096 6.792 120.6 6.792C121.08 6.792 121.56 6.888 122.04 7.056C122.496 7.248 122.904 7.512 123.264 7.896C123.624 8.28 123.912 8.784 124.128 9.384C124.344 10.008 124.464 10.728 124.464 11.592C124.464 12.432 124.344 13.152 124.128 13.752C123.912 14.352 123.624 14.856 123.264 15.24C122.904 15.624 122.496 15.912 122.04 16.104C121.56 16.296 121.08 16.392 120.6 16.392C120.096 16.392 119.616 16.32 119.16 16.128C118.68 15.96 118.272 15.672 117.912 15.288C117.552 14.904 117.264 14.424 117.048 13.8C116.832 13.2 116.736 12.456 116.736 11.592ZM120.6 4.872C119.832 4.872 119.088 5.016 118.368 5.28C117.624 5.544 116.952 5.952 116.352 6.48C115.776 7.032 115.296 7.728 114.936 8.568C114.576 9.432 114.384 10.44 114.384 11.592C114.384 12.768 114.576 13.776 114.936 14.616C115.296 15.48 115.776 16.176 116.352 16.704C116.952 17.256 117.624 17.664 118.368 17.928C119.088 18.192 119.832 18.312 120.6 18.312C121.344 18.312 122.088 18.192 122.832 17.928C123.552 17.664 124.224 17.256 124.824 16.704C125.4 16.176 125.88 15.48 126.24 14.616C126.6 13.776 126.792 12.768 126.792 11.592C126.792 10.44 126.6 9.432 126.24 8.568C125.88 7.728 125.4 7.032 124.824 6.48C124.224 5.952 123.552 5.544 122.832 5.28C122.088 5.016 121.344 4.872 120.6 4.872ZM131.588 7.032V5.088H129.404V18H131.588V10.992C131.588 9.6 131.876 8.568 132.5 7.848C133.1 7.128 133.94 6.768 134.996 6.768C135.62 6.768 136.1 6.888 136.484 7.08C136.868 7.272 137.156 7.56 137.348 7.896C137.54 8.232 137.66 8.64 137.732 9.072C137.78 9.528 137.828 10.008 137.828 10.488V18H140.012V9.84C140.012 9.12 139.916 8.448 139.772 7.824C139.628 7.224 139.388 6.696 139.052 6.264C138.716 5.832 138.26 5.496 137.732 5.256C137.204 5.016 136.532 4.896 135.764 4.896C134.66 4.896 133.796 5.088 133.124 5.52C132.452 5.928 131.948 6.432 131.588 7.032ZM143.903 1.848V5.088H141.863V6.84H143.903V14.76C143.903 15.432 143.927 15.984 144.023 16.416C144.119 16.848 144.263 17.16 144.503 17.4C144.719 17.64 145.031 17.784 145.415 17.88C145.799 17.976 146.303 18.024 146.927 18.024H148.511V16.2H147.407C147.095 16.2 146.855 16.176 146.687 16.128C146.495 16.08 146.375 15.984 146.279 15.864C146.183 15.72 146.135 15.552 146.111 15.336C146.087 15.12 146.087 14.856 146.087 14.52V6.864H148.535V5.112H146.087V1.872L143.903 1.848ZM152.43 12.264H162.366C162.414 11.256 162.318 10.296 162.078 9.384C161.838 8.496 161.454 7.704 160.926 7.032C160.398 6.36 159.75 5.832 158.982 5.448C158.19 5.064 157.302 4.872 156.318 4.872C155.454 4.872 154.638 5.04 153.87 5.352C153.102 5.664 152.454 6.12 151.878 6.696C151.302 7.272 150.87 7.992 150.534 8.808C150.222 9.624 150.054 10.56 150.054 11.568C150.054 12.528 150.198 13.416 150.486 14.232C150.774 15.048 151.182 15.768 151.71 16.368C152.238 16.992 152.91 17.472 153.678 17.808C154.47 18.144 155.382 18.312 156.39 18.312C157.182 18.312 157.902 18.216 158.55 18C159.198 17.784 159.774 17.496 160.254 17.112C160.734 16.752 161.142 16.32 161.478 15.84C161.814 15.36 162.03 14.832 162.174 14.256H159.918C159.654 14.904 159.246 15.432 158.67 15.816C158.118 16.2 157.35 16.392 156.39 16.392C155.91 16.392 155.454 16.32 154.974 16.152C154.518 15.984 154.11 15.72 153.726 15.384C153.342 15.048 153.03 14.616 152.79 14.112C152.55 13.584 152.43 12.984 152.43 12.264ZM156.318 6.768C156.894 6.768 157.422 6.864 157.878 7.08C158.334 7.272 158.718 7.56 159.03 7.896C159.366 8.232 159.606 8.64 159.774 9.072C159.942 9.504 160.038 9.96 160.038 10.416H152.43C152.478 9.768 152.622 9.216 152.862 8.76C153.102 8.28 153.39 7.896 153.75 7.608C154.086 7.32 154.494 7.104 154.95 6.96C155.382 6.816 155.838 6.768 156.318 6.768ZM170.366 11.256L174.758 5.088H172.31L169.142 9.528L165.998 5.088H163.382L167.846 11.352L163.094 18H165.59L169.07 13.08L172.574 18H175.19L170.366 11.256ZM177.723 1.848V5.088H175.683V6.84H177.723V14.76C177.723 15.432 177.747 15.984 177.843 16.416C177.939 16.848 178.083 17.16 178.323 17.4C178.539 17.64 178.851 17.784 179.235 17.88C179.619 17.976 180.123 18.024 180.747 18.024H182.331V16.2H181.227C180.915 16.2 180.675 16.176 180.507 16.128C180.315 16.08 180.195 15.984 180.099 15.864C180.003 15.72 179.955 15.552 179.931 15.336C179.907 15.12 179.907 14.856 179.907 14.52V6.864H182.355V5.112H179.907V1.872L177.723 1.848ZM192.296 8.856H194.576C194.36 7.632 193.808 6.648 192.92 5.928C192.032 5.208 190.88 4.848 189.488 4.848C188.768 4.848 188.096 4.944 187.472 5.088C186.848 5.256 186.296 5.496 185.84 5.808C185.36 6.12 185 6.504 184.736 6.936C184.448 7.368 184.328 7.872 184.328 8.448C184.328 9.072 184.424 9.576 184.64 9.984C184.856 10.392 185.144 10.728 185.504 11.016C185.84 11.304 186.248 11.52 186.68 11.664C187.112 11.808 187.568 11.928 188 12.024L189.92 12.408C190.256 12.504 190.592 12.6 190.904 12.696C191.216 12.792 191.504 12.936 191.744 13.104C191.984 13.272 192.176 13.464 192.32 13.704C192.464 13.944 192.536 14.232 192.536 14.544C192.536 15.168 192.224 15.624 191.648 15.96C191.072 16.296 190.352 16.464 189.536 16.464C188.576 16.464 187.832 16.248 187.304 15.768C186.776 15.312 186.416 14.664 186.248 13.824H183.944C183.992 14.4 184.16 14.952 184.424 15.48C184.688 16.032 185.048 16.512 185.528 16.92C186.008 17.352 186.56 17.688 187.232 17.928C187.88 18.192 188.624 18.312 189.488 18.312C190.208 18.312 190.904 18.24 191.552 18.048C192.176 17.88 192.728 17.616 193.208 17.28C193.688 16.944 194.048 16.512 194.336 16.008C194.6 15.528 194.744 14.952 194.744 14.304C194.744 13.68 194.624 13.152 194.384 12.72C194.144 12.288 193.808 11.928 193.4 11.64C192.992 11.352 192.536 11.112 192.008 10.92C191.48 10.728 190.904 10.584 190.328 10.464L188.504 10.104C187.88 9.984 187.376 9.792 187.04 9.528C186.704 9.264 186.536 8.88 186.536 8.352C186.536 8.064 186.608 7.824 186.776 7.608C186.92 7.416 187.136 7.248 187.4 7.104C187.664 6.96 187.952 6.864 188.288 6.816C188.6 6.768 188.912 6.72 189.248 6.72C190.016 6.72 190.664 6.888 191.216 7.224C191.744 7.56 192.104 8.088 192.296 8.856ZM197.111 18H199.871V15.24H197.111V18ZM214.641 0.599999H209.193V18H211.641V11.112H214.641C215.697 11.112 216.657 11.04 217.545 10.896C218.433 10.752 219.201 10.488 219.849 10.104C220.473 9.72 220.977 9.192 221.337 8.52C221.673 7.848 221.865 6.96 221.865 5.88C221.865 4.8 221.673 3.912 221.337 3.24C220.977 2.568 220.473 2.016 219.849 1.632C219.201 1.248 218.433 0.983999 217.545 0.839999C216.657 0.696 215.697 0.599999 214.641 0.599999ZM211.641 2.688H214.833C215.457 2.688 216.057 2.712 216.609 2.784C217.161 2.832 217.641 2.976 218.049 3.216C218.457 3.432 218.769 3.744 219.009 4.176C219.249 4.608 219.369 5.16 219.369 5.88C219.369 6.6 219.249 7.152 219.009 7.56C218.769 7.968 218.457 8.28 218.049 8.496C217.641 8.712 217.161 8.856 216.609 8.904C216.057 8.952 215.457 9 214.833 9H211.641V2.688ZM226.299 18V0.599999H224.115V18H226.299ZM237.899 11.784V12.6C237.899 13.368 237.779 14.016 237.563 14.52C237.323 15.024 237.035 15.432 236.675 15.744C236.291 16.056 235.883 16.272 235.403 16.392C234.923 16.536 234.419 16.584 233.915 16.584C233.123 16.584 232.499 16.416 232.067 16.032C231.635 15.648 231.419 15.168 231.419 14.544C231.419 14.112 231.563 13.728 231.875 13.416C232.163 13.128 232.595 12.864 233.171 12.648C233.723 12.456 234.395 12.288 235.211 12.144C236.003 12 236.891 11.88 237.899 11.784ZM233.411 18.312C234.563 18.312 235.499 18.144 236.195 17.784C236.891 17.424 237.443 16.896 237.827 16.224C237.851 16.608 237.875 16.944 237.899 17.232C237.947 17.52 237.971 17.76 237.995 18H240.203C240.083 17.4 239.987 16.704 239.939 15.936C239.891 15.168 239.867 14.232 239.891 13.128L239.915 10.152C239.915 8.328 239.507 6.984 238.691 6.12C237.875 5.256 236.555 4.824 234.779 4.824C234.155 4.824 233.531 4.92 232.931 5.112C232.331 5.304 231.803 5.592 231.323 5.952C230.843 6.336 230.435 6.792 230.123 7.32C229.811 7.872 229.643 8.496 229.595 9.168H231.851C231.899 8.376 232.163 7.752 232.667 7.296C233.171 6.84 233.891 6.6 234.803 6.6C235.187 6.6 235.571 6.672 235.931 6.768C236.291 6.864 236.603 7.056 236.867 7.296C237.131 7.536 237.347 7.872 237.491 8.256C237.635 8.664 237.731 9.168 237.731 9.744V10.056C236.387 10.2 235.187 10.392 234.131 10.584C233.051 10.8 232.139 11.064 231.371 11.4C230.603 11.736 230.027 12.168 229.619 12.672C229.187 13.2 228.995 13.824 228.995 14.592C228.995 15.192 229.091 15.72 229.331 16.176C229.571 16.656 229.883 17.04 230.291 17.352C230.699 17.664 231.179 17.904 231.707 18.072C232.235 18.24 232.811 18.312 233.411 18.312ZM252.508 5.088H250.228L247.036 15.048L243.748 5.088H241.324L245.98 18L245.884 18.264C245.74 18.792 245.572 19.176 245.404 19.464C245.236 19.752 245.044 19.944 244.852 20.088C244.636 20.232 244.396 20.304 244.108 20.352C243.82 20.376 243.508 20.4 243.148 20.4H242.26V22.224H243.388C244.108 22.224 244.708 22.152 245.188 22.032C245.668 21.912 246.052 21.72 246.364 21.432C246.7 21.144 246.964 20.784 247.18 20.328C247.42 19.848 247.636 19.272 247.876 18.576L252.508 5.088ZM265.711 5.088L263.143 14.64L260.671 5.088H258.319L262.039 18H264.031L266.791 7.608L269.647 18H271.639L275.359 5.088H273.007L270.535 14.64L267.967 5.088H265.711ZM279.385 5.088H277.201V18H279.385V5.088ZM279.385 0.599999H277.201V3.24H279.385V0.599999ZM283.473 1.848V5.088H281.433V6.84H283.473V14.76C283.473 15.432 283.497 15.984 283.593 16.416C283.689 16.848 283.833 17.16 284.073 17.4C284.289 17.64 284.601 17.784 284.985 17.88C285.369 17.976 285.873 18.024 286.497 18.024H288.081V16.2H286.977C286.665 16.2 286.425 16.176 286.257 16.128C286.065 16.08 285.945 15.984 285.849 15.864C285.753 15.72 285.705 15.552 285.681 15.336C285.657 15.12 285.657 14.856 285.657 14.52V6.864H288.105V5.112H285.657V1.872L283.473 1.848ZM293.072 7.032V0.599999H290.888V18H293.072V10.992C293.072 9.6 293.36 8.568 293.984 7.848C294.584 7.128 295.424 6.768 296.48 6.768C297.104 6.768 297.584 6.888 297.968 7.08C298.352 7.272 298.64 7.56 298.832 7.896C299.024 8.232 299.144 8.64 299.216 9.072C299.264 9.528 299.312 10.008 299.312 10.488V18H301.496V9.84C301.496 9.12 301.4 8.448 301.256 7.824C301.112 7.224 300.872 6.696 300.536 6.264C300.2 5.832 299.744 5.496 299.216 5.256C298.688 5.016 298.016 4.896 297.248 4.896C296.144 4.896 295.28 5.088 294.608 5.52C293.936 5.928 293.432 6.432 293.072 7.032ZM319.314 0.599999V7.128C318.906 6.456 318.354 5.904 317.658 5.496C316.986 5.088 316.122 4.872 315.066 4.872C314.346 4.872 313.626 5.04 312.954 5.328C312.282 5.64 311.706 6.072 311.202 6.648C310.698 7.224 310.29 7.944 310.002 8.76C309.714 9.6 309.546 10.536 309.546 11.592C309.546 12.672 309.714 13.632 310.002 14.472C310.29 15.288 310.698 16.008 311.202 16.584C311.706 17.16 312.282 17.592 312.954 17.88C313.626 18.168 314.346 18.336 315.066 18.336C316.122 18.336 316.986 18.12 317.658 17.712C318.354 17.304 318.906 16.752 319.314 16.08V18.024H321.498V0.623999L319.314 0.599999ZM319.41 11.616C319.41 12.456 319.29 13.176 319.098 13.8C318.882 14.424 318.594 14.928 318.234 15.312C317.898 15.696 317.49 15.984 317.034 16.176C316.578 16.368 316.098 16.464 315.618 16.464C314.514 16.464 313.602 16.032 312.93 15.192C312.258 14.352 311.922 13.152 311.922 11.616C311.922 10.056 312.258 8.856 312.93 8.016C313.602 7.176 314.514 6.768 315.618 6.768C316.098 6.768 316.578 6.84 317.034 7.032C317.49 7.224 317.898 7.512 318.234 7.896C318.594 8.28 318.882 8.784 319.098 9.408C319.29 10.032 319.41 10.752 319.41 11.616ZM327.127 5.088H324.943V18H327.127V5.088ZM327.127 0.599999H324.943V3.24H327.127V0.599999ZM337.023 7.368V5.04C336.879 5.04 336.783 5.016 336.687 5.016H336.375C335.511 5.064 334.767 5.28 334.143 5.664C333.519 6.048 333.039 6.624 332.727 7.344V5.088H330.591V18H332.775V11.232C332.775 9.816 333.015 8.808 333.519 8.184C334.023 7.584 334.791 7.272 335.799 7.272C335.967 7.272 336.159 7.296 336.375 7.296C336.567 7.32 336.783 7.344 337.023 7.368ZM340.352 12.264H350.288C350.336 11.256 350.24 10.296 350 9.384C349.76 8.496 349.376 7.704 348.848 7.032C348.32 6.36 347.672 5.832 346.904 5.448C346.112 5.064 345.224 4.872 344.24 4.872C343.376 4.872 342.56 5.04 341.792 5.352C341.024 5.664 340.376 6.12 339.8 6.696C339.224 7.272 338.792 7.992 338.456 8.808C338.144 9.624 337.976 10.56 337.976 11.568C337.976 12.528 338.12 13.416 338.408 14.232C338.696 15.048 339.104 15.768 339.632 16.368C340.16 16.992 340.832 17.472 341.6 17.808C342.392 18.144 343.304 18.312 344.312 18.312C345.104 18.312 345.824 18.216 346.472 18C347.12 17.784 347.696 17.496 348.176 17.112C348.656 16.752 349.064 16.32 349.4 15.84C349.736 15.36 349.952 14.832 350.096 14.256H347.84C347.576 14.904 347.168 15.432 346.592 15.816C346.04 16.2 345.272 16.392 344.312 16.392C343.832 16.392 343.376 16.32 342.896 16.152C342.44 15.984 342.032 15.72 341.648 15.384C341.264 15.048 340.952 14.616 340.712 14.112C340.472 13.584 340.352 12.984 340.352 12.264ZM344.24 6.768C344.816 6.768 345.344 6.864 345.8 7.08C346.256 7.272 346.64 7.56 346.952 7.896C347.288 8.232 347.528 8.64 347.696 9.072C347.864 9.504 347.96 9.96 347.96 10.416H340.352C340.4 9.768 340.544 9.216 340.784 8.76C341.024 8.28 341.312 7.896 341.672 7.608C342.008 7.32 342.416 7.104 342.872 6.96C343.304 6.816 343.76 6.768 344.24 6.768ZM358.303 4.872C357.343 4.872 356.479 5.04 355.711 5.376C354.943 5.712 354.271 6.192 353.743 6.792C353.215 7.392 352.783 8.088 352.495 8.904C352.207 9.72 352.063 10.608 352.063 11.568C352.063 12.576 352.183 13.488 352.471 14.304C352.759 15.12 353.143 15.84 353.671 16.416C354.199 17.016 354.823 17.472 355.567 17.808C356.311 18.144 357.151 18.312 358.087 18.312C358.831 18.312 359.527 18.192 360.199 17.952C360.847 17.712 361.423 17.4 361.927 16.968C362.431 16.56 362.839 16.08 363.175 15.528C363.511 15 363.727 14.424 363.847 13.8H361.591C361.495 14.136 361.375 14.472 361.183 14.784C360.991 15.096 360.727 15.36 360.439 15.6C360.151 15.84 359.791 16.032 359.407 16.176C359.023 16.32 358.591 16.392 358.159 16.392C357.679 16.392 357.199 16.296 356.767 16.104C356.311 15.912 355.903 15.6 355.567 15.192C355.231 14.808 354.943 14.304 354.751 13.68C354.535 13.08 354.439 12.36 354.439 11.544C354.439 10.728 354.535 10.032 354.751 9.432C354.943 8.856 355.231 8.352 355.567 7.968C355.903 7.584 356.311 7.272 356.767 7.08C357.199 6.888 357.679 6.792 358.159 6.792C358.999 6.792 359.719 7.056 360.343 7.536C360.943 8.016 361.327 8.64 361.495 9.408H363.703C363.607 8.88 363.439 8.328 363.175 7.776C362.887 7.248 362.527 6.744 362.071 6.312C361.591 5.88 361.039 5.544 360.415 5.28C359.791 5.016 359.071 4.872 358.303 4.872ZM366.934 1.848V5.088H364.894V6.84H366.934V14.76C366.934 15.432 366.958 15.984 367.054 16.416C367.15 16.848 367.294 17.16 367.534 17.4C367.75 17.64 368.062 17.784 368.446 17.88C368.83 17.976 369.334 18.024 369.958 18.024H371.542V16.2H370.438C370.126 16.2 369.886 16.176 369.718 16.128C369.526 16.08 369.406 15.984 369.31 15.864C369.214 15.72 369.166 15.552 369.142 15.336C369.118 15.12 369.118 14.856 369.118 14.52V6.864H371.566V5.112H369.118V1.872L366.934 1.848ZM376.533 5.088H374.349V18H376.533V5.088ZM376.533 0.599999H374.349V3.24H376.533V0.599999ZM381.486 11.592C381.486 10.728 381.582 9.984 381.798 9.36C382.014 8.76 382.302 8.256 382.662 7.872C383.022 7.488 383.43 7.224 383.91 7.056C384.366 6.888 384.846 6.792 385.35 6.792C385.83 6.792 386.31 6.888 386.79 7.056C387.246 7.248 387.654 7.512 388.014 7.896C388.374 8.28 388.662 8.784 388.878 9.384C389.094 10.008 389.214 10.728 389.214 11.592C389.214 12.432 389.094 13.152 388.878 13.752C388.662 14.352 388.374 14.856 388.014 15.24C387.654 15.624 387.246 15.912 386.79 16.104C386.31 16.296 385.83 16.392 385.35 16.392C384.846 16.392 384.366 16.32 383.91 16.128C383.43 15.96 383.022 15.672 382.662 15.288C382.302 14.904 382.014 14.424 381.798 13.8C381.582 13.2 381.486 12.456 381.486 11.592ZM385.35 4.872C384.582 4.872 383.838 5.016 383.118 5.28C382.374 5.544 381.702 5.952 381.102 6.48C380.526 7.032 380.046 7.728 379.686 8.568C379.326 9.432 379.134 10.44 379.134 11.592C379.134 12.768 379.326 13.776 379.686 14.616C380.046 15.48 380.526 16.176 381.102 16.704C381.702 17.256 382.374 17.664 383.118 17.928C383.838 18.192 384.582 18.312 385.35 18.312C386.094 18.312 386.838 18.192 387.582 17.928C388.302 17.664 388.974 17.256 389.574 16.704C390.15 16.176 390.63 15.48 390.99 14.616C391.35 13.776 391.542 12.768 391.542 11.592C391.542 10.44 391.35 9.432 390.99 8.568C390.63 7.728 390.15 7.032 389.574 6.48C388.974 5.952 388.302 5.544 387.582 5.28C386.838 5.016 386.094 4.872 385.35 4.872ZM396.338 7.032V5.088H394.154V18H396.338V10.992C396.338 9.6 396.626 8.568 397.25 7.848C397.85 7.128 398.69 6.768 399.746 6.768C400.37 6.768 400.85 6.888 401.234 7.08C401.618 7.272 401.906 7.56 402.098 7.896C402.29 8.232 402.41 8.64 402.482 9.072C402.53 9.528 402.578 10.008 402.578 10.488V18H404.762V9.84C404.762 9.12 404.666 8.448 404.522 7.824C404.378 7.224 404.138 6.696 403.802 6.264C403.466 5.832 403.01 5.496 402.482 5.256C401.954 5.016 401.282 4.896 400.514 4.896C399.41 4.896 398.546 5.088 397.874 5.52C397.202 5.928 396.698 6.432 396.338 7.032ZM415.421 8.856H417.701C417.485 7.632 416.933 6.648 416.045 5.928C415.157 5.208 414.005 4.848 412.613 4.848C411.893 4.848 411.221 4.944 410.597 5.088C409.973 5.256 409.421 5.496 408.965 5.808C408.485 6.12 408.125 6.504 407.861 6.936C407.573 7.368 407.453 7.872 407.453 8.448C407.453 9.072 407.549 9.576 407.765 9.984C407.981 10.392 408.269 10.728 408.629 11.016C408.965 11.304 409.373 11.52 409.805 11.664C410.237 11.808 410.693 11.928 411.125 12.024L413.045 12.408C413.381 12.504 413.717 12.6 414.029 12.696C414.341 12.792 414.629 12.936 414.869 13.104C415.109 13.272 415.301 13.464 415.445 13.704C415.589 13.944 415.661 14.232 415.661 14.544C415.661 15.168 415.349 15.624 414.773 15.96C414.197 16.296 413.477 16.464 412.661 16.464C411.701 16.464 410.957 16.248 410.429 15.768C409.901 15.312 409.541 14.664 409.373 13.824H407.069C407.117 14.4 407.285 14.952 407.549 15.48C407.813 16.032 408.173 16.512 408.653 16.92C409.133 17.352 409.685 17.688 410.357 17.928C411.005 18.192 411.749 18.312 412.613 18.312C413.333 18.312 414.029 18.24 414.677 18.048C415.301 17.88 415.853 17.616 416.333 17.28C416.813 16.944 417.173 16.512 417.461 16.008C417.725 15.528 417.869 14.952 417.869 14.304C417.869 13.68 417.749 13.152 417.509 12.72C417.269 12.288 416.933 11.928 416.525 11.64C416.117 11.352 415.661 11.112 415.133 10.92C414.605 10.728 414.029 10.584 413.453 10.464L411.629 10.104C411.005 9.984 410.501 9.792 410.165 9.528C409.829 9.264 409.661 8.88 409.661 8.352C409.661 8.064 409.733 7.824 409.901 7.608C410.045 7.416 410.261 7.248 410.525 7.104C410.789 6.96 411.077 6.864 411.413 6.816C411.725 6.768 412.037 6.72 412.373 6.72C413.141 6.72 413.789 6.888 414.341 7.224C414.869 7.56 415.229 8.088 415.421 8.856ZM420.236 18H422.996V15.24H420.236V18ZM110.93 39.888V24.6H108.482V42H120.122V39.888H110.93ZM124.041 29.088H121.857V42H124.041V29.088ZM124.041 24.6H121.857V27.24H124.041V24.6ZM129.689 31.032V29.088H127.505V42H129.689V34.992C129.689 33.6 129.977 32.568 130.601 31.848C131.201 31.128 132.041 30.768 133.097 30.768C133.721 30.768 134.201 30.888 134.585 31.08C134.969 31.272 135.257 31.56 135.449 31.896C135.641 32.232 135.761 32.64 135.833 33.072C135.881 33.528 135.929 34.008 135.929 34.488V42H138.113V33.84C138.113 33.12 138.017 32.448 137.873 31.824C137.729 31.224 137.489 30.696 137.153 30.264C136.817 29.832 136.361 29.496 135.833 29.256C135.305 29.016 134.633 28.896 133.865 28.896C132.761 28.896 131.897 29.088 131.225 29.52C130.553 29.928 130.049 30.432 129.689 31.032ZM143.564 24.6H141.38V42H143.564V37.68L145.076 36.048L149.468 42H152.132L146.54 34.44L151.46 29.088H148.772L143.564 34.896V24.6ZM159.817 25.848V29.088H157.777V30.84H159.817V38.76C159.817 39.432 159.841 39.984 159.937 40.416C160.033 40.848 160.177 41.16 160.417 41.4C160.633 41.64 160.945 41.784 161.329 41.88C161.713 41.976 162.217 42.024 162.841 42.024H164.425V40.2H163.321C163.009 40.2 162.769 40.176 162.601 40.128C162.409 40.08 162.289 39.984 162.193 39.864C162.097 39.72 162.049 39.552 162.025 39.336C162.001 39.12 162.001 38.856 162.001 38.52V30.864H164.449V29.112H162.001V25.872L159.817 25.848ZM169.416 31.032V24.6H167.232V42H169.416V34.992C169.416 33.6 169.704 32.568 170.328 31.848C170.928 31.128 171.768 30.768 172.824 30.768C173.448 30.768 173.928 30.888 174.312 31.08C174.696 31.272 174.984 31.56 175.176 31.896C175.368 32.232 175.488 32.64 175.56 33.072C175.608 33.528 175.656 34.008 175.656 34.488V42H177.84V33.84C177.84 33.12 177.744 32.448 177.6 31.824C177.456 31.224 177.216 30.696 176.88 30.264C176.544 29.832 176.088 29.496 175.56 29.256C175.032 29.016 174.36 28.896 173.592 28.896C172.488 28.896 171.624 29.088 170.952 29.52C170.28 29.928 169.776 30.432 169.416 31.032ZM182.571 36.264H192.507C192.555 35.256 192.459 34.296 192.219 33.384C191.979 32.496 191.595 31.704 191.067 31.032C190.539 30.36 189.891 29.832 189.123 29.448C188.331 29.064 187.443 28.872 186.459 28.872C185.595 28.872 184.779 29.04 184.011 29.352C183.243 29.664 182.595 30.12 182.019 30.696C181.443 31.272 181.011 31.992 180.675 32.808C180.363 33.624 180.195 34.56 180.195 35.568C180.195 36.528 180.339 37.416 180.627 38.232C180.915 39.048 181.323 39.768 181.851 40.368C182.379 40.992 183.051 41.472 183.819 41.808C184.611 42.144 185.523 42.312 186.531 42.312C187.323 42.312 188.043 42.216 188.691 42C189.339 41.784 189.915 41.496 190.395 41.112C190.875 40.752 191.283 40.32 191.619 39.84C191.955 39.36 192.171 38.832 192.315 38.256H190.059C189.795 38.904 189.387 39.432 188.811 39.816C188.259 40.2 187.491 40.392 186.531 40.392C186.051 40.392 185.595 40.32 185.115 40.152C184.659 39.984 184.251 39.72 183.867 39.384C183.483 39.048 183.171 38.616 182.931 38.112C182.691 37.584 182.571 36.984 182.571 36.264ZM186.459 30.768C187.035 30.768 187.563 30.864 188.019 31.08C188.475 31.272 188.859 31.56 189.171 31.896C189.507 32.232 189.747 32.64 189.915 33.072C190.083 33.504 190.179 33.96 190.179 34.416H182.571C182.619 33.768 182.763 33.216 183.003 32.76C183.243 32.28 183.531 31.896 183.891 31.608C184.227 31.32 184.635 31.104 185.091 30.96C185.523 30.816 185.979 30.768 186.459 30.768ZM208.74 40.152V42H210.924V29.088H208.74V36.192C208.74 37.584 208.452 38.64 207.876 39.36C207.3 40.08 206.484 40.416 205.452 40.416C204.852 40.416 204.372 40.32 204.012 40.128C203.652 39.936 203.388 39.648 203.196 39.312C203.004 38.976 202.86 38.568 202.812 38.136C202.764 37.68 202.74 37.2 202.74 36.696V29.088H200.556V37.344C200.556 38.088 200.628 38.76 200.772 39.36C200.916 39.984 201.156 40.512 201.492 40.944C201.828 41.376 202.236 41.712 202.764 41.952C203.292 42.192 203.916 42.312 204.684 42.312C205.74 42.312 206.604 42.12 207.228 41.688C207.852 41.28 208.356 40.776 208.74 40.152ZM216.572 31.032V29.088H214.388V42H216.572V34.992C216.572 33.6 216.86 32.568 217.484 31.848C218.084 31.128 218.924 30.768 219.98 30.768C220.604 30.768 221.084 30.888 221.468 31.08C221.852 31.272 222.14 31.56 222.332 31.896C222.524 32.232 222.644 32.64 222.716 33.072C222.764 33.528 222.812 34.008 222.812 34.488V42H224.996V33.84C224.996 33.12 224.9 32.448 224.756 31.824C224.612 31.224 224.372 30.696 224.036 30.264C223.7 29.832 223.244 29.496 222.716 29.256C222.188 29.016 221.516 28.896 220.748 28.896C219.644 28.896 218.78 29.088 218.108 29.52C217.436 29.928 216.932 30.432 216.572 31.032ZM230.447 42V24.6H228.263V42H230.447ZM236.096 29.088H233.912V42H236.096V29.088ZM236.096 24.6H233.912V27.24H236.096V24.6ZM241.744 31.032V29.088H239.56V42H241.744V34.992C241.744 33.6 242.032 32.568 242.656 31.848C243.256 31.128 244.096 30.768 245.152 30.768C245.776 30.768 246.256 30.888 246.64 31.08C247.024 31.272 247.312 31.56 247.504 31.896C247.696 32.232 247.816 32.64 247.888 33.072C247.936 33.528 247.984 34.008 247.984 34.488V42H250.168V33.84C250.168 33.12 250.072 32.448 249.928 31.824C249.784 31.224 249.544 30.696 249.208 30.264C248.872 29.832 248.416 29.496 247.888 29.256C247.36 29.016 246.688 28.896 245.92 28.896C244.816 28.896 243.952 29.088 243.28 29.52C242.608 29.928 242.104 30.432 241.744 31.032ZM255.619 24.6H253.435V42H255.619V37.68L257.131 36.048L261.523 42H264.187L258.595 34.44L263.515 29.088H260.827L255.619 34.896V24.6ZM273.501 35.784V36.6C273.501 37.368 273.381 38.016 273.165 38.52C272.925 39.024 272.637 39.432 272.277 39.744C271.893 40.056 271.485 40.272 271.005 40.392C270.525 40.536 270.021 40.584 269.517 40.584C268.725 40.584 268.101 40.416 267.669 40.032C267.237 39.648 267.021 39.168 267.021 38.544C267.021 38.112 267.165 37.728 267.477 37.416C267.765 37.128 268.197 36.864 268.773 36.648C269.325 36.456 269.997 36.288 270.813 36.144C271.605 36 272.493 35.88 273.501 35.784ZM269.013 42.312C270.165 42.312 271.101 42.144 271.797 41.784C272.493 41.424 273.045 40.896 273.429 40.224C273.453 40.608 273.477 40.944 273.501 41.232C273.549 41.52 273.573 41.76 273.597 42H275.805C275.685 41.4 275.589 40.704 275.541 39.936C275.493 39.168 275.469 38.232 275.493 37.128L275.517 34.152C275.517 32.328 275.109 30.984 274.293 30.12C273.477 29.256 272.157 28.824 270.381 28.824C269.757 28.824 269.133 28.92 268.533 29.112C267.933 29.304 267.405 29.592 266.925 29.952C266.445 30.336 266.037 30.792 265.725 31.32C265.413 31.872 265.245 32.496 265.197 33.168H267.453C267.501 32.376 267.765 31.752 268.269 31.296C268.773 30.84 269.493 30.6 270.405 30.6C270.789 30.6 271.173 30.672 271.533 30.768C271.893 30.864 272.205 31.056 272.469 31.296C272.733 31.536 272.949 31.872 273.093 32.256C273.237 32.664 273.333 33.168 273.333 33.744V34.056C271.989 34.2 270.789 34.392 269.733 34.584C268.653 34.8 267.741 35.064 266.973 35.4C266.205 35.736 265.629 36.168 265.221 36.672C264.789 37.2 264.597 37.824 264.597 38.592C264.597 39.192 264.693 39.72 264.933 40.176C265.173 40.656 265.485 41.04 265.893 41.352C266.301 41.664 266.781 41.904 267.309 42.072C267.837 42.24 268.413 42.312 269.013 42.312ZM280.859 35.592C280.859 34.752 280.955 34.032 281.171 33.408C281.363 32.784 281.651 32.28 282.011 31.896C282.347 31.512 282.755 31.224 283.211 31.032C283.667 30.84 284.147 30.744 284.627 30.744C285.731 30.744 286.643 31.176 287.315 32.016C287.987 32.856 288.323 34.056 288.323 35.592C288.323 37.152 287.987 38.352 287.315 39.192C286.643 40.032 285.731 40.44 284.627 40.44C284.147 40.44 283.667 40.368 283.211 40.176C282.755 39.984 282.347 39.696 282.011 39.312C281.651 38.928 281.363 38.424 281.171 37.8C280.955 37.176 280.859 36.456 280.859 35.592ZM280.955 24.6H278.771V42H280.955V40.056C281.339 40.752 281.891 41.304 282.587 41.712C283.259 42.12 284.123 42.312 285.179 42.312C285.899 42.312 286.619 42.168 287.291 41.88C287.963 41.592 288.539 41.136 289.043 40.56C289.547 39.984 289.955 39.288 290.243 38.448C290.531 37.632 290.699 36.672 290.699 35.592C290.699 34.536 290.531 33.6 290.243 32.76C289.955 31.944 289.547 31.224 289.043 30.648C288.539 30.072 287.963 29.64 287.291 29.328C286.619 29.04 285.899 28.872 285.179 28.872C284.123 28.872 283.259 29.088 282.587 29.496C281.891 29.904 281.339 30.456 280.955 31.128V24.6ZM295.369 42V24.6H293.185V42H295.369ZM300.297 36.264H310.233C310.281 35.256 310.185 34.296 309.945 33.384C309.705 32.496 309.321 31.704 308.793 31.032C308.265 30.36 307.617 29.832 306.849 29.448C306.057 29.064 305.169 28.872 304.185 28.872C303.321 28.872 302.505 29.04 301.737 29.352C300.969 29.664 300.321 30.12 299.745 30.696C299.169 31.272 298.737 31.992 298.401 32.808C298.089 33.624 297.921 34.56 297.921 35.568C297.921 36.528 298.065 37.416 298.353 38.232C298.641 39.048 299.049 39.768 299.577 40.368C300.105 40.992 300.777 41.472 301.545 41.808C302.337 42.144 303.249 42.312 304.257 42.312C305.049 42.312 305.769 42.216 306.417 42C307.065 41.784 307.641 41.496 308.121 41.112C308.601 40.752 309.009 40.32 309.345 39.84C309.681 39.36 309.897 38.832 310.041 38.256H307.785C307.521 38.904 307.113 39.432 306.537 39.816C305.985 40.2 305.217 40.392 304.257 40.392C303.777 40.392 303.321 40.32 302.841 40.152C302.385 39.984 301.977 39.72 301.593 39.384C301.209 39.048 300.897 38.616 300.657 38.112C300.417 37.584 300.297 36.984 300.297 36.264ZM304.185 30.768C304.761 30.768 305.289 30.864 305.745 31.08C306.201 31.272 306.585 31.56 306.897 31.896C307.233 32.232 307.473 32.64 307.641 33.072C307.809 33.504 307.905 33.96 307.905 34.416H300.297C300.345 33.768 300.489 33.216 300.729 32.76C300.969 32.28 301.257 31.896 301.617 31.608C301.953 31.32 302.361 31.104 302.817 30.96C303.249 30.816 303.705 30.768 304.185 30.768ZM312.259 42H315.019V39.24H312.259V42Z" fill="url(#paint0_linear_461_5783)"/>
<defs>
<linearGradient id="paint0_linear_461_5783" x1="211.5" y1="-2" x2="211.5" y2="57" gradientUnits="userSpaceOnUse">
<stop stop-color="white"/>
<stop offset="1" stop-color="#C4C4C4" stop-opacity="0"/>
</linearGradient>
</defs>
</svg>
