<svg width="427" height="47" viewBox="0 0 427 47" fill="none" xmlns="http://www.w3.org/2000/svg">
<path d="M6.30106 0.599999H0.853063V18H3.30106V11.112H6.30106C7.35706 11.112 8.31706 11.04 9.20506 10.896C10.0931 10.752 10.8611 10.488 11.5091 10.104C12.1331 9.72 12.6371 9.192 12.9971 8.52C13.3331 7.848 13.5251 6.96 13.5251 5.88C13.5251 4.8 13.3331 3.912 12.9971 3.24C12.6371 2.568 12.1331 2.016 11.5091 1.632C10.8611 1.248 10.0931 0.983999 9.20506 0.839999C8.31706 0.696 7.35706 0.599999 6.30106 0.599999ZM3.30106 2.688H6.49306C7.11706 2.688 7.71706 2.712 8.26906 2.784C8.82106 2.832 9.30106 2.976 9.70906 3.216C10.1171 3.432 10.4291 3.744 10.6691 4.176C10.9091 4.608 11.0291 5.16 11.0291 5.88C11.0291 6.6 10.9091 7.152 10.6691 7.56C10.4291 7.968 10.1171 8.28 9.70906 8.496C9.30106 8.712 8.82106 8.856 8.26906 8.904C7.71706 8.952 7.11706 9 6.49306 9H3.30106V2.688ZM17.9589 18V0.599999H15.7749V18H17.9589ZM29.5593 11.784V12.6C29.5593 13.368 29.4393 14.016 29.2233 14.52C28.9833 15.024 28.6953 15.432 28.3353 15.744C27.9513 16.056 27.5433 16.272 27.0633 16.392C26.5833 16.536 26.0793 16.584 25.5753 16.584C24.7833 16.584 24.1593 16.416 23.7273 16.032C23.2953 15.648 23.0793 15.168 23.0793 14.544C23.0793 14.112 23.2233 13.728 23.5353 13.416C23.8233 13.128 24.2553 12.864 24.8313 12.648C25.3833 12.456 26.0553 12.288 26.8713 12.144C27.6633 12 28.5513 11.88 29.5593 11.784ZM25.0713 18.312C26.2233 18.312 27.1593 18.144 27.8553 17.784C28.5513 17.424 29.1033 16.896 29.4873 16.224C29.5113 16.608 29.5353 16.944 29.5593 17.232C29.6073 17.52 29.6313 17.76 29.6553 18H31.8633C31.7433 17.4 31.6473 16.704 31.5993 15.936C31.5513 15.168 31.5273 14.232 31.5513 13.128L31.5753 10.152C31.5753 8.328 31.1673 6.984 30.3513 6.12C29.5353 5.256 28.2153 4.824 26.4393 4.824C25.8153 4.824 25.1913 4.92 24.5913 5.112C23.9913 5.304 23.4633 5.592 22.9833 5.952C22.5033 6.336 22.0953 6.792 21.7833 7.32C21.4713 7.872 21.3033 8.496 21.2553 9.168H23.5113C23.5593 8.376 23.8233 7.752 24.3273 7.296C24.8313 6.84 25.5513 6.6 26.4633 6.6C26.8473 6.6 27.2313 6.672 27.5913 6.768C27.9513 6.864 28.2633 7.056 28.5273 7.296C28.7913 7.536 29.0073 7.872 29.1513 8.256C29.2953 8.664 29.3913 9.168 29.3913 9.744V10.056C28.0473 10.2 26.8473 10.392 25.7913 10.584C24.7113 10.8 23.7993 11.064 23.0313 11.4C22.2633 11.736 21.6873 12.168 21.2793 12.672C20.8473 13.2 20.6553 13.824 20.6553 14.592C20.6553 15.192 20.7513 15.72 20.9913 16.176C21.2313 16.656 21.5433 17.04 21.9513 17.352C22.3593 17.664 22.8393 17.904 23.3673 18.072C23.8953 18.24 24.4713 18.312 25.0713 18.312ZM44.1684 5.088H41.8884L38.6964 15.048L35.4084 5.088H32.9844L37.6404 18L37.5444 18.264C37.4004 18.792 37.2324 19.176 37.0644 19.464C36.8964 19.752 36.7044 19.944 36.5124 20.088C36.2964 20.232 36.0564 20.304 35.7684 20.352C35.4804 20.376 35.1684 20.4 34.8084 20.4H33.9204V22.224H35.0484C35.7684 22.224 36.3684 22.152 36.8484 22.032C37.3284 21.912 37.7124 21.72 38.0244 21.432C38.3604 21.144 38.6244 20.784 38.8404 20.328C39.0804 19.848 39.2964 19.272 39.5364 18.576L44.1684 5.088ZM57.3714 5.088L54.8034 14.64L52.3314 5.088H49.9794L53.6994 18H55.6914L58.4514 7.608L61.3074 18H63.2994L67.0194 5.088H64.6674L62.1954 14.64L59.6274 5.088H57.3714ZM71.0448 5.088H68.8608V18H71.0448V5.088ZM71.0448 0.599999H68.8608V3.24H71.0448V0.599999ZM75.1333 1.848V5.088H73.0933V6.84H75.1333V14.76C75.1333 15.432 75.1573 15.984 75.2533 16.416C75.3493 16.848 75.4933 17.16 75.7333 17.4C75.9492 17.64 76.2613 17.784 76.6453 17.88C77.0293 17.976 77.5333 18.024 78.1573 18.024H79.7413V16.2H78.6373C78.3253 16.2 78.0853 16.176 77.9173 16.128C77.7253 16.08 77.6053 15.984 77.5093 15.864C77.4133 15.72 77.3653 15.552 77.3413 15.336C77.3173 15.12 77.3173 14.856 77.3173 14.52V6.864H79.7653V5.112H77.3173V1.872L75.1333 1.848ZM84.7323 7.032V0.599999H82.5483V18H84.7323V10.992C84.7323 9.6 85.0203 8.568 85.6443 7.848C86.2443 7.128 87.0843 6.768 88.1403 6.768C88.7643 6.768 89.2443 6.888 89.6283 7.08C90.0123 7.272 90.3003 7.56 90.4923 7.896C90.6843 8.232 90.8043 8.64 90.8763 9.072C90.9243 9.528 90.9723 10.008 90.9723 10.488V18H93.1563V9.84C93.1563 9.12 93.0603 8.448 92.9163 7.824C92.7723 7.224 92.5323 6.696 92.1963 6.264C91.8603 5.832 91.4043 5.496 90.8763 5.256C90.3483 5.016 89.6763 4.896 88.9083 4.896C87.8043 4.896 86.9403 5.088 86.2683 5.52C85.5963 5.928 85.0923 6.432 84.7323 7.032ZM104.303 18V10.992C104.303 9.6 104.567 8.568 105.143 7.848C105.719 7.128 106.463 6.768 107.423 6.768C107.999 6.768 108.479 6.888 108.839 7.08C109.199 7.272 109.487 7.56 109.679 7.896C109.871 8.232 110.015 8.64 110.087 9.072C110.135 9.528 110.183 10.008 110.183 10.488V18H112.367V10.992C112.367 9.6 112.631 8.568 113.207 7.848C113.783 7.128 114.527 6.768 115.487 6.768C116.063 6.768 116.543 6.888 116.903 7.08C117.263 7.272 117.551 7.56 117.743 7.896C117.935 8.232 118.079 8.64 118.151 9.072C118.199 9.528 118.247 10.008 118.247 10.488V18H120.431V9.84C120.431 9.12 120.335 8.448 120.191 7.824C120.047 7.224 119.807 6.696 119.471 6.264C119.135 5.832 118.703 5.496 118.175 5.256C117.647 5.016 116.999 4.896 116.255 4.896C115.343 4.896 114.503 5.064 113.783 5.424C113.039 5.784 112.415 6.36 111.911 7.176C111.623 6.456 111.167 5.88 110.567 5.496C109.967 5.088 109.175 4.896 108.191 4.896C107.207 4.896 106.415 5.088 105.791 5.52C105.167 5.928 104.663 6.432 104.303 7.032V5.088H102.119V18H104.303ZM125.169 12.264H135.105C135.153 11.256 135.057 10.296 134.817 9.384C134.577 8.496 134.193 7.704 133.665 7.032C133.137 6.36 132.489 5.832 131.721 5.448C130.929 5.064 130.041 4.872 129.057 4.872C128.193 4.872 127.377 5.04 126.609 5.352C125.841 5.664 125.193 6.12 124.617 6.696C124.041 7.272 123.609 7.992 123.273 8.808C122.961 9.624 122.793 10.56 122.793 11.568C122.793 12.528 122.937 13.416 123.225 14.232C123.513 15.048 123.921 15.768 124.449 16.368C124.977 16.992 125.649 17.472 126.417 17.808C127.209 18.144 128.121 18.312 129.129 18.312C129.921 18.312 130.641 18.216 131.289 18C131.937 17.784 132.513 17.496 132.993 17.112C133.473 16.752 133.881 16.32 134.217 15.84C134.553 15.36 134.769 14.832 134.913 14.256H132.657C132.393 14.904 131.985 15.432 131.409 15.816C130.857 16.2 130.089 16.392 129.129 16.392C128.649 16.392 128.193 16.32 127.713 16.152C127.257 15.984 126.849 15.72 126.465 15.384C126.081 15.048 125.769 14.616 125.529 14.112C125.289 13.584 125.169 12.984 125.169 12.264ZM129.057 6.768C129.633 6.768 130.161 6.864 130.617 7.08C131.073 7.272 131.457 7.56 131.769 7.896C132.105 8.232 132.345 8.64 132.513 9.072C132.681 9.504 132.777 9.96 132.777 10.416H125.169C125.217 9.768 125.361 9.216 125.601 8.76C125.841 8.28 126.129 7.896 126.489 7.608C126.825 7.32 127.233 7.104 127.689 6.96C128.121 6.816 128.577 6.768 129.057 6.768ZM138.274 1.848V5.088H136.234V6.84H138.274V14.76C138.274 15.432 138.298 15.984 138.394 16.416C138.49 16.848 138.634 17.16 138.874 17.4C139.09 17.64 139.402 17.784 139.786 17.88C140.17 17.976 140.674 18.024 141.298 18.024H142.882V16.2H141.778C141.466 16.2 141.226 16.176 141.058 16.128C140.866 16.08 140.746 15.984 140.65 15.864C140.554 15.72 140.506 15.552 140.482 15.336C140.458 15.12 140.458 14.856 140.458 14.52V6.864H142.906V5.112H140.458V1.872L138.274 1.848ZM153.591 11.784V12.6C153.591 13.368 153.471 14.016 153.255 14.52C153.015 15.024 152.727 15.432 152.367 15.744C151.983 16.056 151.575 16.272 151.095 16.392C150.615 16.536 150.111 16.584 149.607 16.584C148.815 16.584 148.191 16.416 147.759 16.032C147.327 15.648 147.111 15.168 147.111 14.544C147.111 14.112 147.255 13.728 147.567 13.416C147.855 13.128 148.287 12.864 148.863 12.648C149.415 12.456 150.087 12.288 150.903 12.144C151.695 12 152.583 11.88 153.591 11.784ZM149.103 18.312C150.255 18.312 151.191 18.144 151.887 17.784C152.583 17.424 153.135 16.896 153.519 16.224C153.543 16.608 153.567 16.944 153.591 17.232C153.639 17.52 153.663 17.76 153.687 18H155.895C155.775 17.4 155.679 16.704 155.631 15.936C155.583 15.168 155.559 14.232 155.583 13.128L155.607 10.152C155.607 8.328 155.199 6.984 154.383 6.12C153.567 5.256 152.247 4.824 150.471 4.824C149.847 4.824 149.223 4.92 148.623 5.112C148.023 5.304 147.495 5.592 147.015 5.952C146.535 6.336 146.127 6.792 145.815 7.32C145.503 7.872 145.335 8.496 145.287 9.168H147.543C147.591 8.376 147.855 7.752 148.359 7.296C148.863 6.84 149.583 6.6 150.495 6.6C150.879 6.6 151.263 6.672 151.623 6.768C151.983 6.864 152.295 7.056 152.559 7.296C152.823 7.536 153.039 7.872 153.183 8.256C153.327 8.664 153.423 9.168 153.423 9.744V10.056C152.079 10.2 150.879 10.392 149.823 10.584C148.743 10.8 147.831 11.064 147.063 11.4C146.295 11.736 145.719 12.168 145.311 12.672C144.879 13.2 144.687 13.824 144.687 14.592C144.687 15.192 144.783 15.72 145.023 16.176C145.263 16.656 145.575 17.04 145.983 17.352C146.391 17.664 146.871 17.904 147.399 18.072C147.927 18.24 148.503 18.312 149.103 18.312ZM161.045 5.088H158.861V22.2H161.045V16.056C161.429 16.752 161.981 17.304 162.677 17.712C163.349 18.12 164.213 18.312 165.269 18.312C165.989 18.312 166.709 18.168 167.381 17.88C168.053 17.592 168.629 17.136 169.133 16.56C169.637 15.984 170.045 15.288 170.333 14.448C170.621 13.632 170.789 12.672 170.789 11.592C170.789 10.536 170.621 9.6 170.333 8.76C170.045 7.944 169.637 7.224 169.133 6.648C168.629 6.072 168.053 5.64 167.381 5.328C166.709 5.04 165.989 4.872 165.269 4.872C164.213 4.872 163.349 5.088 162.677 5.496C161.981 5.904 161.429 6.456 161.045 7.128V5.088ZM160.949 11.592C160.949 10.752 161.045 10.032 161.261 9.408C161.453 8.784 161.741 8.28 162.101 7.896C162.437 7.512 162.845 7.224 163.301 7.032C163.757 6.84 164.237 6.744 164.717 6.744C165.821 6.744 166.733 7.176 167.405 8.016C168.077 8.856 168.413 10.056 168.413 11.592C168.413 13.152 168.077 14.352 167.405 15.192C166.733 16.032 165.821 16.44 164.717 16.44C164.237 16.44 163.757 16.368 163.301 16.176C162.845 15.984 162.437 15.696 162.101 15.312C161.741 14.928 161.453 14.424 161.261 13.8C161.045 13.176 160.949 12.456 160.949 11.592ZM175.529 7.032V0.599999H173.345V18H175.529V10.992C175.529 9.6 175.817 8.568 176.441 7.848C177.041 7.128 177.881 6.768 178.937 6.768C179.561 6.768 180.041 6.888 180.425 7.08C180.809 7.272 181.097 7.56 181.289 7.896C181.481 8.232 181.601 8.64 181.673 9.072C181.721 9.528 181.769 10.008 181.769 10.488V18H183.953V9.84C183.953 9.12 183.857 8.448 183.713 7.824C183.569 7.224 183.329 6.696 182.993 6.264C182.657 5.832 182.201 5.496 181.673 5.256C181.145 5.016 180.473 4.896 179.705 4.896C178.601 4.896 177.737 5.088 177.065 5.52C176.393 5.928 175.889 6.432 175.529 7.032ZM188.708 11.592C188.708 10.728 188.804 9.984 189.02 9.36C189.236 8.76 189.524 8.256 189.884 7.872C190.244 7.488 190.652 7.224 191.132 7.056C191.588 6.888 192.068 6.792 192.572 6.792C193.052 6.792 193.532 6.888 194.012 7.056C194.468 7.248 194.876 7.512 195.236 7.896C195.596 8.28 195.884 8.784 196.1 9.384C196.316 10.008 196.436 10.728 196.436 11.592C196.436 12.432 196.316 13.152 196.1 13.752C195.884 14.352 195.596 14.856 195.236 15.24C194.876 15.624 194.468 15.912 194.012 16.104C193.532 16.296 193.052 16.392 192.572 16.392C192.068 16.392 191.588 16.32 191.132 16.128C190.652 15.96 190.244 15.672 189.884 15.288C189.524 14.904 189.236 14.424 189.02 13.8C188.804 13.2 188.708 12.456 188.708 11.592ZM192.572 4.872C191.804 4.872 191.06 5.016 190.34 5.28C189.596 5.544 188.924 5.952 188.324 6.48C187.748 7.032 187.268 7.728 186.908 8.568C186.548 9.432 186.356 10.44 186.356 11.592C186.356 12.768 186.548 13.776 186.908 14.616C187.268 15.48 187.748 16.176 188.324 16.704C188.924 17.256 189.596 17.664 190.34 17.928C191.06 18.192 191.804 18.312 192.572 18.312C193.316 18.312 194.06 18.192 194.804 17.928C195.524 17.664 196.196 17.256 196.796 16.704C197.372 16.176 197.852 15.48 198.212 14.616C198.572 13.776 198.764 12.768 198.764 11.592C198.764 10.44 198.572 9.432 198.212 8.568C197.852 7.728 197.372 7.032 196.796 6.48C196.196 5.952 195.524 5.544 194.804 5.28C194.06 5.016 193.316 4.872 192.572 4.872ZM207.808 7.368V5.04C207.664 5.04 207.568 5.016 207.472 5.016H207.16C206.296 5.064 205.552 5.28 204.928 5.664C204.304 6.048 203.824 6.624 203.512 7.344V5.088H201.376V18H203.56V11.232C203.56 9.816 203.8 8.808 204.304 8.184C204.808 7.584 205.576 7.272 206.584 7.272C206.752 7.272 206.944 7.296 207.16 7.296C207.352 7.32 207.568 7.344 207.808 7.368ZM207.349 18H210.109V15.24H207.349V18ZM224.879 0.599999H219.431V18H221.879V11.112H224.879C225.935 11.112 226.895 11.04 227.783 10.896C228.671 10.752 229.439 10.488 230.087 10.104C230.711 9.72 231.215 9.192 231.575 8.52C231.911 7.848 232.103 6.96 232.103 5.88C232.103 4.8 231.911 3.912 231.575 3.24C231.215 2.568 230.711 2.016 230.087 1.632C229.439 1.248 228.671 0.983999 227.783 0.839999C226.895 0.696 225.935 0.599999 224.879 0.599999ZM221.879 2.688H225.071C225.695 2.688 226.295 2.712 226.847 2.784C227.399 2.832 227.879 2.976 228.287 3.216C228.695 3.432 229.007 3.744 229.247 4.176C229.487 4.608 229.607 5.16 229.607 5.88C229.607 6.6 229.487 7.152 229.247 7.56C229.007 7.968 228.695 8.28 228.287 8.496C227.879 8.712 227.399 8.856 226.847 8.904C226.295 8.952 225.695 9 225.071 9H221.879V2.688ZM236.537 18V0.599999H234.353V18H236.537ZM248.137 11.784V12.6C248.137 13.368 248.017 14.016 247.801 14.52C247.561 15.024 247.273 15.432 246.913 15.744C246.529 16.056 246.121 16.272 245.641 16.392C245.161 16.536 244.657 16.584 244.153 16.584C243.361 16.584 242.737 16.416 242.305 16.032C241.873 15.648 241.657 15.168 241.657 14.544C241.657 14.112 241.801 13.728 242.113 13.416C242.401 13.128 242.833 12.864 243.409 12.648C243.961 12.456 244.633 12.288 245.449 12.144C246.241 12 247.129 11.88 248.137 11.784ZM243.649 18.312C244.801 18.312 245.737 18.144 246.433 17.784C247.129 17.424 247.681 16.896 248.065 16.224C248.089 16.608 248.113 16.944 248.137 17.232C248.185 17.52 248.209 17.76 248.233 18H250.441C250.321 17.4 250.225 16.704 250.177 15.936C250.129 15.168 250.105 14.232 250.129 13.128L250.153 10.152C250.153 8.328 249.745 6.984 248.929 6.12C248.113 5.256 246.793 4.824 245.017 4.824C244.393 4.824 243.769 4.92 243.169 5.112C242.569 5.304 242.041 5.592 241.561 5.952C241.081 6.336 240.673 6.792 240.361 7.32C240.049 7.872 239.881 8.496 239.833 9.168H242.089C242.137 8.376 242.401 7.752 242.905 7.296C243.409 6.84 244.129 6.6 245.041 6.6C245.425 6.6 245.809 6.672 246.169 6.768C246.529 6.864 246.841 7.056 247.105 7.296C247.369 7.536 247.585 7.872 247.729 8.256C247.873 8.664 247.969 9.168 247.969 9.744V10.056C246.625 10.2 245.425 10.392 244.369 10.584C243.289 10.8 242.377 11.064 241.609 11.4C240.841 11.736 240.265 12.168 239.857 12.672C239.425 13.2 239.233 13.824 239.233 14.592C239.233 15.192 239.329 15.72 239.569 16.176C239.809 16.656 240.121 17.04 240.529 17.352C240.937 17.664 241.417 17.904 241.945 18.072C242.473 18.24 243.049 18.312 243.649 18.312ZM262.747 5.088H260.467L257.275 15.048L253.987 5.088H251.562L256.219 18L256.123 18.264C255.979 18.792 255.811 19.176 255.643 19.464C255.475 19.752 255.283 19.944 255.09 20.088C254.875 20.232 254.635 20.304 254.347 20.352C254.059 20.376 253.747 20.4 253.387 20.4H252.499V22.224H253.627C254.347 22.224 254.947 22.152 255.427 22.032C255.907 21.912 256.291 21.72 256.603 21.432C256.939 21.144 257.203 20.784 257.419 20.328C257.659 19.848 257.875 19.272 258.115 18.576L262.747 5.088ZM275.95 5.088L273.382 14.64L270.91 5.088H268.558L272.278 18H274.27L277.03 7.608L279.886 18H281.878L285.598 5.088H283.246L280.773 14.64L278.206 5.088H275.95ZM289.623 5.088H287.439V18H289.623V5.088ZM289.623 0.599999H287.439V3.24H289.623V0.599999ZM293.711 1.848V5.088H291.671V6.84H293.711V14.76C293.711 15.432 293.735 15.984 293.831 16.416C293.927 16.848 294.071 17.16 294.311 17.4C294.527 17.64 294.839 17.784 295.223 17.88C295.607 17.976 296.111 18.024 296.735 18.024H298.319V16.2H297.215C296.903 16.2 296.663 16.176 296.495 16.128C296.303 16.08 296.183 15.984 296.087 15.864C295.991 15.72 295.943 15.552 295.919 15.336C295.895 15.12 295.895 14.856 295.895 14.52V6.864H298.343V5.112H295.895V1.872L293.711 1.848ZM303.31 7.032V0.599999H301.126V18H303.31V10.992C303.31 9.6 303.598 8.568 304.222 7.848C304.822 7.128 305.662 6.768 306.718 6.768C307.342 6.768 307.822 6.888 308.206 7.08C308.59 7.272 308.878 7.56 309.07 7.896C309.262 8.232 309.382 8.64 309.454 9.072C309.502 9.528 309.55 10.008 309.55 10.488V18H311.734V9.84C311.734 9.12 311.638 8.448 311.494 7.824C311.35 7.224 311.11 6.696 310.774 6.264C310.438 5.832 309.982 5.496 309.454 5.256C308.926 5.016 308.254 4.896 307.486 4.896C306.382 4.896 305.518 5.088 304.846 5.52C304.174 5.928 303.67 6.432 303.31 7.032ZM322.161 12.264H332.097C332.145 11.256 332.049 10.296 331.809 9.384C331.569 8.496 331.185 7.704 330.657 7.032C330.129 6.36 329.481 5.832 328.713 5.448C327.921 5.064 327.033 4.872 326.049 4.872C325.185 4.872 324.369 5.04 323.601 5.352C322.833 5.664 322.185 6.12 321.609 6.696C321.033 7.272 320.601 7.992 320.265 8.808C319.953 9.624 319.785 10.56 319.785 11.568C319.785 12.528 319.929 13.416 320.217 14.232C320.505 15.048 320.913 15.768 321.441 16.368C321.969 16.992 322.641 17.472 323.409 17.808C324.201 18.144 325.113 18.312 326.121 18.312C326.913 18.312 327.633 18.216 328.281 18C328.929 17.784 329.505 17.496 329.985 17.112C330.465 16.752 330.873 16.32 331.209 15.84C331.545 15.36 331.761 14.832 331.905 14.256H329.649C329.385 14.904 328.977 15.432 328.401 15.816C327.849 16.2 327.081 16.392 326.121 16.392C325.641 16.392 325.185 16.32 324.705 16.152C324.249 15.984 323.841 15.72 323.457 15.384C323.073 15.048 322.761 14.616 322.521 14.112C322.281 13.584 322.161 12.984 322.161 12.264ZM326.049 6.768C326.625 6.768 327.153 6.864 327.609 7.08C328.065 7.272 328.449 7.56 328.761 7.896C329.097 8.232 329.337 8.64 329.505 9.072C329.673 9.504 329.769 9.96 329.769 10.416H322.161C322.209 9.768 322.353 9.216 322.593 8.76C322.833 8.28 323.121 7.896 323.481 7.608C323.817 7.32 324.225 7.104 324.681 6.96C325.113 6.816 325.569 6.768 326.049 6.768ZM336.826 18V10.992C336.826 9.6 337.09 8.568 337.666 7.848C338.242 7.128 338.986 6.768 339.946 6.768C340.522 6.768 341.002 6.888 341.362 7.08C341.722 7.272 342.01 7.56 342.202 7.896C342.394 8.232 342.538 8.64 342.61 9.072C342.658 9.528 342.706 10.008 342.706 10.488V18H344.89V10.992C344.89 9.6 345.154 8.568 345.73 7.848C346.306 7.128 347.05 6.768 348.01 6.768C348.586 6.768 349.066 6.888 349.426 7.08C349.786 7.272 350.074 7.56 350.266 7.896C350.458 8.232 350.602 8.64 350.674 9.072C350.722 9.528 350.77 10.008 350.77 10.488V18H352.954V9.84C352.954 9.12 352.858 8.448 352.714 7.824C352.57 7.224 352.33 6.696 351.994 6.264C351.658 5.832 351.226 5.496 350.698 5.256C350.17 5.016 349.522 4.896 348.778 4.896C347.866 4.896 347.026 5.064 346.306 5.424C345.562 5.784 344.938 6.36 344.434 7.176C344.146 6.456 343.69 5.88 343.09 5.496C342.49 5.088 341.698 4.896 340.714 4.896C339.73 4.896 338.938 5.088 338.314 5.52C337.69 5.928 337.186 6.432 336.826 7.032V5.088H334.642V18H336.826ZM357.716 11.592C357.716 10.728 357.812 9.984 358.028 9.36C358.244 8.76 358.532 8.256 358.892 7.872C359.252 7.488 359.66 7.224 360.14 7.056C360.596 6.888 361.076 6.792 361.58 6.792C362.06 6.792 362.54 6.888 363.02 7.056C363.476 7.248 363.884 7.512 364.244 7.896C364.604 8.28 364.892 8.784 365.108 9.384C365.324 10.008 365.444 10.728 365.444 11.592C365.444 12.432 365.324 13.152 365.108 13.752C364.892 14.352 364.604 14.856 364.244 15.24C363.884 15.624 363.476 15.912 363.02 16.104C362.54 16.296 362.06 16.392 361.58 16.392C361.076 16.392 360.596 16.32 360.14 16.128C359.66 15.96 359.252 15.672 358.892 15.288C358.532 14.904 358.244 14.424 358.028 13.8C357.812 13.2 357.716 12.456 357.716 11.592ZM361.58 4.872C360.812 4.872 360.068 5.016 359.348 5.28C358.604 5.544 357.932 5.952 357.332 6.48C356.756 7.032 356.276 7.728 355.916 8.568C355.556 9.432 355.364 10.44 355.364 11.592C355.364 12.768 355.556 13.776 355.916 14.616C356.276 15.48 356.756 16.176 357.332 16.704C357.932 17.256 358.604 17.664 359.348 17.928C360.068 18.192 360.812 18.312 361.58 18.312C362.324 18.312 363.068 18.192 363.812 17.928C364.532 17.664 365.204 17.256 365.804 16.704C366.38 16.176 366.86 15.48 367.22 14.616C367.58 13.776 367.772 12.768 367.772 11.592C367.772 10.44 367.58 9.432 367.22 8.568C366.86 7.728 366.38 7.032 365.804 6.48C365.204 5.952 364.532 5.544 363.812 5.28C363.068 5.016 362.324 4.872 361.58 4.872ZM370.891 1.848V5.088H368.851V6.84H370.891V14.76C370.891 15.432 370.915 15.984 371.011 16.416C371.107 16.848 371.251 17.16 371.491 17.4C371.707 17.64 372.019 17.784 372.403 17.88C372.787 17.976 373.291 18.024 373.915 18.024H375.499V16.2H374.395C374.083 16.2 373.843 16.176 373.675 16.128C373.483 16.08 373.363 15.984 373.267 15.864C373.171 15.72 373.123 15.552 373.099 15.336C373.075 15.12 373.075 14.856 373.075 14.52V6.864H375.523V5.112H373.075V1.872L370.891 1.848ZM380.49 5.088H378.306V18H380.49V5.088ZM380.49 0.599999H378.306V3.24H380.49V0.599999ZM385.443 11.592C385.443 10.728 385.539 9.984 385.755 9.36C385.971 8.76 386.259 8.256 386.619 7.872C386.979 7.488 387.387 7.224 387.867 7.056C388.323 6.888 388.803 6.792 389.307 6.792C389.787 6.792 390.267 6.888 390.747 7.056C391.203 7.248 391.611 7.512 391.971 7.896C392.331 8.28 392.619 8.784 392.835 9.384C393.051 10.008 393.171 10.728 393.171 11.592C393.171 12.432 393.051 13.152 392.835 13.752C392.619 14.352 392.331 14.856 391.971 15.24C391.611 15.624 391.203 15.912 390.747 16.104C390.267 16.296 389.787 16.392 389.307 16.392C388.803 16.392 388.323 16.32 387.867 16.128C387.387 15.96 386.979 15.672 386.619 15.288C386.259 14.904 385.971 14.424 385.755 13.8C385.539 13.2 385.443 12.456 385.443 11.592ZM389.307 4.872C388.539 4.872 387.795 5.016 387.075 5.28C386.331 5.544 385.659 5.952 385.059 6.48C384.483 7.032 384.003 7.728 383.643 8.568C383.283 9.432 383.091 10.44 383.091 11.592C383.091 12.768 383.283 13.776 383.643 14.616C384.003 15.48 384.483 16.176 385.059 16.704C385.659 17.256 386.331 17.664 387.075 17.928C387.795 18.192 388.539 18.312 389.307 18.312C390.051 18.312 390.795 18.192 391.539 17.928C392.259 17.664 392.931 17.256 393.531 16.704C394.107 16.176 394.587 15.48 394.947 14.616C395.307 13.776 395.499 12.768 395.499 11.592C395.499 10.44 395.307 9.432 394.947 8.568C394.587 7.728 394.107 7.032 393.531 6.48C392.931 5.952 392.259 5.544 391.539 5.28C390.795 5.016 390.051 4.872 389.307 4.872ZM400.295 7.032V5.088H398.111V18H400.295V10.992C400.295 9.6 400.583 8.568 401.207 7.848C401.807 7.128 402.647 6.768 403.703 6.768C404.327 6.768 404.807 6.888 405.191 7.08C405.575 7.272 405.863 7.56 406.055 7.896C406.247 8.232 406.367 8.64 406.439 9.072C406.487 9.528 406.535 10.008 406.535 10.488V18H408.719V9.84C408.719 9.12 408.623 8.448 408.479 7.824C408.335 7.224 408.095 6.696 407.759 6.264C407.423 5.832 406.967 5.496 406.439 5.256C405.911 5.016 405.239 4.896 404.471 4.896C403.367 4.896 402.503 5.088 401.831 5.52C401.159 5.928 400.655 6.432 400.295 7.032ZM419.378 8.856H421.658C421.442 7.632 420.89 6.648 420.002 5.928C419.114 5.208 417.962 4.848 416.57 4.848C415.85 4.848 415.178 4.944 414.554 5.088C413.93 5.256 413.378 5.496 412.922 5.808C412.442 6.12 412.082 6.504 411.818 6.936C411.53 7.368 411.41 7.872 411.41 8.448C411.41 9.072 411.506 9.576 411.722 9.984C411.938 10.392 412.226 10.728 412.586 11.016C412.922 11.304 413.33 11.52 413.762 11.664C414.194 11.808 414.65 11.928 415.082 12.024L417.002 12.408C417.338 12.504 417.674 12.6 417.986 12.696C418.298 12.792 418.586 12.936 418.826 13.104C419.066 13.272 419.258 13.464 419.402 13.704C419.546 13.944 419.618 14.232 419.618 14.544C419.618 15.168 419.306 15.624 418.73 15.96C418.154 16.296 417.434 16.464 416.618 16.464C415.658 16.464 414.914 16.248 414.386 15.768C413.858 15.312 413.498 14.664 413.33 13.824H411.026C411.074 14.4 411.242 14.952 411.506 15.48C411.77 16.032 412.13 16.512 412.61 16.92C413.09 17.352 413.642 17.688 414.314 17.928C414.962 18.192 415.706 18.312 416.57 18.312C417.29 18.312 417.986 18.24 418.634 18.048C419.258 17.88 419.81 17.616 420.29 17.28C420.77 16.944 421.13 16.512 421.418 16.008C421.682 15.528 421.826 14.952 421.826 14.304C421.826 13.68 421.706 13.152 421.466 12.72C421.226 12.288 420.89 11.928 420.482 11.64C420.074 11.352 419.618 11.112 419.09 10.92C418.562 10.728 417.986 10.584 417.41 10.464L415.586 10.104C414.962 9.984 414.458 9.792 414.122 9.528C413.786 9.264 413.618 8.88 413.618 8.352C413.618 8.064 413.69 7.824 413.858 7.608C414.002 7.416 414.218 7.248 414.482 7.104C414.746 6.96 415.034 6.864 415.37 6.816C415.682 6.768 415.994 6.72 416.33 6.72C417.098 6.72 417.746 6.888 418.298 7.224C418.826 7.56 419.186 8.088 419.378 8.856ZM424.193 18H426.953V15.24H424.193V18ZM137.821 24.6H132.373V42H134.821V35.112H137.821C138.877 35.112 139.837 35.04 140.725 34.896C141.613 34.752 142.381 34.488 143.029 34.104C143.653 33.72 144.157 33.192 144.517 32.52C144.853 31.848 145.045 30.96 145.045 29.88C145.045 28.8 144.853 27.912 144.517 27.24C144.157 26.568 143.653 26.016 143.029 25.632C142.381 25.248 141.613 24.984 140.725 24.84C139.837 24.696 138.877 24.6 137.821 24.6ZM134.821 26.688H138.013C138.637 26.688 139.237 26.712 139.789 26.784C140.341 26.832 140.821 26.976 141.229 27.216C141.637 27.432 141.949 27.744 142.189 28.176C142.429 28.608 142.549 29.16 142.549 29.88C142.549 30.6 142.429 31.152 142.189 31.56C141.949 31.968 141.637 32.28 141.229 32.496C140.821 32.712 140.341 32.856 139.789 32.904C139.237 32.952 138.637 33 138.013 33H134.821V26.688ZM149.478 42V24.6H147.294V42H149.478ZM161.079 35.784V36.6C161.079 37.368 160.959 38.016 160.743 38.52C160.503 39.024 160.215 39.432 159.855 39.744C159.471 40.056 159.063 40.272 158.583 40.392C158.103 40.536 157.599 40.584 157.095 40.584C156.303 40.584 155.679 40.416 155.247 40.032C154.815 39.648 154.599 39.168 154.599 38.544C154.599 38.112 154.743 37.728 155.055 37.416C155.343 37.128 155.775 36.864 156.351 36.648C156.903 36.456 157.575 36.288 158.391 36.144C159.183 36 160.071 35.88 161.079 35.784ZM156.591 42.312C157.743 42.312 158.679 42.144 159.375 41.784C160.071 41.424 160.623 40.896 161.007 40.224C161.031 40.608 161.055 40.944 161.079 41.232C161.127 41.52 161.151 41.76 161.175 42H163.383C163.263 41.4 163.167 40.704 163.119 39.936C163.071 39.168 163.047 38.232 163.071 37.128L163.095 34.152C163.095 32.328 162.687 30.984 161.871 30.12C161.055 29.256 159.735 28.824 157.959 28.824C157.335 28.824 156.711 28.92 156.111 29.112C155.511 29.304 154.983 29.592 154.503 29.952C154.023 30.336 153.615 30.792 153.303 31.32C152.991 31.872 152.823 32.496 152.775 33.168H155.031C155.079 32.376 155.343 31.752 155.847 31.296C156.351 30.84 157.071 30.6 157.983 30.6C158.367 30.6 158.751 30.672 159.111 30.768C159.471 30.864 159.783 31.056 160.047 31.296C160.311 31.536 160.527 31.872 160.671 32.256C160.815 32.664 160.911 33.168 160.911 33.744V34.056C159.567 34.2 158.367 34.392 157.311 34.584C156.231 34.8 155.319 35.064 154.551 35.4C153.783 35.736 153.207 36.168 152.799 36.672C152.367 37.2 152.175 37.824 152.175 38.592C152.175 39.192 152.271 39.72 152.511 40.176C152.751 40.656 153.063 41.04 153.471 41.352C153.879 41.664 154.359 41.904 154.887 42.072C155.415 42.24 155.991 42.312 156.591 42.312ZM175.688 29.088H173.408L170.216 39.048L166.928 29.088H164.504L169.16 42L169.064 42.264C168.92 42.792 168.752 43.176 168.584 43.464C168.416 43.752 168.224 43.944 168.032 44.088C167.816 44.232 167.576 44.304 167.288 44.352C167 44.376 166.688 44.4 166.328 44.4H165.44V46.224H166.568C167.288 46.224 167.888 46.152 168.368 46.032C168.848 45.912 169.232 45.72 169.544 45.432C169.88 45.144 170.144 44.784 170.36 44.328C170.6 43.848 170.816 43.272 171.056 42.576L175.688 29.088ZM188.891 29.088L186.323 38.64L183.851 29.088H181.499L185.219 42H187.211L189.971 31.608L192.827 42H194.819L198.539 29.088H196.187L193.715 38.64L191.147 29.088H188.891ZM202.564 29.088H200.38V42H202.564V29.088ZM202.564 24.6H200.38V27.24H202.564V24.6ZM206.653 25.848V29.088H204.613V30.84H206.653V38.76C206.653 39.432 206.677 39.984 206.773 40.416C206.869 40.848 207.013 41.16 207.253 41.4C207.469 41.64 207.781 41.784 208.165 41.88C208.549 41.976 209.053 42.024 209.677 42.024H211.261V40.2H210.157C209.845 40.2 209.605 40.176 209.437 40.128C209.245 40.08 209.125 39.984 209.029 39.864C208.933 39.72 208.885 39.552 208.861 39.336C208.837 39.12 208.837 38.856 208.837 38.52V30.864H211.285V29.112H208.837V25.872L206.653 25.848ZM216.252 31.032V24.6H214.068V42H216.252V34.992C216.252 33.6 216.54 32.568 217.164 31.848C217.764 31.128 218.604 30.768 219.66 30.768C220.284 30.768 220.764 30.888 221.148 31.08C221.532 31.272 221.82 31.56 222.012 31.896C222.204 32.232 222.324 32.64 222.396 33.072C222.444 33.528 222.492 34.008 222.492 34.488V42H224.676V33.84C224.676 33.12 224.58 32.448 224.436 31.824C224.292 31.224 224.052 30.696 223.716 30.264C223.38 29.832 222.924 29.496 222.396 29.256C221.868 29.016 221.196 28.896 220.428 28.896C219.324 28.896 218.46 29.088 217.788 29.52C217.116 29.928 216.612 30.432 216.252 31.032ZM242.494 24.6V31.128C242.086 30.456 241.534 29.904 240.838 29.496C240.166 29.088 239.302 28.872 238.246 28.872C237.526 28.872 236.806 29.04 236.134 29.328C235.462 29.64 234.886 30.072 234.382 30.648C233.878 31.224 233.47 31.944 233.182 32.76C232.894 33.6 232.726 34.536 232.726 35.592C232.726 36.672 232.894 37.632 233.182 38.472C233.47 39.288 233.878 40.008 234.382 40.584C234.886 41.16 235.462 41.592 236.134 41.88C236.806 42.168 237.526 42.336 238.246 42.336C239.302 42.336 240.166 42.12 240.838 41.712C241.534 41.304 242.086 40.752 242.494 40.08V42.024H244.678V24.624L242.494 24.6ZM242.59 35.616C242.59 36.456 242.47 37.176 242.278 37.8C242.062 38.424 241.774 38.928 241.414 39.312C241.078 39.696 240.67 39.984 240.214 40.176C239.758 40.368 239.278 40.464 238.798 40.464C237.694 40.464 236.782 40.032 236.11 39.192C235.438 38.352 235.102 37.152 235.102 35.616C235.102 34.056 235.438 32.856 236.11 32.016C236.782 31.176 237.694 30.768 238.798 30.768C239.278 30.768 239.758 30.84 240.214 31.032C240.67 31.224 241.078 31.512 241.414 31.896C241.774 32.28 242.062 32.784 242.278 33.408C242.47 34.032 242.59 34.752 242.59 35.616ZM249.587 36.264H259.523C259.571 35.256 259.475 34.296 259.235 33.384C258.995 32.496 258.611 31.704 258.083 31.032C257.555 30.36 256.907 29.832 256.139 29.448C255.347 29.064 254.459 28.872 253.475 28.872C252.611 28.872 251.795 29.04 251.027 29.352C250.259 29.664 249.611 30.12 249.035 30.696C248.459 31.272 248.027 31.992 247.691 32.808C247.379 33.624 247.211 34.56 247.211 35.568C247.211 36.528 247.355 37.416 247.643 38.232C247.931 39.048 248.339 39.768 248.867 40.368C249.395 40.992 250.067 41.472 250.835 41.808C251.627 42.144 252.539 42.312 253.547 42.312C254.339 42.312 255.059 42.216 255.707 42C256.355 41.784 256.931 41.496 257.411 41.112C257.891 40.752 258.299 40.32 258.635 39.84C258.971 39.36 259.187 38.832 259.331 38.256H257.075C256.811 38.904 256.403 39.432 255.827 39.816C255.275 40.2 254.507 40.392 253.547 40.392C253.067 40.392 252.611 40.32 252.131 40.152C251.675 39.984 251.267 39.72 250.883 39.384C250.499 39.048 250.187 38.616 249.947 38.112C249.707 37.584 249.587 36.984 249.587 36.264ZM253.475 30.768C254.051 30.768 254.579 30.864 255.035 31.08C255.491 31.272 255.875 31.56 256.187 31.896C256.523 32.232 256.763 32.64 256.931 33.072C257.099 33.504 257.195 33.96 257.195 34.416H249.587C249.635 33.768 249.779 33.216 250.019 32.76C250.259 32.28 250.547 31.896 250.907 31.608C251.243 31.32 251.651 31.104 252.107 30.96C252.539 30.816 252.995 30.768 253.475 30.768ZM264.252 29.088H262.068V46.2H264.252V40.056C264.636 40.752 265.188 41.304 265.884 41.712C266.556 42.12 267.42 42.312 268.476 42.312C269.196 42.312 269.916 42.168 270.588 41.88C271.26 41.592 271.836 41.136 272.34 40.56C272.844 39.984 273.252 39.288 273.54 38.448C273.828 37.632 273.996 36.672 273.996 35.592C273.996 34.536 273.828 33.6 273.54 32.76C273.252 31.944 272.844 31.224 272.34 30.648C271.836 30.072 271.26 29.64 270.588 29.328C269.916 29.04 269.196 28.872 268.476 28.872C267.42 28.872 266.556 29.088 265.884 29.496C265.188 29.904 264.636 30.456 264.252 31.128V29.088ZM264.156 35.592C264.156 34.752 264.252 34.032 264.468 33.408C264.66 32.784 264.948 32.28 265.308 31.896C265.644 31.512 266.052 31.224 266.508 31.032C266.964 30.84 267.444 30.744 267.924 30.744C269.028 30.744 269.94 31.176 270.612 32.016C271.284 32.856 271.62 34.056 271.62 35.592C271.62 37.152 271.284 38.352 270.612 39.192C269.94 40.032 269.028 40.44 267.924 40.44C267.444 40.44 266.964 40.368 266.508 40.176C266.052 39.984 265.644 39.696 265.308 39.312C264.948 38.928 264.66 38.424 264.468 37.8C264.252 37.176 264.156 36.456 264.156 35.592ZM277.059 25.848V29.088H275.019V30.84H277.059V38.76C277.059 39.432 277.083 39.984 277.179 40.416C277.275 40.848 277.419 41.16 277.659 41.4C277.875 41.64 278.187 41.784 278.571 41.88C278.955 41.976 279.459 42.024 280.083 42.024H281.667V40.2H280.563C280.251 40.2 280.011 40.176 279.843 40.128C279.651 40.08 279.531 39.984 279.435 39.864C279.339 39.72 279.291 39.552 279.267 39.336C279.243 39.12 279.243 38.856 279.243 38.52V30.864H281.691V29.112H279.243V25.872L277.059 25.848ZM286.658 31.032V24.6H284.474V42H286.658V34.992C286.658 33.6 286.946 32.568 287.57 31.848C288.17 31.128 289.01 30.768 290.066 30.768C290.69 30.768 291.17 30.888 291.554 31.08C291.938 31.272 292.226 31.56 292.418 31.896C292.61 32.232 292.73 32.64 292.802 33.072C292.85 33.528 292.898 34.008 292.898 34.488V42H295.082V33.84C295.082 33.12 294.986 32.448 294.842 31.824C294.698 31.224 294.458 30.696 294.122 30.264C293.786 29.832 293.33 29.496 292.802 29.256C292.274 29.016 291.602 28.896 290.834 28.896C289.73 28.896 288.866 29.088 288.194 29.52C287.522 29.928 287.018 30.432 286.658 31.032ZM298.369 42H301.129V39.24H298.369V42Z" fill="url(#paint0_linear_461_5809)"/>
<defs>
<linearGradient id="paint0_linear_461_5809" x1="216.5" y1="-2" x2="216.5" y2="57" gradientUnits="userSpaceOnUse">
<stop stop-color="white"/>
<stop offset="1" stop-color="#C4C4C4" stop-opacity="0"/>
</linearGradient>
</defs>
</svg>
