<svg width="308" height="43" viewBox="0 0 308 43" fill="none" xmlns="http://www.w3.org/2000/svg">
<path d="M5.84403 0.599999H0.396031V18H2.84403V11.112H5.84403C6.90003 11.112 7.86003 11.04 8.74803 10.896C9.63603 10.752 10.404 10.488 11.052 10.104C11.676 9.72 12.18 9.192 12.54 8.52C12.876 7.848 13.068 6.96 13.068 5.88C13.068 4.8 12.876 3.912 12.54 3.24C12.18 2.568 11.676 2.016 11.052 1.632C10.404 1.248 9.63603 0.983999 8.74803 0.839999C7.86003 0.696 6.90003 0.599999 5.84403 0.599999ZM2.84403 2.688H6.03603C6.66003 2.688 7.26003 2.712 7.81203 2.784C8.36403 2.832 8.84403 2.976 9.25203 3.216C9.66003 3.432 9.97203 3.744 10.212 4.176C10.452 4.608 10.572 5.16 10.572 5.88C10.572 6.6 10.452 7.152 10.212 7.56C9.97203 7.968 9.66003 8.28 9.25203 8.496C8.84403 8.712 8.36403 8.856 7.81203 8.904C7.26003 8.952 6.66003 9 6.03603 9H2.84403V2.688ZM17.5018 18V0.599999H15.3178V18H17.5018ZM29.1023 11.784V12.6C29.1023 13.368 28.9823 14.016 28.7663 14.52C28.5263 15.024 28.2383 15.432 27.8783 15.744C27.4943 16.056 27.0863 16.272 26.6063 16.392C26.1263 16.536 25.6223 16.584 25.1183 16.584C24.3263 16.584 23.7023 16.416 23.2703 16.032C22.8383 15.648 22.6223 15.168 22.6223 14.544C22.6223 14.112 22.7663 13.728 23.0783 13.416C23.3663 13.128 23.7983 12.864 24.3743 12.648C24.9263 12.456 25.5983 12.288 26.4143 12.144C27.2063 12 28.0943 11.88 29.1023 11.784ZM24.6143 18.312C25.7663 18.312 26.7023 18.144 27.3983 17.784C28.0943 17.424 28.6463 16.896 29.0303 16.224C29.0543 16.608 29.0783 16.944 29.1023 17.232C29.1503 17.52 29.1743 17.76 29.1983 18H31.4063C31.2863 17.4 31.1903 16.704 31.1423 15.936C31.0943 15.168 31.0703 14.232 31.0943 13.128L31.1183 10.152C31.1183 8.328 30.7103 6.984 29.8943 6.12C29.0783 5.256 27.7583 4.824 25.9823 4.824C25.3583 4.824 24.7343 4.92 24.1343 5.112C23.5343 5.304 23.0063 5.592 22.5263 5.952C22.0463 6.336 21.6383 6.792 21.3263 7.32C21.0143 7.872 20.8463 8.496 20.7983 9.168H23.0543C23.1023 8.376 23.3663 7.752 23.8703 7.296C24.3743 6.84 25.0943 6.6 26.0063 6.6C26.3903 6.6 26.7743 6.672 27.1343 6.768C27.4943 6.864 27.8063 7.056 28.0703 7.296C28.3343 7.536 28.5503 7.872 28.6943 8.256C28.8383 8.664 28.9343 9.168 28.9343 9.744V10.056C27.5903 10.2 26.3903 10.392 25.3343 10.584C24.2543 10.8 23.3423 11.064 22.5743 11.4C21.8063 11.736 21.2303 12.168 20.8223 12.672C20.3903 13.2 20.1983 13.824 20.1983 14.592C20.1983 15.192 20.2943 15.72 20.5343 16.176C20.7743 16.656 21.0863 17.04 21.4943 17.352C21.9023 17.664 22.3823 17.904 22.9103 18.072C23.4383 18.24 24.0143 18.312 24.6143 18.312ZM43.7113 5.088H41.4313L38.2393 15.048L34.9513 5.088H32.5273L37.1833 18L37.0873 18.264C36.9433 18.792 36.7753 19.176 36.6073 19.464C36.4393 19.752 36.2473 19.944 36.0553 20.088C35.8393 20.232 35.5993 20.304 35.3113 20.352C35.0233 20.376 34.7113 20.4 34.3513 20.4H33.4633V22.224H34.5913C35.3113 22.224 35.9113 22.152 36.3913 22.032C36.8713 21.912 37.2553 21.72 37.5673 21.432C37.9033 21.144 38.1673 20.784 38.3833 20.328C38.6233 19.848 38.8393 19.272 39.0793 18.576L43.7113 5.088ZM56.9143 5.088L54.3463 14.64L51.8743 5.088H49.5223L53.2423 18H55.2343L57.9943 7.608L60.8503 18H62.8423L66.5623 5.088H64.2103L61.7383 14.64L59.1703 5.088H56.9143ZM70.5878 5.088H68.4038V18H70.5878V5.088ZM70.5878 0.599999H68.4038V3.24H70.5878V0.599999ZM74.6762 1.848V5.088H72.6362V6.84H74.6762V14.76C74.6762 15.432 74.7002 15.984 74.7962 16.416C74.8922 16.848 75.0362 17.16 75.2762 17.4C75.4922 17.64 75.8042 17.784 76.1882 17.88C76.5722 17.976 77.0762 18.024 77.7002 18.024H79.2842V16.2H78.1802C77.8682 16.2 77.6282 16.176 77.4602 16.128C77.2682 16.08 77.1482 15.984 77.0522 15.864C76.9562 15.72 76.9082 15.552 76.8842 15.336C76.8602 15.12 76.8602 14.856 76.8602 14.52V6.864H79.3082V5.112H76.8602V1.872L74.6762 1.848ZM84.2753 7.032V0.599999H82.0913V18H84.2753V10.992C84.2753 9.6 84.5633 8.568 85.1873 7.848C85.7873 7.128 86.6273 6.768 87.6833 6.768C88.3073 6.768 88.7873 6.888 89.1713 7.08C89.5553 7.272 89.8433 7.56 90.0353 7.896C90.2273 8.232 90.3473 8.64 90.4193 9.072C90.4673 9.528 90.5153 10.008 90.5153 10.488V18H92.6993V9.84C92.6993 9.12 92.6033 8.448 92.4593 7.824C92.3153 7.224 92.0753 6.696 91.7393 6.264C91.4033 5.832 90.9473 5.496 90.4193 5.256C89.8913 5.016 89.2193 4.896 88.4513 4.896C87.3473 4.896 86.4833 5.088 85.8113 5.52C85.1393 5.928 84.6353 6.432 84.2753 7.032ZM109.798 11.784V12.6C109.798 13.368 109.678 14.016 109.462 14.52C109.222 15.024 108.934 15.432 108.574 15.744C108.19 16.056 107.782 16.272 107.302 16.392C106.822 16.536 106.318 16.584 105.814 16.584C105.022 16.584 104.398 16.416 103.966 16.032C103.534 15.648 103.318 15.168 103.318 14.544C103.318 14.112 103.462 13.728 103.774 13.416C104.062 13.128 104.494 12.864 105.07 12.648C105.622 12.456 106.294 12.288 107.11 12.144C107.902 12 108.79 11.88 109.798 11.784ZM105.31 18.312C106.462 18.312 107.398 18.144 108.094 17.784C108.79 17.424 109.342 16.896 109.726 16.224C109.75 16.608 109.774 16.944 109.798 17.232C109.846 17.52 109.87 17.76 109.894 18H112.102C111.982 17.4 111.886 16.704 111.838 15.936C111.79 15.168 111.766 14.232 111.79 13.128L111.814 10.152C111.814 8.328 111.406 6.984 110.59 6.12C109.774 5.256 108.454 4.824 106.678 4.824C106.054 4.824 105.43 4.92 104.83 5.112C104.23 5.304 103.702 5.592 103.222 5.952C102.742 6.336 102.334 6.792 102.022 7.32C101.71 7.872 101.542 8.496 101.494 9.168H103.75C103.798 8.376 104.062 7.752 104.566 7.296C105.07 6.84 105.79 6.6 106.702 6.6C107.086 6.6 107.47 6.672 107.83 6.768C108.19 6.864 108.502 7.056 108.766 7.296C109.03 7.536 109.246 7.872 109.39 8.256C109.534 8.664 109.63 9.168 109.63 9.744V10.056C108.286 10.2 107.086 10.392 106.03 10.584C104.95 10.8 104.038 11.064 103.27 11.4C102.502 11.736 101.926 12.168 101.518 12.672C101.086 13.2 100.894 13.824 100.894 14.592C100.894 15.192 100.99 15.72 101.23 16.176C101.47 16.656 101.782 17.04 102.19 17.352C102.598 17.664 103.078 17.904 103.606 18.072C104.134 18.24 104.71 18.312 105.31 18.312ZM115.692 1.848V5.088H113.652V6.84H115.692V14.76C115.692 15.432 115.716 15.984 115.812 16.416C115.908 16.848 116.052 17.16 116.292 17.4C116.508 17.64 116.82 17.784 117.204 17.88C117.588 17.976 118.092 18.024 118.716 18.024H120.3V16.2H119.196C118.884 16.2 118.644 16.176 118.476 16.128C118.284 16.08 118.164 15.984 118.068 15.864C117.972 15.72 117.924 15.552 117.9 15.336C117.876 15.12 117.876 14.856 117.876 14.52V6.864H120.324V5.112H117.876V1.872L115.692 1.848ZM124.243 11.592C124.243 10.728 124.339 9.984 124.555 9.36C124.771 8.76 125.059 8.256 125.419 7.872C125.779 7.488 126.187 7.224 126.667 7.056C127.123 6.888 127.603 6.792 128.107 6.792C128.587 6.792 129.067 6.888 129.547 7.056C130.003 7.248 130.411 7.512 130.771 7.896C131.131 8.28 131.419 8.784 131.635 9.384C131.851 10.008 131.971 10.728 131.971 11.592C131.971 12.432 131.851 13.152 131.635 13.752C131.419 14.352 131.131 14.856 130.771 15.24C130.411 15.624 130.003 15.912 129.547 16.104C129.067 16.296 128.587 16.392 128.107 16.392C127.603 16.392 127.123 16.32 126.667 16.128C126.187 15.96 125.779 15.672 125.419 15.288C125.059 14.904 124.771 14.424 124.555 13.8C124.339 13.2 124.243 12.456 124.243 11.592ZM128.107 4.872C127.339 4.872 126.595 5.016 125.875 5.28C125.131 5.544 124.459 5.952 123.859 6.48C123.283 7.032 122.803 7.728 122.443 8.568C122.083 9.432 121.891 10.44 121.891 11.592C121.891 12.768 122.083 13.776 122.443 14.616C122.803 15.48 123.283 16.176 123.859 16.704C124.459 17.256 125.131 17.664 125.875 17.928C126.595 18.192 127.339 18.312 128.107 18.312C128.851 18.312 129.595 18.192 130.339 17.928C131.059 17.664 131.731 17.256 132.331 16.704C132.907 16.176 133.387 15.48 133.747 14.616C134.107 13.776 134.299 12.768 134.299 11.592C134.299 10.44 134.107 9.432 133.747 8.568C133.387 7.728 132.907 7.032 132.331 6.48C131.731 5.952 131.059 5.544 130.339 5.28C129.595 5.016 128.851 4.872 128.107 4.872ZM139.096 18V10.992C139.096 9.6 139.36 8.568 139.936 7.848C140.512 7.128 141.256 6.768 142.216 6.768C142.792 6.768 143.272 6.888 143.632 7.08C143.992 7.272 144.28 7.56 144.472 7.896C144.664 8.232 144.808 8.64 144.88 9.072C144.928 9.528 144.976 10.008 144.976 10.488V18H147.16V10.992C147.16 9.6 147.424 8.568 148 7.848C148.576 7.128 149.32 6.768 150.28 6.768C150.856 6.768 151.336 6.888 151.696 7.08C152.056 7.272 152.344 7.56 152.536 7.896C152.728 8.232 152.872 8.64 152.944 9.072C152.992 9.528 153.04 10.008 153.04 10.488V18H155.224V9.84C155.224 9.12 155.128 8.448 154.984 7.824C154.84 7.224 154.6 6.696 154.264 6.264C153.928 5.832 153.496 5.496 152.968 5.256C152.44 5.016 151.792 4.896 151.048 4.896C150.136 4.896 149.296 5.064 148.576 5.424C147.832 5.784 147.208 6.36 146.704 7.176C146.416 6.456 145.96 5.88 145.36 5.496C144.76 5.088 143.968 4.896 142.984 4.896C142 4.896 141.208 5.088 140.584 5.52C139.96 5.928 139.456 6.432 139.096 7.032V5.088H136.912V18H139.096ZM165.89 8.856H168.17C167.954 7.632 167.402 6.648 166.514 5.928C165.626 5.208 164.474 4.848 163.082 4.848C162.362 4.848 161.69 4.944 161.066 5.088C160.442 5.256 159.89 5.496 159.434 5.808C158.954 6.12 158.594 6.504 158.33 6.936C158.042 7.368 157.922 7.872 157.922 8.448C157.922 9.072 158.018 9.576 158.234 9.984C158.45 10.392 158.738 10.728 159.098 11.016C159.434 11.304 159.842 11.52 160.274 11.664C160.706 11.808 161.162 11.928 161.594 12.024L163.514 12.408C163.85 12.504 164.186 12.6 164.498 12.696C164.81 12.792 165.098 12.936 165.338 13.104C165.578 13.272 165.77 13.464 165.914 13.704C166.058 13.944 166.13 14.232 166.13 14.544C166.13 15.168 165.818 15.624 165.242 15.96C164.666 16.296 163.946 16.464 163.13 16.464C162.17 16.464 161.426 16.248 160.898 15.768C160.37 15.312 160.01 14.664 159.842 13.824H157.538C157.586 14.4 157.754 14.952 158.018 15.48C158.282 16.032 158.642 16.512 159.122 16.92C159.602 17.352 160.154 17.688 160.826 17.928C161.474 18.192 162.218 18.312 163.082 18.312C163.802 18.312 164.498 18.24 165.146 18.048C165.77 17.88 166.322 17.616 166.802 17.28C167.282 16.944 167.642 16.512 167.93 16.008C168.194 15.528 168.338 14.952 168.338 14.304C168.338 13.68 168.218 13.152 167.978 12.72C167.738 12.288 167.402 11.928 166.994 11.64C166.586 11.352 166.13 11.112 165.602 10.92C165.074 10.728 164.498 10.584 163.922 10.464L162.098 10.104C161.474 9.984 160.97 9.792 160.634 9.528C160.298 9.264 160.13 8.88 160.13 8.352C160.13 8.064 160.202 7.824 160.37 7.608C160.514 7.416 160.73 7.248 160.994 7.104C161.258 6.96 161.546 6.864 161.882 6.816C162.194 6.768 162.506 6.72 162.842 6.72C163.61 6.72 164.258 6.888 164.81 7.224C165.338 7.56 165.698 8.088 165.89 8.856ZM178.29 11.592C178.29 10.728 178.386 9.984 178.602 9.36C178.818 8.76 179.106 8.256 179.466 7.872C179.826 7.488 180.234 7.224 180.714 7.056C181.17 6.888 181.65 6.792 182.154 6.792C182.634 6.792 183.114 6.888 183.594 7.056C184.05 7.248 184.458 7.512 184.818 7.896C185.178 8.28 185.466 8.784 185.682 9.384C185.898 10.008 186.018 10.728 186.018 11.592C186.018 12.432 185.898 13.152 185.682 13.752C185.466 14.352 185.178 14.856 184.818 15.24C184.458 15.624 184.05 15.912 183.594 16.104C183.114 16.296 182.634 16.392 182.154 16.392C181.65 16.392 181.17 16.32 180.714 16.128C180.234 15.96 179.826 15.672 179.466 15.288C179.106 14.904 178.818 14.424 178.602 13.8C178.386 13.2 178.29 12.456 178.29 11.592ZM182.154 4.872C181.386 4.872 180.642 5.016 179.922 5.28C179.178 5.544 178.506 5.952 177.906 6.48C177.33 7.032 176.85 7.728 176.49 8.568C176.13 9.432 175.938 10.44 175.938 11.592C175.938 12.768 176.13 13.776 176.49 14.616C176.85 15.48 177.33 16.176 177.906 16.704C178.506 17.256 179.178 17.664 179.922 17.928C180.642 18.192 181.386 18.312 182.154 18.312C182.898 18.312 183.642 18.192 184.386 17.928C185.106 17.664 185.778 17.256 186.378 16.704C186.954 16.176 187.434 15.48 187.794 14.616C188.154 13.776 188.346 12.768 188.346 11.592C188.346 10.44 188.154 9.432 187.794 8.568C187.434 7.728 186.954 7.032 186.378 6.48C185.778 5.952 185.106 5.544 184.386 5.28C183.642 5.016 182.898 4.872 182.154 4.872ZM191.628 4.152V5.088H189.828V6.84H191.628V18H193.812V6.84H196.236V5.088H193.812V4.032C193.812 3.696 193.812 3.432 193.86 3.216C193.884 3.024 193.956 2.856 194.052 2.736C194.148 2.616 194.268 2.544 194.46 2.496C194.628 2.448 194.868 2.424 195.156 2.424H196.236V0.599999H195.108C194.364 0.599999 193.764 0.671999 193.308 0.792C192.852 0.912 192.492 1.104 192.252 1.368C192.012 1.656 191.844 2.016 191.748 2.472C191.652 2.928 191.628 3.48 191.628 4.152ZM213.75 5.088H211.47L208.278 15.048L204.99 5.088H202.566L207.222 18L207.126 18.264C206.982 18.792 206.814 19.176 206.646 19.464C206.478 19.752 206.286 19.944 206.094 20.088C205.878 20.232 205.638 20.304 205.35 20.352C205.062 20.376 204.75 20.4 204.39 20.4H203.502V22.224H204.63C205.35 22.224 205.95 22.152 206.43 22.032C206.91 21.912 207.294 21.72 207.606 21.432C207.942 21.144 208.206 20.784 208.422 20.328C208.662 19.848 208.878 19.272 209.118 18.576L213.75 5.088ZM216.728 11.592C216.728 10.728 216.824 9.984 217.04 9.36C217.256 8.76 217.544 8.256 217.904 7.872C218.264 7.488 218.672 7.224 219.152 7.056C219.608 6.888 220.088 6.792 220.592 6.792C221.072 6.792 221.552 6.888 222.032 7.056C222.488 7.248 222.896 7.512 223.256 7.896C223.616 8.28 223.904 8.784 224.12 9.384C224.336 10.008 224.456 10.728 224.456 11.592C224.456 12.432 224.336 13.152 224.12 13.752C223.904 14.352 223.616 14.856 223.256 15.24C222.896 15.624 222.488 15.912 222.032 16.104C221.552 16.296 221.072 16.392 220.592 16.392C220.088 16.392 219.608 16.32 219.152 16.128C218.672 15.96 218.264 15.672 217.904 15.288C217.544 14.904 217.256 14.424 217.04 13.8C216.824 13.2 216.728 12.456 216.728 11.592ZM220.592 4.872C219.824 4.872 219.08 5.016 218.36 5.28C217.616 5.544 216.944 5.952 216.344 6.48C215.768 7.032 215.288 7.728 214.928 8.568C214.568 9.432 214.376 10.44 214.376 11.592C214.376 12.768 214.568 13.776 214.928 14.616C215.288 15.48 215.768 16.176 216.344 16.704C216.944 17.256 217.616 17.664 218.36 17.928C219.08 18.192 219.824 18.312 220.592 18.312C221.336 18.312 222.08 18.192 222.824 17.928C223.544 17.664 224.216 17.256 224.816 16.704C225.392 16.176 225.872 15.48 226.232 14.616C226.592 13.776 226.784 12.768 226.784 11.592C226.784 10.44 226.592 9.432 226.232 8.568C225.872 7.728 225.392 7.032 224.816 6.48C224.216 5.952 223.544 5.544 222.824 5.28C222.08 5.016 221.336 4.872 220.592 4.872ZM237.388 16.152V18H239.572V5.088H237.388V12.192C237.388 13.584 237.1 14.64 236.524 15.36C235.948 16.08 235.132 16.416 234.1 16.416C233.5 16.416 233.02 16.32 232.66 16.128C232.3 15.936 232.036 15.648 231.844 15.312C231.652 14.976 231.508 14.568 231.46 14.136C231.412 13.68 231.388 13.2 231.388 12.696V5.088H229.204V13.344C229.204 14.088 229.276 14.76 229.42 15.36C229.564 15.984 229.804 16.512 230.14 16.944C230.476 17.376 230.884 17.712 231.412 17.952C231.94 18.192 232.564 18.312 233.332 18.312C234.388 18.312 235.252 18.12 235.876 17.688C236.5 17.28 237.004 16.776 237.388 16.152ZM249.469 7.368V5.04C249.325 5.04 249.229 5.016 249.133 5.016H248.821C247.957 5.064 247.213 5.28 246.589 5.664C245.965 6.048 245.485 6.624 245.173 7.344V5.088H243.037V18H245.221V11.232C245.221 9.816 245.461 8.808 245.965 8.184C246.469 7.584 247.237 7.272 248.245 7.272C248.413 7.272 248.605 7.296 248.821 7.296C249.013 7.32 249.229 7.344 249.469 7.368ZM259.447 5.088H257.263V18H259.447V5.088ZM259.447 0.599999H257.263V3.24H259.447V0.599999ZM271.768 0.599999V7.128C271.36 6.456 270.808 5.904 270.112 5.496C269.44 5.088 268.576 4.872 267.52 4.872C266.8 4.872 266.08 5.04 265.408 5.328C264.736 5.64 264.16 6.072 263.656 6.648C263.152 7.224 262.744 7.944 262.456 8.76C262.168 9.6 262 10.536 262 11.592C262 12.672 262.168 13.632 262.456 14.472C262.744 15.288 263.152 16.008 263.656 16.584C264.16 17.16 264.736 17.592 265.408 17.88C266.08 18.168 266.8 18.336 267.52 18.336C268.576 18.336 269.44 18.12 270.112 17.712C270.808 17.304 271.36 16.752 271.768 16.08V18.024H273.952V0.623999L271.768 0.599999ZM271.864 11.616C271.864 12.456 271.744 13.176 271.552 13.8C271.336 14.424 271.048 14.928 270.688 15.312C270.352 15.696 269.944 15.984 269.488 16.176C269.032 16.368 268.552 16.464 268.072 16.464C266.968 16.464 266.056 16.032 265.384 15.192C264.712 14.352 264.376 13.152 264.376 11.616C264.376 10.056 264.712 8.856 265.384 8.016C266.056 7.176 266.968 6.768 268.072 6.768C268.552 6.768 269.032 6.84 269.488 7.032C269.944 7.224 270.352 7.512 270.688 7.896C271.048 8.28 271.336 8.784 271.552 9.408C271.744 10.032 271.864 10.752 271.864 11.616ZM278.86 12.264H288.796C288.844 11.256 288.748 10.296 288.508 9.384C288.268 8.496 287.884 7.704 287.356 7.032C286.828 6.36 286.18 5.832 285.412 5.448C284.62 5.064 283.732 4.872 282.748 4.872C281.884 4.872 281.068 5.04 280.3 5.352C279.532 5.664 278.884 6.12 278.308 6.696C277.732 7.272 277.3 7.992 276.964 8.808C276.652 9.624 276.484 10.56 276.484 11.568C276.484 12.528 276.628 13.416 276.916 14.232C277.204 15.048 277.612 15.768 278.14 16.368C278.668 16.992 279.34 17.472 280.108 17.808C280.9 18.144 281.812 18.312 282.82 18.312C283.612 18.312 284.332 18.216 284.98 18C285.628 17.784 286.204 17.496 286.684 17.112C287.164 16.752 287.572 16.32 287.908 15.84C288.244 15.36 288.46 14.832 288.604 14.256H286.348C286.084 14.904 285.676 15.432 285.1 15.816C284.548 16.2 283.78 16.392 282.82 16.392C282.34 16.392 281.884 16.32 281.404 16.152C280.948 15.984 280.54 15.72 280.156 15.384C279.772 15.048 279.46 14.616 279.22 14.112C278.98 13.584 278.86 12.984 278.86 12.264ZM282.748 6.768C283.324 6.768 283.852 6.864 284.308 7.08C284.764 7.272 285.148 7.56 285.46 7.896C285.796 8.232 286.036 8.64 286.204 9.072C286.372 9.504 286.468 9.96 286.468 10.416H278.86C278.908 9.768 279.052 9.216 279.292 8.76C279.532 8.28 279.82 7.896 280.18 7.608C280.516 7.32 280.924 7.104 281.38 6.96C281.812 6.816 282.268 6.768 282.748 6.768ZM299.36 11.784V12.6C299.36 13.368 299.24 14.016 299.024 14.52C298.784 15.024 298.496 15.432 298.136 15.744C297.752 16.056 297.344 16.272 296.864 16.392C296.384 16.536 295.88 16.584 295.376 16.584C294.584 16.584 293.96 16.416 293.528 16.032C293.096 15.648 292.88 15.168 292.88 14.544C292.88 14.112 293.024 13.728 293.336 13.416C293.624 13.128 294.056 12.864 294.632 12.648C295.184 12.456 295.856 12.288 296.672 12.144C297.464 12 298.352 11.88 299.36 11.784ZM294.872 18.312C296.024 18.312 296.96 18.144 297.656 17.784C298.352 17.424 298.904 16.896 299.288 16.224C299.312 16.608 299.336 16.944 299.36 17.232C299.408 17.52 299.432 17.76 299.456 18H301.664C301.544 17.4 301.448 16.704 301.4 15.936C301.352 15.168 301.328 14.232 301.352 13.128L301.376 10.152C301.376 8.328 300.968 6.984 300.152 6.12C299.336 5.256 298.016 4.824 296.24 4.824C295.616 4.824 294.992 4.92 294.392 5.112C293.792 5.304 293.264 5.592 292.784 5.952C292.304 6.336 291.896 6.792 291.584 7.32C291.272 7.872 291.104 8.496 291.056 9.168H293.312C293.36 8.376 293.624 7.752 294.128 7.296C294.632 6.84 295.352 6.6 296.264 6.6C296.648 6.6 297.032 6.672 297.392 6.768C297.752 6.864 298.064 7.056 298.328 7.296C298.592 7.536 298.808 7.872 298.952 8.256C299.096 8.664 299.192 9.168 299.192 9.744V10.056C297.848 10.2 296.648 10.392 295.592 10.584C294.512 10.8 293.6 11.064 292.832 11.4C292.064 11.736 291.488 12.168 291.08 12.672C290.648 13.2 290.456 13.824 290.456 14.592C290.456 15.192 290.552 15.72 290.792 16.176C291.032 16.656 291.344 17.04 291.752 17.352C292.16 17.664 292.64 17.904 293.168 18.072C293.696 18.24 294.272 18.312 294.872 18.312ZM304.65 18H307.41V15.24H304.65V18ZM25.3687 24.6V42H27.8167V34.104H36.1687V31.992H27.8167V26.712H36.6727V24.6H25.3687ZM39.9504 35.592C39.9504 34.728 40.0464 33.984 40.2624 33.36C40.4784 32.76 40.7664 32.256 41.1264 31.872C41.4864 31.488 41.8944 31.224 42.3744 31.056C42.8304 30.888 43.3104 30.792 43.8144 30.792C44.2944 30.792 44.7744 30.888 45.2544 31.056C45.7104 31.248 46.1184 31.512 46.4784 31.896C46.8384 32.28 47.1264 32.784 47.3424 33.384C47.5584 34.008 47.6784 34.728 47.6784 35.592C47.6784 36.432 47.5584 37.152 47.3424 37.752C47.1264 38.352 46.8384 38.856 46.4784 39.24C46.1184 39.624 45.7104 39.912 45.2544 40.104C44.7744 40.296 44.2944 40.392 43.8144 40.392C43.3104 40.392 42.8304 40.32 42.3744 40.128C41.8944 39.96 41.4864 39.672 41.1264 39.288C40.7664 38.904 40.4784 38.424 40.2624 37.8C40.0464 37.2 39.9504 36.456 39.9504 35.592ZM43.8144 28.872C43.0464 28.872 42.3024 29.016 41.5824 29.28C40.8384 29.544 40.1664 29.952 39.5664 30.48C38.9904 31.032 38.5104 31.728 38.1504 32.568C37.7904 33.432 37.5984 34.44 37.5984 35.592C37.5984 36.768 37.7904 37.776 38.1504 38.616C38.5104 39.48 38.9904 40.176 39.5664 40.704C40.1664 41.256 40.8384 41.664 41.5824 41.928C42.3024 42.192 43.0464 42.312 43.8144 42.312C44.5584 42.312 45.3024 42.192 46.0464 41.928C46.7664 41.664 47.4384 41.256 48.0384 40.704C48.6144 40.176 49.0944 39.48 49.4544 38.616C49.8144 37.776 50.0064 36.768 50.0064 35.592C50.0064 34.44 49.8144 33.432 49.4544 32.568C49.0944 31.728 48.6144 31.032 48.0384 30.48C47.4384 29.952 46.7664 29.544 46.0464 29.28C45.3024 29.016 44.5584 28.872 43.8144 28.872ZM58.1581 28.872C57.1981 28.872 56.3341 29.04 55.5661 29.376C54.7981 29.712 54.1261 30.192 53.5981 30.792C53.0701 31.392 52.6381 32.088 52.3501 32.904C52.0621 33.72 51.9181 34.608 51.9181 35.568C51.9181 36.576 52.0381 37.488 52.3261 38.304C52.6141 39.12 52.9981 39.84 53.5261 40.416C54.0541 41.016 54.6781 41.472 55.4221 41.808C56.1661 42.144 57.0061 42.312 57.9421 42.312C58.6861 42.312 59.3821 42.192 60.0541 41.952C60.7021 41.712 61.2781 41.4 61.7821 40.968C62.2861 40.56 62.6941 40.08 63.0301 39.528C63.3661 39 63.5821 38.424 63.7021 37.8H61.4461C61.3501 38.136 61.2301 38.472 61.0381 38.784C60.8461 39.096 60.5821 39.36 60.2941 39.6C60.0061 39.84 59.6461 40.032 59.2621 40.176C58.8781 40.32 58.4461 40.392 58.0141 40.392C57.5341 40.392 57.0541 40.296 56.6221 40.104C56.1661 39.912 55.7581 39.6 55.4221 39.192C55.0861 38.808 54.7981 38.304 54.6061 37.68C54.3901 37.08 54.2941 36.36 54.2941 35.544C54.2941 34.728 54.3901 34.032 54.6061 33.432C54.7981 32.856 55.0861 32.352 55.4221 31.968C55.7581 31.584 56.1661 31.272 56.6221 31.08C57.0541 30.888 57.5341 30.792 58.0141 30.792C58.8541 30.792 59.5741 31.056 60.1981 31.536C60.7981 32.016 61.1821 32.64 61.3501 33.408H63.5581C63.4621 32.88 63.2941 32.328 63.0301 31.776C62.7421 31.248 62.3821 30.744 61.9261 30.312C61.4461 29.88 60.8941 29.544 60.2701 29.28C59.6461 29.016 58.9261 28.872 58.1581 28.872ZM74.1575 40.152V42H76.3415V29.088H74.1575V36.192C74.1575 37.584 73.8695 38.64 73.2935 39.36C72.7175 40.08 71.9015 40.416 70.8695 40.416C70.2695 40.416 69.7895 40.32 69.4295 40.128C69.0695 39.936 68.8055 39.648 68.6135 39.312C68.4215 38.976 68.2775 38.568 68.2295 38.136C68.1815 37.68 68.1575 37.2 68.1575 36.696V29.088H65.9735V37.344C65.9735 38.088 66.0455 38.76 66.1895 39.36C66.3335 39.984 66.5735 40.512 66.9095 40.944C67.2455 41.376 67.6535 41.712 68.1815 41.952C68.7095 42.192 69.3335 42.312 70.1015 42.312C71.1575 42.312 72.0215 42.12 72.6455 41.688C73.2695 41.28 73.7735 40.776 74.1575 40.152ZM87.1981 32.856H89.4781C89.2621 31.632 88.7101 30.648 87.8221 29.928C86.9341 29.208 85.7821 28.848 84.3901 28.848C83.6701 28.848 82.9981 28.944 82.3741 29.088C81.7501 29.256 81.1981 29.496 80.7421 29.808C80.2621 30.12 79.9021 30.504 79.6381 30.936C79.3501 31.368 79.2301 31.872 79.2301 32.448C79.2301 33.072 79.3261 33.576 79.5421 33.984C79.7581 34.392 80.0461 34.728 80.4061 35.016C80.7421 35.304 81.1501 35.52 81.5821 35.664C82.0141 35.808 82.4701 35.928 82.9021 36.024L84.8221 36.408C85.1581 36.504 85.4941 36.6 85.8061 36.696C86.1181 36.792 86.4061 36.936 86.6461 37.104C86.8861 37.272 87.0781 37.464 87.2221 37.704C87.3661 37.944 87.4381 38.232 87.4381 38.544C87.4381 39.168 87.1261 39.624 86.5501 39.96C85.9741 40.296 85.2541 40.464 84.4381 40.464C83.4781 40.464 82.7341 40.248 82.2061 39.768C81.6781 39.312 81.3181 38.664 81.1501 37.824H78.8461C78.8941 38.4 79.0621 38.952 79.3261 39.48C79.5901 40.032 79.9501 40.512 80.4301 40.92C80.9101 41.352 81.4621 41.688 82.1341 41.928C82.7821 42.192 83.5261 42.312 84.3901 42.312C85.1101 42.312 85.8061 42.24 86.4541 42.048C87.0781 41.88 87.6301 41.616 88.1101 41.28C88.5901 40.944 88.9501 40.512 89.2381 40.008C89.5021 39.528 89.6461 38.952 89.6461 38.304C89.6461 37.68 89.5261 37.152 89.2861 36.72C89.0461 36.288 88.7101 35.928 88.3021 35.64C87.8941 35.352 87.4381 35.112 86.9101 34.92C86.3821 34.728 85.8061 34.584 85.2301 34.464L83.4061 34.104C82.7821 33.984 82.2781 33.792 81.9421 33.528C81.6061 33.264 81.4381 32.88 81.4381 32.352C81.4381 32.064 81.5101 31.824 81.6781 31.608C81.8221 31.416 82.0381 31.248 82.3021 31.104C82.5661 30.96 82.8541 30.864 83.1901 30.816C83.5021 30.768 83.8141 30.72 84.1501 30.72C84.9181 30.72 85.5661 30.888 86.1181 31.224C86.6461 31.56 87.0061 32.088 87.1981 32.856ZM99.5988 35.592C99.5988 34.728 99.6948 33.984 99.9108 33.36C100.127 32.76 100.415 32.256 100.775 31.872C101.135 31.488 101.543 31.224 102.023 31.056C102.479 30.888 102.959 30.792 103.463 30.792C103.943 30.792 104.423 30.888 104.903 31.056C105.359 31.248 105.767 31.512 106.127 31.896C106.487 32.28 106.775 32.784 106.991 33.384C107.207 34.008 107.327 34.728 107.327 35.592C107.327 36.432 107.207 37.152 106.991 37.752C106.775 38.352 106.487 38.856 106.127 39.24C105.767 39.624 105.359 39.912 104.903 40.104C104.423 40.296 103.943 40.392 103.463 40.392C102.959 40.392 102.479 40.32 102.023 40.128C101.543 39.96 101.135 39.672 100.775 39.288C100.415 38.904 100.127 38.424 99.9108 37.8C99.6948 37.2 99.5988 36.456 99.5988 35.592ZM103.463 28.872C102.695 28.872 101.951 29.016 101.231 29.28C100.487 29.544 99.8148 29.952 99.2148 30.48C98.6388 31.032 98.1588 31.728 97.7988 32.568C97.4388 33.432 97.2468 34.44 97.2468 35.592C97.2468 36.768 97.4388 37.776 97.7988 38.616C98.1588 39.48 98.6388 40.176 99.2148 40.704C99.8148 41.256 100.487 41.664 101.231 41.928C101.951 42.192 102.695 42.312 103.463 42.312C104.207 42.312 104.951 42.192 105.695 41.928C106.415 41.664 107.087 41.256 107.687 40.704C108.263 40.176 108.743 39.48 109.103 38.616C109.463 37.776 109.655 36.768 109.655 35.592C109.655 34.44 109.463 33.432 109.103 32.568C108.743 31.728 108.263 31.032 107.687 30.48C107.087 29.952 106.415 29.544 105.695 29.28C104.951 29.016 104.207 28.872 103.463 28.872ZM114.451 31.032V29.088H112.267V42H114.451V34.992C114.451 33.6 114.739 32.568 115.363 31.848C115.963 31.128 116.803 30.768 117.859 30.768C118.483 30.768 118.963 30.888 119.347 31.08C119.731 31.272 120.019 31.56 120.211 31.896C120.403 32.232 120.523 32.64 120.595 33.072C120.643 33.528 120.691 34.008 120.691 34.488V42H122.875V33.84C122.875 33.12 122.779 32.448 122.635 31.824C122.491 31.224 122.251 30.696 121.915 30.264C121.579 29.832 121.123 29.496 120.595 29.256C120.067 29.016 119.395 28.896 118.627 28.896C117.523 28.896 116.659 29.088 115.987 29.52C115.315 29.928 114.811 30.432 114.451 31.032ZM132.461 25.848V29.088H130.421V30.84H132.461V38.76C132.461 39.432 132.485 39.984 132.581 40.416C132.677 40.848 132.821 41.16 133.061 41.4C133.277 41.64 133.589 41.784 133.973 41.88C134.357 41.976 134.861 42.024 135.485 42.024H137.069V40.2H135.965C135.653 40.2 135.413 40.176 135.245 40.128C135.053 40.08 134.933 39.984 134.837 39.864C134.741 39.72 134.693 39.552 134.669 39.336C134.645 39.12 134.645 38.856 134.645 38.52V30.864H137.093V29.112H134.645V25.872L132.461 25.848ZM142.06 31.032V24.6H139.876V42H142.06V34.992C142.06 33.6 142.348 32.568 142.972 31.848C143.572 31.128 144.412 30.768 145.468 30.768C146.092 30.768 146.572 30.888 146.956 31.08C147.34 31.272 147.628 31.56 147.82 31.896C148.012 32.232 148.132 32.64 148.204 33.072C148.252 33.528 148.3 34.008 148.3 34.488V42H150.484V33.84C150.484 33.12 150.388 32.448 150.244 31.824C150.1 31.224 149.86 30.696 149.524 30.264C149.188 29.832 148.732 29.496 148.204 29.256C147.676 29.016 147.004 28.896 146.236 28.896C145.132 28.896 144.268 29.088 143.596 29.52C142.924 29.928 142.42 30.432 142.06 31.032ZM155.215 36.264H165.151C165.199 35.256 165.103 34.296 164.863 33.384C164.623 32.496 164.239 31.704 163.711 31.032C163.183 30.36 162.535 29.832 161.767 29.448C160.975 29.064 160.087 28.872 159.103 28.872C158.239 28.872 157.423 29.04 156.655 29.352C155.887 29.664 155.239 30.12 154.663 30.696C154.087 31.272 153.655 31.992 153.319 32.808C153.007 33.624 152.839 34.56 152.839 35.568C152.839 36.528 152.983 37.416 153.271 38.232C153.559 39.048 153.967 39.768 154.495 40.368C155.023 40.992 155.695 41.472 156.463 41.808C157.255 42.144 158.167 42.312 159.175 42.312C159.967 42.312 160.687 42.216 161.335 42C161.983 41.784 162.559 41.496 163.039 41.112C163.519 40.752 163.927 40.32 164.263 39.84C164.599 39.36 164.815 38.832 164.959 38.256H162.703C162.439 38.904 162.031 39.432 161.455 39.816C160.903 40.2 160.135 40.392 159.175 40.392C158.695 40.392 158.239 40.32 157.759 40.152C157.303 39.984 156.895 39.72 156.511 39.384C156.127 39.048 155.815 38.616 155.575 38.112C155.335 37.584 155.215 36.984 155.215 36.264ZM159.103 30.768C159.679 30.768 160.207 30.864 160.663 31.08C161.119 31.272 161.503 31.56 161.815 31.896C162.151 32.232 162.391 32.64 162.559 33.072C162.727 33.504 162.823 33.96 162.823 34.416H155.215C155.263 33.768 155.407 33.216 155.647 32.76C155.887 32.28 156.175 31.896 156.535 31.608C156.871 31.32 157.279 31.104 157.735 30.96C158.167 30.816 158.623 30.768 159.103 30.768ZM174.856 36.264H184.792C184.84 35.256 184.744 34.296 184.504 33.384C184.264 32.496 183.88 31.704 183.352 31.032C182.824 30.36 182.176 29.832 181.408 29.448C180.616 29.064 179.728 28.872 178.744 28.872C177.88 28.872 177.064 29.04 176.296 29.352C175.528 29.664 174.88 30.12 174.304 30.696C173.728 31.272 173.296 31.992 172.96 32.808C172.648 33.624 172.48 34.56 172.48 35.568C172.48 36.528 172.624 37.416 172.912 38.232C173.2 39.048 173.608 39.768 174.136 40.368C174.664 40.992 175.336 41.472 176.104 41.808C176.896 42.144 177.808 42.312 178.816 42.312C179.608 42.312 180.328 42.216 180.976 42C181.624 41.784 182.2 41.496 182.68 41.112C183.16 40.752 183.568 40.32 183.904 39.84C184.24 39.36 184.456 38.832 184.6 38.256H182.344C182.08 38.904 181.672 39.432 181.096 39.816C180.544 40.2 179.776 40.392 178.816 40.392C178.336 40.392 177.88 40.32 177.4 40.152C176.944 39.984 176.536 39.72 176.152 39.384C175.768 39.048 175.456 38.616 175.216 38.112C174.976 37.584 174.856 36.984 174.856 36.264ZM178.744 30.768C179.32 30.768 179.848 30.864 180.304 31.08C180.76 31.272 181.144 31.56 181.456 31.896C181.792 32.232 182.032 32.64 182.2 33.072C182.368 33.504 182.464 33.96 182.464 34.416H174.856C174.904 33.768 175.048 33.216 175.288 32.76C175.528 32.28 175.816 31.896 176.176 31.608C176.512 31.32 176.92 31.104 177.376 30.96C177.808 30.816 178.264 30.768 178.744 30.768ZM194.776 32.856H197.056C196.84 31.632 196.288 30.648 195.4 29.928C194.512 29.208 193.36 28.848 191.968 28.848C191.248 28.848 190.576 28.944 189.952 29.088C189.328 29.256 188.776 29.496 188.32 29.808C187.84 30.12 187.48 30.504 187.216 30.936C186.928 31.368 186.808 31.872 186.808 32.448C186.808 33.072 186.904 33.576 187.12 33.984C187.336 34.392 187.624 34.728 187.984 35.016C188.32 35.304 188.728 35.52 189.16 35.664C189.592 35.808 190.048 35.928 190.48 36.024L192.4 36.408C192.736 36.504 193.072 36.6 193.384 36.696C193.696 36.792 193.984 36.936 194.224 37.104C194.464 37.272 194.656 37.464 194.8 37.704C194.944 37.944 195.016 38.232 195.016 38.544C195.016 39.168 194.704 39.624 194.128 39.96C193.552 40.296 192.832 40.464 192.016 40.464C191.056 40.464 190.312 40.248 189.784 39.768C189.256 39.312 188.896 38.664 188.728 37.824H186.424C186.472 38.4 186.64 38.952 186.904 39.48C187.168 40.032 187.528 40.512 188.008 40.92C188.488 41.352 189.04 41.688 189.712 41.928C190.36 42.192 191.104 42.312 191.968 42.312C192.688 42.312 193.384 42.24 194.032 42.048C194.656 41.88 195.208 41.616 195.688 41.28C196.168 40.944 196.528 40.512 196.816 40.008C197.08 39.528 197.224 38.952 197.224 38.304C197.224 37.68 197.104 37.152 196.864 36.72C196.624 36.288 196.288 35.928 195.88 35.64C195.472 35.352 195.016 35.112 194.488 34.92C193.96 34.728 193.384 34.584 192.808 34.464L190.984 34.104C190.36 33.984 189.856 33.792 189.52 33.528C189.184 33.264 189.016 32.88 189.016 32.352C189.016 32.064 189.088 31.824 189.256 31.608C189.4 31.416 189.616 31.248 189.88 31.104C190.144 30.96 190.432 30.864 190.768 30.816C191.08 30.768 191.392 30.72 191.728 30.72C192.496 30.72 193.144 30.888 193.696 31.224C194.224 31.56 194.584 32.088 194.776 32.856ZM207.386 32.856H209.666C209.45 31.632 208.898 30.648 208.01 29.928C207.122 29.208 205.97 28.848 204.578 28.848C203.858 28.848 203.186 28.944 202.562 29.088C201.938 29.256 201.386 29.496 200.93 29.808C200.45 30.12 200.09 30.504 199.826 30.936C199.538 31.368 199.418 31.872 199.418 32.448C199.418 33.072 199.514 33.576 199.73 33.984C199.946 34.392 200.234 34.728 200.594 35.016C200.93 35.304 201.338 35.52 201.77 35.664C202.202 35.808 202.658 35.928 203.09 36.024L205.01 36.408C205.346 36.504 205.682 36.6 205.994 36.696C206.306 36.792 206.594 36.936 206.834 37.104C207.074 37.272 207.266 37.464 207.41 37.704C207.554 37.944 207.626 38.232 207.626 38.544C207.626 39.168 207.314 39.624 206.738 39.96C206.162 40.296 205.442 40.464 204.626 40.464C203.666 40.464 202.922 40.248 202.394 39.768C201.866 39.312 201.506 38.664 201.338 37.824H199.034C199.082 38.4 199.25 38.952 199.514 39.48C199.778 40.032 200.138 40.512 200.618 40.92C201.098 41.352 201.65 41.688 202.322 41.928C202.97 42.192 203.714 42.312 204.578 42.312C205.298 42.312 205.994 42.24 206.642 42.048C207.266 41.88 207.818 41.616 208.298 41.28C208.778 40.944 209.138 40.512 209.426 40.008C209.69 39.528 209.834 38.952 209.834 38.304C209.834 37.68 209.714 37.152 209.474 36.72C209.234 36.288 208.898 35.928 208.49 35.64C208.082 35.352 207.626 35.112 207.098 34.92C206.57 34.728 205.994 34.584 205.418 34.464L203.594 34.104C202.97 33.984 202.466 33.792 202.13 33.528C201.794 33.264 201.626 32.88 201.626 32.352C201.626 32.064 201.698 31.824 201.866 31.608C202.01 31.416 202.226 31.248 202.49 31.104C202.754 30.96 203.042 30.864 203.378 30.816C203.69 30.768 204.002 30.72 204.338 30.72C205.106 30.72 205.754 30.888 206.306 31.224C206.834 31.56 207.194 32.088 207.386 32.856ZM214.067 36.264H224.003C224.051 35.256 223.955 34.296 223.715 33.384C223.475 32.496 223.091 31.704 222.563 31.032C222.035 30.36 221.387 29.832 220.619 29.448C219.827 29.064 218.939 28.872 217.955 28.872C217.091 28.872 216.275 29.04 215.507 29.352C214.739 29.664 214.091 30.12 213.515 30.696C212.939 31.272 212.507 31.992 212.171 32.808C211.859 33.624 211.691 34.56 211.691 35.568C211.691 36.528 211.835 37.416 212.123 38.232C212.411 39.048 212.819 39.768 213.347 40.368C213.875 40.992 214.547 41.472 215.315 41.808C216.107 42.144 217.019 42.312 218.027 42.312C218.819 42.312 219.539 42.216 220.187 42C220.835 41.784 221.411 41.496 221.891 41.112C222.371 40.752 222.779 40.32 223.115 39.84C223.451 39.36 223.667 38.832 223.811 38.256H221.555C221.291 38.904 220.883 39.432 220.307 39.816C219.755 40.2 218.987 40.392 218.027 40.392C217.547 40.392 217.091 40.32 216.611 40.152C216.155 39.984 215.747 39.72 215.363 39.384C214.979 39.048 214.667 38.616 214.427 38.112C214.187 37.584 214.067 36.984 214.067 36.264ZM217.955 30.768C218.531 30.768 219.059 30.864 219.515 31.08C219.971 31.272 220.355 31.56 220.667 31.896C221.003 32.232 221.243 32.64 221.411 33.072C221.579 33.504 221.675 33.96 221.675 34.416H214.067C214.115 33.768 214.259 33.216 214.499 32.76C214.739 32.28 215.027 31.896 215.387 31.608C215.723 31.32 216.131 31.104 216.587 30.96C217.019 30.816 217.475 30.768 217.955 30.768ZM228.732 31.032V29.088H226.548V42H228.732V34.992C228.732 33.6 229.02 32.568 229.644 31.848C230.244 31.128 231.084 30.768 232.14 30.768C232.764 30.768 233.244 30.888 233.628 31.08C234.012 31.272 234.3 31.56 234.492 31.896C234.684 32.232 234.804 32.64 234.876 33.072C234.924 33.528 234.972 34.008 234.972 34.488V42H237.156V33.84C237.156 33.12 237.06 32.448 236.916 31.824C236.772 31.224 236.532 30.696 236.196 30.264C235.86 29.832 235.404 29.496 234.876 29.256C234.348 29.016 233.676 28.896 232.908 28.896C231.804 28.896 230.94 29.088 230.268 29.52C229.596 29.928 229.092 30.432 228.732 31.032ZM241.047 25.848V29.088H239.007V30.84H241.047V38.76C241.047 39.432 241.071 39.984 241.167 40.416C241.263 40.848 241.407 41.16 241.647 41.4C241.863 41.64 242.175 41.784 242.559 41.88C242.943 41.976 243.447 42.024 244.071 42.024H245.655V40.2H244.551C244.239 40.2 243.999 40.176 243.831 40.128C243.639 40.08 243.519 39.984 243.423 39.864C243.327 39.72 243.279 39.552 243.255 39.336C243.231 39.12 243.231 38.856 243.231 38.52V30.864H245.679V29.112H243.231V25.872L241.047 25.848ZM250.646 29.088H248.462V42H250.646V29.088ZM250.646 24.6H248.462V27.24H250.646V24.6ZM262.247 35.784V36.6C262.247 37.368 262.127 38.016 261.911 38.52C261.671 39.024 261.383 39.432 261.023 39.744C260.639 40.056 260.231 40.272 259.751 40.392C259.271 40.536 258.767 40.584 258.263 40.584C257.471 40.584 256.847 40.416 256.415 40.032C255.983 39.648 255.767 39.168 255.767 38.544C255.767 38.112 255.911 37.728 256.223 37.416C256.511 37.128 256.943 36.864 257.519 36.648C258.071 36.456 258.743 36.288 259.559 36.144C260.351 36 261.239 35.88 262.247 35.784ZM257.759 42.312C258.911 42.312 259.847 42.144 260.543 41.784C261.239 41.424 261.791 40.896 262.175 40.224C262.199 40.608 262.223 40.944 262.247 41.232C262.295 41.52 262.319 41.76 262.343 42H264.551C264.431 41.4 264.335 40.704 264.287 39.936C264.239 39.168 264.215 38.232 264.239 37.128L264.263 34.152C264.263 32.328 263.855 30.984 263.039 30.12C262.223 29.256 260.903 28.824 259.127 28.824C258.503 28.824 257.879 28.92 257.279 29.112C256.679 29.304 256.151 29.592 255.671 29.952C255.191 30.336 254.783 30.792 254.471 31.32C254.159 31.872 253.991 32.496 253.943 33.168H256.199C256.247 32.376 256.511 31.752 257.015 31.296C257.519 30.84 258.239 30.6 259.151 30.6C259.535 30.6 259.919 30.672 260.279 30.768C260.639 30.864 260.951 31.056 261.215 31.296C261.479 31.536 261.695 31.872 261.839 32.256C261.983 32.664 262.079 33.168 262.079 33.744V34.056C260.735 34.2 259.535 34.392 258.479 34.584C257.399 34.8 256.487 35.064 255.719 35.4C254.951 35.736 254.375 36.168 253.967 36.672C253.535 37.2 253.343 37.824 253.343 38.592C253.343 39.192 253.439 39.72 253.679 40.176C253.919 40.656 254.231 41.04 254.639 41.352C255.047 41.664 255.527 41.904 256.055 42.072C256.583 42.24 257.159 42.312 257.759 42.312ZM269.701 42V24.6H267.517V42H269.701ZM280.558 32.856H282.838C282.622 31.632 282.07 30.648 281.182 29.928C280.294 29.208 279.142 28.848 277.75 28.848C277.03 28.848 276.358 28.944 275.734 29.088C275.11 29.256 274.558 29.496 274.102 29.808C273.622 30.12 273.262 30.504 272.998 30.936C272.71 31.368 272.59 31.872 272.59 32.448C272.59 33.072 272.686 33.576 272.902 33.984C273.118 34.392 273.406 34.728 273.766 35.016C274.102 35.304 274.51 35.52 274.942 35.664C275.374 35.808 275.83 35.928 276.262 36.024L278.182 36.408C278.518 36.504 278.854 36.6 279.166 36.696C279.478 36.792 279.766 36.936 280.006 37.104C280.246 37.272 280.438 37.464 280.582 37.704C280.726 37.944 280.798 38.232 280.798 38.544C280.798 39.168 280.486 39.624 279.91 39.96C279.334 40.296 278.614 40.464 277.798 40.464C276.838 40.464 276.094 40.248 275.566 39.768C275.038 39.312 274.678 38.664 274.51 37.824H272.206C272.254 38.4 272.422 38.952 272.686 39.48C272.95 40.032 273.31 40.512 273.79 40.92C274.27 41.352 274.822 41.688 275.494 41.928C276.142 42.192 276.886 42.312 277.75 42.312C278.47 42.312 279.166 42.24 279.814 42.048C280.438 41.88 280.99 41.616 281.47 41.28C281.95 40.944 282.31 40.512 282.598 40.008C282.862 39.528 283.006 38.952 283.006 38.304C283.006 37.68 282.886 37.152 282.646 36.72C282.406 36.288 282.07 35.928 281.662 35.64C281.254 35.352 280.798 35.112 280.27 34.92C279.742 34.728 279.166 34.584 278.59 34.464L276.766 34.104C276.142 33.984 275.638 33.792 275.302 33.528C274.965 33.264 274.798 32.88 274.798 32.352C274.798 32.064 274.87 31.824 275.038 31.608C275.182 31.416 275.398 31.248 275.662 31.104C275.926 30.96 276.214 30.864 276.55 30.816C276.862 30.768 277.174 30.72 277.51 30.72C278.278 30.72 278.926 30.888 279.478 31.224C280.006 31.56 280.366 32.088 280.558 32.856ZM285.373 42H288.133V39.24H285.373V42Z" fill="url(#paint0_linear_401_3096)"/>
<defs>
<linearGradient id="paint0_linear_401_3096" x1="156.5" y1="-2" x2="156.5" y2="57" gradientUnits="userSpaceOnUse">
<stop stop-color="white"/>
<stop offset="1" stop-color="#C4C4C4" stop-opacity="0"/>
</linearGradient>
</defs>
</svg>
