<svg width="311" height="47" viewBox="0 0 311 47" fill="none" xmlns="http://www.w3.org/2000/svg">
<path d="M40.5042 0.599999H35.0562V18H37.5042V11.112H40.5042C41.5602 11.112 42.5202 11.04 43.4082 10.896C44.2962 10.752 45.0642 10.488 45.7122 10.104C46.3362 9.72 46.8402 9.192 47.2002 8.52C47.5362 7.848 47.7282 6.96 47.7282 5.88C47.7282 4.8 47.5362 3.912 47.2002 3.24C46.8402 2.568 46.3362 2.016 45.7122 1.632C45.0642 1.248 44.2962 0.983999 43.4082 0.839999C42.5202 0.696 41.5602 0.599999 40.5042 0.599999ZM37.5042 2.688H40.6962C41.3202 2.688 41.9202 2.712 42.4722 2.784C43.0242 2.832 43.5042 2.976 43.9122 3.216C44.3202 3.432 44.6322 3.744 44.8722 4.176C45.1122 4.608 45.2322 5.16 45.2322 5.88C45.2322 6.6 45.1122 7.152 44.8722 7.56C44.6322 7.968 44.3202 8.28 43.9122 8.496C43.5042 8.712 43.0242 8.856 42.4722 8.904C41.9202 8.952 41.3202 9 40.6962 9H37.5042V2.688ZM52.162 18V0.599999H49.978V18H52.162ZM63.7624 11.784V12.6C63.7624 13.368 63.6424 14.016 63.4264 14.52C63.1864 15.024 62.8984 15.432 62.5384 15.744C62.1544 16.056 61.7464 16.272 61.2664 16.392C60.7864 16.536 60.2824 16.584 59.7784 16.584C58.9864 16.584 58.3624 16.416 57.9304 16.032C57.4984 15.648 57.2824 15.168 57.2824 14.544C57.2824 14.112 57.4264 13.728 57.7384 13.416C58.0264 13.128 58.4584 12.864 59.0344 12.648C59.5864 12.456 60.2584 12.288 61.0744 12.144C61.8664 12 62.7544 11.88 63.7624 11.784ZM59.2744 18.312C60.4264 18.312 61.3624 18.144 62.0584 17.784C62.7544 17.424 63.3064 16.896 63.6904 16.224C63.7144 16.608 63.7384 16.944 63.7624 17.232C63.8104 17.52 63.8344 17.76 63.8584 18H66.0664C65.9464 17.4 65.8504 16.704 65.8024 15.936C65.7544 15.168 65.7304 14.232 65.7544 13.128L65.7784 10.152C65.7784 8.328 65.3704 6.984 64.5544 6.12C63.7384 5.256 62.4184 4.824 60.6424 4.824C60.0184 4.824 59.3944 4.92 58.7944 5.112C58.1944 5.304 57.6664 5.592 57.1864 5.952C56.7064 6.336 56.2984 6.792 55.9864 7.32C55.6744 7.872 55.5064 8.496 55.4584 9.168H57.7144C57.7624 8.376 58.0264 7.752 58.5304 7.296C59.0344 6.84 59.7544 6.6 60.6664 6.6C61.0504 6.6 61.4344 6.672 61.7944 6.768C62.1544 6.864 62.4664 7.056 62.7304 7.296C62.9944 7.536 63.2104 7.872 63.3544 8.256C63.4984 8.664 63.5944 9.168 63.5944 9.744V10.056C62.2504 10.2 61.0504 10.392 59.9944 10.584C58.9144 10.8 58.0024 11.064 57.2344 11.4C56.4664 11.736 55.8904 12.168 55.4824 12.672C55.0504 13.2 54.8584 13.824 54.8584 14.592C54.8584 15.192 54.9544 15.72 55.1944 16.176C55.4344 16.656 55.7464 17.04 56.1544 17.352C56.5624 17.664 57.0424 17.904 57.5704 18.072C58.0984 18.24 58.6744 18.312 59.2744 18.312ZM78.3715 5.088H76.0915L72.8995 15.048L69.6115 5.088H67.1875L71.8435 18L71.7475 18.264C71.6035 18.792 71.4355 19.176 71.2675 19.464C71.0995 19.752 70.9075 19.944 70.7155 20.088C70.4995 20.232 70.2595 20.304 69.9715 20.352C69.6835 20.376 69.3715 20.4 69.0115 20.4H68.1235V22.224H69.2515C69.9715 22.224 70.5715 22.152 71.0515 22.032C71.5315 21.912 71.9155 21.72 72.2275 21.432C72.5635 21.144 72.8275 20.784 73.0435 20.328C73.2835 19.848 73.4995 19.272 73.7395 18.576L78.3715 5.088ZM91.5745 5.088L89.0065 14.64L86.5345 5.088H84.1825L87.9025 18H89.8945L92.6545 7.608L95.5105 18H97.5025L101.223 5.088H98.8705L96.3985 14.64L93.8305 5.088H91.5745ZM105.248 5.088H103.064V18H105.248V5.088ZM105.248 0.599999H103.064V3.24H105.248V0.599999ZM109.336 1.848V5.088H107.296V6.84H109.336V14.76C109.336 15.432 109.36 15.984 109.456 16.416C109.552 16.848 109.696 17.16 109.936 17.4C110.152 17.64 110.464 17.784 110.848 17.88C111.232 17.976 111.736 18.024 112.36 18.024H113.944V16.2H112.84C112.528 16.2 112.288 16.176 112.12 16.128C111.928 16.08 111.808 15.984 111.712 15.864C111.616 15.72 111.568 15.552 111.544 15.336C111.52 15.12 111.52 14.856 111.52 14.52V6.864H113.968V5.112H111.52V1.872L109.336 1.848ZM118.935 7.032V0.599999H116.751V18H118.935V10.992C118.935 9.6 119.223 8.568 119.847 7.848C120.447 7.128 121.287 6.768 122.343 6.768C122.967 6.768 123.447 6.888 123.831 7.08C124.215 7.272 124.503 7.56 124.695 7.896C124.887 8.232 125.007 8.64 125.079 9.072C125.127 9.528 125.175 10.008 125.175 10.488V18H127.359V9.84C127.359 9.12 127.263 8.448 127.119 7.824C126.975 7.224 126.735 6.696 126.399 6.264C126.063 5.832 125.607 5.496 125.079 5.256C124.551 5.016 123.879 4.896 123.111 4.896C122.007 4.896 121.143 5.088 120.471 5.52C119.799 5.928 119.295 6.432 118.935 7.032ZM144.458 11.784V12.6C144.458 13.368 144.338 14.016 144.122 14.52C143.882 15.024 143.594 15.432 143.234 15.744C142.85 16.056 142.442 16.272 141.962 16.392C141.482 16.536 140.978 16.584 140.474 16.584C139.682 16.584 139.058 16.416 138.626 16.032C138.194 15.648 137.978 15.168 137.978 14.544C137.978 14.112 138.122 13.728 138.434 13.416C138.722 13.128 139.154 12.864 139.73 12.648C140.282 12.456 140.954 12.288 141.77 12.144C142.562 12 143.45 11.88 144.458 11.784ZM139.97 18.312C141.122 18.312 142.058 18.144 142.754 17.784C143.45 17.424 144.002 16.896 144.386 16.224C144.41 16.608 144.434 16.944 144.458 17.232C144.506 17.52 144.53 17.76 144.554 18H146.762C146.642 17.4 146.546 16.704 146.498 15.936C146.45 15.168 146.426 14.232 146.45 13.128L146.474 10.152C146.474 8.328 146.066 6.984 145.25 6.12C144.434 5.256 143.114 4.824 141.338 4.824C140.714 4.824 140.09 4.92 139.49 5.112C138.89 5.304 138.362 5.592 137.882 5.952C137.402 6.336 136.994 6.792 136.682 7.32C136.37 7.872 136.202 8.496 136.154 9.168H138.41C138.458 8.376 138.722 7.752 139.226 7.296C139.73 6.84 140.45 6.6 141.362 6.6C141.746 6.6 142.13 6.672 142.49 6.768C142.85 6.864 143.162 7.056 143.426 7.296C143.69 7.536 143.906 7.872 144.05 8.256C144.194 8.664 144.29 9.168 144.29 9.744V10.056C142.946 10.2 141.746 10.392 140.69 10.584C139.61 10.8 138.698 11.064 137.93 11.4C137.162 11.736 136.586 12.168 136.178 12.672C135.746 13.2 135.554 13.824 135.554 14.592C135.554 15.192 135.65 15.72 135.89 16.176C136.13 16.656 136.442 17.04 136.85 17.352C137.258 17.664 137.738 17.904 138.266 18.072C138.794 18.24 139.37 18.312 139.97 18.312ZM151.912 5.088H149.728V22.2H151.912V16.056C152.296 16.752 152.848 17.304 153.544 17.712C154.216 18.12 155.08 18.312 156.136 18.312C156.856 18.312 157.576 18.168 158.248 17.88C158.92 17.592 159.496 17.136 160 16.56C160.504 15.984 160.912 15.288 161.2 14.448C161.488 13.632 161.656 12.672 161.656 11.592C161.656 10.536 161.488 9.6 161.2 8.76C160.912 7.944 160.504 7.224 160 6.648C159.496 6.072 158.92 5.64 158.248 5.328C157.576 5.04 156.856 4.872 156.136 4.872C155.08 4.872 154.216 5.088 153.544 5.496C152.848 5.904 152.296 6.456 151.912 7.128V5.088ZM151.816 11.592C151.816 10.752 151.912 10.032 152.128 9.408C152.32 8.784 152.608 8.28 152.968 7.896C153.304 7.512 153.712 7.224 154.168 7.032C154.624 6.84 155.104 6.744 155.584 6.744C156.688 6.744 157.6 7.176 158.272 8.016C158.944 8.856 159.28 10.056 159.28 11.592C159.28 13.152 158.944 14.352 158.272 15.192C157.6 16.032 156.688 16.44 155.584 16.44C155.104 16.44 154.624 16.368 154.168 16.176C153.712 15.984 153.304 15.696 152.968 15.312C152.608 14.928 152.32 14.424 152.128 13.8C151.912 13.176 151.816 12.456 151.816 11.592ZM166.396 5.088H164.212V22.2H166.396V16.056C166.78 16.752 167.332 17.304 168.028 17.712C168.7 18.12 169.564 18.312 170.62 18.312C171.34 18.312 172.06 18.168 172.732 17.88C173.404 17.592 173.98 17.136 174.484 16.56C174.988 15.984 175.396 15.288 175.684 14.448C175.972 13.632 176.14 12.672 176.14 11.592C176.14 10.536 175.972 9.6 175.684 8.76C175.396 7.944 174.988 7.224 174.484 6.648C173.98 6.072 173.404 5.64 172.732 5.328C172.06 5.04 171.34 4.872 170.62 4.872C169.564 4.872 168.7 5.088 168.028 5.496C167.332 5.904 166.78 6.456 166.396 7.128V5.088ZM166.3 11.592C166.3 10.752 166.396 10.032 166.612 9.408C166.804 8.784 167.092 8.28 167.452 7.896C167.788 7.512 168.196 7.224 168.652 7.032C169.108 6.84 169.588 6.744 170.068 6.744C171.172 6.744 172.084 7.176 172.756 8.016C173.428 8.856 173.764 10.056 173.764 11.592C173.764 13.152 173.428 14.352 172.756 15.192C172.084 16.032 171.172 16.44 170.068 16.44C169.588 16.44 169.108 16.368 168.652 16.176C168.196 15.984 167.788 15.696 167.452 15.312C167.092 14.928 166.804 14.424 166.612 13.8C166.396 13.176 166.3 12.456 166.3 11.592ZM185.129 7.368V5.04C184.985 5.04 184.889 5.016 184.793 5.016H184.481C183.617 5.064 182.873 5.28 182.249 5.664C181.625 6.048 181.145 6.624 180.833 7.344V5.088H178.697V18H180.881V11.232C180.881 9.816 181.121 8.808 181.625 8.184C182.129 7.584 182.897 7.272 183.905 7.272C184.073 7.272 184.265 7.296 184.481 7.296C184.673 7.32 184.889 7.344 185.129 7.368ZM188.482 11.592C188.482 10.728 188.578 9.984 188.794 9.36C189.01 8.76 189.298 8.256 189.658 7.872C190.018 7.488 190.426 7.224 190.906 7.056C191.362 6.888 191.842 6.792 192.346 6.792C192.826 6.792 193.306 6.888 193.786 7.056C194.242 7.248 194.65 7.512 195.01 7.896C195.37 8.28 195.658 8.784 195.874 9.384C196.09 10.008 196.21 10.728 196.21 11.592C196.21 12.432 196.09 13.152 195.874 13.752C195.658 14.352 195.37 14.856 195.01 15.24C194.65 15.624 194.242 15.912 193.786 16.104C193.306 16.296 192.826 16.392 192.346 16.392C191.842 16.392 191.362 16.32 190.906 16.128C190.426 15.96 190.018 15.672 189.658 15.288C189.298 14.904 189.01 14.424 188.794 13.8C188.578 13.2 188.482 12.456 188.482 11.592ZM192.346 4.872C191.578 4.872 190.834 5.016 190.114 5.28C189.37 5.544 188.698 5.952 188.098 6.48C187.522 7.032 187.042 7.728 186.682 8.568C186.322 9.432 186.13 10.44 186.13 11.592C186.13 12.768 186.322 13.776 186.682 14.616C187.042 15.48 187.522 16.176 188.098 16.704C188.698 17.256 189.37 17.664 190.114 17.928C190.834 18.192 191.578 18.312 192.346 18.312C193.09 18.312 193.834 18.192 194.578 17.928C195.298 17.664 195.97 17.256 196.57 16.704C197.146 16.176 197.626 15.48 197.986 14.616C198.346 13.776 198.538 12.768 198.538 11.592C198.538 10.44 198.346 9.432 197.986 8.568C197.626 7.728 197.146 7.032 196.57 6.48C195.97 5.952 195.298 5.544 194.578 5.28C193.834 5.016 193.09 4.872 192.346 4.872ZM209.286 11.784V12.6C209.286 13.368 209.166 14.016 208.95 14.52C208.71 15.024 208.422 15.432 208.062 15.744C207.678 16.056 207.27 16.272 206.79 16.392C206.31 16.536 205.806 16.584 205.302 16.584C204.51 16.584 203.886 16.416 203.454 16.032C203.022 15.648 202.806 15.168 202.806 14.544C202.806 14.112 202.95 13.728 203.262 13.416C203.55 13.128 203.982 12.864 204.558 12.648C205.11 12.456 205.782 12.288 206.598 12.144C207.39 12 208.278 11.88 209.286 11.784ZM204.798 18.312C205.95 18.312 206.886 18.144 207.582 17.784C208.278 17.424 208.83 16.896 209.214 16.224C209.238 16.608 209.262 16.944 209.286 17.232C209.334 17.52 209.358 17.76 209.382 18H211.59C211.47 17.4 211.374 16.704 211.326 15.936C211.278 15.168 211.254 14.232 211.278 13.128L211.302 10.152C211.302 8.328 210.894 6.984 210.078 6.12C209.262 5.256 207.942 4.824 206.166 4.824C205.542 4.824 204.918 4.92 204.318 5.112C203.718 5.304 203.19 5.592 202.71 5.952C202.23 6.336 201.822 6.792 201.51 7.32C201.198 7.872 201.03 8.496 200.982 9.168H203.238C203.286 8.376 203.55 7.752 204.054 7.296C204.558 6.84 205.278 6.6 206.19 6.6C206.574 6.6 206.958 6.672 207.318 6.768C207.678 6.864 207.99 7.056 208.254 7.296C208.518 7.536 208.734 7.872 208.878 8.256C209.022 8.664 209.118 9.168 209.118 9.744V10.056C207.774 10.2 206.574 10.392 205.518 10.584C204.438 10.8 203.526 11.064 202.758 11.4C201.99 11.736 201.414 12.168 201.006 12.672C200.574 13.2 200.382 13.824 200.382 14.592C200.382 15.192 200.478 15.72 200.718 16.176C200.958 16.656 201.27 17.04 201.678 17.352C202.086 17.664 202.566 17.904 203.094 18.072C203.622 18.24 204.198 18.312 204.798 18.312ZM219.908 4.872C218.948 4.872 218.084 5.04 217.316 5.376C216.548 5.712 215.876 6.192 215.348 6.792C214.82 7.392 214.388 8.088 214.1 8.904C213.812 9.72 213.668 10.608 213.668 11.568C213.668 12.576 213.788 13.488 214.076 14.304C214.364 15.12 214.748 15.84 215.276 16.416C215.804 17.016 216.428 17.472 217.172 17.808C217.916 18.144 218.756 18.312 219.692 18.312C220.436 18.312 221.132 18.192 221.804 17.952C222.452 17.712 223.028 17.4 223.532 16.968C224.036 16.56 224.444 16.08 224.78 15.528C225.116 15 225.332 14.424 225.452 13.8H223.196C223.1 14.136 222.98 14.472 222.788 14.784C222.596 15.096 222.332 15.36 222.044 15.6C221.756 15.84 221.396 16.032 221.012 16.176C220.628 16.32 220.196 16.392 219.764 16.392C219.284 16.392 218.804 16.296 218.372 16.104C217.916 15.912 217.508 15.6 217.172 15.192C216.836 14.808 216.548 14.304 216.356 13.68C216.14 13.08 216.044 12.36 216.044 11.544C216.044 10.728 216.14 10.032 216.356 9.432C216.548 8.856 216.836 8.352 217.172 7.968C217.508 7.584 217.916 7.272 218.372 7.08C218.804 6.888 219.284 6.792 219.764 6.792C220.604 6.792 221.324 7.056 221.948 7.536C222.548 8.016 222.932 8.64 223.1 9.408H225.308C225.212 8.88 225.044 8.328 224.78 7.776C224.492 7.248 224.132 6.744 223.676 6.312C223.196 5.88 222.644 5.544 222.02 5.28C221.396 5.016 220.676 4.872 219.908 4.872ZM230.1 7.032V0.599999H227.916V18H230.1V10.992C230.1 9.6 230.388 8.568 231.012 7.848C231.612 7.128 232.452 6.768 233.508 6.768C234.132 6.768 234.612 6.888 234.996 7.08C235.38 7.272 235.668 7.56 235.86 7.896C236.052 8.232 236.172 8.64 236.244 9.072C236.292 9.528 236.34 10.008 236.34 10.488V18H238.523V9.84C238.523 9.12 238.428 8.448 238.284 7.824C238.14 7.224 237.9 6.696 237.564 6.264C237.228 5.832 236.772 5.496 236.244 5.256C235.716 5.016 235.044 4.896 234.276 4.896C233.172 4.896 232.308 5.088 231.636 5.52C230.964 5.928 230.46 6.432 230.1 7.032ZM243.255 12.264H253.191C253.239 11.256 253.143 10.296 252.903 9.384C252.663 8.496 252.279 7.704 251.751 7.032C251.223 6.36 250.575 5.832 249.807 5.448C249.015 5.064 248.127 4.872 247.143 4.872C246.279 4.872 245.463 5.04 244.695 5.352C243.927 5.664 243.279 6.12 242.703 6.696C242.127 7.272 241.695 7.992 241.359 8.808C241.047 9.624 240.879 10.56 240.879 11.568C240.879 12.528 241.023 13.416 241.311 14.232C241.599 15.048 242.007 15.768 242.535 16.368C243.062 16.992 243.735 17.472 244.503 17.808C245.295 18.144 246.207 18.312 247.215 18.312C248.007 18.312 248.727 18.216 249.375 18C250.023 17.784 250.599 17.496 251.079 17.112C251.559 16.752 251.967 16.32 252.303 15.84C252.639 15.36 252.855 14.832 252.999 14.256H250.743C250.479 14.904 250.071 15.432 249.495 15.816C248.943 16.2 248.175 16.392 247.215 16.392C246.735 16.392 246.279 16.32 245.799 16.152C245.343 15.984 244.935 15.72 244.551 15.384C244.167 15.048 243.855 14.616 243.615 14.112C243.375 13.584 243.255 12.984 243.255 12.264ZM247.143 6.768C247.719 6.768 248.247 6.864 248.703 7.08C249.159 7.272 249.543 7.56 249.855 7.896C250.191 8.232 250.431 8.64 250.599 9.072C250.767 9.504 250.863 9.96 250.863 10.416H243.255C243.303 9.768 243.447 9.216 243.687 8.76C243.927 8.28 244.215 7.896 244.575 7.608C244.911 7.32 245.319 7.104 245.775 6.96C246.207 6.816 246.663 6.768 247.143 6.768ZM263.175 8.856H265.455C265.239 7.632 264.687 6.648 263.799 5.928C262.911 5.208 261.759 4.848 260.367 4.848C259.647 4.848 258.975 4.944 258.351 5.088C257.727 5.256 257.175 5.496 256.719 5.808C256.239 6.12 255.879 6.504 255.615 6.936C255.327 7.368 255.207 7.872 255.207 8.448C255.207 9.072 255.303 9.576 255.519 9.984C255.735 10.392 256.023 10.728 256.383 11.016C256.719 11.304 257.127 11.52 257.559 11.664C257.991 11.808 258.447 11.928 258.879 12.024L260.799 12.408C261.135 12.504 261.471 12.6 261.783 12.696C262.095 12.792 262.383 12.936 262.623 13.104C262.863 13.272 263.055 13.464 263.199 13.704C263.343 13.944 263.415 14.232 263.415 14.544C263.415 15.168 263.103 15.624 262.527 15.96C261.951 16.296 261.231 16.464 260.415 16.464C259.455 16.464 258.711 16.248 258.183 15.768C257.655 15.312 257.295 14.664 257.127 13.824H254.823C254.871 14.4 255.039 14.952 255.303 15.48C255.567 16.032 255.927 16.512 256.407 16.92C256.887 17.352 257.439 17.688 258.111 17.928C258.759 18.192 259.503 18.312 260.367 18.312C261.087 18.312 261.783 18.24 262.431 18.048C263.055 17.88 263.607 17.616 264.087 17.28C264.567 16.944 264.927 16.512 265.215 16.008C265.479 15.528 265.623 14.952 265.623 14.304C265.623 13.68 265.503 13.152 265.263 12.72C265.023 12.288 264.687 11.928 264.279 11.64C263.871 11.352 263.415 11.112 262.887 10.92C262.359 10.728 261.783 10.584 261.207 10.464L259.383 10.104C258.759 9.984 258.255 9.792 257.919 9.528C257.583 9.264 257.415 8.88 257.415 8.352C257.415 8.064 257.487 7.824 257.655 7.608C257.799 7.416 258.015 7.248 258.279 7.104C258.543 6.96 258.831 6.864 259.167 6.816C259.479 6.768 259.791 6.72 260.127 6.72C260.895 6.72 261.543 6.888 262.095 7.224C262.623 7.56 262.983 8.088 263.175 8.856ZM267.99 18H270.75V15.24H267.99V18ZM6.01591 24.6H0.567906V42H3.01591V35.112H6.01591C7.07191 35.112 8.03191 35.04 8.91991 34.896C9.80791 34.752 10.5759 34.488 11.2239 34.104C11.8479 33.72 12.3519 33.192 12.7119 32.52C13.0479 31.848 13.2399 30.96 13.2399 29.88C13.2399 28.8 13.0479 27.912 12.7119 27.24C12.3519 26.568 11.8479 26.016 11.2239 25.632C10.5759 25.248 9.80791 24.984 8.91991 24.84C8.03191 24.696 7.07191 24.6 6.01591 24.6ZM3.01591 26.688H6.20791C6.83191 26.688 7.43191 26.712 7.98391 26.784C8.53591 26.832 9.01591 26.976 9.42391 27.216C9.83191 27.432 10.1439 27.744 10.3839 28.176C10.6239 28.608 10.7439 29.16 10.7439 29.88C10.7439 30.6 10.6239 31.152 10.3839 31.56C10.1439 31.968 9.83191 32.28 9.42391 32.496C9.01591 32.712 8.53591 32.856 7.98391 32.904C7.43191 32.952 6.83191 33 6.20791 33H3.01591V26.688ZM17.6737 42V24.6H15.4897V42H17.6737ZM29.2742 35.784V36.6C29.2742 37.368 29.1542 38.016 28.9382 38.52C28.6982 39.024 28.4102 39.432 28.0502 39.744C27.6662 40.056 27.2582 40.272 26.7782 40.392C26.2982 40.536 25.7942 40.584 25.2902 40.584C24.4982 40.584 23.8742 40.416 23.4422 40.032C23.0102 39.648 22.7942 39.168 22.7942 38.544C22.7942 38.112 22.9382 37.728 23.2502 37.416C23.5382 37.128 23.9702 36.864 24.5462 36.648C25.0982 36.456 25.7702 36.288 26.5862 36.144C27.3782 36 28.2662 35.88 29.2742 35.784ZM24.7862 42.312C25.9382 42.312 26.8742 42.144 27.5702 41.784C28.2662 41.424 28.8182 40.896 29.2022 40.224C29.2262 40.608 29.2502 40.944 29.2742 41.232C29.3222 41.52 29.3462 41.76 29.3702 42H31.5782C31.4582 41.4 31.3622 40.704 31.3142 39.936C31.2662 39.168 31.2422 38.232 31.2662 37.128L31.2902 34.152C31.2902 32.328 30.8822 30.984 30.0662 30.12C29.2502 29.256 27.9302 28.824 26.1542 28.824C25.5302 28.824 24.9062 28.92 24.3062 29.112C23.7062 29.304 23.1782 29.592 22.6982 29.952C22.2182 30.336 21.8102 30.792 21.4982 31.32C21.1862 31.872 21.0182 32.496 20.9702 33.168H23.2262C23.2742 32.376 23.5382 31.752 24.0422 31.296C24.5462 30.84 25.2662 30.6 26.1782 30.6C26.5622 30.6 26.9462 30.672 27.3062 30.768C27.6662 30.864 27.9782 31.056 28.2422 31.296C28.5062 31.536 28.7222 31.872 28.8662 32.256C29.0102 32.664 29.1062 33.168 29.1062 33.744V34.056C27.7622 34.2 26.5622 34.392 25.5062 34.584C24.4262 34.8 23.5142 35.064 22.7462 35.4C21.9782 35.736 21.4022 36.168 20.9942 36.672C20.5622 37.2 20.3702 37.824 20.3702 38.592C20.3702 39.192 20.4662 39.72 20.7062 40.176C20.9462 40.656 21.2582 41.04 21.6662 41.352C22.0742 41.664 22.5542 41.904 23.0822 42.072C23.6102 42.24 24.1862 42.312 24.7862 42.312ZM43.8832 29.088H41.6032L38.4112 39.048L35.1232 29.088H32.6992L37.3552 42L37.2592 42.264C37.1152 42.792 36.9472 43.176 36.7792 43.464C36.6112 43.752 36.4192 43.944 36.2272 44.088C36.0112 44.232 35.7712 44.304 35.4832 44.352C35.1952 44.376 34.8832 44.4 34.5232 44.4H33.6352V46.224H34.7632C35.4832 46.224 36.0832 46.152 36.5632 46.032C37.0432 45.912 37.4272 45.72 37.7392 45.432C38.0752 45.144 38.3392 44.784 38.5552 44.328C38.7952 43.848 39.0112 43.272 39.2512 42.576L43.8832 29.088ZM57.0862 29.088L54.5182 38.64L52.0462 29.088H49.6942L53.4142 42H55.4062L58.1662 31.608L61.0222 42H63.0142L66.7342 29.088H64.3822L61.9102 38.64L59.3422 29.088H57.0862ZM70.7597 29.088H68.5757V42H70.7597V29.088ZM70.7597 24.6H68.5757V27.24H70.7597V24.6ZM74.8481 25.848V29.088H72.8081V30.84H74.8481V38.76C74.8481 39.432 74.8721 39.984 74.9681 40.416C75.0641 40.848 75.2081 41.16 75.4481 41.4C75.6641 41.64 75.9761 41.784 76.3601 41.88C76.7441 41.976 77.2481 42.024 77.8721 42.024H79.4561V40.2H78.3521C78.0401 40.2 77.8001 40.176 77.6321 40.128C77.4401 40.08 77.3201 39.984 77.2241 39.864C77.1281 39.72 77.0801 39.552 77.0561 39.336C77.0321 39.12 77.0321 38.856 77.0321 38.52V30.864H79.4801V29.112H77.0321V25.872L74.8481 25.848ZM84.4472 31.032V24.6H82.2632V42H84.4472V34.992C84.4472 33.6 84.7352 32.568 85.3592 31.848C85.9592 31.128 86.7992 30.768 87.8552 30.768C88.4792 30.768 88.9592 30.888 89.3432 31.08C89.7272 31.272 90.0152 31.56 90.2072 31.896C90.3992 32.232 90.5192 32.64 90.5912 33.072C90.6392 33.528 90.6872 34.008 90.6872 34.488V42H92.8712V33.84C92.8712 33.12 92.7752 32.448 92.6312 31.824C92.4872 31.224 92.2472 30.696 91.9112 30.264C91.5752 29.832 91.1192 29.496 90.5912 29.256C90.0632 29.016 89.3912 28.896 88.6232 28.896C87.5192 28.896 86.6552 29.088 85.9832 29.52C85.3112 29.928 84.8072 30.432 84.4472 31.032ZM102.385 28.152V29.088H100.585V30.84H102.385V42H104.569V30.84H106.993V29.088H104.569V28.032C104.569 27.696 104.569 27.432 104.617 27.216C104.641 27.024 104.713 26.856 104.809 26.736C104.905 26.616 105.025 26.544 105.217 26.496C105.385 26.448 105.625 26.424 105.913 26.424H106.993V24.6H105.865C105.121 24.6 104.521 24.672 104.065 24.792C103.609 24.912 103.249 25.104 103.009 25.368C102.769 25.656 102.601 26.016 102.505 26.472C102.409 26.928 102.385 27.48 102.385 28.152ZM110.376 35.592C110.376 34.728 110.472 33.984 110.688 33.36C110.904 32.76 111.192 32.256 111.552 31.872C111.912 31.488 112.32 31.224 112.8 31.056C113.256 30.888 113.736 30.792 114.24 30.792C114.72 30.792 115.2 30.888 115.68 31.056C116.136 31.248 116.544 31.512 116.904 31.896C117.264 32.28 117.552 32.784 117.768 33.384C117.984 34.008 118.104 34.728 118.104 35.592C118.104 36.432 117.984 37.152 117.768 37.752C117.552 38.352 117.264 38.856 116.904 39.24C116.544 39.624 116.136 39.912 115.68 40.104C115.2 40.296 114.72 40.392 114.24 40.392C113.736 40.392 113.256 40.32 112.8 40.128C112.32 39.96 111.912 39.672 111.552 39.288C111.192 38.904 110.904 38.424 110.688 37.8C110.472 37.2 110.376 36.456 110.376 35.592ZM114.24 28.872C113.472 28.872 112.728 29.016 112.008 29.28C111.264 29.544 110.592 29.952 109.992 30.48C109.416 31.032 108.936 31.728 108.576 32.568C108.216 33.432 108.024 34.44 108.024 35.592C108.024 36.768 108.216 37.776 108.576 38.616C108.936 39.48 109.416 40.176 109.992 40.704C110.592 41.256 111.264 41.664 112.008 41.928C112.728 42.192 113.472 42.312 114.24 42.312C114.984 42.312 115.728 42.192 116.472 41.928C117.192 41.664 117.864 41.256 118.464 40.704C119.04 40.176 119.52 39.48 119.88 38.616C120.24 37.776 120.432 36.768 120.432 35.592C120.432 34.44 120.24 33.432 119.88 32.568C119.52 31.728 119.04 31.032 118.464 30.48C117.864 29.952 117.192 29.544 116.472 29.28C115.728 29.016 114.984 28.872 114.24 28.872ZM129.476 31.368V29.04C129.332 29.04 129.236 29.016 129.14 29.016H128.828C127.964 29.064 127.22 29.28 126.596 29.664C125.972 30.048 125.492 30.624 125.18 31.344V29.088H123.044V42H125.228V35.232C125.228 33.816 125.468 32.808 125.972 32.184C126.476 31.584 127.244 31.272 128.252 31.272C128.42 31.272 128.612 31.296 128.828 31.296C129.02 31.32 129.236 31.344 129.476 31.368ZM133.76 42V34.992C133.76 33.6 134.024 32.568 134.6 31.848C135.176 31.128 135.92 30.768 136.88 30.768C137.456 30.768 137.936 30.888 138.296 31.08C138.656 31.272 138.944 31.56 139.136 31.896C139.328 32.232 139.472 32.64 139.544 33.072C139.592 33.528 139.64 34.008 139.64 34.488V42H141.824V34.992C141.824 33.6 142.088 32.568 142.664 31.848C143.24 31.128 143.984 30.768 144.944 30.768C145.52 30.768 146 30.888 146.36 31.08C146.72 31.272 147.008 31.56 147.2 31.896C147.392 32.232 147.536 32.64 147.608 33.072C147.656 33.528 147.704 34.008 147.704 34.488V42H149.888V33.84C149.888 33.12 149.792 32.448 149.648 31.824C149.504 31.224 149.264 30.696 148.928 30.264C148.592 29.832 148.16 29.496 147.632 29.256C147.104 29.016 146.456 28.896 145.712 28.896C144.8 28.896 143.96 29.064 143.24 29.424C142.496 29.784 141.872 30.36 141.368 31.176C141.08 30.456 140.624 29.88 140.024 29.496C139.424 29.088 138.632 28.896 137.648 28.896C136.664 28.896 135.872 29.088 135.248 29.52C134.624 29.928 134.12 30.432 133.76 31.032V29.088H131.576V42H133.76ZM160.345 35.592C160.345 34.728 160.441 33.984 160.657 33.36C160.873 32.76 161.161 32.256 161.521 31.872C161.881 31.488 162.289 31.224 162.769 31.056C163.225 30.888 163.705 30.792 164.209 30.792C164.689 30.792 165.169 30.888 165.649 31.056C166.105 31.248 166.513 31.512 166.873 31.896C167.233 32.28 167.521 32.784 167.737 33.384C167.953 34.008 168.073 34.728 168.073 35.592C168.073 36.432 167.953 37.152 167.737 37.752C167.521 38.352 167.233 38.856 166.873 39.24C166.513 39.624 166.105 39.912 165.649 40.104C165.169 40.296 164.689 40.392 164.209 40.392C163.705 40.392 163.225 40.32 162.769 40.128C162.289 39.96 161.881 39.672 161.521 39.288C161.161 38.904 160.873 38.424 160.657 37.8C160.441 37.2 160.345 36.456 160.345 35.592ZM164.209 28.872C163.441 28.872 162.697 29.016 161.977 29.28C161.233 29.544 160.561 29.952 159.961 30.48C159.385 31.032 158.905 31.728 158.545 32.568C158.185 33.432 157.993 34.44 157.993 35.592C157.993 36.768 158.185 37.776 158.545 38.616C158.905 39.48 159.385 40.176 159.961 40.704C160.561 41.256 161.233 41.664 161.977 41.928C162.697 42.192 163.441 42.312 164.209 42.312C164.953 42.312 165.697 42.192 166.441 41.928C167.161 41.664 167.833 41.256 168.433 40.704C169.009 40.176 169.489 39.48 169.849 38.616C170.209 37.776 170.401 36.768 170.401 35.592C170.401 34.44 170.209 33.432 169.849 32.568C169.489 31.728 169.009 31.032 168.433 30.48C167.833 29.952 167.161 29.544 166.441 29.28C165.697 29.016 164.953 28.872 164.209 28.872ZM173.682 28.152V29.088H171.882V30.84H173.682V42H175.866V30.84H178.29V29.088H175.866V28.032C175.866 27.696 175.866 27.432 175.914 27.216C175.938 27.024 176.01 26.856 176.106 26.736C176.202 26.616 176.322 26.544 176.514 26.496C176.682 26.448 176.922 26.424 177.21 26.424H178.29V24.6H177.162C176.418 24.6 175.818 24.672 175.362 24.792C174.906 24.912 174.546 25.104 174.306 25.368C174.066 25.656 173.898 26.016 173.802 26.472C173.706 26.928 173.682 27.48 173.682 28.152ZM187.813 36.264H197.749C197.797 35.256 197.701 34.296 197.461 33.384C197.221 32.496 196.837 31.704 196.309 31.032C195.781 30.36 195.133 29.832 194.365 29.448C193.573 29.064 192.685 28.872 191.701 28.872C190.837 28.872 190.021 29.04 189.253 29.352C188.485 29.664 187.837 30.12 187.261 30.696C186.685 31.272 186.253 31.992 185.917 32.808C185.605 33.624 185.437 34.56 185.437 35.568C185.437 36.528 185.581 37.416 185.869 38.232C186.157 39.048 186.565 39.768 187.093 40.368C187.621 40.992 188.293 41.472 189.061 41.808C189.853 42.144 190.765 42.312 191.773 42.312C192.565 42.312 193.285 42.216 193.933 42C194.581 41.784 195.157 41.496 195.637 41.112C196.117 40.752 196.525 40.32 196.861 39.84C197.197 39.36 197.413 38.832 197.557 38.256H195.301C195.037 38.904 194.629 39.432 194.053 39.816C193.501 40.2 192.733 40.392 191.773 40.392C191.293 40.392 190.837 40.32 190.357 40.152C189.901 39.984 189.493 39.72 189.109 39.384C188.725 39.048 188.413 38.616 188.173 38.112C187.933 37.584 187.813 36.984 187.813 36.264ZM191.701 30.768C192.277 30.768 192.805 30.864 193.261 31.08C193.717 31.272 194.101 31.56 194.413 31.896C194.749 32.232 194.989 32.64 195.157 33.072C195.325 33.504 195.421 33.96 195.421 34.416H187.813C187.861 33.768 188.005 33.216 188.245 32.76C188.485 32.28 188.773 31.896 189.133 31.608C189.469 31.32 189.877 31.104 190.333 30.96C190.765 30.816 191.221 30.768 191.701 30.768ZM205.749 35.256L210.141 29.088H207.693L204.525 33.528L201.381 29.088H198.765L203.229 35.352L198.477 42H200.973L204.453 37.08L207.957 42H210.573L205.749 35.256ZM214.666 29.088H212.482V46.2H214.666V40.056C215.05 40.752 215.602 41.304 216.298 41.712C216.97 42.12 217.834 42.312 218.89 42.312C219.61 42.312 220.33 42.168 221.002 41.88C221.674 41.592 222.25 41.136 222.754 40.56C223.258 39.984 223.666 39.288 223.954 38.448C224.242 37.632 224.41 36.672 224.41 35.592C224.41 34.536 224.242 33.6 223.954 32.76C223.666 31.944 223.258 31.224 222.754 30.648C222.25 30.072 221.674 29.64 221.002 29.328C220.33 29.04 219.61 28.872 218.89 28.872C217.834 28.872 216.97 29.088 216.298 29.496C215.602 29.904 215.05 30.456 214.666 31.128V29.088ZM214.57 35.592C214.57 34.752 214.666 34.032 214.882 33.408C215.074 32.784 215.362 32.28 215.722 31.896C216.058 31.512 216.466 31.224 216.922 31.032C217.378 30.84 217.858 30.744 218.338 30.744C219.442 30.744 220.354 31.176 221.026 32.016C221.698 32.856 222.034 34.056 222.034 35.592C222.034 37.152 221.698 38.352 221.026 39.192C220.354 40.032 219.442 40.44 218.338 40.44C217.858 40.44 217.378 40.368 216.922 40.176C216.466 39.984 216.058 39.696 215.722 39.312C215.362 38.928 215.074 38.424 214.882 37.8C214.666 37.176 214.57 36.456 214.57 35.592ZM233.398 31.368V29.04C233.254 29.04 233.158 29.016 233.062 29.016H232.75C231.886 29.064 231.142 29.28 230.518 29.664C229.894 30.048 229.414 30.624 229.102 31.344V29.088H226.966V42H229.15V35.232C229.15 33.816 229.39 32.808 229.894 32.184C230.398 31.584 231.166 31.272 232.174 31.272C232.342 31.272 232.534 31.296 232.75 31.296C232.942 31.32 233.158 31.344 233.398 31.368ZM236.727 36.264H246.663C246.711 35.256 246.615 34.296 246.375 33.384C246.135 32.496 245.751 31.704 245.223 31.032C244.695 30.36 244.047 29.832 243.279 29.448C242.487 29.064 241.599 28.872 240.615 28.872C239.751 28.872 238.935 29.04 238.167 29.352C237.399 29.664 236.751 30.12 236.175 30.696C235.599 31.272 235.167 31.992 234.831 32.808C234.519 33.624 234.351 34.56 234.351 35.568C234.351 36.528 234.495 37.416 234.783 38.232C235.071 39.048 235.479 39.768 236.007 40.368C236.535 40.992 237.207 41.472 237.975 41.808C238.767 42.144 239.679 42.312 240.687 42.312C241.479 42.312 242.199 42.216 242.847 42C243.495 41.784 244.071 41.496 244.551 41.112C245.031 40.752 245.439 40.32 245.775 39.84C246.111 39.36 246.327 38.832 246.471 38.256H244.215C243.951 38.904 243.543 39.432 242.967 39.816C242.415 40.2 241.647 40.392 240.687 40.392C240.207 40.392 239.751 40.32 239.271 40.152C238.815 39.984 238.407 39.72 238.023 39.384C237.639 39.048 237.327 38.616 237.087 38.112C236.847 37.584 236.727 36.984 236.727 36.264ZM240.615 30.768C241.191 30.768 241.719 30.864 242.175 31.08C242.631 31.272 243.015 31.56 243.327 31.896C243.663 32.232 243.903 32.64 244.071 33.072C244.239 33.504 244.335 33.96 244.335 34.416H236.727C236.775 33.768 236.919 33.216 237.159 32.76C237.399 32.28 237.687 31.896 238.047 31.608C238.383 31.32 238.791 31.104 239.247 30.96C239.679 30.816 240.135 30.768 240.615 30.768ZM256.647 32.856H258.927C258.711 31.632 258.159 30.648 257.271 29.928C256.383 29.208 255.231 28.848 253.839 28.848C253.119 28.848 252.447 28.944 251.823 29.088C251.199 29.256 250.647 29.496 250.191 29.808C249.711 30.12 249.351 30.504 249.087 30.936C248.799 31.368 248.679 31.872 248.679 32.448C248.679 33.072 248.775 33.576 248.991 33.984C249.207 34.392 249.495 34.728 249.855 35.016C250.191 35.304 250.599 35.52 251.031 35.664C251.463 35.808 251.919 35.928 252.351 36.024L254.271 36.408C254.607 36.504 254.943 36.6 255.255 36.696C255.567 36.792 255.855 36.936 256.095 37.104C256.335 37.272 256.527 37.464 256.671 37.704C256.815 37.944 256.887 38.232 256.887 38.544C256.887 39.168 256.575 39.624 255.999 39.96C255.423 40.296 254.703 40.464 253.887 40.464C252.927 40.464 252.183 40.248 251.655 39.768C251.127 39.312 250.767 38.664 250.599 37.824H248.295C248.343 38.4 248.511 38.952 248.775 39.48C249.039 40.032 249.399 40.512 249.879 40.92C250.359 41.352 250.911 41.688 251.583 41.928C252.231 42.192 252.975 42.312 253.839 42.312C254.559 42.312 255.255 42.24 255.903 42.048C256.527 41.88 257.079 41.616 257.559 41.28C258.039 40.944 258.399 40.512 258.687 40.008C258.951 39.528 259.095 38.952 259.095 38.304C259.095 37.68 258.975 37.152 258.735 36.72C258.495 36.288 258.159 35.928 257.751 35.64C257.343 35.352 256.887 35.112 256.359 34.92C255.831 34.728 255.255 34.584 254.679 34.464L252.855 34.104C252.231 33.984 251.727 33.792 251.391 33.528C251.055 33.264 250.887 32.88 250.887 32.352C250.887 32.064 250.959 31.824 251.127 31.608C251.271 31.416 251.487 31.248 251.751 31.104C252.015 30.96 252.303 30.864 252.639 30.816C252.951 30.768 253.263 30.72 253.599 30.72C254.367 30.72 255.015 30.888 255.567 31.224C256.095 31.56 256.455 32.088 256.647 32.856ZM269.257 32.856H271.537C271.321 31.632 270.769 30.648 269.881 29.928C268.993 29.208 267.841 28.848 266.449 28.848C265.729 28.848 265.057 28.944 264.433 29.088C263.809 29.256 263.257 29.496 262.801 29.808C262.321 30.12 261.961 30.504 261.697 30.936C261.409 31.368 261.289 31.872 261.289 32.448C261.289 33.072 261.385 33.576 261.601 33.984C261.817 34.392 262.105 34.728 262.465 35.016C262.801 35.304 263.209 35.52 263.641 35.664C264.073 35.808 264.529 35.928 264.961 36.024L266.881 36.408C267.217 36.504 267.553 36.6 267.865 36.696C268.177 36.792 268.465 36.936 268.705 37.104C268.945 37.272 269.137 37.464 269.281 37.704C269.425 37.944 269.497 38.232 269.497 38.544C269.497 39.168 269.185 39.624 268.609 39.96C268.033 40.296 267.313 40.464 266.497 40.464C265.537 40.464 264.793 40.248 264.265 39.768C263.737 39.312 263.377 38.664 263.209 37.824H260.905C260.953 38.4 261.121 38.952 261.385 39.48C261.649 40.032 262.009 40.512 262.489 40.92C262.969 41.352 263.521 41.688 264.193 41.928C264.841 42.192 265.585 42.312 266.449 42.312C267.169 42.312 267.865 42.24 268.513 42.048C269.137 41.88 269.689 41.616 270.169 41.28C270.649 40.944 271.009 40.512 271.297 40.008C271.561 39.528 271.705 38.952 271.705 38.304C271.705 37.68 271.585 37.152 271.345 36.72C271.105 36.288 270.769 35.928 270.361 35.64C269.953 35.352 269.497 35.112 268.969 34.92C268.441 34.728 267.865 34.584 267.289 34.464L265.465 34.104C264.841 33.984 264.337 33.792 264.001 33.528C263.665 33.264 263.497 32.88 263.497 32.352C263.497 32.064 263.569 31.824 263.737 31.608C263.881 31.416 264.097 31.248 264.361 31.104C264.625 30.96 264.913 30.864 265.249 30.816C265.561 30.768 265.873 30.72 266.209 30.72C266.977 30.72 267.625 30.888 268.177 31.224C268.705 31.56 269.065 32.088 269.257 32.856ZM276.658 29.088H274.474V42H276.658V29.088ZM276.658 24.6H274.474V27.24H276.658V24.6ZM281.611 35.592C281.611 34.728 281.707 33.984 281.923 33.36C282.139 32.76 282.427 32.256 282.787 31.872C283.147 31.488 283.555 31.224 284.035 31.056C284.491 30.888 284.971 30.792 285.475 30.792C285.955 30.792 286.435 30.888 286.915 31.056C287.371 31.248 287.779 31.512 288.139 31.896C288.499 32.28 288.787 32.784 289.003 33.384C289.219 34.008 289.339 34.728 289.339 35.592C289.339 36.432 289.219 37.152 289.003 37.752C288.787 38.352 288.499 38.856 288.139 39.24C287.779 39.624 287.371 39.912 286.915 40.104C286.435 40.296 285.955 40.392 285.475 40.392C284.971 40.392 284.491 40.32 284.035 40.128C283.555 39.96 283.147 39.672 282.787 39.288C282.427 38.904 282.139 38.424 281.923 37.8C281.707 37.2 281.611 36.456 281.611 35.592ZM285.475 28.872C284.707 28.872 283.963 29.016 283.243 29.28C282.499 29.544 281.827 29.952 281.227 30.48C280.651 31.032 280.171 31.728 279.811 32.568C279.451 33.432 279.259 34.44 279.259 35.592C279.259 36.768 279.451 37.776 279.811 38.616C280.171 39.48 280.651 40.176 281.227 40.704C281.827 41.256 282.499 41.664 283.243 41.928C283.963 42.192 284.707 42.312 285.475 42.312C286.219 42.312 286.963 42.192 287.707 41.928C288.427 41.664 289.099 41.256 289.699 40.704C290.275 40.176 290.755 39.48 291.115 38.616C291.475 37.776 291.667 36.768 291.667 35.592C291.667 34.44 291.475 33.432 291.115 32.568C290.755 31.728 290.275 31.032 289.699 30.48C289.099 29.952 288.427 29.544 287.707 29.28C286.963 29.016 286.219 28.872 285.475 28.872ZM296.463 31.032V29.088H294.279V42H296.463V34.992C296.463 33.6 296.751 32.568 297.375 31.848C297.975 31.128 298.815 30.768 299.871 30.768C300.495 30.768 300.975 30.888 301.359 31.08C301.743 31.272 302.031 31.56 302.223 31.896C302.415 32.232 302.535 32.64 302.607 33.072C302.655 33.528 302.703 34.008 302.703 34.488V42H304.887V33.84C304.887 33.12 304.791 32.448 304.647 31.824C304.503 31.224 304.263 30.696 303.927 30.264C303.591 29.832 303.135 29.496 302.607 29.256C302.079 29.016 301.407 28.896 300.639 28.896C299.535 28.896 298.671 29.088 297.999 29.52C297.327 29.928 296.823 30.432 296.463 31.032ZM308.173 42H310.933V39.24H308.173V42Z" fill="url(#paint0_linear_472_6925)"/>
<defs>
<linearGradient id="paint0_linear_472_6925" x1="155.5" y1="-2" x2="155.5" y2="91" gradientUnits="userSpaceOnUse">
<stop/>
<stop offset="1" stop-color="#C4C4C4" stop-opacity="0"/>
</linearGradient>
</defs>
</svg>
