<svg width="424" height="43" viewBox="0 0 424 43" fill="none" xmlns="http://www.w3.org/2000/svg">
<path d="M6.10575 0.599999H0.65775V18H3.10575V11.112H6.10575C7.16175 11.112 8.12175 11.04 9.00975 10.896C9.89775 10.752 10.6658 10.488 11.3138 10.104C11.9378 9.72 12.4418 9.192 12.8018 8.52C13.1378 7.848 13.3298 6.96 13.3298 5.88C13.3298 4.8 13.1378 3.912 12.8018 3.24C12.4418 2.568 11.9378 2.016 11.3138 1.632C10.6658 1.248 9.89775 0.983999 9.00975 0.839999C8.12175 0.696 7.16175 0.599999 6.10575 0.599999ZM3.10575 2.688H6.29775C6.92175 2.688 7.52175 2.712 8.07375 2.784C8.62575 2.832 9.10575 2.976 9.51375 3.216C9.92175 3.432 10.2338 3.744 10.4738 4.176C10.7137 4.608 10.8338 5.16 10.8338 5.88C10.8338 6.6 10.7137 7.152 10.4738 7.56C10.2338 7.968 9.92175 8.28 9.51375 8.496C9.10575 8.712 8.62575 8.856 8.07375 8.904C7.52175 8.952 6.92175 9 6.29775 9H3.10575V2.688ZM17.7636 18V0.599999H15.5796V18H17.7636ZM29.364 11.784V12.6C29.364 13.368 29.244 14.016 29.028 14.52C28.788 15.024 28.5 15.432 28.14 15.744C27.756 16.056 27.348 16.272 26.868 16.392C26.388 16.536 25.884 16.584 25.38 16.584C24.588 16.584 23.964 16.416 23.532 16.032C23.1 15.648 22.884 15.168 22.884 14.544C22.884 14.112 23.028 13.728 23.34 13.416C23.628 13.128 24.06 12.864 24.636 12.648C25.188 12.456 25.86 12.288 26.676 12.144C27.468 12 28.356 11.88 29.364 11.784ZM24.876 18.312C26.028 18.312 26.964 18.144 27.66 17.784C28.356 17.424 28.908 16.896 29.292 16.224C29.316 16.608 29.34 16.944 29.364 17.232C29.412 17.52 29.436 17.76 29.46 18H31.668C31.548 17.4 31.452 16.704 31.404 15.936C31.356 15.168 31.332 14.232 31.356 13.128L31.38 10.152C31.38 8.328 30.972 6.984 30.156 6.12C29.34 5.256 28.02 4.824 26.244 4.824C25.62 4.824 24.996 4.92 24.396 5.112C23.796 5.304 23.268 5.592 22.788 5.952C22.308 6.336 21.9 6.792 21.588 7.32C21.276 7.872 21.108 8.496 21.06 9.168H23.316C23.364 8.376 23.628 7.752 24.132 7.296C24.636 6.84 25.356 6.6 26.268 6.6C26.652 6.6 27.036 6.672 27.396 6.768C27.756 6.864 28.068 7.056 28.332 7.296C28.596 7.536 28.812 7.872 28.956 8.256C29.1 8.664 29.196 9.168 29.196 9.744V10.056C27.852 10.2 26.652 10.392 25.596 10.584C24.516 10.8 23.604 11.064 22.836 11.4C22.068 11.736 21.492 12.168 21.084 12.672C20.652 13.2 20.46 13.824 20.46 14.592C20.46 15.192 20.556 15.72 20.796 16.176C21.036 16.656 21.348 17.04 21.756 17.352C22.164 17.664 22.644 17.904 23.172 18.072C23.7 18.24 24.276 18.312 24.876 18.312ZM43.9731 5.088H41.6931L38.5011 15.048L35.2131 5.088H32.7891L37.4451 18L37.3491 18.264C37.2051 18.792 37.0371 19.176 36.8691 19.464C36.7011 19.752 36.5091 19.944 36.3171 20.088C36.1011 20.232 35.8611 20.304 35.5731 20.352C35.2851 20.376 34.9731 20.4 34.6131 20.4H33.7251V22.224H34.8531C35.5731 22.224 36.1731 22.152 36.6531 22.032C37.1331 21.912 37.5171 21.72 37.8291 21.432C38.1651 21.144 38.4291 20.784 38.6451 20.328C38.8851 19.848 39.1011 19.272 39.3411 18.576L43.9731 5.088ZM57.1761 5.088L54.6081 14.64L52.1361 5.088H49.7841L53.5041 18H55.4961L58.2561 7.608L61.1121 18H63.1041L66.8241 5.088H64.4721L62.0001 14.64L59.4321 5.088H57.1761ZM70.8495 5.088H68.6655V18H70.8495V5.088ZM70.8495 0.599999H68.6655V3.24H70.8495V0.599999ZM74.9379 1.848V5.088H72.8979V6.84H74.9379V14.76C74.9379 15.432 74.9619 15.984 75.0579 16.416C75.1539 16.848 75.2979 17.16 75.5379 17.4C75.7539 17.64 76.0659 17.784 76.4499 17.88C76.8339 17.976 77.3379 18.024 77.9619 18.024H79.5459V16.2H78.4419C78.1299 16.2 77.8899 16.176 77.7219 16.128C77.5299 16.08 77.4099 15.984 77.3139 15.864C77.2179 15.72 77.1699 15.552 77.1459 15.336C77.1219 15.12 77.1219 14.856 77.1219 14.52V6.864H79.5699V5.112H77.1219V1.872L74.9379 1.848ZM84.537 7.032V0.599999H82.353V18H84.537V10.992C84.537 9.6 84.825 8.568 85.449 7.848C86.049 7.128 86.889 6.768 87.945 6.768C88.569 6.768 89.049 6.888 89.433 7.08C89.817 7.272 90.105 7.56 90.297 7.896C90.489 8.232 90.609 8.64 90.681 9.072C90.729 9.528 90.777 10.008 90.777 10.488V18H92.961V9.84C92.961 9.12 92.865 8.448 92.721 7.824C92.577 7.224 92.337 6.696 92.001 6.264C91.665 5.832 91.209 5.496 90.681 5.256C90.153 5.016 89.481 4.896 88.713 4.896C87.609 4.896 86.745 5.088 86.073 5.52C85.401 5.928 84.897 6.432 84.537 7.032ZM107.275 4.872C106.315 4.872 105.451 5.04 104.683 5.376C103.915 5.712 103.243 6.192 102.715 6.792C102.187 7.392 101.755 8.088 101.467 8.904C101.179 9.72 101.035 10.608 101.035 11.568C101.035 12.576 101.155 13.488 101.443 14.304C101.731 15.12 102.115 15.84 102.643 16.416C103.171 17.016 103.795 17.472 104.539 17.808C105.283 18.144 106.123 18.312 107.059 18.312C107.803 18.312 108.499 18.192 109.171 17.952C109.819 17.712 110.395 17.4 110.899 16.968C111.403 16.56 111.811 16.08 112.147 15.528C112.483 15 112.699 14.424 112.819 13.8H110.563C110.467 14.136 110.347 14.472 110.155 14.784C109.963 15.096 109.699 15.36 109.411 15.6C109.123 15.84 108.763 16.032 108.379 16.176C107.995 16.32 107.563 16.392 107.131 16.392C106.651 16.392 106.171 16.296 105.739 16.104C105.283 15.912 104.875 15.6 104.539 15.192C104.203 14.808 103.915 14.304 103.723 13.68C103.507 13.08 103.411 12.36 103.411 11.544C103.411 10.728 103.507 10.032 103.723 9.432C103.915 8.856 104.203 8.352 104.539 7.968C104.875 7.584 105.283 7.272 105.739 7.08C106.171 6.888 106.651 6.792 107.131 6.792C107.971 6.792 108.691 7.056 109.315 7.536C109.915 8.016 110.299 8.64 110.467 9.408H112.675C112.579 8.88 112.411 8.328 112.147 7.776C111.859 7.248 111.499 6.744 111.043 6.312C110.563 5.88 110.011 5.544 109.387 5.28C108.763 5.016 108.043 4.872 107.275 4.872ZM116.888 11.592C116.888 10.728 116.984 9.984 117.2 9.36C117.416 8.76 117.704 8.256 118.064 7.872C118.424 7.488 118.832 7.224 119.312 7.056C119.768 6.888 120.248 6.792 120.752 6.792C121.232 6.792 121.712 6.888 122.192 7.056C122.648 7.248 123.056 7.512 123.416 7.896C123.776 8.28 124.064 8.784 124.28 9.384C124.496 10.008 124.616 10.728 124.616 11.592C124.616 12.432 124.496 13.152 124.28 13.752C124.064 14.352 123.776 14.856 123.416 15.24C123.056 15.624 122.648 15.912 122.192 16.104C121.712 16.296 121.232 16.392 120.752 16.392C120.248 16.392 119.768 16.32 119.312 16.128C118.832 15.96 118.424 15.672 118.064 15.288C117.704 14.904 117.416 14.424 117.2 13.8C116.984 13.2 116.888 12.456 116.888 11.592ZM120.752 4.872C119.984 4.872 119.24 5.016 118.52 5.28C117.776 5.544 117.104 5.952 116.504 6.48C115.928 7.032 115.448 7.728 115.088 8.568C114.728 9.432 114.536 10.44 114.536 11.592C114.536 12.768 114.728 13.776 115.088 14.616C115.448 15.48 115.928 16.176 116.504 16.704C117.104 17.256 117.776 17.664 118.52 17.928C119.24 18.192 119.984 18.312 120.752 18.312C121.496 18.312 122.24 18.192 122.984 17.928C123.704 17.664 124.376 17.256 124.976 16.704C125.552 16.176 126.032 15.48 126.392 14.616C126.752 13.776 126.944 12.768 126.944 11.592C126.944 10.44 126.752 9.432 126.392 8.568C126.032 7.728 125.552 7.032 124.976 6.48C124.376 5.952 123.704 5.544 122.984 5.28C122.24 5.016 121.496 4.872 120.752 4.872ZM131.74 7.032V5.088H129.556V18H131.74V10.992C131.74 9.6 132.028 8.568 132.652 7.848C133.252 7.128 134.092 6.768 135.148 6.768C135.772 6.768 136.252 6.888 136.636 7.08C137.02 7.272 137.308 7.56 137.5 7.896C137.692 8.232 137.812 8.64 137.884 9.072C137.932 9.528 137.98 10.008 137.98 10.488V18H140.164V9.84C140.164 9.12 140.068 8.448 139.924 7.824C139.78 7.224 139.54 6.696 139.204 6.264C138.868 5.832 138.412 5.496 137.884 5.256C137.356 5.016 136.684 4.896 135.916 4.896C134.812 4.896 133.948 5.088 133.276 5.52C132.604 5.928 132.1 6.432 131.74 7.032ZM144.055 1.848V5.088H142.015V6.84H144.055V14.76C144.055 15.432 144.079 15.984 144.175 16.416C144.271 16.848 144.415 17.16 144.655 17.4C144.871 17.64 145.183 17.784 145.567 17.88C145.951 17.976 146.455 18.024 147.079 18.024H148.663V16.2H147.559C147.247 16.2 147.007 16.176 146.839 16.128C146.647 16.08 146.527 15.984 146.431 15.864C146.335 15.72 146.287 15.552 146.263 15.336C146.239 15.12 146.239 14.856 146.239 14.52V6.864H148.687V5.112H146.239V1.872L144.055 1.848ZM152.583 12.264H162.519C162.567 11.256 162.471 10.296 162.231 9.384C161.991 8.496 161.607 7.704 161.079 7.032C160.551 6.36 159.903 5.832 159.135 5.448C158.343 5.064 157.455 4.872 156.471 4.872C155.607 4.872 154.791 5.04 154.023 5.352C153.255 5.664 152.607 6.12 152.031 6.696C151.455 7.272 151.023 7.992 150.687 8.808C150.375 9.624 150.207 10.56 150.207 11.568C150.207 12.528 150.351 13.416 150.639 14.232C150.927 15.048 151.335 15.768 151.863 16.368C152.391 16.992 153.063 17.472 153.831 17.808C154.623 18.144 155.535 18.312 156.543 18.312C157.335 18.312 158.055 18.216 158.703 18C159.351 17.784 159.927 17.496 160.407 17.112C160.887 16.752 161.295 16.32 161.631 15.84C161.967 15.36 162.183 14.832 162.327 14.256H160.071C159.807 14.904 159.399 15.432 158.823 15.816C158.271 16.2 157.503 16.392 156.543 16.392C156.063 16.392 155.607 16.32 155.127 16.152C154.671 15.984 154.263 15.72 153.879 15.384C153.495 15.048 153.183 14.616 152.943 14.112C152.703 13.584 152.583 12.984 152.583 12.264ZM156.471 6.768C157.047 6.768 157.575 6.864 158.031 7.08C158.487 7.272 158.871 7.56 159.183 7.896C159.519 8.232 159.759 8.64 159.927 9.072C160.095 9.504 160.191 9.96 160.191 10.416H152.583C152.631 9.768 152.775 9.216 153.015 8.76C153.255 8.28 153.543 7.896 153.903 7.608C154.239 7.32 154.647 7.104 155.103 6.96C155.535 6.816 155.991 6.768 156.471 6.768ZM170.519 11.256L174.911 5.088H172.463L169.295 9.528L166.151 5.088H163.535L167.999 11.352L163.247 18H165.743L169.223 13.08L172.727 18H175.343L170.519 11.256ZM177.875 1.848V5.088H175.835V6.84H177.875V14.76C177.875 15.432 177.899 15.984 177.995 16.416C178.091 16.848 178.235 17.16 178.475 17.4C178.691 17.64 179.003 17.784 179.387 17.88C179.771 17.976 180.275 18.024 180.899 18.024H182.483V16.2H181.379C181.067 16.2 180.827 16.176 180.659 16.128C180.467 16.08 180.347 15.984 180.251 15.864C180.155 15.72 180.107 15.552 180.083 15.336C180.059 15.12 180.059 14.856 180.059 14.52V6.864H182.507V5.112H180.059V1.872L177.875 1.848ZM192.448 8.856H194.728C194.512 7.632 193.96 6.648 193.072 5.928C192.184 5.208 191.032 4.848 189.64 4.848C188.92 4.848 188.248 4.944 187.624 5.088C187 5.256 186.448 5.496 185.992 5.808C185.512 6.12 185.152 6.504 184.888 6.936C184.6 7.368 184.48 7.872 184.48 8.448C184.48 9.072 184.576 9.576 184.792 9.984C185.008 10.392 185.296 10.728 185.656 11.016C185.992 11.304 186.4 11.52 186.832 11.664C187.264 11.808 187.72 11.928 188.152 12.024L190.072 12.408C190.408 12.504 190.744 12.6 191.056 12.696C191.368 12.792 191.656 12.936 191.896 13.104C192.136 13.272 192.328 13.464 192.472 13.704C192.616 13.944 192.688 14.232 192.688 14.544C192.688 15.168 192.376 15.624 191.8 15.96C191.224 16.296 190.504 16.464 189.688 16.464C188.728 16.464 187.984 16.248 187.456 15.768C186.928 15.312 186.568 14.664 186.4 13.824H184.096C184.144 14.4 184.312 14.952 184.576 15.48C184.84 16.032 185.2 16.512 185.68 16.92C186.16 17.352 186.712 17.688 187.384 17.928C188.032 18.192 188.776 18.312 189.64 18.312C190.36 18.312 191.056 18.24 191.704 18.048C192.328 17.88 192.88 17.616 193.36 17.28C193.84 16.944 194.2 16.512 194.488 16.008C194.752 15.528 194.896 14.952 194.896 14.304C194.896 13.68 194.776 13.152 194.536 12.72C194.296 12.288 193.96 11.928 193.552 11.64C193.144 11.352 192.688 11.112 192.16 10.92C191.632 10.728 191.056 10.584 190.48 10.464L188.656 10.104C188.032 9.984 187.528 9.792 187.192 9.528C186.856 9.264 186.688 8.88 186.688 8.352C186.688 8.064 186.76 7.824 186.928 7.608C187.072 7.416 187.288 7.248 187.552 7.104C187.816 6.96 188.104 6.864 188.44 6.816C188.752 6.768 189.064 6.72 189.4 6.72C190.168 6.72 190.816 6.888 191.368 7.224C191.896 7.56 192.256 8.088 192.448 8.856ZM197.263 18H200.023V15.24H197.263V18ZM214.793 0.599999H209.345V18H211.793V11.112H214.793C215.849 11.112 216.809 11.04 217.697 10.896C218.585 10.752 219.353 10.488 220.001 10.104C220.625 9.72 221.129 9.192 221.489 8.52C221.825 7.848 222.017 6.96 222.017 5.88C222.017 4.8 221.825 3.912 221.489 3.24C221.129 2.568 220.625 2.016 220.001 1.632C219.353 1.248 218.585 0.983999 217.697 0.839999C216.809 0.696 215.849 0.599999 214.793 0.599999ZM211.793 2.688H214.985C215.609 2.688 216.209 2.712 216.761 2.784C217.313 2.832 217.793 2.976 218.201 3.216C218.609 3.432 218.921 3.744 219.161 4.176C219.401 4.608 219.521 5.16 219.521 5.88C219.521 6.6 219.401 7.152 219.161 7.56C218.921 7.968 218.609 8.28 218.201 8.496C217.793 8.712 217.313 8.856 216.761 8.904C216.209 8.952 215.609 9 214.985 9H211.793V2.688ZM226.451 18V0.599999H224.267V18H226.451ZM238.052 11.784V12.6C238.052 13.368 237.932 14.016 237.716 14.52C237.476 15.024 237.188 15.432 236.828 15.744C236.444 16.056 236.036 16.272 235.556 16.392C235.076 16.536 234.572 16.584 234.068 16.584C233.276 16.584 232.652 16.416 232.22 16.032C231.788 15.648 231.572 15.168 231.572 14.544C231.572 14.112 231.715 13.728 232.028 13.416C232.316 13.128 232.748 12.864 233.324 12.648C233.876 12.456 234.548 12.288 235.364 12.144C236.156 12 237.044 11.88 238.052 11.784ZM233.564 18.312C234.716 18.312 235.652 18.144 236.348 17.784C237.044 17.424 237.596 16.896 237.98 16.224C238.004 16.608 238.028 16.944 238.052 17.232C238.1 17.52 238.124 17.76 238.148 18H240.356C240.236 17.4 240.14 16.704 240.092 15.936C240.044 15.168 240.02 14.232 240.044 13.128L240.068 10.152C240.068 8.328 239.66 6.984 238.844 6.12C238.028 5.256 236.708 4.824 234.932 4.824C234.308 4.824 233.684 4.92 233.084 5.112C232.484 5.304 231.956 5.592 231.476 5.952C230.996 6.336 230.588 6.792 230.276 7.32C229.964 7.872 229.796 8.496 229.748 9.168H232.004C232.052 8.376 232.316 7.752 232.82 7.296C233.324 6.84 234.044 6.6 234.956 6.6C235.34 6.6 235.724 6.672 236.084 6.768C236.444 6.864 236.756 7.056 237.02 7.296C237.284 7.536 237.5 7.872 237.644 8.256C237.788 8.664 237.884 9.168 237.884 9.744V10.056C236.54 10.2 235.34 10.392 234.284 10.584C233.204 10.8 232.292 11.064 231.524 11.4C230.756 11.736 230.18 12.168 229.771 12.672C229.34 13.2 229.148 13.824 229.148 14.592C229.148 15.192 229.244 15.72 229.484 16.176C229.724 16.656 230.036 17.04 230.444 17.352C230.852 17.664 231.332 17.904 231.86 18.072C232.388 18.24 232.964 18.312 233.564 18.312ZM252.661 5.088H250.381L247.189 15.048L243.901 5.088H241.477L246.133 18L246.037 18.264C245.893 18.792 245.725 19.176 245.557 19.464C245.389 19.752 245.197 19.944 245.005 20.088C244.789 20.232 244.549 20.304 244.261 20.352C243.973 20.376 243.661 20.4 243.301 20.4H242.413V22.224H243.541C244.261 22.224 244.861 22.152 245.341 22.032C245.821 21.912 246.205 21.72 246.517 21.432C246.853 21.144 247.117 20.784 247.333 20.328C247.573 19.848 247.789 19.272 248.029 18.576L252.661 5.088ZM265.864 5.088L263.296 14.64L260.824 5.088H258.472L262.192 18H264.184L266.944 7.608L269.8 18H271.792L275.512 5.088H273.16L270.688 14.64L268.12 5.088H265.864ZM279.537 5.088H277.353V18H279.537V5.088ZM279.537 0.599999H277.353V3.24H279.537V0.599999ZM283.625 1.848V5.088H281.585V6.84H283.625V14.76C283.625 15.432 283.649 15.984 283.745 16.416C283.841 16.848 283.985 17.16 284.225 17.4C284.441 17.64 284.753 17.784 285.137 17.88C285.521 17.976 286.025 18.024 286.649 18.024H288.233V16.2H287.129C286.817 16.2 286.577 16.176 286.409 16.128C286.217 16.08 286.097 15.984 286.001 15.864C285.905 15.72 285.857 15.552 285.833 15.336C285.809 15.12 285.809 14.856 285.809 14.52V6.864H288.257V5.112H285.809V1.872L283.625 1.848ZM293.225 7.032V0.599999H291.041V18H293.225V10.992C293.225 9.6 293.513 8.568 294.137 7.848C294.737 7.128 295.577 6.768 296.633 6.768C297.257 6.768 297.737 6.888 298.121 7.08C298.505 7.272 298.793 7.56 298.985 7.896C299.177 8.232 299.297 8.64 299.369 9.072C299.417 9.528 299.465 10.008 299.465 10.488V18H301.648V9.84C301.648 9.12 301.553 8.448 301.409 7.824C301.265 7.224 301.025 6.696 300.689 6.264C300.353 5.832 299.897 5.496 299.369 5.256C298.841 5.016 298.169 4.896 297.401 4.896C296.297 4.896 295.433 5.088 294.761 5.52C294.089 5.928 293.585 6.432 293.225 7.032ZM319.467 0.599999V7.128C319.059 6.456 318.507 5.904 317.811 5.496C317.139 5.088 316.275 4.872 315.219 4.872C314.499 4.872 313.779 5.04 313.107 5.328C312.435 5.64 311.859 6.072 311.355 6.648C310.851 7.224 310.443 7.944 310.155 8.76C309.867 9.6 309.699 10.536 309.699 11.592C309.699 12.672 309.867 13.632 310.155 14.472C310.443 15.288 310.851 16.008 311.355 16.584C311.859 17.16 312.435 17.592 313.107 17.88C313.779 18.168 314.499 18.336 315.219 18.336C316.275 18.336 317.139 18.12 317.811 17.712C318.507 17.304 319.059 16.752 319.467 16.08V18.024H321.651V0.623999L319.467 0.599999ZM319.563 11.616C319.563 12.456 319.443 13.176 319.251 13.8C319.035 14.424 318.747 14.928 318.387 15.312C318.051 15.696 317.643 15.984 317.187 16.176C316.731 16.368 316.251 16.464 315.771 16.464C314.667 16.464 313.755 16.032 313.083 15.192C312.411 14.352 312.075 13.152 312.075 11.616C312.075 10.056 312.411 8.856 313.083 8.016C313.755 7.176 314.667 6.768 315.771 6.768C316.251 6.768 316.731 6.84 317.187 7.032C317.643 7.224 318.051 7.512 318.387 7.896C318.747 8.28 319.035 8.784 319.251 9.408C319.443 10.032 319.563 10.752 319.563 11.616ZM327.279 5.088H325.095V18H327.279V5.088ZM327.279 0.599999H325.095V3.24H327.279V0.599999ZM337.176 7.368V5.04C337.032 5.04 336.936 5.016 336.84 5.016H336.528C335.664 5.064 334.92 5.28 334.296 5.664C333.672 6.048 333.192 6.624 332.88 7.344V5.088H330.744V18H332.928V11.232C332.928 9.816 333.168 8.808 333.672 8.184C334.176 7.584 334.944 7.272 335.952 7.272C336.12 7.272 336.312 7.296 336.528 7.296C336.72 7.32 336.936 7.344 337.176 7.368ZM340.505 12.264H350.441C350.489 11.256 350.393 10.296 350.153 9.384C349.913 8.496 349.529 7.704 349.001 7.032C348.473 6.36 347.825 5.832 347.057 5.448C346.265 5.064 345.377 4.872 344.393 4.872C343.529 4.872 342.713 5.04 341.945 5.352C341.177 5.664 340.529 6.12 339.953 6.696C339.377 7.272 338.945 7.992 338.609 8.808C338.297 9.624 338.129 10.56 338.129 11.568C338.129 12.528 338.273 13.416 338.561 14.232C338.849 15.048 339.257 15.768 339.785 16.368C340.312 16.992 340.985 17.472 341.753 17.808C342.545 18.144 343.457 18.312 344.465 18.312C345.257 18.312 345.977 18.216 346.625 18C347.273 17.784 347.849 17.496 348.329 17.112C348.809 16.752 349.217 16.32 349.553 15.84C349.889 15.36 350.105 14.832 350.249 14.256H347.993C347.729 14.904 347.321 15.432 346.745 15.816C346.193 16.2 345.425 16.392 344.465 16.392C343.985 16.392 343.529 16.32 343.049 16.152C342.593 15.984 342.185 15.72 341.801 15.384C341.417 15.048 341.105 14.616 340.865 14.112C340.625 13.584 340.505 12.984 340.505 12.264ZM344.393 6.768C344.969 6.768 345.497 6.864 345.953 7.08C346.409 7.272 346.793 7.56 347.105 7.896C347.441 8.232 347.681 8.64 347.849 9.072C348.017 9.504 348.113 9.96 348.113 10.416H340.505C340.553 9.768 340.697 9.216 340.937 8.76C341.177 8.28 341.465 7.896 341.825 7.608C342.161 7.32 342.569 7.104 343.025 6.96C343.457 6.816 343.913 6.768 344.393 6.768ZM358.455 4.872C357.495 4.872 356.631 5.04 355.863 5.376C355.095 5.712 354.423 6.192 353.895 6.792C353.367 7.392 352.935 8.088 352.647 8.904C352.359 9.72 352.215 10.608 352.215 11.568C352.215 12.576 352.335 13.488 352.623 14.304C352.911 15.12 353.295 15.84 353.823 16.416C354.351 17.016 354.975 17.472 355.719 17.808C356.463 18.144 357.303 18.312 358.239 18.312C358.983 18.312 359.679 18.192 360.351 17.952C360.999 17.712 361.575 17.4 362.079 16.968C362.583 16.56 362.991 16.08 363.327 15.528C363.663 15 363.879 14.424 363.999 13.8H361.743C361.647 14.136 361.527 14.472 361.335 14.784C361.143 15.096 360.879 15.36 360.591 15.6C360.303 15.84 359.943 16.032 359.559 16.176C359.175 16.32 358.743 16.392 358.311 16.392C357.831 16.392 357.351 16.296 356.919 16.104C356.463 15.912 356.055 15.6 355.719 15.192C355.383 14.808 355.095 14.304 354.903 13.68C354.687 13.08 354.591 12.36 354.591 11.544C354.591 10.728 354.687 10.032 354.903 9.432C355.095 8.856 355.383 8.352 355.719 7.968C356.055 7.584 356.463 7.272 356.919 7.08C357.351 6.888 357.831 6.792 358.311 6.792C359.151 6.792 359.871 7.056 360.495 7.536C361.095 8.016 361.479 8.64 361.647 9.408H363.855C363.759 8.88 363.591 8.328 363.327 7.776C363.039 7.248 362.679 6.744 362.223 6.312C361.743 5.88 361.191 5.544 360.567 5.28C359.943 5.016 359.223 4.872 358.455 4.872ZM367.086 1.848V5.088H365.046V6.84H367.086V14.76C367.086 15.432 367.11 15.984 367.206 16.416C367.302 16.848 367.446 17.16 367.686 17.4C367.902 17.64 368.214 17.784 368.598 17.88C368.982 17.976 369.486 18.024 370.11 18.024H371.694V16.2H370.59C370.278 16.2 370.038 16.176 369.87 16.128C369.678 16.08 369.558 15.984 369.462 15.864C369.366 15.72 369.318 15.552 369.294 15.336C369.27 15.12 369.27 14.856 369.27 14.52V6.864H371.718V5.112H369.27V1.872L367.086 1.848ZM376.685 5.088H374.501V18H376.685V5.088ZM376.685 0.599999H374.501V3.24H376.685V0.599999ZM381.638 11.592C381.638 10.728 381.734 9.984 381.95 9.36C382.166 8.76 382.454 8.256 382.814 7.872C383.174 7.488 383.582 7.224 384.062 7.056C384.518 6.888 384.998 6.792 385.502 6.792C385.982 6.792 386.462 6.888 386.942 7.056C387.398 7.248 387.806 7.512 388.166 7.896C388.526 8.28 388.814 8.784 389.03 9.384C389.246 10.008 389.366 10.728 389.366 11.592C389.366 12.432 389.246 13.152 389.03 13.752C388.814 14.352 388.526 14.856 388.166 15.24C387.806 15.624 387.398 15.912 386.942 16.104C386.462 16.296 385.982 16.392 385.502 16.392C384.998 16.392 384.518 16.32 384.062 16.128C383.582 15.96 383.174 15.672 382.814 15.288C382.454 14.904 382.166 14.424 381.95 13.8C381.734 13.2 381.638 12.456 381.638 11.592ZM385.502 4.872C384.734 4.872 383.99 5.016 383.27 5.28C382.526 5.544 381.854 5.952 381.254 6.48C380.678 7.032 380.198 7.728 379.838 8.568C379.478 9.432 379.286 10.44 379.286 11.592C379.286 12.768 379.478 13.776 379.838 14.616C380.198 15.48 380.678 16.176 381.254 16.704C381.854 17.256 382.526 17.664 383.27 17.928C383.99 18.192 384.734 18.312 385.502 18.312C386.246 18.312 386.99 18.192 387.734 17.928C388.454 17.664 389.126 17.256 389.726 16.704C390.302 16.176 390.782 15.48 391.142 14.616C391.502 13.776 391.694 12.768 391.694 11.592C391.694 10.44 391.502 9.432 391.142 8.568C390.782 7.728 390.302 7.032 389.726 6.48C389.126 5.952 388.454 5.544 387.734 5.28C386.99 5.016 386.246 4.872 385.502 4.872ZM396.49 7.032V5.088H394.306V18H396.49V10.992C396.49 9.6 396.778 8.568 397.402 7.848C398.002 7.128 398.842 6.768 399.898 6.768C400.522 6.768 401.002 6.888 401.386 7.08C401.77 7.272 402.058 7.56 402.25 7.896C402.442 8.232 402.562 8.64 402.634 9.072C402.682 9.528 402.73 10.008 402.73 10.488V18H404.914V9.84C404.914 9.12 404.818 8.448 404.674 7.824C404.53 7.224 404.29 6.696 403.954 6.264C403.618 5.832 403.162 5.496 402.634 5.256C402.106 5.016 401.434 4.896 400.666 4.896C399.562 4.896 398.698 5.088 398.026 5.52C397.354 5.928 396.85 6.432 396.49 7.032ZM415.573 8.856H417.853C417.637 7.632 417.085 6.648 416.197 5.928C415.309 5.208 414.157 4.848 412.765 4.848C412.045 4.848 411.373 4.944 410.749 5.088C410.125 5.256 409.573 5.496 409.117 5.808C408.637 6.12 408.277 6.504 408.013 6.936C407.725 7.368 407.605 7.872 407.605 8.448C407.605 9.072 407.701 9.576 407.917 9.984C408.133 10.392 408.421 10.728 408.781 11.016C409.117 11.304 409.525 11.52 409.957 11.664C410.389 11.808 410.845 11.928 411.277 12.024L413.197 12.408C413.533 12.504 413.869 12.6 414.181 12.696C414.493 12.792 414.781 12.936 415.021 13.104C415.261 13.272 415.453 13.464 415.597 13.704C415.741 13.944 415.813 14.232 415.813 14.544C415.813 15.168 415.501 15.624 414.925 15.96C414.349 16.296 413.629 16.464 412.813 16.464C411.853 16.464 411.109 16.248 410.581 15.768C410.053 15.312 409.693 14.664 409.525 13.824H407.221C407.269 14.4 407.437 14.952 407.701 15.48C407.965 16.032 408.325 16.512 408.805 16.92C409.285 17.352 409.837 17.688 410.509 17.928C411.157 18.192 411.901 18.312 412.765 18.312C413.485 18.312 414.181 18.24 414.829 18.048C415.453 17.88 416.005 17.616 416.485 17.28C416.965 16.944 417.325 16.512 417.613 16.008C417.877 15.528 418.021 14.952 418.021 14.304C418.021 13.68 417.901 13.152 417.661 12.72C417.421 12.288 417.085 11.928 416.677 11.64C416.269 11.352 415.813 11.112 415.285 10.92C414.757 10.728 414.181 10.584 413.605 10.464L411.781 10.104C411.157 9.984 410.653 9.792 410.317 9.528C409.981 9.264 409.813 8.88 409.813 8.352C409.813 8.064 409.885 7.824 410.053 7.608C410.197 7.416 410.413 7.248 410.677 7.104C410.941 6.96 411.229 6.864 411.565 6.816C411.877 6.768 412.189 6.72 412.525 6.72C413.293 6.72 413.941 6.888 414.493 7.224C415.021 7.56 415.381 8.088 415.573 8.856ZM420.388 18H423.148V15.24H420.388V18ZM113.93 39.888V24.6H111.482V42H123.122V39.888H113.93ZM127.041 29.088H124.857V42H127.041V29.088ZM127.041 24.6H124.857V27.24H127.041V24.6ZM132.689 31.032V29.088H130.505V42H132.689V34.992C132.689 33.6 132.977 32.568 133.601 31.848C134.201 31.128 135.041 30.768 136.097 30.768C136.721 30.768 137.201 30.888 137.585 31.08C137.969 31.272 138.257 31.56 138.449 31.896C138.641 32.232 138.761 32.64 138.833 33.072C138.881 33.528 138.929 34.008 138.929 34.488V42H141.113V33.84C141.113 33.12 141.017 32.448 140.873 31.824C140.729 31.224 140.489 30.696 140.153 30.264C139.817 29.832 139.361 29.496 138.833 29.256C138.305 29.016 137.633 28.896 136.865 28.896C135.761 28.896 134.897 29.088 134.225 29.52C133.553 29.928 133.049 30.432 132.689 31.032ZM146.564 24.6H144.38V42H146.564V37.68L148.076 36.048L152.468 42H155.132L149.54 34.44L154.46 29.088H151.772L146.564 34.896V24.6ZM162.817 25.848V29.088H160.777V30.84H162.817V38.76C162.817 39.432 162.841 39.984 162.937 40.416C163.033 40.848 163.177 41.16 163.417 41.4C163.633 41.64 163.945 41.784 164.329 41.88C164.713 41.976 165.217 42.024 165.841 42.024H167.425V40.2H166.321C166.009 40.2 165.769 40.176 165.601 40.128C165.409 40.08 165.289 39.984 165.193 39.864C165.097 39.72 165.049 39.552 165.025 39.336C165.001 39.12 165.001 38.856 165.001 38.52V30.864H167.449V29.112H165.001V25.872L162.817 25.848ZM172.416 31.032V24.6H170.232V42H172.416V34.992C172.416 33.6 172.704 32.568 173.328 31.848C173.928 31.128 174.768 30.768 175.824 30.768C176.448 30.768 176.928 30.888 177.312 31.08C177.696 31.272 177.984 31.56 178.176 31.896C178.368 32.232 178.488 32.64 178.56 33.072C178.608 33.528 178.656 34.008 178.656 34.488V42H180.84V33.84C180.84 33.12 180.744 32.448 180.6 31.824C180.456 31.224 180.216 30.696 179.88 30.264C179.544 29.832 179.088 29.496 178.56 29.256C178.032 29.016 177.36 28.896 176.592 28.896C175.488 28.896 174.624 29.088 173.952 29.52C173.28 29.928 172.776 30.432 172.416 31.032ZM185.571 36.264H195.507C195.555 35.256 195.459 34.296 195.219 33.384C194.979 32.496 194.595 31.704 194.067 31.032C193.539 30.36 192.891 29.832 192.123 29.448C191.331 29.064 190.443 28.872 189.459 28.872C188.595 28.872 187.779 29.04 187.011 29.352C186.243 29.664 185.595 30.12 185.019 30.696C184.443 31.272 184.011 31.992 183.675 32.808C183.363 33.624 183.195 34.56 183.195 35.568C183.195 36.528 183.339 37.416 183.627 38.232C183.915 39.048 184.323 39.768 184.851 40.368C185.379 40.992 186.051 41.472 186.819 41.808C187.611 42.144 188.523 42.312 189.531 42.312C190.323 42.312 191.043 42.216 191.691 42C192.339 41.784 192.915 41.496 193.395 41.112C193.875 40.752 194.283 40.32 194.619 39.84C194.955 39.36 195.171 38.832 195.315 38.256H193.059C192.795 38.904 192.387 39.432 191.811 39.816C191.259 40.2 190.491 40.392 189.531 40.392C189.051 40.392 188.595 40.32 188.115 40.152C187.659 39.984 187.251 39.72 186.867 39.384C186.483 39.048 186.171 38.616 185.931 38.112C185.691 37.584 185.571 36.984 185.571 36.264ZM189.459 30.768C190.035 30.768 190.563 30.864 191.019 31.08C191.475 31.272 191.859 31.56 192.171 31.896C192.507 32.232 192.747 32.64 192.915 33.072C193.083 33.504 193.179 33.96 193.179 34.416H185.571C185.619 33.768 185.763 33.216 186.003 32.76C186.243 32.28 186.531 31.896 186.891 31.608C187.227 31.32 187.635 31.104 188.091 30.96C188.523 30.816 188.979 30.768 189.459 30.768ZM211.74 40.152V42H213.924V29.088H211.74V36.192C211.74 37.584 211.452 38.64 210.876 39.36C210.3 40.08 209.484 40.416 208.452 40.416C207.852 40.416 207.372 40.32 207.012 40.128C206.652 39.936 206.388 39.648 206.196 39.312C206.004 38.976 205.86 38.568 205.812 38.136C205.764 37.68 205.74 37.2 205.74 36.696V29.088H203.556V37.344C203.556 38.088 203.628 38.76 203.772 39.36C203.916 39.984 204.156 40.512 204.492 40.944C204.828 41.376 205.236 41.712 205.764 41.952C206.292 42.192 206.916 42.312 207.684 42.312C208.74 42.312 209.604 42.12 210.228 41.688C210.852 41.28 211.356 40.776 211.74 40.152ZM219.572 31.032V29.088H217.388V42H219.572V34.992C219.572 33.6 219.86 32.568 220.484 31.848C221.084 31.128 221.924 30.768 222.98 30.768C223.604 30.768 224.084 30.888 224.468 31.08C224.852 31.272 225.14 31.56 225.332 31.896C225.524 32.232 225.644 32.64 225.716 33.072C225.764 33.528 225.812 34.008 225.812 34.488V42H227.996V33.84C227.996 33.12 227.9 32.448 227.756 31.824C227.612 31.224 227.372 30.696 227.036 30.264C226.7 29.832 226.244 29.496 225.716 29.256C225.188 29.016 224.516 28.896 223.748 28.896C222.644 28.896 221.78 29.088 221.108 29.52C220.436 29.928 219.932 30.432 219.572 31.032ZM233.447 42V24.6H231.263V42H233.447ZM239.096 29.088H236.912V42H239.096V29.088ZM239.096 24.6H236.912V27.24H239.096V24.6ZM244.744 31.032V29.088H242.56V42H244.744V34.992C244.744 33.6 245.032 32.568 245.656 31.848C246.256 31.128 247.096 30.768 248.152 30.768C248.776 30.768 249.256 30.888 249.64 31.08C250.024 31.272 250.312 31.56 250.504 31.896C250.696 32.232 250.816 32.64 250.888 33.072C250.936 33.528 250.984 34.008 250.984 34.488V42H253.168V33.84C253.168 33.12 253.072 32.448 252.928 31.824C252.784 31.224 252.544 30.696 252.208 30.264C251.872 29.832 251.416 29.496 250.888 29.256C250.36 29.016 249.688 28.896 248.92 28.896C247.816 28.896 246.952 29.088 246.28 29.52C245.608 29.928 245.104 30.432 244.744 31.032ZM258.619 24.6H256.435V42H258.619V37.68L260.131 36.048L264.523 42H267.187L261.595 34.44L266.515 29.088H263.827L258.619 34.896V24.6ZM276.501 35.784V36.6C276.501 37.368 276.381 38.016 276.165 38.52C275.925 39.024 275.637 39.432 275.277 39.744C274.893 40.056 274.485 40.272 274.005 40.392C273.525 40.536 273.021 40.584 272.517 40.584C271.725 40.584 271.101 40.416 270.669 40.032C270.237 39.648 270.021 39.168 270.021 38.544C270.021 38.112 270.165 37.728 270.477 37.416C270.765 37.128 271.197 36.864 271.773 36.648C272.325 36.456 272.997 36.288 273.813 36.144C274.605 36 275.493 35.88 276.501 35.784ZM272.013 42.312C273.165 42.312 274.101 42.144 274.797 41.784C275.493 41.424 276.045 40.896 276.429 40.224C276.453 40.608 276.477 40.944 276.501 41.232C276.549 41.52 276.573 41.76 276.597 42H278.805C278.685 41.4 278.589 40.704 278.541 39.936C278.493 39.168 278.469 38.232 278.493 37.128L278.517 34.152C278.517 32.328 278.109 30.984 277.293 30.12C276.477 29.256 275.157 28.824 273.381 28.824C272.757 28.824 272.133 28.92 271.533 29.112C270.933 29.304 270.405 29.592 269.925 29.952C269.445 30.336 269.037 30.792 268.725 31.32C268.413 31.872 268.245 32.496 268.197 33.168H270.453C270.501 32.376 270.765 31.752 271.269 31.296C271.773 30.84 272.493 30.6 273.405 30.6C273.789 30.6 274.173 30.672 274.533 30.768C274.893 30.864 275.205 31.056 275.469 31.296C275.733 31.536 275.949 31.872 276.093 32.256C276.237 32.664 276.333 33.168 276.333 33.744V34.056C274.989 34.2 273.789 34.392 272.733 34.584C271.653 34.8 270.741 35.064 269.973 35.4C269.205 35.736 268.629 36.168 268.221 36.672C267.789 37.2 267.597 37.824 267.597 38.592C267.597 39.192 267.693 39.72 267.933 40.176C268.173 40.656 268.485 41.04 268.893 41.352C269.301 41.664 269.781 41.904 270.309 42.072C270.837 42.24 271.413 42.312 272.013 42.312ZM283.859 35.592C283.859 34.752 283.955 34.032 284.171 33.408C284.363 32.784 284.651 32.28 285.011 31.896C285.347 31.512 285.755 31.224 286.211 31.032C286.667 30.84 287.147 30.744 287.627 30.744C288.731 30.744 289.643 31.176 290.315 32.016C290.987 32.856 291.323 34.056 291.323 35.592C291.323 37.152 290.987 38.352 290.315 39.192C289.643 40.032 288.731 40.44 287.627 40.44C287.147 40.44 286.667 40.368 286.211 40.176C285.755 39.984 285.347 39.696 285.011 39.312C284.651 38.928 284.363 38.424 284.171 37.8C283.955 37.176 283.859 36.456 283.859 35.592ZM283.955 24.6H281.771V42H283.955V40.056C284.339 40.752 284.891 41.304 285.587 41.712C286.259 42.12 287.123 42.312 288.179 42.312C288.899 42.312 289.619 42.168 290.291 41.88C290.963 41.592 291.539 41.136 292.043 40.56C292.547 39.984 292.955 39.288 293.243 38.448C293.531 37.632 293.699 36.672 293.699 35.592C293.699 34.536 293.531 33.6 293.243 32.76C292.955 31.944 292.547 31.224 292.043 30.648C291.539 30.072 290.963 29.64 290.291 29.328C289.619 29.04 288.899 28.872 288.179 28.872C287.123 28.872 286.259 29.088 285.587 29.496C284.891 29.904 284.339 30.456 283.955 31.128V24.6ZM298.369 42V24.6H296.185V42H298.369ZM303.297 36.264H313.233C313.281 35.256 313.185 34.296 312.945 33.384C312.705 32.496 312.321 31.704 311.793 31.032C311.265 30.36 310.617 29.832 309.849 29.448C309.057 29.064 308.169 28.872 307.185 28.872C306.321 28.872 305.505 29.04 304.737 29.352C303.969 29.664 303.321 30.12 302.745 30.696C302.169 31.272 301.737 31.992 301.401 32.808C301.089 33.624 300.921 34.56 300.921 35.568C300.921 36.528 301.065 37.416 301.353 38.232C301.641 39.048 302.049 39.768 302.577 40.368C303.105 40.992 303.777 41.472 304.545 41.808C305.337 42.144 306.249 42.312 307.257 42.312C308.049 42.312 308.769 42.216 309.417 42C310.065 41.784 310.641 41.496 311.121 41.112C311.601 40.752 312.009 40.32 312.345 39.84C312.681 39.36 312.897 38.832 313.041 38.256H310.785C310.521 38.904 310.113 39.432 309.537 39.816C308.985 40.2 308.217 40.392 307.257 40.392C306.777 40.392 306.321 40.32 305.841 40.152C305.385 39.984 304.977 39.72 304.593 39.384C304.209 39.048 303.897 38.616 303.657 38.112C303.417 37.584 303.297 36.984 303.297 36.264ZM307.185 30.768C307.761 30.768 308.289 30.864 308.745 31.08C309.201 31.272 309.585 31.56 309.897 31.896C310.233 32.232 310.473 32.64 310.641 33.072C310.809 33.504 310.905 33.96 310.905 34.416H303.297C303.345 33.768 303.489 33.216 303.729 32.76C303.969 32.28 304.257 31.896 304.617 31.608C304.953 31.32 305.361 31.104 305.817 30.96C306.249 30.816 306.705 30.768 307.185 30.768ZM315.259 42H318.019V39.24H315.259V42Z" fill="url(#paint0_linear_472_6884)"/>
<defs>
<linearGradient id="paint0_linear_472_6884" x1="214.5" y1="-2" x2="214.5" y2="91" gradientUnits="userSpaceOnUse">
<stop/>
<stop offset="1" stop-color="#C4C4C4" stop-opacity="0"/>
</linearGradient>
</defs>
</svg>
