<svg width="387" height="47" viewBox="0 0 387 47" fill="none" xmlns="http://www.w3.org/2000/svg">
<path d="M91.7229 0.599999H86.2749V18H88.7229V11.112H91.7229C92.7789 11.112 93.7389 11.04 94.6269 10.896C95.5149 10.752 96.2829 10.488 96.9309 10.104C97.5549 9.72 98.0589 9.192 98.4189 8.52C98.7549 7.848 98.9469 6.96 98.9469 5.88C98.9469 4.8 98.7549 3.912 98.4189 3.24C98.0589 2.568 97.5549 2.016 96.9309 1.632C96.2829 1.248 95.5149 0.983999 94.6269 0.839999C93.7389 0.696 92.7789 0.599999 91.7229 0.599999ZM88.7229 2.688H91.9149C92.5389 2.688 93.1389 2.712 93.6909 2.784C94.2429 2.832 94.7229 2.976 95.1309 3.216C95.5389 3.432 95.8509 3.744 96.0909 4.176C96.3309 4.608 96.4509 5.16 96.4509 5.88C96.4509 6.6 96.3309 7.152 96.0909 7.56C95.8509 7.968 95.5389 8.28 95.1309 8.496C94.7229 8.712 94.2429 8.856 93.6909 8.904C93.1389 8.952 92.5389 9 91.9149 9H88.7229V2.688ZM103.381 18V0.599999H101.197V18H103.381ZM114.981 11.784V12.6C114.981 13.368 114.861 14.016 114.645 14.52C114.405 15.024 114.117 15.432 113.757 15.744C113.373 16.056 112.965 16.272 112.485 16.392C112.005 16.536 111.501 16.584 110.997 16.584C110.205 16.584 109.581 16.416 109.149 16.032C108.717 15.648 108.501 15.168 108.501 14.544C108.501 14.112 108.645 13.728 108.957 13.416C109.245 13.128 109.677 12.864 110.253 12.648C110.805 12.456 111.477 12.288 112.293 12.144C113.085 12 113.973 11.88 114.981 11.784ZM110.493 18.312C111.645 18.312 112.581 18.144 113.277 17.784C113.973 17.424 114.525 16.896 114.909 16.224C114.933 16.608 114.957 16.944 114.981 17.232C115.029 17.52 115.053 17.76 115.077 18H117.285C117.165 17.4 117.069 16.704 117.021 15.936C116.973 15.168 116.949 14.232 116.973 13.128L116.997 10.152C116.997 8.328 116.589 6.984 115.773 6.12C114.957 5.256 113.637 4.824 111.861 4.824C111.237 4.824 110.613 4.92 110.013 5.112C109.413 5.304 108.885 5.592 108.405 5.952C107.925 6.336 107.517 6.792 107.205 7.32C106.893 7.872 106.725 8.496 106.677 9.168H108.933C108.981 8.376 109.245 7.752 109.749 7.296C110.253 6.84 110.973 6.6 111.885 6.6C112.269 6.6 112.653 6.672 113.013 6.768C113.373 6.864 113.685 7.056 113.949 7.296C114.213 7.536 114.429 7.872 114.573 8.256C114.717 8.664 114.813 9.168 114.813 9.744V10.056C113.469 10.2 112.269 10.392 111.213 10.584C110.133 10.8 109.221 11.064 108.453 11.4C107.685 11.736 107.109 12.168 106.701 12.672C106.269 13.2 106.077 13.824 106.077 14.592C106.077 15.192 106.173 15.72 106.413 16.176C106.653 16.656 106.965 17.04 107.373 17.352C107.781 17.664 108.261 17.904 108.789 18.072C109.317 18.24 109.893 18.312 110.493 18.312ZM129.59 5.088H127.31L124.118 15.048L120.83 5.088H118.406L123.062 18L122.966 18.264C122.822 18.792 122.654 19.176 122.486 19.464C122.318 19.752 122.126 19.944 121.934 20.088C121.718 20.232 121.478 20.304 121.19 20.352C120.902 20.376 120.59 20.4 120.23 20.4H119.342V22.224H120.47C121.19 22.224 121.79 22.152 122.27 22.032C122.75 21.912 123.134 21.72 123.446 21.432C123.782 21.144 124.046 20.784 124.262 20.328C124.502 19.848 124.718 19.272 124.958 18.576L129.59 5.088ZM142.793 5.088L140.225 14.64L137.753 5.088H135.401L139.121 18H141.113L143.873 7.608L146.729 18H148.721L152.441 5.088H150.089L147.617 14.64L145.049 5.088H142.793ZM156.467 5.088H154.283V18H156.467V5.088ZM156.467 0.599999H154.283V3.24H156.467V0.599999ZM160.555 1.848V5.088H158.515V6.84H160.555V14.76C160.555 15.432 160.579 15.984 160.675 16.416C160.771 16.848 160.915 17.16 161.155 17.4C161.371 17.64 161.683 17.784 162.067 17.88C162.451 17.976 162.955 18.024 163.579 18.024H165.163V16.2H164.059C163.747 16.2 163.507 16.176 163.339 16.128C163.147 16.08 163.027 15.984 162.931 15.864C162.835 15.72 162.787 15.552 162.763 15.336C162.739 15.12 162.739 14.856 162.739 14.52V6.864H165.187V5.112H162.739V1.872L160.555 1.848ZM170.154 7.032V0.599999H167.97V18H170.154V10.992C170.154 9.6 170.442 8.568 171.066 7.848C171.666 7.128 172.506 6.768 173.562 6.768C174.186 6.768 174.666 6.888 175.05 7.08C175.434 7.272 175.722 7.56 175.914 7.896C176.106 8.232 176.226 8.64 176.298 9.072C176.346 9.528 176.394 10.008 176.394 10.488V18H178.578V9.84C178.578 9.12 178.482 8.448 178.338 7.824C178.194 7.224 177.954 6.696 177.618 6.264C177.282 5.832 176.826 5.496 176.298 5.256C175.77 5.016 175.098 4.896 174.33 4.896C173.226 4.896 172.362 5.088 171.69 5.52C171.018 5.928 170.514 6.432 170.154 7.032ZM189.725 18V10.992C189.725 9.6 189.989 8.568 190.565 7.848C191.141 7.128 191.885 6.768 192.845 6.768C193.421 6.768 193.901 6.888 194.261 7.08C194.621 7.272 194.909 7.56 195.101 7.896C195.293 8.232 195.437 8.64 195.509 9.072C195.557 9.528 195.605 10.008 195.605 10.488V18H197.789V10.992C197.789 9.6 198.053 8.568 198.629 7.848C199.205 7.128 199.949 6.768 200.909 6.768C201.485 6.768 201.965 6.888 202.325 7.08C202.685 7.272 202.973 7.56 203.165 7.896C203.357 8.232 203.501 8.64 203.573 9.072C203.621 9.528 203.669 10.008 203.669 10.488V18H205.853V9.84C205.853 9.12 205.757 8.448 205.613 7.824C205.469 7.224 205.229 6.696 204.893 6.264C204.557 5.832 204.125 5.496 203.597 5.256C203.069 5.016 202.421 4.896 201.677 4.896C200.765 4.896 199.924 5.064 199.205 5.424C198.461 5.784 197.837 6.36 197.333 7.176C197.045 6.456 196.589 5.88 195.989 5.496C195.389 5.088 194.597 4.896 193.613 4.896C192.629 4.896 191.837 5.088 191.213 5.52C190.589 5.928 190.085 6.432 189.725 7.032V5.088H187.541V18H189.725ZM210.59 12.264H220.526C220.574 11.256 220.478 10.296 220.238 9.384C219.998 8.496 219.614 7.704 219.086 7.032C218.558 6.36 217.91 5.832 217.142 5.448C216.35 5.064 215.462 4.872 214.478 4.872C213.614 4.872 212.798 5.04 212.03 5.352C211.262 5.664 210.614 6.12 210.038 6.696C209.462 7.272 209.03 7.992 208.694 8.808C208.382 9.624 208.214 10.56 208.214 11.568C208.214 12.528 208.358 13.416 208.646 14.232C208.934 15.048 209.342 15.768 209.87 16.368C210.398 16.992 211.07 17.472 211.838 17.808C212.63 18.144 213.542 18.312 214.55 18.312C215.342 18.312 216.062 18.216 216.71 18C217.358 17.784 217.934 17.496 218.414 17.112C218.894 16.752 219.302 16.32 219.638 15.84C219.974 15.36 220.19 14.832 220.334 14.256H218.078C217.814 14.904 217.406 15.432 216.83 15.816C216.278 16.2 215.51 16.392 214.55 16.392C214.07 16.392 213.614 16.32 213.134 16.152C212.678 15.984 212.27 15.72 211.886 15.384C211.502 15.048 211.19 14.616 210.95 14.112C210.71 13.584 210.59 12.984 210.59 12.264ZM214.478 6.768C215.054 6.768 215.582 6.864 216.038 7.08C216.494 7.272 216.878 7.56 217.19 7.896C217.526 8.232 217.766 8.64 217.934 9.072C218.102 9.504 218.198 9.96 218.198 10.416H210.59C210.638 9.768 210.782 9.216 211.022 8.76C211.262 8.28 211.55 7.896 211.91 7.608C212.246 7.32 212.654 7.104 213.11 6.96C213.542 6.816 213.998 6.768 214.478 6.768ZM223.696 1.848V5.088H221.656V6.84H223.696V14.76C223.696 15.432 223.72 15.984 223.816 16.416C223.912 16.848 224.056 17.16 224.296 17.4C224.512 17.64 224.824 17.784 225.208 17.88C225.592 17.976 226.096 18.024 226.72 18.024H228.304V16.2H227.2C226.888 16.2 226.648 16.176 226.48 16.128C226.288 16.08 226.168 15.984 226.072 15.864C225.976 15.72 225.928 15.552 225.904 15.336C225.88 15.12 225.88 14.856 225.88 14.52V6.864H228.328V5.112H225.88V1.872L223.696 1.848ZM239.012 11.784V12.6C239.012 13.368 238.892 14.016 238.676 14.52C238.436 15.024 238.148 15.432 237.788 15.744C237.404 16.056 236.996 16.272 236.516 16.392C236.036 16.536 235.532 16.584 235.028 16.584C234.236 16.584 233.612 16.416 233.18 16.032C232.748 15.648 232.532 15.168 232.532 14.544C232.532 14.112 232.676 13.728 232.988 13.416C233.276 13.128 233.708 12.864 234.284 12.648C234.836 12.456 235.508 12.288 236.324 12.144C237.116 12 238.004 11.88 239.012 11.784ZM234.524 18.312C235.676 18.312 236.612 18.144 237.308 17.784C238.004 17.424 238.556 16.896 238.94 16.224C238.964 16.608 238.988 16.944 239.012 17.232C239.06 17.52 239.084 17.76 239.108 18H241.316C241.196 17.4 241.1 16.704 241.052 15.936C241.004 15.168 240.98 14.232 241.004 13.128L241.028 10.152C241.028 8.328 240.62 6.984 239.804 6.12C238.988 5.256 237.668 4.824 235.892 4.824C235.268 4.824 234.644 4.92 234.044 5.112C233.444 5.304 232.916 5.592 232.436 5.952C231.956 6.336 231.548 6.792 231.236 7.32C230.924 7.872 230.756 8.496 230.708 9.168H232.964C233.012 8.376 233.276 7.752 233.78 7.296C234.284 6.84 235.004 6.6 235.916 6.6C236.3 6.6 236.684 6.672 237.044 6.768C237.404 6.864 237.716 7.056 237.98 7.296C238.244 7.536 238.46 7.872 238.604 8.256C238.748 8.664 238.844 9.168 238.844 9.744V10.056C237.5 10.2 236.3 10.392 235.244 10.584C234.164 10.8 233.252 11.064 232.484 11.4C231.716 11.736 231.14 12.168 230.732 12.672C230.3 13.2 230.108 13.824 230.108 14.592C230.108 15.192 230.204 15.72 230.444 16.176C230.684 16.656 230.996 17.04 231.404 17.352C231.812 17.664 232.292 17.904 232.82 18.072C233.348 18.24 233.924 18.312 234.524 18.312ZM246.467 5.088H244.283V22.2H246.467V16.056C246.851 16.752 247.403 17.304 248.099 17.712C248.771 18.12 249.635 18.312 250.691 18.312C251.411 18.312 252.131 18.168 252.803 17.88C253.475 17.592 254.051 17.136 254.555 16.56C255.059 15.984 255.467 15.288 255.755 14.448C256.043 13.632 256.211 12.672 256.211 11.592C256.211 10.536 256.043 9.6 255.755 8.76C255.467 7.944 255.059 7.224 254.555 6.648C254.051 6.072 253.475 5.64 252.803 5.328C252.131 5.04 251.411 4.872 250.691 4.872C249.635 4.872 248.771 5.088 248.099 5.496C247.403 5.904 246.851 6.456 246.467 7.128V5.088ZM246.371 11.592C246.371 10.752 246.467 10.032 246.683 9.408C246.875 8.784 247.163 8.28 247.523 7.896C247.859 7.512 248.267 7.224 248.723 7.032C249.179 6.84 249.659 6.744 250.139 6.744C251.243 6.744 252.155 7.176 252.827 8.016C253.499 8.856 253.835 10.056 253.835 11.592C253.835 13.152 253.499 14.352 252.827 15.192C252.155 16.032 251.243 16.44 250.139 16.44C249.659 16.44 249.179 16.368 248.723 16.176C248.267 15.984 247.859 15.696 247.523 15.312C247.163 14.928 246.875 14.424 246.683 13.8C246.467 13.176 246.371 12.456 246.371 11.592ZM260.951 7.032V0.599999H258.767V18H260.951V10.992C260.951 9.6 261.239 8.568 261.863 7.848C262.463 7.128 263.303 6.768 264.359 6.768C264.983 6.768 265.463 6.888 265.847 7.08C266.231 7.272 266.519 7.56 266.711 7.896C266.903 8.232 267.023 8.64 267.095 9.072C267.143 9.528 267.191 10.008 267.191 10.488V18H269.375V9.84C269.375 9.12 269.279 8.448 269.135 7.824C268.991 7.224 268.751 6.696 268.415 6.264C268.079 5.832 267.623 5.496 267.095 5.256C266.567 5.016 265.895 4.896 265.127 4.896C264.023 4.896 263.159 5.088 262.487 5.52C261.815 5.928 261.311 6.432 260.951 7.032ZM274.13 11.592C274.13 10.728 274.226 9.984 274.442 9.36C274.658 8.76 274.946 8.256 275.306 7.872C275.666 7.488 276.074 7.224 276.554 7.056C277.01 6.888 277.49 6.792 277.994 6.792C278.474 6.792 278.954 6.888 279.434 7.056C279.89 7.248 280.298 7.512 280.658 7.896C281.018 8.28 281.306 8.784 281.522 9.384C281.738 10.008 281.858 10.728 281.858 11.592C281.858 12.432 281.738 13.152 281.522 13.752C281.306 14.352 281.018 14.856 280.658 15.24C280.298 15.624 279.89 15.912 279.434 16.104C278.954 16.296 278.474 16.392 277.994 16.392C277.49 16.392 277.01 16.32 276.554 16.128C276.074 15.96 275.666 15.672 275.306 15.288C274.946 14.904 274.658 14.424 274.442 13.8C274.226 13.2 274.13 12.456 274.13 11.592ZM277.994 4.872C277.226 4.872 276.482 5.016 275.762 5.28C275.018 5.544 274.346 5.952 273.746 6.48C273.17 7.032 272.69 7.728 272.33 8.568C271.97 9.432 271.778 10.44 271.778 11.592C271.778 12.768 271.97 13.776 272.33 14.616C272.69 15.48 273.17 16.176 273.746 16.704C274.346 17.256 275.018 17.664 275.762 17.928C276.482 18.192 277.226 18.312 277.994 18.312C278.738 18.312 279.482 18.192 280.226 17.928C280.946 17.664 281.618 17.256 282.218 16.704C282.794 16.176 283.274 15.48 283.634 14.616C283.994 13.776 284.186 12.768 284.186 11.592C284.186 10.44 283.994 9.432 283.634 8.568C283.274 7.728 282.794 7.032 282.218 6.48C281.618 5.952 280.946 5.544 280.226 5.28C279.482 5.016 278.738 4.872 277.994 4.872ZM293.23 7.368V5.04C293.086 5.04 292.99 5.016 292.894 5.016H292.582C291.718 5.064 290.974 5.28 290.35 5.664C289.726 6.048 289.246 6.624 288.934 7.344V5.088H286.798V18H288.982V11.232C288.982 9.816 289.222 8.808 289.726 8.184C290.23 7.584 290.998 7.272 292.006 7.272C292.174 7.272 292.366 7.296 292.582 7.296C292.774 7.32 292.99 7.344 293.23 7.368ZM292.771 18H295.531V15.24H292.771V18ZM6.39872 24.6H0.950719V42H3.39872V35.112H6.39872C7.45472 35.112 8.41472 35.04 9.30272 34.896C10.1907 34.752 10.9587 34.488 11.6067 34.104C12.2307 33.72 12.7347 33.192 13.0947 32.52C13.4307 31.848 13.6227 30.96 13.6227 29.88C13.6227 28.8 13.4307 27.912 13.0947 27.24C12.7347 26.568 12.2307 26.016 11.6067 25.632C10.9587 25.248 10.1907 24.984 9.30272 24.84C8.41472 24.696 7.45472 24.6 6.39872 24.6ZM3.39872 26.688H6.59072C7.21472 26.688 7.81472 26.712 8.36672 26.784C8.91872 26.832 9.39872 26.976 9.80672 27.216C10.2147 27.432 10.5267 27.744 10.7667 28.176C11.0067 28.608 11.1267 29.16 11.1267 29.88C11.1267 30.6 11.0067 31.152 10.7667 31.56C10.5267 31.968 10.2147 32.28 9.80672 32.496C9.39872 32.712 8.91872 32.856 8.36672 32.904C7.81472 32.952 7.21472 33 6.59072 33H3.39872V26.688ZM18.0565 42V24.6H15.8725V42H18.0565ZM29.657 35.784V36.6C29.657 37.368 29.537 38.016 29.321 38.52C29.081 39.024 28.793 39.432 28.433 39.744C28.049 40.056 27.641 40.272 27.161 40.392C26.681 40.536 26.177 40.584 25.673 40.584C24.881 40.584 24.257 40.416 23.825 40.032C23.393 39.648 23.177 39.168 23.177 38.544C23.177 38.112 23.321 37.728 23.633 37.416C23.921 37.128 24.353 36.864 24.929 36.648C25.481 36.456 26.153 36.288 26.969 36.144C27.761 36 28.649 35.88 29.657 35.784ZM25.169 42.312C26.321 42.312 27.257 42.144 27.953 41.784C28.649 41.424 29.201 40.896 29.585 40.224C29.609 40.608 29.633 40.944 29.657 41.232C29.705 41.52 29.729 41.76 29.753 42H31.961C31.841 41.4 31.745 40.704 31.697 39.936C31.649 39.168 31.625 38.232 31.649 37.128L31.673 34.152C31.673 32.328 31.265 30.984 30.449 30.12C29.633 29.256 28.313 28.824 26.537 28.824C25.913 28.824 25.289 28.92 24.689 29.112C24.089 29.304 23.561 29.592 23.081 29.952C22.601 30.336 22.193 30.792 21.881 31.32C21.569 31.872 21.401 32.496 21.353 33.168H23.609C23.657 32.376 23.921 31.752 24.425 31.296C24.929 30.84 25.649 30.6 26.561 30.6C26.945 30.6 27.329 30.672 27.689 30.768C28.049 30.864 28.361 31.056 28.625 31.296C28.889 31.536 29.105 31.872 29.249 32.256C29.393 32.664 29.489 33.168 29.489 33.744V34.056C28.145 34.2 26.945 34.392 25.889 34.584C24.809 34.8 23.897 35.064 23.129 35.4C22.361 35.736 21.785 36.168 21.377 36.672C20.945 37.2 20.753 37.824 20.753 38.592C20.753 39.192 20.849 39.72 21.089 40.176C21.329 40.656 21.641 41.04 22.049 41.352C22.457 41.664 22.937 41.904 23.465 42.072C23.993 42.24 24.569 42.312 25.169 42.312ZM44.266 29.088H41.986L38.794 39.048L35.506 29.088H33.082L37.738 42L37.642 42.264C37.498 42.792 37.33 43.176 37.162 43.464C36.994 43.752 36.802 43.944 36.61 44.088C36.394 44.232 36.154 44.304 35.866 44.352C35.578 44.376 35.266 44.4 34.906 44.4H34.018V46.224H35.146C35.866 46.224 36.466 46.152 36.946 46.032C37.426 45.912 37.81 45.72 38.122 45.432C38.458 45.144 38.722 44.784 38.938 44.328C39.178 43.848 39.394 43.272 39.634 42.576L44.266 29.088ZM57.469 29.088L54.901 38.64L52.429 29.088H50.077L53.797 42H55.789L58.549 31.608L61.405 42H63.397L67.117 29.088H64.765L62.293 38.64L59.725 29.088H57.469ZM71.1425 29.088H68.9585V42H71.1425V29.088ZM71.1425 24.6H68.9585V27.24H71.1425V24.6ZM75.2309 25.848V29.088H73.1909V30.84H75.2309V38.76C75.2309 39.432 75.2549 39.984 75.3509 40.416C75.4469 40.848 75.5909 41.16 75.8309 41.4C76.0469 41.64 76.3589 41.784 76.7429 41.88C77.1269 41.976 77.6309 42.024 78.2549 42.024H79.8389V40.2H78.7349C78.4229 40.2 78.1829 40.176 78.0149 40.128C77.8229 40.08 77.7029 39.984 77.6069 39.864C77.5109 39.72 77.4629 39.552 77.4389 39.336C77.4149 39.12 77.4149 38.856 77.4149 38.52V30.864H79.8629V29.112H77.4149V25.872L75.2309 25.848ZM84.83 31.032V24.6H82.646V42H84.83V34.992C84.83 33.6 85.118 32.568 85.742 31.848C86.342 31.128 87.182 30.768 88.238 30.768C88.862 30.768 89.342 30.888 89.726 31.08C90.11 31.272 90.398 31.56 90.59 31.896C90.782 32.232 90.902 32.64 90.974 33.072C91.022 33.528 91.07 34.008 91.07 34.488V42H93.254V33.84C93.254 33.12 93.158 32.448 93.014 31.824C92.87 31.224 92.63 30.696 92.294 30.264C91.958 29.832 91.502 29.496 90.974 29.256C90.446 29.016 89.774 28.896 89.006 28.896C87.902 28.896 87.038 29.088 86.366 29.52C85.694 29.928 85.19 30.432 84.83 31.032ZM103.68 36.264H113.616C113.664 35.256 113.568 34.296 113.328 33.384C113.088 32.496 112.704 31.704 112.176 31.032C111.648 30.36 111 29.832 110.232 29.448C109.44 29.064 108.552 28.872 107.568 28.872C106.704 28.872 105.888 29.04 105.12 29.352C104.352 29.664 103.704 30.12 103.128 30.696C102.552 31.272 102.12 31.992 101.784 32.808C101.472 33.624 101.304 34.56 101.304 35.568C101.304 36.528 101.448 37.416 101.736 38.232C102.024 39.048 102.432 39.768 102.96 40.368C103.488 40.992 104.16 41.472 104.928 41.808C105.72 42.144 106.632 42.312 107.64 42.312C108.432 42.312 109.152 42.216 109.8 42C110.448 41.784 111.024 41.496 111.504 41.112C111.984 40.752 112.392 40.32 112.728 39.84C113.064 39.36 113.28 38.832 113.424 38.256H111.168C110.904 38.904 110.496 39.432 109.92 39.816C109.368 40.2 108.6 40.392 107.64 40.392C107.16 40.392 106.704 40.32 106.224 40.152C105.768 39.984 105.36 39.72 104.976 39.384C104.592 39.048 104.28 38.616 104.04 38.112C103.8 37.584 103.68 36.984 103.68 36.264ZM107.568 30.768C108.144 30.768 108.672 30.864 109.128 31.08C109.584 31.272 109.968 31.56 110.28 31.896C110.616 32.232 110.856 32.64 111.024 33.072C111.192 33.504 111.288 33.96 111.288 34.416H103.68C103.728 33.768 103.872 33.216 104.112 32.76C104.352 32.28 104.64 31.896 105 31.608C105.336 31.32 105.744 31.104 106.2 30.96C106.632 30.816 107.088 30.768 107.568 30.768ZM118.346 42V34.992C118.346 33.6 118.61 32.568 119.186 31.848C119.762 31.128 120.506 30.768 121.466 30.768C122.042 30.768 122.522 30.888 122.882 31.08C123.242 31.272 123.53 31.56 123.722 31.896C123.914 32.232 124.058 32.64 124.13 33.072C124.178 33.528 124.226 34.008 124.226 34.488V42H126.41V34.992C126.41 33.6 126.674 32.568 127.25 31.848C127.826 31.128 128.57 30.768 129.53 30.768C130.106 30.768 130.586 30.888 130.946 31.08C131.306 31.272 131.594 31.56 131.786 31.896C131.978 32.232 132.122 32.64 132.194 33.072C132.242 33.528 132.29 34.008 132.29 34.488V42H134.474V33.84C134.474 33.12 134.378 32.448 134.234 31.824C134.09 31.224 133.85 30.696 133.514 30.264C133.178 29.832 132.746 29.496 132.218 29.256C131.69 29.016 131.042 28.896 130.298 28.896C129.386 28.896 128.546 29.064 127.826 29.424C127.082 29.784 126.458 30.36 125.954 31.176C125.666 30.456 125.21 29.88 124.61 29.496C124.01 29.088 123.218 28.896 122.234 28.896C121.25 28.896 120.458 29.088 119.834 29.52C119.21 29.928 118.706 30.432 118.346 31.032V29.088H116.162V42H118.346ZM139.236 35.592C139.236 34.728 139.332 33.984 139.548 33.36C139.764 32.76 140.052 32.256 140.412 31.872C140.772 31.488 141.18 31.224 141.66 31.056C142.116 30.888 142.596 30.792 143.1 30.792C143.58 30.792 144.06 30.888 144.54 31.056C144.996 31.248 145.404 31.512 145.764 31.896C146.124 32.28 146.412 32.784 146.628 33.384C146.844 34.008 146.964 34.728 146.964 35.592C146.964 36.432 146.844 37.152 146.628 37.752C146.412 38.352 146.124 38.856 145.764 39.24C145.404 39.624 144.996 39.912 144.54 40.104C144.06 40.296 143.58 40.392 143.1 40.392C142.596 40.392 142.116 40.32 141.66 40.128C141.18 39.96 140.772 39.672 140.412 39.288C140.052 38.904 139.764 38.424 139.548 37.8C139.332 37.2 139.236 36.456 139.236 35.592ZM143.1 28.872C142.332 28.872 141.588 29.016 140.868 29.28C140.124 29.544 139.452 29.952 138.852 30.48C138.276 31.032 137.796 31.728 137.436 32.568C137.076 33.432 136.884 34.44 136.884 35.592C136.884 36.768 137.076 37.776 137.436 38.616C137.796 39.48 138.276 40.176 138.852 40.704C139.452 41.256 140.124 41.664 140.868 41.928C141.588 42.192 142.332 42.312 143.1 42.312C143.844 42.312 144.588 42.192 145.332 41.928C146.052 41.664 146.724 41.256 147.324 40.704C147.9 40.176 148.38 39.48 148.74 38.616C149.1 37.776 149.292 36.768 149.292 35.592C149.292 34.44 149.1 33.432 148.74 32.568C148.38 31.728 147.9 31.032 147.324 30.48C146.724 29.952 146.052 29.544 145.332 29.28C144.588 29.016 143.844 28.872 143.1 28.872ZM152.411 25.848V29.088H150.371V30.84H152.411V38.76C152.411 39.432 152.435 39.984 152.531 40.416C152.627 40.848 152.771 41.16 153.011 41.4C153.227 41.64 153.539 41.784 153.923 41.88C154.307 41.976 154.811 42.024 155.435 42.024H157.019V40.2H155.915C155.603 40.2 155.363 40.176 155.195 40.128C155.003 40.08 154.883 39.984 154.787 39.864C154.691 39.72 154.643 39.552 154.619 39.336C154.595 39.12 154.595 38.856 154.595 38.52V30.864H157.043V29.112H154.595V25.872L152.411 25.848ZM162.01 29.088H159.826V42H162.01V29.088ZM162.01 24.6H159.826V27.24H162.01V24.6ZM166.962 35.592C166.962 34.728 167.058 33.984 167.274 33.36C167.49 32.76 167.778 32.256 168.138 31.872C168.498 31.488 168.906 31.224 169.386 31.056C169.842 30.888 170.322 30.792 170.826 30.792C171.306 30.792 171.786 30.888 172.266 31.056C172.722 31.248 173.13 31.512 173.49 31.896C173.85 32.28 174.138 32.784 174.354 33.384C174.57 34.008 174.69 34.728 174.69 35.592C174.69 36.432 174.57 37.152 174.354 37.752C174.138 38.352 173.85 38.856 173.49 39.24C173.13 39.624 172.722 39.912 172.266 40.104C171.786 40.296 171.306 40.392 170.826 40.392C170.322 40.392 169.842 40.32 169.386 40.128C168.906 39.96 168.498 39.672 168.138 39.288C167.778 38.904 167.49 38.424 167.274 37.8C167.058 37.2 166.962 36.456 166.962 35.592ZM170.826 28.872C170.058 28.872 169.314 29.016 168.594 29.28C167.85 29.544 167.178 29.952 166.578 30.48C166.002 31.032 165.522 31.728 165.162 32.568C164.802 33.432 164.61 34.44 164.61 35.592C164.61 36.768 164.802 37.776 165.162 38.616C165.522 39.48 166.002 40.176 166.578 40.704C167.178 41.256 167.85 41.664 168.594 41.928C169.314 42.192 170.058 42.312 170.826 42.312C171.57 42.312 172.314 42.192 173.058 41.928C173.778 41.664 174.45 41.256 175.05 40.704C175.626 40.176 176.106 39.48 176.466 38.616C176.826 37.776 177.018 36.768 177.018 35.592C177.018 34.44 176.826 33.432 176.466 32.568C176.106 31.728 175.626 31.032 175.05 30.48C174.45 29.952 173.778 29.544 173.058 29.28C172.314 29.016 171.57 28.872 170.826 28.872ZM181.814 31.032V29.088H179.63V42H181.814V34.992C181.814 33.6 182.102 32.568 182.726 31.848C183.326 31.128 184.166 30.768 185.222 30.768C185.846 30.768 186.326 30.888 186.71 31.08C187.094 31.272 187.382 31.56 187.574 31.896C187.766 32.232 187.886 32.64 187.958 33.072C188.006 33.528 188.054 34.008 188.054 34.488V42H190.238V33.84C190.238 33.12 190.142 32.448 189.998 31.824C189.854 31.224 189.614 30.696 189.278 30.264C188.942 29.832 188.486 29.496 187.958 29.256C187.43 29.016 186.758 28.896 185.99 28.896C184.886 28.896 184.022 29.088 183.35 29.52C182.678 29.928 182.174 30.432 181.814 31.032ZM200.897 32.856H203.177C202.961 31.632 202.409 30.648 201.521 29.928C200.633 29.208 199.481 28.848 198.089 28.848C197.369 28.848 196.697 28.944 196.073 29.088C195.449 29.256 194.897 29.496 194.441 29.808C193.961 30.12 193.601 30.504 193.337 30.936C193.049 31.368 192.929 31.872 192.929 32.448C192.929 33.072 193.025 33.576 193.241 33.984C193.457 34.392 193.745 34.728 194.105 35.016C194.441 35.304 194.849 35.52 195.281 35.664C195.713 35.808 196.169 35.928 196.601 36.024L198.521 36.408C198.857 36.504 199.193 36.6 199.505 36.696C199.817 36.792 200.105 36.936 200.345 37.104C200.585 37.272 200.777 37.464 200.921 37.704C201.065 37.944 201.137 38.232 201.137 38.544C201.137 39.168 200.825 39.624 200.249 39.96C199.673 40.296 198.953 40.464 198.137 40.464C197.177 40.464 196.433 40.248 195.905 39.768C195.377 39.312 195.017 38.664 194.849 37.824H192.545C192.593 38.4 192.761 38.952 193.025 39.48C193.289 40.032 193.649 40.512 194.129 40.92C194.609 41.352 195.161 41.688 195.833 41.928C196.481 42.192 197.225 42.312 198.089 42.312C198.809 42.312 199.505 42.24 200.153 42.048C200.777 41.88 201.329 41.616 201.809 41.28C202.289 40.944 202.649 40.512 202.937 40.008C203.201 39.528 203.345 38.952 203.345 38.304C203.345 37.68 203.225 37.152 202.985 36.72C202.745 36.288 202.409 35.928 202.001 35.64C201.593 35.352 201.137 35.112 200.609 34.92C200.081 34.728 199.505 34.584 198.929 34.464L197.105 34.104C196.481 33.984 195.977 33.792 195.641 33.528C195.305 33.264 195.137 32.88 195.137 32.352C195.137 32.064 195.209 31.824 195.377 31.608C195.521 31.416 195.737 31.248 196.001 31.104C196.265 30.96 196.553 30.864 196.889 30.816C197.201 30.768 197.513 30.72 197.849 30.72C198.617 30.72 199.265 30.888 199.817 31.224C200.345 31.56 200.705 32.088 200.897 32.856ZM205.712 42H208.472V39.24H205.712V42ZM223.242 24.6H217.794V42H220.242V35.112H223.242C224.298 35.112 225.258 35.04 226.146 34.896C227.034 34.752 227.802 34.488 228.45 34.104C229.074 33.72 229.578 33.192 229.938 32.52C230.274 31.848 230.466 30.96 230.466 29.88C230.466 28.8 230.274 27.912 229.938 27.24C229.578 26.568 229.074 26.016 228.45 25.632C227.802 25.248 227.034 24.984 226.146 24.84C225.258 24.696 224.298 24.6 223.242 24.6ZM220.242 26.688H223.434C224.058 26.688 224.658 26.712 225.21 26.784C225.762 26.832 226.242 26.976 226.65 27.216C227.058 27.432 227.37 27.744 227.61 28.176C227.85 28.608 227.97 29.16 227.97 29.88C227.97 30.6 227.85 31.152 227.61 31.56C227.37 31.968 227.058 32.28 226.65 32.496C226.242 32.712 225.762 32.856 225.21 32.904C224.658 32.952 224.058 33 223.434 33H220.242V26.688ZM234.9 42V24.6H232.716V42H234.9ZM246.501 35.784V36.6C246.501 37.368 246.381 38.016 246.165 38.52C245.925 39.024 245.637 39.432 245.277 39.744C244.893 40.056 244.485 40.272 244.005 40.392C243.525 40.536 243.021 40.584 242.517 40.584C241.725 40.584 241.101 40.416 240.669 40.032C240.237 39.648 240.021 39.168 240.021 38.544C240.021 38.112 240.165 37.728 240.477 37.416C240.765 37.128 241.197 36.864 241.773 36.648C242.325 36.456 242.997 36.288 243.813 36.144C244.605 36 245.493 35.88 246.501 35.784ZM242.013 42.312C243.165 42.312 244.101 42.144 244.797 41.784C245.493 41.424 246.045 40.896 246.429 40.224C246.453 40.608 246.477 40.944 246.501 41.232C246.549 41.52 246.573 41.76 246.597 42H248.805C248.685 41.4 248.589 40.704 248.541 39.936C248.493 39.168 248.469 38.232 248.493 37.128L248.517 34.152C248.517 32.328 248.109 30.984 247.293 30.12C246.477 29.256 245.157 28.824 243.381 28.824C242.757 28.824 242.133 28.92 241.533 29.112C240.933 29.304 240.405 29.592 239.925 29.952C239.445 30.336 239.037 30.792 238.725 31.32C238.413 31.872 238.245 32.496 238.197 33.168H240.453C240.501 32.376 240.765 31.752 241.269 31.296C241.773 30.84 242.493 30.6 243.405 30.6C243.789 30.6 244.173 30.672 244.533 30.768C244.893 30.864 245.205 31.056 245.469 31.296C245.733 31.536 245.949 31.872 246.093 32.256C246.237 32.664 246.333 33.168 246.333 33.744V34.056C244.989 34.2 243.789 34.392 242.733 34.584C241.653 34.8 240.741 35.064 239.973 35.4C239.205 35.736 238.629 36.168 238.221 36.672C237.789 37.2 237.597 37.824 237.597 38.592C237.597 39.192 237.693 39.72 237.933 40.176C238.173 40.656 238.485 41.04 238.893 41.352C239.301 41.664 239.781 41.904 240.309 42.072C240.837 42.24 241.413 42.312 242.013 42.312ZM261.11 29.088H258.83L255.638 39.048L252.35 29.088H249.926L254.582 42L254.486 42.264C254.342 42.792 254.174 43.176 254.006 43.464C253.838 43.752 253.646 43.944 253.454 44.088C253.238 44.232 252.998 44.304 252.71 44.352C252.422 44.376 252.11 44.4 251.75 44.4H250.862V46.224H251.99C252.71 46.224 253.31 46.152 253.79 46.032C254.27 45.912 254.654 45.72 254.966 45.432C255.302 45.144 255.566 44.784 255.782 44.328C256.022 43.848 256.238 43.272 256.478 42.576L261.11 29.088ZM274.313 29.088L271.745 38.64L269.273 29.088H266.921L270.641 42H272.633L275.393 31.608L278.249 42H280.241L283.961 29.088H281.609L279.137 38.64L276.569 29.088H274.313ZM287.986 29.088H285.802V42H287.986V29.088ZM287.986 24.6H285.802V27.24H287.986V24.6ZM292.075 25.848V29.088H290.035V30.84H292.075V38.76C292.075 39.432 292.099 39.984 292.195 40.416C292.291 40.848 292.435 41.16 292.675 41.4C292.891 41.64 293.203 41.784 293.587 41.88C293.971 41.976 294.475 42.024 295.099 42.024H296.683V40.2H295.579C295.267 40.2 295.027 40.176 294.859 40.128C294.667 40.08 294.547 39.984 294.451 39.864C294.355 39.72 294.307 39.552 294.283 39.336C294.259 39.12 294.259 38.856 294.259 38.52V30.864H296.707V29.112H294.259V25.872L292.075 25.848ZM301.674 31.032V24.6H299.49V42H301.674V34.992C301.674 33.6 301.962 32.568 302.586 31.848C303.186 31.128 304.026 30.768 305.082 30.768C305.706 30.768 306.186 30.888 306.57 31.08C306.954 31.272 307.242 31.56 307.434 31.896C307.626 32.232 307.746 32.64 307.818 33.072C307.866 33.528 307.914 34.008 307.914 34.488V42H310.098V33.84C310.098 33.12 310.002 32.448 309.858 31.824C309.714 31.224 309.474 30.696 309.138 30.264C308.802 29.832 308.346 29.496 307.818 29.256C307.29 29.016 306.618 28.896 305.85 28.896C304.746 28.896 303.882 29.088 303.21 29.52C302.538 29.928 302.034 30.432 301.674 31.032ZM327.916 24.6V31.128C327.508 30.456 326.956 29.904 326.26 29.496C325.588 29.088 324.724 28.872 323.668 28.872C322.948 28.872 322.228 29.04 321.556 29.328C320.884 29.64 320.308 30.072 319.804 30.648C319.3 31.224 318.892 31.944 318.604 32.76C318.316 33.6 318.148 34.536 318.148 35.592C318.148 36.672 318.316 37.632 318.604 38.472C318.892 39.288 319.3 40.008 319.804 40.584C320.308 41.16 320.884 41.592 321.556 41.88C322.228 42.168 322.948 42.336 323.668 42.336C324.724 42.336 325.588 42.12 326.26 41.712C326.956 41.304 327.508 40.752 327.916 40.08V42.024H330.1V24.624L327.916 24.6ZM328.012 35.616C328.012 36.456 327.892 37.176 327.7 37.8C327.484 38.424 327.196 38.928 326.836 39.312C326.5 39.696 326.092 39.984 325.636 40.176C325.18 40.368 324.7 40.464 324.22 40.464C323.116 40.464 322.204 40.032 321.532 39.192C320.86 38.352 320.524 37.152 320.524 35.616C320.524 34.056 320.86 32.856 321.532 32.016C322.204 31.176 323.116 30.768 324.22 30.768C324.7 30.768 325.18 30.84 325.636 31.032C326.092 31.224 326.5 31.512 326.836 31.896C327.196 32.28 327.484 32.784 327.7 33.408C327.892 34.032 328.012 34.752 328.012 35.616ZM335.008 36.264H344.944C344.992 35.256 344.896 34.296 344.656 33.384C344.416 32.496 344.032 31.704 343.504 31.032C342.976 30.36 342.328 29.832 341.56 29.448C340.768 29.064 339.88 28.872 338.896 28.872C338.032 28.872 337.216 29.04 336.448 29.352C335.68 29.664 335.032 30.12 334.456 30.696C333.88 31.272 333.448 31.992 333.112 32.808C332.8 33.624 332.632 34.56 332.632 35.568C332.632 36.528 332.776 37.416 333.064 38.232C333.352 39.048 333.76 39.768 334.288 40.368C334.816 40.992 335.488 41.472 336.256 41.808C337.048 42.144 337.96 42.312 338.968 42.312C339.76 42.312 340.48 42.216 341.128 42C341.776 41.784 342.352 41.496 342.832 41.112C343.312 40.752 343.72 40.32 344.056 39.84C344.392 39.36 344.608 38.832 344.752 38.256H342.496C342.232 38.904 341.824 39.432 341.248 39.816C340.696 40.2 339.928 40.392 338.968 40.392C338.488 40.392 338.032 40.32 337.552 40.152C337.096 39.984 336.688 39.72 336.304 39.384C335.92 39.048 335.608 38.616 335.368 38.112C335.128 37.584 335.008 36.984 335.008 36.264ZM338.896 30.768C339.472 30.768 340 30.864 340.456 31.08C340.912 31.272 341.296 31.56 341.608 31.896C341.944 32.232 342.184 32.64 342.352 33.072C342.52 33.504 342.616 33.96 342.616 34.416H335.008C335.056 33.768 335.2 33.216 335.44 32.76C335.68 32.28 335.968 31.896 336.328 31.608C336.664 31.32 337.072 31.104 337.528 30.96C337.96 30.816 338.416 30.768 338.896 30.768ZM349.674 29.088H347.49V46.2H349.674V40.056C350.058 40.752 350.61 41.304 351.306 41.712C351.978 42.12 352.842 42.312 353.898 42.312C354.618 42.312 355.338 42.168 356.01 41.88C356.682 41.592 357.258 41.136 357.762 40.56C358.266 39.984 358.674 39.288 358.962 38.448C359.25 37.632 359.418 36.672 359.418 35.592C359.418 34.536 359.25 33.6 358.962 32.76C358.674 31.944 358.266 31.224 357.762 30.648C357.258 30.072 356.682 29.64 356.01 29.328C355.338 29.04 354.618 28.872 353.898 28.872C352.842 28.872 351.978 29.088 351.306 29.496C350.61 29.904 350.058 30.456 349.674 31.128V29.088ZM349.578 35.592C349.578 34.752 349.674 34.032 349.89 33.408C350.082 32.784 350.37 32.28 350.73 31.896C351.066 31.512 351.474 31.224 351.93 31.032C352.386 30.84 352.866 30.744 353.346 30.744C354.45 30.744 355.362 31.176 356.034 32.016C356.706 32.856 357.042 34.056 357.042 35.592C357.042 37.152 356.706 38.352 356.034 39.192C355.362 40.032 354.45 40.44 353.346 40.44C352.866 40.44 352.386 40.368 351.93 40.176C351.474 39.984 351.066 39.696 350.73 39.312C350.37 38.928 350.082 38.424 349.89 37.8C349.674 37.176 349.578 36.456 349.578 35.592ZM362.481 25.848V29.088H360.441V30.84H362.481V38.76C362.481 39.432 362.505 39.984 362.601 40.416C362.697 40.848 362.841 41.16 363.081 41.4C363.297 41.64 363.609 41.784 363.993 41.88C364.377 41.976 364.881 42.024 365.505 42.024H367.089V40.2H365.985C365.673 40.2 365.433 40.176 365.265 40.128C365.073 40.08 364.953 39.984 364.857 39.864C364.761 39.72 364.713 39.552 364.689 39.336C364.665 39.12 364.665 38.856 364.665 38.52V30.864H367.113V29.112H364.665V25.872L362.481 25.848ZM372.08 31.032V24.6H369.896V42H372.08V34.992C372.08 33.6 372.368 32.568 372.992 31.848C373.592 31.128 374.432 30.768 375.488 30.768C376.112 30.768 376.592 30.888 376.976 31.08C377.36 31.272 377.648 31.56 377.84 31.896C378.032 32.232 378.152 32.64 378.224 33.072C378.272 33.528 378.32 34.008 378.32 34.488V42H380.504V33.84C380.504 33.12 380.408 32.448 380.264 31.824C380.12 31.224 379.88 30.696 379.544 30.264C379.208 29.832 378.752 29.496 378.224 29.256C377.696 29.016 377.024 28.896 376.256 28.896C375.152 28.896 374.288 29.088 373.616 29.52C372.944 29.928 372.44 30.432 372.08 31.032ZM383.79 42H386.55V39.24H383.79V42Z" fill="url(#paint0_linear_472_6966)"/>
<defs>
<linearGradient id="paint0_linear_472_6966" x1="193.5" y1="-2" x2="193.5" y2="91" gradientUnits="userSpaceOnUse">
<stop/>
<stop offset="1" stop-color="#C4C4C4" stop-opacity="0"/>
</linearGradient>
</defs>
</svg>
