<svg width="257" height="40" viewBox="0 0 257 40" fill="none" xmlns="http://www.w3.org/2000/svg">
<path d="M4.95336 0.5H0.413359V15H2.45336V9.26H4.95336C5.83336 9.26 6.63336 9.2 7.37336 9.08C8.11336 8.96 8.75336 8.74 9.29336 8.42C9.81336 8.1 10.2334 7.66 10.5334 7.1C10.8134 6.54 10.9734 5.8 10.9734 4.9C10.9734 4 10.8134 3.26 10.5334 2.7C10.2334 2.14 9.81336 1.68 9.29336 1.36C8.75336 1.04 8.11336 0.819999 7.37336 0.699999C6.63336 0.58 5.83336 0.5 4.95336 0.5ZM2.45336 2.24H5.11336C5.63336 2.24 6.13336 2.26 6.59336 2.32C7.05336 2.36 7.45336 2.48 7.79336 2.68C8.13336 2.86 8.39336 3.12 8.59336 3.48C8.79336 3.84 8.89336 4.3 8.89336 4.9C8.89336 5.5 8.79336 5.96 8.59336 6.3C8.39336 6.64 8.13336 6.9 7.79336 7.08C7.45336 7.26 7.05336 7.38 6.59336 7.42C6.13336 7.46 5.63336 7.5 5.11336 7.5H2.45336V2.24ZM14.6682 15V0.5H12.8482V15H14.6682ZM24.3352 9.82V10.5C24.3352 11.14 24.2352 11.68 24.0552 12.1C23.8552 12.52 23.6152 12.86 23.3152 13.12C22.9952 13.38 22.6552 13.56 22.2552 13.66C21.8552 13.78 21.4352 13.82 21.0152 13.82C20.3552 13.82 19.8352 13.68 19.4752 13.36C19.1152 13.04 18.9352 12.64 18.9352 12.12C18.9352 11.76 19.0552 11.44 19.3152 11.18C19.5552 10.94 19.9152 10.72 20.3952 10.54C20.8552 10.38 21.4152 10.24 22.0952 10.12C22.7552 10 23.4952 9.9 24.3352 9.82ZM20.5952 15.26C21.5552 15.26 22.3352 15.12 22.9152 14.82C23.4952 14.52 23.9552 14.08 24.2752 13.52C24.2952 13.84 24.3152 14.12 24.3352 14.36C24.3752 14.6 24.3952 14.8 24.4152 15H26.2552C26.1552 14.5 26.0752 13.92 26.0352 13.28C25.9952 12.64 25.9752 11.86 25.9952 10.94L26.0152 8.46C26.0152 6.94 25.6752 5.82 24.9952 5.1C24.3152 4.38 23.2152 4.02 21.7352 4.02C21.2152 4.02 20.6952 4.1 20.1952 4.26C19.6952 4.42 19.2552 4.66 18.8552 4.96C18.4552 5.28 18.1152 5.66 17.8552 6.1C17.5952 6.56 17.4552 7.08 17.4152 7.64H19.2952C19.3352 6.98 19.5552 6.46 19.9752 6.08C20.3952 5.7 20.9952 5.5 21.7552 5.5C22.0752 5.5 22.3952 5.56 22.6952 5.64C22.9952 5.72 23.2552 5.88 23.4752 6.08C23.6952 6.28 23.8752 6.56 23.9952 6.88C24.1152 7.22 24.1952 7.64 24.1952 8.12V8.38C23.0752 8.5 22.0752 8.66 21.1952 8.82C20.2952 9 19.5352 9.22 18.8952 9.5C18.2552 9.78 17.7752 10.14 17.4352 10.56C17.0752 11 16.9152 11.52 16.9152 12.16C16.9152 12.66 16.9952 13.1 17.1952 13.48C17.3952 13.88 17.6552 14.2 17.9952 14.46C18.3352 14.72 18.7352 14.92 19.1752 15.06C19.6152 15.2 20.0952 15.26 20.5952 15.26ZM36.5095 4.24H34.6095L31.9495 12.54L29.2095 4.24H27.1895L31.0695 15L30.9895 15.22C30.8695 15.66 30.7295 15.98 30.5895 16.22C30.4495 16.46 30.2895 16.62 30.1295 16.74C29.9495 16.86 29.7495 16.92 29.5095 16.96C29.2695 16.98 29.0095 17 28.7095 17H27.9695V18.52H28.9095C29.5095 18.52 30.0095 18.46 30.4095 18.36C30.8095 18.26 31.1295 18.1 31.3895 17.86C31.6695 17.62 31.8895 17.32 32.0695 16.94C32.2695 16.54 32.4495 16.06 32.6495 15.48L36.5095 4.24ZM47.512 4.24L45.372 12.2L43.312 4.24H41.352L44.452 15H46.112L48.412 6.34L50.792 15H52.452L55.552 4.24H53.592L51.532 12.2L49.392 4.24H47.512ZM58.9065 4.24H57.0865V15H58.9065V4.24ZM58.9065 0.5H57.0865V2.7H58.9065V0.5ZM62.3135 1.54V4.24H60.6135V5.7H62.3135V12.3C62.3135 12.86 62.3335 13.32 62.4135 13.68C62.4935 14.04 62.6135 14.3 62.8135 14.5C62.9935 14.7 63.2535 14.82 63.5735 14.9C63.8935 14.98 64.3135 15.02 64.8335 15.02H66.1535V13.5H65.2335C64.9735 13.5 64.7735 13.48 64.6335 13.44C64.4735 13.4 64.3735 13.32 64.2935 13.22C64.2135 13.1 64.1735 12.96 64.1535 12.78C64.1335 12.6 64.1335 12.38 64.1335 12.1V5.72H66.1735V4.26H64.1335V1.56L62.3135 1.54ZM70.3127 5.86V0.5H68.4927V15H70.3127V9.16C70.3127 8 70.5527 7.14 71.0727 6.54C71.5727 5.94 72.2727 5.64 73.1527 5.64C73.6727 5.64 74.0727 5.74 74.3927 5.9C74.7127 6.06 74.9527 6.3 75.1127 6.58C75.2727 6.86 75.3727 7.2 75.4327 7.56C75.4727 7.94 75.5127 8.34 75.5127 8.74V15H77.3327V8.2C77.3327 7.6 77.2527 7.04 77.1327 6.52C77.0127 6.02 76.8127 5.58 76.5327 5.22C76.2527 4.86 75.8727 4.58 75.4327 4.38C74.9927 4.18 74.4327 4.08 73.7927 4.08C72.8727 4.08 72.1527 4.24 71.5927 4.6C71.0327 4.94 70.6127 5.36 70.3127 5.86ZM91.5813 9.82V10.5C91.5813 11.14 91.4813 11.68 91.3013 12.1C91.1013 12.52 90.8613 12.86 90.5613 13.12C90.2413 13.38 89.9013 13.56 89.5013 13.66C89.1013 13.78 88.6813 13.82 88.2613 13.82C87.6013 13.82 87.0813 13.68 86.7213 13.36C86.3613 13.04 86.1813 12.64 86.1813 12.12C86.1813 11.76 86.3013 11.44 86.5613 11.18C86.8013 10.94 87.1613 10.72 87.6413 10.54C88.1013 10.38 88.6613 10.24 89.3413 10.12C90.0013 10 90.7413 9.9 91.5813 9.82ZM87.8413 15.26C88.8013 15.26 89.5813 15.12 90.1613 14.82C90.7413 14.52 91.2013 14.08 91.5213 13.52C91.5413 13.84 91.5613 14.12 91.5813 14.36C91.6213 14.6 91.6413 14.8 91.6613 15H93.5013C93.4013 14.5 93.3213 13.92 93.2813 13.28C93.2413 12.64 93.2213 11.86 93.2413 10.94L93.2613 8.46C93.2613 6.94 92.9213 5.82 92.2413 5.1C91.5613 4.38 90.4613 4.02 88.9813 4.02C88.4613 4.02 87.9413 4.1 87.4413 4.26C86.9413 4.42 86.5013 4.66 86.1013 4.96C85.7013 5.28 85.3613 5.66 85.1013 6.1C84.8413 6.56 84.7013 7.08 84.6613 7.64H86.5413C86.5813 6.98 86.8013 6.46 87.2213 6.08C87.6413 5.7 88.2413 5.5 89.0013 5.5C89.3213 5.5 89.6413 5.56 89.9413 5.64C90.2413 5.72 90.5013 5.88 90.7213 6.08C90.9413 6.28 91.1213 6.56 91.2413 6.88C91.3613 7.22 91.4413 7.64 91.4413 8.12V8.38C90.3213 8.5 89.3213 8.66 88.4413 8.82C87.5413 9 86.7813 9.22 86.1413 9.5C85.5013 9.78 85.0213 10.14 84.6813 10.56C84.3213 11 84.1613 11.52 84.1613 12.16C84.1613 12.66 84.2413 13.1 84.4413 13.48C84.6413 13.88 84.9013 14.2 85.2413 14.46C85.5813 14.72 85.9813 14.92 86.4213 15.06C86.8613 15.2 87.3413 15.26 87.8413 15.26ZM96.4932 1.54V4.24H94.7932V5.7H96.4932V12.3C96.4932 12.86 96.5132 13.32 96.5932 13.68C96.6732 14.04 96.7932 14.3 96.9932 14.5C97.1732 14.7 97.4332 14.82 97.7532 14.9C98.0732 14.98 98.4932 15.02 99.0132 15.02H100.333V13.5H99.4132C99.1532 13.5 98.9532 13.48 98.8132 13.44C98.6532 13.4 98.5532 13.32 98.4732 13.22C98.3932 13.1 98.3532 12.96 98.3332 12.78C98.3132 12.6 98.3132 12.38 98.3132 12.1V5.72H100.353V4.26H98.3132V1.56L96.4932 1.54ZM103.619 9.66C103.619 8.94 103.699 8.32 103.879 7.8C104.059 7.3 104.299 6.88 104.599 6.56C104.899 6.24 105.239 6.02 105.639 5.88C106.019 5.74 106.419 5.66 106.839 5.66C107.239 5.66 107.639 5.74 108.039 5.88C108.419 6.04 108.759 6.26 109.059 6.58C109.359 6.9 109.599 7.32 109.779 7.82C109.959 8.34 110.059 8.94 110.059 9.66C110.059 10.36 109.959 10.96 109.779 11.46C109.599 11.96 109.359 12.38 109.059 12.7C108.759 13.02 108.419 13.26 108.039 13.42C107.639 13.58 107.239 13.66 106.839 13.66C106.419 13.66 106.019 13.6 105.639 13.44C105.239 13.3 104.899 13.06 104.599 12.74C104.299 12.42 104.059 12.02 103.879 11.5C103.699 11 103.619 10.38 103.619 9.66ZM106.839 4.06C106.199 4.06 105.579 4.18 104.979 4.4C104.359 4.62 103.799 4.96 103.299 5.4C102.819 5.86 102.419 6.44 102.119 7.14C101.819 7.86 101.659 8.7 101.659 9.66C101.659 10.64 101.819 11.48 102.119 12.18C102.419 12.9 102.819 13.48 103.299 13.92C103.799 14.38 104.359 14.72 104.979 14.94C105.579 15.16 106.199 15.26 106.839 15.26C107.459 15.26 108.079 15.16 108.699 14.94C109.299 14.72 109.859 14.38 110.359 13.92C110.839 13.48 111.239 12.9 111.539 12.18C111.839 11.48 111.999 10.64 111.999 9.66C111.999 8.7 111.839 7.86 111.539 7.14C111.239 6.44 110.839 5.86 110.359 5.4C109.859 4.96 109.299 4.62 108.699 4.4C108.079 4.18 107.459 4.06 106.839 4.06ZM115.996 15V9.16C115.996 8 116.216 7.14 116.696 6.54C117.176 5.94 117.796 5.64 118.596 5.64C119.076 5.64 119.476 5.74 119.776 5.9C120.076 6.06 120.316 6.3 120.476 6.58C120.636 6.86 120.756 7.2 120.816 7.56C120.856 7.94 120.896 8.34 120.896 8.74V15H122.716V9.16C122.716 8 122.936 7.14 123.416 6.54C123.896 5.94 124.516 5.64 125.316 5.64C125.796 5.64 126.196 5.74 126.496 5.9C126.796 6.06 127.036 6.3 127.196 6.58C127.356 6.86 127.476 7.2 127.536 7.56C127.576 7.94 127.616 8.34 127.616 8.74V15H129.436V8.2C129.436 7.6 129.356 7.04 129.236 6.52C129.116 6.02 128.916 5.58 128.636 5.22C128.356 4.86 127.996 4.58 127.556 4.38C127.116 4.18 126.576 4.08 125.956 4.08C125.196 4.08 124.496 4.22 123.896 4.52C123.276 4.82 122.756 5.3 122.336 5.98C122.096 5.38 121.716 4.9 121.216 4.58C120.716 4.24 120.056 4.08 119.236 4.08C118.416 4.08 117.756 4.24 117.236 4.6C116.716 4.94 116.296 5.36 115.996 5.86V4.24H114.176V15H115.996ZM138.325 7.38H140.225C140.045 6.36 139.585 5.54 138.845 4.94C138.105 4.34 137.145 4.04 135.985 4.04C135.385 4.04 134.825 4.12 134.305 4.24C133.785 4.38 133.325 4.58 132.945 4.84C132.545 5.1 132.245 5.42 132.025 5.78C131.785 6.14 131.685 6.56 131.685 7.04C131.685 7.56 131.765 7.98 131.945 8.32C132.125 8.66 132.365 8.94 132.665 9.18C132.945 9.42 133.285 9.6 133.645 9.72C134.005 9.84 134.385 9.94 134.745 10.02L136.345 10.34C136.625 10.42 136.905 10.5 137.165 10.58C137.425 10.66 137.665 10.78 137.865 10.92C138.065 11.06 138.225 11.22 138.345 11.42C138.465 11.62 138.525 11.86 138.525 12.12C138.525 12.64 138.265 13.02 137.785 13.3C137.305 13.58 136.705 13.72 136.025 13.72C135.225 13.72 134.605 13.54 134.165 13.14C133.725 12.76 133.425 12.22 133.285 11.52H131.365C131.405 12 131.545 12.46 131.765 12.9C131.985 13.36 132.285 13.76 132.685 14.1C133.085 14.46 133.545 14.74 134.105 14.94C134.645 15.16 135.265 15.26 135.985 15.26C136.585 15.26 137.165 15.2 137.705 15.04C138.225 14.9 138.685 14.68 139.085 14.4C139.485 14.12 139.785 13.76 140.025 13.34C140.245 12.94 140.365 12.46 140.365 11.92C140.365 11.4 140.265 10.96 140.065 10.6C139.865 10.24 139.585 9.94 139.245 9.7C138.905 9.46 138.525 9.26 138.085 9.1C137.645 8.94 137.165 8.82 136.685 8.72L135.165 8.42C134.645 8.32 134.225 8.16 133.945 7.94C133.665 7.72 133.525 7.4 133.525 6.96C133.525 6.72 133.585 6.52 133.725 6.34C133.845 6.18 134.025 6.04 134.245 5.92C134.465 5.8 134.705 5.72 134.985 5.68C135.245 5.64 135.505 5.6 135.785 5.6C136.425 5.6 136.965 5.74 137.425 6.02C137.865 6.3 138.165 6.74 138.325 7.38ZM148.659 9.66C148.659 8.94 148.739 8.32 148.919 7.8C149.099 7.3 149.339 6.88 149.639 6.56C149.939 6.24 150.279 6.02 150.679 5.88C151.059 5.74 151.459 5.66 151.879 5.66C152.279 5.66 152.679 5.74 153.079 5.88C153.459 6.04 153.799 6.26 154.099 6.58C154.399 6.9 154.639 7.32 154.819 7.82C154.999 8.34 155.099 8.94 155.099 9.66C155.099 10.36 154.999 10.96 154.819 11.46C154.639 11.96 154.399 12.38 154.099 12.7C153.799 13.02 153.459 13.26 153.079 13.42C152.679 13.58 152.279 13.66 151.879 13.66C151.459 13.66 151.059 13.6 150.679 13.44C150.279 13.3 149.939 13.06 149.639 12.74C149.339 12.42 149.099 12.02 148.919 11.5C148.739 11 148.659 10.38 148.659 9.66ZM151.879 4.06C151.239 4.06 150.619 4.18 150.019 4.4C149.399 4.62 148.839 4.96 148.339 5.4C147.859 5.86 147.459 6.44 147.159 7.14C146.859 7.86 146.699 8.7 146.699 9.66C146.699 10.64 146.859 11.48 147.159 12.18C147.459 12.9 147.859 13.48 148.339 13.92C148.839 14.38 149.399 14.72 150.019 14.94C150.619 15.16 151.239 15.26 151.879 15.26C152.499 15.26 153.119 15.16 153.739 14.94C154.339 14.72 154.899 14.38 155.399 13.92C155.879 13.48 156.279 12.9 156.579 12.18C156.879 11.48 157.039 10.64 157.039 9.66C157.039 8.7 156.879 7.86 156.579 7.14C156.279 6.44 155.879 5.86 155.399 5.4C154.899 4.96 154.339 4.62 153.739 4.4C153.119 4.18 152.499 4.06 151.879 4.06ZM159.773 3.46V4.24H158.273V5.7H159.773V15H161.593V5.7H163.613V4.24H161.593V3.36C161.593 3.08 161.593 2.86 161.633 2.68C161.653 2.52 161.713 2.38 161.793 2.28C161.873 2.18 161.973 2.12 162.133 2.08C162.273 2.04 162.473 2.02 162.713 2.02H163.613V0.5H162.673C162.053 0.5 161.553 0.559999 161.173 0.66C160.793 0.76 160.493 0.919999 160.293 1.14C160.093 1.38 159.953 1.68 159.873 2.06C159.793 2.44 159.773 2.9 159.773 3.46ZM178.209 4.24H176.309L173.649 12.54L170.909 4.24H168.889L172.769 15L172.689 15.22C172.569 15.66 172.429 15.98 172.289 16.22C172.149 16.46 171.989 16.62 171.829 16.74C171.649 16.86 171.449 16.92 171.209 16.96C170.969 16.98 170.709 17 170.409 17H169.669V18.52H170.609C171.209 18.52 171.709 18.46 172.109 18.36C172.509 18.26 172.829 18.1 173.089 17.86C173.369 17.62 173.589 17.32 173.769 16.94C173.969 16.54 174.149 16.06 174.349 15.48L178.209 4.24ZM180.69 9.66C180.69 8.94 180.77 8.32 180.95 7.8C181.13 7.3 181.37 6.88 181.67 6.56C181.97 6.24 182.31 6.02 182.71 5.88C183.09 5.74 183.49 5.66 183.91 5.66C184.31 5.66 184.71 5.74 185.11 5.88C185.49 6.04 185.83 6.26 186.13 6.58C186.43 6.9 186.67 7.32 186.85 7.82C187.03 8.34 187.13 8.94 187.13 9.66C187.13 10.36 187.03 10.96 186.85 11.46C186.67 11.96 186.43 12.38 186.13 12.7C185.83 13.02 185.49 13.26 185.11 13.42C184.71 13.58 184.31 13.66 183.91 13.66C183.49 13.66 183.09 13.6 182.71 13.44C182.31 13.3 181.97 13.06 181.67 12.74C181.37 12.42 181.13 12.02 180.95 11.5C180.77 11 180.69 10.38 180.69 9.66ZM183.91 4.06C183.27 4.06 182.65 4.18 182.05 4.4C181.43 4.62 180.87 4.96 180.37 5.4C179.89 5.86 179.49 6.44 179.19 7.14C178.89 7.86 178.73 8.7 178.73 9.66C178.73 10.64 178.89 11.48 179.19 12.18C179.49 12.9 179.89 13.48 180.37 13.92C180.87 14.38 181.43 14.72 182.05 14.94C182.65 15.16 183.27 15.26 183.91 15.26C184.53 15.26 185.15 15.16 185.77 14.94C186.37 14.72 186.93 14.38 187.43 13.92C187.91 13.48 188.31 12.9 188.61 12.18C188.91 11.48 189.07 10.64 189.07 9.66C189.07 8.7 188.91 7.86 188.61 7.14C188.31 6.44 187.91 5.86 187.43 5.4C186.93 4.96 186.37 4.62 185.77 4.4C185.15 4.18 184.53 4.06 183.91 4.06ZM197.907 13.46V15H199.727V4.24H197.907V10.16C197.907 11.32 197.667 12.2 197.187 12.8C196.707 13.4 196.027 13.68 195.167 13.68C194.667 13.68 194.267 13.6 193.967 13.44C193.667 13.28 193.447 13.04 193.287 12.76C193.127 12.48 193.007 12.14 192.967 11.78C192.927 11.4 192.907 11 192.907 10.58V4.24H191.087V11.12C191.087 11.74 191.147 12.3 191.267 12.8C191.387 13.32 191.587 13.76 191.867 14.12C192.147 14.48 192.487 14.76 192.927 14.96C193.367 15.16 193.887 15.26 194.527 15.26C195.407 15.26 196.127 15.1 196.647 14.74C197.167 14.4 197.587 13.98 197.907 13.46ZM207.974 6.14V4.2C207.854 4.2 207.774 4.18 207.694 4.18H207.434C206.714 4.22 206.094 4.4 205.574 4.72C205.054 5.04 204.654 5.52 204.394 6.12V4.24H202.614V15H204.434V9.36C204.434 8.18 204.634 7.34 205.054 6.82C205.474 6.32 206.114 6.06 206.954 6.06C207.094 6.06 207.254 6.08 207.434 6.08C207.594 6.1 207.774 6.12 207.974 6.14ZM216.289 4.24H214.469V15H216.289V4.24ZM216.289 0.5H214.469V2.7H216.289V0.5ZM226.556 0.5V5.94C226.216 5.38 225.756 4.92 225.176 4.58C224.616 4.24 223.896 4.06 223.016 4.06C222.416 4.06 221.816 4.2 221.256 4.44C220.696 4.7 220.216 5.06 219.796 5.54C219.376 6.02 219.036 6.62 218.796 7.3C218.556 8 218.416 8.78 218.416 9.66C218.416 10.56 218.556 11.36 218.796 12.06C219.036 12.74 219.376 13.34 219.796 13.82C220.216 14.3 220.696 14.66 221.256 14.9C221.816 15.14 222.416 15.28 223.016 15.28C223.896 15.28 224.616 15.1 225.176 14.76C225.756 14.42 226.216 13.96 226.556 13.4V15.02H228.376V0.519999L226.556 0.5ZM226.636 9.68C226.636 10.38 226.536 10.98 226.376 11.5C226.196 12.02 225.956 12.44 225.656 12.76C225.376 13.08 225.036 13.32 224.656 13.48C224.276 13.64 223.876 13.72 223.476 13.72C222.556 13.72 221.796 13.36 221.236 12.66C220.676 11.96 220.396 10.96 220.396 9.68C220.396 8.38 220.676 7.38 221.236 6.68C221.796 5.98 222.556 5.64 223.476 5.64C223.876 5.64 224.276 5.7 224.656 5.86C225.036 6.02 225.376 6.26 225.656 6.58C225.956 6.9 226.196 7.32 226.376 7.84C226.536 8.36 226.636 8.96 226.636 9.68ZM232.467 10.22H240.747C240.787 9.38 240.707 8.58 240.507 7.82C240.307 7.08 239.987 6.42 239.547 5.86C239.107 5.3 238.567 4.86 237.927 4.54C237.267 4.22 236.527 4.06 235.707 4.06C234.987 4.06 234.307 4.2 233.667 4.46C233.027 4.72 232.487 5.1 232.007 5.58C231.527 6.06 231.167 6.66 230.887 7.34C230.627 8.02 230.487 8.8 230.487 9.64C230.487 10.44 230.607 11.18 230.847 11.86C231.087 12.54 231.427 13.14 231.867 13.64C232.307 14.16 232.867 14.56 233.507 14.84C234.167 15.12 234.927 15.26 235.767 15.26C236.427 15.26 237.027 15.18 237.567 15C238.107 14.82 238.587 14.58 238.987 14.26C239.387 13.96 239.727 13.6 240.007 13.2C240.287 12.8 240.467 12.36 240.587 11.88H238.707C238.487 12.42 238.147 12.86 237.667 13.18C237.207 13.5 236.567 13.66 235.767 13.66C235.367 13.66 234.987 13.6 234.587 13.46C234.207 13.32 233.867 13.1 233.547 12.82C233.227 12.54 232.967 12.18 232.767 11.76C232.567 11.32 232.467 10.82 232.467 10.22ZM235.707 5.64C236.187 5.64 236.627 5.72 237.007 5.9C237.387 6.06 237.707 6.3 237.967 6.58C238.247 6.86 238.447 7.2 238.587 7.56C238.727 7.92 238.807 8.3 238.807 8.68H232.467C232.507 8.14 232.627 7.68 232.827 7.3C233.027 6.9 233.267 6.58 233.567 6.34C233.847 6.1 234.187 5.92 234.567 5.8C234.927 5.68 235.307 5.64 235.707 5.64ZM249.55 9.82V10.5C249.55 11.14 249.45 11.68 249.27 12.1C249.07 12.52 248.83 12.86 248.53 13.12C248.21 13.38 247.87 13.56 247.47 13.66C247.07 13.78 246.65 13.82 246.23 13.82C245.57 13.82 245.05 13.68 244.69 13.36C244.33 13.04 244.15 12.64 244.15 12.12C244.15 11.76 244.27 11.44 244.53 11.18C244.77 10.94 245.13 10.72 245.61 10.54C246.07 10.38 246.63 10.24 247.31 10.12C247.97 10 248.71 9.9 249.55 9.82ZM245.81 15.26C246.77 15.26 247.55 15.12 248.13 14.82C248.71 14.52 249.17 14.08 249.49 13.52C249.51 13.84 249.53 14.12 249.55 14.36C249.59 14.6 249.61 14.8 249.63 15H251.47C251.37 14.5 251.29 13.92 251.25 13.28C251.21 12.64 251.19 11.86 251.21 10.94L251.23 8.46C251.23 6.94 250.89 5.82 250.21 5.1C249.53 4.38 248.43 4.02 246.95 4.02C246.43 4.02 245.91 4.1 245.41 4.26C244.91 4.42 244.47 4.66 244.07 4.96C243.67 5.28 243.33 5.66 243.07 6.1C242.81 6.56 242.67 7.08 242.63 7.64H244.51C244.55 6.98 244.77 6.46 245.19 6.08C245.61 5.7 246.21 5.5 246.97 5.5C247.29 5.5 247.61 5.56 247.91 5.64C248.21 5.72 248.47 5.88 248.69 6.08C248.91 6.28 249.09 6.56 249.21 6.88C249.33 7.22 249.41 7.64 249.41 8.12V8.38C248.29 8.5 247.29 8.66 246.41 8.82C245.51 9 244.75 9.22 244.11 9.5C243.47 9.78 242.99 10.14 242.65 10.56C242.29 11 242.13 11.52 242.13 12.16C242.13 12.66 242.21 13.1 242.41 13.48C242.61 13.88 242.87 14.2 243.21 14.46C243.55 14.72 243.95 14.92 244.39 15.06C244.83 15.2 245.31 15.26 245.81 15.26ZM253.958 15H256.258V12.7H253.958V15ZM21.2239 24.5V39H23.2639V32.42H30.2239V30.66H23.2639V26.26H30.6439V24.5H21.2239ZM33.3753 33.66C33.3753 32.94 33.4553 32.32 33.6353 31.8C33.8153 31.3 34.0553 30.88 34.3553 30.56C34.6553 30.24 34.9953 30.02 35.3953 29.88C35.7753 29.74 36.1753 29.66 36.5953 29.66C36.9953 29.66 37.3953 29.74 37.7953 29.88C38.1753 30.04 38.5153 30.26 38.8153 30.58C39.1153 30.9 39.3553 31.32 39.5353 31.82C39.7153 32.34 39.8153 32.94 39.8153 33.66C39.8153 34.36 39.7153 34.96 39.5353 35.46C39.3553 35.96 39.1153 36.38 38.8153 36.7C38.5153 37.02 38.1753 37.26 37.7953 37.42C37.3953 37.58 36.9953 37.66 36.5953 37.66C36.1753 37.66 35.7753 37.6 35.3953 37.44C34.9953 37.3 34.6553 37.06 34.3553 36.74C34.0553 36.42 33.8153 36.02 33.6353 35.5C33.4553 35 33.3753 34.38 33.3753 33.66ZM36.5953 28.06C35.9553 28.06 35.3353 28.18 34.7353 28.4C34.1153 28.62 33.5553 28.96 33.0553 29.4C32.5753 29.86 32.1753 30.44 31.8753 31.14C31.5753 31.86 31.4153 32.7 31.4153 33.66C31.4153 34.64 31.5753 35.48 31.8753 36.18C32.1753 36.9 32.5753 37.48 33.0553 37.92C33.5553 38.38 34.1153 38.72 34.7353 38.94C35.3353 39.16 35.9553 39.26 36.5953 39.26C37.2153 39.26 37.8353 39.16 38.4553 38.94C39.0553 38.72 39.6153 38.38 40.1153 37.92C40.5953 37.48 40.9953 36.9 41.2953 36.18C41.5953 35.48 41.7553 34.64 41.7553 33.66C41.7553 32.7 41.5953 31.86 41.2953 31.14C40.9953 30.44 40.5953 29.86 40.1153 29.4C39.6153 28.96 39.0553 28.62 38.4553 28.4C37.8353 28.18 37.2153 28.06 36.5953 28.06ZM48.5484 28.06C47.7484 28.06 47.0284 28.2 46.3884 28.48C45.7484 28.76 45.1884 29.16 44.7484 29.66C44.3084 30.16 43.9484 30.74 43.7084 31.42C43.4684 32.1 43.3484 32.84 43.3484 33.64C43.3484 34.48 43.4484 35.24 43.6884 35.92C43.9284 36.6 44.2484 37.2 44.6884 37.68C45.1284 38.18 45.6484 38.56 46.2684 38.84C46.8884 39.12 47.5884 39.26 48.3684 39.26C48.9884 39.26 49.5684 39.16 50.1284 38.96C50.6684 38.76 51.1484 38.5 51.5684 38.14C51.9884 37.8 52.3284 37.4 52.6084 36.94C52.8884 36.5 53.0684 36.02 53.1684 35.5H51.2884C51.2084 35.78 51.1084 36.06 50.9484 36.32C50.7884 36.58 50.5684 36.8 50.3284 37C50.0884 37.2 49.7884 37.36 49.4684 37.48C49.1484 37.6 48.7884 37.66 48.4284 37.66C48.0284 37.66 47.6284 37.58 47.2684 37.42C46.8884 37.26 46.5484 37 46.2684 36.66C45.9884 36.34 45.7484 35.92 45.5884 35.4C45.4084 34.9 45.3284 34.3 45.3284 33.62C45.3284 32.94 45.4084 32.36 45.5884 31.86C45.7484 31.38 45.9884 30.96 46.2684 30.64C46.5484 30.32 46.8884 30.06 47.2684 29.9C47.6284 29.74 48.0284 29.66 48.4284 29.66C49.1284 29.66 49.7284 29.88 50.2484 30.28C50.7484 30.68 51.0684 31.2 51.2084 31.84H53.0484C52.9684 31.4 52.8284 30.94 52.6084 30.48C52.3684 30.04 52.0684 29.62 51.6884 29.26C51.2884 28.9 50.8284 28.62 50.3084 28.4C49.7884 28.18 49.1884 28.06 48.5484 28.06ZM61.8813 37.46V39H63.7013V28.24H61.8813V34.16C61.8813 35.32 61.6413 36.2 61.1613 36.8C60.6813 37.4 60.0013 37.68 59.1413 37.68C58.6413 37.68 58.2413 37.6 57.9413 37.44C57.6413 37.28 57.4213 37.04 57.2613 36.76C57.1013 36.48 56.9813 36.14 56.9413 35.78C56.9013 35.4 56.8813 35 56.8813 34.58V28.24H55.0613V35.12C55.0613 35.74 55.1213 36.3 55.2413 36.8C55.3613 37.32 55.5613 37.76 55.8413 38.12C56.1213 38.48 56.4613 38.76 56.9013 38.96C57.3413 39.16 57.8613 39.26 58.5013 39.26C59.3813 39.26 60.1013 39.1 60.6213 38.74C61.1413 38.4 61.5613 37.98 61.8813 37.46ZM72.7484 31.38H74.6484C74.4684 30.36 74.0084 29.54 73.2684 28.94C72.5284 28.34 71.5684 28.04 70.4084 28.04C69.8084 28.04 69.2484 28.12 68.7284 28.24C68.2084 28.38 67.7484 28.58 67.3684 28.84C66.9684 29.1 66.6684 29.42 66.4484 29.78C66.2084 30.14 66.1084 30.56 66.1084 31.04C66.1084 31.56 66.1884 31.98 66.3684 32.32C66.5484 32.66 66.7884 32.94 67.0884 33.18C67.3684 33.42 67.7084 33.6 68.0684 33.72C68.4284 33.84 68.8084 33.94 69.1684 34.02L70.7684 34.34C71.0484 34.42 71.3284 34.5 71.5884 34.58C71.8484 34.66 72.0884 34.78 72.2884 34.92C72.4884 35.06 72.6484 35.22 72.7684 35.42C72.8884 35.62 72.9484 35.86 72.9484 36.12C72.9484 36.64 72.6884 37.02 72.2084 37.3C71.7284 37.58 71.1284 37.72 70.4484 37.72C69.6484 37.72 69.0284 37.54 68.5884 37.14C68.1484 36.76 67.8484 36.22 67.7084 35.52H65.7884C65.8284 36 65.9684 36.46 66.1884 36.9C66.4084 37.36 66.7084 37.76 67.1084 38.1C67.5084 38.46 67.9684 38.74 68.5284 38.94C69.0684 39.16 69.6884 39.26 70.4084 39.26C71.0084 39.26 71.5884 39.2 72.1284 39.04C72.6484 38.9 73.1084 38.68 73.5084 38.4C73.9084 38.12 74.2084 37.76 74.4484 37.34C74.6684 36.94 74.7884 36.46 74.7884 35.92C74.7884 35.4 74.6884 34.96 74.4884 34.6C74.2884 34.24 74.0084 33.94 73.6684 33.7C73.3284 33.46 72.9484 33.26 72.5084 33.1C72.0684 32.94 71.5884 32.82 71.1084 32.72L69.5884 32.42C69.0684 32.32 68.6484 32.16 68.3684 31.94C68.0884 31.72 67.9484 31.4 67.9484 30.96C67.9484 30.72 68.0084 30.52 68.1484 30.34C68.2684 30.18 68.4484 30.04 68.6684 29.92C68.8884 29.8 69.1284 29.72 69.4084 29.68C69.6684 29.64 69.9284 29.6 70.2084 29.6C70.8484 29.6 71.3884 29.74 71.8484 30.02C72.2884 30.3 72.5884 30.74 72.7484 31.38ZM83.0823 33.66C83.0823 32.94 83.1623 32.32 83.3423 31.8C83.5223 31.3 83.7623 30.88 84.0623 30.56C84.3623 30.24 84.7023 30.02 85.1023 29.88C85.4823 29.74 85.8823 29.66 86.3023 29.66C86.7023 29.66 87.1023 29.74 87.5023 29.88C87.8823 30.04 88.2223 30.26 88.5223 30.58C88.8223 30.9 89.0623 31.32 89.2423 31.82C89.4223 32.34 89.5223 32.94 89.5223 33.66C89.5223 34.36 89.4223 34.96 89.2423 35.46C89.0623 35.96 88.8223 36.38 88.5223 36.7C88.2223 37.02 87.8823 37.26 87.5023 37.42C87.1023 37.58 86.7023 37.66 86.3023 37.66C85.8823 37.66 85.4823 37.6 85.1023 37.44C84.7023 37.3 84.3623 37.06 84.0623 36.74C83.7623 36.42 83.5223 36.02 83.3423 35.5C83.1623 35 83.0823 34.38 83.0823 33.66ZM86.3023 28.06C85.6623 28.06 85.0423 28.18 84.4423 28.4C83.8223 28.62 83.2623 28.96 82.7623 29.4C82.2823 29.86 81.8823 30.44 81.5823 31.14C81.2823 31.86 81.1223 32.7 81.1223 33.66C81.1223 34.64 81.2823 35.48 81.5823 36.18C81.8823 36.9 82.2823 37.48 82.7623 37.92C83.2623 38.38 83.8223 38.72 84.4423 38.94C85.0423 39.16 85.6623 39.26 86.3023 39.26C86.9223 39.26 87.5423 39.16 88.1623 38.94C88.7623 38.72 89.3223 38.38 89.8223 37.92C90.3023 37.48 90.7023 36.9 91.0023 36.18C91.3023 35.48 91.4623 34.64 91.4623 33.66C91.4623 32.7 91.3023 31.86 91.0023 31.14C90.7023 30.44 90.3023 29.86 89.8223 29.4C89.3223 28.96 88.7623 28.62 88.1623 28.4C87.5423 28.18 86.9223 28.06 86.3023 28.06ZM95.4592 29.86V28.24H93.6392V39H95.4592V33.16C95.4592 32 95.6992 31.14 96.2192 30.54C96.7192 29.94 97.4192 29.64 98.2992 29.64C98.8192 29.64 99.2192 29.74 99.5392 29.9C99.8592 30.06 100.099 30.3 100.259 30.58C100.419 30.86 100.519 31.2 100.579 31.56C100.619 31.94 100.659 32.34 100.659 32.74V39H102.479V32.2C102.479 31.6 102.399 31.04 102.279 30.52C102.159 30.02 101.959 29.58 101.679 29.22C101.399 28.86 101.019 28.58 100.579 28.38C100.139 28.18 99.5792 28.08 98.9392 28.08C98.0192 28.08 97.2992 28.24 96.7392 28.6C96.1792 28.94 95.7592 29.36 95.4592 29.86ZM110.468 25.54V28.24H108.768V29.7H110.468V36.3C110.468 36.86 110.488 37.32 110.568 37.68C110.648 38.04 110.768 38.3 110.968 38.5C111.148 38.7 111.408 38.82 111.728 38.9C112.048 38.98 112.468 39.02 112.988 39.02H114.308V37.5H113.388C113.128 37.5 112.928 37.48 112.788 37.44C112.628 37.4 112.528 37.32 112.448 37.22C112.368 37.1 112.328 36.96 112.308 36.78C112.288 36.6 112.288 36.38 112.288 36.1V29.72H114.328V28.26H112.288V25.56L110.468 25.54ZM118.467 29.86V24.5H116.647V39H118.467V33.16C118.467 32 118.707 31.14 119.227 30.54C119.727 29.94 120.427 29.64 121.307 29.64C121.827 29.64 122.227 29.74 122.547 29.9C122.867 30.06 123.107 30.3 123.267 30.58C123.427 30.86 123.527 31.2 123.587 31.56C123.627 31.94 123.667 32.34 123.667 32.74V39H125.487V32.2C125.487 31.6 125.407 31.04 125.287 30.52C125.167 30.02 124.967 29.58 124.687 29.22C124.407 28.86 124.027 28.58 123.587 28.38C123.147 28.18 122.587 28.08 121.947 28.08C121.027 28.08 120.307 28.24 119.747 28.6C119.187 28.94 118.767 29.36 118.467 29.86ZM129.43 34.22H137.71C137.75 33.38 137.67 32.58 137.47 31.82C137.27 31.08 136.95 30.42 136.51 29.86C136.07 29.3 135.53 28.86 134.89 28.54C134.23 28.22 133.49 28.06 132.67 28.06C131.95 28.06 131.27 28.2 130.63 28.46C129.99 28.72 129.45 29.1 128.97 29.58C128.49 30.06 128.13 30.66 127.85 31.34C127.59 32.02 127.45 32.8 127.45 33.64C127.45 34.44 127.57 35.18 127.81 35.86C128.05 36.54 128.39 37.14 128.83 37.64C129.27 38.16 129.83 38.56 130.47 38.84C131.13 39.12 131.89 39.26 132.73 39.26C133.39 39.26 133.99 39.18 134.53 39C135.07 38.82 135.55 38.58 135.95 38.26C136.35 37.96 136.69 37.6 136.97 37.2C137.25 36.8 137.43 36.36 137.55 35.88H135.67C135.45 36.42 135.11 36.86 134.63 37.18C134.17 37.5 133.53 37.66 132.73 37.66C132.33 37.66 131.95 37.6 131.55 37.46C131.17 37.32 130.83 37.1 130.51 36.82C130.19 36.54 129.93 36.18 129.73 35.76C129.53 35.32 129.43 34.82 129.43 34.22ZM132.67 29.64C133.15 29.64 133.59 29.72 133.97 29.9C134.35 30.06 134.67 30.3 134.93 30.58C135.21 30.86 135.41 31.2 135.55 31.56C135.69 31.92 135.77 32.3 135.77 32.68H129.43C129.47 32.14 129.59 31.68 129.79 31.3C129.99 30.9 130.23 30.58 130.53 30.34C130.81 30.1 131.15 29.92 131.53 29.8C131.89 29.68 132.27 29.64 132.67 29.64ZM145.797 34.22H154.077C154.117 33.38 154.037 32.58 153.837 31.82C153.637 31.08 153.317 30.42 152.877 29.86C152.437 29.3 151.897 28.86 151.257 28.54C150.597 28.22 149.857 28.06 149.037 28.06C148.317 28.06 147.637 28.2 146.997 28.46C146.357 28.72 145.817 29.1 145.337 29.58C144.857 30.06 144.497 30.66 144.217 31.34C143.957 32.02 143.817 32.8 143.817 33.64C143.817 34.44 143.937 35.18 144.177 35.86C144.417 36.54 144.757 37.14 145.197 37.64C145.637 38.16 146.197 38.56 146.837 38.84C147.497 39.12 148.257 39.26 149.097 39.26C149.757 39.26 150.357 39.18 150.897 39C151.437 38.82 151.917 38.58 152.317 38.26C152.717 37.96 153.057 37.6 153.337 37.2C153.617 36.8 153.797 36.36 153.917 35.88H152.037C151.817 36.42 151.477 36.86 150.997 37.18C150.537 37.5 149.897 37.66 149.097 37.66C148.697 37.66 148.317 37.6 147.917 37.46C147.537 37.32 147.197 37.1 146.877 36.82C146.557 36.54 146.297 36.18 146.097 35.76C145.897 35.32 145.797 34.82 145.797 34.22ZM149.037 29.64C149.517 29.64 149.957 29.72 150.337 29.9C150.717 30.06 151.037 30.3 151.297 30.58C151.577 30.86 151.777 31.2 151.917 31.56C152.057 31.92 152.137 32.3 152.137 32.68H145.797C145.837 32.14 145.957 31.68 146.157 31.3C146.357 30.9 146.597 30.58 146.897 30.34C147.177 30.1 147.517 29.92 147.897 29.8C148.257 29.68 148.637 29.64 149.037 29.64ZM162.397 31.38H164.297C164.117 30.36 163.657 29.54 162.917 28.94C162.177 28.34 161.217 28.04 160.057 28.04C159.457 28.04 158.897 28.12 158.377 28.24C157.857 28.38 157.397 28.58 157.017 28.84C156.617 29.1 156.317 29.42 156.097 29.78C155.857 30.14 155.757 30.56 155.757 31.04C155.757 31.56 155.837 31.98 156.017 32.32C156.197 32.66 156.437 32.94 156.737 33.18C157.017 33.42 157.357 33.6 157.717 33.72C158.077 33.84 158.457 33.94 158.817 34.02L160.417 34.34C160.697 34.42 160.977 34.5 161.237 34.58C161.497 34.66 161.737 34.78 161.937 34.92C162.137 35.06 162.297 35.22 162.417 35.42C162.537 35.62 162.597 35.86 162.597 36.12C162.597 36.64 162.337 37.02 161.857 37.3C161.377 37.58 160.777 37.72 160.097 37.72C159.297 37.72 158.677 37.54 158.237 37.14C157.797 36.76 157.497 36.22 157.357 35.52H155.437C155.477 36 155.617 36.46 155.837 36.9C156.057 37.36 156.357 37.76 156.757 38.1C157.157 38.46 157.617 38.74 158.177 38.94C158.717 39.16 159.337 39.26 160.057 39.26C160.657 39.26 161.237 39.2 161.777 39.04C162.297 38.9 162.757 38.68 163.157 38.4C163.557 38.12 163.857 37.76 164.097 37.34C164.317 36.94 164.437 36.46 164.437 35.92C164.437 35.4 164.337 34.96 164.137 34.6C163.937 34.24 163.657 33.94 163.317 33.7C162.977 33.46 162.597 33.26 162.157 33.1C161.717 32.94 161.237 32.82 160.757 32.72L159.237 32.42C158.717 32.32 158.297 32.16 158.017 31.94C157.737 31.72 157.597 31.4 157.597 30.96C157.597 30.72 157.657 30.52 157.797 30.34C157.917 30.18 158.097 30.04 158.317 29.92C158.537 29.8 158.777 29.72 159.057 29.68C159.317 29.64 159.577 29.6 159.857 29.6C160.497 29.6 161.037 29.74 161.497 30.02C161.937 30.3 162.237 30.74 162.397 31.38ZM172.905 31.38H174.805C174.625 30.36 174.165 29.54 173.425 28.94C172.685 28.34 171.725 28.04 170.565 28.04C169.965 28.04 169.405 28.12 168.885 28.24C168.365 28.38 167.905 28.58 167.525 28.84C167.125 29.1 166.825 29.42 166.605 29.78C166.365 30.14 166.265 30.56 166.265 31.04C166.265 31.56 166.345 31.98 166.525 32.32C166.705 32.66 166.945 32.94 167.245 33.18C167.525 33.42 167.865 33.6 168.225 33.72C168.585 33.84 168.965 33.94 169.325 34.02L170.925 34.34C171.205 34.42 171.485 34.5 171.745 34.58C172.005 34.66 172.245 34.78 172.445 34.92C172.645 35.06 172.805 35.22 172.925 35.42C173.045 35.62 173.105 35.86 173.105 36.12C173.105 36.64 172.845 37.02 172.365 37.3C171.885 37.58 171.285 37.72 170.605 37.72C169.805 37.72 169.185 37.54 168.745 37.14C168.305 36.76 168.005 36.22 167.865 35.52H165.945C165.985 36 166.125 36.46 166.345 36.9C166.565 37.36 166.865 37.76 167.265 38.1C167.665 38.46 168.125 38.74 168.685 38.94C169.225 39.16 169.845 39.26 170.565 39.26C171.165 39.26 171.745 39.2 172.285 39.04C172.805 38.9 173.265 38.68 173.665 38.4C174.065 38.12 174.365 37.76 174.605 37.34C174.825 36.94 174.945 36.46 174.945 35.92C174.945 35.4 174.845 34.96 174.645 34.6C174.445 34.24 174.165 33.94 173.825 33.7C173.485 33.46 173.105 33.26 172.665 33.1C172.225 32.94 171.745 32.82 171.265 32.72L169.745 32.42C169.225 32.32 168.805 32.16 168.525 31.94C168.245 31.72 168.105 31.4 168.105 30.96C168.105 30.72 168.165 30.52 168.305 30.34C168.425 30.18 168.605 30.04 168.825 29.92C169.045 29.8 169.285 29.72 169.565 29.68C169.825 29.64 170.085 29.6 170.365 29.6C171.005 29.6 171.545 29.74 172.005 30.02C172.445 30.3 172.745 30.74 172.905 31.38ZM178.473 34.22H186.753C186.793 33.38 186.713 32.58 186.513 31.82C186.313 31.08 185.993 30.42 185.553 29.86C185.113 29.3 184.573 28.86 183.933 28.54C183.273 28.22 182.533 28.06 181.713 28.06C180.993 28.06 180.313 28.2 179.673 28.46C179.033 28.72 178.493 29.1 178.013 29.58C177.533 30.06 177.173 30.66 176.893 31.34C176.633 32.02 176.493 32.8 176.493 33.64C176.493 34.44 176.613 35.18 176.853 35.86C177.093 36.54 177.433 37.14 177.873 37.64C178.312 38.16 178.873 38.56 179.513 38.84C180.173 39.12 180.933 39.26 181.773 39.26C182.433 39.26 183.033 39.18 183.573 39C184.113 38.82 184.593 38.58 184.993 38.26C185.393 37.96 185.733 37.6 186.013 37.2C186.293 36.8 186.473 36.36 186.593 35.88H184.713C184.493 36.42 184.153 36.86 183.673 37.18C183.213 37.5 182.573 37.66 181.773 37.66C181.373 37.66 180.993 37.6 180.593 37.46C180.213 37.32 179.873 37.1 179.553 36.82C179.233 36.54 178.973 36.18 178.773 35.76C178.573 35.32 178.473 34.82 178.473 34.22ZM181.713 29.64C182.193 29.64 182.633 29.72 183.013 29.9C183.393 30.06 183.713 30.3 183.973 30.58C184.253 30.86 184.453 31.2 184.593 31.56C184.733 31.92 184.813 32.3 184.813 32.68H178.473C178.513 32.14 178.633 31.68 178.833 31.3C179.033 30.9 179.273 30.58 179.573 30.34C179.853 30.1 180.193 29.92 180.573 29.8C180.933 29.68 181.313 29.64 181.713 29.64ZM190.694 29.86V28.24H188.874V39H190.694V33.16C190.694 32 190.934 31.14 191.454 30.54C191.954 29.94 192.654 29.64 193.534 29.64C194.054 29.64 194.454 29.74 194.774 29.9C195.094 30.06 195.334 30.3 195.494 30.58C195.654 30.86 195.754 31.2 195.814 31.56C195.854 31.94 195.894 32.34 195.894 32.74V39H197.714V32.2C197.714 31.6 197.634 31.04 197.514 30.52C197.394 30.02 197.194 29.58 196.914 29.22C196.634 28.86 196.254 28.58 195.814 28.38C195.374 28.18 194.814 28.08 194.174 28.08C193.254 28.08 192.534 28.24 191.974 28.6C191.414 28.94 190.994 29.36 190.694 29.86ZM200.956 25.54V28.24H199.256V29.7H200.956V36.3C200.956 36.86 200.976 37.32 201.056 37.68C201.136 38.04 201.256 38.3 201.456 38.5C201.636 38.7 201.896 38.82 202.216 38.9C202.536 38.98 202.956 39.02 203.476 39.02H204.796V37.5H203.876C203.616 37.5 203.416 37.48 203.276 37.44C203.116 37.4 203.016 37.32 202.936 37.22C202.856 37.1 202.816 36.96 202.796 36.78C202.776 36.6 202.776 36.38 202.776 36.1V29.72H204.816V28.26H202.776V25.56L200.956 25.54ZM208.955 28.24H207.135V39H208.955V28.24ZM208.955 24.5H207.135V26.7H208.955V24.5ZM218.622 33.82V34.5C218.622 35.14 218.522 35.68 218.342 36.1C218.142 36.52 217.902 36.86 217.602 37.12C217.282 37.38 216.942 37.56 216.542 37.66C216.142 37.78 215.722 37.82 215.302 37.82C214.642 37.82 214.122 37.68 213.762 37.36C213.402 37.04 213.222 36.64 213.222 36.12C213.222 35.76 213.342 35.44 213.602 35.18C213.842 34.94 214.202 34.72 214.682 34.54C215.142 34.38 215.702 34.24 216.382 34.12C217.042 34 217.782 33.9 218.622 33.82ZM214.882 39.26C215.842 39.26 216.622 39.12 217.202 38.82C217.782 38.52 218.242 38.08 218.562 37.52C218.582 37.84 218.602 38.12 218.622 38.36C218.662 38.6 218.682 38.8 218.702 39H220.542C220.442 38.5 220.362 37.92 220.322 37.28C220.282 36.64 220.262 35.86 220.282 34.94L220.302 32.46C220.302 30.94 219.962 29.82 219.282 29.1C218.602 28.38 217.502 28.02 216.022 28.02C215.502 28.02 214.982 28.1 214.482 28.26C213.982 28.42 213.542 28.66 213.142 28.96C212.742 29.28 212.402 29.66 212.142 30.1C211.882 30.56 211.742 31.08 211.702 31.64H213.582C213.622 30.98 213.842 30.46 214.262 30.08C214.682 29.7 215.282 29.5 216.042 29.5C216.362 29.5 216.682 29.56 216.982 29.64C217.282 29.72 217.542 29.88 217.762 30.08C217.982 30.28 218.162 30.56 218.282 30.88C218.402 31.22 218.482 31.64 218.482 32.12V32.38C217.362 32.5 216.362 32.66 215.482 32.82C214.582 33 213.822 33.22 213.182 33.5C212.542 33.78 212.062 34.14 211.722 34.56C211.362 35 211.202 35.52 211.202 36.16C211.202 36.66 211.282 37.1 211.482 37.48C211.682 37.88 211.942 38.2 212.282 38.46C212.622 38.72 213.022 38.92 213.462 39.06C213.902 39.2 214.382 39.26 214.882 39.26ZM224.834 39V24.5H223.014V39H224.834ZM233.881 31.38H235.781C235.601 30.36 235.141 29.54 234.401 28.94C233.661 28.34 232.701 28.04 231.541 28.04C230.941 28.04 230.381 28.12 229.861 28.24C229.341 28.38 228.881 28.58 228.501 28.84C228.101 29.1 227.801 29.42 227.581 29.78C227.341 30.14 227.241 30.56 227.241 31.04C227.241 31.56 227.321 31.98 227.501 32.32C227.681 32.66 227.921 32.94 228.221 33.18C228.501 33.42 228.841 33.6 229.201 33.72C229.561 33.84 229.941 33.94 230.301 34.02L231.901 34.34C232.181 34.42 232.461 34.5 232.721 34.58C232.981 34.66 233.221 34.78 233.421 34.92C233.621 35.06 233.781 35.22 233.901 35.42C234.021 35.62 234.081 35.86 234.081 36.12C234.081 36.64 233.821 37.02 233.341 37.3C232.861 37.58 232.261 37.72 231.581 37.72C230.781 37.72 230.161 37.54 229.721 37.14C229.281 36.76 228.981 36.22 228.841 35.52H226.921C226.961 36 227.101 36.46 227.321 36.9C227.541 37.36 227.841 37.76 228.241 38.1C228.641 38.46 229.101 38.74 229.661 38.94C230.201 39.16 230.821 39.26 231.541 39.26C232.141 39.26 232.721 39.2 233.261 39.04C233.781 38.9 234.241 38.68 234.641 38.4C235.041 38.12 235.341 37.76 235.581 37.34C235.801 36.94 235.921 36.46 235.921 35.92C235.921 35.4 235.821 34.96 235.621 34.6C235.421 34.24 235.141 33.94 234.801 33.7C234.461 33.46 234.081 33.26 233.641 33.1C233.201 32.94 232.721 32.82 232.241 32.72L230.721 32.42C230.201 32.32 229.781 32.16 229.501 31.94C229.221 31.72 229.081 31.4 229.081 30.96C229.081 30.72 229.141 30.52 229.281 30.34C229.401 30.18 229.581 30.04 229.801 29.92C230.021 29.8 230.261 29.72 230.541 29.68C230.801 29.64 231.061 29.6 231.341 29.6C231.981 29.6 232.521 29.74 232.981 30.02C233.421 30.3 233.721 30.74 233.881 31.38ZM237.894 39H240.194V36.7H237.894V39Z" fill="url(#paint0_linear_415_3314)"/>
<defs>
<linearGradient id="paint0_linear_415_3314" x1="130.5" y1="-4" x2="130.5" y2="55" gradientUnits="userSpaceOnUse">
<stop stop-color="white"/>
<stop offset="1" stop-color="#C4C4C4" stop-opacity="0"/>
</linearGradient>
</defs>
</svg>
