<svg width="733" height="375" viewBox="0 0 733 375" fill="none" xmlns="http://www.w3.org/2000/svg">
<g clip-path="url(#clip0_723_6213)">
<path d="M541.851 207.226C583.431 207.226 617.138 173.492 617.138 131.879C617.138 90.2665 583.431 56.5327 541.851 56.5327C500.271 56.5327 466.564 90.2665 466.564 131.879C466.564 173.492 500.271 207.226 541.851 207.226Z" stroke="#4B4B4B" stroke-width="1.5" stroke-miterlimit="10"/>
<path d="M395.062 360.973C392.048 361.34 388.974 361.529 385.862 361.529C344.279 361.529 310.575 327.793 310.575 286.183C310.575 244.573 344.285 210.836 385.862 210.836C427.44 210.836 461.15 244.573 461.15 286.183C461.15 315.251 444.707 340.471 420.618 353.04" stroke="#4B4B4B" stroke-width="1.5" stroke-miterlimit="10"/>
<path d="M28.9425 345.247C11.5565 331.447 0.404449 310.118 0.404449 286.183C0.404449 244.567 34.1141 210.836 75.6916 210.836C117.269 210.836 150.979 244.573 150.979 286.183C150.979 325.829 120.386 358.324 81.5319 361.308" stroke="#4B4B4B" stroke-width="1.5" stroke-miterlimit="10"/>
<path d="M190.227 70.8454C202.63 61.8433 217.891 56.5327 234.387 56.5327C275.97 56.5327 309.675 90.2689 309.675 131.879C309.675 173.489 275.965 207.226 234.387 207.226C192.81 207.226 159.1 173.489 159.1 131.879C159.1 120.832 161.473 110.34 165.744 100.89" stroke="#4B4B4B" stroke-width="1.5" stroke-miterlimit="10"/>
<path d="M139.368 246.364C180.201 246.364 213.302 237.881 213.302 227.416C213.302 216.951 180.201 208.467 139.368 208.467C98.536 208.467 65.4348 216.951 65.4348 227.416C65.4348 237.881 98.536 246.364 139.368 246.364Z" stroke="#4B4B4B" stroke-width="1.5" stroke-miterlimit="10"/>
<path d="M447.625 245.123C488.457 245.123 521.558 236.639 521.558 226.174C521.558 215.709 488.457 207.226 447.625 207.226C406.792 207.226 373.691 215.709 373.691 226.174C373.691 236.639 406.792 245.123 447.625 245.123Z" stroke="#4B4B4B" stroke-width="1.5" stroke-miterlimit="10"/>
<path d="M325.001 207.226C365.833 207.226 398.934 198.742 398.934 188.277C398.934 177.812 365.833 169.329 325.001 169.329C284.168 169.329 251.067 177.812 251.067 188.277C251.067 198.742 284.168 207.226 325.001 207.226Z" stroke="#4B4B4B" stroke-width="1.5" stroke-miterlimit="10"/>
<path d="M227.62 131.426C227.62 131.426 124.619 148.567 83.6351 204.517" stroke="#4B4B4B" stroke-width="1.5" stroke-miterlimit="10"/>
<path d="M138.36 223.471C153.686 163.014 227.625 131.431 227.625 131.431" stroke="#4B4B4B" stroke-width="1.5" stroke-miterlimit="10"/>
<path d="M145.947 245.128C145.947 245.128 266.091 361.745 328.527 207.231" stroke="#4B4B4B" stroke-width="1.5" stroke-miterlimit="10"/>
<path d="M501.724 250.542H346.641V320.022H501.724V250.542Z" stroke="#4B4B4B" stroke-width="1.5" stroke-miterlimit="10"/>
<path d="M502.177 320.475L541.851 285.281V206.778L501.277 250.088L444.017 226.174L346.641 250.542" stroke="#4B4B4B" stroke-width="1.5" stroke-miterlimit="10"/>
<path d="M196.062 250.542H40.979V320.022H196.062V250.542Z" stroke="#4B4B4B" stroke-width="1.5" stroke-miterlimit="10"/>
<path d="M236.189 206.778L195.614 250.088" stroke="#4B4B4B" stroke-width="1.5" stroke-miterlimit="10"/>
<path d="M196.515 320.475L236.189 285.281V206.778" stroke="#4B4B4B" stroke-width="1.5" stroke-miterlimit="10"/>
<path d="M346.641 250.542L389.918 207.226H541.398L444.017 226.174" stroke="#4B4B4B" stroke-width="1.5" stroke-miterlimit="10"/>
<path d="M346.641 320.022L347.245 319.487" stroke="#4B4B4B" stroke-width="1.5" stroke-miterlimit="10"/>
<path d="M348.464 318.408L385.409 285.735L540.228 285.287" stroke="#4B4B4B" stroke-width="1.5" stroke-miterlimit="10" stroke-dasharray="3.02 3.02"/>
<path d="M541.042 285.281H541.851" stroke="#4B4B4B" stroke-width="1.5" stroke-miterlimit="10"/>
<path d="M331.078 207.226C331.078 207.226 348.518 304.899 416.789 285.281C473.321 269.037 408.404 158.049 541.846 131.879C541.846 131.879 616.124 108.251 638.774 197.301C651.398 246.931 647.79 287.537 691.973 284.828" stroke="#4B4B4B" stroke-width="1.5" stroke-miterlimit="10"/>
<path d="M236.243 286.296C239.48 286.296 242.104 283.67 242.104 280.43C242.104 277.19 239.48 274.563 236.243 274.563C233.005 274.563 230.381 277.19 230.381 280.43C230.381 283.67 233.005 286.296 236.243 286.296Z" stroke="#4B4B4B" stroke-width="1.5" stroke-miterlimit="10"/>
<path d="M75.6917 291.148C78.9291 291.148 81.5535 288.521 81.5535 285.281C81.5535 282.042 78.9291 279.415 75.6917 279.415C72.4542 279.415 69.8298 282.042 69.8298 285.281C69.8298 288.521 72.4542 291.148 75.6917 291.148Z" stroke="#4B4B4B" stroke-width="1.5" stroke-miterlimit="10"/>
<path d="M385.862 286.636C389.1 286.636 391.724 284.01 391.724 280.77C391.724 277.53 389.1 274.903 385.862 274.903C382.625 274.903 380.001 277.53 380.001 280.77C380.001 284.01 382.625 286.636 385.862 286.636Z" stroke="#4B4B4B" stroke-width="1.5" stroke-miterlimit="10"/>
<path d="M232.84 135.35C236.077 135.35 238.702 132.723 238.702 129.483C238.702 126.243 236.077 123.617 232.84 123.617C229.602 123.617 226.978 126.243 226.978 129.483C226.978 132.723 229.602 135.35 232.84 135.35Z" stroke="#4B4B4B" stroke-width="1.5" stroke-miterlimit="10"/>
<path d="M138.053 229.596C141.29 229.596 143.914 226.969 143.914 223.729C143.914 220.49 141.29 217.863 138.053 217.863C134.815 217.863 132.191 220.49 132.191 223.729C132.191 226.969 134.815 229.596 138.053 229.596Z" fill="#4B4B4B" stroke="#4B4B4B" stroke-width="1.5" stroke-miterlimit="10"/>
<path d="M339.728 169.706C339.728 169.706 397.133 57.4342 444.017 206.325" stroke="#4B4B4B" stroke-width="1.5" stroke-miterlimit="10"/>
<path d="M256.158 195.201C256.158 195.201 262.516 277.612 382.12 285.281" stroke="#4B4B4B" stroke-width="1.5" stroke-miterlimit="10"/>
<path d="M79.3964 289.934C79.3964 289.934 110.437 309.201 130.244 274.903C134.413 267.682 135.065 257.995 138.36 245.123" stroke="#4B4B4B" stroke-width="1.5" stroke-miterlimit="10"/>
<path d="M212.871 231.663C212.871 231.663 184.451 282.772 159.095 299.265C141.062 310.998 102.288 323.627 75.2387 291.143" stroke="#4B4B4B" stroke-width="1.5" stroke-miterlimit="10"/>
<path d="M694.68 131.426H541.398V284.828H694.68V131.426Z" stroke="#4B4B4B" stroke-width="1.5" stroke-miterlimit="10"/>
<path d="M694.68 131.426L732.547 96.238V245.128L694.68 284.828" stroke="#4B4B4B" stroke-width="1.5" stroke-miterlimit="10"/>
<path d="M732.547 96.238H582.873L541.398 131.426" stroke="#4B4B4B" stroke-width="1.5" stroke-miterlimit="10"/>
<path d="M732.547 245.128L545.006 135.938" stroke="#4B4B4B" stroke-width="1.5" stroke-miterlimit="10"/>
<path d="M636.973 113.379V263.176L728.039 175.643L636.973 113.379Z" stroke="#4B4B4B" stroke-width="1.5" stroke-miterlimit="10"/>
<path d="M636.973 113.379L541.851 207.226H733" stroke="#4B4B4B" stroke-width="1.5" stroke-miterlimit="10"/>
<path d="M636.973 263.176L541.398 207.226" stroke="#4B4B4B" stroke-width="1.5" stroke-miterlimit="10"/>
<path d="M444.017 301.073L388.688 208.462" stroke="#4B4B4B" stroke-width="1.5" stroke-miterlimit="10" stroke-dasharray="3 3"/>
<path d="M309.675 129.17H379.553" stroke="#4B4B4B" stroke-width="1.5" stroke-miterlimit="10"/>
<path d="M240.244 52.9224H387.216L385.862 210.836L328.608 112.477" stroke="#4B4B4B" stroke-width="1.5" stroke-miterlimit="10"/>
<path d="M331.078 16.8276H274.509L240.244 52.9223" stroke="#4B4B4B" stroke-width="1.5" stroke-miterlimit="10"/>
<path d="M309.675 129.17L424.183 16.8276H398.934" stroke="#4B4B4B" stroke-width="1.5" stroke-miterlimit="10"/>
<path d="M424.183 16.8276V171.131L385.884 208.462C385.884 208.462 235.218 207.226 236.642 207.226L83.813 204.517L40.9844 250.536" stroke="#4B4B4B" stroke-width="1.5" stroke-miterlimit="10"/>
<path d="M424.183 95.3259H344.835" stroke="#4B4B4B" stroke-width="1.5" stroke-miterlimit="10"/>
<path d="M391.724 126.013L424.183 95.3259" stroke="#4B4B4B" stroke-width="1.5" stroke-miterlimit="10"/>
<path d="M274.509 16.8276L328.527 110.675" stroke="#4B4B4B" stroke-width="1.5" stroke-miterlimit="10" stroke-dasharray="3 3"/>
<path d="M402.035 192.719C402.035 192.719 397.964 137.913 307.836 115.268" stroke="#4B4B4B" stroke-width="1.5" stroke-miterlimit="10"/>
<path d="M424.183 171.131L297.439 90.6953" stroke="#4B4B4B" stroke-width="1.5" stroke-miterlimit="10"/>
<path d="M352.719 250.541L443.569 302.428L501.277 250.088" stroke="#4B4B4B" stroke-width="1.5" stroke-miterlimit="10"/>
<path d="M385.409 210.836V274.903" stroke="#4B4B4B" stroke-width="1.5" stroke-miterlimit="10" stroke-dasharray="3 3"/>
<path d="M373.691 228.884C373.691 228.884 357.912 258.21 379.553 280.77" stroke="#4B4B4B" stroke-width="1.5" stroke-miterlimit="10" stroke-dasharray="3 3"/>
<path d="M216.311 227.928C216.311 227.928 204.054 212.59 201.379 199.611C196.067 173.835 211.237 140.228 227.463 131.205" stroke="#4B4B4B" stroke-width="1.5" stroke-miterlimit="10"/>
<path d="M132.676 164.067C132.676 164.067 183.443 162.108 200.575 192.789" stroke="#4B4B4B" stroke-width="1.5" stroke-miterlimit="10"/>
<path d="M201.81 173.133C201.81 173.133 176.071 144.621 155.487 153.99C145.57 158.502 166.58 168.389 166.58 168.389" stroke="#4B4B4B" stroke-width="1.5" stroke-miterlimit="10"/>
<path d="M205.855 160.246C205.855 160.246 195.242 135.97 182.235 142.986C170.819 149.15 197.863 163.009 205.979 160.3" stroke="#4B4B4B" stroke-width="1.5" stroke-miterlimit="10"/>
<path d="M200.203 137.773C200.203 137.773 206.184 138.582 211.49 149.441" stroke="#4B4B4B" stroke-width="1.5" stroke-miterlimit="10"/>
<path d="M230.559 280.635C230.559 280.635 203.649 270.397 204.814 245.128" stroke="#4B4B4B" stroke-width="1.5" stroke-miterlimit="10"/>
<path d="M81.5535 287.537C81.5535 287.537 95.9789 290.247 97.7855 279.415C99.5866 268.589 83.36 246.931 69.8352 240.611C56.3104 234.297 65.149 226.066 65.149 226.066" stroke="#4B4B4B" stroke-width="1.5" stroke-miterlimit="10"/>
<path d="M636.973 195.147C636.973 195.147 622.547 264.978 563.039 284.828" stroke="#4B4B4B" stroke-width="1.5" stroke-miterlimit="10"/>
<path d="M535.989 284.828C535.989 284.828 480.401 301.202 455.45 257.374" stroke="#4B4B4B" stroke-width="1.5" stroke-miterlimit="10"/>
<path d="M674.948 131.879C674.948 131.879 645.089 141.356 639.227 190.533" stroke="#4B4B4B" stroke-width="1.5" stroke-miterlimit="10"/>
<path d="M328.608 188.277C328.608 188.277 328.608 161.638 309.675 144.729" stroke="#4B4B4B" stroke-width="1.5" stroke-miterlimit="10"/>
<path d="M307.868 143.159C307.868 143.159 270.901 112.477 237.537 126.013" stroke="#4B4B4B" stroke-width="1.5" stroke-miterlimit="10" stroke-dasharray="3 3"/>
<path d="M206.599 213.049C206.599 213.049 108.63 172.34 83.7267 204.371" stroke="#4B4B4B" stroke-width="1.5" stroke-miterlimit="10"/>
<path d="M694.685 206.319L639.221 115.273" stroke="#4B4B4B" stroke-width="1.5" stroke-miterlimit="10" stroke-dasharray="3 3"/>
<path d="M137.826 247.271C137.826 247.271 97.7855 258.659 97.7855 268.583C97.7855 282.707 134.558 296 175.683 284.548" stroke="#4B4B4B" stroke-width="1.5" stroke-miterlimit="10"/>
<path d="M143.122 307.177C143.122 307.177 81.5643 293.312 106.797 274.002C122.123 262.269 149.399 270.095 149.399 270.095" stroke="#4B4B4B" stroke-width="1.5" stroke-miterlimit="10"/>
<path d="M95.9196 242.155C95.9196 242.155 75.2063 254.325 114.918 262.269C146.476 268.584 204.167 269.49 189.747 250.536" stroke="#4B4B4B" stroke-width="1.5" stroke-miterlimit="10"/>
<path d="M200.856 182.864C200.856 182.864 130.918 200.668 124.835 178.352C122.128 168.427 154.069 165.68 154.069 165.68" stroke="#4B4B4B" stroke-width="1.5" stroke-miterlimit="10"/>
<path d="M535.989 108.867L541.398 104.355L546.807 108.867" stroke="#4B4B4B" stroke-width="1.5" stroke-miterlimit="10"/>
<path d="M541.398 125.111V106.163" stroke="#4B4B4B" stroke-width="1.5" stroke-miterlimit="10"/>
<path d="M518.388 132.025L514.985 125.851L520.437 121.393" stroke="#4B4B4B" stroke-width="1.5" stroke-miterlimit="10"/>
<path d="M535.347 129.785L516.759 126.196" stroke="#4B4B4B" stroke-width="1.5" stroke-miterlimit="10"/>
<path d="M532.349 152.042L525.317 151.659L524.427 144.665" stroke="#4B4B4B" stroke-width="1.5" stroke-miterlimit="10"/>
<path d="M539.446 136.467L526.547 150.337" stroke="#4B4B4B" stroke-width="1.5" stroke-miterlimit="10"/>
<path d="M556.875 111.592L564.414 112.202L563.977 119.758" stroke="#4B4B4B" stroke-width="1.5" stroke-miterlimit="10"/>
<path d="M546.068 128.182L562.818 113.589" stroke="#4B4B4B" stroke-width="1.5" stroke-miterlimit="10"/>
<path d="M563.039 140.935L564.63 148.34L557.269 150.094" stroke="#4B4B4B" stroke-width="1.5" stroke-miterlimit="10"/>
<path d="M544.057 135.36L562.839 147.207" stroke="#4B4B4B" stroke-width="1.5" stroke-miterlimit="10"/>
<path d="M501.568 152.35L504.949 142.878L495.102 141.13" stroke="#4B4B4B" stroke-width="1.5" stroke-miterlimit="10"/>
<path d="M507.133 282.124L512.143 287.883L507.133 292.95" stroke="#4B4B4B" stroke-width="1.5" stroke-miterlimit="10"/>
<path d="M578.365 271.293L574.563 280.122L583.774 282.124" stroke="#4B4B4B" stroke-width="1.5" stroke-miterlimit="10"/>
<path d="M349.343 264.077L356.483 265.491L358.36 258.664" stroke="#4B4B4B" stroke-width="1.5" stroke-miterlimit="10"/>
<path d="M264.592 274.903L260.062 284.03L270.001 285.735" stroke="#4B4B4B" stroke-width="1.5" stroke-miterlimit="10"/>
<path d="M127.537 270.391L128.637 277.537L135.653 274.903" stroke="#4B4B4B" stroke-width="1.5" stroke-miterlimit="10"/>
<path d="M203.277 276.711L206.669 282.006L202.376 285.735" stroke="#4B4B4B" stroke-width="1.5" stroke-miterlimit="10"/>
<path d="M541.851 291.148C545.088 291.148 547.713 288.521 547.713 285.281C547.713 282.042 545.088 279.415 541.851 279.415C538.614 279.415 535.989 282.042 535.989 285.281C535.989 288.521 538.614 291.148 541.851 291.148Z" fill="#4B4B4B" stroke="#4B4B4B" stroke-width="1.5" stroke-miterlimit="10"/>
<path d="M541.851 136.844C545.088 136.844 547.713 134.218 547.713 130.978C547.713 127.738 545.088 125.112 541.851 125.112C538.614 125.112 535.989 127.738 535.989 130.978C535.989 134.218 538.614 136.844 541.851 136.844Z" fill="#4B4B4B" stroke="#4B4B4B" stroke-width="1.5" stroke-miterlimit="10"/>
<path d="M385.862 135.036C389.1 135.036 391.724 132.41 391.724 129.17C391.724 125.93 389.1 123.303 385.862 123.303C382.625 123.303 380.001 125.93 380.001 129.17C380.001 132.41 382.625 135.036 385.862 135.036Z" fill="#4B4B4B" stroke="#4B4B4B" stroke-width="1.5" stroke-miterlimit="10"/>
<path d="M328.867 193.938C332.105 193.938 334.729 191.312 334.729 188.072C334.729 184.832 332.105 182.206 328.867 182.206C325.63 182.206 323.005 184.832 323.005 188.072C323.005 191.312 325.63 193.938 328.867 193.938Z" fill="#4B4B4B" stroke="#4B4B4B" stroke-width="1.5" stroke-miterlimit="10"/>
<path d="M695.133 143.159C698.37 143.159 700.994 140.532 700.994 137.292C700.994 134.053 698.37 131.426 695.133 131.426C691.895 131.426 689.271 134.053 689.271 137.292C689.271 140.532 691.895 143.159 695.133 143.159Z" fill="#4B4B4B" stroke="#4B4B4B" stroke-width="1.5" stroke-miterlimit="10"/>
<path d="M408.9 359.452C409.793 359.452 410.518 358.727 410.518 357.832C410.518 356.938 409.793 356.213 408.9 356.213C408.006 356.213 407.282 356.938 407.282 357.832C407.282 358.727 408.006 359.452 408.9 359.452Z" fill="#4B4B4B"/>
<path d="M410.502 368.837H408.695V367.919C408.986 367.914 409.24 367.892 409.466 367.871C409.687 367.844 409.887 367.8 410.059 367.73C410.232 367.665 410.378 367.563 410.507 367.433C410.631 367.304 410.75 367.126 410.852 366.905H411.834V375H410.507V368.837H410.502Z" fill="#4B4B4B"/>
<path d="M539.893 96.7615C539.505 96.5618 539.182 96.2866 538.923 95.9304C538.664 95.5742 538.47 95.1478 538.34 94.6513C538.211 94.1548 538.146 93.6043 538.146 92.9998C538.146 92.4008 538.211 91.8557 538.34 91.3592C538.47 90.8627 538.664 90.4363 538.923 90.0801C539.182 89.7239 539.505 89.4487 539.893 89.249C540.282 89.0493 540.735 88.9521 541.252 88.9521C541.776 88.9521 542.234 89.0493 542.622 89.249C543.01 89.4487 543.334 89.7239 543.593 90.0801C543.852 90.4363 544.046 90.8627 544.175 91.3592C544.305 91.8557 544.369 92.4008 544.369 92.9998C544.369 93.6043 544.305 94.1548 544.175 94.6513C544.046 95.1478 543.852 95.5742 543.593 95.9304C543.334 96.2866 543.01 96.5618 542.622 96.7615C542.234 96.9612 541.781 97.0583 541.252 97.0583C540.735 97.0583 540.282 96.9612 539.893 96.7615ZM542.563 95.2827C542.87 94.7592 543.027 93.9983 543.027 93.0106C543.027 92.0176 542.87 91.262 542.563 90.7385C542.255 90.215 541.819 89.9506 541.247 89.9506C540.686 89.9506 540.255 90.215 539.942 90.7385C539.635 91.262 539.478 92.023 539.478 93.0106C539.478 94.0037 539.635 94.7592 539.942 95.2827C540.249 95.8062 540.686 96.0707 541.247 96.0707C541.819 96.0707 542.255 95.8062 542.563 95.2827Z" fill="#4B4B4B"/>
<path d="M240.109 52.906L240.244 56.5327" stroke="#4B4B4B" stroke-width="1.5" stroke-miterlimit="10"/>
<path d="M168.386 97.1608C169.28 97.1608 170.004 96.4359 170.004 95.5417C170.004 94.6475 169.28 93.9226 168.386 93.9226C167.493 93.9226 166.769 94.6475 166.769 95.5417C166.769 96.4359 167.493 97.1608 168.386 97.1608Z" fill="#4B4B4B"/>
<path d="M160.044 86.8581C160.362 86.9498 160.637 87.0847 160.864 87.2628C161.096 87.4409 161.273 87.6622 161.408 87.9267C161.538 88.1911 161.608 88.4879 161.608 88.8279C161.608 89.2381 161.511 89.6429 161.322 90.0477C161.133 90.4524 160.864 90.8518 160.519 91.2512C160.173 91.6505 159.753 92.0499 159.262 92.4547C158.771 92.8594 158.227 93.2642 157.628 93.6852H161.791V94.8239H156.005V93.7499C156.668 93.2318 157.261 92.7515 157.784 92.3144C158.308 91.8772 158.75 91.4616 159.116 91.0677C159.483 90.6791 159.764 90.3067 159.952 89.9613C160.146 89.6159 160.243 89.2759 160.243 88.9467C160.243 88.5581 160.13 88.2613 159.898 88.0454C159.666 87.8349 159.354 87.727 158.96 87.727C158.771 87.727 158.588 87.754 158.405 87.8133C158.227 87.8727 158.07 87.9698 157.935 88.1048C157.801 88.2397 157.693 88.4178 157.606 88.6337C157.52 88.8495 157.482 89.1086 157.482 89.4162H156.177C156.172 89.0114 156.231 88.6498 156.366 88.3206C156.496 87.9914 156.69 87.7108 156.938 87.4733C157.186 87.2412 157.488 87.0578 157.838 86.9228C158.189 86.7933 158.583 86.7231 159.025 86.7231C159.386 86.7231 159.731 86.7663 160.044 86.8581Z" fill="#4B4B4B"/>
<path d="M179.711 83.1288C180.605 83.1288 181.329 82.4039 181.329 81.5097C181.329 80.6155 180.605 79.8906 179.711 79.8906C178.818 79.8906 178.093 80.6155 178.093 81.5097C178.093 82.4039 178.818 83.1288 179.711 83.1288Z" fill="#4B4B4B"/>
<path d="M176.141 76.0104C176.335 75.951 176.502 75.8593 176.648 75.746C176.794 75.6326 176.901 75.4923 176.982 75.325C177.063 75.1577 177.101 74.9688 177.101 74.7529C177.101 74.4993 177.052 74.2888 176.961 74.1161C176.869 73.9434 176.734 73.8031 176.562 73.7005C176.389 73.598 176.184 73.5224 175.942 73.4739C175.699 73.4253 175.435 73.4037 175.149 73.4037H174.771V72.3351H175.095C176.303 72.3351 176.907 71.9303 176.907 71.1262C176.907 70.9319 176.869 70.7592 176.794 70.6135C176.718 70.4678 176.621 70.3436 176.497 70.2519C176.373 70.1601 176.233 70.09 176.066 70.0414C175.898 69.9928 175.726 69.9712 175.548 69.9712C175.073 69.9712 174.707 70.1062 174.437 70.3706C174.173 70.6351 174.011 70.9967 173.952 71.4608H172.701C172.728 71.0884 172.819 70.7484 172.965 70.4462C173.11 70.144 173.31 69.8849 173.558 69.669C173.806 69.4531 174.103 69.2858 174.453 69.1671C174.804 69.0484 175.192 68.989 175.623 68.989C175.947 68.989 176.265 69.0268 176.578 69.1023C176.891 69.1779 177.171 69.302 177.414 69.4693C177.656 69.6366 177.856 69.8525 178.002 70.1116C178.147 70.3706 178.223 70.6836 178.223 71.0506C178.223 71.4392 178.12 71.7846 177.91 72.0976C177.7 72.4053 177.425 72.6427 177.079 72.81C177.317 72.8964 177.522 73.0097 177.689 73.1446C177.856 73.2796 177.996 73.4307 178.104 73.598C178.212 73.7653 178.293 73.9434 178.347 74.1323C178.401 74.3212 178.428 74.5209 178.428 74.7205C178.428 75.1253 178.347 75.4707 178.19 75.7676C178.034 76.0644 177.818 76.3072 177.549 76.5069C177.279 76.7066 176.966 76.8523 176.61 76.9495C176.254 77.0466 175.882 77.0952 175.494 77.0952C175.041 77.0952 174.642 77.025 174.291 76.8901C173.941 76.7552 173.65 76.5663 173.407 76.3288C173.164 76.0914 172.976 75.8161 172.841 75.5085C172.706 75.2009 172.625 74.8717 172.604 74.5263H173.855C173.882 74.7421 173.941 74.9472 174.022 75.1361C174.103 75.325 174.216 75.4923 174.351 75.638C174.486 75.7837 174.653 75.8971 174.841 75.978C175.03 76.059 175.257 76.1022 175.516 76.1022C175.737 76.1022 175.947 76.0698 176.141 76.0104Z" fill="#4B4B4B"/>
<path d="M351.225 6.65441V8.55413H349.899V6.65441H345.903V5.54804L349.909 0.45874H351.225V5.50487H352.654V6.65441H351.225V6.65441ZM349.893 5.50487V2.18576L347.348 5.49947H349.893V5.50487Z" fill="#4B4B4B"/>
<path d="M349.58 18.3658C350.474 18.3658 351.198 17.641 351.198 16.7468C351.198 15.8526 350.474 15.1277 349.58 15.1277C348.687 15.1277 347.963 15.8526 347.963 16.7468C347.963 17.641 348.687 18.3658 349.58 18.3658Z" fill="#4B4B4B"/>
<path d="M373.848 18.3658C374.741 18.3658 375.465 17.641 375.465 16.7468C375.465 15.8526 374.741 15.1277 373.848 15.1277C372.954 15.1277 372.23 15.8526 372.23 16.7468C372.23 17.641 372.954 18.3658 373.848 18.3658Z" fill="#4B4B4B"/>
<path d="M374.635 6.97283C374.824 6.89727 374.991 6.78394 375.131 6.64362C375.271 6.5033 375.384 6.3252 375.465 6.10932C375.546 5.89884 375.584 5.66138 375.584 5.39693C375.584 5.10549 375.541 4.84644 375.449 4.63056C375.357 4.40929 375.233 4.22579 375.082 4.08008C374.931 3.93436 374.759 3.82642 374.565 3.75626C374.376 3.6861 374.182 3.65372 373.982 3.65372C373.61 3.65372 373.298 3.73467 373.044 3.89658C372.791 4.05849 372.623 4.25278 372.548 4.49024L371.318 4.42548L371.852 0H376.609V1.14955H372.925L372.672 3.14641C372.861 2.99529 373.093 2.87116 373.368 2.78481C373.643 2.69846 373.955 2.65529 374.317 2.65529C374.651 2.65529 374.98 2.71465 375.298 2.83339C375.616 2.95212 375.897 3.12482 376.139 3.35149C376.382 3.57816 376.576 3.8642 376.722 4.20421C376.867 4.54421 376.943 4.93819 376.943 5.38074C376.943 5.82328 376.862 6.21726 376.706 6.55187C376.549 6.88648 376.334 7.17252 376.064 7.40458C375.794 7.63665 375.482 7.80935 375.126 7.92808C374.77 8.04682 374.398 8.10079 374.004 8.10079C373.546 8.10079 373.136 8.03063 372.785 7.89031C372.435 7.74999 372.138 7.56109 371.895 7.32363C371.653 7.08616 371.469 6.81092 371.335 6.5033C371.2 6.19567 371.124 5.86646 371.103 5.52106H372.365C372.424 5.97979 372.58 6.35758 372.839 6.64901C373.098 6.94045 373.492 7.08616 374.02 7.08616C374.241 7.08616 374.446 7.04839 374.635 6.97283Z" fill="#4B4B4B"/>
<path d="M69.7004 362.69C70.5939 362.69 71.3182 361.965 71.3182 361.07C71.3182 360.176 70.5939 359.451 69.7004 359.451C68.8069 359.451 68.0826 360.176 68.0826 361.07C68.0826 361.965 68.8069 362.69 69.7004 362.69Z" fill="#4B4B4B"/>
<path d="M48.6689 357.832C49.5624 357.832 50.2867 357.108 50.2867 356.213C50.2867 355.319 49.5624 354.594 48.6689 354.594C47.7754 354.594 47.0511 355.319 47.0511 356.213C47.0511 357.108 47.7754 357.832 48.6689 357.832Z" fill="#4B4B4B"/>
<path d="M33.5694 349.737C34.4629 349.737 35.1872 349.012 35.1872 348.118C35.1872 347.224 34.4629 346.499 33.5694 346.499C32.6759 346.499 31.9516 347.224 31.9516 348.118C31.9516 349.012 32.6759 349.737 33.5694 349.737Z" fill="#4B4B4B"/>
<path d="M33.1973 356.515C32.987 356.645 32.8145 356.828 32.6689 357.06C32.5232 357.293 32.4154 357.573 32.3345 357.902C32.2536 358.232 32.2105 358.593 32.2051 358.998C32.3776 358.744 32.6203 358.534 32.9331 358.361C33.2459 358.188 33.6287 358.102 34.0817 358.102C34.443 358.102 34.7774 358.167 35.0956 358.291C35.4137 358.415 35.6888 358.593 35.9206 358.825C36.1525 359.057 36.3413 359.333 36.4761 359.662C36.6109 359.991 36.681 360.358 36.681 360.768C36.681 361.157 36.6109 361.513 36.4707 361.842C36.3305 362.171 36.1363 362.452 35.8883 362.69C35.6402 362.927 35.3382 363.11 34.9877 363.245C34.6372 363.38 34.2543 363.445 33.8337 363.445C33.3214 363.445 32.8846 363.353 32.5179 363.17C32.1512 362.986 31.8492 362.727 31.6065 362.393C31.3638 362.058 31.1859 361.659 31.0726 361.189C30.9594 360.72 30.9001 360.201 30.9001 359.624C30.9001 359.063 30.954 358.523 31.0618 358.005C31.1697 357.487 31.3476 357.034 31.5957 356.634C31.8438 356.24 32.1619 355.922 32.5556 355.69C32.9493 355.458 33.4292 355.339 34.0062 355.339C34.4161 355.339 34.772 355.398 35.0794 355.522C35.3868 355.647 35.6402 355.803 35.8451 356.003C36.0501 356.202 36.2064 356.424 36.3197 356.677C36.4329 356.931 36.503 357.185 36.53 357.444H35.225C35.1818 357.06 35.0416 356.78 34.799 356.596C34.5563 356.413 34.2597 356.321 33.9092 356.321C33.6449 356.321 33.4076 356.386 33.1973 356.515ZM32.7282 362.004C33.014 362.301 33.3753 362.447 33.8229 362.447C34.044 362.447 34.2489 362.409 34.4377 362.333C34.6264 362.258 34.7882 362.15 34.923 362.004C35.0578 361.858 35.1657 361.686 35.2412 361.481C35.3167 361.275 35.3544 361.043 35.3544 360.784C35.3544 360.266 35.2142 359.861 34.9284 359.559C34.6426 359.262 34.2813 359.111 33.8337 359.111C33.3861 359.111 33.0248 359.262 32.7336 359.559C32.4424 359.856 32.3021 360.266 32.3021 360.784C32.3021 361.302 32.4478 361.707 32.7282 362.004Z" fill="#4B4B4B"/>
<path d="M51.3761 363.667V364.838C50.8638 365.329 50.4054 365.825 50.0117 366.327C49.6127 366.829 49.2729 367.358 48.9979 367.919C48.7175 368.475 48.5018 369.069 48.34 369.7C48.1782 370.332 48.0757 371.017 48.0326 371.762H46.528C46.5658 371.049 46.679 370.364 46.8624 369.716C47.0457 369.069 47.2938 368.454 47.6012 367.876C47.9086 367.299 48.2591 366.754 48.6689 366.246C49.0734 365.739 49.5102 365.269 49.9794 364.838H45.5735V363.667H51.3761V363.667Z" fill="#4B4B4B"/>
<path d="M71.0216 367.056C71.3505 367.158 71.631 367.293 71.8628 367.471C72.0947 367.649 72.2781 367.86 72.4021 368.108C72.5261 368.356 72.5909 368.626 72.5909 368.912C72.5909 369.252 72.5154 369.576 72.359 369.9C72.2026 370.218 71.9491 370.483 71.5878 370.693C72.0462 370.931 72.3698 371.222 72.5531 371.573C72.7365 371.924 72.8281 372.28 72.8281 372.647C72.8281 373.035 72.7526 373.375 72.6016 373.667C72.4507 373.958 72.2457 374.207 71.9869 374.406C71.728 374.606 71.4206 374.757 71.0647 374.86C70.7088 374.962 70.3259 375.011 69.9161 375.011C69.5062 375.011 69.1234 374.962 68.7674 374.86C68.4115 374.757 68.1041 374.606 67.8453 374.406C67.5865 374.207 67.3815 373.958 67.2305 373.667C67.0795 373.375 67.004 373.035 67.004 372.647C67.004 372.469 67.0256 372.285 67.0688 372.102C67.1119 371.918 67.182 371.74 67.2791 371.573C67.3761 371.406 67.5056 371.244 67.662 371.093C67.8183 370.941 68.0125 370.806 68.2444 370.693C67.8992 370.499 67.6458 370.24 67.484 369.911C67.3222 369.581 67.2413 369.252 67.2413 368.912C67.2413 368.626 67.306 368.356 67.4301 368.108C67.5541 367.86 67.7321 367.649 67.9639 367.471C68.1958 367.293 68.4762 367.158 68.8052 367.056C69.1342 366.953 69.5062 366.905 69.9161 366.905C70.3259 366.905 70.6926 366.958 71.0216 367.056ZM68.7674 371.562C68.4816 371.816 68.3414 372.161 68.3414 372.598C68.3414 373.046 68.4816 373.392 68.7674 373.64C69.0533 373.888 69.4361 374.012 69.9161 374.012C70.396 374.012 70.7789 373.888 71.0647 373.64C71.3505 373.392 71.4908 373.046 71.4908 372.598C71.4908 372.161 71.3505 371.816 71.0647 371.562C70.7789 371.308 70.4014 371.184 69.9161 371.184C69.4361 371.184 69.0533 371.314 68.7674 371.562ZM70.9407 368.2C70.6872 367.989 70.3475 367.887 69.9161 367.887C69.4901 367.887 69.1503 367.989 68.8915 368.2C68.6326 368.41 68.5032 368.702 68.5032 369.074C68.5032 369.446 68.6326 369.749 68.8915 369.975C69.1503 370.202 69.4901 370.315 69.9161 370.315C70.3475 370.315 70.6872 370.202 70.9407 369.975C71.1942 369.749 71.3182 369.446 71.3182 369.074C71.3182 368.702 71.1888 368.41 70.9407 368.2Z" fill="#4B4B4B"/>
</g>
<defs>
<clipPath id="clip0_723_6213">
<rect width="733" height="375" fill="white"/>
</clipPath>
</defs>
</svg>
