<svg width="223" height="436" viewBox="0 0 223 436" fill="none" xmlns="http://www.w3.org/2000/svg">
<g clip-path="url(#clip0_721_13288)">
<path d="M123.23 113.698C123.23 88.966 103.17 68.9164 78.4242 68.9164C53.6785 68.9164 33.6182 88.966 33.6182 113.698C33.6182 138.431 53.6785 158.48 78.4242 158.48C103.17 158.48 123.23 138.431 123.23 113.698Z" stroke="#4B4B4B" stroke-width="1.5" stroke-miterlimit="10"/>
<path d="M214.659 201.011C214.877 202.804 214.989 204.633 214.989 206.484C214.989 231.218 194.928 251.266 170.183 251.266C145.439 251.266 125.377 231.215 125.377 206.484C125.377 181.753 145.439 161.702 170.183 161.702C187.469 161.702 202.466 171.482 209.941 185.81" stroke="#4B4B4B" stroke-width="1.5" stroke-miterlimit="10"/>
<path d="M205.307 418.785C197.1 429.126 184.417 435.76 170.183 435.76C145.436 435.76 125.377 415.709 125.377 390.978C125.377 366.247 145.439 346.196 170.183 346.196C193.759 346.196 213.083 364.393 214.858 387.504" stroke="#4B4B4B" stroke-width="1.5" stroke-miterlimit="10"/>
<path d="M42.1294 322.851C36.7762 315.473 33.6182 306.395 33.6182 296.583C33.6182 271.849 53.6799 251.801 78.4242 251.801C103.168 251.801 123.23 271.852 123.23 296.583C123.23 321.314 103.168 341.365 78.4242 341.365C71.8546 341.365 65.6156 339.954 59.996 337.413" stroke="#4B4B4B" stroke-width="1.5" stroke-miterlimit="10"/>
<path d="M146.505 353.102C146.505 328.814 141.46 309.125 135.237 309.125C129.013 309.125 123.968 328.814 123.968 353.102C123.968 377.39 129.013 397.079 135.237 397.079C141.46 397.079 146.505 377.39 146.505 353.102Z" stroke="#4B4B4B" stroke-width="1.5" stroke-miterlimit="10"/>
<path d="M145.766 169.746C145.766 145.458 140.722 125.769 134.498 125.769C128.275 125.769 123.23 145.458 123.23 169.746C123.23 194.034 128.275 213.723 134.498 213.723C140.722 213.723 145.766 194.034 145.766 169.746Z" stroke="#4B4B4B" stroke-width="1.5" stroke-miterlimit="10"/>
<path d="M123.23 242.685C123.23 218.397 118.185 198.708 111.962 198.708C105.739 198.708 100.694 218.397 100.694 242.685C100.694 266.973 105.739 286.662 111.962 286.662C118.185 286.662 123.23 266.973 123.23 242.685Z" stroke="#4B4B4B" stroke-width="1.5" stroke-miterlimit="10"/>
<path d="M78.1546 300.609C78.1546 300.609 88.3476 361.875 121.619 386.253" stroke="#4B4B4B" stroke-width="1.5" stroke-miterlimit="10"/>
<path d="M132.89 353.701C96.9391 344.585 78.1578 300.605 78.1578 300.605" stroke="#4B4B4B" stroke-width="1.5" stroke-miterlimit="10"/>
<path d="M145.77 349.188C145.77 349.188 215.118 277.725 123.233 240.587" stroke="#4B4B4B" stroke-width="1.5" stroke-miterlimit="10"/>
<path d="M148.989 137.567L148.989 229.812L190.306 229.812L190.306 137.567L148.989 137.567Z" stroke="#4B4B4B" stroke-width="1.5" stroke-miterlimit="10"/>
<path d="M190.576 137.297L169.647 113.699L122.964 113.699L148.719 137.833L134.498 171.892L148.989 229.812" stroke="#4B4B4B" stroke-width="1.5" stroke-miterlimit="10"/>
<path d="M148.989 319.379L148.989 411.625L190.306 411.625L190.306 319.379L148.989 319.379Z" stroke="#4B4B4B" stroke-width="1.5" stroke-miterlimit="10"/>
<path d="M122.964 295.511L148.719 319.646" stroke="#4B4B4B" stroke-width="1.5" stroke-miterlimit="10"/>
<path d="M190.576 319.11L169.647 295.512L122.964 295.512" stroke="#4B4B4B" stroke-width="1.5" stroke-miterlimit="10"/>
<path d="M148.989 229.812L123.23 204.071L123.23 113.968L134.498 171.892" stroke="#4B4B4B" stroke-width="1.5" stroke-miterlimit="10"/>
<path d="M190.306 229.812L189.988 229.453" stroke="#4B4B4B" stroke-width="1.5" stroke-miterlimit="10"/>
<path d="M189.347 228.729L169.917 206.753L169.651 114.664" stroke="#4B4B4B" stroke-width="1.5" stroke-miterlimit="10" stroke-dasharray="3.02 3.02"/>
<path d="M169.647 114.18L169.647 113.699" stroke="#4B4B4B" stroke-width="1.5" stroke-miterlimit="10"/>
<path d="M123.23 239.069C123.23 239.069 181.313 228.696 169.647 188.087C159.987 154.461 93.9865 193.075 78.4242 113.701C78.4242 113.701 64.3736 69.5193 117.328 56.0472C146.842 48.538 170.989 50.684 169.378 24.4037" stroke="#4B4B4B" stroke-width="1.5" stroke-miterlimit="10"/>
<path d="M170.251 295.479C170.251 293.553 168.689 291.992 166.762 291.992C164.835 291.992 163.274 293.553 163.274 295.479C163.274 297.405 164.835 298.966 166.762 298.966C168.689 298.966 170.251 297.405 170.251 295.479Z" stroke="#4B4B4B" stroke-width="1.5" stroke-miterlimit="10"/>
<path d="M173.136 390.978C173.136 389.052 171.574 387.491 169.647 387.491C167.721 387.491 166.159 389.052 166.159 390.978C166.159 392.904 167.721 394.465 169.647 394.465C171.574 394.465 173.136 392.904 173.136 390.978Z" stroke="#4B4B4B" stroke-width="1.5" stroke-miterlimit="10"/>
<path d="M170.453 206.483C170.453 204.557 168.891 202.996 166.964 202.996C165.038 202.996 163.476 204.557 163.476 206.483C163.476 208.409 165.038 209.97 166.964 209.97C168.891 209.97 170.453 208.409 170.453 206.483Z" stroke="#4B4B4B" stroke-width="1.5" stroke-miterlimit="10"/>
<path d="M80.4879 297.504C80.4879 295.578 78.926 294.017 76.9993 294.017C75.0726 294.017 73.5107 295.578 73.5107 297.504C73.5107 299.429 75.0726 300.99 76.9993 300.99C78.926 300.99 80.4879 299.429 80.4879 297.504Z" stroke="#4B4B4B" stroke-width="1.5" stroke-miterlimit="10"/>
<path d="M136.533 353.884C136.533 351.959 134.971 350.398 133.044 350.398C131.118 350.398 129.556 351.959 129.556 353.884C129.556 355.81 131.118 357.371 133.044 357.371C134.971 357.371 136.533 355.81 136.533 353.884Z" fill="#4B4B4B" stroke="#4B4B4B" stroke-width="1.5" stroke-miterlimit="10"/>
<path d="M100.919 233.925C100.919 233.925 34.1541 199.779 122.694 171.892" stroke="#4B4B4B" stroke-width="1.5" stroke-miterlimit="10"/>
<path d="M116.08 283.634C116.08 283.634 165.087 279.852 169.647 208.709" stroke="#4B4B4B" stroke-width="1.5" stroke-miterlimit="10"/>
<path d="M172.414 388.774C172.414 388.774 183.871 370.311 163.476 358.529C159.182 356.05 153.421 355.662 145.766 353.702" stroke="#4B4B4B" stroke-width="1.5" stroke-miterlimit="10"/>
<path d="M137.762 309.381C137.762 309.381 168.155 326.286 177.963 341.368C184.94 352.094 192.45 375.157 173.133 391.247" stroke="#4B4B4B" stroke-width="1.5" stroke-miterlimit="10"/>
<path d="M78.1546 22.7935L78.1546 113.968L169.378 113.968L169.378 22.7935L78.1546 22.7935Z" stroke="#4B4B4B" stroke-width="1.5" stroke-miterlimit="10"/>
<path d="M78.1546 22.7939L57.2295 0.26979L145.77 0.269786L169.378 22.7939" stroke="#4B4B4B" stroke-width="1.5" stroke-miterlimit="10"/>
<path d="M57.2295 0.269356L57.2295 89.2977L78.1546 113.968" stroke="#4B4B4B" stroke-width="1.5" stroke-miterlimit="10"/>
<path d="M145.77 0.269765L80.8376 111.822" stroke="#4B4B4B" stroke-width="1.5" stroke-miterlimit="10"/>
<path d="M67.4225 57.1191L156.502 57.1191L104.449 2.95153L67.4225 57.1191Z" stroke="#4B4B4B" stroke-width="1.5" stroke-miterlimit="10"/>
<path d="M67.4225 57.1194L123.23 113.699L123.23 0.000798563" stroke="#4B4B4B" stroke-width="1.5" stroke-miterlimit="10"/>
<path d="M156.502 57.1186L123.23 113.968" stroke="#4B4B4B" stroke-width="1.5" stroke-miterlimit="10"/>
<path d="M179.038 171.892L123.965 204.803" stroke="#4B4B4B" stroke-width="1.5" stroke-miterlimit="10" stroke-dasharray="3 3"/>
<path d="M76.8131 251.801L76.8131 210.236" stroke="#4B4B4B" stroke-width="1.5" stroke-miterlimit="10"/>
<path d="M31.4711 293.1L31.4711 205.678L125.377 206.483L66.8865 240.539" stroke="#4B4B4B" stroke-width="1.5" stroke-miterlimit="10"/>
<path d="M10.0068 239.07L10.0068 272.718L31.4711 293.1" stroke="#4B4B4B" stroke-width="1.5" stroke-miterlimit="10"/>
<path d="M76.8131 251.801L10.0068 183.689L10.0068 198.708" stroke="#4B4B4B" stroke-width="1.5" stroke-miterlimit="10"/>
<path d="M10.0068 183.69L101.766 183.69L123.965 206.47C123.965 206.47 123.23 296.089 123.23 295.242L121.619 386.147L148.985 411.622" stroke="#4B4B4B" stroke-width="1.5" stroke-miterlimit="10"/>
<path d="M56.6871 183.689L56.6871 230.887" stroke="#4B4B4B" stroke-width="1.5" stroke-miterlimit="10"/>
<path d="M74.9356 202.996L56.6871 183.689" stroke="#4B4B4B" stroke-width="1.5" stroke-miterlimit="10"/>
<path d="M10.0068 272.718L65.8146 240.587" stroke="#4B4B4B" stroke-width="1.5" stroke-miterlimit="10" stroke-dasharray="3 3"/>
<path d="M114.603 196.863C114.603 196.863 82.0123 199.285 68.5458 252.895" stroke="#4B4B4B" stroke-width="1.5" stroke-miterlimit="10"/>
<path d="M101.766 183.69L53.9335 259.079" stroke="#4B4B4B" stroke-width="1.5" stroke-miterlimit="10"/>
<path d="M148.989 226.197L179.844 172.158L148.719 137.833" stroke="#4B4B4B" stroke-width="1.5" stroke-miterlimit="10"/>
<path d="M125.377 206.753L163.476 206.753" stroke="#4B4B4B" stroke-width="1.5" stroke-miterlimit="10" stroke-dasharray="3 3"/>
<path d="M136.109 213.723C136.109 213.723 153.549 223.108 166.964 210.236" stroke="#4B4B4B" stroke-width="1.5" stroke-miterlimit="10" stroke-dasharray="3 3"/>
<path d="M135.541 307.335C135.541 307.335 126.42 314.626 118.702 316.217C103.374 319.376 83.3891 310.353 78.0231 300.702" stroke="#4B4B4B" stroke-width="1.5" stroke-miterlimit="10"/>
<path d="M97.5649 357.082C97.5649 357.082 96.3999 326.885 114.645 316.694" stroke="#4B4B4B" stroke-width="1.5" stroke-miterlimit="10"/>
<path d="M102.957 315.96C102.957 315.96 86.0015 331.27 91.573 343.514C94.256 349.413 100.136 336.916 100.136 336.916" stroke="#4B4B4B" stroke-width="1.5" stroke-miterlimit="10"/>
<path d="M95.2927 313.555C95.2927 313.555 80.8569 319.868 85.0291 327.604C88.6942 334.395 96.9359 318.309 95.3247 313.481" stroke="#4B4B4B" stroke-width="1.5" stroke-miterlimit="10"/>
<path d="M81.9288 316.916C81.9288 316.916 82.4102 313.359 88.8675 310.202" stroke="#4B4B4B" stroke-width="1.5" stroke-miterlimit="10"/>
<path d="M166.884 298.86C166.884 298.86 160.796 314.866 145.77 314.173" stroke="#4B4B4B" stroke-width="1.5" stroke-miterlimit="10"/>
<path d="M170.989 387.491C170.989 387.491 172.6 378.911 166.159 377.836C159.721 376.765 146.842 386.417 143.083 394.462C139.328 402.506 134.434 397.249 134.434 397.249" stroke="#4B4B4B" stroke-width="1.5" stroke-miterlimit="10"/>
<path d="M116.048 57.1188C116.048 57.1188 157.574 65.6993 169.378 101.096" stroke="#4B4B4B" stroke-width="1.5" stroke-miterlimit="10"/>
<path d="M169.378 117.186C169.378 117.186 179.115 150.25 153.052 165.092" stroke="#4B4B4B" stroke-width="1.5" stroke-miterlimit="10"/>
<path d="M78.4242 34.5308C78.4242 34.5308 84.0599 52.2916 113.304 55.7783" stroke="#4B4B4B" stroke-width="1.5" stroke-miterlimit="10"/>
<path d="M111.962 240.539C111.962 240.539 96.1207 240.539 86.0657 251.801" stroke="#4B4B4B" stroke-width="1.5" stroke-miterlimit="10"/>
<path d="M85.1318 252.876C85.1318 252.876 66.8865 274.864 74.9356 294.71" stroke="#4B4B4B" stroke-width="1.5" stroke-miterlimit="10" stroke-dasharray="3 3"/>
<path d="M126.693 313.112C126.693 313.112 102.485 371.385 121.532 386.198" stroke="#4B4B4B" stroke-width="1.5" stroke-miterlimit="10"/>
<path d="M122.691 22.7906L68.549 55.7812" stroke="#4B4B4B" stroke-width="1.5" stroke-miterlimit="10" stroke-dasharray="3 3"/>
<path d="M147.044 354.019C147.044 354.019 153.816 377.836 159.718 377.836C168.117 377.836 176.021 355.963 169.211 331.501" stroke="#4B4B4B" stroke-width="1.5" stroke-miterlimit="10"/>
<path d="M182.668 350.869C182.668 350.869 174.423 387.484 162.94 372.476C155.963 363.36 160.616 347.135 160.616 347.135" stroke="#4B4B4B" stroke-width="1.5" stroke-miterlimit="10"/>
<path d="M144.001 378.946C144.001 378.946 151.238 391.266 155.963 367.645C159.718 348.874 160.257 314.558 148.985 323.136" stroke="#4B4B4B" stroke-width="1.5" stroke-miterlimit="10"/>
<path d="M108.743 316.529C108.743 316.529 119.331 358.129 106.06 361.747C100.158 363.357 98.5245 344.358 98.5245 344.358" stroke="#4B4B4B" stroke-width="1.5" stroke-miterlimit="10"/>
<path d="M64.7394 117.186L62.0564 113.968L64.7394 110.751" stroke="#4B4B4B" stroke-width="1.5" stroke-miterlimit="10"/>
<path d="M74.3996 113.969L63.1315 113.969" stroke="#4B4B4B" stroke-width="1.5" stroke-miterlimit="10"/>
<path d="M78.5109 127.656L74.8394 129.68L72.1884 126.437" stroke="#4B4B4B" stroke-width="1.5" stroke-miterlimit="10"/>
<path d="M77.179 117.567L75.0447 128.624" stroke="#4B4B4B" stroke-width="1.5" stroke-miterlimit="10"/>
<path d="M90.4144 119.35L90.1866 123.533L86.0272 124.062" stroke="#4B4B4B" stroke-width="1.5" stroke-miterlimit="10"/>
<path d="M81.1522 115.129L89.4002 122.802" stroke="#4B4B4B" stroke-width="1.5" stroke-miterlimit="10"/>
<path d="M66.3602 104.763L66.7228 100.278L71.2159 100.538" stroke="#4B4B4B" stroke-width="1.5" stroke-miterlimit="10"/>
<path d="M76.2258 111.19L67.5477 101.227" stroke="#4B4B4B" stroke-width="1.5" stroke-miterlimit="10"/>
<path d="M83.8096 101.096L88.2128 100.15L89.2559 104.528" stroke="#4B4B4B" stroke-width="1.5" stroke-miterlimit="10"/>
<path d="M80.4943 112.387L87.5388 101.214" stroke="#4B4B4B" stroke-width="1.5" stroke-miterlimit="10"/>
<path d="M90.5973 137.66L84.9649 135.649L83.925 141.506" stroke="#4B4B4B" stroke-width="1.5" stroke-miterlimit="10"/>
<path d="M167.77 134.35L171.194 131.37L174.208 134.35" stroke="#4B4B4B" stroke-width="1.5" stroke-miterlimit="10"/>
<path d="M161.329 91.9798L166.579 94.2412L167.77 88.7625" stroke="#4B4B4B" stroke-width="1.5" stroke-miterlimit="10"/>
<path d="M157.038 228.205L157.879 223.958L153.819 222.842" stroke="#4B4B4B" stroke-width="1.5" stroke-miterlimit="10"/>
<path d="M163.476 278.617L168.903 281.312L169.917 275.4" stroke="#4B4B4B" stroke-width="1.5" stroke-miterlimit="10"/>
<path d="M160.793 360.14L165.042 359.485L163.476 355.312" stroke="#4B4B4B" stroke-width="1.5" stroke-miterlimit="10"/>
<path d="M164.551 315.088L167.699 313.071L169.917 315.624" stroke="#4B4B4B" stroke-width="1.5" stroke-miterlimit="10"/>
<path d="M173.136 113.699C173.136 111.773 171.574 110.212 169.647 110.212C167.721 110.212 166.159 111.773 166.159 113.699C166.159 115.624 167.721 117.186 169.647 117.186C171.574 117.186 173.136 115.624 173.136 113.699Z" fill="#4B4B4B" stroke="#4B4B4B" stroke-width="1.5" stroke-miterlimit="10"/>
<path d="M81.3768 113.699C81.3768 111.773 79.8149 110.212 77.8882 110.212C75.9616 110.212 74.3997 111.773 74.3997 113.699C74.3997 115.624 75.9616 117.186 77.8882 117.186C79.8149 117.186 81.3768 115.624 81.3768 113.699Z" fill="#4B4B4B" stroke="#4B4B4B" stroke-width="1.5" stroke-miterlimit="10"/>
<path d="M80.3017 206.483C80.3017 204.557 78.7398 202.996 76.8131 202.996C74.8864 202.996 73.3245 204.557 73.3245 206.483C73.3245 208.409 74.8864 209.97 76.8131 209.97C78.7398 209.97 80.3017 208.409 80.3017 206.483Z" fill="#4B4B4B" stroke="#4B4B4B" stroke-width="1.5" stroke-miterlimit="10"/>
<path d="M115.329 240.385C115.329 238.46 113.767 236.899 111.84 236.899C109.913 236.899 108.352 238.46 108.352 240.385C108.352 242.311 109.913 243.872 111.84 243.872C113.767 243.872 115.329 242.311 115.329 240.385Z" fill="#4B4B4B" stroke="#4B4B4B" stroke-width="1.5" stroke-miterlimit="10"/>
<path d="M85.1318 22.524C85.1318 20.5984 83.5699 19.0373 81.6432 19.0373C79.7165 19.0373 78.1546 20.5984 78.1546 22.524C78.1546 24.4497 79.7165 26.0107 81.6432 26.0107C83.5699 26.0107 85.1318 24.4497 85.1318 22.524Z" fill="#4B4B4B" stroke="#4B4B4B" stroke-width="1.5" stroke-miterlimit="10"/>
<path d="M213.754 192.78C213.754 192.248 213.323 191.818 212.791 191.818C212.259 191.818 211.828 192.248 211.828 192.78C211.828 193.311 212.259 193.742 212.791 193.742C213.323 193.742 213.754 193.311 213.754 192.78Z" fill="#4B4B4B"/>
<path d="M219.335 191.828L219.335 192.902L218.789 192.902C218.786 192.729 218.773 192.578 218.76 192.444C218.744 192.312 218.719 192.193 218.677 192.091C218.638 191.988 218.577 191.902 218.5 191.825C218.423 191.751 218.318 191.68 218.186 191.619L218.186 191.035L223 191.035L223 191.825L219.335 191.825L219.335 191.828Z" fill="#4B4B4B"/>
<path d="M57.5408 114.863C57.4221 115.094 57.2584 115.286 57.0466 115.44C56.8347 115.594 56.5812 115.71 56.2859 115.787C55.9907 115.864 55.6633 115.902 55.3039 115.902C54.9476 115.902 54.6235 115.864 54.3282 115.787C54.033 115.71 53.7794 115.594 53.5676 115.44C53.3558 115.286 53.1921 115.094 53.0734 114.863C52.9546 114.632 52.8969 114.363 52.8969 114.055C52.8969 113.744 52.9546 113.471 53.0734 113.24C53.1921 113.009 53.3558 112.817 53.5676 112.663C53.7794 112.509 54.033 112.393 54.3282 112.316C54.6235 112.239 54.9476 112.201 55.3039 112.201C55.6633 112.201 55.9907 112.239 56.2859 112.316C56.5812 112.393 56.8347 112.509 57.0466 112.663C57.2584 112.817 57.4221 113.009 57.5408 113.24C57.6596 113.471 57.7173 113.74 57.7173 114.055C57.7173 114.363 57.6596 114.632 57.5408 114.863ZM56.6614 113.275C56.3501 113.092 55.8976 112.999 55.3103 112.999C54.7198 112.999 54.2705 113.092 53.9592 113.275C53.6478 113.458 53.4906 113.718 53.4906 114.058C53.4906 114.392 53.6478 114.648 53.9592 114.834C54.2705 115.017 54.723 115.11 55.3103 115.11C55.9008 115.11 56.3501 115.017 56.6614 114.834C56.9728 114.651 57.13 114.392 57.13 114.058C57.13 113.718 56.9728 113.458 56.6614 113.275Z" fill="#4B4B4B"/>
<path d="M31.4615 293.18L33.6182 293.099" stroke="#4B4B4B" stroke-width="1.5" stroke-miterlimit="10"/>
<path d="M57.7783 335.841C57.7783 335.31 57.3473 334.879 56.8155 334.879C56.2838 334.879 55.8527 335.31 55.8527 335.841C55.8527 336.373 56.2838 336.804 56.8155 336.804C57.3473 336.804 57.7783 336.373 57.7783 335.841Z" fill="#4B4B4B"/>
<path d="M51.6516 340.804C51.7062 340.614 51.7864 340.451 51.8923 340.316C51.9983 340.178 52.1298 340.072 52.2871 339.992C52.4444 339.915 52.6209 339.873 52.8231 339.873C53.067 339.873 53.3077 339.931 53.5484 340.043C53.7891 340.156 54.0266 340.316 54.2641 340.521C54.5016 340.727 54.7391 340.977 54.9798 341.269C55.2205 341.561 55.4612 341.885 55.7115 342.241L55.7115 339.764L56.3887 339.764L56.3887 343.206L55.75 343.206C55.4419 342.812 55.1563 342.459 54.8963 342.148C54.6364 341.836 54.3892 341.573 54.155 341.355C53.9239 341.137 53.7024 340.97 53.497 340.858C53.2916 340.743 53.0894 340.685 52.8937 340.685C52.6626 340.685 52.4861 340.752 52.3577 340.89C52.2325 341.028 52.1684 341.214 52.1684 341.448C52.1684 341.561 52.1844 341.67 52.2197 341.779C52.255 341.885 52.3128 341.978 52.393 342.058C52.4732 342.138 52.5792 342.202 52.7075 342.253C52.8359 342.305 52.99 342.327 53.1729 342.327L53.1729 343.103C52.9322 343.107 52.7172 343.071 52.5214 342.991C52.3256 342.914 52.1587 342.799 52.0175 342.651C51.8795 342.504 51.7704 342.324 51.6902 342.115C51.6131 341.907 51.5714 341.673 51.5714 341.41C51.5714 341.195 51.5971 340.99 51.6516 340.804Z" fill="#4B4B4B"/>
<path d="M49.4339 329.105C49.4339 328.574 49.0029 328.143 48.4711 328.143C47.9394 328.143 47.5083 328.574 47.5083 329.105C47.5083 329.637 47.9394 330.067 48.4711 330.067C49.0029 330.067 49.4339 329.637 49.4339 329.105Z" fill="#4B4B4B"/>
<path d="M45.2008 331.229C45.1655 331.113 45.1109 331.014 45.0435 330.927C44.9761 330.841 44.8927 330.777 44.7932 330.728C44.6937 330.68 44.5814 330.658 44.453 330.658C44.3022 330.658 44.177 330.687 44.0743 330.741C43.9716 330.796 43.8881 330.876 43.8272 330.979C43.7662 331.081 43.7213 331.203 43.6924 331.347C43.6635 331.492 43.6507 331.649 43.6507 331.819L43.6507 332.044L43.0152 332.044L43.0152 331.851C43.0152 331.133 42.7745 330.773 42.2963 330.773C42.1808 330.773 42.0781 330.796 41.9914 330.841C41.9048 330.886 41.8309 330.943 41.7764 331.017C41.7218 331.091 41.6801 331.174 41.6512 331.274C41.6223 331.373 41.6095 331.476 41.6095 331.582C41.6095 331.864 41.6897 332.082 41.847 332.242C42.0042 332.4 42.2193 332.496 42.4953 332.531L42.4953 333.275C42.2738 333.259 42.0716 333.205 41.8919 333.118C41.7122 333.031 41.5581 332.913 41.4298 332.765C41.3014 332.618 41.2019 332.441 41.1313 332.233C41.0607 332.024 41.0254 331.793 41.0254 331.537C41.0254 331.344 41.0479 331.155 41.0928 330.969C41.1377 330.783 41.2115 330.616 41.311 330.472C41.4105 330.327 41.5389 330.209 41.6929 330.122C41.847 330.036 42.0331 329.991 42.2514 329.991C42.4824 329.991 42.6878 330.052 42.874 330.177C43.0569 330.302 43.1981 330.465 43.2976 330.671C43.349 330.53 43.4164 330.408 43.4966 330.308C43.5768 330.209 43.6667 330.125 43.7662 330.061C43.8657 329.997 43.9716 329.949 44.0839 329.917C44.1962 329.885 44.315 329.869 44.4337 329.869C44.6744 329.869 44.8798 329.917 45.0564 330.01C45.2329 330.103 45.3773 330.231 45.496 330.392C45.6148 330.552 45.7014 330.738 45.7592 330.95C45.817 331.161 45.8459 331.383 45.8459 331.614C45.8459 331.883 45.8041 332.121 45.7239 332.329C45.6437 332.538 45.5313 332.711 45.3901 332.855C45.2489 332.999 45.0852 333.112 44.9023 333.192C44.7194 333.272 44.5236 333.32 44.3182 333.333L44.3182 332.589C44.4466 332.573 44.5685 332.538 44.6809 332.489C44.7932 332.441 44.8927 332.374 44.9793 332.294C45.066 332.214 45.1334 332.114 45.1815 332.002C45.2297 331.89 45.2553 331.755 45.2553 331.601C45.2553 331.469 45.2361 331.344 45.2008 331.229Z" fill="#4B4B4B"/>
<path d="M3.95712 227.086L5.08682 227.086L5.08682 227.875L3.95712 227.875L3.95712 230.252L3.2992 230.252L0.272766 227.869L0.272766 227.086L3.27353 227.086L3.27353 226.236L3.95712 226.236L3.95712 227.086ZM3.27353 227.878L1.29977 227.878L3.27032 229.392L3.27032 227.878L3.27353 227.878Z" fill="#4B4B4B"/>
<path d="M10.9215 228.064C10.9215 227.533 10.4904 227.102 9.95866 227.102C9.42691 227.102 8.99585 227.533 8.99585 228.064C8.99585 228.596 9.42692 229.026 9.95866 229.026C10.4904 229.026 10.9215 228.596 10.9215 228.064Z" fill="#4B4B4B"/>
<path d="M10.9215 213.63C10.9215 213.098 10.4904 212.667 9.95866 212.667C9.42691 212.667 8.99585 213.098 8.99585 213.63C8.99585 214.161 9.42692 214.592 9.95866 214.592C10.4904 214.592 10.9215 214.161 10.9215 213.63Z" fill="#4B4B4B"/>
<path d="M4.14651 213.162C4.10158 213.049 4.03418 212.95 3.95074 212.867C3.86729 212.783 3.76138 212.716 3.63301 212.668C3.50784 212.62 3.36663 212.597 3.20937 212.597C3.03607 212.597 2.88202 212.623 2.75364 212.677C2.62206 212.732 2.51294 212.806 2.42629 212.895C2.33963 212.985 2.27544 213.088 2.23372 213.203C2.192 213.316 2.17274 213.431 2.17274 213.55C2.17274 213.771 2.22089 213.957 2.31717 214.108C2.41345 214.259 2.52899 214.358 2.6702 214.403L2.63169 215.134L-1.94895e-08 214.817L-1.43156e-07 211.988L0.683596 211.988L0.683596 214.179L1.87106 214.329C1.7812 214.217 1.70739 214.079 1.65604 213.915C1.60469 213.752 1.57901 213.566 1.57901 213.351C1.57901 213.152 1.61431 212.956 1.68492 212.767C1.75553 212.578 1.85823 212.411 1.99302 212.267C2.12781 212.122 2.29791 212.007 2.5001 211.92C2.70229 211.834 2.93658 211.789 3.19974 211.789C3.46291 211.789 3.6972 211.837 3.89618 211.93C4.09516 212.023 4.26526 212.151 4.40326 212.312C4.54126 212.472 4.64396 212.658 4.71457 212.87C4.78517 213.081 4.81727 213.303 4.81727 213.537C4.81727 213.81 4.77555 214.053 4.6921 214.262C4.60866 214.47 4.49633 214.647 4.35512 214.791C4.21391 214.936 4.05023 215.045 3.86729 215.125C3.68436 215.205 3.48859 215.25 3.28319 215.263L3.28319 214.512C3.55598 214.477 3.78064 214.384 3.95395 214.23C4.12725 214.076 4.21391 213.842 4.21391 213.527C4.21391 213.396 4.19144 213.274 4.14651 213.162Z" fill="#4B4B4B"/>
<path d="M215.679 394.542C215.679 394.01 215.248 393.579 214.717 393.579C214.185 393.579 213.754 394.01 213.754 394.542C213.754 395.073 214.185 395.504 214.717 395.504C215.248 395.504 215.679 395.073 215.679 394.542Z" fill="#4B4B4B"/>
<path d="M212.791 407.051C212.791 406.52 212.36 406.089 211.828 406.089C211.296 406.089 210.865 406.52 210.865 407.051C210.865 407.583 211.296 408.014 211.828 408.014C212.36 408.014 212.791 407.583 212.791 407.051Z" fill="#4B4B4B"/>
<path d="M207.977 416.033C207.977 415.501 207.546 415.071 207.014 415.071C206.482 415.071 206.051 415.501 206.051 416.033C206.051 416.564 206.482 416.995 207.014 416.995C207.546 416.995 207.977 416.564 207.977 416.033Z" fill="#4B4B4B"/>
<path d="M212.008 416.254C212.085 416.379 212.194 416.481 212.332 416.568C212.47 416.655 212.637 416.719 212.833 416.767C213.028 416.815 213.244 416.841 213.484 416.844C213.333 416.741 213.208 416.597 213.106 416.411C213.003 416.225 212.951 415.997 212.951 415.728C212.951 415.513 212.99 415.314 213.064 415.125C213.138 414.935 213.244 414.772 213.382 414.634C213.52 414.496 213.683 414.384 213.879 414.303C214.075 414.223 214.293 414.182 214.537 414.182C214.768 414.182 214.98 414.223 215.176 414.307C215.371 414.39 215.538 414.505 215.679 414.653C215.821 414.801 215.93 414.98 216.01 415.189C216.09 415.397 216.129 415.625 216.129 415.875C216.129 416.18 216.074 416.44 215.965 416.658C215.856 416.876 215.702 417.056 215.503 417.2C215.304 417.344 215.066 417.45 214.787 417.517C214.508 417.585 214.2 417.62 213.857 417.62C213.523 417.62 213.202 417.588 212.894 417.524C212.586 417.46 212.316 417.354 212.079 417.206C211.844 417.059 211.655 416.87 211.517 416.635C211.379 416.401 211.308 416.116 211.308 415.773C211.308 415.529 211.344 415.317 211.417 415.134C211.491 414.951 211.584 414.801 211.703 414.679C211.822 414.557 211.953 414.464 212.104 414.396C212.255 414.329 212.406 414.287 212.56 414.271L212.56 415.048C212.332 415.073 212.165 415.157 212.056 415.301C211.947 415.445 211.892 415.622 211.892 415.83C211.892 415.987 211.931 416.129 212.008 416.254ZM215.272 416.533C215.448 416.363 215.535 416.148 215.535 415.882C215.535 415.75 215.513 415.628 215.468 415.516C215.423 415.404 215.358 415.307 215.272 415.227C215.185 415.147 215.082 415.083 214.961 415.038C214.839 414.993 214.701 414.971 214.547 414.971C214.238 414.971 213.998 415.054 213.818 415.224C213.641 415.394 213.552 415.609 213.552 415.875C213.552 416.141 213.641 416.356 213.818 416.53C213.995 416.703 214.238 416.786 214.547 416.786C214.855 416.786 215.095 416.7 215.272 416.533Z" fill="#4B4B4B"/>
<path d="M216.26 405.441L216.957 405.441C217.249 405.746 217.544 406.019 217.843 406.253C218.141 406.49 218.456 406.692 218.789 406.856C219.12 407.023 219.473 407.151 219.848 407.247C220.224 407.343 220.631 407.404 221.074 407.43L221.074 408.325C220.651 408.302 220.243 408.235 219.858 408.126C219.473 408.017 219.107 407.869 218.764 407.687C218.42 407.504 218.096 407.295 217.794 407.051C217.493 406.811 217.213 406.551 216.957 406.272L216.957 408.893L216.26 408.893L216.26 405.441Z" fill="#4B4B4B"/>
<path d="M218.276 393.756C218.337 393.56 218.417 393.393 218.523 393.255C218.629 393.117 218.754 393.008 218.902 392.935C219.049 392.861 219.21 392.822 219.38 392.822C219.582 392.822 219.775 392.867 219.967 392.96C220.156 393.053 220.314 393.204 220.439 393.419C220.58 393.146 220.753 392.954 220.962 392.845C221.171 392.736 221.382 392.681 221.601 392.681C221.832 392.681 222.034 392.726 222.207 392.816C222.381 392.906 222.528 393.028 222.647 393.182C222.766 393.336 222.856 393.518 222.917 393.73C222.978 393.942 223.006 394.17 223.006 394.413C223.006 394.657 222.978 394.885 222.917 395.097C222.856 395.308 222.766 395.491 222.647 395.645C222.528 395.799 222.381 395.921 222.207 396.011C222.034 396.101 221.832 396.146 221.601 396.146C221.495 396.146 221.386 396.133 221.277 396.107C221.167 396.081 221.062 396.04 220.962 395.982C220.863 395.924 220.766 395.847 220.676 395.754C220.587 395.661 220.506 395.546 220.439 395.408C220.323 395.613 220.169 395.764 219.974 395.86C219.778 395.956 219.582 396.004 219.38 396.004C219.21 396.004 219.049 395.966 218.902 395.892C218.754 395.818 218.629 395.712 218.523 395.575C218.417 395.437 218.337 395.27 218.276 395.074C218.215 394.878 218.186 394.657 218.186 394.413C218.186 394.17 218.218 393.951 218.276 393.756ZM220.956 395.097C221.106 395.267 221.312 395.35 221.572 395.35C221.838 395.35 222.044 395.267 222.191 395.097C222.339 394.927 222.413 394.699 222.413 394.413C222.413 394.128 222.339 393.9 222.191 393.73C222.044 393.56 221.838 393.477 221.572 393.477C221.312 393.477 221.106 393.56 220.956 393.73C220.805 393.9 220.731 394.125 220.731 394.413C220.731 394.699 220.808 394.927 220.956 395.097ZM218.956 393.804C218.831 393.955 218.77 394.157 218.77 394.413C218.77 394.667 218.831 394.869 218.956 395.023C219.081 395.177 219.255 395.254 219.476 395.254C219.698 395.254 219.877 395.177 220.012 395.023C220.147 394.869 220.214 394.667 220.214 394.413C220.214 394.157 220.147 393.955 220.012 393.804C219.877 393.653 219.698 393.579 219.476 393.579C219.255 393.579 219.081 393.656 218.956 393.804Z" fill="#4B4B4B"/>
</g>
<defs>
<clipPath id="clip0_721_13288">
<rect width="436" height="223" fill="white" transform="translate(0 436) rotate(-90)"/>
</clipPath>
</defs>
</svg>
