<svg width="268" height="81" viewBox="0 0 268 81" fill="none" xmlns="http://www.w3.org/2000/svg">
<path d="M6.52969 35V0.199999H0.433688V35H6.52969ZM18.9827 12.776V9.176H13.2707V35H18.9827V21.272C18.9827 20.12 19.0787 19.064 19.2707 18.056C19.4627 17.096 19.8467 16.232 20.3267 15.512C20.8067 14.84 21.4307 14.264 22.1987 13.88C22.9667 13.496 23.8787 13.256 24.9827 13.256C26.0387 13.256 26.9027 13.448 27.5747 13.832C28.2467 14.216 28.7267 14.744 29.0627 15.416C29.3987 16.088 29.6387 16.808 29.7347 17.624C29.8307 18.488 29.8787 19.304 29.8787 20.168V35H35.5907V18.776C35.5907 17.24 35.3987 15.848 35.0627 14.6C34.7267 13.352 34.1987 12.296 33.5267 11.384C32.8067 10.52 31.8947 9.8 30.7907 9.32C29.6867 8.84 28.3427 8.6 26.8067 8.6C24.9827 8.6 23.3987 8.984 22.0547 9.704C20.7107 10.424 19.7027 11.432 18.9827 12.776ZM42.3523 2.36V9.176H38.5123V13.304H42.3523V28.232C42.3523 29.576 42.4003 30.68 42.5923 31.544C42.7843 32.408 43.1203 33.128 43.6003 33.608C44.0803 34.136 44.7523 34.52 45.6163 34.712C46.4803 34.904 47.5843 35 48.9763 35H53.2003V30.632H51.1363C49.8883 30.632 49.0723 30.44 48.6883 30.008C48.2563 29.576 48.0643 28.712 48.0643 27.368V13.304H53.2483V9.176H48.0643V2.36H42.3523ZM71.9608 14.984V9.224C71.7208 9.224 71.4808 9.176 71.1928 9.176C70.9048 9.176 70.6648 9.128 70.4248 9.128C68.8888 9.176 67.4968 9.608 66.2968 10.424C65.0968 11.24 64.1368 12.344 63.4168 13.784V9.176H57.8008V35H63.5128V21.464C63.5128 20.216 63.6568 19.112 63.8968 18.248C64.1848 17.384 64.5208 16.712 65.0008 16.232C65.4808 15.752 66.1048 15.368 66.7768 15.176C67.4968 14.984 68.3128 14.888 69.1768 14.888C70.0408 14.888 71.0008 14.888 71.9608 14.984ZM79.1811 22.136C79.1811 20.696 79.3251 19.4 79.7091 18.248C80.0931 17.144 80.5731 16.232 81.1971 15.512C81.8211 14.744 82.5411 14.216 83.4051 13.832C84.2211 13.448 85.0851 13.304 85.9971 13.304C86.8611 13.304 87.7251 13.448 88.5891 13.832C89.4051 14.216 90.1251 14.744 90.7491 15.512C91.3731 16.232 91.8531 17.144 92.2371 18.248C92.6211 19.4 92.8131 20.696 92.8131 22.136C92.8131 23.672 92.6211 24.968 92.2371 26.072C91.8531 27.176 91.3731 28.088 90.7491 28.808C90.1251 29.528 89.4051 30.056 88.5891 30.44C87.7251 30.824 86.8611 30.968 85.9971 30.968C85.0851 30.968 84.2211 30.824 83.4051 30.44C82.5411 30.056 81.8211 29.528 81.1971 28.808C80.5731 28.088 80.0931 27.176 79.7091 26.072C79.3251 24.968 79.1811 23.672 79.1811 22.136ZM85.9971 8.6C84.4131 8.6 82.8771 8.888 81.3411 9.416C79.8051 9.992 78.4611 10.808 77.2611 11.912C76.0611 13.016 75.1011 14.408 74.3331 16.088C73.6131 17.816 73.2291 19.832 73.2291 22.136C73.2291 24.488 73.6131 26.504 74.3331 28.184C75.1011 29.912 76.0611 31.304 77.2611 32.408C78.4611 33.512 79.8051 34.328 81.3411 34.856C82.8771 35.384 84.4131 35.624 85.9971 35.624C87.5331 35.624 89.0691 35.384 90.6051 34.856C92.1411 34.328 93.4851 33.512 94.6851 32.408C95.8851 31.304 96.8451 29.912 97.6131 28.184C98.3331 26.504 98.7171 24.488 98.7171 22.136C98.7171 19.832 98.3331 17.816 97.6131 16.088C96.8451 14.408 95.8851 13.016 94.6851 11.912C93.4851 10.808 92.1411 9.992 90.6051 9.416C89.0691 8.888 87.5331 8.6 85.9971 8.6ZM120.829 0.199999V12.632C120.061 11.384 119.005 10.376 117.709 9.656C116.365 8.984 114.877 8.6 113.149 8.6C111.613 8.6 110.125 8.936 108.781 9.56C107.437 10.184 106.237 11.096 105.229 12.248C104.173 13.448 103.357 14.888 102.781 16.52C102.205 18.2 101.917 20.072 101.917 22.136C101.917 24.2 102.205 26.072 102.781 27.752C103.357 29.384 104.173 30.824 105.229 32.024C106.237 33.176 107.437 34.088 108.781 34.712C110.125 35.336 111.613 35.672 113.149 35.672C114.877 35.672 116.365 35.288 117.709 34.616C119.005 33.896 120.061 32.888 120.829 31.64V35.048H126.541V0.247998L120.829 0.199999ZM121.069 22.136C121.069 23.624 120.877 24.92 120.541 26.024C120.157 27.128 119.677 28.04 119.101 28.808C118.525 29.528 117.805 30.056 116.989 30.44C116.173 30.824 115.309 31.016 114.397 31.016C112.477 31.016 110.893 30.2 109.693 28.616C108.445 27.032 107.869 24.872 107.869 22.136C107.869 20.792 108.013 19.544 108.349 18.488C108.637 17.384 109.117 16.472 109.693 15.704C110.269 14.936 110.941 14.312 111.757 13.928C112.525 13.496 113.437 13.304 114.397 13.304C115.309 13.304 116.173 13.448 116.989 13.832C117.805 14.216 118.525 14.744 119.101 15.464C119.677 16.184 120.157 17.096 120.541 18.248C120.877 19.352 121.069 20.648 121.069 22.136ZM148.925 31.448V35H154.637V9.176H148.925V22.952C148.925 24.104 148.781 25.208 148.589 26.168C148.397 27.176 148.061 28.04 147.629 28.76C147.149 29.432 146.573 30.008 145.805 30.392C145.037 30.776 144.173 31.016 143.117 31.016C142.061 31.016 141.197 30.824 140.573 30.44C139.901 30.056 139.421 29.528 139.133 28.856C138.797 28.184 138.605 27.464 138.509 26.648C138.413 25.784 138.365 24.968 138.365 24.104V9.224H132.653V25.496C132.653 27.032 132.797 28.424 133.133 29.672C133.421 30.92 133.949 31.976 134.669 32.888C135.341 33.752 136.253 34.472 137.357 34.952C138.413 35.432 139.757 35.672 141.293 35.672C143.021 35.672 144.557 35.288 145.853 34.568C147.149 33.848 148.157 32.792 148.925 31.448ZM171.964 8.6C170.044 8.6 168.268 8.984 166.732 9.656C165.148 10.328 163.804 11.288 162.7 12.488C161.596 13.736 160.732 15.176 160.156 16.808C159.58 18.44 159.292 20.216 159.292 22.136C159.292 24.056 159.58 25.88 160.156 27.512C160.732 29.144 161.596 30.584 162.7 31.784C163.756 32.984 165.052 33.944 166.588 34.616C168.124 35.288 169.804 35.624 171.724 35.624C173.068 35.624 174.412 35.432 175.756 35C177.052 34.616 178.252 33.992 179.356 33.176C180.412 32.408 181.372 31.4 182.14 30.2C182.908 29.048 183.436 27.704 183.724 26.168H178.156C177.964 27.032 177.628 27.8 177.244 28.376C176.812 28.952 176.332 29.432 175.756 29.816C175.18 30.2 174.556 30.488 173.884 30.632C173.212 30.824 172.492 30.872 171.82 30.872C170.956 30.872 170.14 30.728 169.372 30.392C168.556 30.056 167.836 29.528 167.212 28.808C166.588 28.088 166.108 27.176 165.724 26.072C165.34 24.968 165.196 23.624 165.196 22.088C165.196 20.552 165.34 19.256 165.724 18.152C166.108 17.096 166.588 16.184 167.212 15.464C167.836 14.744 168.556 14.216 169.372 13.88C170.188 13.544 171.052 13.352 171.964 13.352C173.5 13.352 174.844 13.784 175.948 14.648C177.004 15.512 177.676 16.664 177.964 18.008H183.532C183.244 16.568 182.764 15.272 182.092 14.12C181.372 12.968 180.508 12.008 179.5 11.192C178.444 10.376 177.292 9.752 175.996 9.272C174.7 8.84 173.356 8.6 171.964 8.6ZM188.977 2.36V9.176H185.137V13.304H188.977V28.232C188.977 29.576 189.025 30.68 189.217 31.544C189.409 32.408 189.745 33.128 190.225 33.608C190.705 34.136 191.377 34.52 192.241 34.712C193.105 34.904 194.209 35 195.601 35H199.825V30.632H197.761C196.513 30.632 195.697 30.44 195.313 30.008C194.881 29.576 194.689 28.712 194.689 27.368V13.304H199.873V9.176H194.689V2.36H188.977ZM210.186 0.199999H204.474V5.96H210.186V0.199999ZM210.186 9.176H204.474V35H210.186V9.176ZM220.79 22.136C220.79 20.696 220.934 19.4 221.318 18.248C221.702 17.144 222.182 16.232 222.806 15.512C223.43 14.744 224.15 14.216 225.014 13.832C225.83 13.448 226.694 13.304 227.606 13.304C228.47 13.304 229.334 13.448 230.198 13.832C231.014 14.216 231.734 14.744 232.358 15.512C232.982 16.232 233.462 17.144 233.846 18.248C234.23 19.4 234.422 20.696 234.422 22.136C234.422 23.672 234.23 24.968 233.846 26.072C233.462 27.176 232.982 28.088 232.358 28.808C231.734 29.528 231.014 30.056 230.198 30.44C229.334 30.824 228.47 30.968 227.606 30.968C226.694 30.968 225.83 30.824 225.014 30.44C224.15 30.056 223.43 29.528 222.806 28.808C222.182 28.088 221.702 27.176 221.318 26.072C220.934 24.968 220.79 23.672 220.79 22.136ZM227.606 8.6C226.022 8.6 224.486 8.888 222.95 9.416C221.414 9.992 220.07 10.808 218.87 11.912C217.67 13.016 216.71 14.408 215.942 16.088C215.222 17.816 214.838 19.832 214.838 22.136C214.838 24.488 215.222 26.504 215.942 28.184C216.71 29.912 217.67 31.304 218.87 32.408C220.07 33.512 221.414 34.328 222.95 34.856C224.486 35.384 226.022 35.624 227.606 35.624C229.142 35.624 230.678 35.384 232.214 34.856C233.75 34.328 235.094 33.512 236.294 32.408C237.494 31.304 238.454 29.912 239.222 28.184C239.942 26.504 240.326 24.488 240.326 22.136C240.326 19.832 239.942 17.816 239.222 16.088C238.454 14.408 237.494 13.016 236.294 11.912C235.094 10.808 233.75 9.992 232.214 9.416C230.678 8.888 229.142 8.6 227.606 8.6ZM250.733 12.776V9.176H245.021V35H250.733V21.272C250.733 20.12 250.829 19.064 251.021 18.056C251.213 17.096 251.597 16.232 252.077 15.512C252.557 14.84 253.181 14.264 253.949 13.88C254.717 13.496 255.629 13.256 256.733 13.256C257.789 13.256 258.653 13.448 259.325 13.832C259.997 14.216 260.477 14.744 260.813 15.416C261.149 16.088 261.389 16.808 261.485 17.624C261.581 18.488 261.629 19.304 261.629 20.168V35H267.341V18.776C267.341 17.24 267.149 15.848 266.813 14.6C266.477 13.352 265.949 12.296 265.277 11.384C264.557 10.52 263.645 9.8 262.541 9.32C261.437 8.84 260.093 8.6 258.557 8.6C256.733 8.6 255.149 8.984 253.805 9.704C252.461 10.424 251.453 11.432 250.733 12.776ZM6.64969 67.288C6.64969 66.184 6.79369 65.176 7.08169 64.312C7.36969 63.448 7.77769 62.728 8.28169 62.152C8.78569 61.576 9.38569 61.12 10.0817 60.808C10.7537 60.52 11.4977 60.352 12.3137 60.352C13.0817 60.352 13.8257 60.52 14.5217 60.808C15.2177 61.12 15.8177 61.576 16.3217 62.152C16.8257 62.728 17.2337 63.448 17.5217 64.312C17.8097 65.176 17.9777 66.184 17.9777 67.288C17.9777 68.416 17.8097 69.4 17.5217 70.264C17.2337 71.128 16.8257 71.872 16.3217 72.448C15.8177 73.048 15.2177 73.504 14.5217 73.816C13.8257 74.104 13.0817 74.272 12.3137 74.272C11.4977 74.272 10.7537 74.104 10.0817 73.816C9.38569 73.504 8.78569 73.048 8.28169 72.448C7.77769 71.872 7.36969 71.128 7.08169 70.264C6.79369 69.4 6.64969 68.416 6.64969 67.288ZM20.4737 67.288C20.4737 65.992 20.2817 64.768 19.8977 63.664C19.5137 62.56 18.9857 61.624 18.2657 60.832C17.5457 60.04 16.6817 59.416 15.6737 58.96C14.6657 58.528 13.5377 58.288 12.2897 58.288C11.0417 58.288 9.91369 58.528 8.90569 58.96C7.89769 59.416 7.05769 60.04 6.33769 60.832C5.61769 61.624 5.08969 62.56 4.70569 63.664C4.32169 64.768 4.12969 65.992 4.12969 67.288C4.12969 68.608 4.32169 69.808 4.70569 70.912C5.08969 72.016 5.61769 72.976 6.33769 73.768C7.05769 74.584 7.89769 75.208 8.90569 75.64C9.91369 76.096 11.0417 76.312 12.2897 76.312C13.5377 76.312 14.6657 76.096 15.6737 75.64C16.6817 75.208 17.5457 74.584 18.2657 73.768C18.9857 72.976 19.5137 72.016 19.8977 70.912C20.2817 69.808 20.4737 68.608 20.4737 67.288ZM25.6151 65.032V63.088H23.4311V76H25.6151V68.992C25.6151 67.6 25.9031 66.568 26.5271 65.848C27.1271 65.128 27.9671 64.768 29.0231 64.768C29.6471 64.768 30.1271 64.888 30.5111 65.08C30.8951 65.272 31.1831 65.56 31.3751 65.896C31.5671 66.232 31.6871 66.64 31.7591 67.072C31.8071 67.528 31.8551 68.008 31.8551 68.488V76H34.0391V67.84C34.0391 67.12 33.9431 66.448 33.7991 65.824C33.6551 65.224 33.4151 64.696 33.0791 64.264C32.7431 63.832 32.2871 63.496 31.7591 63.256C31.2311 63.016 30.5591 62.896 29.7911 62.896C28.6871 62.896 27.8231 63.088 27.1511 63.52C26.4791 63.928 25.9751 64.432 25.6151 65.032ZM39.3941 69.592C39.3941 68.752 39.4901 68.032 39.7061 67.408C39.8981 66.784 40.1861 66.28 40.5461 65.896C40.8821 65.512 41.2901 65.224 41.7461 65.032C42.2021 64.84 42.6821 64.744 43.1621 64.744C44.2661 64.744 45.1781 65.176 45.8501 66.016C46.5221 66.856 46.8581 68.056 46.8581 69.592C46.8581 71.152 46.5221 72.352 45.8501 73.192C45.1781 74.032 44.2661 74.44 43.1621 74.44C42.6821 74.44 42.2021 74.368 41.7461 74.176C41.2901 73.984 40.8821 73.696 40.5461 73.312C40.1861 72.928 39.8981 72.424 39.7061 71.8C39.4901 71.176 39.3941 70.456 39.3941 69.592ZM39.4901 58.6H37.3061V76H39.4901V74.056C39.8741 74.752 40.4261 75.304 41.1221 75.712C41.7941 76.12 42.6581 76.312 43.7141 76.312C44.4341 76.312 45.1541 76.168 45.8261 75.88C46.4981 75.592 47.0741 75.136 47.5781 74.56C48.0821 73.984 48.4901 73.288 48.7781 72.448C49.0661 71.632 49.2341 70.672 49.2341 69.592C49.2341 68.536 49.0661 67.6 48.7781 66.76C48.4901 65.944 48.0821 65.224 47.5781 64.648C47.0741 64.072 46.4981 63.64 45.8261 63.328C45.1541 63.04 44.4341 62.872 43.7141 62.872C42.6581 62.872 41.7941 63.088 41.1221 63.496C40.4261 63.904 39.8741 64.456 39.4901 65.128V58.6ZM53.3957 69.592C53.3957 68.728 53.4917 67.984 53.7077 67.36C53.9237 66.76 54.2117 66.256 54.5717 65.872C54.9317 65.488 55.3397 65.224 55.8197 65.056C56.2757 64.888 56.7557 64.792 57.2597 64.792C57.7397 64.792 58.2197 64.888 58.6997 65.056C59.1557 65.248 59.5637 65.512 59.9237 65.896C60.2837 66.28 60.5717 66.784 60.7877 67.384C61.0037 68.008 61.1237 68.728 61.1237 69.592C61.1237 70.432 61.0037 71.152 60.7877 71.752C60.5717 72.352 60.2837 72.856 59.9237 73.24C59.5637 73.624 59.1557 73.912 58.6997 74.104C58.2197 74.296 57.7397 74.392 57.2597 74.392C56.7557 74.392 56.2757 74.32 55.8197 74.128C55.3397 73.96 54.9317 73.672 54.5717 73.288C54.2117 72.904 53.9237 72.424 53.7077 71.8C53.4917 71.2 53.3957 70.456 53.3957 69.592ZM57.2597 62.872C56.4917 62.872 55.7477 63.016 55.0277 63.28C54.2837 63.544 53.6117 63.952 53.0117 64.48C52.4357 65.032 51.9557 65.728 51.5957 66.568C51.2357 67.432 51.0437 68.44 51.0437 69.592C51.0437 70.768 51.2357 71.776 51.5957 72.616C51.9557 73.48 52.4357 74.176 53.0117 74.704C53.6117 75.256 54.2837 75.664 55.0277 75.928C55.7477 76.192 56.4917 76.312 57.2597 76.312C58.0037 76.312 58.7477 76.192 59.4917 75.928C60.2117 75.664 60.8837 75.256 61.4837 74.704C62.0597 74.176 62.5397 73.48 62.8997 72.616C63.2597 71.776 63.4517 70.768 63.4517 69.592C63.4517 68.44 63.2597 67.432 62.8997 66.568C62.5397 65.728 62.0597 65.032 61.4837 64.48C60.8837 63.952 60.2117 63.544 59.4917 63.28C58.7477 63.016 58.0037 62.872 57.2597 62.872ZM74.1999 69.784V70.6C74.1999 71.368 74.0799 72.016 73.8639 72.52C73.6239 73.024 73.3359 73.432 72.9759 73.744C72.5919 74.056 72.1839 74.272 71.7039 74.392C71.2239 74.536 70.7199 74.584 70.2159 74.584C69.4239 74.584 68.7999 74.416 68.3679 74.032C67.9359 73.648 67.7199 73.168 67.7199 72.544C67.7199 72.112 67.8639 71.728 68.1759 71.416C68.4639 71.128 68.8959 70.864 69.4719 70.648C70.0239 70.456 70.6959 70.288 71.5119 70.144C72.3039 70 73.1919 69.88 74.1999 69.784ZM69.7119 76.312C70.8639 76.312 71.7999 76.144 72.4959 75.784C73.1919 75.424 73.7439 74.896 74.1279 74.224C74.1519 74.608 74.1759 74.944 74.1999 75.232C74.2479 75.52 74.2719 75.76 74.2959 76H76.5039C76.3839 75.4 76.2879 74.704 76.2399 73.936C76.1919 73.168 76.1679 72.232 76.1919 71.128L76.2159 68.152C76.2159 66.328 75.8079 64.984 74.9919 64.12C74.1759 63.256 72.8559 62.824 71.0799 62.824C70.4559 62.824 69.8319 62.92 69.2319 63.112C68.6319 63.304 68.1039 63.592 67.6239 63.952C67.1439 64.336 66.7359 64.792 66.4239 65.32C66.1119 65.872 65.9439 66.496 65.8959 67.168H68.1519C68.1999 66.376 68.4639 65.752 68.9679 65.296C69.4719 64.84 70.1919 64.6 71.1039 64.6C71.4879 64.6 71.8719 64.672 72.2319 64.768C72.5919 64.864 72.9039 65.056 73.1679 65.296C73.4319 65.536 73.6479 65.872 73.7919 66.256C73.9359 66.664 74.0319 67.168 74.0319 67.744V68.056C72.6879 68.2 71.4879 68.392 70.4319 68.584C69.3519 68.8 68.4399 69.064 67.6719 69.4C66.9039 69.736 66.3279 70.168 65.9199 70.672C65.4879 71.2 65.2959 71.824 65.2959 72.592C65.2959 73.192 65.3919 73.72 65.6319 74.176C65.8719 74.656 66.1839 75.04 66.5919 75.352C66.9999 75.664 67.4799 75.904 68.0079 76.072C68.5359 76.24 69.1119 76.312 69.7119 76.312ZM85.9022 65.368V63.04C85.7582 63.04 85.6622 63.016 85.5662 63.016H85.2542C84.3902 63.064 83.6462 63.28 83.0222 63.664C82.3982 64.048 81.9182 64.624 81.6062 65.344V63.088H79.4702V76H81.6542V69.232C81.6542 67.816 81.8942 66.808 82.3982 66.184C82.9022 65.584 83.6702 65.272 84.6782 65.272C84.8462 65.272 85.0382 65.296 85.2542 65.296C85.4462 65.32 85.6622 65.344 85.9022 65.368ZM96.6231 58.6V65.128C96.2151 64.456 95.6631 63.904 94.9671 63.496C94.2951 63.088 93.4311 62.872 92.3751 62.872C91.6551 62.872 90.9351 63.04 90.2631 63.328C89.5911 63.64 89.0151 64.072 88.5111 64.648C88.0071 65.224 87.5991 65.944 87.3111 66.76C87.0231 67.6 86.8551 68.536 86.8551 69.592C86.8551 70.672 87.0231 71.632 87.3111 72.472C87.5991 73.288 88.0071 74.008 88.5111 74.584C89.0151 75.16 89.5911 75.592 90.2631 75.88C90.9351 76.168 91.6551 76.336 92.3751 76.336C93.4311 76.336 94.2951 76.12 94.9671 75.712C95.6631 75.304 96.2151 74.752 96.6231 74.08V76.024H98.8071V58.624L96.6231 58.6ZM96.7191 69.616C96.7191 70.456 96.5991 71.176 96.4071 71.8C96.1911 72.424 95.9031 72.928 95.5431 73.312C95.2071 73.696 94.7991 73.984 94.3431 74.176C93.8871 74.368 93.4071 74.464 92.9271 74.464C91.8231 74.464 90.9111 74.032 90.2391 73.192C89.5671 72.352 89.2311 71.152 89.2311 69.616C89.2311 68.056 89.5671 66.856 90.2391 66.016C90.9111 65.176 91.8231 64.768 92.9271 64.768C93.4071 64.768 93.8871 64.84 94.3431 65.032C94.7991 65.224 95.2071 65.512 95.5431 65.896C95.9031 66.28 96.1911 66.784 96.4071 67.408C96.5991 68.032 96.7191 68.752 96.7191 69.616ZM104.435 63.088H102.251V76H104.435V63.088ZM104.435 58.6H102.251V61.24H104.435V58.6ZM110.084 65.032V63.088H107.9V76H110.084V68.992C110.084 67.6 110.372 66.568 110.996 65.848C111.596 65.128 112.436 64.768 113.492 64.768C114.116 64.768 114.596 64.888 114.98 65.08C115.364 65.272 115.652 65.56 115.844 65.896C116.036 66.232 116.156 66.64 116.228 67.072C116.276 67.528 116.324 68.008 116.324 68.488V76H118.508V67.84C118.508 67.12 118.412 66.448 118.268 65.824C118.124 65.224 117.884 64.696 117.548 64.264C117.212 63.832 116.756 63.496 116.228 63.256C115.7 63.016 115.028 62.896 114.26 62.896C113.156 62.896 112.292 63.088 111.62 63.52C110.948 63.928 110.444 64.432 110.084 65.032ZM130.463 63.088V65.128C130.055 64.456 129.527 63.904 128.879 63.496C128.231 63.088 127.391 62.872 126.359 62.872C125.639 62.872 124.943 63.016 124.295 63.304C123.623 63.592 123.047 64.024 122.543 64.552C122.039 65.104 121.631 65.776 121.343 66.592C121.031 67.408 120.887 68.32 120.887 69.352C120.887 70.384 121.031 71.296 121.343 72.112C121.631 72.904 122.039 73.576 122.543 74.128C123.047 74.68 123.623 75.088 124.295 75.376C124.943 75.664 125.639 75.808 126.359 75.808C127.391 75.808 128.231 75.592 128.879 75.208C129.527 74.8 130.055 74.248 130.463 73.552V74.776C130.463 75.208 130.439 75.592 130.391 75.904C130.343 76.216 130.295 76.48 130.223 76.696C130.127 76.912 130.031 77.08 129.935 77.224C129.839 77.368 129.719 77.512 129.623 77.632C129.023 78.28 128.135 78.592 126.983 78.592C126.455 78.592 126.023 78.544 125.687 78.448C125.351 78.352 125.063 78.208 124.823 78.016C124.583 77.824 124.415 77.608 124.271 77.368C124.127 77.128 124.031 76.84 123.959 76.552H121.631C121.847 77.872 122.423 78.856 123.359 79.528C124.271 80.2 125.471 80.536 126.959 80.536C127.919 80.536 128.783 80.368 129.551 80.08C130.319 79.792 130.943 79.36 131.399 78.832C131.591 78.616 131.759 78.376 131.903 78.136C132.047 77.896 132.191 77.584 132.287 77.248C132.407 76.888 132.503 76.48 132.551 76C132.599 75.52 132.623 74.944 132.623 74.296V63.112L130.463 63.088ZM130.535 69.352C130.535 70.168 130.439 70.864 130.247 71.44C130.055 72.016 129.767 72.496 129.431 72.88C129.095 73.264 128.711 73.528 128.279 73.696C127.847 73.864 127.367 73.96 126.887 73.96C125.831 73.96 124.943 73.552 124.271 72.76C123.599 71.968 123.239 70.84 123.239 69.352C123.239 67.864 123.599 66.736 124.271 65.944C124.943 65.152 125.831 64.768 126.887 64.768C127.367 64.768 127.847 64.84 128.279 65.008C128.711 65.176 129.095 65.44 129.431 65.824C129.767 66.208 130.055 66.688 130.247 67.264C130.439 67.84 130.535 68.536 130.535 69.352ZM155.062 68.488H140.999V70.6H155.062L149.975 75.664L151.319 77.008L158.783 69.544L151.319 62.08L149.975 63.4L155.062 68.488ZM169.465 76V58.6H167.017V76H169.465ZM175.451 65.032V63.088H173.267V76H175.451V68.992C175.451 67.6 175.739 66.568 176.363 65.848C176.963 65.128 177.803 64.768 178.859 64.768C179.483 64.768 179.963 64.888 180.347 65.08C180.731 65.272 181.019 65.56 181.211 65.896C181.403 66.232 181.523 66.64 181.595 67.072C181.643 67.528 181.691 68.008 181.691 68.488V76H183.875V67.84C183.875 67.12 183.779 66.448 183.635 65.824C183.491 65.224 183.251 64.696 182.915 64.264C182.579 63.832 182.123 63.496 181.595 63.256C181.067 63.016 180.395 62.896 179.627 62.896C178.523 62.896 177.659 63.088 176.987 63.52C176.315 63.928 175.811 64.432 175.451 65.032ZM187.766 59.848V63.088H185.726V64.84H187.766V72.76C187.766 73.432 187.79 73.984 187.886 74.416C187.982 74.848 188.126 75.16 188.366 75.4C188.582 75.64 188.894 75.784 189.278 75.88C189.662 75.976 190.166 76.024 190.79 76.024H192.374V74.2H191.27C190.958 74.2 190.718 74.176 190.55 74.128C190.358 74.08 190.238 73.984 190.142 73.864C190.046 73.72 189.998 73.552 189.974 73.336C189.95 73.12 189.95 72.856 189.95 72.52V64.864H192.398V63.112H189.95V59.872L187.766 59.848ZM196.294 70.264H206.23C206.278 69.256 206.182 68.296 205.942 67.384C205.702 66.496 205.318 65.704 204.79 65.032C204.262 64.36 203.614 63.832 202.846 63.448C202.054 63.064 201.166 62.872 200.182 62.872C199.318 62.872 198.502 63.04 197.734 63.352C196.966 63.664 196.318 64.12 195.742 64.696C195.166 65.272 194.734 65.992 194.398 66.808C194.086 67.624 193.918 68.56 193.918 69.568C193.918 70.528 194.062 71.416 194.35 72.232C194.638 73.048 195.046 73.768 195.574 74.368C196.102 74.992 196.774 75.472 197.542 75.808C198.334 76.144 199.246 76.312 200.254 76.312C201.046 76.312 201.766 76.216 202.414 76C203.062 75.784 203.638 75.496 204.118 75.112C204.598 74.752 205.006 74.32 205.342 73.84C205.678 73.36 205.894 72.832 206.038 72.256H203.782C203.518 72.904 203.11 73.432 202.534 73.816C201.982 74.2 201.214 74.392 200.254 74.392C199.774 74.392 199.318 74.32 198.838 74.152C198.382 73.984 197.974 73.72 197.59 73.384C197.206 73.048 196.894 72.616 196.654 72.112C196.414 71.584 196.294 70.984 196.294 70.264ZM200.182 64.768C200.758 64.768 201.286 64.864 201.742 65.08C202.198 65.272 202.582 65.56 202.894 65.896C203.23 66.232 203.47 66.64 203.638 67.072C203.806 67.504 203.902 67.96 203.902 68.416H196.294C196.342 67.768 196.486 67.216 196.726 66.76C196.966 66.28 197.254 65.896 197.614 65.608C197.95 65.32 198.358 65.104 198.814 64.96C199.246 64.816 199.702 64.768 200.182 64.768ZM215.207 65.368V63.04C215.063 63.04 214.967 63.016 214.871 63.016H214.559C213.695 63.064 212.951 63.28 212.327 63.664C211.703 64.048 211.223 64.624 210.911 65.344V63.088H208.775V76H210.959V69.232C210.959 67.816 211.199 66.808 211.703 66.184C212.207 65.584 212.975 65.272 213.983 65.272C214.151 65.272 214.343 65.296 214.559 65.296C214.751 65.32 214.967 65.344 215.207 65.368ZM221.506 72.976L218.002 63.088H215.578L220.45 76H222.394L227.266 63.088H225.01L221.506 72.976ZM231.185 63.088H229.001V76H231.185V63.088ZM231.185 58.6H229.001V61.24H231.185V58.6ZM236.114 70.264H246.05C246.098 69.256 246.002 68.296 245.762 67.384C245.522 66.496 245.138 65.704 244.61 65.032C244.082 64.36 243.434 63.832 242.666 63.448C241.874 63.064 240.986 62.872 240.002 62.872C239.138 62.872 238.322 63.04 237.554 63.352C236.786 63.664 236.138 64.12 235.562 64.696C234.986 65.272 234.554 65.992 234.218 66.808C233.906 67.624 233.738 68.56 233.738 69.568C233.738 70.528 233.882 71.416 234.17 72.232C234.458 73.048 234.866 73.768 235.394 74.368C235.922 74.992 236.594 75.472 237.362 75.808C238.154 76.144 239.066 76.312 240.074 76.312C240.866 76.312 241.586 76.216 242.234 76C242.882 75.784 243.458 75.496 243.938 75.112C244.418 74.752 244.826 74.32 245.162 73.84C245.498 73.36 245.714 72.832 245.858 72.256H243.602C243.338 72.904 242.93 73.432 242.354 73.816C241.802 74.2 241.034 74.392 240.074 74.392C239.594 74.392 239.138 74.32 238.658 74.152C238.202 73.984 237.794 73.72 237.41 73.384C237.026 73.048 236.714 72.616 236.474 72.112C236.234 71.584 236.114 70.984 236.114 70.264ZM240.002 64.768C240.578 64.768 241.106 64.864 241.562 65.08C242.018 65.272 242.402 65.56 242.714 65.896C243.05 66.232 243.29 66.64 243.458 67.072C243.626 67.504 243.722 67.96 243.722 68.416H236.114C236.162 67.768 236.306 67.216 236.546 66.76C236.786 66.28 237.074 65.896 237.434 65.608C237.77 65.32 238.178 65.104 238.634 64.96C239.066 64.816 239.522 64.768 240.002 64.768ZM254.309 63.088L251.741 72.64L249.269 63.088H246.917L250.637 76H252.629L255.389 65.608L258.245 76H260.237L263.957 63.088H261.605L259.133 72.64L256.565 63.088H254.309Z" fill="black"/>
</svg>
