<svg width="564" height="393" viewBox="0 0 564 393" fill="none" xmlns="http://www.w3.org/2000/svg">
<g clip-path="url(#clip0_714_5906)">
<path d="M115.465 90.5427C115.465 90.5427 127.464 89.685 127.896 88.3949C128.328 87.1048 126.182 77.6698 126.182 77.6698L130.154 74.6852C130.753 74.2319 130.795 73.3463 130.238 72.8442C128.349 71.1497 124.565 67.6769 123.611 66.087C122.322 63.9392 119.966 49.574 105.821 49.574C92.0443 49.574 88.2466 55.5781 85.8913 63.0884C85.8913 63.0884 83.104 76.1705 83.104 80.0338C83.104 83.8971 82.2469 94.1898 79.2435 98.0531C76.2402 101.916 68.1012 118.213 65.5299 120.786C62.9586 123.36 32.5211 147.808 35.0924 153.819C37.6637 159.823 48.3809 169.691 48.3809 169.691C48.3809 169.691 33.1831 181.699 29.9498 184.705C23.9501 190.283 19.6646 211.301 19.6646 211.301L17.9504 238.755C17.9504 238.755 14.947 276.077 14.947 280.791C14.947 285.505 12.3757 312.966 10.6615 317.255C8.94734 321.544 0.794434 373.021 0.794434 373.021L17.0863 375.594L15.3721 391.041H34.2353V389.75L38.5208 391.898H78.3864V385.894H77.0973C77.0973 385.894 79.2435 377.742 71.0976 376.885C62.9516 376.027 48.806 364.444 48.806 364.444L45.8027 361.438C45.8027 361.438 50.0882 357.575 49.6631 355.002C49.2311 352.429 47.9489 354.144 47.0918 348.998C46.2347 343.852 43.6634 342.994 44.5205 339.988C45.3776 336.983 46.2347 328.838 46.2347 327.122C46.2347 325.407 50.0951 321.544 50.0951 316.397C50.0951 311.251 50.9522 291.948 50.0951 287.653C49.238 283.364 49.6631 276.928 49.238 274.355C48.806 271.781 58.2411 249.906 59.0982 247.333C59.9553 244.759 66.8121 226.315 66.8121 218.588C66.8121 210.862 77.0973 190.276 77.0973 190.276C77.0973 190.276 86.1003 199.711 88.6716 199.286C91.2429 198.854 94.6713 201.859 95.9605 202.291C97.2496 202.724 100.678 202.724 102.392 198.003C103.194 195.806 104.943 194.16 106.253 193.714C107.751 193.205 108.796 194 109.256 192.856C109.577 192.061 109.256 189.851 106.253 188.568C103.249 187.278 98.5387 182.989 95.5354 183.847C92.5321 184.705 89.5357 179.558 86.5324 181.699C83.529 183.847 82.6719 180.409 83.529 179.126C84.3861 177.843 96.8176 158.966 96.8176 158.966C96.8176 158.966 107.103 159.823 105.389 140.521L104.099 134.517C104.099 134.517 107.96 134.085 108.385 130.654C108.817 127.223 109.674 106.63 108.385 104.057C107.103 101.484 113.535 90.3335 115.465 90.5427Z" fill="#B7B7B7"/>
<path d="M79.0832 392.596H38.3535L34.9251 390.88V391.738H14.5916L16.3198 376.18L0 373.6L0.111493 372.91C0.445971 370.804 8.28531 321.306 10.0134 316.99C11.6998 312.778 14.2502 285.449 14.2502 280.784C14.2502 276.091 17.1281 240.213 17.2535 238.693L18.9816 211.155C19.1558 210.29 23.3856 189.851 29.4759 184.188C32.3538 181.518 44.3671 171.978 47.3147 169.642C44.9943 167.445 36.7299 159.405 34.4513 154.091C32.4026 149.314 46.2625 136.497 61.537 123.359C63.3209 121.825 64.6031 120.717 65.0351 120.291C66.3452 118.98 69.4739 113.395 72.2264 108.471C74.8186 103.834 77.2714 99.4477 78.693 97.6207C81.4664 94.0503 82.4071 84.0435 82.4071 80.0337C82.4071 76.1426 85.0968 63.4789 85.2083 62.9419C86.2814 59.518 87.8075 55.7105 91.1314 52.977C94.4831 50.2155 99.2913 48.8766 105.821 48.8766C118.168 48.8766 121.917 59.4552 123.513 63.967C123.792 64.755 124.036 65.4454 124.21 65.7313C124.858 66.8122 127.227 69.218 130.704 72.3281C131.129 72.7047 131.352 73.2486 131.331 73.8135C131.311 74.3853 131.032 74.9013 130.579 75.243L126.969 77.9557C127.562 80.6195 128.997 87.3279 128.565 88.611C128.426 89.0364 127.987 90.3404 115.52 91.233L115.458 91.24L115.416 91.233C114.796 91.3516 112.817 93.7016 110.949 97.3138C109.151 100.787 108.691 103.081 109.019 103.743C110.454 106.616 109.465 127.697 109.089 130.737C108.754 133.422 106.531 134.656 104.943 135.061L106.092 140.451C106.803 148.464 105.584 154.119 102.476 157.25C100.413 159.321 98.1345 159.628 97.2008 159.663C95.5702 162.146 84.9087 178.331 84.1213 179.509C83.8147 179.977 83.8565 181.043 84.3234 181.497C84.8042 181.964 85.6682 181.469 86.1351 181.134C88.1559 179.691 90.114 180.897 91.8422 181.964C93.1034 182.745 94.288 183.477 95.3472 183.177C97.6886 182.508 100.685 184.405 103.326 186.085C104.504 186.831 105.618 187.536 106.531 187.926C109.702 189.286 110.42 191.824 109.904 193.114C109.451 194.244 108.517 194.223 107.834 194.216C107.409 194.209 106.97 194.202 106.483 194.37C105.361 194.753 103.779 196.239 103.054 198.24C101.221 203.282 97.4725 203.526 95.7514 202.954C95.2845 202.8 94.6992 202.431 93.9535 201.964C92.4275 201.015 90.344 199.718 88.804 199.976C86.3233 200.395 80.0448 194.286 77.3063 191.476C75.3552 195.492 67.5298 212.019 67.5298 218.588C67.5298 225.513 62.2826 240.415 60.3106 246.029C60.0667 246.726 59.8786 247.249 59.781 247.556C59.5441 248.253 58.7427 250.227 57.6348 252.96C55.0495 259.32 49.6631 272.548 49.9487 274.243C50.1369 275.352 50.1648 277.074 50.1996 279.069C50.2484 281.879 50.3111 285.059 50.7989 287.52C51.44 290.728 51.1543 301.697 50.9522 309.71C50.8755 312.555 50.8128 315.009 50.8128 316.397C50.8128 319.842 49.2101 322.687 48.0394 324.758C47.482 325.742 46.9594 326.676 46.9594 327.122C46.9594 328.963 46.0953 337.115 45.2173 340.183C44.834 341.522 45.2521 342.31 45.942 343.628C46.5831 344.856 47.3914 346.383 47.8025 348.886C48.2694 351.683 48.8199 352.24 49.3007 352.736C49.7258 353.168 50.1578 353.607 50.3738 354.89C50.771 357.261 48.0534 360.246 46.827 361.452L49.3216 363.949C49.4122 364.019 63.3488 375.364 71.1951 376.187C73.7664 376.459 75.6618 377.449 76.8185 379.13C78.2749 381.236 78.1564 383.858 77.9613 385.197H79.1041V392.596H79.0832ZM38.681 391.201H77.6826V386.591H76.1914L76.4213 385.72C76.4283 385.685 77.2854 382.296 75.6409 379.918C74.721 378.593 73.1671 377.805 71.0209 377.582C62.7634 376.71 48.9453 365.469 48.36 364.988L44.7922 361.418L45.3357 360.922C46.8827 359.528 49.238 356.717 48.9732 355.121C48.8338 354.27 48.6248 354.061 48.2833 353.712C47.6841 353.105 46.9384 352.345 46.4019 349.116C46.0186 346.829 45.28 345.414 44.6807 344.277C43.9491 342.882 43.3149 341.676 43.8515 339.8C44.6807 336.892 45.5378 328.866 45.5378 327.122C45.5378 326.313 46.0674 325.372 46.7991 324.075C47.8931 322.136 49.3913 319.479 49.3913 316.397C49.3913 314.996 49.454 312.534 49.5307 309.675C49.7258 302.178 50.0184 290.847 49.4052 287.792C48.8896 285.205 48.8269 281.963 48.7781 279.096C48.7432 277.158 48.7154 275.484 48.5412 274.473C48.2485 272.723 51.1682 265.066 56.3108 252.43C57.37 249.829 58.2062 247.765 58.4292 247.109C58.5337 246.803 58.7149 246.273 58.9657 245.561C60.7287 240.548 66.1082 225.276 66.1082 218.588C66.1082 210.792 76.045 190.813 76.4701 189.962L76.9161 189.077L77.599 189.795C81.8078 194.202 87.2013 198.833 88.5531 198.596C90.6157 198.254 92.9571 199.711 94.6713 200.778C95.2845 201.162 95.8698 201.524 96.1764 201.629C96.2113 201.643 99.8975 202.807 101.73 197.766C102.615 195.332 104.559 193.554 106.016 193.052C106.74 192.808 107.374 192.815 107.841 192.822C108.503 192.836 108.51 192.815 108.594 192.591C108.789 192.096 108.531 190.304 105.967 189.202C104.956 188.77 103.793 188.031 102.566 187.257C100.169 185.737 97.4516 184.021 95.7165 184.516C94.065 184.99 92.5529 184.056 91.0965 183.149C89.2917 182.034 88.1141 181.42 86.9295 182.264C84.9366 183.686 83.752 182.898 83.3339 182.494C82.3235 181.518 82.2956 179.705 82.9436 178.735C83.7868 177.466 96.1068 158.763 96.2322 158.575L96.4621 158.227L96.8733 158.261C96.9708 158.268 99.354 158.415 101.507 156.232C104.253 153.443 105.354 148.045 104.699 140.612L103.263 133.896L104.03 133.813C104.162 133.799 107.347 133.394 107.702 130.556C108.169 126.846 108.928 106.672 107.772 104.357C106.587 101.986 110.141 95.5217 111.946 92.9276C114.078 89.8662 115.067 89.7895 115.479 89.8314C120.517 89.4688 126.328 88.7087 127.255 88.0811C127.387 87.0769 126.489 82.1606 125.506 77.8162L125.408 77.3769L129.743 74.1203C129.91 73.9948 129.938 73.8344 129.938 73.7437C129.945 73.6601 129.924 73.4927 129.778 73.3602C127.673 71.4774 124.001 68.0813 123.018 66.4426C122.774 66.0381 122.537 65.3617 122.203 64.4273C120.572 59.8318 117.186 50.2643 105.828 50.2643C91.8212 50.2643 88.6298 56.7007 86.5602 63.2906C86.5462 63.3603 83.8077 76.2821 83.8077 80.0268C83.8077 83.4786 83.0691 94.2665 79.8009 98.4714C78.4421 100.215 75.9057 104.754 73.4458 109.148C70.3728 114.636 67.474 119.824 66.0246 121.274C65.5577 121.742 64.3243 122.802 62.4499 124.412C55.3701 130.507 33.8102 149.043 35.7334 153.533C38.2141 159.335 48.7502 169.07 48.8547 169.168L49.454 169.719L48.8129 170.228C48.6596 170.346 33.6011 182.257 30.4236 185.207C24.7862 190.444 20.5843 210.283 20.3544 211.385L18.6402 238.79C18.6123 239.174 15.6438 276.147 15.6438 280.784C15.6438 285.17 13.1422 312.924 11.3095 317.506C9.74865 321.411 2.57827 366.299 1.60271 372.435L17.8597 375.002L16.1595 390.329H33.5454V388.614L38.681 391.201Z" fill="black"/>
<path d="M142.739 0.878662H141.345V391.996H142.739V0.878662Z" fill="black"/>
<path d="M147.414 0.676514H146.021V391.794H147.414V0.676514Z" fill="black"/>
<path d="M147.825 59.4413H142.251V78.3183H147.825V59.4413Z" fill="black"/>
<path d="M126.14 65.1804H123.395V66.5751H126.14V65.1804Z" fill="black"/>
<path d="M137.275 65.1804H130.593V66.5751H137.275V65.1804Z" fill="black"/>
<path d="M142.251 65.1804H139.505V66.5751H142.251V65.1804Z" fill="black"/>
<path d="M401.971 -0.00789328L399.311 0.674316L399.657 2.02534L402.317 1.34313L401.971 -0.00789328Z" fill="black"/>
<path d="M160.41 63.3742L160.062 62.0213L168.131 59.9502L168.479 61.3031L160.41 63.3742ZM176.549 59.232L176.2 57.8791L184.27 55.808L184.618 57.1609L176.549 59.232ZM192.68 55.0967L192.332 53.7439L200.401 51.6728L200.75 53.0256L192.68 55.0967ZM208.812 50.9615L208.464 49.6087L216.533 47.5376L216.881 48.8904L208.812 50.9615ZM224.951 46.8263L224.602 45.4734L232.671 43.4023L233.02 44.7552L224.951 46.8263ZM241.082 42.6911L240.734 41.3382L248.803 39.2671L249.151 40.62L241.082 42.6911ZM257.214 38.5489L256.865 37.196L264.935 35.1249L265.283 36.4778L257.214 38.5489ZM273.352 34.4136L273.004 33.0608L281.073 30.9897L281.422 32.3425L273.352 34.4136ZM289.484 30.2784L289.136 28.9256L297.205 26.8545L297.553 28.2073L289.484 30.2784ZM305.623 26.1432L305.274 24.7903L313.343 22.7192L313.692 24.0721L305.623 26.1432ZM321.754 22.008L321.406 20.6551L329.475 18.584L329.823 19.9369L321.754 22.008ZM337.886 17.8658L337.537 16.5129L345.607 14.4418L345.955 15.7947L337.886 17.8658ZM354.024 13.7305L353.676 12.3777L361.745 10.3066L362.094 11.6594L354.024 13.7305ZM370.156 9.5953L369.807 8.24246L377.877 6.17136L378.225 7.5242L370.156 9.5953ZM386.287 5.46007L385.939 4.10723L394.008 2.03613L394.357 3.38897L386.287 5.46007Z" fill="black"/>
<path d="M149.554 68.1232L146.285 65.557L150.313 64.5179L150.662 65.8708L149.365 66.2055L150.418 67.0284L149.554 68.1232Z" fill="black"/>
<path d="M555.945 387.512L549.353 382.331L550.217 381.236L556.809 386.417L555.945 387.512ZM542.761 377.156L536.169 371.975L537.033 370.88L543.625 376.062L542.761 377.156ZM529.584 366.794L522.992 361.613L523.856 360.518L530.448 365.699L529.584 366.794ZM516.4 356.432L509.807 351.25L510.672 350.155L517.264 355.337L516.4 356.432ZM503.216 346.069L496.624 340.888L497.488 339.793L504.08 344.974L503.216 346.069ZM490.031 335.714L483.439 330.532L484.304 329.438L490.896 334.619L490.031 335.714ZM476.854 325.351L470.262 320.17L471.126 319.075L477.719 324.256L476.854 325.351ZM463.67 314.989L457.078 309.807L457.942 308.713L464.534 313.894L463.67 314.989ZM450.486 304.633L443.894 299.452L444.758 298.357L451.35 303.538L450.486 304.633ZM437.302 294.271L430.71 289.089L431.574 287.995L438.166 293.176L437.302 294.271ZM424.125 283.908L417.533 278.727L418.397 277.632L424.989 282.813L424.125 283.908ZM410.941 273.553L404.349 268.371L405.213 267.277L411.805 272.458L410.941 273.553ZM397.757 263.19L391.165 258.009L392.029 256.914L398.621 262.095L397.757 263.19ZM384.573 252.828L377.981 247.646L378.845 246.552L385.437 251.733L384.573 252.828ZM371.389 242.472L364.797 237.291L365.661 236.196L372.253 241.377L371.389 242.472ZM358.212 232.11L351.62 226.928L352.484 225.834L359.076 231.015L358.212 232.11ZM345.028 221.747L338.436 216.566L339.3 215.471L345.892 220.652L345.028 221.747ZM331.844 211.392L325.252 206.21L326.116 205.116L332.708 210.297L331.844 211.392ZM318.66 201.029L312.068 195.848L312.932 194.753L319.524 199.934L318.66 201.029ZM305.483 190.667L298.891 185.486L299.755 184.391L306.347 189.572L305.483 190.667ZM292.299 180.311L285.707 175.13L286.571 174.035L293.163 179.216L292.299 180.311ZM279.115 169.949L272.523 164.768L273.387 163.673L279.979 168.854L279.115 169.949ZM265.931 159.586L259.339 154.405L260.203 153.31L266.795 158.492L265.931 159.586ZM252.754 149.231L246.162 144.05L247.026 142.955L253.618 148.136L252.754 149.231ZM239.57 138.868L232.978 133.687L233.842 132.592L240.434 137.774L239.57 138.868ZM226.386 128.506L219.794 123.325L220.658 122.23L227.25 127.411L226.386 128.506ZM213.202 118.15L206.61 112.969L207.474 111.874L214.066 117.056L213.202 118.15ZM200.025 107.788L193.433 102.607L194.297 101.512L200.889 106.693L200.025 107.788ZM186.841 97.4254L180.249 92.2442L181.113 91.1494L187.705 96.3306L186.841 97.4254ZM173.657 87.0699L167.065 81.8887L167.929 80.7939L174.521 85.9751L173.657 87.0699ZM160.473 76.7075L153.881 71.5262L154.745 70.4314L161.337 75.6126L160.473 76.7075Z" fill="black"/>
<path d="M561.634 390.205L560.774 391.302L562.933 392.999L563.794 391.902L561.634 390.205Z" fill="black"/>
<path d="M39.9214 281.907L39.6914 280.533C39.7123 280.526 42.1233 280.115 43.6773 278.95C45.2939 277.737 48.6805 273.281 48.7154 273.232L49.8233 274.076C49.677 274.264 46.2834 278.734 44.5135 280.066C42.6808 281.439 40.0329 281.893 39.9214 281.907Z" fill="black"/>
<path d="M77.6268 191.803C76.0659 189.739 73.4807 186.357 73.181 186.05L74.1636 185.067C74.6026 185.506 78.0519 190.053 78.7348 190.96L77.6268 191.803Z" fill="black"/>
<path d="M31.5455 368.07L30.9253 366.822C31.1065 366.731 35.3223 364.632 38.7855 363.767C42.0606 362.945 45.4124 360.873 45.4472 360.853L46.1859 362.038C46.0395 362.129 42.6251 364.249 39.127 365.127C35.8031 365.95 31.5873 368.049 31.5455 368.07Z" fill="black"/>
<path d="M115.952 91.1074C113.743 91.1074 110.106 90.8913 108.754 89.5384L109.737 88.5552C110.824 89.643 115.13 89.8174 117.59 89.6709L117.674 91.0656C117.471 91.0726 116.823 91.1074 115.952 91.1074Z" fill="black"/>
<path d="M80.3236 103.388L79.6895 102.146C79.7173 102.132 82.7834 100.529 83.8913 98.3459C86.2815 93.6109 88.1908 91.0656 89.7238 90.5566C91.1244 90.0963 92.5181 86.3725 92.3648 84.8105L93.7515 84.671C93.9396 86.5957 92.3996 91.1423 90.1558 91.8815C89.6332 92.0559 88.1072 93.0879 85.1317 98.9735C83.8217 101.568 80.4629 103.311 80.3236 103.388Z" fill="black"/>
<path d="M87.9678 86.0239C87.7239 86.0239 87.5009 85.9193 87.3546 85.738L88.4417 84.8663C88.2187 84.5874 87.8772 84.5943 87.7518 84.678C87.8006 84.6501 88.2326 84.3224 89.3127 82.1955C90.1628 80.5219 90.2465 79.1621 90.3301 77.8441C90.3998 76.7144 90.4694 75.6544 91.0269 74.6084C92.1697 72.4676 93.654 71.2682 93.7167 71.2194L94.5877 72.3072C94.5738 72.3142 93.2568 73.3881 92.2533 75.2639C91.8352 76.045 91.7795 76.9166 91.7168 77.9278C91.6331 79.2527 91.5286 80.8984 90.5531 82.8231C89.1037 85.6822 88.4974 85.9751 88.0514 86.0169C88.0305 86.0239 87.9957 86.0239 87.9678 86.0239Z" fill="black"/>
<path d="M104.566 140.005C104.448 139.273 101.688 122.042 102.127 118.555C102.538 115.27 104.803 108.346 105.124 107.369C105.193 104.19 108.064 100.403 108.183 100.243L109.291 101.086C109.263 101.121 106.517 104.754 106.517 107.488V107.6L106.483 107.704C106.455 107.781 103.925 115.403 103.514 118.722C103.187 121.358 104.963 133.645 105.946 139.782L104.566 140.005Z" fill="black"/>
<path d="M93.5842 108.994C93.5076 108.771 91.8004 103.555 93.1731 100.347L94.4553 100.898C94.1138 101.693 94.0093 102.676 94.0302 103.667C94.7201 101.226 96.044 98.9455 97.9046 97.0488C99.9881 94.9219 102.984 92.0698 105.458 90.5844C109.981 87.8648 108.559 82.4674 107.737 80.2708C106.357 76.5958 108.12 73.0045 108.197 72.8511L109.444 73.4717C109.43 73.5066 107.883 76.6864 109.047 79.7826C109.995 82.307 111.604 88.5203 106.183 91.7769C103.842 93.1855 100.936 95.947 98.908 98.0181C96.4761 100.508 95.0545 103.694 94.8943 107C94.8664 107.613 94.8803 108.178 94.943 108.673L93.5842 108.994Z" fill="black"/>
<path d="M75.4597 115.27C75.0276 115.27 74.7559 115.166 74.6792 115.131L75.2158 113.841C75.2297 113.848 76.6861 114.294 79.0065 111.24C81.6127 107.802 82.3095 107.46 84.8808 106.191L85.6961 105.786C88.6924 104.28 90.0234 102.397 90.0373 102.376L91.1871 103.164C91.1244 103.255 89.668 105.354 86.3232 107.035L85.501 107.439C83.0412 108.653 82.5325 108.911 80.1214 112.083C78.0588 114.782 76.3864 115.27 75.4597 115.27Z" fill="black"/>
<path d="M21.4902 352.24C13.198 342.638 16.8981 328.196 17.0584 327.583L18.4033 327.938C18.3684 328.078 14.738 342.282 22.5424 351.327L21.4902 352.24Z" fill="black"/>
<path d="M132.126 56.4915C130.892 39.6438 118.189 36.2338 117.646 36.0943L117.987 34.7415C118.127 34.7763 132.209 38.5001 133.52 56.3869L132.126 56.4915Z" fill="black"/>
<path d="M285.624 308.608L277.45 303.929L266.76 259.613L274.056 244.139L274.676 244.411C274.725 244.432 279.526 246.552 281.812 247.249C283.171 247.66 286 249.32 288.731 250.924C290.885 252.186 293.108 253.49 294.181 253.915C295.003 254.243 295.923 254.557 296.808 254.857C298.64 255.485 300.368 256.07 301.351 256.782C302.626 257.695 310.723 260.708 313.309 261.51C315.866 262.305 328.646 268.009 329.189 268.253L329.803 268.525L325.113 280.359L324.946 280.477L285.624 308.608ZM278.669 303.022L285.547 306.955L323.977 279.466L328.026 269.257C325.399 268.085 315.079 263.518 312.911 262.848C310.64 262.144 302.083 259.02 300.557 257.925C299.734 257.332 298.027 256.754 296.376 256.182C295.47 255.875 294.536 255.554 293.679 255.213C292.501 254.745 290.334 253.476 288.035 252.123C285.498 250.638 282.62 248.943 281.422 248.581C279.533 248.009 276.147 246.566 274.746 245.959L268.238 259.759L278.669 303.022Z" fill="black"/>
<path d="M299.351 308.789L284.446 308.336L323.977 279.466L328.36 268.413L340.123 261.091L334.708 277.276L299.351 308.789ZM288.55 307.067L298.842 307.381L333.503 276.488L337.572 264.327L329.489 269.362L325.127 280.359L288.55 307.067Z" fill="black"/>
<path d="M339.913 262.758C339.732 262.744 335.503 262.367 333.21 261.224C331.043 260.15 327.252 258.643 323.998 257.57C322.158 256.963 321.036 256.119 319.956 255.31C318.988 254.585 318.075 253.902 316.625 253.323C315.81 253.002 314.974 252.681 314.138 252.36C311.601 251.398 309.211 250.485 307.838 249.599C306.668 248.839 303.407 247.674 301.023 246.83C299.985 246.461 299.086 246.14 298.466 245.896C298.041 245.729 297.553 245.554 297.024 245.359C294.85 244.578 292.139 243.602 290.662 242.068C289.449 240.812 285.359 239.662 283.533 239.243L274.816 245.61L273.993 244.48L283.219 237.737L283.526 237.8C284.167 237.939 289.86 239.209 291.665 241.091C292.912 242.388 295.456 243.302 297.491 244.034C298.034 244.229 298.543 244.411 298.975 244.585C299.567 244.822 300.459 245.136 301.483 245.506C304.069 246.426 307.281 247.57 308.591 248.42C309.838 249.229 312.159 250.115 314.626 251.049C315.462 251.37 316.312 251.691 317.134 252.019C318.758 252.66 319.789 253.434 320.786 254.18C321.824 254.961 322.806 255.694 324.43 256.231C327.747 257.325 331.607 258.86 333.83 259.961C335.893 260.987 339.99 261.349 340.032 261.356L339.913 262.758Z" fill="black"/>
<path d="M281.056 244.185L280.627 245.512L315.536 256.809L315.965 255.482L281.056 244.185Z" fill="black"/>
<path d="M316.041 269.783L311.669 280.816L312.964 281.331L317.337 270.297L316.041 269.783Z" fill="black"/>
<path d="M214.923 385.022L211.996 375.246L191.37 380.274L202.464 368.244L186.534 362.45L203.209 356.215L189.865 349.514L209.153 344.577L203.279 332.882L223.787 337.764L227.139 324.8L236.476 330.511L249.792 315.428L252.148 331.864L267.171 322.562L261.625 333.085L286.871 329.772L265.471 341.216L271.861 345.804L263.353 350.121L278.913 358.712L256.984 357.952L260.865 367.059L245.723 364.576L244.476 372.568L235.403 369.779L231.006 376.717L224.491 373.196L214.923 385.022ZM212.951 373.579L215.502 382.094L224.135 371.417L230.525 374.869L234.797 368.133L243.347 370.762L244.566 362.973L258.593 365.274L254.845 356.48L273.143 357.115L260.377 350.065L269.185 345.595L262.844 341.041L279.47 332.15L259.144 334.821L263.562 326.446L251.082 334.172L248.852 318.615L236.755 332.317L228.024 326.983L224.797 339.444L205.878 334.939L211.188 345.504L193.837 349.946L206.708 356.411L190.583 362.443L204.931 367.659L195.544 377.833L212.951 373.579Z" fill="black"/>
<path d="M392.636 370.95C390.092 370.95 388.023 368.879 388.023 366.334C388.023 363.788 390.092 361.717 392.636 361.717C395.179 361.717 397.249 363.788 397.249 366.334C397.249 368.879 395.179 370.95 392.636 370.95ZM392.636 363.112C390.859 363.112 389.416 364.555 389.416 366.334C389.416 368.112 390.859 369.555 392.636 369.555C394.413 369.555 395.855 368.112 395.855 366.334C395.855 364.555 394.413 363.112 392.636 363.112Z" fill="black"/>
<path d="M412.99 357.24C410.447 357.24 408.377 355.169 408.377 352.624C408.377 350.079 410.447 348.008 412.99 348.008C415.533 348.008 417.603 350.079 417.603 352.624C417.603 355.169 415.533 357.24 412.99 357.24ZM412.99 349.402C411.213 349.402 409.771 350.846 409.771 352.624C409.771 354.402 411.213 355.846 412.99 355.846C414.767 355.846 416.209 354.402 416.209 352.624C416.209 350.846 414.767 349.402 412.99 349.402Z" fill="black"/>
<path d="M412.21 338.043C409.666 338.043 407.597 335.972 407.597 333.426C407.597 330.881 409.666 328.81 412.21 328.81C414.753 328.81 416.823 330.881 416.823 333.426C416.823 335.972 414.753 338.043 412.21 338.043ZM412.21 330.204C410.433 330.204 408.99 331.648 408.99 333.426C408.99 335.204 410.433 336.648 412.21 336.648C413.986 336.648 415.429 335.204 415.429 333.426C415.429 331.648 413.98 330.204 412.21 330.204Z" fill="black"/>
<path d="M392.636 331.774C390.092 331.774 388.023 329.702 388.023 327.157C388.023 324.612 390.092 322.541 392.636 322.541C395.179 322.541 397.249 324.612 397.249 327.157C397.249 329.702 395.179 331.774 392.636 331.774ZM392.636 323.942C390.859 323.942 389.416 325.386 389.416 327.164C389.416 328.942 390.859 330.386 392.636 330.386C394.413 330.386 395.855 328.942 395.855 327.164C395.855 325.386 394.413 323.942 392.636 323.942Z" fill="black"/>
<path d="M392.636 351.362C390.092 351.362 388.023 349.291 388.023 346.745C388.023 344.2 390.092 342.129 392.636 342.129C395.179 342.129 397.249 344.2 397.249 346.745C397.249 349.291 395.179 351.362 392.636 351.362ZM392.636 343.524C390.859 343.524 389.416 344.967 389.416 346.745C389.416 348.524 390.859 349.967 392.636 349.967C394.413 349.967 395.855 348.524 395.855 346.745C395.855 344.967 394.413 343.524 392.636 343.524Z" fill="black"/>
<path d="M373.452 357.24C370.908 357.24 368.839 355.169 368.839 352.624C368.839 350.079 370.908 348.008 373.452 348.008C375.995 348.008 378.065 350.079 378.065 352.624C378.065 355.169 375.995 357.24 373.452 357.24ZM373.452 349.402C371.675 349.402 370.233 350.846 370.233 352.624C370.233 354.402 371.675 355.846 373.452 355.846C375.229 355.846 376.671 354.402 376.671 352.624C376.671 350.846 375.229 349.402 373.452 349.402Z" fill="black"/>
<path d="M373.452 338.043C370.908 338.043 368.839 335.972 368.839 333.426C368.839 330.881 370.908 328.81 373.452 328.81C375.995 328.81 378.065 330.881 378.065 333.426C378.065 335.972 375.995 338.043 373.452 338.043ZM373.452 330.204C371.675 330.204 370.233 331.648 370.233 333.426C370.233 335.204 371.675 336.648 373.452 336.648C375.229 336.648 376.671 335.204 376.671 333.426C376.671 331.648 375.229 330.204 373.452 330.204Z" fill="black"/>
<path d="M388.492 326.484L376.35 330.403L376.777 331.73L388.92 327.811L388.492 326.484Z" fill="black"/>
<path d="M396.764 326.485L396.323 327.808L408.064 331.724L408.505 330.401L396.764 326.485Z" fill="black"/>
<path d="M412.891 337.287L411.5 337.383L412.283 348.743L413.673 348.647L412.891 337.287Z" fill="black"/>
<path d="M374.149 337.345H372.755V348.705H374.149V337.345Z" fill="black"/>
<path d="M375.903 355.319L375.177 356.509L388.347 364.563L389.074 363.372L375.903 355.319Z" fill="black"/>
<path d="M408.666 353.872L395.417 363.515L396.237 364.643L409.485 355L408.666 353.872Z" fill="black"/>
<path d="M388.432 346.127L377.082 351.219L377.652 352.492L389.002 347.399L388.432 346.127Z" fill="black"/>
<path d="M407.899 334.82L395.437 343.921L396.258 345.048L408.721 335.947L407.899 334.82Z" fill="black"/>
<path d="M376.943 335.182L376.196 336.36L389.902 345.069L390.649 343.891L376.943 335.182Z" fill="black"/>
<path d="M393.333 350.664H391.939V362.415H393.333V350.664Z" fill="black"/>
<path d="M396.774 346.078L396.358 347.409L408.882 351.326L409.298 349.995L396.774 346.078Z" fill="black"/>
<path d="M393.17 330.623L392.103 331.52L408.543 351.106L409.61 350.208L393.17 330.623Z" fill="black"/>
<path d="M239.765 197.501C239.507 197.501 239.256 197.354 239.138 197.103C238.971 196.755 239.117 196.343 239.466 196.176C239.486 196.169 241.563 195.158 243.347 193.254C245.667 190.778 246.434 188.003 245.625 185.004C243.66 177.71 235.696 177.292 235.612 177.285C235.229 177.271 234.929 176.943 234.943 176.56C234.957 176.176 235.285 175.869 235.668 175.89C235.758 175.897 244.734 176.371 246.963 184.635C249.207 192.968 240.141 197.389 240.051 197.431C239.967 197.48 239.863 197.501 239.765 197.501Z" fill="black"/>
<path d="M236.957 180.486C236.65 180.486 236.372 180.283 236.288 179.97C236.218 179.725 234.595 174.042 229.145 175.507C228.776 175.604 228.393 175.388 228.288 175.011C228.191 174.642 228.407 174.258 228.783 174.154C232.344 173.191 234.574 174.746 235.821 176.225C237.131 177.773 237.612 179.523 237.633 179.6C237.73 179.97 237.514 180.353 237.145 180.451C237.075 180.479 237.013 180.486 236.957 180.486Z" fill="black"/>
<path d="M239.898 204.572C239.64 204.572 239.389 204.425 239.271 204.181C239.103 203.833 239.25 203.414 239.591 203.247C242.148 202.006 243.681 200.464 244.134 198.665C244.727 196.343 243.319 194.342 243.305 194.321C243.082 194.007 243.152 193.575 243.465 193.345C243.779 193.121 244.211 193.191 244.441 193.505C244.518 193.61 246.239 196.057 245.493 199.007C244.929 201.225 243.152 203.072 240.204 204.502C240.1 204.551 239.995 204.572 239.898 204.572Z" fill="black"/>
<path d="M236.197 215.339C234.88 215.339 233.41 215.122 231.793 214.683C231.424 214.585 231.201 214.202 231.299 213.825C231.396 213.456 231.779 213.233 232.156 213.33C236.065 214.383 238.915 214.063 240.629 212.389C243.918 209.181 242.218 201.964 242.197 201.894C242.107 201.517 242.336 201.141 242.713 201.05C243.089 200.959 243.465 201.19 243.556 201.566C243.633 201.894 245.458 209.634 241.605 213.386C240.274 214.69 238.462 215.339 236.197 215.339Z" fill="black"/>
<path d="M224.721 229.404C219.23 229.404 212.875 226.196 212.526 226.022C212.185 225.848 212.045 225.429 212.22 225.081C212.394 224.739 212.812 224.599 213.153 224.774C213.258 224.83 223.682 230.08 228.637 227.103C233.598 224.118 233.786 215.192 233.786 215.102C233.793 214.718 234.093 214.432 234.49 214.411C234.874 214.418 235.18 214.732 235.18 215.116C235.173 215.513 234.971 224.913 229.355 228.288C228.031 229.097 226.421 229.404 224.721 229.404Z" fill="black"/>
<path d="M206.241 229.655C204.241 229.655 202.039 229.007 199.649 227.703C199.307 227.521 199.182 227.096 199.37 226.754C199.551 226.412 199.976 226.294 200.318 226.475C203.649 228.288 206.519 228.714 208.847 227.758C212.129 226.405 213.265 222.717 213.272 222.675C213.383 222.305 213.773 222.096 214.136 222.207C214.505 222.319 214.714 222.71 214.603 223.072C214.547 223.247 213.258 227.438 209.369 229.041C208.394 229.453 207.349 229.655 206.241 229.655Z" fill="black"/>
<path d="M194.583 228.965C193.9 228.965 193.238 228.867 192.59 228.672C187.099 227.026 185.085 219.014 185.001 218.672C184.911 218.295 185.141 217.919 185.51 217.828C185.886 217.738 186.263 217.968 186.353 218.337C186.374 218.414 188.263 225.917 192.994 227.333C195.635 228.121 198.757 226.873 202.255 223.609C202.534 223.344 202.98 223.365 203.237 223.644C203.502 223.923 203.481 224.369 203.203 224.627C200.116 227.514 197.224 228.965 194.583 228.965Z" fill="black"/>
<path d="M209.14 177.773C208.993 177.773 208.847 177.731 208.721 177.633C208.415 177.403 208.352 176.964 208.582 176.657C208.777 176.399 213.418 170.263 218.993 170.158C224.261 170.06 227.431 171.894 229.612 176.295C229.787 176.636 229.64 177.055 229.299 177.229C228.957 177.403 228.539 177.257 228.365 176.915C226.407 172.968 223.78 171.469 219.021 171.553C214.115 171.643 209.739 177.431 209.697 177.494C209.565 177.682 209.356 177.773 209.14 177.773Z" fill="black"/>
<path d="M193.015 188.791C192.757 188.791 192.506 188.645 192.388 188.394C192.297 188.198 190.214 183.603 195.565 176.183C201.001 168.645 212.24 173.317 212.359 173.366C212.714 173.519 212.875 173.924 212.728 174.279C212.582 174.635 212.171 174.802 211.815 174.649C211.711 174.607 201.481 170.367 196.701 176.999C191.879 183.693 193.635 187.759 193.656 187.801C193.816 188.149 193.663 188.561 193.315 188.721C193.217 188.77 193.112 188.791 193.015 188.791Z" fill="black"/>
<path d="M179.064 204.558C178.758 204.558 178.479 204.356 178.395 204.042C178.242 203.47 174.667 189.928 179.796 184.823C184.953 179.691 192.806 182.543 193.14 182.668C193.503 182.801 193.684 183.205 193.552 183.568C193.419 183.93 193.015 184.112 192.653 183.979C192.583 183.951 185.294 181.315 180.779 185.813C176.221 190.346 179.706 203.547 179.74 203.679C179.838 204.049 179.622 204.432 179.246 204.537C179.183 204.544 179.127 204.558 179.064 204.558Z" fill="black"/>
<path d="M188.82 225.917C188.785 225.917 188.743 225.917 188.709 225.91C188.311 225.848 178.974 224.244 176.117 215.36C173.225 206.364 180.765 201.413 180.841 201.364C181.169 201.155 181.594 201.252 181.803 201.573C182.012 201.894 181.914 202.326 181.594 202.535C181.322 202.71 174.89 206.978 177.448 214.927C180.04 222.988 188.848 224.516 188.938 224.53C189.315 224.592 189.573 224.948 189.517 225.332C189.447 225.673 189.154 225.917 188.82 225.917Z" fill="black"/>
<path d="M23.4519 119.097L22.7809 120.32L56.2107 138.7L56.8817 137.477L23.4519 119.097Z" fill="black"/>
<path d="M256.162 213.309C247.2 199.146 261.269 189.997 261.409 189.907L262.154 191.085C262.119 191.106 258.803 193.247 256.573 196.964C253.632 201.873 253.89 207.124 257.332 212.563L256.162 213.309Z" fill="black"/>
<path d="M429.345 356.759C424.564 356.759 420.711 354.828 420.634 354.786L421.275 353.544C421.31 353.565 424.829 355.351 429.163 355.392C434.877 355.42 439.281 352.582 442.229 346.857L443.469 347.498C439.665 354.89 434.055 356.759 429.345 356.759Z" fill="black"/>
<path d="M109.033 27.6146H106.699V26.4292C107.075 26.4222 107.402 26.3943 107.695 26.3664C107.981 26.3315 108.239 26.2757 108.462 26.1851C108.685 26.1014 108.873 25.9689 109.04 25.8016C109.2 25.6342 109.354 25.4041 109.486 25.1182H110.754V35.5783H109.04V27.6146H109.033Z" fill="black"/>
<path d="M491.14 263.525C495.16 265.742 497.843 265.289 509.494 263.525C521.138 261.761 523.612 267.765 533.144 274.117C542.677 280.477 570.202 274.822 561.735 253.985C553.262 233.149 535.263 198.888 515.145 217.961C495.028 237.033 484.791 221.489 477.733 238.797C474.116 247.653 484.98 260.129 491.14 263.525Z" fill="#B7B7B7"/>
<path d="M543.2 277.311C539.088 277.311 535.284 276.391 532.747 274.703C530.225 273.023 528.183 271.356 526.371 269.878C521.263 265.708 517.884 262.953 509.592 264.215L509.083 264.292C497.676 266.021 494.965 266.433 490.798 264.139C484.025 260.401 473.412 247.528 477.078 238.539C480.75 229.543 485.433 229.02 491.369 228.365C497.313 227.703 504.721 226.88 514.658 217.459C519.682 212.696 524.95 210.869 530.308 212.026C544.719 215.143 556.579 239.495 562.369 253.727C565.435 261.265 564.146 267.848 558.739 272.263C554.488 275.735 548.586 277.311 543.2 277.311ZM513.347 262.514C519.549 262.514 522.894 265.24 527.256 268.797C529.04 270.247 531.054 271.893 533.521 273.539C538.865 277.109 550.914 276.851 557.861 271.175C561.317 268.35 564.683 263.12 561.08 254.25C555.394 240.269 543.806 216.371 530.016 213.386C525.131 212.326 520.288 214.042 515.612 218.47C505.334 228.212 497.676 229.062 491.523 229.746C485.621 230.401 481.725 230.834 478.367 239.062C474.924 247.507 485.774 259.773 491.467 262.911C495.223 264.982 497.843 264.585 508.867 262.911L509.376 262.835C510.832 262.618 512.149 262.514 513.347 262.514Z" fill="black"/>
<path d="M486.868 229.04L486.866 230.435L517.073 230.489L517.076 229.094L486.868 229.04Z" fill="black"/>
<path d="M506.989 236.182L506.681 237.542L525.384 241.779L525.692 240.419L506.989 236.182Z" fill="black"/>
<path d="M455.315 203.784C455.315 203.784 440.968 204.844 436.599 189.907L455.315 203.784Z" fill="#B7B7B7"/>
<path d="M454.807 204.488C452.047 204.488 439.909 203.693 435.937 190.102L437.275 189.711C439.024 195.688 442.584 199.753 447.852 201.796C451.797 203.323 455.232 203.086 455.267 203.086L455.371 204.474C455.35 204.481 455.155 204.488 454.807 204.488Z" fill="black"/>
<path d="M461.775 156.734C460.813 148.052 446.94 137.271 428.292 146.797C409.645 156.323 398.301 202.849 436.431 205.792C474.562 208.742 476.98 230.938 494.038 225.157C511.104 219.376 495.683 195.771 506.748 185.339C517.814 174.907 505.62 164.747 481.865 163.484C470.235 162.871 462.36 162.006 461.775 156.734Z" fill="#B7B7B7"/>
<path d="M488.652 226.824C483.467 226.824 479.433 224 474.339 220.436C466.869 215.213 456.646 208.051 436.376 206.489C422.376 205.408 413.352 198.233 410.962 186.287C408.036 171.629 416.3 152.139 427.972 146.176C440.306 139.879 449.281 142.78 453.532 145.075C458.479 147.738 461.984 152.292 462.472 156.664C463.001 161.427 470.862 162.208 481.906 162.801C497.474 163.631 508.658 168.268 511.09 174.914C511.996 177.389 512.065 181.301 507.229 185.855C502.491 190.325 502.867 197.563 503.229 204.558C503.689 213.365 504.156 222.472 494.268 225.82C492.213 226.517 490.373 226.824 488.652 226.824ZM442.473 143.764C438.598 143.764 433.944 144.691 428.606 147.418C417.422 153.129 409.513 171.887 412.335 186.015C414.586 197.291 423.164 204.07 436.487 205.102C457.134 206.699 467.545 213.979 475.14 219.299C481.823 223.979 486.241 227.068 493.815 224.502C502.707 221.489 502.282 213.302 501.829 204.634C501.453 197.319 501.055 189.753 506.268 184.844C509.654 181.65 510.867 178.387 509.773 175.395C507.571 169.377 496.596 164.977 481.823 164.196C470.088 163.568 461.726 162.675 461.078 156.825C460.646 152.892 457.42 148.764 452.863 146.309C450.675 145.116 447.149 143.764 442.473 143.764Z" fill="black"/>
<path d="M310.291 73.7716L313.246 82.342C313.246 82.342 327.127 90.0266 327.419 91.505C327.712 92.9834 331.851 100.961 331.851 100.961L352.819 109.238L359.906 107.467L382.058 99.1897L398.301 85.5916L402.733 78.4996L400.078 70.2222C400.078 70.2222 385.904 61.0591 385.605 60.4664C385.312 59.8737 381.765 51.8961 381.765 51.8961L361.682 43.9185C361.682 43.9185 354.003 43.0329 353.118 43.9185C352.233 44.8041 331.851 53.0816 329.789 55.4455C327.719 57.8095 315.615 66.3798 315.615 66.3798L310.291 73.7716Z" fill="#B7B7B7"/>
<path d="M352.77 109.971L331.35 101.519L331.231 101.289C330.806 100.473 327.12 93.332 326.75 91.7003C326.151 90.6961 319.273 86.4842 312.911 82.9626L312.674 82.8301L309.518 73.6671L315.113 65.8917L315.211 65.822C315.329 65.7383 327.273 57.2726 329.266 54.9993C330.569 53.5139 337.53 50.3271 345.809 46.6172C348.972 45.2016 352.247 43.7372 352.652 43.4164C353.606 42.4541 358.777 42.8934 361.766 43.2351L361.94 43.277L382.288 51.3591L382.406 51.6172C383.584 54.267 385.821 59.2879 386.197 60.0829C387.068 60.8918 395.346 66.331 400.461 69.6364L400.67 69.7689L403.506 78.5903L398.761 86.1215L382.427 99.7964L360.094 108.137L352.77 109.971ZM332.353 100.41L352.868 108.506L359.704 106.798L381.702 98.576L397.771 85.1313L401.973 78.409L399.492 70.6824C385.361 61.5473 385.089 60.9964 384.984 60.7872C384.713 60.2433 381.87 53.8486 381.249 52.447L361.515 44.6089C358.157 44.2254 354.192 44.0719 353.585 44.4485C353.237 44.8041 351.432 45.627 346.38 47.8934C340.464 50.5363 331.524 54.539 330.318 55.9197C328.297 58.2349 317.343 66.0312 316.117 66.8959L311.079 73.8972L313.824 81.8747C320.235 85.4312 327.817 89.9151 328.109 91.3795C328.304 92.3558 330.764 97.3348 332.353 100.41Z" fill="black"/>
<path d="M503.22 153.044L480.017 168.135L480.777 169.305L503.979 154.213L503.22 153.044Z" fill="black"/>
<path d="M332.697 82.3186L331.807 83.3922L350.571 98.9622L351.461 97.8886L332.697 82.3186Z" fill="black"/>
<path d="M358.177 69.1901C358.589 69.3086 358.944 69.483 359.237 69.7131C359.536 69.9432 359.766 70.2291 359.94 70.5708C360.108 70.9125 360.198 71.2961 360.198 71.7354C360.198 72.2654 360.073 72.7884 359.829 73.3114C359.585 73.8344 359.237 74.3504 358.791 74.8664C358.345 75.3825 357.801 75.8985 357.167 76.4215C356.533 76.9445 355.829 77.4675 355.056 78.0114H360.435V79.4828H352.958V78.0951C353.815 77.4257 354.582 76.805 355.258 76.2402C355.934 75.6753 356.505 75.1384 356.979 74.6293C357.453 74.1272 357.815 73.6461 358.059 73.1998C358.31 72.7535 358.435 72.3142 358.435 71.8888C358.435 71.3867 358.289 71.0032 357.989 70.7242C357.69 70.4523 357.285 70.3128 356.777 70.3128C356.533 70.3128 356.296 70.3477 356.059 70.4244C355.829 70.5011 355.627 70.6266 355.453 70.8009C355.279 70.9753 355.139 71.2054 355.028 71.4843C354.916 71.7633 354.867 72.098 354.867 72.4955H353.181C353.174 71.9725 353.251 71.5053 353.425 71.0799C353.592 70.6545 353.843 70.2919 354.164 69.985C354.484 69.6852 354.874 69.4481 355.327 69.2738C355.78 69.1064 356.289 69.0157 356.86 69.0157C357.327 69.0157 357.766 69.0715 358.177 69.1901Z" fill="black"/>
<path d="M461.754 188.052C462.005 187.975 462.221 187.857 462.409 187.71C462.597 187.564 462.737 187.382 462.841 187.166C462.946 186.95 462.995 186.706 462.995 186.427C462.995 186.099 462.932 185.827 462.813 185.604C462.695 185.381 462.521 185.2 462.298 185.067C462.075 184.935 461.81 184.837 461.496 184.774C461.183 184.712 460.841 184.684 460.472 184.684H459.984V183.303H460.402C461.963 183.303 462.744 182.78 462.744 181.741C462.744 181.49 462.695 181.267 462.597 181.078C462.5 180.89 462.374 180.73 462.214 180.611C462.054 180.493 461.873 180.402 461.657 180.339C461.441 180.276 461.218 180.249 460.988 180.249C460.374 180.249 459.901 180.423 459.552 180.765C459.211 181.106 459.002 181.573 458.925 182.173H457.308C457.343 181.692 457.462 181.253 457.65 180.862C457.838 180.472 458.096 180.137 458.416 179.858C458.737 179.579 459.12 179.363 459.573 179.209C460.026 179.056 460.528 178.979 461.085 178.979C461.503 178.979 461.914 179.028 462.319 179.126C462.723 179.223 463.085 179.384 463.399 179.6C463.712 179.816 463.97 180.095 464.158 180.43C464.346 180.765 464.444 181.169 464.444 181.643C464.444 182.145 464.312 182.592 464.04 182.996C463.768 183.394 463.413 183.7 462.967 183.917C463.273 184.028 463.538 184.175 463.754 184.349C463.97 184.523 464.151 184.718 464.291 184.935C464.43 185.151 464.535 185.381 464.604 185.625C464.674 185.869 464.709 186.127 464.709 186.385C464.709 186.908 464.604 187.354 464.402 187.738C464.2 188.121 463.921 188.435 463.573 188.693C463.224 188.951 462.82 189.14 462.36 189.265C461.901 189.391 461.42 189.453 460.918 189.453C460.333 189.453 459.817 189.363 459.364 189.188C458.911 189.014 458.535 188.77 458.221 188.463C457.908 188.156 457.664 187.801 457.49 187.403C457.315 187.006 457.211 186.58 457.183 186.134H458.8C458.834 186.413 458.911 186.678 459.016 186.922C459.12 187.166 459.266 187.382 459.441 187.571C459.615 187.759 459.831 187.905 460.075 188.01C460.319 188.115 460.611 188.17 460.946 188.17C461.239 188.17 461.51 188.135 461.754 188.052Z" fill="black"/>
<path d="M541.82 259.362V261.816H540.106V259.362H534.942V257.932L540.12 251.356H541.82V257.876H543.666V259.362H541.82ZM540.106 257.869V253.588L536.817 257.869H540.106Z" fill="black"/>
<path d="M210.101 202.731C210.345 202.633 210.561 202.487 210.742 202.305C210.923 202.124 211.07 201.894 211.174 201.615C211.279 201.343 211.328 201.036 211.328 200.694C211.328 200.318 211.272 199.983 211.153 199.704C211.035 199.418 210.875 199.181 210.679 198.993C210.484 198.805 210.261 198.665 210.011 198.575C209.767 198.484 209.516 198.442 209.258 198.442C208.777 198.442 208.373 198.547 208.045 198.756C207.718 198.965 207.502 199.216 207.404 199.523L205.816 199.439L206.498 193.728H212.645V195.213H207.885L207.558 197.794C207.802 197.598 208.101 197.438 208.457 197.326C208.812 197.215 209.216 197.159 209.683 197.159C210.115 197.159 210.54 197.236 210.951 197.389C211.362 197.542 211.725 197.766 212.038 198.059C212.352 198.351 212.603 198.721 212.791 199.16C212.979 199.6 213.077 200.109 213.077 200.681C213.077 201.259 212.972 201.761 212.77 202.194C212.568 202.626 212.289 202.996 211.941 203.296C211.592 203.595 211.188 203.819 210.728 203.972C210.268 204.125 209.788 204.202 209.279 204.202C208.687 204.202 208.157 204.111 207.704 203.93C207.251 203.749 206.868 203.505 206.554 203.198C206.241 202.891 206.004 202.535 205.83 202.138C205.662 201.733 205.558 201.315 205.53 200.869H207.16C207.237 201.462 207.439 201.95 207.774 202.326C208.108 202.703 208.617 202.891 209.3 202.891C209.592 202.877 209.857 202.828 210.101 202.731Z" fill="black"/>
<path d="M14.94 121.295C14.4383 121.037 14.0202 120.682 13.6857 120.221C13.3512 119.761 13.1003 119.21 12.9331 118.569C12.7659 117.927 12.6823 117.216 12.6823 116.435C12.6823 115.661 12.7659 114.957 12.9331 114.315C13.1003 113.673 13.3512 113.123 13.6857 112.662C14.0202 112.202 14.4383 111.846 14.94 111.588C15.4417 111.33 16.027 111.205 16.696 111.205C17.3719 111.205 17.9642 111.33 18.4659 111.588C18.9677 111.846 19.3858 112.202 19.7202 112.662C20.0547 113.123 20.3056 113.673 20.4728 114.315C20.64 114.957 20.7237 115.661 20.7237 116.435C20.7237 117.216 20.64 117.927 20.4728 118.569C20.3056 119.21 20.0547 119.761 19.7202 120.221C19.3858 120.682 18.9677 121.037 18.4659 121.295C17.9642 121.553 17.3789 121.679 16.696 121.679C16.027 121.679 15.4417 121.546 14.94 121.295ZM18.3893 119.378C18.7865 118.701 18.9886 117.718 18.9886 116.442C18.9886 115.159 18.7865 114.182 18.3893 113.506C17.9921 112.83 17.4277 112.488 16.689 112.488C15.9643 112.488 15.4069 112.83 15.0027 113.506C14.6055 114.182 14.4034 115.166 14.4034 116.442C14.4034 117.725 14.6055 118.701 15.0027 119.378C15.3999 120.054 15.9643 120.396 16.689 120.396C17.4277 120.396 17.9921 120.054 18.3893 119.378Z" fill="black"/>
<path d="M290.034 268.441C289.763 268.608 289.54 268.846 289.352 269.145C289.163 269.445 289.024 269.808 288.919 270.233C288.815 270.659 288.759 271.126 288.752 271.649C288.975 271.321 289.289 271.049 289.693 270.826C290.097 270.603 290.592 270.491 291.177 270.491C291.644 270.491 292.076 270.575 292.487 270.735C292.898 270.896 293.254 271.126 293.553 271.426C293.853 271.726 294.097 272.081 294.271 272.507C294.445 272.932 294.536 273.406 294.536 273.936C294.536 274.438 294.445 274.898 294.264 275.324C294.083 275.749 293.832 276.112 293.512 276.419C293.191 276.726 292.801 276.963 292.348 277.137C291.895 277.311 291.4 277.395 290.857 277.395C290.195 277.395 289.63 277.276 289.156 277.039C288.683 276.802 288.292 276.467 287.979 276.035C287.665 275.603 287.435 275.087 287.289 274.48C287.143 273.873 287.066 273.204 287.066 272.458C287.066 271.733 287.136 271.035 287.275 270.366C287.414 269.696 287.644 269.111 287.965 268.595C288.285 268.085 288.697 267.674 289.205 267.374C289.714 267.074 290.334 266.921 291.08 266.921C291.609 266.921 292.069 266.998 292.466 267.158C292.864 267.318 293.191 267.521 293.456 267.779C293.721 268.037 293.923 268.323 294.069 268.65C294.215 268.978 294.306 269.306 294.341 269.641H292.655C292.599 269.145 292.418 268.783 292.104 268.546C291.79 268.309 291.407 268.19 290.954 268.19C290.613 268.19 290.306 268.274 290.034 268.441ZM289.435 275.533C289.804 275.917 290.271 276.105 290.85 276.105C291.135 276.105 291.4 276.056 291.644 275.958C291.888 275.861 292.097 275.721 292.271 275.533C292.445 275.345 292.585 275.122 292.682 274.857C292.78 274.592 292.829 274.292 292.829 273.957C292.829 273.288 292.648 272.765 292.278 272.374C291.909 271.991 291.442 271.795 290.864 271.795C290.285 271.795 289.818 271.991 289.442 272.374C289.073 272.758 288.885 273.288 288.885 273.957C288.885 274.627 289.066 275.15 289.435 275.533Z" fill="black"/>
<path d="M235.626 345.692V347.206C234.964 347.84 234.372 348.482 233.863 349.13C233.347 349.779 232.908 350.462 232.553 351.187C232.191 351.906 231.912 352.673 231.703 353.489C231.494 354.305 231.361 355.19 231.306 356.152H229.361C229.41 355.232 229.557 354.346 229.793 353.51C230.03 352.673 230.351 351.878 230.748 351.132C231.145 350.378 231.598 349.681 232.128 349.026C232.65 348.37 233.215 347.763 233.821 347.206H228.128V345.692H235.626Z" fill="black"/>
<path d="M444.152 333.064C444.577 333.196 444.94 333.371 445.239 333.601C445.539 333.831 445.776 334.103 445.936 334.423C446.096 334.744 446.18 335.093 446.18 335.463C446.18 335.902 446.083 336.32 445.88 336.739C445.678 337.15 445.351 337.492 444.884 337.764C445.476 338.071 445.894 338.447 446.131 338.9C446.368 339.354 446.487 339.814 446.487 340.288C446.487 340.79 446.389 341.23 446.194 341.606C445.999 341.983 445.734 342.303 445.4 342.561C445.065 342.819 444.668 343.015 444.208 343.147C443.748 343.28 443.253 343.342 442.724 343.342C442.194 343.342 441.699 343.28 441.24 343.147C440.78 343.015 440.382 342.819 440.048 342.561C439.714 342.303 439.449 341.983 439.254 341.606C439.058 341.23 438.961 340.79 438.961 340.288C438.961 340.058 438.989 339.821 439.045 339.584C439.1 339.347 439.191 339.117 439.316 338.9C439.442 338.684 439.609 338.475 439.811 338.28C440.013 338.085 440.264 337.91 440.564 337.764C440.118 337.513 439.79 337.178 439.581 336.753C439.372 336.327 439.268 335.902 439.268 335.463C439.268 335.093 439.351 334.744 439.511 334.423C439.672 334.103 439.902 333.831 440.201 333.601C440.501 333.371 440.863 333.196 441.288 333.064C441.713 332.931 442.194 332.868 442.724 332.868C443.253 332.868 443.734 332.931 444.152 333.064ZM441.247 338.886C440.877 339.214 440.696 339.661 440.696 340.225C440.696 340.804 440.877 341.25 441.247 341.571C441.616 341.892 442.111 342.052 442.731 342.052C443.351 342.052 443.846 341.892 444.215 341.571C444.584 341.25 444.766 340.804 444.766 340.225C444.766 339.661 444.584 339.214 444.215 338.886C443.846 338.559 443.358 338.398 442.731 338.398C442.104 338.398 441.609 338.559 441.247 338.886ZM444.048 334.542C443.72 334.27 443.281 334.138 442.724 334.138C442.173 334.138 441.734 334.27 441.4 334.542C441.065 334.814 440.898 335.191 440.898 335.672C440.898 336.153 441.065 336.543 441.4 336.836C441.734 337.129 442.173 337.276 442.724 337.276C443.281 337.276 443.72 337.129 444.048 336.836C444.375 336.543 444.536 336.153 444.536 335.672C444.536 335.191 444.375 334.807 444.048 334.542Z" fill="black"/>
</g>
<defs>
<clipPath id="clip0_714_5906">
<rect width="564" height="393" fill="white"/>
</clipPath>
</defs>
</svg>
