<svg width="293" height="291" viewBox="0 0 293 291" fill="none" xmlns="http://www.w3.org/2000/svg">
<g clip-path="url(#clip0_714_8575)">
<path d="M124.639 120.344L156.755 120.557" stroke="black" stroke-width="2" stroke-miterlimit="10"/>
<path d="M125.434 123.147L120.619 120.316L125.473 117.546L125.434 123.147Z" fill="black"/>
<path d="M155.92 123.355L160.775 120.585L155.959 117.748L155.92 123.355Z" fill="black"/>
<path d="M6.03564 109.013C22.1607 46.6274 78.6544 0.561768 145.876 0.561768C203.943 0.561768 254.003 34.9368 276.953 84.5136" stroke="black" stroke-width="2" stroke-miterlimit="10"/>
<path d="M8.97512 108.912L5.08383 112.928L3.56091 107.541L8.97512 108.912Z" fill="black"/>
<path d="M274.059 84.9293L278.599 88.1932L279.148 82.6147L274.059 84.9293Z" fill="black"/>
<path d="M290.273 149.534C288.146 227.716 224.312 290.438 145.876 290.438C72.4563 290.438 11.825 235.48 2.63147 164.325" stroke="black" stroke-width="2" stroke-miterlimit="10"/>
<path d="M287.418 150.281L290.329 145.5L293 150.421L287.418 150.281Z" fill="black"/>
<path d="M5.53739 164.786L2.1668 160.32L0 165.482L5.53739 164.786Z" fill="black"/>
<path d="M63.61 61.0089C63.61 61.0089 112.842 70.1097 114.135 118.855L112.192 127.956C112.192 127.956 135.512 153.303 133.569 156.556C131.626 159.803 122.556 163.707 122.556 167.606C122.556 171.505 126.442 179.308 120.613 181.903C114.785 184.499 126.442 185.15 119.964 194.903C113.486 204.655 130.327 207.902 123.849 215.7C117.371 223.497 81.0956 231.946 81.0956 231.946" stroke="black" stroke-width="2" stroke-miterlimit="10"/>
<path d="M70.1383 62.7898L62.9604 69.4581" stroke="black" stroke-width="2" stroke-miterlimit="10"/>
<path d="M75.267 64.9076L65.5527 74.0084" stroke="black" stroke-width="2" stroke-miterlimit="10"/>
<path d="M80.4517 66.8571L68.1451 78.5532" stroke="black" stroke-width="2" stroke-miterlimit="10"/>
<path d="M84.9869 69.458L68.1451 85.7046" stroke="black" stroke-width="2" stroke-miterlimit="10"/>
<path d="M89.5219 72.7051L68.7889 90.9066" stroke="black" stroke-width="2" stroke-miterlimit="10"/>
<path d="M94.0515 75.9578L72.0308 95.4514" stroke="black" stroke-width="2" stroke-miterlimit="10"/>
<path d="M97.2934 79.2048L73.3242 101.305" stroke="black" stroke-width="2" stroke-miterlimit="10"/>
<path d="M101.179 83.1035L75.9165 105.855" stroke="black" stroke-width="2" stroke-miterlimit="10"/>
<path d="M103.771 87.0023L76.5659 113.001" stroke="black" stroke-width="2" stroke-miterlimit="10"/>
<path d="M107.008 90.9066L78.5088 117.552" stroke="black" stroke-width="2" stroke-miterlimit="10"/>
<path d="M109.6 96.103L80.4517 122.754" stroke="black" stroke-width="2" stroke-miterlimit="10"/>
<path d="M110.893 101.305L82.3945 127.95" stroke="black" stroke-width="2" stroke-miterlimit="10"/>
<path d="M112.842 106.502L84.3374 133.152" stroke="black" stroke-width="2" stroke-miterlimit="10"/>
<path d="M113.486 113.001L86.2802 138.349" stroke="black" stroke-width="2" stroke-miterlimit="10"/>
<path d="M114.135 118.855L87.5736 144.202" stroke="black" stroke-width="2" stroke-miterlimit="10"/>
<path d="M112.192 127.95L87.5736 150.702" stroke="black" stroke-width="2" stroke-miterlimit="10"/>
<path d="M115.428 131.849L88.223 157.202" stroke="black" stroke-width="2" stroke-miterlimit="10"/>
<path d="M119.32 135.753L89.522 163.05" stroke="black" stroke-width="2" stroke-miterlimit="10"/>
<path d="M122.556 139.652L91.4648 167.6" stroke="black" stroke-width="2" stroke-miterlimit="10"/>
<path d="M125.792 143.551L90.8153 176.049" stroke="black" stroke-width="2" stroke-miterlimit="10"/>
<path d="M128.384 147.449L91.4648 182.549" stroke="black" stroke-width="2" stroke-miterlimit="10"/>
<path d="M130.977 152L91.4648 189.049" stroke="black" stroke-width="2" stroke-miterlimit="10"/>
<path d="M122.556 166.949L90.8153 196.846" stroke="black" stroke-width="2" stroke-miterlimit="10"/>
<path d="M123.205 173.448L91.4648 202.694" stroke="black" stroke-width="2" stroke-miterlimit="10"/>
<path d="M119.32 183.847L90.1659 211.144" stroke="black" stroke-width="2" stroke-miterlimit="10"/>
<path d="M121.906 189.049L89.522 218.947" stroke="black" stroke-width="2" stroke-miterlimit="10"/>
<path d="M118.021 199.447L86.2802 228.693" stroke="black" stroke-width="2" stroke-miterlimit="10"/>
<path d="M119.964 203.998L94.701 228.042" stroke="black" stroke-width="2" stroke-miterlimit="10"/>
<path d="M123.849 207.896L105.065 225.441" stroke="black" stroke-width="2" stroke-miterlimit="10"/>
<path d="M223.763 61.2898C223.763 61.2898 174.458 69.9917 172.773 118.726L174.643 127.838C174.643 127.838 151.122 152.994 153.037 156.264C154.952 159.533 163.988 163.499 163.96 167.404C163.932 171.308 159.98 179.072 165.791 181.718C171.597 184.364 159.935 184.92 166.334 194.723C172.734 204.526 155.864 207.638 162.281 215.492C168.697 223.345 204.9 232.087 204.9 232.087" stroke="black" stroke-width="2" stroke-miterlimit="10"/>
<path d="M217.218 63.02L224.34 69.7445" stroke="black" stroke-width="2" stroke-miterlimit="10"/>
<path d="M212.072 65.0986L221.714 74.2724" stroke="black" stroke-width="2" stroke-miterlimit="10"/>
<path d="M206.871 67.0031L219.088 78.8004" stroke="black" stroke-width="2" stroke-miterlimit="10"/>
<path d="M202.319 69.5647L219.026 85.9517" stroke="black" stroke-width="2" stroke-miterlimit="10"/>
<path d="M197.756 72.7781L218.338 91.1425" stroke="black" stroke-width="2" stroke-miterlimit="10"/>
<path d="M193.198 75.9915L215.062 95.6705" stroke="black" stroke-width="2" stroke-miterlimit="10"/>
<path d="M189.934 79.2161L213.724 101.507" stroke="black" stroke-width="2" stroke-miterlimit="10"/>
<path d="M186.015 83.0867L211.093 106.035" stroke="black" stroke-width="2" stroke-miterlimit="10"/>
<path d="M183.394 86.963L210.387 113.181" stroke="black" stroke-width="2" stroke-miterlimit="10"/>
<path d="M180.125 90.8336L208.411 117.715" stroke="black" stroke-width="2" stroke-miterlimit="10"/>
<path d="M177.488 96.0132L206.423 122.9" stroke="black" stroke-width="2" stroke-miterlimit="10"/>
<path d="M176.149 101.204L204.441 128.079" stroke="black" stroke-width="2" stroke-miterlimit="10"/>
<path d="M174.167 106.389L202.453 133.265" stroke="black" stroke-width="2" stroke-miterlimit="10"/>
<path d="M173.467 112.883L200.471 138.45" stroke="black" stroke-width="2" stroke-miterlimit="10"/>
<path d="M172.773 118.726L199.128 144.287" stroke="black" stroke-width="2" stroke-miterlimit="10"/>
<path d="M174.643 127.838L199.072 150.786" stroke="black" stroke-width="2" stroke-miterlimit="10"/>
<path d="M171.373 131.714L198.372 157.28" stroke="black" stroke-width="2" stroke-miterlimit="10"/>
<path d="M167.454 135.579L197.034 163.117" stroke="black" stroke-width="2" stroke-miterlimit="10"/>
<path d="M164.184 139.455L195.051 167.651" stroke="black" stroke-width="2" stroke-miterlimit="10"/>
<path d="M160.915 143.326L195.634 176.106" stroke="black" stroke-width="2" stroke-miterlimit="10"/>
<path d="M158.294 147.208L194.934 182.6" stroke="black" stroke-width="2" stroke-miterlimit="10"/>
<path d="M155.663 151.736L194.878 189.099" stroke="black" stroke-width="2" stroke-miterlimit="10"/>
<path d="M163.966 166.752L195.466 196.902" stroke="black" stroke-width="2" stroke-miterlimit="10"/>
<path d="M163.266 173.246L194.772 202.751" stroke="black" stroke-width="2" stroke-miterlimit="10"/>
<path d="M167.068 183.678L195.998 211.211" stroke="black" stroke-width="2" stroke-miterlimit="10"/>
<path d="M164.436 188.852L196.58 219.014" stroke="black" stroke-width="2" stroke-miterlimit="10"/>
<path d="M168.238 199.284L199.743 228.789" stroke="black" stroke-width="2" stroke-miterlimit="10"/>
<path d="M166.256 203.818L191.328 228.07" stroke="black" stroke-width="2" stroke-miterlimit="10"/>
<path d="M162.342 207.689L180.981 225.385" stroke="black" stroke-width="2" stroke-miterlimit="10"/>
</g>
<defs>
<clipPath id="clip0_714_8575">
<rect width="293" height="291" fill="white"/>
</clipPath>
</defs>
</svg>
