<svg width="207" height="207" viewBox="0 0 207 207" fill="none" xmlns="http://www.w3.org/2000/svg">
<path fill-rule="evenodd" clip-rule="evenodd" d="M110.99 87L88 86.8071L88.0095 85L111 85.1929L110.99 87Z" fill="black"/>
<path d="M88.9677 88L85 85.9779L89 84L88.9677 88Z" fill="black"/>
<path d="M110 88L114 86.024L110.032 84L110 88Z" fill="black"/>
<path fill-rule="evenodd" clip-rule="evenodd" d="M103.105 1.42205C56.1228 1.42205 16.6342 33.9474 5.36287 78L4 77.6441C15.4272 32.9821 55.4625 0 103.105 0C144.26 0 179.736 24.6127 196 60.104L194.723 60.7014C178.68 25.6923 143.689 1.42205 103.105 1.42205Z" fill="black"/>
<path d="M6 77.7633L3.84385 80L3 77L6 77.7633Z" fill="black"/>
<path d="M194 60.6596L196.677 63L197 59L194 60.6596Z" fill="black"/>
<path fill-rule="evenodd" clip-rule="evenodd" d="M103.089 205.577C158.219 205.577 203.089 161.253 204.585 106L206 106.039C204.484 162.056 158.992 207 103.089 207C50.7612 207 7.55188 167.619 1 116.636L2.40391 116.454C8.86623 166.74 51.4856 205.577 103.089 205.577Z" fill="black"/>
<path d="M203 106.914L205.086 104L207 107L203 106.914Z" fill="black"/>
<path d="M4 117.46L1.56522 114L0 118L4 117.46Z" fill="black"/>
<path fill-rule="evenodd" clip-rule="evenodd" d="M45 44.3875C45.0001 44.3875 45.0002 44.3876 45.1278 43.6937C45.2554 42.9998 45.2558 42.9999 45.2564 43L45.2582 43.0003L45.2642 43.0015L45.2856 43.0056C45.304 43.0091 45.3305 43.0144 45.365 43.0213C45.434 43.0353 45.5348 43.0562 45.6652 43.0847C45.9261 43.1418 46.3057 43.2295 46.7874 43.3531C47.7506 43.6002 49.123 43.991 50.7706 44.5682C54.0637 45.7218 58.4678 47.6237 62.9051 50.6182C71.7943 56.6173 80.8212 67.0128 81.2824 84.4932L81.2846 84.5771L79.9794 90.7255C80.0952 90.8532 80.2498 91.0239 80.4381 91.2329C80.8841 91.7279 81.5196 92.4373 82.2777 93.2956C83.7936 95.0118 85.8021 97.3258 87.7692 99.7134C89.7334 102.097 91.6686 104.57 93.0306 106.598C93.7093 107.609 94.2629 108.536 94.6045 109.299C94.7745 109.679 94.9058 110.049 94.965 110.388C95.0211 110.709 95.0331 111.118 94.8201 111.477C94.4064 112.172 93.6583 112.843 92.8688 113.468C92.3649 113.866 91.794 114.283 91.2267 114.697C90.8993 114.936 90.573 115.174 90.2616 115.407C89.3847 116.064 88.5933 116.704 88.0239 117.331C87.4408 117.974 87.1915 118.494 87.1915 118.912C87.1915 119.513 87.3431 120.297 87.539 121.249C87.5494 121.299 87.56 121.35 87.5705 121.401C87.7524 122.283 87.9562 123.272 88.0408 124.24C88.1302 125.262 88.0947 126.334 87.7179 127.297C87.33 128.289 86.6 129.113 85.4119 129.645C84.9574 129.849 84.7487 129.999 84.6627 130.087C84.6954 130.15 84.768 130.258 84.9192 130.438C84.9749 130.504 85.0488 130.588 85.1317 130.682C85.2823 130.854 85.4623 131.059 85.6158 131.25C86.1414 131.906 86.7084 132.804 86.7849 134.051C86.861 135.293 86.4447 136.763 85.2553 138.564C84.2221 140.128 84.161 141.342 84.4876 142.384C84.8353 143.493 85.6437 144.492 86.5655 145.568C86.6273 145.64 86.6897 145.712 86.7527 145.785C87.5797 146.746 88.4888 147.802 88.9089 148.96C89.1448 149.61 89.2368 150.311 89.0867 151.06C88.9377 151.804 88.5602 152.545 87.9371 153.3C87.2961 154.075 86.3249 154.818 85.167 155.524C84.0005 156.236 82.6033 156.934 81.0737 157.608C78.0144 158.955 74.3789 160.225 70.902 161.318C67.4223 162.411 64.0871 163.331 61.6228 163.978C60.3903 164.302 59.3748 164.557 58.667 164.731C58.3131 164.819 58.036 164.886 57.8472 164.931C57.7996 164.942 57.7577 164.952 57.7215 164.961C57.6858 164.969 57.6557 164.977 57.6315 164.982L57.5758 164.996L57.5579 165L57.5569 165C57.5566 165 57.5565 165 57.3973 164.313C57.2381 163.626 57.2382 163.626 57.2383 163.626L57.2391 163.625L57.2557 163.621L57.3095 163.609C57.3572 163.597 57.4283 163.581 57.5214 163.558C57.7076 163.513 57.9819 163.447 58.3329 163.361C59.0349 163.188 60.0435 162.934 61.2684 162.613C63.7189 161.969 67.0314 161.055 70.4834 159.971C73.9383 158.885 77.5188 157.633 80.5106 156.315C82.0066 155.656 83.3438 154.986 84.4394 154.318C85.5436 153.644 86.3622 152.997 86.8576 152.398C87.3708 151.777 87.6184 151.243 87.7109 150.781C87.8023 150.325 87.7524 149.89 87.5906 149.444C87.2626 148.54 86.518 147.673 85.6281 146.636C85.5865 146.587 85.5447 146.538 85.5026 146.489C84.6064 145.444 83.5968 144.236 83.1491 142.808C82.6804 141.313 82.8466 139.66 84.0863 137.783C85.1697 136.143 85.4355 134.975 85.3841 134.138C85.3332 133.307 84.9632 132.685 84.5233 132.136C84.3789 131.956 84.2542 131.815 84.1265 131.67C84.0377 131.57 83.9473 131.467 83.8479 131.349C83.6506 131.115 83.4033 130.801 83.2965 130.44C83.2377 130.241 83.2169 130.016 83.2718 129.778C83.3262 129.543 83.4442 129.341 83.593 129.172C83.8729 128.853 84.3074 128.595 84.8411 128.356C85.6979 127.972 86.1608 127.422 86.4119 126.78C86.6742 126.11 86.7239 125.29 86.6428 124.363C86.5657 123.48 86.3773 122.566 86.1916 121.665L86.1648 121.535C85.9773 120.623 85.7881 119.687 85.7881 118.912C85.7881 117.955 86.3344 117.099 86.9873 116.38C87.6538 115.645 88.5388 114.938 89.4234 114.275C89.7671 114.018 90.1072 113.77 90.4395 113.527C90.9876 113.128 91.5145 112.743 92.0013 112.358C92.7702 111.75 93.3213 111.228 93.5963 110.784C93.5975 110.763 93.5974 110.716 93.5828 110.632C93.552 110.456 93.4715 110.207 93.3246 109.878C93.0322 109.224 92.5311 108.377 91.8675 107.388C90.5448 105.418 88.6448 102.988 86.6886 100.614C84.7353 98.243 82.7382 95.942 81.2285 94.2328C80.4739 93.3785 79.8416 92.6726 79.3982 92.1805C79.1764 91.9345 79.002 91.742 78.883 91.611C78.8236 91.5456 78.778 91.4955 78.7474 91.4619L78.7019 91.4121L78.7014 91.4116C78.7013 91.4115 78.7013 91.4114 79.2177 90.9337L78.7014 91.4116L78.4557 91.143L79.8772 84.4469C79.4045 67.5816 70.7192 57.5914 62.123 51.7901C57.8104 48.8796 53.5214 47.0263 50.3089 45.9009C48.7037 45.3386 47.37 44.959 46.4405 44.7205C45.9758 44.6013 45.6124 44.5175 45.3667 44.4637C45.2439 44.4368 45.1506 44.4175 45.0888 44.405C45.0579 44.3988 45.0349 44.3942 45.0201 44.3914L45.004 44.3883L45 44.3875Z" fill="black"/>
<path fill-rule="evenodd" clip-rule="evenodd" d="M44 49.0992L49.0435 45L50 45.9008L44.9565 50L44 49.0992Z" fill="black"/>
<path fill-rule="evenodd" clip-rule="evenodd" d="M46 52.8943L53.0129 46L54 47.1057L46.9871 54L46 52.8943Z" fill="black"/>
<path fill-rule="evenodd" clip-rule="evenodd" d="M48 55.8972L56.0938 47L57 48.1028L48.9062 57L48 55.8972Z" fill="black"/>
<path fill-rule="evenodd" clip-rule="evenodd" d="M48 60.942L60.0098 49L61 50.058L48.9902 62L48 60.942Z" fill="black"/>
<path fill-rule="evenodd" clip-rule="evenodd" d="M48 64.0084L63.0427 52L64 52.9916L48.9573 65L48 64.0084Z" fill="black"/>
<path fill-rule="evenodd" clip-rule="evenodd" d="M50 67.9299L66.0347 54L67 55.0701L50.9653 69L50 67.9299Z" fill="black"/>
<path fill-rule="evenodd" clip-rule="evenodd" d="M51 71.9395L68.0364 56L69 57.0605L51.9636 73L51 71.9395Z" fill="black"/>
<path fill-rule="evenodd" clip-rule="evenodd" d="M53 74.9577L71.044 59L72 60.0423L53.956 76L53 74.9577Z" fill="black"/>
<path fill-rule="evenodd" clip-rule="evenodd" d="M54 79.999L73.0333 62L74 63.001L54.9667 81L54 79.999Z" fill="black"/>
<path fill-rule="evenodd" clip-rule="evenodd" d="M55 82.9604L75.0395 64L76 65.0396L55.9605 84L55 82.9604Z" fill="black"/>
<path fill-rule="evenodd" clip-rule="evenodd" d="M56 86.9504L77.0265 68L78 69.0496L56.9735 88L56 86.9504Z" fill="black"/>
<path fill-rule="evenodd" clip-rule="evenodd" d="M58 90.9604L78.0395 72L79 73.0396L58.9605 92L58 90.9604Z" fill="black"/>
<path fill-rule="evenodd" clip-rule="evenodd" d="M59 93.9606L79.0397 75L80 76.0394L59.9603 95L59 93.9606Z" fill="black"/>
<path fill-rule="evenodd" clip-rule="evenodd" d="M60 97.963L79.9978 80L81 81.037L61.0022 99L60 97.963Z" fill="black"/>
<path fill-rule="evenodd" clip-rule="evenodd" d="M61 101.974L80.0117 84L81 85.026L61.9883 103L61 101.974Z" fill="black"/>
<path fill-rule="evenodd" clip-rule="evenodd" d="M61 106.969L79.0071 91L80 92.0309L61.9929 108L61 106.969Z" fill="black"/>
<path fill-rule="evenodd" clip-rule="evenodd" d="M62 110.963L81.0455 93L82 94.0367L62.9545 112L62 110.963Z" fill="black"/>
<path fill-rule="evenodd" clip-rule="evenodd" d="M63 114.975L84.0458 96L85 97.0251L63.9542 116L63 114.975Z" fill="black"/>
<path fill-rule="evenodd" clip-rule="evenodd" d="M64 118.939L86.0517 99L87 100.061L64.9483 120L64 118.939Z" fill="black"/>
<path fill-rule="evenodd" clip-rule="evenodd" d="M64 124.965L88.0634 102L89 103.035L64.9366 126L64 124.965Z" fill="black"/>
<path fill-rule="evenodd" clip-rule="evenodd" d="M64 128.969L90.0285 104L91 105.031L64.9715 130L64 128.969Z" fill="black"/>
<path fill-rule="evenodd" clip-rule="evenodd" d="M64 133.977L92.0295 108L93 109.023L64.9705 135L64 133.977Z" fill="black"/>
<path fill-rule="evenodd" clip-rule="evenodd" d="M64 138.978L86.0475 118L87 119.022L64.9525 140L64 138.978Z" fill="black"/>
<path fill-rule="evenodd" clip-rule="evenodd" d="M64 142.994L87.0172 123L88 124.006L64.9828 144L64 142.994Z" fill="black"/>
<path fill-rule="evenodd" clip-rule="evenodd" d="M63 148.985L84.0147 130L85 131.015L63.9853 150L63 148.985Z" fill="black"/>
<path fill-rule="evenodd" clip-rule="evenodd" d="M63 154.969L86.035 134L87 135.031L63.965 156L63 154.969Z" fill="black"/>
<path fill-rule="evenodd" clip-rule="evenodd" d="M60 161.947L83.0172 141L84 142.053L60.9828 163L60 161.947Z" fill="black"/>
<path fill-rule="evenodd" clip-rule="evenodd" d="M66 160.977L84.0166 144L85 145.023L66.9834 162L66 160.977Z" fill="black"/>
<path fill-rule="evenodd" clip-rule="evenodd" d="M74 159L87.0515 147L88 148L74.9485 160L74 159Z" fill="black"/>
<path fill-rule="evenodd" clip-rule="evenodd" d="M157.753 43C157.753 42.9999 157.754 42.9998 157.877 43.6953C158 44.3907 158 44.3907 158 44.3907L157.996 44.3914L157.98 44.3944C157.965 44.3971 157.941 44.4015 157.91 44.4075C157.848 44.4194 157.753 44.438 157.629 44.4639C157.381 44.5157 157.013 44.5967 156.543 44.7122C155.603 44.9433 154.254 45.3123 152.63 45.862C149.378 46.9621 145.034 48.782 140.658 51.6596C131.935 57.3954 123.088 67.3229 122.475 84.1978L123.856 90.9078L123.606 91.1744L123.089 90.6921C123.606 91.1744 123.606 91.1743 123.606 91.1744L123.559 91.2246C123.528 91.258 123.482 91.3077 123.421 91.3727C123.3 91.5027 123.122 91.694 122.897 91.9384C122.445 92.4273 121.801 93.1285 121.033 93.9773C119.496 95.6755 117.461 97.9618 115.471 100.318C113.477 102.679 111.54 105.095 110.189 107.056C109.512 108.04 108.999 108.884 108.698 109.536C108.547 109.864 108.464 110.113 108.432 110.289C108.416 110.373 108.416 110.42 108.417 110.441C108.69 110.888 109.242 111.416 110.013 112.031C110.502 112.421 111.032 112.811 111.584 113.217C111.916 113.461 112.255 113.71 112.598 113.969C113.486 114.639 114.373 115.354 115.04 116.094C115.694 116.82 116.238 117.68 116.231 118.639C116.226 119.416 116.027 120.352 115.831 121.262L115.802 121.398C115.607 122.297 115.41 123.208 115.325 124.089C115.236 125.016 115.28 125.836 115.539 126.509C115.787 127.154 116.25 127.708 117.113 128.1C117.65 128.344 118.086 128.605 118.366 128.927C118.515 129.098 118.632 129.301 118.685 129.537C118.738 129.775 118.715 130.001 118.654 130.199C118.544 130.56 118.291 130.872 118.09 131.105C117.989 131.223 117.897 131.324 117.806 131.424C117.676 131.568 117.549 131.708 117.402 131.887C116.954 132.433 116.575 133.052 116.517 133.883C116.458 134.72 116.717 135.891 117.797 137.541C119.033 139.429 119.188 141.085 118.703 142.577C118.239 144.003 117.21 145.203 116.297 146.242C116.254 146.291 116.212 146.339 116.17 146.387C115.263 147.418 114.504 148.281 114.166 149.183C113.999 149.629 113.945 150.064 114.033 150.522C114.123 150.985 114.369 151.521 114.882 152.147C115.377 152.752 116.198 153.406 117.307 154.089C118.408 154.767 119.752 155.449 121.256 156.121C124.265 157.464 127.868 158.747 131.346 159.861C134.821 160.975 138.157 161.917 140.625 162.581C141.858 162.912 142.874 163.174 143.581 163.353C143.935 163.442 144.211 163.511 144.398 163.557C144.452 163.571 144.499 163.582 144.538 163.592C144.567 163.599 144.591 163.605 144.612 163.61L144.666 163.623L144.679 163.626L144.683 163.627L144.684 163.627C144.684 163.627 144.684 163.627 144.517 164.314C144.351 165 144.351 165 144.351 165L144.35 165L144.346 164.999L144.276 164.982C144.226 164.97 144.154 164.952 144.058 164.929C143.868 164.882 143.589 164.812 143.233 164.722C142.52 164.542 141.497 164.278 140.256 163.944C137.774 163.277 134.416 162.329 130.913 161.206C127.413 160.084 123.754 158.784 120.677 157.41C119.139 156.723 117.735 156.012 116.563 155.291C115.4 154.575 114.426 153.823 113.785 153.041C113.162 152.281 112.787 151.535 112.643 150.789C112.497 150.038 112.596 149.338 112.839 148.689C113.272 147.533 114.199 146.483 115.042 145.527C115.106 145.455 115.169 145.383 115.232 145.311C116.171 144.242 116.995 143.249 117.355 142.142C117.693 141.102 117.641 139.886 116.611 138.313C115.425 136.502 115.017 135.027 115.104 133.785C115.191 132.537 115.771 131.643 116.307 130.992C116.463 130.802 116.646 130.598 116.8 130.427C116.884 130.333 116.96 130.25 117.016 130.184C117.171 130.005 117.245 129.897 117.279 129.834C117.193 129.746 116.984 129.593 116.526 129.385C115.331 128.843 114.601 128.011 114.217 127.016C113.844 126.049 113.817 124.976 113.915 123.954C114.009 122.988 114.222 122.002 114.412 121.123C114.424 121.07 114.435 121.017 114.446 120.965C114.651 120.014 114.811 119.231 114.815 118.629C114.818 118.209 114.57 117.686 113.986 117.038C113.417 116.406 112.623 115.759 111.743 115.095C111.433 114.861 111.107 114.621 110.78 114.381C110.209 113.961 109.635 113.538 109.128 113.134C108.336 112.502 107.587 111.824 107.176 111.124C106.964 110.763 106.979 110.353 107.039 110.033C107.101 109.695 107.237 109.325 107.411 108.946C107.762 108.185 108.329 107.262 109.022 106.256C110.413 104.237 112.386 101.778 114.388 99.4086C116.392 97.0352 118.438 94.7359 119.982 93.0308C120.754 92.178 121.401 91.4733 121.855 90.9816C122.046 90.7741 122.204 90.6045 122.322 90.4776L121.054 84.3167L121.057 84.2327C121.663 66.7421 130.858 56.4119 139.878 50.4805C144.381 47.5197 148.841 45.6522 152.174 44.5245C153.842 43.9603 155.23 43.5803 156.204 43.3409C156.692 43.2211 157.075 43.1365 157.339 43.0815C157.471 43.0539 157.573 43.0338 157.643 43.0205C157.678 43.0138 157.704 43.0088 157.723 43.0053L157.745 43.0014L157.751 43.0003L157.753 43Z" fill="black"/>
<path fill-rule="evenodd" clip-rule="evenodd" d="M158.03 50L153 45.889L153.97 45L159 49.111L158.03 50Z" fill="black"/>
<path fill-rule="evenodd" clip-rule="evenodd" d="M155.999 54L149 47.0912L150.001 46L157 52.9088L155.999 54Z" fill="black"/>
<path fill-rule="evenodd" clip-rule="evenodd" d="M154.081 57L146 48.9783L146.919 48L155 56.0217L154.081 57Z" fill="black"/>
<path fill-rule="evenodd" clip-rule="evenodd" d="M153.995 62L142 50.0419L143.005 49L155 60.9581L153.995 62Z" fill="black"/>
<path fill-rule="evenodd" clip-rule="evenodd" d="M154.028 66L139 53.0522L139.972 52L155 64.9478L154.028 66Z" fill="black"/>
<path fill-rule="evenodd" clip-rule="evenodd" d="M151.077 69L136 55.0535L136.923 54L152 67.9465L151.077 69Z" fill="black"/>
<path fill-rule="evenodd" clip-rule="evenodd" d="M150.076 73L134 57.0446L134.924 56L151 71.9554L150.076 73Z" fill="black"/>
<path fill-rule="evenodd" clip-rule="evenodd" d="M149.029 76L131 60.027L131.971 59L150 74.973L149.029 76Z" fill="black"/>
<path fill-rule="evenodd" clip-rule="evenodd" d="M148.018 81L129 62.9857L129.982 62L149 80.0143L148.018 81Z" fill="black"/>
<path fill-rule="evenodd" clip-rule="evenodd" d="M147.025 84L127 65.0235L127.975 64L148 82.9765L147.025 84Z" fill="black"/>
<path fill-rule="evenodd" clip-rule="evenodd" d="M145.056 88L125 69.0335L125.944 68L146 86.9665L145.056 88Z" fill="black"/>
<path fill-rule="evenodd" clip-rule="evenodd" d="M144.025 92L124 73.0238L124.975 72L145 90.9762L144.025 92Z" fill="black"/>
<path fill-rule="evenodd" clip-rule="evenodd" d="M143.025 95L123 76.0238L123.975 75L144 93.9762L143.025 95Z" fill="black"/>
<path fill-rule="evenodd" clip-rule="evenodd" d="M141.031 99L122 81.0213L122.969 80L142 97.9787L141.031 99Z" fill="black"/>
<path fill-rule="evenodd" clip-rule="evenodd" d="M140.047 103L122 85.0104L122.953 84L141 101.99L140.047 103Z" fill="black"/>
<path fill-rule="evenodd" clip-rule="evenodd" d="M140.045 108L123 92.0153L123.955 91L141 106.985L140.045 108Z" fill="black"/>
<path fill-rule="evenodd" clip-rule="evenodd" d="M140.031 112L121 94.0212L121.969 93L141 110.979L140.031 112Z" fill="black"/>
<path fill-rule="evenodd" clip-rule="evenodd" d="M139.031 116L118 97.0095L118.969 96L140 114.991L139.031 116Z" fill="black"/>
<path fill-rule="evenodd" clip-rule="evenodd" d="M137.079 120L116 100.045L116.921 99L138 118.955L137.079 120Z" fill="black"/>
<path fill-rule="evenodd" clip-rule="evenodd" d="M138.011 126L113 102.062L113.989 101L139 124.938L138.011 126Z" fill="black"/>
<path fill-rule="evenodd" clip-rule="evenodd" d="M137.013 130L111 105.015L111.987 104L138 128.985L137.013 130Z" fill="black"/>
<path fill-rule="evenodd" clip-rule="evenodd" d="M137.014 135L109 108.045L109.986 107L138 133.955L137.014 135Z" fill="black"/>
<path fill-rule="evenodd" clip-rule="evenodd" d="M137.991 140L115 119.006L116.009 118L139 138.994L137.991 140Z" fill="black"/>
<path fill-rule="evenodd" clip-rule="evenodd" d="M137.043 144L115 123.99L115.957 123L138 143.01L137.043 144Z" fill="black"/>
<path fill-rule="evenodd" clip-rule="evenodd" d="M138.045 150L118 131L118.955 130L139 149L138.045 150Z" fill="black"/>
<path fill-rule="evenodd" clip-rule="evenodd" d="M138.061 156L116 135.015L116.939 134L139 154.985L138.061 156Z" fill="black"/>
<path fill-rule="evenodd" clip-rule="evenodd" d="M141.002 163L118 142.037L118.998 141L142 161.963L141.002 163Z" fill="black"/>
<path fill-rule="evenodd" clip-rule="evenodd" d="M135.002 162L117 145.007L117.998 144L136 160.993L135.002 162Z" fill="black"/>
<path fill-rule="evenodd" clip-rule="evenodd" d="M127.037 160L114 147.985L114.963 147L128 159.015L127.037 160Z" fill="black"/>
</svg>
