<svg width="312" height="217" viewBox="0 0 312 217" fill="none" xmlns="http://www.w3.org/2000/svg">
<g clip-path="url(#clip0_723_4569)">
<path d="M63.8741 49.9945C63.8741 49.9945 70.5121 49.5209 70.7511 48.8085C70.99 48.0962 69.8028 42.8865 69.8028 42.8865L72 41.2385C72.3315 40.9883 72.3546 40.4992 72.0463 40.222C71.0016 39.2864 68.9085 37.3688 68.3803 36.4909C67.6672 35.305 66.3643 27.373 58.539 27.373C50.9181 27.373 48.8172 30.6883 47.5143 34.8352C47.5143 34.8352 45.9724 42.0587 45.9724 44.1918C45.9724 46.325 45.4982 52.0082 43.8368 54.1414C42.1754 56.2746 37.673 65.2731 36.2506 66.6939C34.8281 68.1147 17.9904 81.6144 19.4128 84.9335C20.8352 88.2487 26.7639 93.6971 26.7639 93.6971C26.7639 93.6971 18.3566 100.328 16.5679 101.987C13.249 105.067 10.8783 116.673 10.8783 116.673L9.92998 131.832C9.92998 131.832 8.26856 152.44 8.26856 155.043C8.26856 157.645 6.84614 172.809 5.89785 175.177C4.94957 177.545 0.439453 205.969 0.439453 205.969L9.45198 207.389L8.5037 215.918H18.9387V215.206L21.3094 216.392H43.3627V213.077H42.6495C42.6495 213.077 43.8368 208.575 39.3306 208.102C34.8243 207.628 26.999 201.233 26.999 201.233L25.3376 199.573C25.3376 199.573 27.7083 197.44 27.4732 196.019C27.2342 194.598 26.5249 195.545 26.0508 192.704C25.5766 189.862 24.1542 189.389 24.6283 187.729C25.1025 186.069 25.5766 181.572 25.5766 180.625C25.5766 179.678 27.7122 177.545 27.7122 174.703C27.7122 171.861 28.1863 161.203 27.7122 158.831C27.238 156.463 27.4732 152.909 27.238 151.489C26.999 150.068 32.2184 137.989 32.6926 136.568C33.1667 135.147 36.9599 124.963 36.9599 120.696C36.9599 116.43 42.6495 105.064 42.6495 105.064C42.6495 105.064 47.6299 110.273 49.0524 110.038C50.4748 109.8 52.3714 111.459 53.0845 111.698C53.7976 111.937 55.6942 111.937 56.6425 109.33C57.0858 108.117 58.0533 107.208 58.778 106.962C59.6068 106.681 60.185 107.12 60.4395 106.488C60.6168 106.049 60.4395 104.829 58.778 104.12C57.1166 103.408 54.5108 101.04 52.8493 101.514C51.1879 101.987 49.5304 99.1455 47.8689 100.328C46.2075 101.514 45.7334 99.6153 46.2075 98.9068C46.6817 98.1983 53.5586 87.7751 53.5586 87.7751C53.5586 87.7751 59.2483 88.2487 58.3 77.5907L57.5869 74.2754C57.5869 74.2754 59.7225 74.0367 59.9576 72.1423C60.1966 70.2478 60.6707 58.8775 59.9576 57.4566C59.2483 56.0358 62.8063 49.8789 63.8741 49.9945Z" fill="#B7B7B7"/>
<path d="M43.7481 216.777H21.2168L19.3203 215.83V216.304H8.07196L9.02795 207.713L0 206.288L0.0616768 205.907C0.246707 204.744 4.58336 177.414 5.53935 175.031C6.47221 172.705 7.88307 157.615 7.88307 155.039C7.88307 152.448 9.4751 132.637 9.54449 131.798L10.5005 116.592C10.5969 116.115 12.9367 104.829 16.3058 101.702C17.8978 100.228 24.5435 94.9603 26.1741 93.6704C24.8905 92.4575 20.3187 88.018 19.0581 85.0839C17.9248 82.4464 25.592 75.3692 34.0418 68.115C35.0286 67.2679 35.7379 66.6557 35.9769 66.4208C36.7016 65.6969 38.4324 62.6127 39.955 59.8943C41.389 57.3337 42.7459 54.9118 43.5323 53.903C45.0665 51.9315 45.5869 46.4061 45.5869 44.1921C45.5869 42.0436 47.0748 35.0511 47.1365 34.7546C47.7302 32.8641 48.5744 30.7617 50.4131 29.2523C52.2673 27.7276 54.9271 26.9883 58.539 26.9883C65.3697 26.9883 67.4436 32.8294 68.3264 35.3207C68.4806 35.7558 68.6155 36.137 68.7119 36.2948C69.0703 36.8917 70.381 38.2201 72.3045 39.9374C72.5397 40.1453 72.663 40.4456 72.6515 40.7575C72.6399 41.0732 72.4857 41.3582 72.2351 41.5468L70.2384 43.0447C70.566 44.5155 71.3601 48.2197 71.1211 48.9282C71.044 49.163 70.8012 49.8831 63.9049 50.3759L63.8702 50.3798L63.8471 50.3759C63.504 50.4414 62.4092 51.739 61.3762 53.7335C60.3816 55.6511 60.1272 56.9179 60.3084 57.2837C61.1025 58.87 60.5551 70.51 60.3469 72.1888C60.1619 73.6712 58.9322 74.3527 58.0533 74.576L58.6894 77.5524C59.0826 81.9766 58.408 85.0993 56.6887 86.8282C55.5477 87.9718 54.2872 88.1412 53.7706 88.1604C52.8686 89.5312 46.9708 98.4681 46.5352 99.1188C46.3656 99.3768 46.3887 99.9659 46.647 100.216C46.9129 100.474 47.3909 100.201 47.6492 100.016C48.7671 99.2189 49.8503 99.8851 50.8063 100.474C51.504 100.905 52.1593 101.31 52.7453 101.144C54.0405 100.775 55.698 101.822 57.159 102.75C57.8105 103.162 58.4272 103.551 58.9322 103.766C60.6862 104.517 61.0832 105.919 60.7979 106.631C60.5474 107.255 60.0308 107.243 59.6531 107.239C59.4179 107.236 59.1751 107.232 58.9052 107.324C58.2846 107.536 57.4096 108.356 57.0087 109.461C55.9949 112.245 53.921 112.38 52.9688 112.064C52.7106 111.979 52.3868 111.775 51.9743 111.517C51.1301 110.994 49.9775 110.277 49.1256 110.42C47.7533 110.651 44.2801 107.278 42.7652 105.726C41.6858 107.944 37.3569 117.07 37.3569 120.697C37.3569 124.52 34.4542 132.749 33.3633 135.848C33.2284 136.233 33.1243 136.522 33.0704 136.692C32.9393 137.077 32.496 138.166 31.8831 139.676C30.4529 143.187 27.4732 150.492 27.6312 151.427C27.7353 152.039 27.7507 152.991 27.77 154.092C27.797 155.643 27.8317 157.399 28.1015 158.758C28.4562 160.53 28.2981 166.586 28.1863 171.011C28.1439 172.582 28.1092 173.937 28.1092 174.703C28.1092 176.605 27.2226 178.176 26.575 179.32C26.2666 179.863 25.9775 180.379 25.9775 180.625C25.9775 181.642 25.4995 186.143 25.0138 187.837C24.8018 188.576 25.0331 189.012 25.4147 189.739C25.7694 190.417 26.2165 191.26 26.4439 192.642C26.7022 194.187 27.0067 194.495 27.2727 194.768C27.5079 195.007 27.7469 195.249 27.8664 195.958C28.0861 197.267 26.5827 198.915 25.9043 199.581L27.2843 200.959C27.3344 200.998 35.044 207.263 39.3845 207.717C40.8069 207.867 41.8554 208.414 42.4953 209.342C43.301 210.505 43.2355 211.953 43.1275 212.692H43.7597V216.777H43.7481ZM21.398 216.007H42.9733V213.462H42.1484L42.2756 212.981C42.2795 212.961 42.7536 211.09 41.8439 209.777C41.335 209.045 40.4754 208.61 39.2881 208.487C34.7202 208.006 27.0761 201.799 26.7523 201.533L24.7787 199.562L25.0793 199.288C25.9351 198.518 27.238 196.967 27.0915 196.085C27.0145 195.615 26.8988 195.5 26.7099 195.307C26.3784 194.972 25.9659 194.552 25.6691 192.77C25.4571 191.507 25.0485 190.725 24.717 190.097C24.3122 189.327 23.9615 188.661 24.2583 187.625C24.717 186.02 25.1911 181.588 25.1911 180.625C25.1911 180.179 25.4841 179.659 25.8889 178.943C26.4941 177.872 27.3228 176.405 27.3228 174.703C27.3228 173.929 27.3575 172.57 27.3999 170.991C27.5079 166.852 27.6698 160.595 27.3305 158.909C27.0453 157.48 27.0106 155.69 26.9836 154.107C26.9643 153.037 26.9489 152.113 26.8526 151.554C26.6907 150.588 28.3058 146.36 31.1507 139.383C31.7366 137.947 32.1992 136.807 32.3225 136.445C32.3803 136.276 32.4806 135.983 32.6193 135.59C33.5946 132.822 36.5705 124.389 36.5705 120.697C36.5705 116.392 42.0675 105.36 42.3026 104.891L42.5493 104.402L42.9271 104.798C45.2554 107.232 48.239 109.788 48.9868 109.658C50.1278 109.469 51.4231 110.274 52.3713 110.863C52.7106 111.074 53.0344 111.275 53.204 111.332C53.2233 111.34 55.2624 111.983 56.2763 109.199C56.7658 107.856 57.8413 106.874 58.647 106.596C59.0479 106.462 59.3986 106.465 59.6569 106.469C60.0231 106.477 60.027 106.465 60.0732 106.342C60.1812 106.069 60.0385 105.079 58.62 104.471C58.061 104.232 57.4173 103.824 56.7388 103.397C55.4128 102.557 53.9094 101.61 52.9496 101.883C52.036 102.145 51.1995 101.629 50.3938 101.129C49.3954 100.513 48.744 100.174 48.0887 100.64C46.9862 101.425 46.3309 100.99 46.0996 100.767C45.5406 100.228 45.5252 99.2266 45.8837 98.6914C46.3501 97.9906 53.1654 87.6637 53.2348 87.5598L53.362 87.3672L53.5895 87.3865C53.6434 87.3903 54.9618 87.4712 56.1529 86.266C57.6717 84.7258 58.2808 81.7456 57.9184 77.641L57.1243 73.933L57.5483 73.8868C57.6216 73.8791 59.3832 73.6558 59.5798 72.0886C59.8381 70.0402 60.2583 58.9008 59.6184 57.6225C58.9631 56.3133 60.929 52.744 61.9274 51.3116C63.107 49.6212 63.6544 49.5789 63.8818 49.602C66.6688 49.4018 69.8837 48.9821 70.3964 48.6355C70.4696 48.0811 69.9724 45.3665 69.4288 42.9677L69.3749 42.7251L71.7726 40.9269C71.8651 40.8576 71.8805 40.7691 71.8805 40.719C71.8844 40.6728 71.8728 40.5804 71.7918 40.5072C70.6277 39.4676 68.5962 37.5924 68.0527 36.6876C67.9178 36.4642 67.7867 36.0908 67.6017 35.5748C66.6996 33.0373 64.8262 27.7545 58.5429 27.7545C50.7947 27.7545 49.0292 31.3085 47.8844 34.9472C47.8766 34.9857 46.3617 42.1206 46.3617 44.1883C46.3617 46.0942 45.9531 52.0509 44.1452 54.3727C43.3935 55.3353 41.9904 57.842 40.6296 60.2678C38.9296 63.2981 37.326 66.1628 36.5243 66.9637C36.266 67.2217 35.5837 67.8069 34.5467 68.6964C30.6303 72.0617 18.7035 82.2962 19.7674 84.7759C21.1397 87.9795 26.9682 93.3547 27.026 93.4086L27.3575 93.7128L27.0029 93.9939C26.9181 94.0593 18.5879 100.636 16.8301 102.265C13.7115 105.156 11.3871 116.111 11.2599 116.719L10.3116 131.852C10.2962 132.063 8.65403 152.478 8.65403 155.039C8.65403 157.461 7.27016 172.786 6.25634 175.315C5.39287 177.472 1.42628 202.257 0.886604 205.645L9.87986 207.062L8.93929 215.526H18.557V214.579L21.398 216.007Z" fill="black"/>
<path d="M78.9619 0.485352H78.1909V216.446H78.9619V0.485352Z" fill="black"/>
<path d="M81.5483 0.373047H80.7773V216.333H81.5483V0.373047Z" fill="black"/>
<path d="M81.7757 32.8213H78.6919V43.2445H81.7757V32.8213Z" fill="black"/>
<path d="M69.7795 35.9902H68.2607V36.7603H69.7795V35.9902Z" fill="black"/>
<path d="M75.9394 35.9902H72.2427V36.7603H75.9394V35.9902Z" fill="black"/>
<path d="M78.6919 35.9902H77.1731V36.7603H78.6919V35.9902Z" fill="black"/>
<path d="M222.367 -0.00364396L220.896 0.373047L221.087 1.11903L222.558 0.742343L222.367 -0.00364396Z" fill="black"/>
<path d="M88.7374 34.9936L88.5447 34.2466L93.0085 33.103L93.2013 33.85L88.7374 34.9936ZM97.6651 32.7064L97.4724 31.9594L101.936 30.8158L102.129 31.5628L97.6651 32.7064ZM106.589 30.4231L106.396 29.6761L110.86 28.5325L111.053 29.2795L106.589 30.4231ZM115.513 28.1398L115.32 27.3928L119.784 26.2492L119.977 26.9962L115.513 28.1398ZM124.441 25.8565L124.248 25.1095L128.712 23.9659L128.904 24.7129L124.441 25.8565ZM133.364 23.5731L133.172 22.8262L137.636 21.6826L137.828 22.4296L133.364 23.5731ZM142.288 21.286L142.096 20.539L146.559 19.3954L146.752 20.1424L142.288 21.286ZM151.216 19.0027L151.023 18.2557L155.487 17.1121L155.68 17.8591L151.216 19.0027ZM160.14 16.7193L159.947 15.9723L164.411 14.8288L164.604 15.5758L160.14 16.7193ZM169.068 14.436L168.875 13.689L173.339 12.5454L173.532 13.2924L169.068 14.436ZM177.992 12.1527L177.799 11.4057L182.263 10.2621L182.455 11.0091L177.992 12.1527ZM186.915 9.86553L186.723 9.11854L191.187 7.97496L191.379 8.72194L186.915 9.86553ZM195.843 7.58221L195.65 6.83522L200.114 5.69164L200.307 6.43863L195.843 7.58221ZM204.767 5.29889L204.574 4.5519L209.038 3.40832L209.231 4.15531L204.767 5.29889ZM213.691 3.01557L213.498 2.26858L217.962 1.125L218.155 1.87199L213.691 3.01557Z" fill="black"/>
<path d="M82.7317 37.6157L80.9238 36.1987L83.1519 35.625L83.3446 36.372L82.6277 36.5568L83.2097 37.0112L82.7317 37.6157Z" fill="black"/>
<path d="M307.544 213.97L303.897 211.109L304.375 210.504L308.022 213.365L307.544 213.97ZM300.25 208.252L296.604 205.391L297.082 204.786L300.728 207.647L300.25 208.252ZM292.961 202.53L289.314 199.669L289.792 199.065L293.439 201.926L292.961 202.53ZM285.668 196.808L282.021 193.947L282.499 193.343L286.146 196.204L285.668 196.808ZM278.374 191.087L274.728 188.226L275.206 187.621L278.852 190.482L278.374 191.087ZM271.081 185.369L267.435 182.508L267.913 181.903L271.559 184.764L271.081 185.369ZM263.792 179.647L260.145 176.786L260.623 176.181L264.27 179.042L263.792 179.647ZM256.498 173.925L252.852 171.064L253.33 170.46L256.976 173.321L256.498 173.925ZM249.205 168.207L245.559 165.346L246.036 164.742L249.683 167.603L249.205 168.207ZM241.912 162.485L238.265 159.624L238.743 159.02L242.39 161.881L241.912 162.485ZM234.622 156.764L230.976 153.903L231.454 153.298L235.1 156.159L234.622 156.764ZM227.329 151.046L223.682 148.185L224.16 147.58L227.807 150.441L227.329 151.046ZM220.036 145.324L216.389 142.463L216.867 141.858L220.514 144.719L220.036 145.324ZM212.743 139.602L209.096 136.741L209.574 136.137L213.221 138.998L212.743 139.602ZM205.449 133.884L201.803 131.023L202.281 130.419L205.927 133.28L205.449 133.884ZM198.16 128.162L194.513 125.302L194.991 124.697L198.638 127.558L198.16 128.162ZM190.867 122.441L187.22 119.58L187.698 118.975L191.345 121.836L190.867 122.441ZM183.573 116.723L179.927 113.862L180.405 113.257L184.051 116.118L183.573 116.723ZM176.28 111.001L172.633 108.14L173.111 107.536L176.758 110.396L176.28 111.001ZM168.991 105.279L165.344 102.418L165.822 101.814L169.469 104.675L168.991 105.279ZM161.697 99.5612L158.051 96.7004L158.529 96.0958L162.175 98.9567L161.697 99.5612ZM154.404 93.8395L150.757 90.9786L151.235 90.3741L154.882 93.2349L154.404 93.8395ZM147.111 88.1177L143.464 85.2568L143.942 84.6523L147.589 87.5132L147.111 88.1177ZM139.821 82.3998L136.175 79.5389L136.653 78.9344L140.299 81.7952L139.821 82.3998ZM132.528 76.678L128.881 73.8171L129.359 73.2126L133.006 76.0735L132.528 76.678ZM125.235 70.9562L121.588 68.0953L122.066 67.4908L125.713 70.3517L125.235 70.9562ZM117.941 65.2383L114.295 62.3774L114.773 61.7729L118.419 64.6338L117.941 65.2383ZM110.652 59.5165L107.005 56.6556L107.483 56.0511L111.13 58.912L110.652 59.5165ZM103.359 53.7948L99.7121 50.9339L100.19 50.3293L103.837 53.1902L103.359 53.7948ZM96.0654 48.0768L92.4188 45.2159L92.8968 44.6114L96.5434 47.4723L96.0654 48.0768ZM88.7721 42.3551L85.1255 39.4942L85.6035 38.8896L89.2501 41.7505L88.7721 42.3551Z" fill="black"/>
<path d="M310.691 215.457L310.215 216.062L311.41 216.999L311.886 216.394L310.691 215.457Z" fill="black"/>
<path d="M22.0842 155.658L21.957 154.9C21.9686 154.896 23.3024 154.669 24.162 154.026C25.0563 153.356 26.9297 150.895 26.949 150.868L27.5619 151.334C27.481 151.438 25.6037 153.906 24.6246 154.642C23.6107 155.4 22.1459 155.65 22.0842 155.658Z" fill="black"/>
<path d="M42.9425 105.907C42.079 104.767 40.6489 102.9 40.4832 102.73L41.0267 102.188C41.2695 102.43 43.1777 104.941 43.5554 105.441L42.9425 105.907Z" fill="black"/>
<path d="M17.4507 203.234L17.1077 202.545C17.2079 202.495 19.54 201.336 21.4559 200.859C23.2676 200.404 25.1218 199.261 25.1411 199.249L25.5497 199.904C25.4687 199.954 23.5799 201.124 21.6448 201.609C19.806 202.064 17.4739 203.223 17.4507 203.234Z" fill="black"/>
<path d="M64.1439 50.3057C62.9219 50.3057 60.9097 50.1864 60.1619 49.4394L60.7054 48.8965C61.3067 49.4972 63.689 49.5934 65.0498 49.5126L65.096 50.2826C64.9842 50.2865 64.6257 50.3057 64.1439 50.3057Z" fill="black"/>
<path d="M44.4343 57.0866L44.0835 56.4012C44.0989 56.3935 45.795 55.5079 46.4079 54.3027C47.7301 51.6882 48.7864 50.2828 49.6344 50.0017C50.4092 49.7476 51.1802 47.6915 51.0954 46.829L51.8625 46.752C51.9666 47.8147 51.1147 50.3252 49.8734 50.7333C49.5843 50.8296 48.7401 51.3994 47.0941 54.6492C46.3694 56.0816 44.5114 57.0442 44.4343 57.0866Z" fill="black"/>
<path d="M48.663 47.4987C48.528 47.4987 48.4047 47.441 48.3237 47.3409L48.9251 46.8596C48.8017 46.7055 48.6128 46.7094 48.5435 46.7556C48.5704 46.7402 48.8094 46.5592 49.4069 45.3848C49.8772 44.4607 49.9235 43.7099 49.9697 42.9821C50.0083 42.3584 50.0468 41.7731 50.3552 41.1955C50.9874 40.0135 51.8085 39.3512 51.8432 39.3242L52.325 39.9249C52.3173 39.9287 51.5887 40.5217 51.0337 41.5575C50.8024 41.9887 50.7715 42.47 50.7368 43.0284C50.6906 43.7599 50.6328 44.6686 50.0931 45.7314C49.2913 47.3101 48.9559 47.4718 48.7092 47.4949C48.6976 47.4987 48.6784 47.4987 48.663 47.4987Z" fill="black"/>
<path d="M57.8451 77.3059C57.7795 76.9016 56.253 67.3871 56.4959 65.4619C56.7233 63.6483 57.9761 59.8248 58.1534 59.2857C58.192 57.5299 59.7802 55.4391 59.8457 55.3506L60.4586 55.8165C60.4432 55.8357 58.9244 57.8418 58.9244 59.3512V59.4128L58.9051 59.4706C58.8897 59.5129 57.4904 63.7215 57.263 65.5543C57.0818 67.0098 58.0648 73.7943 58.6083 77.1827L57.8451 77.3059Z" fill="black"/>
<path d="M51.7699 60.1825C51.7275 60.0593 50.7831 57.1791 51.5425 55.4079L52.2518 55.7121C52.0629 56.1511 52.005 56.694 52.0166 57.2407C52.3982 55.8931 53.1307 54.634 54.1599 53.5867C55.3125 52.4123 56.97 50.8374 58.3385 50.0173C60.8403 48.5156 60.0539 45.5354 59.599 44.3225C58.8358 42.2933 59.811 40.3103 59.8534 40.2256L60.5434 40.5683C60.5357 40.5875 59.68 42.3433 60.3237 44.0529C60.848 45.4468 61.7384 48.8776 58.7394 50.6757C57.4442 51.4535 55.8367 52.9783 54.715 54.1219C53.3696 55.4965 52.5833 57.2561 52.4946 59.0813C52.4792 59.4201 52.4869 59.732 52.5216 60.0054L51.7699 60.1825Z" fill="black"/>
<path d="M41.7438 63.6478C41.5048 63.6478 41.3544 63.5901 41.312 63.5708L41.6088 62.8585C41.6165 62.8623 42.4222 63.1087 43.7058 61.4222C45.1475 59.524 45.533 59.3353 46.9554 58.6345L47.4065 58.4112C49.064 57.5795 49.8003 56.5399 49.808 56.5283L50.444 56.9634C50.4093 57.0135 49.6037 58.1725 47.7534 59.1004L47.2985 59.3238C45.9378 59.9937 45.6564 60.1362 44.3226 61.8882C43.1816 63.3783 42.2564 63.6478 41.7438 63.6478Z" fill="black"/>
<path d="M11.8882 194.494C7.30096 189.192 9.34786 181.218 9.43652 180.879L10.1805 181.075C10.1612 181.152 8.15287 188.996 12.4702 193.99L11.8882 194.494Z" fill="black"/>
<path d="M73.0908 31.1922C72.4085 21.8895 65.3812 20.0066 65.0806 19.9296L65.2695 19.1826C65.3465 19.2019 73.1371 21.258 73.8618 31.1344L73.0908 31.1922Z" fill="black"/>
<path d="M158.005 170.402L153.483 167.818L147.57 143.349L151.606 134.805L151.949 134.955C151.976 134.966 154.632 136.137 155.896 136.522C156.648 136.749 158.213 137.666 159.724 138.551C160.915 139.248 162.145 139.968 162.738 140.203C163.193 140.384 163.702 140.557 164.191 140.723C165.205 141.069 166.161 141.393 166.705 141.786C167.41 142.29 171.89 143.953 173.32 144.396C174.734 144.835 181.804 147.985 182.105 148.12L182.444 148.27L179.85 154.804L179.757 154.869L158.005 170.402ZM154.157 167.318L157.962 169.49L179.221 154.311L181.461 148.674C180.008 148.027 174.299 145.505 173.1 145.135C171.843 144.747 167.11 143.022 166.265 142.417C165.811 142.09 164.866 141.77 163.952 141.454C163.451 141.285 162.935 141.108 162.461 140.919C161.809 140.661 160.61 139.96 159.338 139.213C157.935 138.393 156.343 137.458 155.68 137.257C154.635 136.942 152.762 136.145 151.987 135.81L148.387 143.43L154.157 167.318Z" fill="black"/>
<path d="M165.598 170.502L157.353 170.252L179.221 154.311L181.646 148.208L188.153 144.165L185.158 153.102L165.598 170.502ZM159.623 169.551L165.317 169.724L184.491 152.667L186.742 145.952L182.27 148.732L179.857 154.804L159.623 169.551Z" fill="black"/>
<path d="M188.037 145.085C187.937 145.077 185.597 144.869 184.329 144.238C183.13 143.645 181.033 142.813 179.233 142.22C178.215 141.885 177.595 141.419 176.997 140.973C176.461 140.572 175.956 140.195 175.154 139.875C174.703 139.698 174.241 139.521 173.778 139.344C172.375 138.813 171.053 138.308 170.294 137.819C169.646 137.399 167.842 136.756 166.524 136.291C165.949 136.086 165.452 135.909 165.109 135.775C164.874 135.682 164.604 135.586 164.311 135.478C163.108 135.047 161.609 134.508 160.791 133.661C160.121 132.968 157.858 132.332 156.848 132.101L152.026 135.617L151.571 134.993L156.675 131.27L156.844 131.304C157.199 131.381 160.348 132.082 161.347 133.122C162.037 133.838 163.444 134.342 164.569 134.746C164.87 134.854 165.151 134.954 165.39 135.051C165.718 135.182 166.211 135.355 166.778 135.559C168.208 136.067 169.985 136.699 170.71 137.168C171.4 137.615 172.684 138.104 174.048 138.62C174.511 138.797 174.981 138.974 175.436 139.155C176.334 139.509 176.905 139.937 177.456 140.349C178.03 140.78 178.574 141.184 179.472 141.481C181.307 142.085 183.442 142.933 184.672 143.541C185.813 144.107 188.08 144.307 188.103 144.311L188.037 145.085Z" fill="black"/>
<path d="M155.478 134.83L155.241 135.562L174.552 141.8L174.789 141.068L155.478 134.83Z" fill="black"/>
<path d="M174.831 148.964L172.412 155.056L173.129 155.34L175.548 149.247L174.831 148.964Z" fill="black"/>
<path d="M118.894 212.595L117.275 207.197L105.864 209.973L112.001 203.331L103.189 200.132L112.414 196.689L105.032 192.989L115.702 190.263L112.452 183.806L123.797 186.501L125.651 179.343L130.817 182.497L138.183 174.168L139.486 183.243L147.797 178.107L144.729 183.917L158.695 182.088L146.856 188.407L150.391 190.941L145.685 193.324L154.292 198.068L142.161 197.648L144.308 202.677L135.932 201.306L135.242 205.719L130.223 204.178L127.791 208.01L124.186 206.065L118.894 212.595ZM117.803 206.277L119.214 210.978L123.99 205.083L127.525 206.989L129.888 203.27L134.617 204.721L135.292 200.42L143.052 201.691L140.978 196.836L151.101 197.186L144.039 193.293L148.911 190.825L145.403 188.311L154.601 183.401L143.356 184.876L145.8 180.252L138.896 184.518L137.663 175.928L130.971 183.494L126.141 180.548L124.356 187.429L113.89 184.942L116.828 190.775L107.229 193.228L114.349 196.797L105.429 200.128L113.366 203.008L108.173 208.626L117.803 206.277Z" fill="black"/>
<path d="M217.203 204.825C215.796 204.825 214.651 203.681 214.651 202.276C214.651 200.87 215.796 199.727 217.203 199.727C218.61 199.727 219.755 200.87 219.755 202.276C219.755 203.681 218.61 204.825 217.203 204.825ZM217.203 200.497C216.22 200.497 215.422 201.294 215.422 202.276C215.422 203.257 216.22 204.054 217.203 204.054C218.186 204.054 218.984 203.257 218.984 202.276C218.984 201.294 218.186 200.497 217.203 200.497Z" fill="black"/>
<path d="M228.463 197.254C227.056 197.254 225.911 196.111 225.911 194.705C225.911 193.3 227.056 192.156 228.463 192.156C229.87 192.156 231.014 193.3 231.014 194.705C231.014 196.111 229.87 197.254 228.463 197.254ZM228.463 192.926C227.48 192.926 226.682 193.723 226.682 194.705C226.682 195.687 227.48 196.484 228.463 196.484C229.445 196.484 230.243 195.687 230.243 194.705C230.243 193.723 229.445 192.926 228.463 192.926Z" fill="black"/>
<path d="M228.031 186.655C226.624 186.655 225.479 185.511 225.479 184.106C225.479 182.7 226.624 181.557 228.031 181.557C229.438 181.557 230.583 182.7 230.583 184.106C230.583 185.511 229.438 186.655 228.031 186.655ZM228.031 182.327C227.048 182.327 226.25 183.124 226.25 184.106C226.25 185.088 227.048 185.885 228.031 185.885C229.014 185.885 229.812 185.088 229.812 184.106C229.812 183.124 229.01 182.327 228.031 182.327Z" fill="black"/>
<path d="M217.203 183.193C215.796 183.193 214.651 182.049 214.651 180.644C214.651 179.238 215.796 178.095 217.203 178.095C218.61 178.095 219.755 179.238 219.755 180.644C219.755 182.049 218.61 183.193 217.203 183.193ZM217.203 178.869C216.22 178.869 215.422 179.666 215.422 180.648C215.422 181.629 216.22 182.426 217.203 182.426C218.186 182.426 218.984 181.629 218.984 180.648C218.984 179.666 218.186 178.869 217.203 178.869Z" fill="black"/>
<path d="M217.203 194.008C215.796 194.008 214.651 192.865 214.651 191.459C214.651 190.054 215.796 188.91 217.203 188.91C218.61 188.91 219.755 190.054 219.755 191.459C219.755 192.865 218.61 194.008 217.203 194.008ZM217.203 189.68C216.22 189.68 215.422 190.477 215.422 191.459C215.422 192.441 216.22 193.238 217.203 193.238C218.186 193.238 218.984 192.441 218.984 191.459C218.984 190.477 218.186 189.68 217.203 189.68Z" fill="black"/>
<path d="M206.59 197.254C205.183 197.254 204.039 196.111 204.039 194.705C204.039 193.3 205.183 192.156 206.59 192.156C207.997 192.156 209.142 193.3 209.142 194.705C209.142 196.111 207.997 197.254 206.59 197.254ZM206.59 192.926C205.607 192.926 204.81 193.723 204.81 194.705C204.81 195.687 205.607 196.484 206.59 196.484C207.573 196.484 208.371 195.687 208.371 194.705C208.371 193.723 207.573 192.926 206.59 192.926Z" fill="black"/>
<path d="M206.59 186.655C205.183 186.655 204.039 185.511 204.039 184.106C204.039 182.7 205.183 181.557 206.59 181.557C207.997 181.557 209.142 182.7 209.142 184.106C209.142 185.511 207.997 186.655 206.59 186.655ZM206.59 182.327C205.607 182.327 204.81 183.124 204.81 184.106C204.81 185.088 205.607 185.885 206.59 185.885C207.573 185.885 208.371 185.088 208.371 184.106C208.371 183.124 207.573 182.327 206.59 182.327Z" fill="black"/>
<path d="M214.911 180.273L208.193 182.437L208.43 183.169L215.147 181.006L214.911 180.273Z" fill="black"/>
<path d="M219.486 180.272L219.243 181.003L225.738 183.165L225.981 182.435L219.486 180.272Z" fill="black"/>
<path d="M228.408 186.237L227.638 186.29L228.072 192.563L228.841 192.51L228.408 186.237Z" fill="black"/>
<path d="M206.976 186.27H206.205V192.542H206.976V186.27Z" fill="black"/>
<path d="M207.947 196.193L207.545 196.851L214.83 201.297L215.232 200.64L207.947 196.193Z" fill="black"/>
<path d="M226.07 195.394L218.741 200.719L219.195 201.342L226.524 196.017L226.07 195.394Z" fill="black"/>
<path d="M214.877 191.118L208.599 193.93L208.914 194.632L215.193 191.821L214.877 191.118Z" fill="black"/>
<path d="M225.646 184.875L218.752 189.9L219.207 190.522L226.101 185.497L225.646 184.875Z" fill="black"/>
<path d="M208.522 185.075L208.108 185.726L215.691 190.534L216.104 189.884L208.522 185.075Z" fill="black"/>
<path d="M217.588 193.624H216.817V200.112H217.588V193.624Z" fill="black"/>
<path d="M219.492 191.091L219.262 191.826L226.19 193.989L226.42 193.254L219.492 191.091Z" fill="black"/>
<path d="M217.498 182.557L216.908 183.053L226.002 193.867L226.593 193.372L217.498 182.557Z" fill="black"/>
<path d="M132.636 109.053C132.493 109.053 132.355 108.972 132.289 108.834C132.197 108.641 132.278 108.414 132.47 108.322C132.482 108.318 133.631 107.759 134.617 106.708C135.901 105.341 136.325 103.809 135.878 102.153C134.791 98.1256 130.385 97.8946 130.339 97.8908C130.127 97.8831 129.961 97.7021 129.969 97.4903C129.976 97.2785 130.157 97.1091 130.369 97.1207C130.42 97.1245 135.385 97.3864 136.618 101.949C137.859 106.55 132.844 108.992 132.794 109.015C132.748 109.042 132.69 109.053 132.636 109.053Z" fill="black"/>
<path d="M131.082 99.6575C130.913 99.6575 130.759 99.5458 130.712 99.3725C130.674 99.2378 129.776 96.0997 126.761 96.9083C126.557 96.9622 126.345 96.8428 126.287 96.6349C126.233 96.4308 126.353 96.219 126.561 96.1613C128.531 95.6299 129.764 96.4886 130.454 97.3049C131.179 98.1597 131.445 99.1261 131.456 99.1685C131.51 99.3725 131.391 99.5843 131.187 99.6382C131.148 99.6536 131.113 99.6575 131.082 99.6575Z" fill="black"/>
<path d="M132.709 112.957C132.567 112.957 132.428 112.876 132.362 112.741C132.27 112.549 132.351 112.318 132.54 112.225C133.954 111.54 134.802 110.689 135.053 109.695C135.381 108.413 134.602 107.308 134.594 107.297C134.471 107.123 134.509 106.885 134.683 106.758C134.856 106.634 135.095 106.673 135.223 106.846C135.265 106.904 136.217 108.255 135.805 109.884C135.492 111.109 134.509 112.129 132.879 112.918C132.821 112.945 132.763 112.957 132.709 112.957Z" fill="black"/>
<path d="M130.662 118.902C129.934 118.902 129.12 118.783 128.226 118.54C128.022 118.487 127.898 118.275 127.952 118.067C128.006 117.863 128.218 117.74 128.427 117.794C130.589 118.375 132.166 118.198 133.114 117.274C134.933 115.502 133.993 111.517 133.981 111.479C133.931 111.271 134.058 111.063 134.267 111.013C134.475 110.963 134.683 111.09 134.733 111.298C134.775 111.479 135.785 115.753 133.654 117.824C132.917 118.544 131.915 118.902 130.662 118.902Z" fill="black"/>
<path d="M124.314 126.669C121.276 126.669 117.76 124.898 117.568 124.802C117.379 124.705 117.302 124.474 117.398 124.282C117.494 124.093 117.726 124.016 117.915 124.112C117.972 124.143 123.739 127.043 126.48 125.398C129.225 123.75 129.329 118.822 129.329 118.772C129.333 118.56 129.498 118.402 129.718 118.391C129.93 118.394 130.1 118.568 130.1 118.78C130.096 118.999 129.984 124.189 126.877 126.053C126.145 126.5 125.254 126.669 124.314 126.669Z" fill="black"/>
<path d="M114.091 126.808C112.984 126.808 111.766 126.449 110.444 125.729C110.255 125.629 110.186 125.394 110.29 125.206C110.39 125.017 110.625 124.952 110.814 125.052C112.657 126.053 114.245 126.288 115.532 125.76C117.348 125.013 117.976 122.976 117.98 122.953C118.042 122.749 118.258 122.634 118.458 122.695C118.662 122.757 118.778 122.973 118.716 123.173C118.686 123.269 117.972 125.583 115.822 126.469C115.282 126.696 114.704 126.808 114.091 126.808Z" fill="black"/>
<path d="M107.642 126.426C107.264 126.426 106.898 126.372 106.539 126.264C103.502 125.355 102.388 120.931 102.341 120.742C102.291 120.535 102.418 120.327 102.623 120.277C102.831 120.226 103.039 120.354 103.089 120.558C103.101 120.6 104.145 124.743 106.763 125.525C108.224 125.96 109.951 125.271 111.886 123.469C112.04 123.322 112.287 123.334 112.429 123.488C112.576 123.642 112.564 123.888 112.41 124.031C110.702 125.625 109.103 126.426 107.642 126.426Z" fill="black"/>
<path d="M115.694 98.1599C115.613 98.1599 115.532 98.1368 115.463 98.0828C115.293 97.9558 115.259 97.7132 115.386 97.5438C115.494 97.4013 118.061 94.0129 121.145 93.9552C124.059 93.9013 125.813 94.9139 127.02 97.3436C127.116 97.5322 127.035 97.7633 126.846 97.8595C126.657 97.9558 126.426 97.8749 126.33 97.6863C125.246 95.5069 123.793 94.679 121.16 94.7253C118.446 94.7753 116.026 97.9712 116.003 98.0058C115.929 98.1098 115.814 98.1599 115.694 98.1599Z" fill="black"/>
<path d="M106.774 104.243C106.632 104.243 106.493 104.162 106.427 104.024C106.377 103.916 105.225 101.378 108.185 97.2816C111.192 93.1193 117.41 95.6991 117.475 95.726C117.672 95.8107 117.76 96.0341 117.679 96.2304C117.599 96.4268 117.371 96.5192 117.174 96.4345C117.117 96.4114 111.458 94.0703 108.813 97.7321C106.146 101.429 107.117 103.673 107.129 103.696C107.218 103.889 107.133 104.116 106.94 104.205C106.886 104.232 106.828 104.243 106.774 104.243Z" fill="black"/>
<path d="M99.0568 112.949C98.8872 112.949 98.733 112.838 98.6867 112.664C98.6019 112.349 96.6244 104.871 99.4615 102.052C102.314 99.2185 106.658 100.793 106.843 100.863C107.044 100.936 107.144 101.159 107.071 101.359C106.998 101.56 106.774 101.66 106.574 101.587C106.535 101.571 102.503 100.116 100.005 102.599C97.484 105.102 99.4114 112.391 99.4307 112.464C99.4847 112.668 99.3652 112.88 99.157 112.938C99.1223 112.942 99.0915 112.949 99.0568 112.949Z" fill="black"/>
<path d="M104.454 124.743C104.434 124.743 104.411 124.743 104.392 124.74C104.172 124.705 99.0068 123.819 97.4263 118.914C95.8265 113.947 99.9974 111.213 100.04 111.186C100.221 111.071 100.456 111.124 100.572 111.302C100.687 111.479 100.633 111.717 100.456 111.833C100.306 111.929 96.7478 114.286 98.1625 118.675C99.5965 123.126 104.469 123.97 104.519 123.977C104.727 124.012 104.87 124.208 104.839 124.42C104.801 124.609 104.639 124.743 104.454 124.743Z" fill="black"/>
<path d="M12.9735 65.7606L12.6023 66.4355L31.0954 76.5843L31.4666 75.9094L12.9735 65.7606Z" fill="black"/>
<path d="M141.706 117.782C136.749 109.961 144.532 104.909 144.609 104.859L145.021 105.51C145.002 105.522 143.167 106.704 141.934 108.756C140.307 111.467 140.45 114.366 142.354 117.37L141.706 117.782Z" fill="black"/>
<path d="M237.51 196.989C234.866 196.989 232.734 195.923 232.691 195.899L233.046 195.214C233.065 195.226 235.012 196.211 237.41 196.234C240.571 196.25 243.007 194.683 244.637 191.521L245.324 191.876C243.219 195.957 240.116 196.989 237.51 196.989Z" fill="black"/>
<path d="M60.316 15.2476H59.0247V14.593C59.2328 14.5892 59.414 14.5738 59.5759 14.5584C59.7339 14.5391 59.8766 14.5083 59.9999 14.4583C60.1233 14.4121 60.2274 14.3389 60.3199 14.2465C60.4085 14.1541 60.4933 14.027 60.5666 13.8691H61.2682V19.6448H60.3199V15.2476H60.316Z" fill="black"/>
<path d="M271.694 145.509C273.918 146.733 275.402 146.483 281.848 145.509C288.289 144.535 289.658 147.85 294.931 151.358C300.204 154.869 315.431 151.747 310.747 140.241C306.06 128.736 296.103 109.819 284.974 120.35C273.845 130.881 268.182 122.298 264.278 131.855C262.277 136.745 268.287 143.634 271.694 145.509Z" fill="#B7B7B7"/>
<path d="M300.493 153.121C298.219 153.121 296.114 152.613 294.711 151.681C293.316 150.753 292.186 149.833 291.184 149.016C288.358 146.714 286.489 145.193 281.902 145.89L281.62 145.932C275.31 146.887 273.81 147.114 271.505 145.847C267.758 143.783 261.888 136.676 263.915 131.712C265.947 126.745 268.537 126.456 271.821 126.094C275.11 125.729 279.207 125.274 284.704 120.072C287.483 117.442 290.398 116.434 293.362 117.073C301.334 118.794 307.895 132.24 311.098 140.099C312.794 144.261 312.081 147.896 309.09 150.333C306.738 152.251 303.473 153.121 300.493 153.121ZM283.979 144.95C287.41 144.95 289.261 146.456 291.674 148.419C292.66 149.22 293.774 150.129 295.139 151.038C298.096 153.009 304.761 152.867 308.604 149.732C310.516 148.173 312.378 145.285 310.385 140.387C307.239 132.667 300.829 119.472 293.2 117.824C290.498 117.238 287.819 118.186 285.232 120.631C279.546 126.01 275.31 126.48 271.906 126.857C268.641 127.219 266.486 127.458 264.628 132.001C262.724 136.664 268.726 143.437 271.875 145.17C273.953 146.313 275.402 146.094 281.501 145.17L281.782 145.127C282.588 145.008 283.316 144.95 283.979 144.95Z" fill="black"/>
<path d="M269.331 126.468L269.33 127.238L286.04 127.268L286.042 126.498L269.331 126.468Z" fill="black"/>
<path d="M280.462 130.411L280.292 131.162L290.638 133.502L290.808 132.751L280.462 130.411Z" fill="black"/>
<path d="M251.877 112.522C251.877 112.522 243.94 113.107 241.523 104.859L251.877 112.522Z" fill="#B7B7B7"/>
<path d="M251.595 112.911C250.069 112.911 243.354 112.472 241.156 104.968L241.897 104.752C242.864 108.052 244.834 110.297 247.748 111.425C249.93 112.268 251.83 112.137 251.85 112.137L251.908 112.903C251.896 112.907 251.788 112.911 251.595 112.911Z" fill="black"/>
<path d="M255.45 86.5426C254.918 81.7488 247.243 75.796 236.928 81.0557C226.612 86.3154 220.337 112.006 241.43 113.631C262.524 115.259 263.861 127.515 273.298 124.323C282.738 121.131 274.208 108.097 280.329 102.337C286.45 96.5769 279.705 90.9668 266.564 90.2699C260.13 89.931 255.774 89.4536 255.45 86.5426Z" fill="#B7B7B7"/>
<path d="M270.318 125.244C267.45 125.244 265.218 123.684 262.4 121.717C258.268 118.833 252.613 114.878 241.399 114.016C233.655 113.419 228.663 109.457 227.341 102.861C225.722 94.7674 230.294 84.0053 236.75 80.7132C243.573 77.2363 248.538 78.838 250.89 80.1048C253.627 81.5757 255.566 84.0901 255.836 86.5043C256.128 89.1342 260.477 89.5654 266.587 89.8927C275.198 90.3509 281.385 92.9114 282.73 96.5809C283.232 97.9478 283.27 100.108 280.595 102.622C277.974 105.09 278.182 109.087 278.382 112.949C278.637 117.812 278.895 122.841 273.425 124.689C272.288 125.074 271.27 125.244 270.318 125.244ZM244.772 79.381C242.629 79.381 240.054 79.8931 237.101 81.3986C230.914 84.5521 226.539 94.9098 228.1 102.711C229.345 108.937 234.091 112.68 241.461 113.25C252.883 114.131 258.642 118.151 262.844 121.089C266.54 123.673 268.984 125.378 273.174 123.962C278.093 122.298 277.858 117.778 277.607 112.992C277.399 108.952 277.18 104.775 280.063 102.064C281.936 100.3 282.607 98.4985 282.002 96.8466C280.784 93.5237 274.713 91.094 266.54 90.6628C260.049 90.3162 255.423 89.8234 255.065 86.5929C254.826 84.4212 253.041 82.1417 250.52 80.7864C249.309 80.1279 247.359 79.381 244.772 79.381Z" fill="black"/>
<path d="M171.651 40.7343L173.285 45.4665C173.285 45.4665 180.964 49.7097 181.126 50.526C181.288 51.3423 183.577 55.7472 183.577 55.7472L195.176 60.3177L199.097 59.3397L211.351 54.7692L220.337 47.2608L222.788 43.3449L221.32 38.7744C221.32 38.7744 213.479 33.715 213.313 33.3877C213.151 33.0604 211.189 28.6555 211.189 28.6555L200.08 24.2505C200.08 24.2505 195.832 23.7615 195.342 24.2505C194.853 24.7395 183.577 29.31 182.436 30.6153C181.291 31.9206 174.596 36.6529 174.596 36.6529L171.651 40.7343Z" fill="#B7B7B7"/>
<path d="M195.149 60.7217L183.3 56.055L183.234 55.9279C182.999 55.4774 180.96 51.5346 180.756 50.6335C180.424 50.0791 176.619 47.7534 173.1 45.8089L172.969 45.7358L171.223 40.6763L174.318 36.383L174.372 36.3445C174.438 36.2983 181.045 31.6239 182.147 30.3686C182.868 29.5485 186.719 27.7888 191.298 25.7404C193.049 24.9587 194.86 24.1501 195.084 23.973C195.612 23.4416 198.472 23.6842 200.126 23.8729L200.222 23.896L211.478 28.3587L211.544 28.5011C212.195 29.9643 213.433 32.7366 213.641 33.1756C214.123 33.6222 218.702 36.6256 221.532 38.4507L221.647 38.5239L223.216 43.3947L220.591 47.5532L211.555 55.1039L199.201 59.7091L195.149 60.7217ZM183.855 55.4428L195.203 59.9131L198.985 58.9698L211.155 54.4301L220.044 47.0064L222.368 43.2946L220.996 39.0283C213.178 33.9842 213.028 33.68 212.97 33.5645C212.82 33.2642 211.247 29.7333 210.904 28.9593L199.987 24.6314C198.129 24.4197 195.936 24.335 195.6 24.5429C195.408 24.7393 194.409 25.1936 191.615 26.445C188.342 27.9043 183.396 30.1145 182.729 30.8769C181.611 32.1552 175.552 36.46 174.873 36.9375L172.086 40.8033L173.605 45.2083C177.151 47.172 181.345 49.6478 181.507 50.4564C181.615 50.9955 182.976 53.7447 183.855 55.4428Z" fill="black"/>
<path d="M278.377 84.5048L265.542 92.8379L265.962 93.4836L278.797 85.1505L278.377 84.5048Z" fill="black"/>
<path d="M184.045 45.4531L183.553 46.0459L193.933 54.6431L194.425 54.0503L184.045 45.4531Z" fill="black"/>
<path d="M198.141 38.2047C198.368 38.2701 198.565 38.3664 198.727 38.4934C198.892 38.6205 199.02 38.7784 199.116 38.967C199.208 39.1557 199.259 39.3675 199.259 39.6101C199.259 39.9027 199.189 40.1915 199.054 40.4803C198.919 40.7691 198.727 41.054 198.48 41.3389C198.233 41.6239 197.933 41.9088 197.582 42.1976C197.231 42.4864 196.842 42.7751 196.414 43.0755H199.39V43.8879H195.253V43.1217C195.728 42.752 196.152 42.4094 196.526 42.0975C196.899 41.7856 197.216 41.4891 197.478 41.208C197.74 40.9308 197.94 40.6651 198.075 40.4187C198.214 40.1722 198.283 39.9297 198.283 39.6948C198.283 39.4176 198.202 39.2058 198.037 39.0518C197.871 38.9016 197.647 38.8246 197.366 38.8246C197.231 38.8246 197.1 38.8438 196.969 38.8862C196.842 38.9285 196.73 38.9979 196.633 39.0941C196.537 39.1904 196.46 39.3174 196.398 39.4715C196.337 39.6255 196.31 39.8103 196.31 40.0298H195.377C195.373 39.741 195.415 39.483 195.512 39.2481C195.604 39.0133 195.743 38.813 195.92 38.6436C196.098 38.478 196.313 38.3471 196.564 38.2509C196.815 38.1585 197.096 38.1084 197.412 38.1084C197.67 38.1084 197.913 38.1392 198.141 38.2047Z" fill="black"/>
<path d="M255.438 103.836C255.577 103.793 255.697 103.728 255.801 103.647C255.905 103.566 255.982 103.466 256.04 103.347C256.098 103.227 256.125 103.092 256.125 102.938C256.125 102.757 256.09 102.607 256.024 102.484C255.959 102.361 255.862 102.261 255.739 102.188C255.616 102.114 255.469 102.061 255.296 102.026C255.122 101.991 254.933 101.976 254.729 101.976H254.459V101.213H254.691C255.554 101.213 255.986 100.925 255.986 100.351C255.986 100.212 255.959 100.089 255.905 99.9852C255.851 99.8812 255.781 99.7926 255.693 99.7272C255.604 99.6617 255.504 99.6117 255.384 99.577C255.265 99.5423 255.142 99.527 255.014 99.527C254.675 99.527 254.413 99.6232 254.22 99.8119C254.031 100.001 253.916 100.259 253.873 100.59H252.979C252.998 100.324 253.064 100.081 253.168 99.8658C253.272 99.6502 253.415 99.4654 253.592 99.3113C253.769 99.1573 253.981 99.0379 254.232 98.9532C254.482 98.8685 254.76 98.8262 255.068 98.8262C255.3 98.8262 255.527 98.8531 255.751 98.907C255.974 98.9609 256.175 99.0495 256.348 99.1689C256.522 99.2882 256.664 99.4422 256.768 99.6271C256.872 99.8119 256.926 100.035 256.926 100.297C256.926 100.574 256.853 100.821 256.703 101.044C256.552 101.264 256.356 101.433 256.109 101.552C256.279 101.614 256.425 101.695 256.545 101.791C256.664 101.887 256.764 101.995 256.842 102.114C256.919 102.234 256.976 102.361 257.015 102.496C257.054 102.63 257.073 102.773 257.073 102.915C257.073 103.204 257.015 103.451 256.903 103.662C256.791 103.874 256.637 104.047 256.445 104.19C256.252 104.332 256.028 104.436 255.774 104.506C255.519 104.575 255.253 104.61 254.976 104.61C254.652 104.61 254.367 104.559 254.116 104.463C253.866 104.367 253.657 104.232 253.484 104.063C253.311 103.893 253.176 103.697 253.079 103.478C252.983 103.258 252.925 103.023 252.91 102.777H253.804C253.823 102.931 253.866 103.077 253.923 103.212C253.981 103.347 254.062 103.466 254.159 103.57C254.255 103.674 254.374 103.755 254.509 103.813C254.644 103.87 254.806 103.901 254.991 103.901C255.153 103.901 255.303 103.882 255.438 103.836Z" fill="black"/>
<path d="M299.73 143.21V144.566H298.782V143.21H295.926V142.421L298.79 138.79H299.73V142.39H300.752V143.21H299.73ZM298.782 142.386V140.022L296.962 142.386H298.782Z" fill="black"/>
<path d="M116.226 111.941C116.361 111.887 116.481 111.806 116.581 111.706C116.681 111.606 116.762 111.479 116.82 111.325C116.878 111.174 116.905 111.005 116.905 110.816C116.905 110.608 116.874 110.424 116.808 110.27C116.743 110.112 116.654 109.981 116.546 109.877C116.438 109.773 116.315 109.696 116.176 109.646C116.041 109.596 115.902 109.573 115.76 109.573C115.494 109.573 115.27 109.63 115.089 109.746C114.908 109.861 114.788 110 114.734 110.169L113.856 110.123L114.233 106.97H117.633V107.79H115L114.819 109.215C114.954 109.107 115.12 109.018 115.317 108.957C115.513 108.895 115.737 108.864 115.995 108.864C116.234 108.864 116.469 108.907 116.697 108.991C116.924 109.076 117.124 109.199 117.298 109.361C117.471 109.523 117.61 109.727 117.714 109.969C117.818 110.212 117.872 110.493 117.872 110.809C117.872 111.128 117.814 111.405 117.703 111.644C117.591 111.883 117.437 112.087 117.244 112.253C117.051 112.418 116.828 112.541 116.573 112.626C116.319 112.711 116.053 112.753 115.771 112.753C115.444 112.753 115.151 112.703 114.9 112.603C114.65 112.503 114.438 112.368 114.264 112.199C114.091 112.029 113.96 111.833 113.863 111.613C113.771 111.39 113.713 111.159 113.698 110.913H114.6C114.642 111.24 114.754 111.509 114.939 111.717C115.124 111.925 115.405 112.029 115.783 112.029C115.945 112.022 116.091 111.995 116.226 111.941Z" fill="black"/>
<path d="M8.26458 66.9749C7.98704 66.8325 7.75575 66.6361 7.57072 66.382C7.38569 66.1278 7.24691 65.8236 7.1544 65.4694C7.06188 65.1152 7.01562 64.7224 7.01562 64.2912C7.01562 63.8638 7.06188 63.4749 7.1544 63.1206C7.24691 62.7664 7.38569 62.4622 7.57072 62.2081C7.75575 61.9539 7.98704 61.7576 8.26458 61.6151C8.54213 61.4726 8.86593 61.4033 9.23599 61.4033C9.60991 61.4033 9.93756 61.4726 10.2151 61.6151C10.4927 61.7576 10.7239 61.9539 10.909 62.2081C11.094 62.4622 11.2328 62.7664 11.3253 63.1206C11.4178 63.4749 11.4641 63.8638 11.4641 64.2912C11.4641 64.7224 11.4178 65.1152 11.3253 65.4694C11.2328 65.8236 11.094 66.1278 10.909 66.382C10.7239 66.6361 10.4927 66.8325 10.2151 66.9749C9.93756 67.1174 9.61376 67.1867 9.23599 67.1867C8.86593 67.1867 8.54213 67.1135 8.26458 66.9749ZM10.1727 65.9161C10.3924 65.5426 10.5042 64.9996 10.5042 64.295C10.5042 63.5865 10.3924 63.0475 10.1727 62.674C9.95298 62.3005 9.64075 62.1118 9.23214 62.1118C8.83124 62.1118 8.52285 62.3005 8.29927 62.674C8.07955 63.0475 7.96776 63.5904 7.96776 64.295C7.96776 65.0035 8.07955 65.5426 8.29927 65.9161C8.519 66.2895 8.83124 66.4782 9.23214 66.4782C9.64075 66.4782 9.95298 66.2895 10.1727 65.9161Z" fill="black"/>
<path d="M160.445 148.223C160.294 148.316 160.171 148.447 160.067 148.612C159.963 148.778 159.886 148.978 159.828 149.213C159.77 149.448 159.739 149.706 159.735 149.994C159.859 149.813 160.032 149.663 160.256 149.54C160.479 149.417 160.753 149.355 161.077 149.355C161.335 149.355 161.574 149.401 161.802 149.49C162.029 149.579 162.226 149.706 162.391 149.871C162.557 150.037 162.692 150.233 162.788 150.468C162.885 150.703 162.935 150.965 162.935 151.257C162.935 151.535 162.885 151.789 162.785 152.024C162.684 152.258 162.546 152.459 162.368 152.628C162.191 152.798 161.975 152.928 161.724 153.025C161.474 153.121 161.2 153.167 160.9 153.167C160.533 153.167 160.221 153.102 159.959 152.971C159.697 152.84 159.481 152.655 159.307 152.416C159.134 152.178 159.007 151.893 158.926 151.558C158.845 151.223 158.802 150.853 158.802 150.441C158.802 150.041 158.841 149.656 158.918 149.286C158.995 148.916 159.122 148.593 159.3 148.308C159.477 148.027 159.705 147.8 159.986 147.634C160.267 147.469 160.61 147.384 161.023 147.384C161.316 147.384 161.57 147.426 161.79 147.515C162.01 147.603 162.191 147.715 162.337 147.857C162.484 148 162.596 148.158 162.677 148.339C162.758 148.52 162.808 148.701 162.827 148.885H161.894C161.863 148.612 161.763 148.412 161.59 148.281C161.416 148.15 161.204 148.085 160.953 148.085C160.765 148.085 160.595 148.131 160.445 148.223ZM160.113 152.139C160.317 152.351 160.576 152.455 160.896 152.455C161.054 152.455 161.2 152.428 161.335 152.374C161.47 152.32 161.586 152.243 161.682 152.139C161.778 152.035 161.855 151.912 161.909 151.766C161.963 151.619 161.99 151.454 161.99 151.269C161.99 150.899 161.89 150.61 161.686 150.395C161.482 150.183 161.223 150.075 160.903 150.075C160.583 150.075 160.325 150.183 160.117 150.395C159.913 150.607 159.809 150.899 159.809 151.269C159.809 151.639 159.909 151.927 160.113 152.139Z" fill="black"/>
<path d="M130.346 190.879V191.714C129.98 192.065 129.652 192.419 129.371 192.777C129.086 193.135 128.843 193.513 128.646 193.913C128.446 194.31 128.292 194.733 128.176 195.184C128.06 195.634 127.987 196.123 127.956 196.655H126.881C126.908 196.146 126.989 195.657 127.12 195.195C127.251 194.733 127.428 194.294 127.648 193.882C127.868 193.466 128.118 193.081 128.411 192.719C128.7 192.357 129.012 192.022 129.348 191.714H126.198V190.879H130.346Z" fill="black"/>
<path d="M245.701 183.906C245.936 183.979 246.137 184.075 246.303 184.202C246.468 184.329 246.599 184.479 246.688 184.657C246.777 184.834 246.823 185.026 246.823 185.23C246.823 185.473 246.769 185.704 246.657 185.935C246.545 186.162 246.364 186.351 246.106 186.501C246.434 186.67 246.665 186.878 246.796 187.128C246.927 187.379 246.993 187.633 246.993 187.895C246.993 188.172 246.939 188.415 246.831 188.622C246.723 188.83 246.576 189.008 246.391 189.15C246.206 189.292 245.986 189.4 245.732 189.473C245.478 189.547 245.204 189.581 244.911 189.581C244.618 189.581 244.344 189.547 244.09 189.473C243.835 189.4 243.616 189.292 243.431 189.15C243.246 189.008 243.099 188.83 242.991 188.622C242.883 188.415 242.829 188.172 242.829 187.895C242.829 187.768 242.845 187.637 242.876 187.506C242.906 187.375 242.957 187.248 243.026 187.128C243.095 187.009 243.188 186.894 243.3 186.786C243.411 186.678 243.55 186.582 243.716 186.501C243.469 186.362 243.288 186.177 243.172 185.943C243.057 185.708 242.999 185.473 242.999 185.23C242.999 185.026 243.045 184.834 243.134 184.657C243.223 184.479 243.35 184.329 243.515 184.202C243.681 184.075 243.882 183.979 244.117 183.906C244.352 183.833 244.618 183.798 244.911 183.798C245.204 183.798 245.47 183.833 245.701 183.906ZM244.094 187.121C243.889 187.302 243.789 187.548 243.789 187.86C243.789 188.18 243.889 188.426 244.094 188.603C244.298 188.78 244.572 188.869 244.915 188.869C245.258 188.869 245.532 188.78 245.736 188.603C245.94 188.426 246.04 188.18 246.04 187.86C246.04 187.548 245.94 187.302 245.736 187.121C245.532 186.94 245.262 186.851 244.915 186.851C244.568 186.851 244.294 186.94 244.094 187.121ZM245.643 184.722C245.462 184.572 245.219 184.499 244.911 184.499C244.606 184.499 244.364 184.572 244.179 184.722C243.993 184.872 243.901 185.08 243.901 185.346C243.901 185.611 243.993 185.827 244.179 185.989C244.364 186.15 244.606 186.231 244.911 186.231C245.219 186.231 245.462 186.15 245.643 185.989C245.825 185.827 245.913 185.611 245.913 185.346C245.913 185.08 245.825 184.868 245.643 184.722Z" fill="black"/>
</g>
<defs>
<clipPath id="clip0_723_4569">
<rect width="312" height="217" fill="white"/>
</clipPath>
</defs>
</svg>
