<svg width="506" height="388" viewBox="0 0 506 388" fill="none" xmlns="http://www.w3.org/2000/svg">
<g clip-path="url(#clip0_717_10688)">
<path d="M124.648 325.719L124.4 324.413L407.629 269.806V115.049H408.961V270.908L124.648 325.719Z" fill="black"/>
<path d="M67.9456 278.352H66.6135V56.5517L67.2263 56.4984L408.961 27.121V65.1419H407.629V28.569L67.9456 57.7687V278.352Z" fill="black"/>
<path d="M328.308 378.681L119.897 230.728V4.69931L160.624 18.6551L160.189 19.9166L121.229 6.56482V230.044L329.08 377.589L328.308 378.681Z" fill="black"/>
<path d="M343.192 321.57L341.86 321.534L348.12 84.2856L191.155 30.5233L191.591 29.2619L349.479 83.3351L343.192 321.57Z" fill="black"/>
<path d="M341.442 388L328.308 378.681L329.08 377.589L340.172 385.468L340.829 360.506L342.161 360.541L341.442 388Z" fill="black"/>
<path d="M470.202 218.691L469.962 217.377L502.421 211.38L316.665 93.3734L5.60373 121.667L19.3509 137.168L18.3563 138.057L2.85962 120.574L4.16507 120.459L316.994 92.0053L506 212.073L470.202 218.691Z" fill="black"/>
<path d="M143.404 279.081L143.156 278.796L45.4598 168.625L46.4545 167.736L143.902 277.633L426.208 225.469L426.456 226.775L143.404 279.081Z" fill="black"/>
<path d="M235.345 311.061H234.013V309.266H235.345V311.061ZM235.345 306.601H234.013V303.936H235.345V306.601ZM235.345 301.271H234.013V298.606H235.345V301.271ZM235.345 295.941H234.013V293.276H235.345V295.941ZM235.345 290.611H234.013V287.946H235.345V290.611ZM235.345 285.281H234.013V282.616H235.345V285.281ZM235.345 279.951H234.013V277.286H235.345V279.951ZM235.345 274.621H234.013V271.956H235.345V274.621ZM235.345 269.291H234.013V266.626H235.345V269.291ZM235.345 263.961H234.013V261.296H235.345V263.961ZM235.345 258.631H234.013V255.966H235.345V258.631ZM235.345 253.301H234.013V250.636H235.345V253.301ZM235.345 247.971H234.013V245.306H235.345V247.971ZM235.345 242.641H234.013V239.976H235.345V242.641ZM235.345 237.311H234.013V234.646H235.345V237.311ZM235.345 231.981H234.013V229.316H235.345V231.981ZM235.345 226.651H234.013V223.986H235.345V226.651ZM235.345 221.321H234.013V218.656H235.345V221.321ZM235.345 215.991H234.013V213.326H235.345V215.991ZM235.345 210.661H234.013V207.996H235.345V210.661ZM235.345 205.331H234.013V202.666H235.345V205.331ZM235.345 200.001H234.013V197.336H235.345V200.001ZM235.345 194.671H234.013V192.006H235.345V194.671ZM235.345 189.341H234.013V186.676H235.345V189.341ZM235.345 184.011H234.013V181.346H235.345V184.011ZM235.345 178.681H234.013V176.016H235.345V178.681ZM235.345 173.351H234.013V170.686H235.345V173.351ZM235.345 168.021H234.013V165.356H235.345V168.021ZM235.345 162.69H234.013V160.025H235.345V162.69ZM235.345 157.36H234.013V154.695H235.345V157.36ZM235.345 152.03H234.013V149.365H235.345V152.03ZM235.345 146.7H234.013V144.035H235.345V146.7ZM235.345 141.37H234.013V138.705H235.345V141.37ZM235.345 136.04H234.013V133.375H235.345V136.04ZM235.345 130.71H234.013V128.045H235.345V130.71ZM235.345 125.38H234.013V122.715H235.345V125.38ZM235.345 120.05H234.013V117.385H235.345V120.05ZM235.345 114.72H234.013V112.055H235.345V114.72ZM235.345 109.39H234.013V106.725H235.345V109.39ZM235.345 104.06H234.013V101.395H235.345V104.06ZM235.345 98.73H234.013V96.065H235.345V98.73ZM235.345 93.4H234.013V90.735H235.345V93.4ZM235.345 88.07H234.013V85.405H235.345V88.07ZM235.345 82.7399H234.013V80.0749H235.345V82.7399ZM235.345 77.4099H234.013V74.7449H235.345V77.4099ZM235.345 72.0799H234.013V69.4148H235.345V72.0799ZM235.345 66.7498H234.013V64.0848H235.345V66.7498ZM235.345 61.4198H234.013V58.7548H235.345V61.4198ZM235.345 56.0898H234.013V53.4247H235.345V56.0898ZM235.345 50.7597H234.013V48.0947H235.345V50.7597ZM235.345 45.4297H234.013V42.7647H235.345V45.4297Z" fill="black"/>
<path d="M343.485 241.309L341.185 239.967L341.86 238.812L344.16 240.154L343.485 241.309ZM338.885 238.626L336.584 237.284L337.259 236.13L339.559 237.471L338.885 238.626ZM334.284 235.943L331.984 234.602L332.659 233.447L334.959 234.788L334.284 235.943ZM329.675 233.26L327.375 231.919L328.05 230.764L330.35 232.105L329.675 233.26ZM325.075 230.577L322.775 229.236L323.45 228.081L325.75 229.423L325.075 230.577ZM320.475 227.886L318.175 226.544L318.85 225.389L321.15 226.731L320.475 227.886ZM315.866 225.203L313.566 223.862L314.241 222.707L316.541 224.048L315.866 225.203ZM311.266 222.52L308.966 221.179L309.641 220.024L311.941 221.365L311.266 222.52ZM306.657 219.837L304.357 218.496L305.032 217.341L307.332 218.683L306.657 219.837ZM302.057 217.155L299.757 215.813L300.431 214.658L302.732 216L302.057 217.155ZM297.456 214.472L295.156 213.13L295.831 211.976L298.131 213.317L297.456 214.472ZM292.847 211.78L290.547 210.439L291.222 209.284L293.522 210.625L292.847 211.78ZM288.247 209.097L285.947 207.756L286.622 206.601L288.922 207.943L288.247 209.097ZM283.647 206.415L281.347 205.073L282.022 203.918L284.322 205.26L283.647 206.415ZM279.038 203.732L276.738 202.39L277.413 201.236L279.713 202.577L279.038 203.732ZM274.438 201.049L272.138 199.708L272.813 198.553L275.113 199.894L274.438 201.049ZM269.838 198.357L267.538 197.016L268.213 195.861L270.513 197.202L269.838 198.357ZM265.229 195.675L262.929 194.333L263.603 193.178L265.904 194.52L265.229 195.675ZM260.628 192.992L258.328 191.65L259.003 190.496L261.303 191.837L260.628 192.992ZM256.028 190.309L253.728 188.968L254.403 187.813L256.703 189.154L256.028 190.309ZM251.419 187.626L249.119 186.285L249.794 185.13L252.094 186.471L251.419 187.626ZM246.819 184.935L244.519 183.593L245.194 182.438L247.494 183.78L246.819 184.935ZM242.219 182.252L239.919 180.91L240.594 179.755L242.894 181.097L242.219 182.252ZM237.61 179.569L235.31 178.228L235.985 177.073L238.285 178.414L237.61 179.569ZM233.01 176.886L230.71 175.545L231.385 174.39L233.685 175.731L233.01 176.886ZM228.41 174.203L226.11 172.862L226.784 171.707L229.085 173.049L228.41 174.203ZM223.801 171.512L221.5 170.17L222.175 169.015L224.475 170.357L223.801 171.512ZM219.2 168.829L216.9 167.488L217.575 166.333L219.875 167.674L219.2 168.829ZM214.6 166.146L212.3 164.805L212.975 163.65L215.275 164.991L214.6 166.146ZM209.991 163.463L207.691 162.122L208.366 160.967L210.666 162.309L209.991 163.463ZM205.391 160.781L203.091 159.439L203.766 158.284L206.066 159.626L205.391 160.781ZM200.791 158.098L198.491 156.756L199.166 155.602L201.466 156.943L200.791 158.098ZM196.182 155.406L193.882 154.065L194.557 152.91L196.857 154.251L196.182 155.406ZM191.582 152.723L189.282 151.382L189.956 150.227L192.257 151.568L191.582 152.723ZM186.973 150.041L184.673 148.699L185.347 147.544L187.648 148.886L186.973 150.041ZM182.372 147.358L180.072 146.016L180.747 144.862L183.047 146.203L182.372 147.358ZM177.772 144.675L175.472 143.334L176.147 142.179L178.447 143.52L177.772 144.675ZM173.172 141.983L170.872 140.642L171.547 139.487L173.847 140.828L173.172 141.983ZM168.563 139.301L166.263 137.959L166.938 136.804L169.238 138.146L168.563 139.301ZM163.963 136.618L161.663 135.276L162.338 134.121L164.638 135.463L163.963 136.618ZM159.354 133.935L157.054 132.594L157.729 131.439L160.029 132.78L159.354 133.935ZM154.754 131.252L152.454 129.911L153.129 128.756L155.429 130.097L154.754 131.252ZM150.154 128.56L147.853 127.219L148.528 126.064L150.828 127.406L150.154 128.56ZM145.545 125.878L143.244 124.536L143.919 123.381L146.219 124.723L145.545 125.878ZM140.944 123.195L138.644 121.854L139.319 120.699L141.619 122.04L140.944 123.195ZM136.344 120.512L134.044 119.171L134.719 118.016L137.019 119.357L136.344 120.512ZM131.735 117.829L129.435 116.488L130.11 115.333L132.41 116.675L131.735 117.829ZM127.135 115.147L124.835 113.805L125.51 112.65L127.81 113.992L127.135 115.147ZM122.535 112.455L120.235 111.114L120.901 109.959L123.201 111.3L122.535 112.455Z" fill="black"/>
<path d="M252.094 194.857C247.769 194.857 243.693 194.564 241.002 193.711C237.725 192.672 221.056 186.898 214.831 175.651C211.004 168.74 208.446 156.348 208.641 154.953L209.965 155.14L209.307 155.042L209.965 155.131C209.885 156.063 212.096 167.958 215.994 175.003C220.63 183.38 232.575 189.625 241.402 192.432C248.222 194.6 264.767 192.947 270.202 192.405C277.919 191.633 282.226 189.963 283.372 187.289C284.464 184.739 282.892 178.956 282.226 176.486C282.128 176.14 282.057 175.856 282.004 175.642C281.418 173.315 285.015 169.22 286.08 168.269C286.489 167.905 286.489 167.594 285.636 166.564C285.441 166.333 285.281 166.137 285.174 165.933C284.864 165.302 285.317 164.751 285.832 164.112C286.4 163.41 287.11 162.539 287.19 161.42C287.244 160.585 286.782 159.608 286.24 158.48C285.521 156.978 284.713 155.282 284.802 153.239C284.944 150.023 290.556 149.57 294.268 149.277C295.156 149.205 296 149.134 296.32 149.046C297.607 148.69 298.513 146.754 298.513 144.32C298.513 141.886 296.142 137.906 295.574 137.337C295.005 136.769 290.947 131.11 290.609 128.294C290.423 126.748 288.487 123.568 286.773 120.77C285.867 119.295 285.015 117.9 284.42 116.746C282.635 113.317 285.556 107.756 286.134 106.716C286.125 103.643 285.832 99.0676 285.21 98.1793C284.5 97.1666 284.295 94.3772 284.091 90.5484C284.002 88.8872 283.913 87.3238 283.762 86.6042C283.674 86.1956 283.549 85.405 283.381 84.3834C282.12 76.4949 281.036 72.3464 280.166 72.0354C279.455 71.7778 278.567 70.8362 277.022 69.0862L174.256 133.073L171.449 126.304C165.49 118.114 161.689 105.162 161.974 94.0485C162.293 81.8338 175.463 65.977 180.055 61.3843C185.543 55.8943 199.104 47.9881 206.439 46.0071C213.49 44.0972 229.724 45.9716 231.074 46.1315C240.7 45.3941 247.494 49.2762 253.488 52.7052C256.952 54.6862 259.936 56.3918 262.92 56.8715C268.728 57.8042 273.816 63.4097 277.288 67.345L281.693 64.6L282.395 65.7282L278.177 68.3577C279.224 69.5392 280.21 70.623 280.628 70.7651C282.35 71.3781 283.425 76.1396 284.713 84.1613C284.873 85.1473 284.997 85.9202 285.077 86.3111C285.254 87.1372 285.334 88.6829 285.432 90.4685C285.565 92.9203 285.761 96.6247 286.311 97.4064C287.421 98.9877 287.475 105.579 287.475 106.885V107.063L287.386 107.223C287.35 107.285 284.02 113.059 285.61 116.124C286.196 117.243 287.031 118.62 287.919 120.077C289.784 123.133 291.72 126.295 291.933 128.134C292.199 130.417 295.893 135.774 296.515 136.387C297.208 137.071 299.836 141.441 299.836 144.311C299.836 147.384 298.558 149.801 296.666 150.325C296.222 150.449 295.449 150.511 294.366 150.591C291.72 150.805 286.214 151.249 286.125 153.283C286.054 154.997 286.755 156.472 287.43 157.893C288.025 159.137 288.585 160.31 288.505 161.5C288.398 163.037 287.466 164.183 286.853 164.947C286.72 165.116 286.542 165.329 286.444 165.471C286.507 165.551 286.578 165.64 286.64 165.711C287.181 166.368 288.46 167.905 286.942 169.264C285.494 170.552 282.937 173.999 283.274 175.314C283.327 175.518 283.398 175.802 283.496 176.14C284.26 178.965 285.858 184.846 284.588 187.822C283.221 191.02 278.683 192.903 270.326 193.738C266.916 194.084 259.172 194.857 252.094 194.857ZM215.568 46.4957C212.202 46.4957 208.988 46.7 206.794 47.2952C199.627 49.2407 186.369 56.9692 181.005 62.3348C176.511 66.8298 163.617 82.3135 163.315 94.0929C163.03 104.966 166.751 117.625 172.577 125.593L172.657 125.736L174.886 131.128L276.143 68.0823C272.804 64.298 267.982 59.0568 262.715 58.2129C259.492 57.6976 256.259 55.841 252.831 53.8867C246.988 50.5465 240.381 46.7622 231.118 47.4906L231.056 47.4995L230.994 47.4906C230.869 47.4551 222.85 46.4957 215.568 46.4957Z" fill="black"/>
<path d="M209.796 153.994C208.979 153.994 208.188 153.709 207.593 152.937C206.847 151.977 205.107 150.591 203.57 149.365C201.439 147.669 200.116 146.585 199.761 145.785C199.53 145.261 199.414 144.364 199.263 143.236C199.024 141.415 198.668 138.661 197.638 138.03C195.933 136.982 195.773 135.836 195.613 134.717C195.56 134.361 195.507 133.997 195.409 133.606C195.187 132.78 195.036 131.696 194.885 130.639C194.734 129.573 194.583 128.463 194.37 127.823C193.873 126.34 193.704 122.005 195.276 120.432C195.649 120.059 196.297 119.082 196.981 118.051C199.317 114.542 201.111 112.055 202.798 112.188C203.206 112.215 203.535 112.18 203.89 112.144C205.551 111.966 206.821 112.082 210.48 115.173L209.618 116.195C206.128 113.246 205.196 113.343 204.023 113.468C203.641 113.503 203.215 113.556 202.691 113.512C202.682 113.512 202.673 113.512 202.656 113.512C201.59 113.512 199.219 117.065 198.073 118.789C197.283 119.97 196.661 120.912 196.2 121.374C195.152 122.422 195.169 126.055 195.613 127.406C195.862 128.161 196.022 129.28 196.182 130.462C196.324 131.474 196.466 132.514 196.67 133.26C196.795 133.722 196.857 134.148 196.91 134.53C197.052 135.552 197.141 136.174 198.313 136.893C199.885 137.861 200.267 140.749 200.569 143.067C200.684 143.964 200.809 144.888 200.96 145.243C201.199 145.785 202.967 147.189 204.379 148.326C206.048 149.659 207.78 151.035 208.624 152.11C209.831 153.647 212.726 151.426 212.762 151.4L213.579 152.448C212.664 153.176 211.172 153.994 209.796 153.994Z" fill="black"/>
<path d="M278.541 167.194C277.892 167.194 277.244 167.097 276.702 166.848L277.253 165.631C278.558 166.226 281.249 165.489 281.604 165.045C281.951 164.156 283.398 163.392 283.691 163.25L284.286 164.441C283.674 164.751 282.936 165.284 282.821 165.586C282.661 165.986 282.226 166.333 281.498 166.626C280.778 166.919 279.642 167.194 278.541 167.194Z" fill="black"/>
<path d="M276.898 167.736H275.566C275.566 166.102 277.28 164.805 277.484 164.663L278.265 165.738C277.91 165.995 276.898 166.919 276.898 167.736Z" fill="black"/>
<path d="M281.054 151.906L279.748 151.648C279.846 151.169 280.104 150.787 280.352 150.511C280.095 150.138 279.828 149.596 279.74 148.877C279.642 148.122 279.962 147.464 280.246 146.887C280.512 146.336 280.752 145.848 280.645 145.368L280.601 145.181C280.299 143.858 279.89 142.037 282.111 140.5C284.42 138.901 287.67 141.308 287.812 141.406L287.013 142.472C286.285 141.93 284.127 140.722 282.874 141.592C281.4 142.614 281.622 143.618 281.906 144.888L281.951 145.084C282.164 146.025 281.764 146.834 281.453 147.482C281.223 147.953 281.027 148.37 281.072 148.726C281.178 149.614 281.702 150.067 281.729 150.085L282.439 150.689L281.649 151.178C281.507 151.24 281.134 151.542 281.054 151.906Z" fill="black"/>
<path d="M269.349 116.808L268.505 115.777C268.763 115.573 271.028 113.752 272.44 113.281C273.035 113.077 274.011 112.375 274.944 111.682C275.903 110.98 276.889 110.261 277.741 109.87C279.455 109.088 281.862 108.786 281.96 108.768L282.128 110.092C282.102 110.092 279.819 110.385 278.301 111.078C277.573 111.407 276.64 112.091 275.743 112.748C274.678 113.53 273.665 114.267 272.875 114.534C271.862 114.871 269.98 116.293 269.349 116.808Z" fill="black"/>
<path d="M278.123 124.43L277.324 123.364C277.759 123.035 278.212 122.555 278.256 122.378C278.256 121.827 278.656 121.258 279.011 120.761C279.127 120.592 279.304 120.343 279.34 120.255C279.331 120.139 279.127 119.784 279.002 119.739C278.399 119.988 277.368 119.926 276.178 119.855C275.646 119.819 275.095 119.784 274.607 119.784C273.488 119.784 269.767 119.055 269.225 117.971C269.074 117.678 269.109 117.341 269.305 117.083C269.678 116.577 270.566 116.257 272.102 115.724C272.83 115.475 273.576 115.218 274.189 114.933C275.548 114.32 278.505 113.814 279.757 113.619V112.855C279.757 112.206 279.26 110.891 278.94 110.225L280.148 109.657C280.246 109.861 281.089 111.7 281.089 112.855V114.773L280.512 114.853C280.468 114.862 276.267 115.449 274.731 116.142C274.065 116.444 273.283 116.71 272.528 116.977C272.022 117.154 271.347 117.385 270.877 117.589C271.791 117.98 273.639 118.451 274.607 118.451C275.13 118.451 275.699 118.487 276.267 118.522C277.12 118.576 278.185 118.638 278.532 118.504C279.029 118.3 279.562 118.425 279.988 118.824C280.45 119.26 280.805 120.068 280.601 120.672C280.512 120.939 280.326 121.205 280.104 121.525C279.944 121.756 279.606 122.236 279.597 122.404C279.58 123.239 278.558 124.101 278.123 124.43Z" fill="black"/>
<path d="M278.105 119.908L277.892 118.593C277.892 118.593 278.407 118.496 278.683 118.131C279.065 117.625 279.26 116.923 279.162 116.426C278.994 115.591 279.18 114.329 279.207 114.187L280.521 114.391C280.468 114.711 280.361 115.653 280.468 116.168C280.645 117.039 280.361 118.123 279.748 118.931C279.153 119.713 278.203 119.89 278.105 119.908Z" fill="black"/>
<path d="M284.437 109.212L283.762 108.981C283.762 109.079 283.798 109.141 283.816 109.159C283.691 109.026 283.114 108.813 282.83 108.715C282.484 108.591 282.182 108.484 281.969 108.342C281.489 108.022 280.432 106.974 280.228 106.77L281.169 105.828C281.613 106.272 282.421 107.045 282.706 107.231C282.786 107.285 283.079 107.391 283.274 107.462C284.082 107.747 285.086 108.111 285.086 108.981L284.437 109.212Z" fill="black"/>
<path d="M270.344 108.351L269.296 107.533C270.273 106.281 272.315 105.766 274.296 105.259C274.749 105.144 275.193 105.037 275.601 104.913C277.75 104.3 281.098 104.62 281.862 104.94C283.23 105.526 283.469 107.702 283.487 107.942L282.164 108.066C282.102 107.418 281.791 106.361 281.338 106.165C280.921 105.997 277.892 105.641 275.974 106.192C275.548 106.316 275.095 106.432 274.633 106.547C272.946 106.974 271.037 107.454 270.344 108.351Z" fill="black"/>
<path d="M271.667 107.436L270.885 106.352C271.072 106.219 275.459 103.092 279.5 103.092C284.42 103.092 285.103 104.042 285.334 104.353C285.574 104.682 285.627 105.073 285.503 105.455C285.379 105.828 285.148 106.512 284.544 106.556C284.242 106.574 283.958 106.414 283.825 106.139L284.42 105.846L284.535 105.233C284.304 105.224 284.127 105.339 284.082 105.41C284.082 105.41 284.135 105.339 284.215 105.108C284.047 104.966 283.167 104.433 279.5 104.433C275.894 104.433 271.711 107.409 271.667 107.436Z" fill="black"/>
<path d="M284.642 170.455L284.224 169.193C284.286 169.131 284.553 168.66 284.704 168.251L285.947 168.722C285.734 169.273 285.29 170.232 284.642 170.455Z" fill="black"/>
<path d="M281.977 170.197C281.826 170.197 281.675 170.153 281.533 170.073C281.027 169.779 280.77 168.953 280.645 168.305L281.951 168.047C281.968 168.154 282.004 168.269 282.031 168.376C282.075 168.26 282.111 168.136 282.137 168.021L283.434 168.34C283.292 168.918 282.945 169.922 282.253 170.153C282.164 170.188 282.075 170.197 281.977 170.197Z" fill="black"/>
<path d="M280.432 169.548L279.491 168.607C280.033 168.065 280.583 167.87 280.645 167.852L281.063 169.113L280.85 168.482L281.072 169.113C281.063 169.113 280.752 169.229 280.432 169.548Z" fill="black"/>
<path d="M278.674 169.708L278.256 168.447C278.416 168.394 278.851 168.047 279.189 167.71L280.13 168.651C279.926 168.856 279.233 169.522 278.674 169.708Z" fill="black"/>
<path d="M285.396 166.422C284.606 166.422 283.469 166.102 282.981 165.729C282.342 165.249 282.12 164.965 282.12 164.627H283.452C283.452 164.423 283.363 164.307 283.363 164.298C283.363 164.298 283.452 164.405 283.789 164.663C284.118 164.911 285.219 165.142 285.503 165.089C285.361 165.116 285.112 165.32 285.112 165.64H286.444C286.444 165.924 286.285 166.182 286.018 166.315C285.867 166.395 285.645 166.422 285.396 166.422Z" fill="black"/>
<path d="M283.345 150.538C282.972 150.538 282.759 150.334 282.67 150.227C282.244 149.712 282.572 148.966 282.954 148.308C283.665 147.065 284.651 146.603 286.151 146.789L286.471 146.825C287.439 146.94 287.839 146.994 288.753 147.447C289.393 147.766 290.627 147.935 291.053 147.98L290.929 149.303C290.902 149.303 290.849 149.294 290.778 149.285L290.956 149.694C290.76 149.774 289.748 150.192 289.055 150.192C288.443 150.192 287.528 150.192 286.151 150.041C285.166 149.925 284.464 150.192 284.002 150.369C283.913 150.405 283.825 150.431 283.754 150.458C283.594 150.52 283.461 150.538 283.345 150.538ZM285.521 148.086C284.873 148.086 284.5 148.326 284.144 148.921C284.677 148.761 285.405 148.628 286.293 148.726C287.368 148.85 288.158 148.868 288.718 148.868C288.514 148.806 288.327 148.726 288.158 148.637C287.457 148.282 287.217 148.255 286.311 148.148L285.983 148.113C285.814 148.095 285.663 148.086 285.521 148.086Z" fill="black"/>
<path d="M204.521 138.261C204.432 138.235 202.265 137.675 202.079 135.436L202.034 134.912C201.945 133.837 201.945 133.793 202.034 132.718L202.079 132.194C202.247 130.204 202.816 129.245 204.361 128.383C204.707 128.196 205.071 128.01 205.427 127.832C206.297 127.397 207.283 126.908 207.522 126.428C207.949 125.576 208.242 124.847 208.242 124.838L209.476 125.336C209.467 125.371 209.165 126.118 208.712 127.024C208.277 127.894 207.185 128.445 206.022 129.022C205.684 129.191 205.338 129.369 205.009 129.547C203.935 130.142 203.553 130.621 203.411 132.3L203.366 132.825C203.286 133.811 203.286 133.811 203.366 134.788L203.411 135.312C203.517 136.591 204.796 136.946 204.849 136.955L204.521 138.261Z" fill="black"/>
<path d="M207.771 132.629L206.963 131.572C207.904 130.852 209.236 129.467 209.236 128.667C209.236 128.143 209.307 127.521 209.369 126.917C209.458 126.1 209.609 124.741 209.378 124.456C208.668 123.568 207.904 122.102 207.336 120.539C207.114 119.935 206.918 119.126 206.723 118.353C206.501 117.456 206.128 115.955 205.862 115.68C205.862 115.706 205.293 115.715 203.659 117.359C203.348 117.669 202.922 118.043 202.451 118.46C201.581 119.224 200.498 120.183 199.841 121.027C198.562 122.68 197.656 124.51 197.736 124.98L196.422 125.203C196.155 123.612 198.766 120.246 198.793 120.21C199.521 119.268 200.658 118.265 201.572 117.465C202.025 117.074 202.425 116.71 202.718 116.426C204.405 114.738 205.542 114.143 206.421 114.489C207.185 114.791 207.513 115.982 208.02 118.051C208.206 118.798 208.393 119.562 208.588 120.103C209.201 121.791 209.938 123.035 210.417 123.639C210.986 124.35 210.844 125.673 210.693 127.077C210.631 127.663 210.568 128.223 210.568 128.676C210.56 130.435 208.055 132.407 207.771 132.629Z" fill="black"/>
<path d="M203.26 140.633L201.928 140.562C201.928 140.535 202.025 138.306 200.356 136.76C198.082 134.663 197.31 132.469 197.922 129.857C198.1 129.085 198.215 128.276 198.331 127.415C198.588 125.513 198.855 123.541 199.956 121.88C200.658 120.823 201.661 120.015 202.549 119.295C203.482 118.54 204.37 117.82 204.316 117.243C204.183 115.76 204.05 115.315 204.05 115.298L205.32 114.889C205.347 114.978 205.498 115.493 205.649 117.128C205.764 118.416 204.609 119.348 203.393 120.334C202.54 121.027 201.661 121.738 201.066 122.626C200.134 124.03 199.885 125.842 199.654 127.601C199.539 128.454 199.423 129.333 199.228 130.168C198.731 132.292 199.361 134.024 201.27 135.792C203.402 137.764 203.269 140.518 203.26 140.633Z" fill="black"/>
<path d="M211.092 142.756C210.355 142.756 209.005 142.436 208.659 141.228C208.393 140.304 207.904 139.798 207.744 139.736C207.655 139.709 207.496 139.665 207.309 139.62C206.199 139.354 205.053 139.07 205.053 138.208C205.053 137.506 205.755 137.337 206.093 137.248C206.59 137.124 206.679 137.062 206.696 136.92C206.812 136.111 207.078 135.605 207.362 135.072C207.496 134.823 207.638 134.557 207.78 134.219C208.259 133.109 209.218 131.936 209.813 131.545C209.982 131.43 210.302 131.217 210.693 131.314C211.092 131.403 211.279 131.723 211.51 132.114L211.652 132.354C212.247 133.349 211.883 135.072 211.714 135.587L211.598 135.934C211.607 136.68 211.687 138.43 211.989 139.141C212.442 140.198 212.291 141.646 211.874 142.285C211.616 142.694 211.27 142.756 211.092 142.756ZM207.256 138.235C207.407 138.27 207.54 138.306 207.629 138.323C207.86 138.377 208.055 138.43 208.171 138.465C208.89 138.705 209.6 139.665 209.947 140.855C210.053 141.219 210.542 141.344 210.844 141.388C210.959 141.024 211.021 140.233 210.773 139.656C210.284 138.519 210.275 136.085 210.275 135.818L210.311 135.605L210.462 135.161C210.622 134.672 210.79 133.482 210.524 133.029L210.382 132.798C210 133.153 209.369 133.935 209.023 134.743C208.863 135.116 208.703 135.418 208.552 135.703C208.295 136.191 208.108 136.538 208.028 137.115C207.94 137.693 207.611 138.03 207.256 138.235Z" fill="black"/>
<path d="M243.258 239.958L242.13 239.256C242.13 239.248 242.778 238.155 242.778 235.881C242.778 234.015 243.755 230.098 244.537 226.953C244.865 225.629 245.15 224.492 245.327 223.666C245.434 223.142 245.576 222.396 245.745 221.525C246.775 216.133 247.787 211.185 248.906 209.941C249.945 208.786 250.283 200.916 249.794 198.286C249.297 195.639 250.593 193.88 250.647 193.809L251.712 194.609L251.179 194.209L251.712 194.609C251.668 194.662 250.718 195.994 251.1 198.046C251.526 200.303 251.499 209.053 249.901 210.838C248.933 211.913 247.663 218.576 247.05 221.783C246.881 222.662 246.739 223.417 246.624 223.95C246.446 224.794 246.162 225.949 245.824 227.282C245.061 230.355 244.102 234.184 244.102 235.89C244.102 238.572 243.294 239.905 243.258 239.958Z" fill="black"/>
<path d="M241.597 260.372C240.043 260.372 238.311 260.141 236.624 259.457C232.264 257.681 218.277 249.748 212.646 242.392C209.458 238.235 204.521 236.058 198.793 233.536C195.196 231.954 191.111 230.16 187.035 227.637C183.554 225.487 179.788 223.497 176.156 221.57C169.291 217.936 162.799 214.507 159.887 210.776L159.656 210.483L165.748 193.88C165.783 193.782 169.469 183.735 170.348 179.8C171.227 175.829 174.93 156.747 174.966 156.552L176.271 156.81C176.236 157.005 172.533 176.096 171.645 180.093C170.748 184.117 167.151 193.925 167 194.342L161.165 210.243C164.025 213.646 170.224 216.924 176.778 220.388C180.436 222.325 184.22 224.323 187.736 226.5C191.733 228.969 195.596 230.666 199.325 232.31C205.222 234.904 210.311 237.142 213.703 241.575C219.183 248.735 232.859 256.472 237.13 258.214C240.736 259.679 244.652 258.791 246.082 258.382C245.629 256.455 244.714 252.777 244.199 251.844C243.809 251.134 243.853 250.236 243.897 249.197C243.96 247.864 244.039 246.354 243.178 245.022C241.473 242.383 240.718 235.339 240.691 235.037L242.015 234.895C242.024 234.966 242.761 241.921 244.297 244.293C245.389 245.981 245.3 247.793 245.229 249.25C245.194 250.05 245.149 250.814 245.363 251.187C246.135 252.573 247.379 258.054 247.521 258.667L247.645 259.235L247.103 259.44C246.952 259.519 244.599 260.372 241.597 260.372Z" fill="black"/>
<path d="M177.053 198.402L172.684 69.4237L283.434 64.4401L286.444 192.814L177.053 198.402ZM174.069 70.7029L178.349 197.007L285.094 191.562L282.137 65.8437L174.069 70.7029Z" fill="black"/>
<path d="M216.181 199.015L174.913 132.451L176.041 131.741L214.645 194.004L208.632 46.2381L209.965 46.1848L216.181 199.015Z" fill="black"/>
<path d="M248.734 50.666L247.402 50.6949L250.519 194.213L251.851 194.184L248.734 50.666Z" fill="black"/>
<path d="M285.45 192.77L172.151 131.545L283.869 126.064L283.931 127.388L176.982 132.647L286.089 191.597L285.45 192.77Z" fill="black"/>
<path d="M266.629 58.7156L265.297 58.7451L268.285 193.231L269.617 193.201L266.629 58.7156Z" fill="black"/>
<path d="M406.892 270.775L283.905 116.55L407.905 27.3076L408.686 28.3824L285.814 116.808L407.931 269.949L406.892 270.775Z" fill="black"/>
<path d="M285.134 116.075L284.609 117.299L497.742 208.83L498.268 207.605L285.134 116.075Z" fill="black"/>
<path d="M121.149 230.711L119.986 230.062L173.998 131.741L120.839 6.78691L122.064 6.26279L175.481 131.821L175.321 132.105L121.149 230.711Z" fill="black"/>
<path d="M144.31 278.494L143.005 278.219L173.927 132.398L5.07971 122.671L5.15964 121.347L175.552 131.163L144.31 278.494Z" fill="black"/>
<path d="M354.985 337.338H352.01V335.828C352.49 335.819 352.907 335.783 353.28 335.748C353.644 335.703 353.973 335.632 354.257 335.517C354.541 335.41 354.781 335.242 354.994 335.028C355.198 334.815 355.394 334.522 355.562 334.158H357.179V347.483H354.994V337.338H354.985Z" fill="black"/>
<path d="M421.536 84.0458C420.897 83.7171 420.364 83.2641 419.938 82.6778C419.512 82.0914 419.192 81.3897 418.979 80.5724C418.766 79.7551 418.659 78.849 418.659 77.8541C418.659 76.868 418.766 75.9708 418.979 75.1535C419.192 74.3362 419.512 73.6345 419.938 73.0482C420.364 72.4618 420.897 72.0088 421.536 71.6801C422.176 71.3514 422.922 71.1915 423.774 71.1915C424.636 71.1915 425.391 71.3514 426.03 71.6801C426.669 72.0088 427.202 72.4618 427.628 73.0482C428.055 73.6345 428.374 74.3362 428.588 75.1535C428.801 75.9708 428.907 76.868 428.907 77.8541C428.907 78.849 428.801 79.7551 428.588 80.5724C428.374 81.3897 428.055 82.0914 427.628 82.6778C427.202 83.2641 426.669 83.7171 426.03 84.0458C425.391 84.3745 424.645 84.5344 423.774 84.5344C422.922 84.5344 422.176 84.3656 421.536 84.0458ZM425.932 81.6029C426.438 80.7412 426.696 79.4886 426.696 77.863C426.696 76.2284 426.438 74.9847 425.932 74.123C425.426 73.2614 424.707 72.8261 423.765 72.8261C422.842 72.8261 422.131 73.2614 421.616 74.123C421.11 74.9847 420.853 76.2373 420.853 77.863C420.853 79.4975 421.11 80.7412 421.616 81.6029C422.123 82.4646 422.842 82.8998 423.765 82.8998C424.707 82.8998 425.426 82.4646 425.932 81.6029Z" fill="black"/>
<path d="M177.879 0.222088C178.403 0.373105 178.856 0.59519 179.229 0.888342C179.611 1.18149 179.904 1.54571 180.126 1.981C180.339 2.41629 180.454 2.90487 180.454 3.46453C180.454 4.13966 180.294 4.80592 179.984 5.47217C179.673 6.13843 179.229 6.7958 178.66 7.45317C178.092 8.11054 177.399 8.76791 176.591 9.43417C175.783 10.1004 174.886 10.7667 173.9 11.4596H180.756V13.3251H171.227V11.5573C172.32 10.7045 173.296 9.91387 174.158 9.19432C175.019 8.47476 175.748 7.79074 176.351 7.14225C176.955 6.50265 177.417 5.88969 177.728 5.32116C178.048 4.75262 178.207 4.19297 178.207 3.65108C178.207 3.01147 178.021 2.52289 177.639 2.16755C177.257 1.8211 176.742 1.64343 176.094 1.64343C175.783 1.64343 175.481 1.68785 175.179 1.78556C174.886 1.88328 174.629 2.04318 174.407 2.26527C174.185 2.48735 174.007 2.78051 173.865 3.13584C173.723 3.49118 173.661 3.91758 173.661 4.42393H171.511C171.503 3.75768 171.6 3.16249 171.822 2.6206C172.035 2.07872 172.355 1.61678 172.764 1.22591C173.172 0.843925 173.669 0.54189 174.247 0.319805C174.824 0.106604 175.472 -0.00888062 176.2 -0.00888062C176.787 2.77814e-06 177.355 0.0710699 177.879 0.222088Z" fill="black"/>
<path d="M49.8558 307.499C50.1755 307.401 50.4508 307.25 50.6906 307.063C50.9304 306.877 51.108 306.646 51.2412 306.371C51.3744 306.095 51.4366 305.784 51.4366 305.429C51.4366 305.011 51.3567 304.665 51.2057 304.381C51.0547 304.096 50.8327 303.865 50.5485 303.697C50.2643 303.528 49.9269 303.403 49.5273 303.324C49.1276 303.244 48.6925 303.208 48.2218 303.208H47.6002V301.449H48.133C50.1223 301.449 51.1169 300.783 51.1169 299.459C51.1169 299.139 51.0547 298.855 50.9304 298.615C50.8061 298.375 50.6462 298.171 50.442 298.02C50.2377 297.869 50.0068 297.754 49.7315 297.674C49.4562 297.594 49.172 297.558 48.879 297.558C48.0975 297.558 47.4936 297.78 47.0496 298.216C46.6144 298.651 46.348 299.246 46.2503 300.01H44.19C44.2344 299.397 44.3854 298.837 44.6252 298.34C44.8649 297.842 45.1935 297.416 45.602 297.061C46.0105 296.705 46.499 296.43 47.0762 296.235C47.6534 296.039 48.2928 295.941 49.0033 295.941C49.5361 295.941 50.0601 296.004 50.5752 296.128C51.0902 296.252 51.552 296.457 51.9517 296.732C52.3513 297.007 52.6799 297.363 52.9197 297.789C53.1594 298.216 53.2838 298.731 53.2838 299.335C53.2838 299.974 53.115 300.543 52.7687 301.058C52.4223 301.565 51.9694 301.955 51.4011 302.231C51.7918 302.373 52.1293 302.56 52.4046 302.782C52.6799 303.004 52.9108 303.252 53.0884 303.528C53.266 303.803 53.3992 304.096 53.488 304.407C53.5768 304.718 53.6212 305.047 53.6212 305.376C53.6212 306.042 53.488 306.61 53.2305 307.099C52.9729 307.588 52.6177 307.987 52.1737 308.316C51.7296 308.645 51.2146 308.885 50.6284 309.044C50.0423 309.204 49.4296 309.284 48.7902 309.284C48.0442 309.284 47.387 309.169 46.8098 308.947C46.2325 308.725 45.753 308.414 45.3534 308.023C44.9537 307.632 44.6429 307.179 44.4209 306.673C44.1989 306.166 44.0657 305.624 44.0302 305.056H46.0905C46.1349 305.411 46.2325 305.749 46.3658 306.06C46.499 306.37 46.6855 306.646 46.9075 306.886C47.1295 307.126 47.4048 307.312 47.7156 307.445C48.0264 307.579 48.3994 307.65 48.8257 307.65C49.1898 307.65 49.5361 307.596 49.8558 307.499Z" fill="black"/>
<path d="M69.9882 355.016V358.143H67.8036V355.016H61.223V353.195L67.8213 344.818H69.9882V353.124H72.3416V355.016H69.9882ZM67.8036 353.124V347.669L63.6119 353.124H67.8036Z" fill="black"/>
<path d="M105.884 358.205C106.194 358.081 106.47 357.894 106.701 357.663C106.932 357.432 107.118 357.139 107.251 356.784C107.384 356.437 107.447 356.046 107.447 355.611C107.447 355.131 107.376 354.705 107.225 354.35C107.074 353.986 106.869 353.683 106.621 353.444C106.372 353.204 106.088 353.026 105.768 352.911C105.457 352.795 105.138 352.742 104.809 352.742C104.196 352.742 103.681 352.875 103.264 353.142C102.846 353.408 102.571 353.728 102.447 354.119L100.422 354.012L101.292 346.737H109.125V348.629H103.06L102.642 351.916C102.953 351.667 103.335 351.463 103.788 351.32C104.241 351.178 104.756 351.107 105.351 351.107C105.901 351.107 106.443 351.205 106.967 351.4C107.491 351.596 107.953 351.88 108.352 352.253C108.752 352.626 109.072 353.097 109.312 353.657C109.551 354.216 109.676 354.865 109.676 355.593C109.676 356.331 109.542 356.97 109.285 357.521C109.027 358.072 108.672 358.543 108.228 358.925C107.784 359.307 107.269 359.591 106.683 359.786C106.097 359.982 105.484 360.08 104.836 360.08C104.081 360.08 103.406 359.964 102.829 359.733C102.251 359.502 101.763 359.191 101.363 358.8C100.964 358.409 100.662 357.956 100.44 357.45C100.218 356.944 100.094 356.402 100.058 355.833H102.136C102.234 356.588 102.491 357.21 102.918 357.69C103.344 358.17 103.992 358.409 104.862 358.409C105.235 358.392 105.564 358.329 105.884 358.205Z" fill="black"/>
<path d="M422.788 97.3886C422.442 97.6018 422.158 97.9039 421.918 98.2859C421.678 98.6679 421.501 99.1298 421.368 99.6717C421.234 100.214 421.163 100.809 421.154 101.475C421.439 101.057 421.838 100.711 422.353 100.427C422.868 100.143 423.499 100 424.245 100C424.84 100 425.391 100.107 425.914 100.311C426.438 100.516 426.891 100.809 427.273 101.191C427.655 101.573 427.966 102.026 428.188 102.568C428.41 103.11 428.525 103.714 428.525 104.389C428.525 105.028 428.41 105.615 428.179 106.157C427.948 106.698 427.628 107.16 427.22 107.551C426.811 107.942 426.314 108.244 425.737 108.466C425.16 108.688 424.529 108.795 423.836 108.795C422.993 108.795 422.273 108.644 421.67 108.342C421.066 108.04 420.568 107.613 420.169 107.063C419.769 106.512 419.476 105.855 419.29 105.082C419.103 104.309 419.005 103.456 419.005 102.505C419.005 101.582 419.094 100.693 419.272 99.8405C419.449 98.9877 419.742 98.2415 420.151 97.5841C420.559 96.9356 421.083 96.4115 421.732 96.0295C422.38 95.6475 423.17 95.4521 424.121 95.4521C424.796 95.4521 425.382 95.5498 425.888 95.7541C426.394 95.9584 426.811 96.216 427.149 96.5447C427.486 96.8734 427.744 97.2376 427.93 97.6551C428.117 98.0727 428.232 98.4902 428.277 98.9166H426.128C426.057 98.2859 425.826 97.8239 425.426 97.5219C425.026 97.2199 424.538 97.0688 423.961 97.0688C423.517 97.0688 423.126 97.1754 422.788 97.3886ZM422.016 106.414C422.487 106.903 423.082 107.143 423.819 107.143C424.183 107.143 424.52 107.08 424.831 106.956C425.142 106.832 425.408 106.654 425.63 106.414C425.852 106.174 426.03 105.89 426.154 105.552C426.279 105.215 426.341 104.833 426.341 104.407C426.341 103.554 426.11 102.887 425.639 102.39C425.169 101.901 424.574 101.653 423.836 101.653C423.099 101.653 422.504 101.901 422.025 102.39C421.554 102.879 421.314 103.554 421.314 104.407C421.314 105.259 421.545 105.934 422.016 106.414Z" fill="black"/>
<path d="M9.57331 142.276V144.204C8.72965 145.013 7.9748 145.83 7.32651 146.656C6.66935 147.482 6.10987 148.353 5.65695 149.277C5.19516 150.192 4.83994 151.169 4.57352 152.208C4.3071 153.247 4.13837 154.376 4.06732 155.602H1.58075C1.64291 154.429 1.82941 153.301 2.13135 152.235C2.43329 151.169 2.8418 150.156 3.34799 149.205C3.85419 148.246 4.43143 147.358 5.10636 146.523C5.7724 145.688 6.49173 144.915 7.26435 144.204H0V142.276H9.57331Z" fill="black"/>
<path d="M448.658 234.912C449.2 235.081 449.661 235.303 450.043 235.596C450.425 235.89 450.727 236.236 450.931 236.645C451.135 237.053 451.242 237.498 451.242 237.968C451.242 238.528 451.118 239.061 450.86 239.594C450.603 240.118 450.185 240.553 449.59 240.9C450.345 241.291 450.878 241.77 451.18 242.348C451.482 242.925 451.633 243.512 451.633 244.116C451.633 244.755 451.508 245.315 451.26 245.795C451.011 246.274 450.674 246.683 450.247 247.012C449.821 247.34 449.315 247.589 448.729 247.758C448.143 247.927 447.512 248.007 446.837 248.007C446.162 248.007 445.532 247.927 444.946 247.758C444.36 247.589 443.853 247.34 443.427 247.012C443.001 246.683 442.663 246.274 442.415 245.795C442.166 245.315 442.042 244.755 442.042 244.116C442.042 243.823 442.077 243.52 442.148 243.218C442.219 242.916 442.335 242.623 442.495 242.348C442.654 242.072 442.868 241.806 443.125 241.557C443.383 241.309 443.702 241.086 444.084 240.9C443.516 240.58 443.099 240.154 442.832 239.612C442.566 239.07 442.432 238.528 442.432 237.968C442.432 237.498 442.539 237.053 442.743 236.645C442.948 236.236 443.241 235.89 443.622 235.596C444.004 235.303 444.466 235.081 445.008 234.912C445.55 234.744 446.162 234.664 446.837 234.664C447.512 234.664 448.116 234.744 448.658 234.912ZM444.946 242.321C444.475 242.739 444.244 243.307 444.244 244.027C444.244 244.764 444.475 245.333 444.946 245.741C445.416 246.15 446.047 246.354 446.837 246.354C447.628 246.354 448.258 246.15 448.729 245.741C449.2 245.333 449.43 244.764 449.43 244.027C449.43 243.307 449.2 242.739 448.729 242.321C448.258 241.904 447.637 241.699 446.837 241.699C446.047 241.708 445.416 241.913 444.946 242.321ZM448.525 236.787C448.107 236.44 447.548 236.272 446.837 236.272C446.136 236.272 445.576 236.44 445.15 236.787C444.724 237.133 444.511 237.613 444.511 238.226C444.511 238.839 444.724 239.336 445.15 239.71C445.576 240.083 446.136 240.269 446.837 240.269C447.548 240.269 448.107 240.083 448.525 239.71C448.942 239.336 449.146 238.839 449.146 238.226C449.146 237.613 448.933 237.133 448.525 236.787Z" fill="black"/>
<path d="M341.691 343.201C343.162 343.201 344.355 342.008 344.355 340.536C344.355 339.064 343.162 337.871 341.691 337.871C340.219 337.871 339.027 339.064 339.027 340.536C339.027 342.008 340.219 343.201 341.691 343.201Z" fill="black"/>
<path d="M175.623 27.8406C177.095 27.8406 178.287 26.6474 178.287 25.1755C178.287 23.7037 177.095 22.5105 175.623 22.5105C174.152 22.5105 172.959 23.7037 172.959 25.1755C172.959 26.6474 174.152 27.8406 175.623 27.8406Z" fill="black"/>
<path d="M67.2795 336.094C68.7509 336.094 69.9437 334.901 69.9437 333.429C69.9437 331.957 68.7509 330.764 67.2795 330.764C65.8082 330.764 64.6154 331.957 64.6154 333.429C64.6154 334.901 65.8082 336.094 67.2795 336.094Z" fill="black"/>
<path d="M104.578 331.653C106.05 331.653 107.242 330.459 107.242 328.988C107.242 327.516 106.05 326.323 104.578 326.323C103.107 326.323 101.914 327.516 101.914 328.988C101.914 330.459 103.107 331.653 104.578 331.653Z" fill="black"/>
<path d="M67.2795 305.002C68.7509 305.002 69.9437 303.809 69.9437 302.337C69.9437 300.866 68.7509 299.672 67.2795 299.672C65.8082 299.672 64.6154 300.866 64.6154 302.337C64.6154 303.809 65.8082 305.002 67.2795 305.002Z" fill="black"/>
<path d="M408.295 105.126C409.767 105.126 410.96 103.933 410.96 102.461C410.96 100.989 409.767 99.7961 408.295 99.7961C406.824 99.7961 405.631 100.989 405.631 102.461C405.631 103.933 406.824 105.126 408.295 105.126Z" fill="black"/>
<path d="M29.981 151.32C31.4523 151.32 32.6451 150.127 32.6451 148.655C32.6451 147.183 31.4523 145.99 29.981 145.99C28.5096 145.99 27.3168 147.183 27.3168 148.655C27.3168 150.127 28.5096 151.32 29.981 151.32Z" fill="black"/>
<path d="M446.482 223.275C447.953 223.275 449.146 222.082 449.146 220.61C449.146 219.138 447.953 217.945 446.482 217.945C445.011 217.945 443.818 219.138 443.818 220.61C443.818 222.082 445.011 223.275 446.482 223.275Z" fill="black"/>
<path d="M408.295 80.2526C409.767 80.2526 410.96 79.0594 410.96 77.5876C410.96 76.1157 409.767 74.9225 408.295 74.9225C406.824 74.9225 405.631 76.1157 405.631 77.5876C405.631 79.0594 406.824 80.2526 408.295 80.2526Z" fill="black"/>
</g>
<defs>
<clipPath id="clip0_717_10688">
<rect width="506" height="388" fill="white"/>
</clipPath>
</defs>
</svg>
