<svg width="248" height="323" viewBox="0 0 248 323" fill="none" xmlns="http://www.w3.org/2000/svg">
<g clip-path="url(#clip0_721_14903)">
<path d="M110.436 158.405C105.537 158.405 100.601 158.234 95.6837 157.876C74.693 156.363 57.1785 151.762 48.8329 145.567C45.1558 142.837 43.2932 139.864 43.2932 136.724C43.2932 125.365 52.5724 111.367 96.7801 109.162C106.275 108.69 118.738 110.103 118.862 110.117L118.781 110.828C118.657 110.814 106.251 109.406 96.8136 109.874C53.1709 112.05 44.0066 125.675 44.0066 136.719C44.0066 139.621 45.7734 142.398 49.2591 144.985C57.4992 151.103 74.875 155.652 95.7315 157.155C117.641 158.735 139.982 156.725 157.018 151.648C185.823 143.057 199.478 124.74 196.036 111.993C194.954 107.984 193.172 104.252 190.74 100.892L191.324 100.472C193.809 103.898 195.629 107.712 196.73 111.806C200.259 124.883 186.45 143.615 157.224 152.33C143.937 156.301 127.438 158.405 110.436 158.405Z" fill="black"/>
<path d="M160.762 82.188C146.705 77.9835 128.563 75.8931 106.854 75.9933C89.1241 76.0697 74.8271 77.9548 64.3557 81.5915L64.1211 80.9138C74.6643 77.2485 89.0427 75.3538 106.849 75.2727C128.644 75.1772 146.844 77.2723 160.968 81.5008L160.762 82.188Z" fill="black"/>
<path d="M43.8678 106.079L43.7816 105.807C43.7576 105.73 43.1831 103.855 43.4321 101.029C43.6619 98.433 44.6721 94.5147 48.1626 90.5869L48.6989 91.0594C42.9772 97.4975 44.0689 103.936 44.3944 105.32L119.269 100.089L119.317 100.805L43.8678 106.079Z" fill="black"/>
<path d="M106.62 197.865C102.909 197.865 99.3657 197.726 96.0476 197.454C92.0592 197.125 87.9989 196.581 83.9866 195.827L84.1206 195.125C88.1091 195.87 92.1406 196.414 96.1098 196.743C120.184 198.724 156.645 193.565 176.797 180.096C188.705 172.141 195.638 163.989 196.845 156.53C197.472 152.654 196.495 149.037 193.953 145.772C190.664 141.554 185.641 137.273 185.588 137.23L186.053 136.686C186.105 136.728 191.181 141.062 194.518 145.333C197.19 148.76 198.209 152.564 197.553 156.644C196.318 164.304 189.28 172.623 177.2 180.693C159.685 192.386 129.98 197.865 106.62 197.865Z" fill="black"/>
<path d="M71.3079 192.677C61.7702 189.656 49.3788 184.02 44.5238 174.351C42.8384 170.991 42.6086 167.636 43.8439 164.376C45.5532 159.856 49.8241 156.325 53.0991 154.158C56.6327 151.824 59.8119 150.526 59.8454 150.512L60.1136 151.175C59.9891 151.228 47.6647 156.296 44.5142 164.629C43.3555 167.693 43.571 170.857 45.1654 174.031C49.9055 183.48 62.1149 189.016 71.5234 191.999L71.3079 192.677Z" fill="black"/>
<path d="M193.804 199.821L193.115 199.616C195.155 192.772 194.767 183.385 181.332 177.534L181.619 176.88C195.538 182.941 195.926 192.701 193.804 199.821Z" fill="black"/>
<path d="M102.976 240.135C94.2473 240.135 86.3279 239.428 79.7252 238.011C65.3851 234.933 55.4787 230.284 50.279 224.195C45.4861 218.582 45.5005 212.826 45.9314 208.989C46.9082 200.232 66.5821 191.078 67.42 190.691L67.7217 191.34C67.5206 191.431 47.5785 200.709 46.6448 209.066C44.586 227.55 64.6238 234.04 79.8785 237.309C94.3814 240.421 115.271 240.073 137.201 236.35C160.762 232.351 179.024 222.5 188.614 208.612L189.208 209.018C179.503 223.068 161.078 233.024 137.325 237.057C125.269 239.104 113.529 240.135 102.976 240.135Z" fill="black"/>
<path d="M95.8369 276.439C82.5406 276.439 70.7716 274.554 61.8037 270.984C52.4383 267.257 46.8651 261.945 45.692 255.621C44.6818 250.19 48.3973 244.797 56.4268 240.02C62.4261 236.455 68.799 234.445 68.866 234.422L69.0815 235.104C68.8325 235.18 44.0928 243.06 46.4007 255.487C48.651 267.586 68.5165 275.718 95.8417 275.718C127.127 275.718 160.284 264.684 175.6 254.304C190.046 244.511 195.475 234.775 192.689 223.664C190.85 216.324 184.746 214.315 184.683 214.296L184.899 213.613C184.966 213.632 191.444 215.751 193.383 223.492C196.213 234.779 190.529 245.05 175.998 254.896C160.595 265.343 127.265 276.439 95.8369 276.439Z" fill="black"/>
<path d="M121.007 238.975H118.613V248.878H121.007V238.975Z" fill="black"/>
<path d="M121.007 196.943H118.613V211.652H121.007V196.943Z" fill="black"/>
<path d="M121.007 157.865H118.613V166.79H121.007V157.865Z" fill="black"/>
<path d="M120.974 56.5449H118.58V129.087H120.974V56.5449Z" fill="black"/>
<path d="M121.028 207.642L120.421 208.025L138.628 236.599L139.234 236.216L121.028 207.642Z" fill="black"/>
<path d="M120.477 211.048L46.6006 216L46.6488 216.714L120.525 211.762L120.477 211.048Z" fill="black"/>
<path d="M120.816 166.374L120.195 166.735L136.697 194.918L137.318 194.557L120.816 166.374Z" fill="black"/>
<path d="M119.995 166.674L44.8228 173.832L44.8911 174.545L120.063 167.387L119.995 166.674Z" fill="black"/>
<path d="M121.73 129.098L121.183 129.562L143.43 155.613L143.977 155.149L121.73 129.098Z" fill="black"/>
<path d="M96.3669 75.1643L95.7768 75.5723L113.5 101.043L114.09 100.635L96.3669 75.1643Z" fill="black"/>
<path d="M120.807 248.456L120.195 248.83L134.023 271.287L134.635 270.913L120.807 248.456Z" fill="black"/>
<path d="M120.548 297.376H119.629V296.66H120.548H121.065V297.376H120.548ZM122.501 297.372L122.497 296.656C122.971 296.651 123.449 296.646 123.933 296.641L123.943 297.357C123.459 297.362 122.98 297.367 122.501 297.372ZM118.187 297.367C117.704 297.362 117.225 297.357 116.751 297.352L116.761 296.637C117.235 296.641 117.713 296.646 118.197 296.651L118.187 297.367ZM125.379 297.338L125.369 296.622C125.843 296.613 126.322 296.608 126.806 296.598L126.82 297.314C126.337 297.319 125.853 297.329 125.379 297.338ZM115.315 297.329C114.831 297.319 114.352 297.309 113.878 297.295L113.897 296.579C114.371 296.589 114.85 296.603 115.329 296.613L115.315 297.329ZM128.252 297.281L128.233 296.565C128.707 296.555 129.185 296.541 129.664 296.527L129.683 297.243C129.209 297.252 128.731 297.267 128.252 297.281ZM112.437 297.257C111.953 297.243 111.475 297.228 111.001 297.209L111.025 296.493C111.499 296.512 111.977 296.527 112.456 296.541L112.437 297.257ZM131.129 297.195L131.105 296.479C131.532 296.465 132.01 296.446 132.542 296.422L132.575 297.138C132.039 297.161 131.556 297.181 131.129 297.195ZM109.564 297.152C109.081 297.133 108.602 297.109 108.128 297.085L108.161 296.369C108.635 296.393 109.114 296.412 109.593 296.436L109.564 297.152ZM134.017 297.061L133.973 296.345C134.424 296.322 134.902 296.288 135.405 296.255L135.453 296.971C134.95 297.004 134.471 297.037 134.017 297.061ZM106.691 297.014C106.208 296.985 105.729 296.961 105.255 296.928L105.298 296.212C105.772 296.24 106.246 296.269 106.73 296.293L106.691 297.014ZM136.894 296.866L136.837 296.15C137.296 296.112 137.775 296.073 138.268 296.026L138.335 296.737C137.837 296.784 137.359 296.827 136.894 296.866ZM103.819 296.837C103.335 296.804 102.856 296.77 102.382 296.732L102.435 296.016C102.909 296.05 103.383 296.088 103.866 296.121L103.819 296.837ZM100.951 296.622C100.467 296.584 99.9929 296.541 99.5189 296.498L99.586 295.787C100.06 295.83 100.534 295.873 101.013 295.911L100.951 296.622ZM139.767 296.603L139.695 295.892C140.16 295.844 140.634 295.797 141.122 295.739L141.203 296.45C140.715 296.503 140.236 296.555 139.767 296.603ZM98.0825 296.36C97.5989 296.312 97.1249 296.264 96.6509 296.212L96.7275 295.501C97.1967 295.553 97.6755 295.601 98.1543 295.649L98.0825 296.36ZM142.635 296.283L142.549 295.572C143.013 295.515 143.492 295.453 143.971 295.391L144.067 296.102C143.583 296.164 143.104 296.226 142.635 296.283ZM95.2241 296.054C94.7453 295.997 94.2665 295.94 93.7972 295.882L93.8882 295.171C94.3574 295.229 94.8314 295.286 95.3102 295.343L95.2241 296.054ZM145.493 295.902L145.393 295.195C145.857 295.128 146.331 295.057 146.81 294.98L146.92 295.687C146.437 295.763 145.963 295.835 145.493 295.902ZM92.3656 295.696C91.8868 295.634 91.4128 295.567 90.9388 295.501L91.0393 294.794C91.5086 294.861 91.9826 294.928 92.4566 294.99L92.3656 295.696ZM148.342 295.458L148.223 294.751C148.687 294.675 149.161 294.594 149.635 294.508L149.76 295.214C149.286 295.295 148.812 295.381 148.342 295.458ZM89.5168 295.291C89.038 295.219 88.5639 295.143 88.0947 295.066L88.2096 294.36C88.6741 294.436 89.1481 294.513 89.6221 294.584L89.5168 295.291ZM151.182 294.952L151.048 294.25C151.512 294.16 151.981 294.069 152.455 293.973L152.599 294.675C152.12 294.77 151.651 294.861 151.182 294.952ZM86.6775 294.823C86.1987 294.737 85.7294 294.656 85.2602 294.565L85.3943 293.864C85.8587 293.95 86.3279 294.036 86.8019 294.117L86.6775 294.823ZM154.007 294.374L153.853 293.673C154.318 293.573 154.782 293.468 155.251 293.363L155.414 294.059C154.94 294.169 154.471 294.274 154.007 294.374ZM83.8477 294.293C83.3737 294.198 82.8997 294.102 82.4353 294.002L82.5837 293.301C83.0434 293.396 83.5126 293.496 83.9866 293.587L83.8477 294.293ZM156.817 293.73L156.65 293.033C157.109 292.923 157.574 292.804 158.038 292.685L158.215 293.377C157.751 293.501 157.282 293.62 156.817 293.73ZM81.0276 293.697C80.5536 293.592 80.0844 293.482 79.6247 293.372L79.7923 292.675C80.2519 292.785 80.7164 292.895 81.1856 293L81.0276 293.697ZM78.2266 293.028C77.7574 292.909 77.293 292.785 76.8333 292.661L77.02 291.969C77.4749 292.093 77.9345 292.212 78.4038 292.332L78.2266 293.028ZM159.609 293.014L159.422 292.322C159.881 292.198 160.341 292.069 160.801 291.936L161.002 292.623C160.537 292.756 160.073 292.89 159.609 293.014ZM75.4448 292.274C74.9756 292.141 74.5159 292.002 74.061 291.864L74.2717 291.182C74.7218 291.32 75.1766 291.454 75.6411 291.587L75.4448 292.274ZM162.381 292.217L162.17 291.53C162.625 291.392 163.08 291.248 163.535 291.105L163.755 291.788C163.3 291.936 162.84 292.079 162.381 292.217ZM72.6869 291.434C72.2224 291.287 71.7676 291.134 71.3175 290.976L71.5521 290.299C71.9974 290.451 72.4475 290.604 72.9071 290.752L72.6869 291.434ZM165.129 291.339L164.899 290.661C165.349 290.509 165.799 290.351 166.249 290.194L166.489 290.867C166.039 291.029 165.584 291.186 165.129 291.339ZM69.9625 290.499C69.5028 290.332 69.0528 290.16 68.6123 289.988L68.8708 289.32C69.3065 289.492 69.7518 289.659 70.2067 289.821L69.9625 290.499ZM167.844 290.37L167.59 289.702C168.035 289.535 168.481 289.363 168.921 289.191L169.185 289.855C168.739 290.031 168.294 290.203 167.844 290.37ZM67.2764 289.454C66.8263 289.268 66.3811 289.077 65.9501 288.886L66.2422 288.232C66.6731 288.423 67.1088 288.609 67.5541 288.79L67.2764 289.454ZM170.52 289.311L170.243 288.652C170.683 288.471 171.119 288.28 171.555 288.089L171.847 288.743C171.406 288.938 170.966 289.129 170.52 289.311ZM64.6334 288.289C64.1929 288.079 63.7572 287.869 63.3359 287.659L63.6567 287.02C64.0732 287.23 64.5042 287.435 64.9399 287.64L64.6334 288.289ZM173.163 288.151L172.862 287.502C173.293 287.301 173.724 287.096 174.15 286.886L174.466 287.531C174.035 287.741 173.599 287.946 173.163 288.151ZM62.0527 286.996C61.6218 286.767 61.2004 286.533 60.7887 286.294L61.1478 285.674C61.5547 285.908 61.9665 286.137 62.3926 286.366L62.0527 286.996ZM175.758 286.881L175.428 286.247C175.849 286.027 176.271 285.803 176.692 285.574L177.037 286.204C176.611 286.433 176.185 286.657 175.758 286.881ZM59.5486 285.555C59.132 285.297 58.725 285.039 58.3324 284.777L58.7298 284.18C59.1176 284.438 59.5198 284.691 59.9268 284.944L59.5486 285.555ZM178.296 285.493L177.937 284.872C178.349 284.634 178.761 284.39 179.168 284.142L179.541 284.753C179.124 285.006 178.713 285.249 178.296 285.493ZM180.762 283.98L180.369 283.378C180.767 283.121 181.164 282.853 181.557 282.586L181.964 283.173C181.566 283.45 181.169 283.717 180.762 283.98ZM57.1402 283.961C56.7428 283.674 56.355 283.388 55.9767 283.102L56.4172 282.534C56.7859 282.815 57.1641 283.102 57.5568 283.378L57.1402 283.961ZM183.146 282.343L182.72 281.765C183.103 281.484 183.486 281.197 183.86 280.906L184.3 281.469C183.922 281.77 183.534 282.056 183.146 282.343ZM54.8467 282.19C54.4685 281.875 54.1046 281.555 53.7551 281.24L54.2387 280.711C54.5834 281.021 54.9377 281.331 55.3064 281.641L54.8467 282.19ZM185.43 280.567L184.971 280.019C185.335 279.718 185.698 279.408 186.053 279.093L186.527 279.627C186.168 279.947 185.804 280.262 185.43 280.567ZM52.7065 280.243C52.3618 279.899 52.0218 279.546 51.7058 279.198L52.2373 278.716C52.5485 279.059 52.8789 279.403 53.2188 279.737L52.7065 280.243ZM187.599 278.658L187.106 278.138C187.451 277.814 187.791 277.484 188.121 277.146L188.633 277.647C188.294 277.99 187.949 278.329 187.599 278.658ZM50.753 278.105C50.4418 277.733 50.1401 277.346 49.8576 276.964L50.4322 276.539C50.7099 276.912 51.002 277.289 51.3036 277.651L50.753 278.105ZM189.629 276.606L189.103 276.119C189.423 275.771 189.735 275.423 190.041 275.065L190.587 275.532C190.276 275.895 189.955 276.253 189.629 276.606ZM49.0245 275.781C48.7564 275.375 48.4978 274.964 48.2536 274.549L48.8713 274.187C49.1059 274.587 49.3597 274.988 49.6182 275.384L49.0245 275.781ZM191.511 274.416L190.946 273.972C191.238 273.604 191.525 273.227 191.808 272.845L192.387 273.27C192.1 273.657 191.808 274.039 191.511 274.416ZM47.5546 273.275C47.3343 272.845 47.1237 272.402 46.9321 271.963L47.5881 271.676C47.7748 272.101 47.9807 272.53 48.1914 272.95L47.5546 273.275ZM193.22 272.082L192.627 271.681C192.89 271.29 193.149 270.894 193.398 270.488L194.01 270.865C193.752 271.28 193.488 271.686 193.22 272.082ZM46.3911 270.617C46.2235 270.168 46.0703 269.705 45.9267 269.237L46.6161 269.032C46.7502 269.481 46.9034 269.929 47.0662 270.369L46.3911 270.617ZM194.738 269.619L194.111 269.276C194.346 268.856 194.561 268.436 194.762 268.02L195.408 268.331C195.203 268.751 194.978 269.185 194.738 269.619ZM45.5484 267.839C45.4383 267.371 45.3377 266.894 45.2563 266.417L45.965 266.293C46.0464 266.756 46.1421 267.219 46.2475 267.672L45.5484 267.839ZM195.997 266.994L195.332 266.727C195.514 266.283 195.672 265.835 195.806 265.405L196.491 265.62C196.347 266.073 196.184 266.531 195.997 266.994ZM45.0505 264.976C44.9978 264.498 44.9547 264.012 44.9308 263.525L45.649 263.487C45.6729 263.959 45.716 264.431 45.7687 264.894L45.0505 264.976ZM196.869 264.207L196.165 264.054C196.266 263.592 196.342 263.129 196.39 262.68L197.103 262.756C197.056 263.234 196.974 263.72 196.869 264.207ZM45.6107 262.079L44.8925 262.074C44.8925 261.592 44.9116 261.1 44.9403 260.623L45.6585 260.666C45.625 261.134 45.6107 261.611 45.6107 262.079ZM196.462 261.296C196.457 260.828 196.419 260.37 196.352 259.921L197.06 259.816C197.132 260.294 197.17 260.79 197.175 261.286L196.462 261.296ZM45.7878 259.263L45.0744 259.177C45.1319 258.695 45.2085 258.213 45.2946 257.74L45.9985 257.869C45.9171 258.327 45.8453 258.795 45.7878 259.263ZM196.055 258.58C195.926 258.141 195.758 257.712 195.566 257.292L196.218 256.991C196.424 257.44 196.601 257.903 196.74 258.375L196.055 258.58ZM46.3049 256.495L45.6107 256.318C45.7926 255.607 45.941 255.211 45.9458 255.197L46.0272 254.987L46.5539 254.939L46.6257 255.445C46.6257 255.445 46.6209 255.464 46.6066 255.497L46.6209 255.65L46.5539 255.655C46.4917 255.831 46.4007 256.118 46.3049 256.495ZM194.901 256.08C194.657 255.698 194.379 255.321 194.077 254.963L194.628 254.505C194.949 254.886 195.241 255.287 195.504 255.693L194.901 256.08ZM48.043 255.521L47.9807 254.81L49.4123 254.681L49.4746 255.392L48.043 255.521ZM50.9062 255.263L50.844 254.552L52.2756 254.423L52.3378 255.135L50.9062 255.263ZM53.7646 255.011L53.7024 254.299L55.134 254.171L55.1963 254.882L53.7646 255.011ZM56.6279 254.753L56.5656 254.042L57.9973 253.913L58.0595 254.624L56.6279 254.753ZM59.4911 254.5L59.4289 253.789L60.8605 253.66L60.9227 254.371L59.4911 254.5ZM62.3496 254.242L62.2873 253.531L63.7189 253.402L63.7812 254.113L62.3496 254.242ZM65.2128 253.984L65.1505 253.273L66.5822 253.144L66.6444 253.856L65.2128 253.984ZM193.129 253.946C192.799 253.631 192.445 253.321 192.071 253.025L192.517 252.467C192.909 252.777 193.278 253.102 193.623 253.431L193.129 253.946ZM68.0712 253.731L68.009 253.02L69.4406 252.892L69.5029 253.603L68.0712 253.731ZM70.9345 253.474L70.8722 252.763L72.3038 252.634L72.3661 253.345L70.9345 253.474ZM73.7977 253.216L73.7355 252.505L75.1671 252.376L75.2293 253.087L73.7977 253.216ZM76.6561 252.963L76.5939 252.252L78.0255 252.123L78.0878 252.834L76.6561 252.963ZM79.5194 252.705L79.4571 251.994L80.8888 251.865L80.951 252.577L79.5194 252.705ZM82.3778 252.452L82.3156 251.741L83.7472 251.612L83.8094 252.324L82.3778 252.452ZM190.932 252.2C190.549 251.947 190.146 251.698 189.73 251.46L190.084 250.839C190.515 251.083 190.936 251.34 191.329 251.603L190.932 252.2ZM85.2411 252.195L85.1788 251.484L86.6104 251.355L86.6727 252.066L85.2411 252.195ZM88.1043 251.937L88.042 251.226L89.4737 251.097L89.5359 251.808L88.1043 251.937ZM90.9627 251.684L90.9005 250.973L92.3321 250.844L92.3944 251.555L90.9627 251.684ZM93.826 251.426L93.7637 250.715L95.1953 250.586L95.2576 251.297L93.826 251.426ZM96.6844 251.169L96.6222 250.458L98.0538 250.329L98.116 251.04L96.6844 251.169ZM99.5476 250.916L99.4854 250.205L100.917 250.076L100.979 250.787L99.5476 250.916ZM188.48 250.806C188.064 250.605 187.628 250.41 187.187 250.224L187.465 249.565C187.92 249.751 188.365 249.956 188.796 250.162L188.48 250.806ZM102.411 250.658L102.349 249.947L103.78 249.818L103.842 250.529L102.411 250.658ZM105.269 250.4L105.207 249.689L106.639 249.56L106.701 250.271L105.269 250.4ZM108.133 250.147L108.07 249.436L109.502 249.307L109.564 250.018L108.133 250.147ZM110.991 249.89L110.929 249.178L112.36 249.05L112.423 249.761L110.991 249.89ZM185.861 249.713C185.411 249.556 184.956 249.408 184.511 249.279L184.712 248.591C185.172 248.725 185.636 248.878 186.101 249.04L185.861 249.713ZM113.854 249.637L113.792 248.926L115.224 248.797L115.286 249.508L113.854 249.637ZM116.717 249.379L116.655 248.668L118.087 248.539L118.149 249.25L116.717 249.379ZM119.576 249.121L119.514 248.41L120.945 248.281L121.008 248.992L119.576 249.121Z" fill="black"/>
<path d="M121.757 273.656L121.145 274.03L140.295 305.147L140.907 304.773L121.757 273.656Z" fill="black"/>
<path d="M63.0825 270.744L18.9782 272.147L19.0011 272.863L63.1054 271.46L63.0825 270.744Z" fill="black"/>
<path d="M94.6686 308.649L94.6111 307.933L246.755 296.054L204.568 229.43H195.82V228.714H204.965L248 296.675L94.6686 308.649Z" fill="black"/>
<path d="M39.3671 312.964L1.17786 238.76L64.461 235.873L64.4946 236.589L2.32698 239.424L39.7884 312.214L63.4891 310.363L63.5465 311.079L39.3671 312.964Z" fill="black"/>
<path d="M196.427 112.854L120.475 116.553L120.51 117.268L196.462 113.569L196.427 112.854Z" fill="black"/>
<path d="M43.8582 138.618L43.772 137.907L116.895 129.054L99.3034 109.682L99.8397 109.205L118.355 129.598L43.8582 138.618Z" fill="black"/>
<path d="M196.444 149.982L160.935 150.467L160.945 151.183L196.454 150.698L196.444 149.982Z" fill="black"/>
<path d="M193.716 188.844L155.811 189.777L155.829 190.493L193.734 189.56L193.716 188.844Z" fill="black"/>
<path d="M193.646 226.81H166.977V227.525H193.646V226.81Z" fill="black"/>
<path d="M158.986 263.687L158.948 262.971L217.448 259.849L209.456 257.573L209.653 256.886L221.771 260.336L158.986 263.687Z" fill="black"/>
<path d="M219.439 259.768L212.737 263.108L213.058 263.749L219.76 260.409L219.439 259.768Z" fill="black"/>
<path d="M194.906 135.673L194.719 134.981C194.939 134.924 216.705 128.839 217.4 109.076L218.118 109.1C217.405 129.398 195.131 135.616 194.906 135.673Z" fill="black"/>
<path d="M196.848 129.868L194.485 135.197L195.141 135.487L197.505 130.157L196.848 129.868Z" fill="black"/>
<path d="M194.977 135.002L194.658 135.644L199.666 138.115L199.985 137.473L194.977 135.002Z" fill="black"/>
<path d="M4.31341 92.4061L0.00305176 100.521L0.637799 100.856L4.94816 92.7411L4.31341 92.4061Z" fill="black"/>
<path d="M4.75428 92.2431L4.4986 92.9121L14.5526 96.7298L14.8083 96.0608L4.75428 92.2431Z" fill="black"/>
<path d="M39.5777 114.073C37.0592 114.073 34.0524 113.863 30.83 113.209C22.7239 111.562 11.5487 106.67 4.3092 92.7395L4.94601 92.4102C12.0466 106.079 23.0064 110.88 30.9449 112.503C39.5729 114.264 46.6113 112.765 46.6831 112.746L46.8363 113.443C46.7933 113.457 43.9109 114.073 39.5777 114.073Z" fill="black"/>
<path d="M226.286 68.3869L219.353 75.1289L219.854 75.6413L226.788 68.8994L226.286 68.3869Z" fill="black"/>
<path d="M226.747 68.3524L226.332 68.9365L235.201 75.1995L235.616 74.6153L226.747 68.3524Z" fill="black"/>
<path d="M206.612 102.509L206.296 101.865C206.541 101.745 230.462 89.7663 226.191 68.7242L226.894 68.5811C231.275 90.1672 206.857 102.39 206.612 102.509Z" fill="black"/>
<path d="M5.62409 164.519L0.573547 169.762L1.09159 170.258L6.14213 165.015L5.62409 164.519Z" fill="black"/>
<path d="M30.605 190.248C30.3656 190.21 6.6649 186.172 5.52057 164.791L6.23877 164.753C7.35438 185.552 30.4901 189.503 30.7199 189.537L30.605 190.248Z" fill="black"/>
<path d="M146.566 36.9645L140.821 43.1689L141.349 43.6545L147.093 37.45L146.566 36.9645Z" fill="black"/>
<path d="M147.032 36.9202L146.623 37.5088L152.847 41.8036L153.256 41.215L147.032 36.9202Z" fill="black"/>
<path d="M131.134 70.963L130.923 70.2805C130.971 70.2662 135.932 68.6865 140.303 63.8519C144.335 59.3944 148.677 51.1618 146.475 37.2689L147.184 37.1592C148.424 44.9909 148.328 56.0679 140.811 64.3578C136.31 69.326 131.345 70.901 131.134 70.963Z" fill="black"/>
<path d="M123.018 24.7633L122.309 24.877L123.654 33.2123L124.363 33.0987L123.018 24.7633Z" fill="black"/>
<path d="M123.904 32.8063L116.671 35.0322L116.883 35.7162L124.116 33.4904L123.904 32.8063Z" fill="black"/>
<path d="M123.837 33.465C116.89 29.5992 108.214 22.6743 106.318 11.6641C105.183 5.06365 107.007 0.205219 107.089 0L107.759 0.257717C107.74 0.305442 105.92 5.16865 107.036 11.5829C108.066 17.4961 111.872 25.9864 124.192 32.8445L123.837 33.465Z" fill="black"/>
<path d="M228.652 194.557C214.436 177.71 196.577 177.877 196.4 177.877L196.385 177.161C196.577 177.161 214.771 176.994 229.202 194.094L228.652 194.557Z" fill="black"/>
<path d="M228.899 193.956L220.551 194.391L220.588 195.106L228.936 194.671L228.899 193.956Z" fill="black"/>
<path d="M228.987 187.829L228.584 194.308L229.301 194.352L229.704 187.874L228.987 187.829Z" fill="black"/>
<path d="M75.7779 49.7322L75.1443 50.0693L78.3325 56.0227L78.9661 55.6856L75.7779 49.7322Z" fill="black"/>
<path d="M107.783 64.1379C99.5284 48.3074 75.732 50.2308 75.4926 50.2499L75.4304 49.5387C75.6745 49.5149 99.945 47.5534 108.42 63.8086L107.783 64.1379Z" fill="black"/>
<path d="M79.6195 45.0002L75.2 49.6494L75.7214 50.1418L80.1408 45.4926L79.6195 45.0002Z" fill="black"/>
<path d="M6.07775 164.471L5.67987 165.067L10.9972 168.594L11.3951 167.998L6.07775 164.471Z" fill="black"/>
<path d="M19.3244 217.275L18.6589 217.007C25.3669 200.289 46.5251 198.662 46.7406 198.647L46.7885 199.363C46.5778 199.378 25.8648 200.976 19.3244 217.275Z" fill="black"/>
<path d="M17.916 208.023L17.2066 208.135L18.6437 217.205L19.3531 217.093L17.916 208.023Z" fill="black"/>
<path d="M25.5839 214.423L18.8792 216.812L19.121 217.486L25.8257 215.097L25.5839 214.423Z" fill="black"/>
<path d="M106.131 172.994C106.528 172.994 106.849 172.674 106.849 172.278C106.849 171.883 106.528 171.562 106.131 171.562C105.734 171.562 105.413 171.883 105.413 172.278C105.413 172.674 105.734 172.994 106.131 172.994Z" fill="black"/>
<path d="M116.425 124.076C116.822 124.076 117.144 123.756 117.144 123.36C117.144 122.965 116.822 122.645 116.425 122.645C116.029 122.645 115.707 122.965 115.707 123.36C115.707 123.756 116.029 124.076 116.425 124.076Z" fill="black"/>
<path d="M118.341 130.758C118.737 130.758 119.059 130.437 119.059 130.042C119.059 129.647 118.737 129.326 118.341 129.326C117.944 129.326 117.622 129.647 117.622 130.042C117.622 130.437 117.944 130.758 118.341 130.758Z" fill="black"/>
<path d="M120.256 129.803C120.652 129.803 120.974 129.482 120.974 129.087C120.974 128.692 120.652 128.371 120.256 128.371C119.859 128.371 119.538 128.692 119.538 129.087C119.538 129.482 119.859 129.803 120.256 129.803Z" fill="black"/>
<path d="M117.383 127.417C117.78 127.417 118.101 127.097 118.101 126.701C118.101 126.306 117.78 125.985 117.383 125.985C116.986 125.985 116.665 126.306 116.665 126.701C116.665 127.097 116.986 127.417 117.383 127.417Z" fill="black"/>
<path d="M117.862 120.735C118.258 120.735 118.58 120.415 118.58 120.02C118.58 119.624 118.258 119.304 117.862 119.304C117.465 119.304 117.144 119.624 117.144 120.02C117.144 120.415 117.465 120.735 117.862 120.735Z" fill="black"/>
<path d="M111.637 120.258C112.034 120.258 112.356 119.937 112.356 119.542C112.356 119.147 112.034 118.826 111.637 118.826C111.241 118.826 110.919 119.147 110.919 119.542C110.919 119.937 111.241 120.258 111.637 120.258Z" fill="black"/>
<path d="M117.383 115.963C117.78 115.963 118.101 115.642 118.101 115.247C118.101 114.852 117.78 114.531 117.383 114.531C116.986 114.531 116.665 114.852 116.665 115.247C116.665 115.642 116.986 115.963 117.383 115.963Z" fill="black"/>
<path d="M117.383 114.054C117.78 114.054 118.101 113.733 118.101 113.338C118.101 112.943 117.78 112.622 117.383 112.622C116.986 112.622 116.665 112.943 116.665 113.338C116.665 113.733 116.986 114.054 117.383 114.054Z" fill="black"/>
<path d="M114.51 122.167C114.907 122.167 115.228 121.847 115.228 121.451C115.228 121.056 114.907 120.735 114.51 120.735C114.113 120.735 113.792 121.056 113.792 121.451C113.792 121.847 114.113 122.167 114.51 122.167Z" fill="black"/>
<path d="M107.328 113.1C107.725 113.1 108.046 112.779 108.046 112.384C108.046 111.988 107.725 111.668 107.328 111.668C106.931 111.668 106.61 111.988 106.61 112.384C106.61 112.779 106.931 113.1 107.328 113.1Z" fill="black"/>
<path d="M115.468 113.1C115.864 113.1 116.186 112.779 116.186 112.384C116.186 111.988 115.864 111.668 115.468 111.668C115.071 111.668 114.75 111.988 114.75 112.384C114.75 112.779 115.071 113.1 115.468 113.1Z" fill="black"/>
<path d="M113.553 120.735C113.949 120.735 114.271 120.415 114.271 120.02C114.271 119.624 113.949 119.304 113.553 119.304C113.156 119.304 112.834 119.624 112.834 120.02C112.834 120.415 113.156 120.735 113.553 120.735Z" fill="black"/>
<path d="M114.51 118.826C114.907 118.826 115.228 118.506 115.228 118.11C115.228 117.715 114.907 117.395 114.51 117.395C114.113 117.395 113.792 117.715 113.792 118.11C113.792 118.506 114.113 118.826 114.51 118.826Z" fill="black"/>
<path d="M112.595 118.349C112.992 118.349 113.313 118.028 113.313 117.633C113.313 117.238 112.992 116.917 112.595 116.917C112.198 116.917 111.877 117.238 111.877 117.633C111.877 118.028 112.198 118.349 112.595 118.349Z" fill="black"/>
<path d="M116.425 117.395C116.822 117.395 117.144 117.074 117.144 116.679C117.144 116.283 116.822 115.963 116.425 115.963C116.029 115.963 115.707 116.283 115.707 116.679C115.707 117.074 116.029 117.395 116.425 117.395Z" fill="black"/>
<path d="M122.171 125.508C122.568 125.508 122.889 125.187 122.889 124.792C122.889 124.397 122.568 124.076 122.171 124.076C121.774 124.076 121.453 124.397 121.453 124.792C121.453 125.187 121.774 125.508 122.171 125.508Z" fill="black"/>
<path d="M122.171 115.963C122.568 115.963 122.889 115.642 122.889 115.247C122.889 114.852 122.568 114.531 122.171 114.531C121.774 114.531 121.453 114.852 121.453 115.247C121.453 115.642 121.774 115.963 122.171 115.963Z" fill="black"/>
<path d="M121.213 106.418C121.61 106.418 121.932 106.098 121.932 105.702C121.932 105.307 121.61 104.986 121.213 104.986C120.817 104.986 120.495 105.307 120.495 105.702C120.495 106.098 120.817 106.418 121.213 106.418Z" fill="black"/>
<path d="M123.607 109.281C124.004 109.281 124.326 108.961 124.326 108.565C124.326 108.17 124.004 107.85 123.607 107.85C123.211 107.85 122.889 108.17 122.889 108.565C122.889 108.961 123.211 109.281 123.607 109.281Z" fill="black"/>
<path d="M122.171 97.3497C122.568 97.3497 122.889 97.0292 122.889 96.6338C122.889 96.2385 122.568 95.918 122.171 95.918C121.774 95.918 121.453 96.2385 121.453 96.6338C121.453 97.0292 121.774 97.3497 122.171 97.3497Z" fill="black"/>
<path d="M124.086 115.008C124.483 115.008 124.804 114.687 124.804 114.292C124.804 113.897 124.483 113.576 124.086 113.576C123.69 113.576 123.368 113.897 123.368 114.292C123.368 114.687 123.69 115.008 124.086 115.008Z" fill="black"/>
<path d="M124.565 113.1C124.962 113.1 125.283 112.779 125.283 112.384C125.283 111.988 124.962 111.668 124.565 111.668C124.168 111.668 123.847 111.988 123.847 112.384C123.847 112.779 124.168 113.1 124.565 113.1Z" fill="black"/>
<path d="M125.523 115.008C125.919 115.008 126.241 114.687 126.241 114.292C126.241 113.897 125.919 113.576 125.523 113.576C125.126 113.576 124.804 113.897 124.804 114.292C124.804 114.687 125.126 115.008 125.523 115.008Z" fill="black"/>
<path d="M124.565 107.372C124.962 107.372 125.283 107.052 125.283 106.656C125.283 106.261 124.962 105.94 124.565 105.94C124.168 105.94 123.847 106.261 123.847 106.656C123.847 107.052 124.168 107.372 124.565 107.372Z" fill="black"/>
<path d="M123.607 111.191C124.004 111.191 124.326 110.87 124.326 110.475C124.326 110.079 124.004 109.759 123.607 109.759C123.211 109.759 122.889 110.079 122.889 110.475C122.889 110.87 123.211 111.191 123.607 111.191Z" fill="black"/>
<path d="M129.832 90.1915C130.228 90.1915 130.55 89.871 130.55 89.4756C130.55 89.0803 130.228 88.7598 129.832 88.7598C129.435 88.7598 129.114 89.0803 129.114 89.4756C129.114 89.871 129.435 90.1915 129.832 90.1915Z" fill="black"/>
<path d="M121.692 110.713C122.089 110.713 122.41 110.392 122.41 109.997C122.41 109.602 122.089 109.281 121.692 109.281C121.296 109.281 120.974 109.602 120.974 109.997C120.974 110.392 121.296 110.713 121.692 110.713Z" fill="black"/>
<path d="M121.692 93.5323C122.089 93.5323 122.41 93.2118 122.41 92.8165C122.41 92.4211 122.089 92.1006 121.692 92.1006C121.296 92.1006 120.974 92.4211 120.974 92.8165C120.974 93.2118 121.296 93.5323 121.692 93.5323Z" fill="black"/>
<path d="M125.523 104.031C125.919 104.031 126.241 103.711 126.241 103.315C126.241 102.92 125.919 102.6 125.523 102.6C125.126 102.6 124.804 102.92 124.804 103.315C124.804 103.711 125.126 104.031 125.523 104.031Z" fill="black"/>
<path d="M121.692 108.327C122.089 108.327 122.41 108.007 122.41 107.611C122.41 107.216 122.089 106.896 121.692 106.896C121.296 106.896 120.974 107.216 120.974 107.611C120.974 108.007 121.296 108.327 121.692 108.327Z" fill="black"/>
<path d="M124.086 98.3048C124.483 98.3048 124.804 97.9843 124.804 97.5889C124.804 97.1936 124.483 96.873 124.086 96.873C123.69 96.873 123.368 97.1936 123.368 97.5889C123.368 97.9843 123.69 98.3048 124.086 98.3048Z" fill="black"/>
<path d="M123.607 104.031C124.004 104.031 124.326 103.711 124.326 103.315C124.326 102.92 124.004 102.6 123.607 102.6C123.211 102.6 122.889 102.92 122.889 103.315C122.889 103.711 123.211 104.031 123.607 104.031Z" fill="black"/>
<path d="M121.692 104.031C122.089 104.031 122.41 103.711 122.41 103.315C122.41 102.92 122.089 102.6 121.692 102.6C121.296 102.6 120.974 102.92 120.974 103.315C120.974 103.711 121.296 104.031 121.692 104.031Z" fill="black"/>
<path d="M124.565 116.917C124.962 116.917 125.283 116.597 125.283 116.201C125.283 115.806 124.962 115.485 124.565 115.485C124.168 115.485 123.847 115.806 123.847 116.201C123.847 116.597 124.168 116.917 124.565 116.917Z" fill="black"/>
<path d="M121.692 113.1C122.089 113.1 122.41 112.779 122.41 112.384C122.41 111.988 122.089 111.668 121.692 111.668C121.296 111.668 120.974 111.988 120.974 112.384C120.974 112.779 121.296 113.1 121.692 113.1Z" fill="black"/>
<path d="M128.395 99.7364C128.792 99.7364 129.114 99.4159 129.114 99.0206C129.114 98.6252 128.792 98.3047 128.395 98.3047C127.999 98.3047 127.677 98.6252 127.677 99.0206C127.677 99.4159 127.999 99.7364 128.395 99.7364Z" fill="black"/>
<path d="M123.129 105.941C123.525 105.941 123.847 105.62 123.847 105.225C123.847 104.829 123.525 104.509 123.129 104.509C122.732 104.509 122.41 104.829 122.41 105.225C122.41 105.62 122.732 105.941 123.129 105.941Z" fill="black"/>
<path d="M115.468 115.008C115.864 115.008 116.186 114.687 116.186 114.292C116.186 113.897 115.864 113.576 115.468 113.576C115.071 113.576 114.75 113.897 114.75 114.292C114.75 114.687 115.071 115.008 115.468 115.008Z" fill="black"/>
<path d="M109.243 118.349C109.64 118.349 109.962 118.028 109.962 117.633C109.962 117.238 109.64 116.917 109.243 116.917C108.847 116.917 108.525 117.238 108.525 117.633C108.525 118.028 108.847 118.349 109.243 118.349Z" fill="black"/>
<path d="M112.595 126.94C112.992 126.94 113.313 126.619 113.313 126.224C113.313 125.828 112.992 125.508 112.595 125.508C112.198 125.508 111.877 125.828 111.877 126.224C111.877 126.619 112.198 126.94 112.595 126.94Z" fill="black"/>
<path d="M113.553 128.371C113.949 128.371 114.271 128.051 114.271 127.655C114.271 127.26 113.949 126.939 113.553 126.939C113.156 126.939 112.834 127.26 112.834 127.655C112.834 128.051 113.156 128.371 113.553 128.371Z" fill="black"/>
<path d="M110.68 125.985C111.076 125.985 111.398 125.665 111.398 125.27C111.398 124.874 111.076 124.554 110.68 124.554C110.283 124.554 109.962 124.874 109.962 125.27C109.962 125.665 110.283 125.985 110.68 125.985Z" fill="black"/>
<path d="M119.298 130.758C119.695 130.758 120.016 130.437 120.016 130.042C120.016 129.647 119.695 129.326 119.298 129.326C118.902 129.326 118.58 129.647 118.58 130.042C118.58 130.437 118.902 130.758 119.298 130.758Z" fill="black"/>
<path d="M118.341 129.326C118.737 129.326 119.059 129.006 119.059 128.61C119.059 128.215 118.737 127.895 118.341 127.895C117.944 127.895 117.622 128.215 117.622 128.61C117.622 129.006 117.944 129.326 118.341 129.326Z" fill="black"/>
<path d="M114.51 124.554C114.907 124.554 115.228 124.233 115.228 123.838C115.228 123.443 114.907 123.122 114.51 123.122C114.113 123.122 113.792 123.443 113.792 123.838C113.792 124.233 114.113 124.554 114.51 124.554Z" fill="black"/>
<path d="M121.213 129.803C121.61 129.803 121.932 129.482 121.932 129.087C121.932 128.692 121.61 128.371 121.213 128.371C120.817 128.371 120.495 128.692 120.495 129.087C120.495 129.482 120.817 129.803 121.213 129.803Z" fill="black"/>
<path d="M120.735 129.326C121.131 129.326 121.453 129.006 121.453 128.61C121.453 128.215 121.131 127.895 120.735 127.895C120.338 127.895 120.016 128.215 120.016 128.61C120.016 129.006 120.338 129.326 120.735 129.326Z" fill="black"/>
<path d="M98.2309 113.1C98.6275 113.1 98.9491 112.779 98.9491 112.384C98.9491 111.988 98.6275 111.668 98.2309 111.668C97.8342 111.668 97.5127 111.988 97.5127 112.384C97.5127 112.779 97.8342 113.1 98.2309 113.1Z" fill="black"/>
<path d="M100.625 117.395C101.022 117.395 101.343 117.074 101.343 116.679C101.343 116.283 101.022 115.963 100.625 115.963C100.228 115.963 99.9067 116.283 99.9067 116.679C99.9067 117.074 100.228 117.395 100.625 117.395Z" fill="black"/>
<path d="M114.031 115.963C114.428 115.963 114.75 115.642 114.75 115.247C114.75 114.852 114.428 114.531 114.031 114.531C113.635 114.531 113.313 114.852 113.313 115.247C113.313 115.642 113.635 115.963 114.031 115.963Z" fill="black"/>
<path d="M89.6125 114.531C90.0091 114.531 90.3307 114.211 90.3307 113.815C90.3307 113.42 90.0091 113.1 89.6125 113.1C89.2158 113.1 88.8943 113.42 88.8943 113.815C88.8943 114.211 89.2158 114.531 89.6125 114.531Z" fill="black"/>
<path d="M110.68 115.963C111.076 115.963 111.398 115.642 111.398 115.247C111.398 114.852 111.076 114.531 110.68 114.531C110.283 114.531 109.962 114.852 109.962 115.247C109.962 115.642 110.283 115.963 110.68 115.963Z" fill="black"/>
<path d="M103.977 120.735C104.373 120.735 104.695 120.415 104.695 120.02C104.695 119.624 104.373 119.304 103.977 119.304C103.58 119.304 103.258 119.624 103.258 120.02C103.258 120.415 103.58 120.735 103.977 120.735Z" fill="black"/>
<path d="M117.383 99.2589C117.78 99.2589 118.101 98.9384 118.101 98.543C118.101 98.1477 117.78 97.8271 117.383 97.8271C116.986 97.8271 116.665 98.1477 116.665 98.543C116.665 98.9384 116.986 99.2589 117.383 99.2589Z" fill="black"/>
<path d="M117.862 93.0548C118.258 93.0548 118.58 92.7343 118.58 92.3389C118.58 91.9436 118.258 91.623 117.862 91.623C117.465 91.623 117.144 91.9436 117.144 92.3389C117.144 92.7343 117.465 93.0548 117.862 93.0548Z" fill="black"/>
<path d="M111.159 94.964C111.555 94.964 111.877 94.6435 111.877 94.2481C111.877 93.8527 111.555 93.5322 111.159 93.5322C110.762 93.5322 110.44 93.8527 110.44 94.2481C110.44 94.6435 110.762 94.964 111.159 94.964Z" fill="black"/>
<path d="M115.468 92.5773C115.864 92.5773 116.186 92.2568 116.186 91.8614C116.186 91.466 115.864 91.1455 115.468 91.1455C115.071 91.1455 114.75 91.466 114.75 91.8614C114.75 92.2568 115.071 92.5773 115.468 92.5773Z" fill="black"/>
<path d="M115.468 86.3732C115.864 86.3732 116.186 86.0527 116.186 85.6573C116.186 85.2619 115.864 84.9414 115.468 84.9414C115.071 84.9414 114.75 85.2619 114.75 85.6573C114.75 86.0527 115.071 86.3732 115.468 86.3732Z" fill="black"/>
<path d="M114.989 99.2589C115.386 99.2589 115.707 98.9384 115.707 98.543C115.707 98.1477 115.386 97.8271 114.989 97.8271C114.592 97.8271 114.271 98.1477 114.271 98.543C114.271 98.9384 114.592 99.2589 114.989 99.2589Z" fill="black"/>
<path d="M117.383 91.1456C117.78 91.1456 118.101 90.8251 118.101 90.4297C118.101 90.0344 117.78 89.7139 117.383 89.7139C116.986 89.7139 116.665 90.0344 116.665 90.4297C116.665 90.8251 116.986 91.1456 117.383 91.1456Z" fill="black"/>
<path d="M117.862 94.964C118.258 94.964 118.58 94.6435 118.58 94.2481C118.58 93.8527 118.258 93.5322 117.862 93.5322C117.465 93.5322 117.144 93.8527 117.144 94.2481C117.144 94.6435 117.465 94.964 117.862 94.964Z" fill="black"/>
<path d="M113.553 98.3048C113.949 98.3048 114.271 97.9843 114.271 97.5889C114.271 97.1936 113.949 96.873 113.553 96.873C113.156 96.873 112.834 97.1936 112.834 97.5889C112.834 97.9843 113.156 98.3048 113.553 98.3048Z" fill="black"/>
<path d="M107.807 87.3273C108.204 87.3273 108.525 87.0068 108.525 86.6114C108.525 86.216 108.204 85.8955 107.807 85.8955C107.41 85.8955 107.089 86.216 107.089 86.6114C107.089 87.0068 107.41 87.3273 107.807 87.3273Z" fill="black"/>
<path d="M116.904 97.8273C117.301 97.8273 117.622 97.5068 117.622 97.1114C117.622 96.716 117.301 96.3955 116.904 96.3955C116.507 96.3955 116.186 96.716 116.186 97.1114C116.186 97.5068 116.507 97.8273 116.904 97.8273Z" fill="black"/>
<path d="M113.074 94.4864C113.47 94.4864 113.792 94.1659 113.792 93.7706C113.792 93.3752 113.47 93.0547 113.074 93.0547C112.677 93.0547 112.356 93.3752 112.356 93.7706C112.356 94.1659 112.677 94.4864 113.074 94.4864Z" fill="black"/>
<path d="M109.243 83.0323C109.64 83.0323 109.962 82.7118 109.962 82.3165C109.962 81.9211 109.64 81.6006 109.243 81.6006C108.847 81.6006 108.525 81.9211 108.525 82.3165C108.525 82.7118 108.847 83.0323 109.243 83.0323Z" fill="black"/>
<path d="M116.425 95.4415C116.822 95.4415 117.144 95.121 117.144 94.7256C117.144 94.3303 116.822 94.0098 116.425 94.0098C116.029 94.0098 115.707 94.3303 115.707 94.7256C115.707 95.121 116.029 95.4415 116.425 95.4415Z" fill="black"/>
<path d="M114.51 96.3956C114.907 96.3956 115.228 96.0751 115.228 95.6797C115.228 95.2844 114.907 94.9639 114.51 94.9639C114.113 94.9639 113.792 95.2844 113.792 95.6797C113.792 96.0751 114.113 96.3956 114.51 96.3956Z" fill="black"/>
<path d="M109.243 99.7364C109.64 99.7364 109.962 99.4159 109.962 99.0206C109.962 98.6252 109.64 98.3047 109.243 98.3047C108.847 98.3047 108.525 98.6252 108.525 99.0206C108.525 99.4159 108.847 99.7364 109.243 99.7364Z" fill="black"/>
<path d="M82.4305 114.531C82.8271 114.531 83.1487 114.211 83.1487 113.815C83.1487 113.42 82.8271 113.1 82.4305 113.1C82.0338 113.1 81.7123 113.42 81.7123 113.815C81.7123 114.211 82.0338 114.531 82.4305 114.531Z" fill="black"/>
<path d="M116.425 121.69C116.822 121.69 117.144 121.369 117.144 120.974C117.144 120.578 116.822 120.258 116.425 120.258C116.029 120.258 115.707 120.578 115.707 120.974C115.707 121.369 116.029 121.69 116.425 121.69Z" fill="black"/>
<path d="M116.425 119.304C116.822 119.304 117.144 118.983 117.144 118.588C117.144 118.193 116.822 117.872 116.425 117.872C116.029 117.872 115.707 118.193 115.707 118.588C115.707 118.983 116.029 119.304 116.425 119.304Z" fill="black"/>
<path d="M116.904 125.985C117.301 125.985 117.622 125.665 117.622 125.27C117.622 124.874 117.301 124.554 116.904 124.554C116.507 124.554 116.186 124.874 116.186 125.27C116.186 125.665 116.507 125.985 116.904 125.985Z" fill="black"/>
<path d="M111.159 128.371C111.555 128.371 111.877 128.051 111.877 127.655C111.877 127.26 111.555 126.939 111.159 126.939C110.762 126.939 110.44 127.26 110.44 127.655C110.44 128.051 110.762 128.371 111.159 128.371Z" fill="black"/>
<path d="M112.595 173.234C112.992 173.234 113.313 172.913 113.313 172.518C113.313 172.122 112.992 171.802 112.595 171.802C112.198 171.802 111.877 172.122 111.877 172.518C111.877 172.913 112.198 173.234 112.595 173.234Z" fill="black"/>
<path d="M92.9641 159.87C93.3607 159.87 93.6823 159.55 93.6823 159.154C93.6823 158.759 93.3607 158.438 92.9641 158.438C92.5674 158.438 92.2458 158.759 92.2458 159.154C92.2458 159.55 92.5674 159.87 92.9641 159.87Z" fill="black"/>
<path d="M53.7024 164.643C54.099 164.643 54.4206 164.322 54.4206 163.927C54.4206 163.531 54.099 163.211 53.7024 163.211C53.3057 163.211 52.9842 163.531 52.9842 163.927C52.9842 164.322 53.3057 164.643 53.7024 164.643Z" fill="black"/>
<path d="M118.819 171.324C119.216 171.324 119.538 171.004 119.538 170.608C119.538 170.213 119.216 169.893 118.819 169.893C118.423 169.893 118.101 170.213 118.101 170.608C118.101 171.004 118.423 171.324 118.819 171.324Z" fill="black"/>
<path d="M101.104 160.824C101.5 160.824 101.822 160.504 101.822 160.108C101.822 159.713 101.5 159.393 101.104 159.393C100.707 159.393 100.385 159.713 100.385 160.108C100.385 160.504 100.707 160.824 101.104 160.824Z" fill="black"/>
<path d="M103.498 164.643C103.894 164.643 104.216 164.322 104.216 163.927C104.216 163.531 103.894 163.211 103.498 163.211C103.101 163.211 102.78 163.531 102.78 163.927C102.78 164.322 103.101 164.643 103.498 164.643Z" fill="black"/>
<path d="M78.1212 158.439C78.5179 158.439 78.8394 158.118 78.8394 157.723C78.8394 157.327 78.5179 157.007 78.1212 157.007C77.7246 157.007 77.403 157.327 77.403 157.723C77.403 158.118 77.7246 158.439 78.1212 158.439Z" fill="black"/>
<path d="M91.0489 164.643C91.4455 164.643 91.7671 164.322 91.7671 163.927C91.7671 163.531 91.4455 163.211 91.0489 163.211C90.6522 163.211 90.3307 163.531 90.3307 163.927C90.3307 164.322 90.6522 164.643 91.0489 164.643Z" fill="black"/>
<path d="M61.3632 165.597C61.7599 165.597 62.0814 165.276 62.0814 164.881C62.0814 164.486 61.7599 164.165 61.3632 164.165C60.9666 164.165 60.645 164.486 60.645 164.881C60.645 165.276 60.9666 165.597 61.3632 165.597Z" fill="black"/>
<path d="M71.8969 157.007C72.2935 157.007 72.6151 156.686 72.6151 156.291C72.6151 155.896 72.2935 155.575 71.8969 155.575C71.5002 155.575 71.1786 155.896 71.1786 156.291C71.1786 156.686 71.5002 157.007 71.8969 157.007Z" fill="black"/>
<path d="M116.904 178.484C117.301 178.484 117.622 178.163 117.622 177.768C117.622 177.372 117.301 177.052 116.904 177.052C116.507 177.052 116.186 177.372 116.186 177.768C116.186 178.163 116.507 178.484 116.904 178.484Z" fill="black"/>
<path d="M114.031 206.641C114.428 206.641 114.75 206.32 114.75 205.925C114.75 205.529 114.428 205.209 114.031 205.209C113.635 205.209 113.313 205.529 113.313 205.925C113.313 206.32 113.635 206.641 114.031 206.641Z" fill="black"/>
<path d="M115.947 202.346C116.343 202.346 116.665 202.025 116.665 201.63C116.665 201.235 116.343 200.914 115.947 200.914C115.55 200.914 115.228 201.235 115.228 201.63C115.228 202.025 115.55 202.346 115.947 202.346Z" fill="black"/>
<path d="M109.243 202.346C109.64 202.346 109.962 202.025 109.962 201.63C109.962 201.235 109.64 200.914 109.243 200.914C108.847 200.914 108.525 201.235 108.525 201.63C108.525 202.025 108.847 202.346 109.243 202.346Z" fill="black"/>
<path d="M111.637 203.777C112.034 203.777 112.356 203.457 112.356 203.062C112.356 202.666 112.034 202.346 111.637 202.346C111.241 202.346 110.919 202.666 110.919 203.062C110.919 203.457 111.241 203.777 111.637 203.777Z" fill="black"/>
<path d="M115.947 209.027C116.343 209.027 116.665 208.707 116.665 208.312C116.665 207.916 116.343 207.596 115.947 207.596C115.55 207.596 115.228 207.916 115.228 208.312C115.228 208.707 115.55 209.027 115.947 209.027Z" fill="black"/>
<path d="M169.094 187.551C169.49 187.551 169.812 187.23 169.812 186.835C169.812 186.44 169.49 186.119 169.094 186.119C168.697 186.119 168.375 186.44 168.375 186.835C168.375 187.23 168.697 187.551 169.094 187.551Z" fill="black"/>
<path d="M174.36 183.733C174.757 183.733 175.078 183.412 175.078 183.017C175.078 182.621 174.757 182.301 174.36 182.301C173.964 182.301 173.642 182.621 173.642 183.017C173.642 183.412 173.964 183.733 174.36 183.733Z" fill="black"/>
<path d="M174.839 186.119C175.236 186.119 175.557 185.799 175.557 185.403C175.557 185.008 175.236 184.688 174.839 184.688C174.443 184.688 174.121 185.008 174.121 185.403C174.121 185.799 174.443 186.119 174.839 186.119Z" fill="black"/>
<path d="M177.712 186.119C178.109 186.119 178.43 185.799 178.43 185.403C178.43 185.008 178.109 184.688 177.712 184.688C177.315 184.688 176.994 185.008 176.994 185.403C176.994 185.799 177.315 186.119 177.712 186.119Z" fill="black"/>
<path d="M185.852 193.755C186.248 193.755 186.57 193.434 186.57 193.039C186.57 192.644 186.248 192.323 185.852 192.323C185.455 192.323 185.133 192.644 185.133 193.039C185.133 193.434 185.455 193.755 185.852 193.755Z" fill="black"/>
<path d="M151.378 193.277C151.775 193.277 152.096 192.957 152.096 192.562C152.096 192.166 151.775 191.846 151.378 191.846C150.981 191.846 150.66 192.166 150.66 192.562C150.66 192.957 150.981 193.277 151.378 193.277Z" fill="black"/>
<path d="M171.966 186.119C172.363 186.119 172.685 185.799 172.685 185.403C172.685 185.008 172.363 184.688 171.966 184.688C171.57 184.688 171.248 185.008 171.248 185.403C171.248 185.799 171.57 186.119 171.966 186.119Z" fill="black"/>
<path d="M167.178 188.505C167.575 188.505 167.896 188.184 167.896 187.789C167.896 187.394 167.575 187.073 167.178 187.073C166.782 187.073 166.46 187.394 166.46 187.789C166.46 188.184 166.782 188.505 167.178 188.505Z" fill="black"/>
<path d="M170.051 186.119C170.448 186.119 170.769 185.799 170.769 185.403C170.769 185.008 170.448 184.688 170.051 184.688C169.654 184.688 169.333 185.008 169.333 185.403C169.333 185.799 169.654 186.119 170.051 186.119Z" fill="black"/>
<path d="M171.487 188.505C171.884 188.505 172.206 188.184 172.206 187.789C172.206 187.394 171.884 187.073 171.487 187.073C171.091 187.073 170.769 187.394 170.769 187.789C170.769 188.184 171.091 188.505 171.487 188.505Z" fill="black"/>
<path d="M173.882 188.028C174.278 188.028 174.6 187.708 174.6 187.313C174.6 186.917 174.278 186.597 173.882 186.597C173.485 186.597 173.163 186.917 173.163 187.313C173.163 187.708 173.485 188.028 173.882 188.028Z" fill="black"/>
<path d="M169.572 188.983C169.969 188.983 170.291 188.662 170.291 188.267C170.291 187.871 169.969 187.551 169.572 187.551C169.176 187.551 168.854 187.871 168.854 188.267C168.854 188.662 169.176 188.983 169.572 188.983Z" fill="black"/>
<path d="M171.487 191.846C171.884 191.846 172.206 191.525 172.206 191.13C172.206 190.735 171.884 190.414 171.487 190.414C171.091 190.414 170.769 190.735 170.769 191.13C170.769 191.525 171.091 191.846 171.487 191.846Z" fill="black"/>
<path d="M182.021 183.733C182.418 183.733 182.739 183.412 182.739 183.017C182.739 182.621 182.418 182.301 182.021 182.301C181.625 182.301 181.303 182.621 181.303 183.017C181.303 183.412 181.625 183.733 182.021 183.733Z" fill="black"/>
<path d="M179.148 184.21C179.545 184.21 179.867 183.89 179.867 183.494C179.867 183.099 179.545 182.778 179.148 182.778C178.752 182.778 178.43 183.099 178.43 183.494C178.43 183.89 178.752 184.21 179.148 184.21Z" fill="black"/>
<path d="M181.064 182.301C181.46 182.301 181.782 181.98 181.782 181.585C181.782 181.19 181.46 180.869 181.064 180.869C180.667 180.869 180.345 181.19 180.345 181.585C180.345 181.98 180.667 182.301 181.064 182.301Z" fill="black"/>
<path d="M180.585 188.505C180.981 188.505 181.303 188.184 181.303 187.789C181.303 187.394 180.981 187.073 180.585 187.073C180.188 187.073 179.867 187.394 179.867 187.789C179.867 188.184 180.188 188.505 180.585 188.505Z" fill="black"/>
<path d="M173.403 185.164C173.799 185.164 174.121 184.844 174.121 184.448C174.121 184.053 173.799 183.732 173.403 183.732C173.006 183.732 172.685 184.053 172.685 184.448C172.685 184.844 173.006 185.164 173.403 185.164Z" fill="black"/>
<path d="M181.064 179.915C181.46 179.915 181.782 179.595 181.782 179.199C181.782 178.804 181.46 178.483 181.064 178.483C180.667 178.483 180.345 178.804 180.345 179.199C180.345 179.595 180.667 179.915 181.064 179.915Z" fill="black"/>
<path d="M183.936 186.119C184.333 186.119 184.655 185.799 184.655 185.403C184.655 185.008 184.333 184.688 183.936 184.688C183.54 184.688 183.218 185.008 183.218 185.403C183.218 185.799 183.54 186.119 183.936 186.119Z" fill="black"/>
<path d="M175.797 188.028C176.193 188.028 176.515 187.708 176.515 187.313C176.515 186.917 176.193 186.597 175.797 186.597C175.4 186.597 175.079 186.917 175.079 187.313C175.079 187.708 175.4 188.028 175.797 188.028Z" fill="black"/>
<path d="M164.784 188.983C165.181 188.983 165.503 188.662 165.503 188.267C165.503 187.871 165.181 187.551 164.784 187.551C164.388 187.551 164.066 187.871 164.066 188.267C164.066 188.662 164.388 188.983 164.784 188.983Z" fill="black"/>
<path d="M188.246 185.164C188.642 185.164 188.964 184.844 188.964 184.448C188.964 184.053 188.642 183.732 188.246 183.732C187.849 183.732 187.527 184.053 187.527 184.448C187.527 184.844 187.849 185.164 188.246 185.164Z" fill="black"/>
<path d="M180.585 185.642C180.981 185.642 181.303 185.321 181.303 184.926C181.303 184.53 180.981 184.21 180.585 184.21C180.188 184.21 179.867 184.53 179.867 184.926C179.867 185.321 180.188 185.642 180.585 185.642Z" fill="black"/>
<path d="M184.415 182.301C184.812 182.301 185.133 181.98 185.133 181.585C185.133 181.19 184.812 180.869 184.415 180.869C184.019 180.869 183.697 181.19 183.697 181.585C183.697 181.98 184.019 182.301 184.415 182.301Z" fill="black"/>
<path d="M189.203 188.028C189.6 188.028 189.921 187.708 189.921 187.313C189.921 186.917 189.6 186.597 189.203 186.597C188.807 186.597 188.485 186.917 188.485 187.313C188.485 187.708 188.807 188.028 189.203 188.028Z" fill="black"/>
<path d="M157.123 193.277C157.52 193.277 157.842 192.957 157.842 192.562C157.842 192.166 157.52 191.846 157.123 191.846C156.727 191.846 156.405 192.166 156.405 192.562C156.405 192.957 156.727 193.277 157.123 193.277Z" fill="black"/>
<path d="M180.585 143.166C180.981 143.166 181.303 142.846 181.303 142.45C181.303 142.055 180.981 141.734 180.585 141.734C180.188 141.734 179.867 142.055 179.867 142.45C179.867 142.846 180.188 143.166 180.585 143.166Z" fill="black"/>
<path d="M174.839 146.507C175.236 146.507 175.557 146.186 175.557 145.791C175.557 145.396 175.236 145.075 174.839 145.075C174.443 145.075 174.121 145.396 174.121 145.791C174.121 146.186 174.443 146.507 174.839 146.507Z" fill="black"/>
<path d="M179.627 148.416C180.024 148.416 180.345 148.096 180.345 147.7C180.345 147.305 180.024 146.984 179.627 146.984C179.23 146.984 178.909 147.305 178.909 147.7C178.909 148.096 179.23 148.416 179.627 148.416Z" fill="black"/>
<path d="M159.996 153.666C160.393 153.666 160.714 153.346 160.714 152.95C160.714 152.555 160.393 152.234 159.996 152.234C159.6 152.234 159.278 152.555 159.278 152.95C159.278 153.346 159.6 153.666 159.996 153.666Z" fill="black"/>
<path d="M180.585 156.052C180.981 156.052 181.303 155.731 181.303 155.336C181.303 154.941 180.981 154.62 180.585 154.62C180.188 154.62 179.867 154.941 179.867 155.336C179.867 155.731 180.188 156.052 180.585 156.052Z" fill="black"/>
<path d="M122.171 159.87C122.568 159.87 122.889 159.55 122.889 159.154C122.889 158.759 122.568 158.438 122.171 158.438C121.774 158.438 121.453 158.759 121.453 159.154C121.453 159.55 121.774 159.87 122.171 159.87Z" fill="black"/>
<path d="M171.487 148.894C171.884 148.894 172.206 148.573 172.206 148.178C172.206 147.782 171.884 147.462 171.487 147.462C171.091 147.462 170.769 147.782 170.769 148.178C170.769 148.573 171.091 148.894 171.487 148.894Z" fill="black"/>
<path d="M183.936 140.78C184.333 140.78 184.655 140.46 184.655 140.065C184.655 139.669 184.333 139.349 183.936 139.349C183.54 139.349 183.218 139.669 183.218 140.065C183.218 140.46 183.54 140.78 183.936 140.78Z" fill="black"/>
<path d="M153.293 193.277C153.69 193.277 154.011 192.957 154.011 192.562C154.011 192.166 153.69 191.846 153.293 191.846C152.896 191.846 152.575 192.166 152.575 192.562C152.575 192.957 152.896 193.277 153.293 193.277Z" fill="black"/>
<path d="M146.111 195.187C146.508 195.187 146.829 194.866 146.829 194.471C146.829 194.075 146.508 193.755 146.111 193.755C145.714 193.755 145.393 194.075 145.393 194.471C145.393 194.866 145.714 195.187 146.111 195.187Z" fill="black"/>
<path d="M186.809 182.301C187.206 182.301 187.527 181.98 187.527 181.585C187.527 181.19 187.206 180.869 186.809 180.869C186.412 180.869 186.091 181.19 186.091 181.585C186.091 181.98 186.412 182.301 186.809 182.301Z" fill="black"/>
<path d="M178.67 182.301C179.066 182.301 179.388 181.98 179.388 181.585C179.388 181.19 179.066 180.869 178.67 180.869C178.273 180.869 177.951 181.19 177.951 181.585C177.951 181.98 178.273 182.301 178.67 182.301Z" fill="black"/>
<path d="M176.276 183.256C176.672 183.256 176.994 182.935 176.994 182.54C176.994 182.145 176.672 181.824 176.276 181.824C175.879 181.824 175.557 182.145 175.557 182.54C175.557 182.935 175.879 183.256 176.276 183.256Z" fill="black"/>
<path d="M96.3157 201.391C96.7124 201.391 97.0339 201.07 97.0339 200.675C97.0339 200.279 96.7124 199.959 96.3157 199.959C95.9191 199.959 95.5975 200.279 95.5975 200.675C95.5975 201.07 95.9191 201.391 96.3157 201.391Z" fill="black"/>
<path d="M110.68 277.752C111.076 277.752 111.398 277.432 111.398 277.036C111.398 276.641 111.076 276.32 110.68 276.32C110.283 276.32 109.962 276.641 109.962 277.036C109.962 277.432 110.283 277.752 110.68 277.752Z" fill="black"/>
<path d="M116.425 277.752C116.822 277.752 117.144 277.432 117.144 277.036C117.144 276.641 116.822 276.32 116.425 276.32C116.029 276.32 115.707 276.641 115.707 277.036C115.707 277.432 116.029 277.752 116.425 277.752Z" fill="black"/>
<path d="M113.553 280.615C113.949 280.615 114.271 280.295 114.271 279.899C114.271 279.504 113.949 279.184 113.553 279.184C113.156 279.184 112.834 279.504 112.834 279.899C112.834 280.295 113.156 280.615 113.553 280.615Z" fill="black"/>
<path d="M108.765 278.706C109.161 278.706 109.483 278.386 109.483 277.99C109.483 277.595 109.161 277.274 108.765 277.274C108.368 277.274 108.046 277.595 108.046 277.99C108.046 278.386 108.368 278.706 108.765 278.706Z" fill="black"/>
<path d="M127.917 274.411C128.313 274.411 128.635 274.091 128.635 273.695C128.635 273.3 128.313 272.979 127.917 272.979C127.52 272.979 127.198 273.3 127.198 273.695C127.198 274.091 127.52 274.411 127.917 274.411Z" fill="black"/>
<path d="M134.141 276.797C134.538 276.797 134.859 276.476 134.859 276.081C134.859 275.686 134.538 275.365 134.141 275.365C133.744 275.365 133.423 275.686 133.423 276.081C133.423 276.476 133.744 276.797 134.141 276.797Z" fill="black"/>
<path d="M154.251 268.206C154.647 268.206 154.969 267.886 154.969 267.49C154.969 267.095 154.647 266.774 154.251 266.774C153.854 266.774 153.532 267.095 153.532 267.49C153.532 267.886 153.854 268.206 154.251 268.206Z" fill="black"/>
<path d="M152.335 270.115C152.732 270.115 153.054 269.795 153.054 269.399C153.054 269.004 152.732 268.684 152.335 268.684C151.939 268.684 151.617 269.004 151.617 269.399C151.617 269.795 151.939 270.115 152.335 270.115Z" fill="black"/>
<path d="M159.039 265.82C159.435 265.82 159.757 265.5 159.757 265.105C159.757 264.709 159.435 264.389 159.039 264.389C158.642 264.389 158.32 264.709 158.32 265.105C158.32 265.5 158.642 265.82 159.039 265.82Z" fill="black"/>
<path d="M120.256 276.319C120.652 276.319 120.974 275.999 120.974 275.604C120.974 275.208 120.652 274.888 120.256 274.888C119.859 274.888 119.538 275.208 119.538 275.604C119.538 275.999 119.859 276.319 120.256 276.319Z" fill="black"/>
<path d="M119.298 279.184C119.695 279.184 120.016 278.863 120.016 278.468C120.016 278.072 119.695 277.752 119.298 277.752C118.902 277.752 118.58 278.072 118.58 278.468C118.58 278.863 118.902 279.184 119.298 279.184Z" fill="black"/>
<path d="M109.722 284.433C110.119 284.433 110.44 284.112 110.44 283.717C110.44 283.321 110.119 283.001 109.722 283.001C109.325 283.001 109.004 283.321 109.004 283.717C109.004 284.112 109.325 284.433 109.722 284.433Z" fill="black"/>
<path d="M102.061 242.912C102.458 242.912 102.78 242.592 102.78 242.196C102.78 241.801 102.458 241.48 102.061 241.48C101.665 241.48 101.343 241.801 101.343 242.196C101.343 242.592 101.665 242.912 102.061 242.912Z" fill="black"/>
<path d="M112.116 241.958C112.513 241.958 112.834 241.638 112.834 241.242C112.834 240.847 112.513 240.526 112.116 240.526C111.719 240.526 111.398 240.847 111.398 241.242C111.398 241.638 111.719 241.958 112.116 241.958Z" fill="black"/>
<path d="M116.425 246.731C116.822 246.731 117.144 246.41 117.144 246.015C117.144 245.619 116.822 245.299 116.425 245.299C116.029 245.299 115.707 245.619 115.707 246.015C115.707 246.41 116.029 246.731 116.425 246.731Z" fill="black"/>
<path d="M115.947 243.866C116.343 243.866 116.665 243.546 116.665 243.15C116.665 242.755 116.343 242.435 115.947 242.435C115.55 242.435 115.228 242.755 115.228 243.15C115.228 243.546 115.55 243.866 115.947 243.866Z" fill="black"/>
<path d="M132.705 273.456C133.101 273.456 133.423 273.136 133.423 272.74C133.423 272.345 133.101 272.024 132.705 272.024C132.308 272.024 131.986 272.345 131.986 272.74C131.986 273.136 132.308 273.456 132.705 273.456Z" fill="black"/>
<path d="M86.2609 278.706C86.6575 278.706 86.9791 278.386 86.9791 277.99C86.9791 277.595 86.6575 277.274 86.2609 277.274C85.8642 277.274 85.5427 277.595 85.5427 277.99C85.5427 278.386 85.8642 278.706 86.2609 278.706Z" fill="black"/>
<path d="M113.553 276.797C113.949 276.797 114.271 276.476 114.271 276.081C114.271 275.686 113.949 275.365 113.553 275.365C113.156 275.365 112.834 275.686 112.834 276.081C112.834 276.476 113.156 276.797 113.553 276.797Z" fill="black"/>
<path d="M105.413 278.229C105.81 278.229 106.131 277.908 106.131 277.513C106.131 277.117 105.81 276.797 105.413 276.797C105.016 276.797 104.695 277.117 104.695 277.513C104.695 277.908 105.016 278.229 105.413 278.229Z" fill="black"/>
<path d="M103.019 278.706C103.416 278.706 103.737 278.386 103.737 277.99C103.737 277.595 103.416 277.274 103.019 277.274C102.622 277.274 102.301 277.595 102.301 277.99C102.301 278.386 102.622 278.706 103.019 278.706Z" fill="black"/>
<path d="M93.4429 278.229C93.8395 278.229 94.1611 277.908 94.1611 277.513C94.1611 277.117 93.8395 276.797 93.4429 276.797C93.0462 276.797 92.7247 277.117 92.7247 277.513C92.7247 277.908 93.0462 278.229 93.4429 278.229Z" fill="black"/>
<path d="M95.8369 278.706C96.2335 278.706 96.5551 278.386 96.5551 277.99C96.5551 277.595 96.2335 277.274 95.8369 277.274C95.4402 277.274 95.1187 277.595 95.1187 277.99C95.1187 278.386 95.4402 278.706 95.8369 278.706Z" fill="black"/>
<path d="M67.5876 275.843C67.9842 275.843 68.3058 275.522 68.3058 275.127C68.3058 274.732 67.9842 274.411 67.5876 274.411C67.1909 274.411 66.8694 274.732 66.8694 275.127C66.8694 275.522 67.1909 275.843 67.5876 275.843Z" fill="black"/>
<path d="M138.929 275.365C139.326 275.365 139.647 275.045 139.647 274.649C139.647 274.254 139.326 273.934 138.929 273.934C138.532 273.934 138.211 274.254 138.211 274.649C138.211 275.045 138.532 275.365 138.929 275.365Z" fill="black"/>
<path d="M130.789 275.843C131.186 275.843 131.508 275.522 131.508 275.127C131.508 274.732 131.186 274.411 130.789 274.411C130.393 274.411 130.071 274.732 130.071 275.127C130.071 275.522 130.393 275.843 130.789 275.843Z" fill="black"/>
<path d="M143.238 271.547C143.635 271.547 143.956 271.226 143.956 270.831C143.956 270.436 143.635 270.115 143.238 270.115C142.842 270.115 142.52 270.436 142.52 270.831C142.52 271.226 142.842 271.547 143.238 271.547Z" fill="black"/>
<path d="M113.553 245.775C113.949 245.775 114.271 245.455 114.271 245.06C114.271 244.664 113.949 244.344 113.553 244.344C113.156 244.344 112.834 244.664 112.834 245.06C112.834 245.455 113.156 245.775 113.553 245.775Z" fill="black"/>
<path d="M105.892 247.207C106.288 247.207 106.61 246.887 106.61 246.491C106.61 246.096 106.288 245.775 105.892 245.775C105.495 245.775 105.174 246.096 105.174 246.491C105.174 246.887 105.495 247.207 105.892 247.207Z" fill="black"/>
<path d="M93.9217 248.162C94.3183 248.162 94.6399 247.842 94.6399 247.446C94.6399 247.051 94.3183 246.73 93.9217 246.73C93.525 246.73 93.2035 247.051 93.2035 247.446C93.2035 247.842 93.525 248.162 93.9217 248.162Z" fill="black"/>
<path d="M98.7097 244.821C99.1063 244.821 99.4279 244.501 99.4279 244.106C99.4279 243.71 99.1063 243.39 98.7097 243.39C98.313 243.39 97.9915 243.71 97.9915 244.106C97.9915 244.501 98.313 244.821 98.7097 244.821Z" fill="black"/>
<path d="M88.1761 244.821C88.5727 244.821 88.8943 244.501 88.8943 244.106C88.8943 243.71 88.5727 243.39 88.1761 243.39C87.7794 243.39 87.4579 243.71 87.4579 244.106C87.4579 244.501 87.7794 244.821 88.1761 244.821Z" fill="black"/>
<path d="M92.9641 242.912C93.3607 242.912 93.6823 242.592 93.6823 242.196C93.6823 241.801 93.3607 241.48 92.9641 241.48C92.5674 241.48 92.2458 241.801 92.2458 242.196C92.2458 242.592 92.5674 242.912 92.9641 242.912Z" fill="black"/>
<path d="M82.9092 240.526C83.3059 240.526 83.6274 240.205 83.6274 239.81C83.6274 239.414 83.3059 239.094 82.9092 239.094C82.5126 239.094 82.191 239.414 82.191 239.81C82.191 240.205 82.5126 240.526 82.9092 240.526Z" fill="black"/>
<path d="M77.6425 239.571C78.0391 239.571 78.3607 239.251 78.3607 238.856C78.3607 238.46 78.0391 238.14 77.6425 238.14C77.2458 238.14 76.9243 238.46 76.9243 238.856C76.9243 239.251 77.2458 239.571 77.6425 239.571Z" fill="black"/>
<path d="M109.243 243.866C109.64 243.866 109.962 243.546 109.962 243.15C109.962 242.755 109.64 242.435 109.243 242.435C108.847 242.435 108.525 242.755 108.525 243.15C108.525 243.546 108.847 243.866 109.243 243.866Z" fill="black"/>
<path d="M96.3157 242.912C96.7124 242.912 97.0339 242.592 97.0339 242.196C97.0339 241.801 96.7124 241.48 96.3157 241.48C95.9191 241.48 95.5975 241.801 95.5975 242.196C95.5975 242.592 95.9191 242.912 96.3157 242.912Z" fill="black"/>
<path d="M117.383 253.889C117.78 253.889 118.101 253.568 118.101 253.173C118.101 252.778 117.78 252.457 117.383 252.457C116.986 252.457 116.665 252.778 116.665 253.173C116.665 253.568 116.986 253.889 117.383 253.889Z" fill="black"/>
<path d="M83.3881 244.821C83.7847 244.821 84.1063 244.501 84.1063 244.106C84.1063 243.71 83.7847 243.39 83.3881 243.39C82.9914 243.39 82.6699 243.71 82.6699 244.106C82.6699 244.501 82.9914 244.821 83.3881 244.821Z" fill="black"/>
<path d="M102.54 246.731C102.937 246.731 103.258 246.41 103.258 246.015C103.258 245.619 102.937 245.299 102.54 245.299C102.143 245.299 101.822 245.619 101.822 246.015C101.822 246.41 102.143 246.731 102.54 246.731Z" fill="black"/>
<path d="M126.001 249.594C126.398 249.594 126.72 249.273 126.72 248.878C126.72 248.483 126.398 248.162 126.001 248.162C125.605 248.162 125.283 248.483 125.283 248.878C125.283 249.273 125.605 249.594 126.001 249.594Z" fill="black"/>
<path d="M110.201 247.685C110.598 247.685 110.919 247.364 110.919 246.969C110.919 246.573 110.598 246.253 110.201 246.253C109.804 246.253 109.483 246.573 109.483 246.969C109.483 247.364 109.804 247.685 110.201 247.685Z" fill="black"/>
<path d="M123.607 244.821C124.004 244.821 124.326 244.501 124.326 244.106C124.326 243.71 124.004 243.39 123.607 243.39C123.211 243.39 122.889 243.71 122.889 244.106C122.889 244.501 123.211 244.821 123.607 244.821Z" fill="black"/>
<path d="M105.413 241.958C105.81 241.958 106.131 241.638 106.131 241.242C106.131 240.847 105.81 240.526 105.413 240.526C105.016 240.526 104.695 240.847 104.695 241.242C104.695 241.638 105.016 241.958 105.413 241.958Z" fill="black"/>
<path d="M126.001 241.958C126.398 241.958 126.72 241.638 126.72 241.242C126.72 240.847 126.398 240.526 126.001 240.526C125.605 240.526 125.283 240.847 125.283 241.242C125.283 241.638 125.605 241.958 126.001 241.958Z" fill="black"/>
<path d="M116.904 205.687C117.301 205.687 117.622 205.366 117.622 204.971C117.622 204.575 117.301 204.255 116.904 204.255C116.507 204.255 116.186 204.575 116.186 204.971C116.186 205.366 116.507 205.687 116.904 205.687Z" fill="black"/>
<path d="M102.54 200.437C102.937 200.437 103.258 200.116 103.258 199.721C103.258 199.325 102.937 199.005 102.54 199.005C102.143 199.005 101.822 199.325 101.822 199.721C101.822 200.116 102.143 200.437 102.54 200.437Z" fill="black"/>
<path d="M112.116 165.12C112.513 165.12 112.834 164.8 112.834 164.404C112.834 164.009 112.513 163.688 112.116 163.688C111.719 163.688 111.398 164.009 111.398 164.404C111.398 164.8 111.719 165.12 112.116 165.12Z" fill="black"/>
<path d="M112.595 200.437C112.992 200.437 113.313 200.116 113.313 199.721C113.313 199.325 112.992 199.005 112.595 199.005C112.198 199.005 111.877 199.325 111.877 199.721C111.877 200.116 112.198 200.437 112.595 200.437Z" fill="black"/>
<path d="M173.403 260.093C173.799 260.093 174.121 259.772 174.121 259.377C174.121 258.982 173.799 258.661 173.403 258.661C173.006 258.661 172.685 258.982 172.685 259.377C172.685 259.772 173.006 260.093 173.403 260.093Z" fill="black"/>
<path d="M149.463 269.161C149.859 269.161 150.181 268.841 150.181 268.445C150.181 268.05 149.859 267.729 149.463 267.729C149.066 267.729 148.744 268.05 148.744 268.445C148.744 268.841 149.066 269.161 149.463 269.161Z" fill="black"/>
<path d="M169.094 261.048C169.49 261.048 169.812 260.727 169.812 260.332C169.812 259.937 169.49 259.616 169.094 259.616C168.697 259.616 168.375 259.937 168.375 260.332C168.375 260.727 168.697 261.048 169.094 261.048Z" fill="black"/>
<path d="M125.044 276.319C125.44 276.319 125.762 275.999 125.762 275.604C125.762 275.208 125.44 274.888 125.044 274.888C124.647 274.888 124.326 275.208 124.326 275.604C124.326 275.999 124.647 276.319 125.044 276.319Z" fill="black"/>
<path d="M145.632 271.07C146.029 271.07 146.35 270.75 146.35 270.355C146.35 269.959 146.029 269.639 145.632 269.639C145.236 269.639 144.914 269.959 144.914 270.355C144.914 270.75 145.236 271.07 145.632 271.07Z" fill="black"/>
<path d="M140.844 272.502C141.241 272.502 141.562 272.182 141.562 271.786C141.562 271.391 141.241 271.07 140.844 271.07C140.448 271.07 140.126 271.391 140.126 271.786C140.126 272.182 140.448 272.502 140.844 272.502Z" fill="black"/>
<path d="M135.577 273.456C135.974 273.456 136.296 273.136 136.296 272.74C136.296 272.345 135.974 272.024 135.577 272.024C135.181 272.024 134.859 272.345 134.859 272.74C134.859 273.136 135.181 273.456 135.577 273.456Z" fill="black"/>
<path d="M80.0364 277.752C80.4331 277.752 80.7546 277.432 80.7546 277.036C80.7546 276.641 80.4331 276.32 80.0364 276.32C79.6398 276.32 79.3182 276.641 79.3182 277.036C79.3182 277.432 79.6398 277.752 80.0364 277.752Z" fill="black"/>
<path d="M93.9217 280.138C94.3183 280.138 94.6399 279.817 94.6399 279.422C94.6399 279.027 94.3183 278.706 93.9217 278.706C93.525 278.706 93.2035 279.027 93.2035 279.422C93.2035 279.817 93.525 280.138 93.9217 280.138Z" fill="black"/>
<path d="M100.625 279.184C101.022 279.184 101.343 278.863 101.343 278.468C101.343 278.072 101.022 277.752 100.625 277.752C100.228 277.752 99.9067 278.072 99.9067 278.468C99.9067 278.863 100.228 279.184 100.625 279.184Z" fill="black"/>
<path d="M91.0489 278.706C91.4455 278.706 91.7671 278.386 91.7671 277.99C91.7671 277.595 91.4455 277.274 91.0489 277.274C90.6522 277.274 90.3307 277.595 90.3307 277.99C90.3307 278.386 90.6522 278.706 91.0489 278.706Z" fill="black"/>
<path d="M98.2309 278.229C98.6275 278.229 98.9491 277.908 98.9491 277.513C98.9491 277.117 98.6275 276.797 98.2309 276.797C97.8342 276.797 97.5127 277.117 97.5127 277.513C97.5127 277.908 97.8342 278.229 98.2309 278.229Z" fill="black"/>
<path d="M71.418 275.843C71.8147 275.843 72.1362 275.522 72.1362 275.127C72.1362 274.732 71.8147 274.411 71.418 274.411C71.0214 274.411 70.6998 274.732 70.6998 275.127C70.6998 275.522 71.0214 275.843 71.418 275.843Z" fill="black"/>
<path d="M71.8969 160.824C72.2935 160.824 72.6151 160.504 72.6151 160.108C72.6151 159.713 72.2935 159.393 71.8969 159.393C71.5002 159.393 71.1786 159.713 71.1786 160.108C71.1786 160.504 71.5002 160.824 71.8969 160.824Z" fill="black"/>
<path d="M64.236 154.62C64.6327 154.62 64.9542 154.3 64.9542 153.904C64.9542 153.509 64.6327 153.188 64.236 153.188C63.8394 153.188 63.5178 153.509 63.5178 153.904C63.5178 154.3 63.8394 154.62 64.236 154.62Z" fill="black"/>
<path d="M69.024 162.256C69.4206 162.256 69.7422 161.935 69.7422 161.54C69.7422 161.145 69.4206 160.824 69.024 160.824C68.6273 160.824 68.3058 161.145 68.3058 161.54C68.3058 161.935 68.6273 162.256 69.024 162.256Z" fill="black"/>
<path d="M89.1337 160.824C89.5303 160.824 89.8519 160.504 89.8519 160.108C89.8519 159.713 89.5303 159.393 89.1337 159.393C88.737 159.393 88.4155 159.713 88.4155 160.108C88.4155 160.504 88.737 160.824 89.1337 160.824Z" fill="black"/>
<path d="M48.4355 165.12C48.8322 165.12 49.1538 164.8 49.1538 164.404C49.1538 164.009 48.8322 163.688 48.4355 163.688C48.0389 163.688 47.7173 164.009 47.7173 164.404C47.7173 164.8 48.0389 165.12 48.4355 165.12Z" fill="black"/>
<path d="M54.1812 159.87C54.5778 159.87 54.8994 159.55 54.8994 159.154C54.8994 158.759 54.5778 158.438 54.1812 158.438C53.7845 158.438 53.463 158.759 53.463 159.154C53.463 159.55 53.7845 159.87 54.1812 159.87Z" fill="black"/>
<path d="M68.0664 157.007C68.4631 157.007 68.7846 156.686 68.7846 156.291C68.7846 155.896 68.4631 155.575 68.0664 155.575C67.6698 155.575 67.3482 155.896 67.3482 156.291C67.3482 156.686 67.6698 157.007 68.0664 157.007Z" fill="black"/>
<path d="M115.947 165.597C116.343 165.597 116.665 165.276 116.665 164.881C116.665 164.486 116.343 164.165 115.947 164.165C115.55 164.165 115.228 164.486 115.228 164.881C115.228 165.276 115.55 165.597 115.947 165.597Z" fill="black"/>
<path d="M108.286 166.552C108.682 166.552 109.004 166.231 109.004 165.836C109.004 165.441 108.682 165.12 108.286 165.12C107.889 165.12 107.568 165.441 107.568 165.836C107.568 166.231 107.889 166.552 108.286 166.552Z" fill="black"/>
<path d="M119.777 167.506C120.174 167.506 120.495 167.185 120.495 166.79C120.495 166.395 120.174 166.074 119.777 166.074C119.38 166.074 119.059 166.395 119.059 166.79C119.059 167.185 119.38 167.506 119.777 167.506Z" fill="black"/>
<path d="M115.947 161.779C116.343 161.779 116.665 161.459 116.665 161.064C116.665 160.668 116.343 160.348 115.947 160.348C115.55 160.348 115.228 160.668 115.228 161.064C115.228 161.459 115.55 161.779 115.947 161.779Z" fill="black"/>
<path d="M127.917 173.71C128.313 173.71 128.635 173.39 128.635 172.994C128.635 172.599 128.313 172.278 127.917 172.278C127.52 172.278 127.198 172.599 127.198 172.994C127.198 173.39 127.52 173.71 127.917 173.71Z" fill="black"/>
<path d="M123.607 164.643C124.004 164.643 124.326 164.322 124.326 163.927C124.326 163.531 124.004 163.211 123.607 163.211C123.211 163.211 122.889 163.531 122.889 163.927C122.889 164.322 123.211 164.643 123.607 164.643Z" fill="black"/>
<path d="M124.565 160.824C124.962 160.824 125.283 160.504 125.283 160.108C125.283 159.713 124.962 159.393 124.565 159.393C124.168 159.393 123.847 159.713 123.847 160.108C123.847 160.504 124.168 160.824 124.565 160.824Z" fill="black"/>
<path d="M121.692 166.552C122.089 166.552 122.41 166.231 122.41 165.836C122.41 165.441 122.089 165.12 121.692 165.12C121.296 165.12 120.974 165.441 120.974 165.836C120.974 166.231 121.296 166.552 121.692 166.552Z" fill="black"/>
<path d="M126.959 163.211C127.356 163.211 127.677 162.891 127.677 162.495C127.677 162.1 127.356 161.779 126.959 161.779C126.562 161.779 126.241 162.1 126.241 162.495C126.241 162.891 126.562 163.211 126.959 163.211Z" fill="black"/>
<path d="M122.171 163.211C122.568 163.211 122.889 162.891 122.889 162.495C122.889 162.1 122.568 161.779 122.171 161.779C121.774 161.779 121.453 162.1 121.453 162.495C121.453 162.891 121.774 163.211 122.171 163.211Z" fill="black"/>
<path d="M83.3881 159.393C83.7847 159.393 84.1063 159.072 84.1063 158.677C84.1063 158.281 83.7847 157.961 83.3881 157.961C82.9914 157.961 82.6699 158.281 82.6699 158.677C82.6699 159.072 82.9914 159.393 83.3881 159.393Z" fill="black"/>
<path d="M81.9517 162.734C82.3483 162.734 82.6699 162.413 82.6699 162.018C82.6699 161.622 82.3483 161.302 81.9517 161.302C81.555 161.302 81.2335 161.622 81.2335 162.018C81.2335 162.413 81.555 162.734 81.9517 162.734Z" fill="black"/>
<path d="M101.104 165.597C101.5 165.597 101.822 165.276 101.822 164.881C101.822 164.486 101.5 164.165 101.104 164.165C100.707 164.165 100.385 164.486 100.385 164.881C100.385 165.276 100.707 165.597 101.104 165.597Z" fill="black"/>
<path d="M106.371 161.302C106.767 161.302 107.089 160.981 107.089 160.586C107.089 160.191 106.767 159.87 106.371 159.87C105.974 159.87 105.652 160.191 105.652 160.586C105.652 160.981 105.974 161.302 106.371 161.302Z" fill="black"/>
<path d="M96.7945 161.302C97.1911 161.302 97.5127 160.981 97.5127 160.586C97.5127 160.191 97.1911 159.87 96.7945 159.87C96.3978 159.87 96.0763 160.191 96.0763 160.586C96.0763 160.981 96.3978 161.302 96.7945 161.302Z" fill="black"/>
<path d="M110.68 161.302C111.076 161.302 111.398 160.981 111.398 160.586C111.398 160.191 111.076 159.87 110.68 159.87C110.283 159.87 109.962 160.191 109.962 160.586C109.962 160.981 110.283 161.302 110.68 161.302Z" fill="black"/>
<path d="M123.129 114.054C123.525 114.054 123.847 113.733 123.847 113.338C123.847 112.943 123.525 112.622 123.129 112.622C122.732 112.622 122.41 112.943 122.41 113.338C122.41 113.733 122.732 114.054 123.129 114.054Z" fill="black"/>
<path d="M123.129 112.145C123.525 112.145 123.847 111.824 123.847 111.429C123.847 111.033 123.525 110.713 123.129 110.713C122.732 110.713 122.41 111.033 122.41 111.429C122.41 111.824 122.732 112.145 123.129 112.145Z" fill="black"/>
<path d="M53.463 86.3733C54.2563 86.3733 54.8994 85.7323 54.8994 84.9415C54.8994 84.1508 54.2563 83.5098 53.463 83.5098C52.6697 83.5098 52.0266 84.1508 52.0266 84.9415C52.0266 85.7323 52.6697 86.3733 53.463 86.3733Z" fill="black"/>
<path d="M170.291 87.8049C171.084 87.8049 171.727 87.1639 171.727 86.3732C171.727 85.5824 171.084 84.9414 170.291 84.9414C169.497 84.9414 168.854 85.5824 168.854 86.3732C168.854 87.1639 169.497 87.8049 170.291 87.8049Z" fill="black"/>
<path d="M179.388 93.0549C180.181 93.0549 180.824 92.4139 180.824 91.6232C180.824 90.8324 180.181 90.1914 179.388 90.1914C178.594 90.1914 177.951 90.8324 177.951 91.6232C177.951 92.4139 178.594 93.0549 179.388 93.0549Z" fill="black"/>
<path d="M188.485 98.7815C189.278 98.7815 189.921 98.1405 189.921 97.3497C189.921 96.559 189.278 95.918 188.485 95.918C187.692 95.918 187.049 96.559 187.049 97.3497C187.049 98.1405 187.692 98.7815 188.485 98.7815Z" fill="black"/>
<path d="M191.358 205.687C192.151 205.687 192.794 205.046 192.794 204.255C192.794 203.464 192.151 202.823 191.358 202.823C190.564 202.823 189.921 203.464 189.921 204.255C189.921 205.046 190.564 205.687 191.358 205.687Z" fill="black"/>
<path d="M76.9243 194.709C77.7176 194.709 78.3607 194.068 78.3607 193.277C78.3607 192.487 77.7176 191.846 76.9243 191.846C76.131 191.846 75.4879 192.487 75.4879 193.277C75.4879 194.068 76.131 194.709 76.9243 194.709Z" fill="black"/>
<path d="M71.1786 311.637C71.9719 311.637 72.615 310.996 72.615 310.205C72.615 309.414 71.9719 308.773 71.1786 308.773C70.3853 308.773 69.7422 309.414 69.7422 310.205C69.7422 310.996 70.3853 311.637 71.1786 311.637Z" fill="black"/>
<path d="M84.1063 310.205C84.8996 310.205 85.5427 309.564 85.5427 308.774C85.5427 307.983 84.8996 307.342 84.1063 307.342C83.313 307.342 82.6699 307.983 82.6699 308.774C82.6699 309.564 83.313 310.205 84.1063 310.205Z" fill="black"/>
<path d="M72.1219 317.549H70.5179V316.738C70.7764 316.733 71.0015 316.714 71.2026 316.695C71.3989 316.671 71.576 316.633 71.7293 316.571C71.8825 316.514 72.0117 316.423 72.1267 316.309C72.2368 316.194 72.3421 316.036 72.4331 315.841H73.3045V323H72.1267V317.549H72.1219Z" fill="black"/>
<path d="M86.7588 315.889C87.0413 315.97 87.2855 316.09 87.4866 316.247C87.6925 316.405 87.8505 316.6 87.9702 316.834C88.0851 317.068 88.1474 317.33 88.1474 317.631C88.1474 317.994 88.0612 318.352 87.8936 318.71C87.726 319.068 87.4866 319.421 87.1802 319.774C86.8737 320.127 86.5003 320.48 86.0646 320.838C85.6289 321.196 85.1453 321.554 84.6138 321.926H88.3101V322.933H83.1726V321.984C83.7615 321.526 84.2882 321.101 84.7526 320.714C85.2171 320.328 85.6097 319.96 85.9353 319.612C86.2609 319.268 86.5098 318.939 86.6774 318.633C86.8498 318.328 86.936 318.027 86.936 317.736C86.936 317.393 86.8354 317.13 86.6295 316.939C86.4237 316.753 86.146 316.658 85.7964 316.658C85.6289 316.658 85.4661 316.681 85.3033 316.734C85.1405 316.786 85.0064 316.872 84.8867 316.992C84.767 317.111 84.6712 317.268 84.5946 317.459C84.518 317.65 84.4845 317.879 84.4845 318.151H83.3258C83.321 317.793 83.3737 317.474 83.4934 317.183C83.6083 316.891 83.7807 316.643 84.0009 316.433C84.2212 316.228 84.4893 316.066 84.8005 315.946C85.1118 315.832 85.4613 315.77 85.8539 315.77C86.1699 315.765 86.4763 315.808 86.7588 315.889Z" fill="black"/>
<path d="M172.388 79.1192C172.56 79.0667 172.708 78.9856 172.838 78.8854C172.967 78.7851 173.063 78.661 173.135 78.5131C173.206 78.3652 173.24 78.1981 173.24 78.0072C173.24 77.7829 173.197 77.5968 173.115 77.4441C173.034 77.2913 172.914 77.1673 172.761 77.0766C172.608 76.9859 172.426 76.9191 172.21 76.8761C171.995 76.8332 171.76 76.8141 171.507 76.8141H171.171V75.8691H171.459C172.531 75.8691 173.068 75.5112 173.068 74.8001C173.068 74.6283 173.034 74.4755 172.967 74.3467C172.9 74.2178 172.814 74.1081 172.704 74.0269C172.594 73.9458 172.469 73.8838 172.321 73.8408C172.172 73.7978 172.019 73.7788 171.861 73.7788C171.44 73.7788 171.114 73.8981 170.875 74.1319C170.64 74.3658 170.496 74.6855 170.444 75.096H169.333C169.357 74.7667 169.438 74.466 169.567 74.1987C169.697 73.9315 169.874 73.7024 170.094 73.5115C170.314 73.3206 170.578 73.1726 170.889 73.0677C171.2 72.9627 171.545 72.9102 171.928 72.9102C172.215 72.9102 172.498 72.9436 172.775 73.0104C173.053 73.0772 173.302 73.187 173.518 73.3349C173.733 73.4829 173.91 73.6738 174.039 73.9028C174.169 74.1319 174.236 74.4087 174.236 74.7333C174.236 75.0769 174.145 75.3823 173.958 75.6591C173.771 75.9312 173.527 76.1412 173.221 76.2891C173.431 76.3655 173.613 76.4657 173.762 76.585C173.91 76.7043 174.035 76.8379 174.13 76.9859C174.226 77.1338 174.298 77.2913 174.346 77.4584C174.394 77.6254 174.418 77.802 174.418 77.9786C174.418 78.3365 174.346 78.642 174.207 78.9045C174.068 79.1669 173.877 79.3817 173.637 79.5583C173.398 79.7349 173.12 79.8637 172.804 79.9496C172.488 80.0355 172.158 80.0785 171.813 80.0785C171.411 80.0785 171.057 80.0165 170.745 79.8971C170.434 79.7778 170.176 79.6108 169.96 79.4008C169.745 79.1908 169.577 78.9474 169.457 78.6754C169.338 78.4033 169.266 78.1122 169.247 77.8068H170.358C170.381 77.9977 170.434 78.179 170.506 78.3461C170.578 78.5131 170.678 78.661 170.798 78.7899C170.918 78.9188 171.066 79.019 171.234 79.0906C171.401 79.1622 171.602 79.2003 171.832 79.2003C172.029 79.2003 172.215 79.1765 172.388 79.1192Z" fill="black"/>
<path d="M184.679 85.0795V86.7594H183.501V85.0795H179.953V84.1011L183.51 79.6006H184.679V84.0629H185.947V85.0795H184.679ZM183.501 84.0629V81.1326L181.241 84.0629H183.501Z" fill="black"/>
<path d="M196.371 95.384C196.538 95.3172 196.687 95.217 196.811 95.0929C196.936 94.9688 197.036 94.8113 197.108 94.6204C197.18 94.4343 197.214 94.2243 197.214 93.9904C197.214 93.7327 197.175 93.5036 197.094 93.3127C197.012 93.117 196.902 92.9548 196.768 92.8259C196.634 92.6971 196.481 92.6016 196.309 92.5396C196.141 92.4775 195.969 92.4489 195.792 92.4489C195.461 92.4489 195.183 92.5205 194.958 92.6637C194.733 92.8068 194.585 92.9786 194.518 93.1886L193.426 93.1314L193.895 89.2227H198.118V90.2392H194.848L194.623 92.005C194.791 91.8714 194.997 91.7616 195.241 91.6853C195.485 91.6089 195.763 91.5707 196.084 91.5707C196.38 91.5707 196.673 91.6232 196.955 91.7282C197.237 91.8332 197.486 91.986 197.702 92.1864C197.917 92.3868 198.09 92.6398 198.219 92.9405C198.348 93.2411 198.415 93.5895 198.415 93.9809C198.415 94.377 198.344 94.7206 198.205 95.0165C198.066 95.3124 197.874 95.5653 197.635 95.7706C197.395 95.9758 197.118 96.1285 196.802 96.2335C196.486 96.3385 196.155 96.3862 195.806 96.3862C195.399 96.3862 195.035 96.3242 194.724 96.2001C194.413 96.076 194.149 95.909 193.934 95.699C193.718 95.489 193.556 95.2456 193.436 94.9736C193.316 94.7015 193.249 94.4104 193.23 94.105H194.35C194.403 94.5106 194.542 94.8447 194.772 95.1024C195.001 95.3601 195.351 95.489 195.82 95.489C196.021 95.489 196.198 95.4508 196.371 95.384Z" fill="black"/>
<path d="M50.2598 76.0072C50.0731 76.1217 49.9198 76.284 49.7906 76.4892C49.6613 76.6945 49.5655 76.9426 49.4937 77.2337C49.4219 77.5249 49.3836 77.8446 49.3788 78.2026C49.532 77.9783 49.7475 77.7921 50.0252 77.6394C50.3029 77.4867 50.6428 77.4103 51.045 77.4103C51.3658 77.4103 51.6627 77.4676 51.9452 77.5774C52.2277 77.6871 52.4718 77.8446 52.6777 78.0498C52.8836 78.2551 53.0512 78.4985 53.1709 78.7896C53.2906 79.0807 53.3528 79.4052 53.3528 79.768C53.3528 80.1116 53.2906 80.4266 53.1661 80.7177C53.0416 81.0088 52.8693 81.257 52.649 81.467C52.4288 81.677 52.1606 81.8392 51.8494 81.9585C51.5382 82.0779 51.1982 82.1351 50.8248 82.1351C50.3699 82.1351 49.9821 82.054 49.6565 81.8917C49.3309 81.7295 49.0628 81.5004 48.8473 81.2045C48.6319 80.9086 48.4739 80.5554 48.3733 80.1402C48.2728 79.725 48.2201 79.2668 48.2201 78.7562C48.2201 78.2598 48.268 77.7826 48.3637 77.3244C48.4595 76.8663 48.6175 76.4654 48.8377 76.1122C49.058 75.7638 49.3405 75.4822 49.69 75.277C50.0395 75.0718 50.4657 74.9668 50.978 74.9668C51.3419 74.9668 51.6579 75.0193 51.9308 75.1291C52.2037 75.2388 52.4288 75.3772 52.6107 75.5538C52.7926 75.7304 52.9315 75.9261 53.032 76.1504C53.1326 76.3747 53.1948 76.599 53.2188 76.8281H52.0601C52.0218 76.4892 51.8973 76.2411 51.6818 76.0788C51.4664 75.9165 51.203 75.8354 50.8918 75.8354C50.6572 75.8354 50.4465 75.8927 50.2598 76.0072ZM49.848 80.8609C50.1018 81.1234 50.4226 81.2522 50.82 81.2522C51.0163 81.2522 51.1982 81.2188 51.3658 81.152C51.5334 81.0852 51.677 80.9897 51.7967 80.8609C51.9164 80.732 52.0122 80.5793 52.0792 80.3979C52.1463 80.2166 52.1798 80.0114 52.1798 79.7823C52.1798 79.3241 52.0553 78.9662 51.8015 78.6989C51.5478 78.4364 51.227 78.3028 50.8296 78.3028C50.4322 78.3028 50.1114 78.4364 49.8528 78.6989C49.599 78.9614 49.4698 79.3241 49.4698 79.7823C49.4698 80.2404 49.5943 80.5984 49.848 80.8609Z" fill="black"/>
<path d="M79.8066 199.392V200.427C79.3518 200.862 78.9448 201.301 78.5953 201.744C78.2409 202.188 77.9393 202.656 77.6951 203.152C77.4509 203.649 77.2546 204.169 77.111 204.727C76.9673 205.286 76.8764 205.892 76.8381 206.55H75.5022C75.5357 205.92 75.6363 205.314 75.7991 204.742C75.9619 204.169 76.1821 203.625 76.455 203.114C76.7279 202.599 77.0392 202.121 77.403 201.673C77.7621 201.224 78.15 200.809 78.5665 200.427H74.6547V199.392H79.8066Z" fill="black"/>
<path d="M200.67 201.434C200.963 201.525 201.212 201.644 201.417 201.802C201.623 201.959 201.786 202.146 201.896 202.365C202.006 202.585 202.064 202.823 202.064 203.076C202.064 203.377 201.997 203.663 201.858 203.95C201.719 204.231 201.494 204.465 201.173 204.651C201.58 204.861 201.867 205.119 202.03 205.429C202.193 205.739 202.274 206.054 202.274 206.379C202.274 206.722 202.207 207.023 202.073 207.281C201.939 207.538 201.757 207.758 201.528 207.935C201.298 208.111 201.025 208.245 200.709 208.335C200.393 208.426 200.053 208.469 199.689 208.469C199.325 208.469 198.985 208.426 198.669 208.335C198.353 208.245 198.08 208.111 197.85 207.935C197.62 207.758 197.439 207.538 197.304 207.281C197.17 207.023 197.103 206.722 197.103 206.379C197.103 206.221 197.123 206.059 197.161 205.897C197.199 205.734 197.261 205.577 197.348 205.429C197.434 205.281 197.549 205.138 197.688 205.004C197.826 204.871 197.999 204.751 198.205 204.651C197.898 204.479 197.673 204.25 197.53 203.959C197.386 203.668 197.314 203.377 197.314 203.076C197.314 202.823 197.372 202.585 197.482 202.365C197.592 202.146 197.75 201.959 197.956 201.802C198.162 201.644 198.411 201.525 198.703 201.434C198.995 201.344 199.325 201.301 199.689 201.301C200.053 201.301 200.378 201.344 200.67 201.434ZM198.669 205.419C198.415 205.644 198.291 205.949 198.291 206.336C198.291 206.732 198.415 207.037 198.669 207.257C198.923 207.476 199.263 207.586 199.689 207.586C200.115 207.586 200.455 207.476 200.709 207.257C200.963 207.037 201.087 206.732 201.087 206.336C201.087 205.949 200.963 205.644 200.709 205.419C200.455 205.195 200.12 205.085 199.689 205.085C199.263 205.085 198.923 205.195 198.669 205.419ZM200.599 202.446C200.374 202.26 200.072 202.169 199.689 202.169C199.311 202.169 199.009 202.26 198.779 202.446C198.549 202.632 198.434 202.89 198.434 203.219C198.434 203.549 198.549 203.816 198.779 204.016C199.009 204.217 199.311 204.317 199.689 204.317C200.072 204.317 200.374 204.217 200.599 204.016C200.824 203.816 200.934 203.549 200.934 203.219C200.934 202.89 200.819 202.628 200.599 202.446Z" fill="black"/>
</g>
<defs>
<clipPath id="clip0_721_14903">
<rect width="248" height="323" fill="white"/>
</clipPath>
</defs>
</svg>
