<svg width="446" height="581" viewBox="0 0 446 581" fill="none" xmlns="http://www.w3.org/2000/svg">
<g clip-path="url(#clip0_714_6449)">
<path d="M198.606 284.933C189.797 284.933 180.92 284.624 172.076 283.98C134.327 281.259 102.829 272.983 87.8206 261.84C81.2076 256.93 77.858 251.582 77.858 245.933C77.858 225.501 94.5456 200.323 174.048 196.357C191.123 195.507 213.537 198.048 213.761 198.073L213.614 199.353C213.391 199.327 191.08 196.794 174.108 197.636C95.6219 201.55 79.141 226.059 79.141 245.924C79.141 251.144 82.3184 256.14 88.587 260.793C103.406 271.798 134.654 279.98 172.162 282.684C211.565 285.525 251.743 281.911 282.379 272.777C334.181 257.325 358.739 224.377 352.548 201.447C350.602 194.236 347.399 187.523 343.025 181.479L344.075 180.724C348.544 186.888 351.816 193.747 353.797 201.112C360.143 224.634 335.309 258.329 282.75 274.005C258.855 281.147 229.183 284.933 198.606 284.933Z" fill="black"/>
<path d="M289.113 147.836C263.832 140.273 231.206 136.513 192.165 136.693C160.28 136.831 134.568 140.222 115.737 146.763L115.315 145.544C134.275 138.951 160.133 135.543 192.156 135.397C231.352 135.225 264.082 138.994 289.483 146.6L289.113 147.836Z" fill="black"/>
<path d="M78.8912 190.811L78.7362 190.321C78.6932 190.184 77.6599 186.81 78.1076 181.728C78.5209 177.058 80.3378 170.01 86.615 162.945L87.5794 163.795C77.2896 175.376 79.2529 186.956 79.8384 189.446L214.493 180.037L214.579 181.325L78.8912 190.811Z" fill="black"/>
<path d="M191.743 355.911C185.07 355.911 178.698 355.662 172.731 355.172C165.558 354.58 158.256 353.601 151.04 352.245L151.281 350.983C158.454 352.322 165.704 353.301 172.843 353.893C216.137 357.456 281.708 348.176 317.95 323.95C339.365 309.639 351.833 294.977 354.003 281.559C355.131 274.588 353.375 268.081 348.802 262.209C342.887 254.62 333.854 246.92 333.759 246.843L334.595 245.864C334.689 245.941 343.817 253.736 349.818 261.42C354.623 267.583 356.457 274.425 355.278 281.765C353.056 295.543 340.398 310.506 318.673 325.023C287.175 346.055 233.755 355.911 191.743 355.911Z" fill="black"/>
<path d="M128.239 346.579C111.087 341.145 88.8022 331.007 80.071 313.614C77.04 307.571 76.6267 301.536 78.8482 295.672C81.9223 287.543 89.603 281.19 95.4927 277.293C101.847 273.095 107.565 270.76 107.625 270.734L108.107 271.927C107.884 272.022 85.7196 281.138 80.0537 296.127C77.97 301.639 78.3574 307.33 81.2248 313.039C89.7494 330.037 111.707 339.995 128.627 345.36L128.239 346.579Z" fill="black"/>
<path d="M348.535 359.43L347.295 359.061C350.964 346.751 350.266 329.865 326.104 319.34L326.621 318.164C351.652 329.066 352.35 346.622 348.535 359.43Z" fill="black"/>
<path d="M185.19 431.945C169.493 431.945 155.251 430.674 143.377 428.125C117.588 422.588 99.7723 414.226 90.421 403.272C81.8017 393.177 81.8276 382.824 82.6025 375.921C84.3591 360.169 119.74 343.703 121.247 343.008L121.79 344.175C121.428 344.339 85.5646 361.027 83.8855 376.059C80.1829 409.307 116.219 420.982 143.652 426.863C169.734 432.46 207.303 431.833 246.74 425.137C289.113 417.943 321.954 400.225 339.201 375.243L340.269 375.973C322.815 401.246 289.681 419.154 246.964 426.408C225.282 430.091 204.168 431.945 185.19 431.945Z" fill="black"/>
<path d="M172.352 497.248C148.44 497.248 127.275 493.857 111.147 487.436C94.3045 480.731 84.2816 471.177 82.172 459.802C80.3551 450.033 87.037 440.332 101.477 431.739C112.266 425.326 123.727 421.712 123.848 421.669L124.235 422.897C123.788 423.034 79.296 437.207 83.4464 459.562C87.4934 481.324 123.219 495.952 172.36 495.952C228.623 495.952 288.252 476.104 315.798 457.433C341.776 439.817 351.541 422.304 346.529 402.319C343.223 389.116 332.244 385.502 332.132 385.468L332.52 384.24C332.64 384.274 344.29 388.086 347.778 402.01C352.867 422.313 342.646 440.787 316.512 458.497C288.812 477.289 228.873 497.248 172.352 497.248Z" fill="black"/>
<path d="M217.618 429.859H213.313V447.672H217.618V429.859Z" fill="black"/>
<path d="M217.618 354.254H213.313V380.712H217.618V354.254Z" fill="black"/>
<path d="M217.618 283.963H213.313V300.016H217.618V283.963Z" fill="black"/>
<path d="M217.558 101.711H213.253V232.197H217.558V101.711Z" fill="black"/>
<path d="M217.655 373.497L216.564 374.188L249.307 425.585L250.397 424.895L217.655 373.497Z" fill="black"/>
<path d="M216.664 379.625L83.8059 388.533L83.8926 389.818L216.751 380.91L216.664 379.625Z" fill="black"/>
<path d="M217.273 299.268L216.157 299.917L245.835 350.61L246.95 349.961L217.273 299.268Z" fill="black"/>
<path d="M215.797 299.807L80.6088 312.682L80.7316 313.964L215.92 301.089L215.797 299.807Z" fill="black"/>
<path d="M218.918 232.218L217.935 233.052L257.943 279.911L258.926 279.076L218.918 232.218Z" fill="black"/>
<path d="M173.305 135.202L172.244 135.936L204.116 181.751L205.178 181.017L173.305 135.202Z" fill="black"/>
<path d="M217.258 446.913L216.157 447.586L241.025 487.982L242.126 487.308L217.258 446.913Z" fill="black"/>
<path d="M216.792 534.909H215.138V533.621H216.792H217.722V534.909H216.792ZM220.305 534.901L220.296 533.613C221.149 533.604 222.01 533.596 222.879 533.587L222.897 534.875C222.027 534.883 221.166 534.892 220.305 534.901ZM212.547 534.892C211.677 534.883 210.816 534.875 209.963 534.866L209.981 533.578C210.833 533.587 211.694 533.596 212.564 533.604L212.547 534.892ZM225.48 534.84L225.463 533.553C226.315 533.536 227.176 533.527 228.046 533.51L228.072 534.797C227.202 534.806 226.332 534.823 225.48 534.84ZM207.38 534.823C206.511 534.806 205.649 534.789 204.797 534.763L204.831 533.475C205.684 533.493 206.545 533.518 207.406 533.536L207.38 534.823ZM230.646 534.737L230.612 533.45C231.464 533.433 232.325 533.407 233.187 533.381L233.221 534.669C232.368 534.686 231.507 534.712 230.646 534.737ZM202.205 534.694C201.336 534.669 200.474 534.643 199.622 534.609L199.665 533.321C200.518 533.355 201.379 533.381 202.24 533.407L202.205 534.694ZM235.821 534.583L235.778 533.295C236.545 533.269 237.406 533.235 238.362 533.192L238.422 534.48C237.457 534.523 236.588 534.557 235.821 534.583ZM197.039 534.506C196.169 534.471 195.308 534.428 194.456 534.385L194.516 533.098C195.368 533.141 196.229 533.175 197.09 533.218L197.039 534.506ZM241.014 534.343L240.936 533.055C241.746 533.012 242.607 532.952 243.511 532.892L243.597 534.179C242.693 534.24 241.832 534.3 241.014 534.343ZM191.872 534.257C191.003 534.205 190.142 534.162 189.289 534.102L189.367 532.814C190.219 532.866 191.072 532.917 191.941 532.96L191.872 534.257ZM246.189 533.991L246.085 532.703C246.912 532.634 247.773 532.566 248.66 532.48L248.781 533.759C247.885 533.845 247.024 533.922 246.189 533.991ZM186.706 533.939C185.836 533.879 184.975 533.819 184.123 533.75L184.217 532.462C185.07 532.523 185.922 532.591 186.792 532.651L186.706 533.939ZM181.548 533.553C180.678 533.484 179.826 533.407 178.974 533.33L179.094 532.05C179.947 532.128 180.799 532.205 181.66 532.274L181.548 533.553ZM251.355 533.518L251.226 532.239C252.061 532.153 252.914 532.068 253.792 531.965L253.938 533.244C253.06 533.338 252.199 533.433 251.355 533.518ZM176.39 533.081C175.521 532.995 174.668 532.909 173.816 532.814L173.953 531.535C174.797 531.63 175.658 531.716 176.519 531.801L176.39 533.081ZM256.513 532.943L256.358 531.664C257.193 531.561 258.054 531.45 258.915 531.338L259.088 532.617C258.218 532.729 257.357 532.84 256.513 532.943ZM171.25 532.531C170.389 532.428 169.528 532.325 168.684 532.222L168.847 530.943C169.691 531.046 170.544 531.149 171.405 531.252L171.25 532.531ZM261.653 532.256L261.473 530.986C262.308 530.866 263.16 530.737 264.021 530.6L264.219 531.87C263.35 532.007 262.497 532.136 261.653 532.256ZM166.109 531.887C165.248 531.776 164.396 531.656 163.543 531.535L163.724 530.265C164.568 530.385 165.42 530.505 166.273 530.617L166.109 531.887ZM266.777 531.458L266.562 530.188C267.397 530.05 268.249 529.904 269.102 529.75L269.326 531.02C268.473 531.166 267.621 531.321 266.777 531.458ZM160.986 531.158C160.125 531.029 159.272 530.892 158.428 530.754L158.635 529.484C159.47 529.621 160.323 529.758 161.175 529.887L160.986 531.158ZM271.883 530.548L271.642 529.286C272.477 529.123 273.321 528.96 274.173 528.788L274.432 530.05C273.571 530.222 272.727 530.385 271.883 530.548ZM155.88 530.316C155.019 530.162 154.175 530.016 153.331 529.853L153.572 528.591C154.407 528.745 155.251 528.9 156.103 529.046L155.88 530.316ZM276.963 529.509L276.688 528.247C277.523 528.067 278.358 527.878 279.202 527.689L279.495 528.943C278.642 529.14 277.799 529.329 276.963 529.509ZM150.791 529.363C149.938 529.192 149.086 529.02 148.251 528.84L148.517 527.578C149.344 527.75 150.188 527.93 151.04 528.093L150.791 529.363ZM282.018 528.35L281.716 527.097C282.543 526.9 283.378 526.685 284.214 526.47L284.532 527.715C283.697 527.938 282.853 528.153 282.018 528.35ZM145.719 528.29C144.867 528.102 144.023 527.904 143.196 527.707L143.497 526.453C144.324 526.651 145.159 526.848 146.003 527.037L145.719 528.29ZM140.682 527.088C139.838 526.874 139.003 526.651 138.176 526.427L138.512 525.183C139.33 525.406 140.156 525.621 141 525.835L140.682 527.088ZM287.038 527.063L286.702 525.818C287.529 525.595 288.355 525.363 289.182 525.123L289.544 526.359C288.708 526.599 287.873 526.84 287.038 527.063ZM135.679 525.732C134.835 525.492 134.008 525.243 133.19 524.994L133.569 523.766C134.379 524.015 135.197 524.256 136.032 524.496L135.679 525.732ZM292.023 525.629L291.645 524.393C292.463 524.144 293.281 523.886 294.099 523.629L294.495 524.857C293.677 525.123 292.85 525.38 292.023 525.629ZM130.719 524.221C129.884 523.955 129.066 523.68 128.256 523.397L128.678 522.178C129.479 522.453 130.289 522.727 131.115 522.994L130.719 524.221ZM296.966 524.05L296.553 522.831C297.362 522.556 298.171 522.273 298.981 521.989L299.411 523.2C298.602 523.492 297.784 523.775 296.966 524.05ZM125.82 522.539C124.993 522.238 124.184 521.929 123.391 521.62L123.856 520.418C124.64 520.727 125.441 521.028 126.259 521.32L125.82 522.539ZM301.848 522.307L301.392 521.105C302.193 520.805 302.993 520.496 303.786 520.186L304.259 521.38C303.458 521.697 302.658 522.006 301.848 522.307ZM120.989 520.659C120.18 520.324 119.379 519.98 118.604 519.637L119.129 518.461C119.904 518.804 120.688 519.139 121.488 519.465L120.989 520.659ZM306.662 520.401L306.162 519.216C306.954 518.89 307.738 518.547 308.522 518.203L309.047 519.38C308.255 519.731 307.462 520.075 306.662 520.401ZM116.236 518.564C115.444 518.186 114.66 517.808 113.902 517.431L114.479 516.28C115.228 516.658 116.003 517.027 116.787 517.396L116.236 518.564ZM311.415 518.315L310.872 517.147C311.647 516.787 312.422 516.418 313.189 516.04L313.757 517.199C312.982 517.577 312.198 517.946 311.415 518.315ZM111.595 516.237C110.82 515.825 110.062 515.405 109.322 514.976L109.967 513.86C110.699 514.28 111.44 514.692 112.206 515.104L111.595 516.237ZM316.082 516.031L315.488 514.89C316.245 514.495 317.003 514.091 317.761 513.679L318.381 514.812C317.614 515.225 316.848 515.628 316.082 516.031ZM107.091 513.645C106.342 513.181 105.61 512.718 104.904 512.246L105.619 511.173C106.316 511.636 107.04 512.091 107.772 512.546L107.091 513.645ZM320.645 513.533L320 512.417C320.74 511.988 321.481 511.55 322.213 511.104L322.884 512.203C322.135 512.658 321.395 513.096 320.645 513.533ZM325.08 510.812L324.374 509.73C325.089 509.267 325.803 508.786 326.509 508.305L327.241 509.361C326.527 509.859 325.812 510.34 325.08 510.812ZM102.76 510.778C102.045 510.263 101.348 509.748 100.668 509.232L101.46 508.211C102.123 508.717 102.803 509.232 103.509 509.73L102.76 510.778ZM329.368 507.867L328.602 506.829C329.291 506.322 329.979 505.807 330.651 505.284L331.443 506.297C330.763 506.837 330.066 507.352 329.368 507.867ZM98.6357 507.593C97.9554 507.026 97.301 506.451 96.6724 505.884L97.5421 504.932C98.1621 505.49 98.7993 506.048 99.4623 506.606L98.6357 507.593ZM333.475 504.674L332.649 503.687C333.303 503.146 333.958 502.588 334.595 502.021L335.447 502.983C334.801 503.558 334.147 504.125 333.475 504.674ZM94.7867 504.09C94.1667 503.472 93.5553 502.837 92.987 502.21L93.9428 501.343C94.5025 501.961 95.0967 502.579 95.708 503.18L94.7867 504.09ZM337.376 501.24L336.489 500.304C337.109 499.721 337.72 499.128 338.315 498.519L339.236 499.42C338.625 500.038 338.005 500.648 337.376 501.24ZM91.2735 500.244C90.7138 499.575 90.1713 498.879 89.6633 498.193L90.6966 497.429C91.196 498.098 91.7213 498.776 92.2637 499.429L91.2735 500.244ZM341.027 497.549L340.08 496.673C340.657 496.046 341.216 495.42 341.767 494.776L342.749 495.617C342.189 496.27 341.612 496.913 341.027 497.549ZM88.165 496.064C87.6828 495.334 87.2179 494.596 86.7787 493.849L87.8895 493.196C88.3114 493.917 88.7678 494.639 89.2328 495.351L88.165 496.064ZM344.411 493.608L343.395 492.81C343.92 492.149 344.437 491.471 344.945 490.784L345.987 491.548C345.47 492.243 344.945 492.93 344.411 493.608ZM85.5216 491.557C85.1255 490.784 84.7466 489.986 84.4022 489.196L85.5818 488.681C85.9176 489.445 86.2879 490.217 86.6668 490.973L85.5216 491.557ZM347.485 489.41L346.417 488.689C346.891 487.985 347.356 487.273 347.804 486.543L348.906 487.221C348.441 487.968 347.967 488.698 347.485 489.41ZM83.4292 486.775C83.1278 485.968 82.8522 485.135 82.5939 484.294L83.8339 483.925C84.075 484.732 84.3505 485.539 84.6433 486.329L83.4292 486.775ZM350.215 484.981L349.087 484.363C349.508 483.607 349.896 482.852 350.258 482.105L351.42 482.663C351.05 483.418 350.645 484.2 350.215 484.981ZM81.9137 481.779C81.7156 480.937 81.5348 480.079 81.3884 479.221L82.6628 478.997C82.8092 479.83 82.9814 480.663 83.1708 481.478L81.9137 481.779ZM352.479 480.259L351.282 479.779C351.609 478.98 351.894 478.173 352.135 477.401L353.366 477.787C353.108 478.602 352.815 479.427 352.479 480.259ZM81.0182 476.628C80.9234 475.77 80.8459 474.894 80.8029 474.018L82.0945 473.95C82.1375 474.799 82.215 475.649 82.3098 476.482L81.0182 476.628ZM354.046 475.246L352.781 474.971C352.961 474.138 353.099 473.306 353.185 472.499L354.468 472.636C354.382 473.495 354.236 474.37 354.046 475.246ZM82.0256 471.417L80.734 471.409C80.734 470.541 80.7685 469.657 80.8201 468.799L82.1117 468.876C82.0514 469.717 82.0256 470.576 82.0256 471.417ZM353.314 470.009C353.306 469.168 353.237 468.344 353.116 467.537L354.391 467.348C354.52 468.206 354.589 469.099 354.597 469.992L353.314 470.009ZM82.3442 466.352L81.0612 466.198C81.1645 465.331 81.3023 464.464 81.4573 463.614L82.7231 463.845C82.5767 464.67 82.4475 465.511 82.3442 466.352ZM352.583 465.125C352.35 464.335 352.049 463.562 351.704 462.807L352.875 462.266C353.246 463.073 353.564 463.906 353.814 464.755L352.583 465.125ZM83.2742 461.373L82.0256 461.055C82.3528 459.776 82.6198 459.064 82.6284 459.038L82.7747 458.66L83.7219 458.574L83.8511 459.484C83.8511 459.484 83.8425 459.519 83.8166 459.579L83.8425 459.854L83.7219 459.862C83.61 460.18 83.4464 460.695 83.2742 461.373ZM350.507 460.626C350.068 459.939 349.569 459.261 349.026 458.617L350.017 457.793C350.593 458.48 351.119 459.201 351.592 459.931L350.507 460.626ZM86.3998 459.622L86.2879 458.343L88.8625 458.111L88.9745 459.39L86.3998 459.622ZM91.5491 459.158L91.4371 457.879L94.0117 457.647L94.1236 458.926L91.5491 459.158ZM96.6896 458.703L96.5777 457.424L99.1523 457.192L99.2642 458.471L96.6896 458.703ZM101.839 458.24L101.727 456.961L104.302 456.729L104.413 458.008L101.839 458.24ZM106.988 457.785L106.876 456.506L109.451 456.274L109.563 457.553L106.988 457.785ZM112.129 457.321L112.017 456.042L114.591 455.81L114.703 457.089L112.129 457.321ZM117.278 456.858L117.166 455.578L119.74 455.347L119.852 456.626L117.278 456.858ZM347.321 456.789C346.727 456.222 346.09 455.664 345.418 455.132L346.219 454.128C346.925 454.686 347.588 455.269 348.208 455.862L347.321 456.789ZM122.418 456.403L122.306 455.123L124.881 454.892L124.993 456.171L122.418 456.403ZM127.568 455.939L127.456 454.66L130.03 454.428L130.142 455.707L127.568 455.939ZM132.717 455.475L132.605 454.196L135.179 453.965L135.291 455.244L132.717 455.475ZM137.857 455.02L137.745 453.741L140.32 453.51L140.432 454.789L137.857 455.02ZM143.007 454.557L142.895 453.278L145.469 453.046L145.581 454.325L143.007 454.557ZM148.147 454.102L148.035 452.823L150.61 452.591L150.722 453.87L148.147 454.102ZM343.369 453.647C342.68 453.192 341.957 452.746 341.208 452.316L341.845 451.2C342.62 451.638 343.378 452.102 344.084 452.574L343.369 453.647ZM153.296 453.638L153.184 452.359L155.759 452.127L155.871 453.406L153.296 453.638ZM158.446 453.175L158.334 451.896L160.908 451.664L161.02 452.943L158.446 453.175ZM163.586 452.72L163.474 451.441L166.049 451.209L166.161 452.488L163.586 452.72ZM168.735 452.256L168.623 450.977L171.198 450.745L171.31 452.024L168.735 452.256ZM173.876 451.793L173.764 450.513L176.339 450.282L176.451 451.561L173.876 451.793ZM179.025 451.338L178.913 450.059L181.488 449.827L181.6 451.106L179.025 451.338ZM338.96 451.14C338.211 450.78 337.428 450.428 336.635 450.093L337.135 448.908C337.953 449.243 338.754 449.612 339.529 449.981L338.96 451.14ZM184.174 450.874L184.062 449.595L186.637 449.363L186.749 450.642L184.174 450.874ZM189.315 450.41L189.203 449.131L191.778 448.9L191.89 450.179L189.315 450.41ZM194.464 449.956L194.352 448.676L196.927 448.445L197.039 449.724L194.464 449.956ZM199.605 449.492L199.493 448.213L202.067 447.981L202.179 449.26L199.605 449.492ZM334.25 449.174C333.441 448.891 332.623 448.625 331.822 448.393L332.184 447.157C333.01 447.397 333.846 447.672 334.681 447.964L334.25 449.174ZM204.754 449.037L204.642 447.758L207.217 447.526L207.329 448.805L204.754 449.037ZM209.903 448.573L209.791 447.294L212.366 447.062L212.478 448.342L209.903 448.573ZM215.044 448.11L214.932 446.831L217.506 446.599L217.618 447.878L215.044 448.11Z" fill="black"/>
<path d="M218.966 492.242L217.865 492.915L252.305 548.887L253.406 548.214L218.966 492.242Z" fill="black"/>
<path d="M113.447 487.003L34.1301 489.527L34.1713 490.814L113.488 488.29L113.447 487.003Z" fill="black"/>
<path d="M170.251 555.186L170.147 553.898L443.761 532.531L367.892 412.69H352.161V411.402H368.607L446 533.647L170.251 555.186Z" fill="black"/>
<path d="M70.7973 562.947L2.11829 429.473L115.926 424.279L115.986 425.567L4.18485 430.666L71.555 561.599L114.178 558.268L114.281 559.556L70.7973 562.947Z" fill="black"/>
<path d="M353.252 202.997L216.661 209.65L216.724 210.936L353.315 204.283L353.252 202.997Z" fill="black"/>
<path d="M78.874 249.341L78.719 248.062L210.222 232.137L178.586 197.292L179.55 196.434L212.848 233.116L78.874 249.341Z" fill="black"/>
<path d="M353.282 269.78L289.423 270.652L289.441 271.94L353.3 271.068L353.282 269.78Z" fill="black"/>
<path d="M348.377 339.685L280.209 341.364L280.241 342.652L348.409 340.973L348.377 339.685Z" fill="black"/>
<path d="M348.251 407.977H300.29V409.264H348.251V407.977Z" fill="black"/>
<path d="M285.918 474.31L285.849 473.022L391.055 467.408L376.684 463.313L377.037 462.077L398.831 468.284L285.918 474.31Z" fill="black"/>
<path d="M394.637 467.262L382.584 473.27L383.161 474.422L395.214 468.414L394.637 467.262Z" fill="black"/>
<path d="M350.516 244.044L350.18 242.799C350.576 242.696 389.72 231.751 390.969 196.202L392.261 196.245C390.978 232.755 350.921 243.941 350.516 244.044Z" fill="black"/>
<path d="M354.009 233.6L349.759 243.187L350.94 243.708L355.191 234.121L354.009 233.6Z" fill="black"/>
<path d="M350.644 242.837L350.071 243.991L359.077 248.436L359.65 247.282L350.644 242.837Z" fill="black"/>
<path d="M7.75719 166.217L0.00549316 180.814L1.14701 181.417L8.89871 166.819L7.75719 166.217Z" fill="black"/>
<path d="M8.55002 165.923L8.09021 167.127L26.1712 173.994L26.631 172.791L8.55002 165.923Z" fill="black"/>
<path d="M71.1761 205.19C66.6468 205.19 61.2393 204.812 55.4443 203.636C40.8664 200.675 20.769 191.875 7.74963 166.817L8.89486 166.224C21.6645 190.811 41.3744 199.447 55.651 202.366C71.1675 205.533 83.8252 202.838 83.9544 202.804L84.2299 204.057C84.1524 204.083 78.9688 205.19 71.1761 205.19Z" fill="black"/>
<path d="M406.95 123.012L394.481 135.139L395.383 136.061L407.852 123.934L406.95 123.012Z" fill="black"/>
<path d="M407.78 122.949L407.033 124L422.983 135.266L423.73 134.215L407.78 122.949Z" fill="black"/>
<path d="M371.569 184.39L371.001 183.231C371.44 183.016 414.459 161.469 406.778 123.619L408.044 123.361C415.923 162.19 372.008 184.175 371.569 184.39Z" fill="black"/>
<path d="M10.1143 295.929L1.03149 305.36L1.96313 306.252L11.046 296.821L10.1143 295.929Z" fill="black"/>
<path d="M55.0396 342.21C54.609 342.141 11.9861 334.878 9.9281 296.419L11.2197 296.35C13.226 333.762 54.8329 340.87 55.2462 340.931L55.0396 342.21Z" fill="black"/>
<path d="M263.582 66.4901L253.251 77.6505L254.2 78.5238L264.531 67.3635L263.582 66.4901Z" fill="black"/>
<path d="M264.421 66.4098L263.685 67.4685L274.878 75.1939L275.614 74.1351L264.421 66.4098Z" fill="black"/>
<path d="M235.83 127.645L235.451 126.417C235.537 126.392 244.458 123.55 252.319 114.854C259.57 106.836 267.38 92.0274 263.419 67.0375L264.693 66.84C266.923 80.9274 266.751 100.852 253.232 115.764C245.138 124.701 236.209 127.533 235.83 127.645Z" fill="black"/>
<path d="M221.235 44.544L219.96 44.7484L222.377 59.7417L223.652 59.5374L221.235 44.544Z" fill="black"/>
<path d="M222.827 59.0115L209.819 63.0153L210.2 64.2457L223.208 60.2419L222.827 59.0115Z" fill="black"/>
<path d="M222.707 60.1955C210.213 53.242 194.61 40.7856 191.201 20.9809C189.16 9.10831 192.441 0.36914 192.587 0L193.792 0.463571C193.758 0.549417 190.486 9.29717 192.492 20.8349C194.344 31.4713 201.189 46.7434 223.344 59.0795L222.707 60.1955Z" fill="black"/>
<path d="M411.204 349.962C385.639 319.658 353.521 319.958 353.202 319.958L353.177 318.671C353.521 318.671 386.242 318.37 412.194 349.129L411.204 349.962Z" fill="black"/>
<path d="M411.649 348.88L396.636 349.661L396.703 350.947L411.716 350.166L411.649 348.88Z" fill="black"/>
<path d="M411.808 337.86L411.083 349.513L412.372 349.592L413.097 337.939L411.808 337.86Z" fill="black"/>
<path d="M136.278 89.4575L135.139 90.0639L140.872 100.773L142.012 100.166L136.278 89.4575Z" fill="black"/>
<path d="M193.836 115.369C178.991 86.8938 136.196 90.3534 135.765 90.3877L135.653 89.1086C136.092 89.0657 179.74 85.5374 194.981 114.777L193.836 115.369Z" fill="black"/>
<path d="M143.187 80.9446L135.239 89.3074L136.176 90.1931L144.124 81.8303L143.187 80.9446Z" fill="black"/>
<path d="M10.9301 295.846L10.2146 296.918L19.7773 303.262L20.4928 302.19L10.9301 295.846Z" fill="black"/>
<path d="M34.7528 390.824L33.5559 390.344C45.6195 360.272 83.6702 357.344 84.0577 357.319L84.1438 358.606C83.7649 358.632 46.515 361.508 34.7528 390.824Z" fill="black"/>
<path d="M32.2201 374.184L30.9442 374.385L33.5287 390.7L34.8045 390.499L32.2201 374.184Z" fill="black"/>
<path d="M46.0098 385.696L33.9521 389.993L34.3869 391.206L46.4445 386.909L46.0098 385.696Z" fill="black"/>
<path d="M190.865 311.176C191.578 311.176 192.156 310.6 192.156 309.888C192.156 309.177 191.578 308.601 190.865 308.601C190.152 308.601 189.573 309.177 189.573 309.888C189.573 310.6 190.152 311.176 190.865 311.176Z" fill="black"/>
<path d="M209.378 223.184C210.091 223.184 210.67 222.607 210.67 221.896C210.67 221.185 210.091 220.608 209.378 220.608C208.665 220.608 208.086 221.185 208.086 221.896C208.086 222.607 208.665 223.184 209.378 223.184Z" fill="black"/>
<path d="M212.822 235.202C213.535 235.202 214.114 234.626 214.114 233.914C214.114 233.203 213.535 232.627 212.822 232.627C212.109 232.627 211.531 233.203 211.531 233.914C211.531 234.626 212.109 235.202 212.822 235.202Z" fill="black"/>
<path d="M216.266 233.485C216.98 233.485 217.558 232.909 217.558 232.197C217.558 231.486 216.98 230.91 216.266 230.91C215.553 230.91 214.975 231.486 214.975 232.197C214.975 232.909 215.553 233.485 216.266 233.485Z" fill="black"/>
<path d="M211.1 229.193C211.813 229.193 212.392 228.616 212.392 227.905C212.392 227.194 211.813 226.617 211.1 226.617C210.387 226.617 209.808 227.194 209.808 227.905C209.808 228.616 210.387 229.193 211.1 229.193Z" fill="black"/>
<path d="M211.961 217.174C212.674 217.174 213.253 216.598 213.253 215.887C213.253 215.175 212.674 214.599 211.961 214.599C211.248 214.599 210.669 215.175 210.669 215.887C210.669 216.598 211.248 217.174 211.961 217.174Z" fill="black"/>
<path d="M200.767 216.316C201.481 216.316 202.059 215.739 202.059 215.028C202.059 214.317 201.481 213.74 200.767 213.74C200.054 213.74 199.476 214.317 199.476 215.028C199.476 215.739 200.054 216.316 200.767 216.316Z" fill="black"/>
<path d="M211.1 208.59C211.813 208.59 212.392 208.013 212.392 207.302C212.392 206.591 211.813 206.014 211.1 206.014C210.387 206.014 209.808 206.591 209.808 207.302C209.808 208.013 210.387 208.59 211.1 208.59Z" fill="black"/>
<path d="M211.1 205.156C211.813 205.156 212.392 204.579 212.392 203.868C212.392 203.157 211.813 202.58 211.1 202.58C210.387 202.58 209.808 203.157 209.808 203.868C209.808 204.579 210.387 205.156 211.1 205.156Z" fill="black"/>
<path d="M205.934 219.75C206.647 219.75 207.225 219.173 207.225 218.462C207.225 217.751 206.647 217.174 205.934 217.174C205.22 217.174 204.642 217.751 204.642 218.462C204.642 219.173 205.22 219.75 205.934 219.75Z" fill="black"/>
<path d="M193.018 203.439C193.731 203.439 194.309 202.862 194.309 202.151C194.309 201.44 193.731 200.863 193.018 200.863C192.304 200.863 191.726 201.44 191.726 202.151C191.726 202.862 192.304 203.439 193.018 203.439Z" fill="black"/>
<path d="M207.656 203.439C208.369 203.439 208.947 202.862 208.947 202.151C208.947 201.44 208.369 200.863 207.656 200.863C206.942 200.863 206.364 201.44 206.364 202.151C206.364 202.862 206.942 203.439 207.656 203.439Z" fill="black"/>
<path d="M204.211 217.174C204.925 217.174 205.503 216.598 205.503 215.887C205.503 215.175 204.925 214.599 204.211 214.599C203.498 214.599 202.92 215.175 202.92 215.887C202.92 216.598 203.498 217.174 204.211 217.174Z" fill="black"/>
<path d="M205.934 213.74C206.647 213.74 207.225 213.164 207.225 212.453C207.225 211.742 206.647 211.165 205.934 211.165C205.22 211.165 204.642 211.742 204.642 212.453C204.642 213.164 205.22 213.74 205.934 213.74Z" fill="black"/>
<path d="M202.489 212.882C203.203 212.882 203.781 212.305 203.781 211.594C203.781 210.883 203.203 210.307 202.489 210.307C201.776 210.307 201.198 210.883 201.198 211.594C201.198 212.305 201.776 212.882 202.489 212.882Z" fill="black"/>
<path d="M209.378 211.165C210.091 211.165 210.67 210.589 210.67 209.877C210.67 209.166 210.091 208.59 209.378 208.59C208.665 208.59 208.086 209.166 208.086 209.877C208.086 210.589 208.665 211.165 209.378 211.165Z" fill="black"/>
<path d="M219.711 225.759C220.424 225.759 221.002 225.182 221.002 224.471C221.002 223.76 220.424 223.184 219.711 223.184C218.997 223.184 218.419 223.76 218.419 224.471C218.419 225.182 218.997 225.759 219.711 225.759Z" fill="black"/>
<path d="M219.711 208.59C220.424 208.59 221.002 208.013 221.002 207.302C221.002 206.591 220.424 206.014 219.711 206.014C218.997 206.014 218.419 206.591 218.419 207.302C218.419 208.013 218.997 208.59 219.711 208.59Z" fill="black"/>
<path d="M217.989 191.42C218.702 191.42 219.28 190.844 219.28 190.133C219.28 189.421 218.702 188.845 217.989 188.845C217.275 188.845 216.697 189.421 216.697 190.133C216.697 190.844 217.275 191.42 217.989 191.42Z" fill="black"/>
<path d="M222.294 196.571C223.007 196.571 223.586 195.995 223.586 195.283C223.586 194.572 223.007 193.996 222.294 193.996C221.581 193.996 221.002 194.572 221.002 195.283C221.002 195.995 221.581 196.571 222.294 196.571Z" fill="black"/>
<path d="M219.711 175.11C220.424 175.11 221.002 174.533 221.002 173.822C221.002 173.111 220.424 172.534 219.711 172.534C218.997 172.534 218.419 173.111 218.419 173.822C218.419 174.533 218.997 175.11 219.711 175.11Z" fill="black"/>
<path d="M223.155 206.873C223.868 206.873 224.447 206.296 224.447 205.585C224.447 204.874 223.868 204.297 223.155 204.297C222.442 204.297 221.863 204.874 221.863 205.585C221.863 206.296 222.442 206.873 223.155 206.873Z" fill="black"/>
<path d="M224.016 203.439C224.729 203.439 225.308 202.862 225.308 202.151C225.308 201.44 224.729 200.863 224.016 200.863C223.303 200.863 222.724 201.44 222.724 202.151C222.724 202.862 223.303 203.439 224.016 203.439Z" fill="black"/>
<path d="M225.738 206.873C226.451 206.873 227.03 206.296 227.03 205.585C227.03 204.874 226.451 204.297 225.738 204.297C225.025 204.297 224.447 204.874 224.447 205.585C224.447 206.296 225.025 206.873 225.738 206.873Z" fill="black"/>
<path d="M224.016 193.137C224.729 193.137 225.308 192.561 225.308 191.85C225.308 191.138 224.729 190.562 224.016 190.562C223.303 190.562 222.724 191.138 222.724 191.85C222.724 192.561 223.303 193.137 224.016 193.137Z" fill="black"/>
<path d="M222.294 200.005C223.007 200.005 223.586 199.428 223.586 198.717C223.586 198.006 223.007 197.43 222.294 197.43C221.581 197.43 221.002 198.006 221.002 198.717C221.002 199.428 221.581 200.005 222.294 200.005Z" fill="black"/>
<path d="M233.488 162.233C234.201 162.233 234.779 161.656 234.779 160.945C234.779 160.234 234.201 159.657 233.488 159.657C232.774 159.657 232.196 160.234 232.196 160.945C232.196 161.656 232.774 162.233 233.488 162.233Z" fill="black"/>
<path d="M218.85 199.147C219.563 199.147 220.141 198.57 220.141 197.859C220.141 197.148 219.563 196.571 218.85 196.571C218.136 196.571 217.558 197.148 217.558 197.859C217.558 198.57 218.136 199.147 218.85 199.147Z" fill="black"/>
<path d="M218.85 168.242C219.563 168.242 220.141 167.665 220.141 166.954C220.141 166.243 219.563 165.666 218.85 165.666C218.136 165.666 217.558 166.243 217.558 166.954C217.558 167.665 218.136 168.242 218.85 168.242Z" fill="black"/>
<path d="M225.738 187.128C226.451 187.128 227.03 186.551 227.03 185.84C227.03 185.129 226.451 184.553 225.738 184.553C225.025 184.553 224.447 185.129 224.447 185.84C224.447 186.551 225.025 187.128 225.738 187.128Z" fill="black"/>
<path d="M218.85 194.854C219.563 194.854 220.141 194.278 220.141 193.567C220.141 192.855 219.563 192.279 218.85 192.279C218.136 192.279 217.558 192.855 217.558 193.567C217.558 194.278 218.136 194.854 218.85 194.854Z" fill="black"/>
<path d="M223.155 176.826C223.868 176.826 224.447 176.25 224.447 175.539C224.447 174.828 223.868 174.251 223.155 174.251C222.442 174.251 221.863 174.828 221.863 175.539C221.863 176.25 222.442 176.826 223.155 176.826Z" fill="black"/>
<path d="M222.294 187.128C223.007 187.128 223.586 186.551 223.586 185.84C223.586 185.129 223.007 184.553 222.294 184.553C221.581 184.553 221.002 185.129 221.002 185.84C221.002 186.551 221.581 187.128 222.294 187.128Z" fill="black"/>
<path d="M218.85 187.128C219.563 187.128 220.141 186.551 220.141 185.84C220.141 185.129 219.563 184.553 218.85 184.553C218.136 184.553 217.558 185.129 217.558 185.84C217.558 186.551 218.136 187.128 218.85 187.128Z" fill="black"/>
<path d="M224.016 210.307C224.729 210.307 225.308 209.73 225.308 209.019C225.308 208.308 224.729 207.731 224.016 207.731C223.303 207.731 222.724 208.308 222.724 209.019C222.724 209.73 223.303 210.307 224.016 210.307Z" fill="black"/>
<path d="M218.85 203.439C219.563 203.439 220.141 202.862 220.141 202.151C220.141 201.44 219.563 200.863 218.85 200.863C218.136 200.863 217.558 201.44 217.558 202.151C217.558 202.862 218.136 203.439 218.85 203.439Z" fill="black"/>
<path d="M230.905 179.402C231.618 179.402 232.196 178.825 232.196 178.114C232.196 177.403 231.618 176.826 230.905 176.826C230.191 176.826 229.613 177.403 229.613 178.114C229.613 178.825 230.191 179.402 230.905 179.402Z" fill="black"/>
<path d="M221.433 190.562C222.146 190.562 222.724 189.985 222.724 189.274C222.724 188.563 222.146 187.987 221.433 187.987C220.72 187.987 220.141 188.563 220.141 189.274C220.141 189.985 220.72 190.562 221.433 190.562Z" fill="black"/>
<path d="M207.656 206.873C208.369 206.873 208.947 206.296 208.947 205.585C208.947 204.874 208.369 204.297 207.656 204.297C206.942 204.297 206.364 204.874 206.364 205.585C206.364 206.296 206.942 206.873 207.656 206.873Z" fill="black"/>
<path d="M196.462 212.882C197.175 212.882 197.753 212.305 197.753 211.594C197.753 210.883 197.175 210.307 196.462 210.307C195.748 210.307 195.17 210.883 195.17 211.594C195.17 212.305 195.748 212.882 196.462 212.882Z" fill="black"/>
<path d="M202.489 228.334C203.203 228.334 203.781 227.758 203.781 227.047C203.781 226.335 203.203 225.759 202.489 225.759C201.776 225.759 201.198 226.335 201.198 227.047C201.198 227.758 201.776 228.334 202.489 228.334Z" fill="black"/>
<path d="M204.211 230.91C204.925 230.91 205.503 230.333 205.503 229.622C205.503 228.911 204.925 228.334 204.211 228.334C203.498 228.334 202.92 228.911 202.92 229.622C202.92 230.333 203.498 230.91 204.211 230.91Z" fill="black"/>
<path d="M199.045 226.617C199.758 226.617 200.337 226.041 200.337 225.33C200.337 224.619 199.758 224.042 199.045 224.042C198.332 224.042 197.753 224.619 197.753 225.33C197.753 226.041 198.332 226.617 199.045 226.617Z" fill="black"/>
<path d="M214.544 235.202C215.258 235.202 215.836 234.626 215.836 233.914C215.836 233.203 215.258 232.627 214.544 232.627C213.831 232.627 213.253 233.203 213.253 233.914C213.253 234.626 213.831 235.202 214.544 235.202Z" fill="black"/>
<path d="M212.822 232.627C213.535 232.627 214.114 232.05 214.114 231.339C214.114 230.628 213.535 230.051 212.822 230.051C212.109 230.051 211.531 230.628 211.531 231.339C211.531 232.05 212.109 232.627 212.822 232.627Z" fill="black"/>
<path d="M205.934 224.042C206.647 224.042 207.225 223.465 207.225 222.754C207.225 222.043 206.647 221.467 205.934 221.467C205.22 221.467 204.642 222.043 204.642 222.754C204.642 223.465 205.22 224.042 205.934 224.042Z" fill="black"/>
<path d="M217.989 233.485C218.702 233.485 219.28 232.909 219.28 232.197C219.28 231.486 218.702 230.91 217.989 230.91C217.275 230.91 216.697 231.486 216.697 232.197C216.697 232.909 217.275 233.485 217.989 233.485Z" fill="black"/>
<path d="M217.128 232.627C217.841 232.627 218.419 232.05 218.419 231.339C218.419 230.628 217.841 230.051 217.128 230.051C216.414 230.051 215.836 230.628 215.836 231.339C215.836 232.05 216.414 232.627 217.128 232.627Z" fill="black"/>
<path d="M176.657 203.439C177.371 203.439 177.949 202.862 177.949 202.151C177.949 201.44 177.371 200.863 176.657 200.863C175.944 200.863 175.366 201.44 175.366 202.151C175.366 202.862 175.944 203.439 176.657 203.439Z" fill="black"/>
<path d="M180.963 211.165C181.676 211.165 182.254 210.589 182.254 209.877C182.254 209.166 181.676 208.59 180.963 208.59C180.249 208.59 179.671 209.166 179.671 209.877C179.671 210.589 180.249 211.165 180.963 211.165Z" fill="black"/>
<path d="M205.072 208.59C205.786 208.59 206.364 208.013 206.364 207.302C206.364 206.591 205.786 206.014 205.072 206.014C204.359 206.014 203.781 206.591 203.781 207.302C203.781 208.013 204.359 208.59 205.072 208.59Z" fill="black"/>
<path d="M161.158 206.014C161.871 206.014 162.45 205.438 162.45 204.727C162.45 204.015 161.871 203.439 161.158 203.439C160.445 203.439 159.866 204.015 159.866 204.727C159.866 205.438 160.445 206.014 161.158 206.014Z" fill="black"/>
<path d="M199.045 208.59C199.758 208.59 200.337 208.013 200.337 207.302C200.337 206.591 199.758 206.014 199.045 206.014C198.332 206.014 197.753 206.591 197.753 207.302C197.753 208.013 198.332 208.59 199.045 208.59Z" fill="black"/>
<path d="M186.99 217.174C187.703 217.174 188.282 216.598 188.282 215.887C188.282 215.175 187.703 214.599 186.99 214.599C186.277 214.599 185.698 215.175 185.698 215.887C185.698 216.598 186.277 217.174 186.99 217.174Z" fill="black"/>
<path d="M211.1 178.543C211.813 178.543 212.392 177.967 212.392 177.256C212.392 176.545 211.813 175.968 211.1 175.968C210.387 175.968 209.808 176.545 209.808 177.256C209.808 177.967 210.387 178.543 211.1 178.543Z" fill="black"/>
<path d="M211.961 167.383C212.674 167.383 213.253 166.807 213.253 166.096C213.253 165.385 212.674 164.808 211.961 164.808C211.248 164.808 210.669 165.385 210.669 166.096C210.669 166.807 211.248 167.383 211.961 167.383Z" fill="black"/>
<path d="M199.906 170.817C200.619 170.817 201.198 170.241 201.198 169.53C201.198 168.818 200.619 168.242 199.906 168.242C199.193 168.242 198.615 168.818 198.615 169.53C198.615 170.241 199.193 170.817 199.906 170.817Z" fill="black"/>
<path d="M207.656 166.525C208.369 166.525 208.947 165.948 208.947 165.237C208.947 164.526 208.369 163.949 207.656 163.949C206.942 163.949 206.364 164.526 206.364 165.237C206.364 165.948 206.942 166.525 207.656 166.525Z" fill="black"/>
<path d="M207.656 155.365C208.369 155.365 208.947 154.788 208.947 154.077C208.947 153.366 208.369 152.789 207.656 152.789C206.942 152.789 206.364 153.366 206.364 154.077C206.364 154.788 206.942 155.365 207.656 155.365Z" fill="black"/>
<path d="M206.795 178.543C207.508 178.543 208.086 177.967 208.086 177.256C208.086 176.545 207.508 175.968 206.795 175.968C206.081 175.968 205.503 176.545 205.503 177.256C205.503 177.967 206.081 178.543 206.795 178.543Z" fill="black"/>
<path d="M211.1 163.949C211.813 163.949 212.392 163.373 212.392 162.662C212.392 161.951 211.813 161.374 211.1 161.374C210.387 161.374 209.808 161.951 209.808 162.662C209.808 163.373 210.387 163.949 211.1 163.949Z" fill="black"/>
<path d="M211.961 170.817C212.674 170.817 213.253 170.241 213.253 169.53C213.253 168.818 212.674 168.242 211.961 168.242C211.248 168.242 210.669 168.818 210.669 169.53C210.669 170.241 211.248 170.817 211.961 170.817Z" fill="black"/>
<path d="M204.211 176.826C204.925 176.826 205.503 176.25 205.503 175.539C205.503 174.828 204.925 174.251 204.211 174.251C203.498 174.251 202.92 174.828 202.92 175.539C202.92 176.25 203.498 176.826 204.211 176.826Z" fill="black"/>
<path d="M193.879 157.082C194.592 157.082 195.17 156.505 195.17 155.794C195.17 155.083 194.592 154.506 193.879 154.506C193.165 154.506 192.587 155.083 192.587 155.794C192.587 156.505 193.165 157.082 193.879 157.082Z" fill="black"/>
<path d="M210.239 175.968C210.952 175.968 211.53 175.391 211.53 174.68C211.53 173.969 210.952 173.393 210.239 173.393C209.526 173.393 208.947 173.969 208.947 174.68C208.947 175.391 209.526 175.968 210.239 175.968Z" fill="black"/>
<path d="M203.35 169.959C204.064 169.959 204.642 169.382 204.642 168.671C204.642 167.96 204.064 167.383 203.35 167.383C202.637 167.383 202.059 167.96 202.059 168.671C202.059 169.382 202.637 169.959 203.35 169.959Z" fill="black"/>
<path d="M196.462 149.356C197.175 149.356 197.753 148.779 197.753 148.068C197.753 147.357 197.175 146.78 196.462 146.78C195.748 146.78 195.17 147.357 195.17 148.068C195.17 148.779 195.748 149.356 196.462 149.356Z" fill="black"/>
<path d="M209.378 171.676C210.091 171.676 210.67 171.099 210.67 170.388C210.67 169.677 210.091 169.1 209.378 169.1C208.665 169.1 208.086 169.677 208.086 170.388C208.086 171.099 208.665 171.676 209.378 171.676Z" fill="black"/>
<path d="M205.934 173.393C206.647 173.393 207.225 172.816 207.225 172.105C207.225 171.394 206.647 170.817 205.934 170.817C205.22 170.817 204.642 171.394 204.642 172.105C204.642 172.816 205.22 173.393 205.934 173.393Z" fill="black"/>
<path d="M196.462 179.402C197.175 179.402 197.753 178.825 197.753 178.114C197.753 177.403 197.175 176.826 196.462 176.826C195.748 176.826 195.17 177.403 195.17 178.114C195.17 178.825 195.748 179.402 196.462 179.402Z" fill="black"/>
<path d="M148.242 206.014C148.955 206.014 149.534 205.438 149.534 204.727C149.534 204.015 148.955 203.439 148.242 203.439C147.529 203.439 146.95 204.015 146.95 204.727C146.95 205.438 147.529 206.014 148.242 206.014Z" fill="black"/>
<path d="M209.378 218.891C210.091 218.891 210.67 218.315 210.67 217.603C210.67 216.892 210.091 216.316 209.378 216.316C208.665 216.316 208.086 216.892 208.086 217.603C208.086 218.315 208.665 218.891 209.378 218.891Z" fill="black"/>
<path d="M209.378 214.599C210.091 214.599 210.67 214.022 210.67 213.311C210.67 212.6 210.091 212.023 209.378 212.023C208.665 212.023 208.086 212.6 208.086 213.311C208.086 214.022 208.665 214.599 209.378 214.599Z" fill="black"/>
<path d="M210.239 226.617C210.952 226.617 211.53 226.041 211.53 225.33C211.53 224.619 210.952 224.042 210.239 224.042C209.526 224.042 208.947 224.619 208.947 225.33C208.947 226.041 209.526 226.617 210.239 226.617Z" fill="black"/>
<path d="M199.906 230.91C200.619 230.91 201.198 230.333 201.198 229.622C201.198 228.911 200.619 228.334 199.906 228.334C199.193 228.334 198.615 228.911 198.615 229.622C198.615 230.333 199.193 230.91 199.906 230.91Z" fill="black"/>
<path d="M202.489 311.605C203.203 311.605 203.781 311.029 203.781 310.318C203.781 309.606 203.203 309.03 202.489 309.03C201.776 309.03 201.198 309.606 201.198 310.318C201.198 311.029 201.776 311.605 202.489 311.605Z" fill="black"/>
<path d="M167.185 287.568C167.899 287.568 168.477 286.992 168.477 286.281C168.477 285.569 167.899 284.993 167.185 284.993C166.472 284.993 165.894 285.569 165.894 286.281C165.894 286.992 166.472 287.568 167.185 287.568Z" fill="black"/>
<path d="M96.5776 296.153C97.291 296.153 97.8692 295.577 97.8692 294.865C97.8692 294.154 97.291 293.578 96.5776 293.578C95.8643 293.578 95.286 294.154 95.286 294.865C95.286 295.577 95.8643 296.153 96.5776 296.153Z" fill="black"/>
<path d="M213.683 308.171C214.397 308.171 214.975 307.595 214.975 306.884C214.975 306.173 214.397 305.596 213.683 305.596C212.97 305.596 212.392 306.173 212.392 306.884C212.392 307.595 212.97 308.171 213.683 308.171Z" fill="black"/>
<path d="M181.824 289.285C182.537 289.285 183.115 288.709 183.115 287.998C183.115 287.286 182.537 286.71 181.824 286.71C181.11 286.71 180.532 287.286 180.532 287.998C180.532 288.709 181.11 289.285 181.824 289.285Z" fill="black"/>
<path d="M186.129 296.153C186.842 296.153 187.421 295.577 187.421 294.865C187.421 294.154 186.842 293.578 186.129 293.578C185.416 293.578 184.837 294.154 184.837 294.865C184.837 295.577 185.416 296.153 186.129 296.153Z" fill="black"/>
<path d="M140.492 284.993C141.206 284.993 141.784 284.416 141.784 283.705C141.784 282.994 141.206 282.418 140.492 282.418C139.779 282.418 139.201 282.994 139.201 283.705C139.201 284.416 139.779 284.993 140.492 284.993Z" fill="black"/>
<path d="M163.741 296.153C164.454 296.153 165.033 295.577 165.033 294.865C165.033 294.154 164.454 293.578 163.741 293.578C163.028 293.578 162.449 294.154 162.449 294.865C162.449 295.577 163.028 296.153 163.741 296.153Z" fill="black"/>
<path d="M110.355 297.87C111.068 297.87 111.646 297.293 111.646 296.582C111.646 295.871 111.068 295.295 110.355 295.295C109.642 295.295 109.063 295.871 109.063 296.582C109.063 297.293 109.642 297.87 110.355 297.87Z" fill="black"/>
<path d="M129.298 282.418C130.012 282.418 130.59 281.841 130.59 281.13C130.59 280.419 130.012 279.842 129.298 279.842C128.585 279.842 128.007 280.419 128.007 281.13C128.007 281.841 128.585 282.418 129.298 282.418Z" fill="black"/>
<path d="M210.239 321.048C210.952 321.048 211.53 320.472 211.53 319.761C211.53 319.05 210.952 318.473 210.239 318.473C209.526 318.473 208.947 319.05 208.947 319.761C208.947 320.472 209.526 321.048 210.239 321.048Z" fill="black"/>
<path d="M205.072 371.698C205.786 371.698 206.364 371.121 206.364 370.41C206.364 369.699 205.786 369.122 205.072 369.122C204.359 369.122 203.781 369.699 203.781 370.41C203.781 371.121 204.359 371.698 205.072 371.698Z" fill="black"/>
<path d="M208.517 363.972C209.23 363.972 209.808 363.395 209.808 362.684C209.808 361.973 209.23 361.396 208.517 361.396C207.803 361.396 207.225 361.973 207.225 362.684C207.225 363.395 207.803 363.972 208.517 363.972Z" fill="black"/>
<path d="M196.462 363.972C197.175 363.972 197.753 363.395 197.753 362.684C197.753 361.973 197.175 361.396 196.462 361.396C195.748 361.396 195.17 361.973 195.17 362.684C195.17 363.395 195.748 363.972 196.462 363.972Z" fill="black"/>
<path d="M200.767 366.547C201.481 366.547 202.059 365.971 202.059 365.259C202.059 364.548 201.481 363.972 200.767 363.972C200.054 363.972 199.476 364.548 199.476 365.259C199.476 365.971 200.054 366.547 200.767 366.547Z" fill="black"/>
<path d="M208.517 375.99C209.23 375.99 209.808 375.414 209.808 374.702C209.808 373.991 209.23 373.415 208.517 373.415C207.803 373.415 207.225 373.991 207.225 374.702C207.225 375.414 207.803 375.99 208.517 375.99Z" fill="black"/>
<path d="M304.096 337.359C304.809 337.359 305.387 336.783 305.387 336.072C305.387 335.36 304.809 334.784 304.096 334.784C303.382 334.784 302.804 335.36 302.804 336.072C302.804 336.783 303.382 337.359 304.096 337.359Z" fill="black"/>
<path d="M313.567 330.492C314.281 330.492 314.859 329.915 314.859 329.204C314.859 328.493 314.281 327.916 313.567 327.916C312.854 327.916 312.276 328.493 312.276 329.204C312.276 329.915 312.854 330.492 313.567 330.492Z" fill="black"/>
<path d="M314.428 334.784C315.142 334.784 315.72 334.207 315.72 333.496C315.72 332.785 315.142 332.208 314.428 332.208C313.715 332.208 313.137 332.785 313.137 333.496C313.137 334.207 313.715 334.784 314.428 334.784Z" fill="black"/>
<path d="M319.595 334.784C320.308 334.784 320.886 334.207 320.886 333.496C320.886 332.785 320.308 332.208 319.595 332.208C318.881 332.208 318.303 332.785 318.303 333.496C318.303 334.207 318.881 334.784 319.595 334.784Z" fill="black"/>
<path d="M334.233 348.519C334.946 348.519 335.525 347.943 335.525 347.232C335.525 346.52 334.946 345.944 334.233 345.944C333.52 345.944 332.941 346.52 332.941 347.232C332.941 347.943 333.52 348.519 334.233 348.519Z" fill="black"/>
<path d="M272.236 347.661C272.949 347.661 273.528 347.084 273.528 346.373C273.528 345.662 272.949 345.085 272.236 345.085C271.523 345.085 270.944 345.662 270.944 346.373C270.944 347.084 271.523 347.661 272.236 347.661Z" fill="black"/>
<path d="M309.262 334.784C309.975 334.784 310.554 334.207 310.554 333.496C310.554 332.785 309.975 332.208 309.262 332.208C308.549 332.208 307.97 332.785 307.97 333.496C307.97 334.207 308.549 334.784 309.262 334.784Z" fill="black"/>
<path d="M300.651 339.076C301.365 339.076 301.943 338.5 301.943 337.789C301.943 337.077 301.365 336.501 300.651 336.501C299.938 336.501 299.36 337.077 299.36 337.789C299.36 338.5 299.938 339.076 300.651 339.076Z" fill="black"/>
<path d="M305.818 334.784C306.531 334.784 307.109 334.207 307.109 333.496C307.109 332.785 306.531 332.208 305.818 332.208C305.104 332.208 304.526 332.785 304.526 333.496C304.526 334.207 305.104 334.784 305.818 334.784Z" fill="black"/>
<path d="M308.401 339.076C309.114 339.076 309.693 338.5 309.693 337.789C309.693 337.077 309.114 336.501 308.401 336.501C307.688 336.501 307.109 337.077 307.109 337.789C307.109 338.5 307.688 339.076 308.401 339.076Z" fill="black"/>
<path d="M312.706 338.218C313.42 338.218 313.998 337.641 313.998 336.93C313.998 336.219 313.42 335.642 312.706 335.642C311.993 335.642 311.415 336.219 311.415 336.93C311.415 337.641 311.993 338.218 312.706 338.218Z" fill="black"/>
<path d="M304.957 339.935C305.67 339.935 306.248 339.358 306.248 338.647C306.248 337.936 305.67 337.359 304.957 337.359C304.243 337.359 303.665 337.936 303.665 338.647C303.665 339.358 304.243 339.935 304.957 339.935Z" fill="black"/>
<path d="M308.401 345.085C309.114 345.085 309.693 344.509 309.693 343.798C309.693 343.087 309.114 342.51 308.401 342.51C307.688 342.51 307.109 343.087 307.109 343.798C307.109 344.509 307.688 345.085 308.401 345.085Z" fill="black"/>
<path d="M327.344 330.492C328.058 330.492 328.636 329.915 328.636 329.204C328.636 328.493 328.058 327.916 327.344 327.916C326.631 327.916 326.053 328.493 326.053 329.204C326.053 329.915 326.631 330.492 327.344 330.492Z" fill="black"/>
<path d="M322.178 331.35C322.891 331.35 323.47 330.774 323.47 330.062C323.47 329.351 322.891 328.775 322.178 328.775C321.465 328.775 320.886 329.351 320.886 330.062C320.886 330.774 321.465 331.35 322.178 331.35Z" fill="black"/>
<path d="M325.622 327.916C326.336 327.916 326.914 327.34 326.914 326.629C326.914 325.917 326.336 325.341 325.622 325.341C324.909 325.341 324.331 325.917 324.331 326.629C324.331 327.34 324.909 327.916 325.622 327.916Z" fill="black"/>
<path d="M324.761 339.076C325.475 339.076 326.053 338.5 326.053 337.789C326.053 337.077 325.475 336.501 324.761 336.501C324.048 336.501 323.47 337.077 323.47 337.789C323.47 338.5 324.048 339.076 324.761 339.076Z" fill="black"/>
<path d="M311.845 333.067C312.559 333.067 313.137 332.49 313.137 331.779C313.137 331.068 312.559 330.492 311.845 330.492C311.132 330.492 310.554 331.068 310.554 331.779C310.554 332.49 311.132 333.067 311.845 333.067Z" fill="black"/>
<path d="M325.622 323.624C326.336 323.624 326.914 323.047 326.914 322.336C326.914 321.625 326.336 321.048 325.622 321.048C324.909 321.048 324.331 321.625 324.331 322.336C324.331 323.047 324.909 323.624 325.622 323.624Z" fill="black"/>
<path d="M330.789 334.784C331.502 334.784 332.08 334.207 332.08 333.496C332.08 332.785 331.502 332.208 330.789 332.208C330.075 332.208 329.497 332.785 329.497 333.496C329.497 334.207 330.075 334.784 330.789 334.784Z" fill="black"/>
<path d="M316.151 338.218C316.864 338.218 317.442 337.641 317.442 336.93C317.442 336.219 316.864 335.642 316.151 335.642C315.437 335.642 314.859 336.219 314.859 336.93C314.859 337.641 315.437 338.218 316.151 338.218Z" fill="black"/>
<path d="M296.346 339.935C297.059 339.935 297.638 339.358 297.638 338.647C297.638 337.936 297.059 337.359 296.346 337.359C295.633 337.359 295.054 337.936 295.054 338.647C295.054 339.358 295.633 339.935 296.346 339.935Z" fill="black"/>
<path d="M338.538 333.067C339.252 333.067 339.83 332.49 339.83 331.779C339.83 331.068 339.252 330.492 338.538 330.492C337.825 330.492 337.247 331.068 337.247 331.779C337.247 332.49 337.825 333.067 338.538 333.067Z" fill="black"/>
<path d="M324.761 333.925C325.475 333.925 326.053 333.349 326.053 332.638C326.053 331.927 325.475 331.35 324.761 331.35C324.048 331.35 323.47 331.927 323.47 332.638C323.47 333.349 324.048 333.925 324.761 333.925Z" fill="black"/>
<path d="M331.65 327.916C332.363 327.916 332.941 327.34 332.941 326.629C332.941 325.917 332.363 325.341 331.65 325.341C330.936 325.341 330.358 325.917 330.358 326.629C330.358 327.34 330.936 327.916 331.65 327.916Z" fill="black"/>
<path d="M340.261 338.218C340.974 338.218 341.552 337.641 341.552 336.93C341.552 336.219 340.974 335.642 340.261 335.642C339.547 335.642 338.969 336.219 338.969 336.93C338.969 337.641 339.547 338.218 340.261 338.218Z" fill="black"/>
<path d="M282.569 347.661C283.282 347.661 283.86 347.084 283.86 346.373C283.86 345.662 283.282 345.085 282.569 345.085C281.855 345.085 281.277 345.662 281.277 346.373C281.277 347.084 281.855 347.661 282.569 347.661Z" fill="black"/>
<path d="M324.761 257.522C325.475 257.522 326.053 256.946 326.053 256.234C326.053 255.523 325.475 254.947 324.761 254.947C324.048 254.947 323.47 255.523 323.47 256.234C323.47 256.946 324.048 257.522 324.761 257.522Z" fill="black"/>
<path d="M314.428 263.531C315.142 263.531 315.72 262.955 315.72 262.244C315.72 261.532 315.142 260.956 314.428 260.956C313.715 260.956 313.137 261.532 313.137 262.244C313.137 262.955 313.715 263.531 314.428 263.531Z" fill="black"/>
<path d="M323.039 266.965C323.752 266.965 324.331 266.389 324.331 265.678C324.331 264.966 323.752 264.39 323.039 264.39C322.326 264.39 321.748 264.966 321.748 265.678C321.748 266.389 322.326 266.965 323.039 266.965Z" fill="black"/>
<path d="M287.735 276.408C288.449 276.408 289.027 275.832 289.027 275.121C289.027 274.409 288.449 273.833 287.735 273.833C287.022 273.833 286.444 274.409 286.444 275.121C286.444 275.832 287.022 276.408 287.735 276.408Z" fill="black"/>
<path d="M324.761 280.701C325.475 280.701 326.053 280.124 326.053 279.413C326.053 278.702 325.475 278.125 324.761 278.125C324.048 278.125 323.47 278.702 323.47 279.413C323.47 280.124 324.048 280.701 324.761 280.701Z" fill="black"/>
<path d="M219.711 287.568C220.424 287.568 221.002 286.992 221.002 286.281C221.002 285.569 220.424 284.993 219.711 284.993C218.997 284.993 218.419 285.569 218.419 286.281C218.419 286.992 218.997 287.568 219.711 287.568Z" fill="black"/>
<path d="M308.401 267.824C309.114 267.824 309.693 267.247 309.693 266.536C309.693 265.825 309.114 265.248 308.401 265.248C307.688 265.248 307.109 265.825 307.109 266.536C307.109 267.247 307.688 267.824 308.401 267.824Z" fill="black"/>
<path d="M330.789 253.23C331.502 253.23 332.08 252.653 332.08 251.942C332.08 251.231 331.502 250.654 330.789 250.654C330.075 250.654 329.497 251.231 329.497 251.942C329.497 252.653 330.075 253.23 330.789 253.23Z" fill="black"/>
<path d="M275.68 347.661C276.394 347.661 276.972 347.084 276.972 346.373C276.972 345.662 276.394 345.085 275.68 345.085C274.967 345.085 274.389 345.662 274.389 346.373C274.389 347.084 274.967 347.661 275.68 347.661Z" fill="black"/>
<path d="M262.764 351.095C263.478 351.095 264.056 350.518 264.056 349.807C264.056 349.096 263.478 348.519 262.764 348.519C262.051 348.519 261.473 349.096 261.473 349.807C261.473 350.518 262.051 351.095 262.764 351.095Z" fill="black"/>
<path d="M335.955 327.916C336.669 327.916 337.247 327.34 337.247 326.629C337.247 325.917 336.669 325.341 335.955 325.341C335.242 325.341 334.664 325.917 334.664 326.629C334.664 327.34 335.242 327.916 335.955 327.916Z" fill="black"/>
<path d="M321.317 327.916C322.03 327.916 322.609 327.34 322.609 326.629C322.609 325.917 322.03 325.341 321.317 325.341C320.604 325.341 320.025 325.917 320.025 326.629C320.025 327.34 320.604 327.916 321.317 327.916Z" fill="black"/>
<path d="M317.012 329.633C317.725 329.633 318.303 329.057 318.303 328.345C318.303 327.634 317.725 327.058 317.012 327.058C316.298 327.058 315.72 327.634 315.72 328.345C315.72 329.057 316.298 329.633 317.012 329.633Z" fill="black"/>
<path d="M173.213 362.255C173.926 362.255 174.504 361.678 174.504 360.967C174.504 360.256 173.926 359.679 173.213 359.679C172.5 359.679 171.921 360.256 171.921 360.967C171.921 361.678 172.5 362.255 173.213 362.255Z" fill="black"/>
<path d="M199.045 499.609C199.758 499.609 200.337 499.033 200.337 498.321C200.337 497.61 199.758 497.034 199.045 497.034C198.332 497.034 197.753 497.61 197.753 498.321C197.753 499.033 198.332 499.609 199.045 499.609Z" fill="black"/>
<path d="M209.378 499.609C210.091 499.609 210.67 499.033 210.67 498.321C210.67 497.61 210.091 497.034 209.378 497.034C208.665 497.034 208.086 497.61 208.086 498.321C208.086 499.033 208.665 499.609 209.378 499.609Z" fill="black"/>
<path d="M204.211 504.76C204.925 504.76 205.503 504.183 205.503 503.472C205.503 502.761 204.925 502.184 204.211 502.184C203.498 502.184 202.92 502.761 202.92 503.472C202.92 504.183 203.498 504.76 204.211 504.76Z" fill="black"/>
<path d="M195.601 501.326C196.314 501.326 196.892 500.749 196.892 500.038C196.892 499.327 196.314 498.75 195.601 498.75C194.887 498.75 194.309 499.327 194.309 500.038C194.309 500.749 194.887 501.326 195.601 501.326Z" fill="black"/>
<path d="M230.044 493.6C230.757 493.6 231.335 493.023 231.335 492.312C231.335 491.601 230.757 491.024 230.044 491.024C229.33 491.024 228.752 491.601 228.752 492.312C228.752 493.023 229.33 493.6 230.044 493.6Z" fill="black"/>
<path d="M241.237 497.892C241.951 497.892 242.529 497.316 242.529 496.604C242.529 495.893 241.951 495.317 241.237 495.317C240.524 495.317 239.946 495.893 239.946 496.604C239.946 497.316 240.524 497.892 241.237 497.892Z" fill="black"/>
<path d="M277.402 482.44C278.116 482.44 278.694 481.863 278.694 481.152C278.694 480.441 278.116 479.864 277.402 479.864C276.689 479.864 276.111 480.441 276.111 481.152C276.111 481.863 276.689 482.44 277.402 482.44Z" fill="black"/>
<path d="M273.958 485.874C274.671 485.874 275.25 485.297 275.25 484.586C275.25 483.875 274.671 483.298 273.958 483.298C273.245 483.298 272.667 483.875 272.667 484.586C272.667 485.297 273.245 485.874 273.958 485.874Z" fill="black"/>
<path d="M286.013 478.147C286.726 478.147 287.305 477.571 287.305 476.86C287.305 476.149 286.726 475.572 286.013 475.572C285.3 475.572 284.722 476.149 284.722 476.86C284.722 477.571 285.3 478.147 286.013 478.147Z" fill="black"/>
<path d="M216.266 497.034C216.98 497.034 217.558 496.457 217.558 495.746C217.558 495.035 216.98 494.458 216.266 494.458C215.553 494.458 214.975 495.035 214.975 495.746C214.975 496.457 215.553 497.034 216.266 497.034Z" fill="black"/>
<path d="M214.544 502.184C215.258 502.184 215.836 501.608 215.836 500.897C215.836 500.186 215.258 499.609 214.544 499.609C213.831 499.609 213.253 500.186 213.253 500.897C213.253 501.608 213.831 502.184 214.544 502.184Z" fill="black"/>
<path d="M197.323 511.628C198.036 511.628 198.614 511.051 198.614 510.34C198.614 509.629 198.036 509.052 197.323 509.052C196.61 509.052 196.031 509.629 196.031 510.34C196.031 511.051 196.61 511.628 197.323 511.628Z" fill="black"/>
<path d="M183.546 436.941C184.259 436.941 184.837 436.365 184.837 435.653C184.837 434.942 184.259 434.366 183.546 434.366C182.832 434.366 182.254 434.942 182.254 435.653C182.254 436.365 182.832 436.941 183.546 436.941Z" fill="black"/>
<path d="M201.628 435.224C202.342 435.224 202.92 434.648 202.92 433.937C202.92 433.225 202.342 432.649 201.628 432.649C200.915 432.649 200.337 433.225 200.337 433.937C200.337 434.648 200.915 435.224 201.628 435.224Z" fill="black"/>
<path d="M209.378 443.809C210.091 443.809 210.67 443.232 210.67 442.521C210.67 441.81 210.091 441.233 209.378 441.233C208.665 441.233 208.086 441.81 208.086 442.521C208.086 443.232 208.665 443.809 209.378 443.809Z" fill="black"/>
<path d="M208.517 438.658C209.23 438.658 209.808 438.082 209.808 437.37C209.808 436.659 209.23 436.083 208.517 436.083C207.803 436.083 207.225 436.659 207.225 437.37C207.225 438.082 207.803 438.658 208.517 438.658Z" fill="black"/>
<path d="M238.654 491.883C239.368 491.883 239.946 491.306 239.946 490.595C239.946 489.884 239.368 489.307 238.654 489.307C237.941 489.307 237.363 489.884 237.363 490.595C237.363 491.306 237.941 491.883 238.654 491.883Z" fill="black"/>
<path d="M155.13 501.326C155.844 501.326 156.422 500.749 156.422 500.038C156.422 499.327 155.844 498.75 155.13 498.75C154.417 498.75 153.839 499.327 153.839 500.038C153.839 500.749 154.417 501.326 155.13 501.326Z" fill="black"/>
<path d="M204.211 497.892C204.925 497.892 205.503 497.316 205.503 496.604C205.503 495.893 204.925 495.317 204.211 495.317C203.498 495.317 202.92 495.893 202.92 496.604C202.92 497.316 203.498 497.892 204.211 497.892Z" fill="black"/>
<path d="M189.573 500.467C190.287 500.467 190.865 499.891 190.865 499.18C190.865 498.469 190.287 497.892 189.573 497.892C188.86 497.892 188.282 498.469 188.282 499.18C188.282 499.891 188.86 500.467 189.573 500.467Z" fill="black"/>
<path d="M185.268 501.326C185.981 501.326 186.56 500.749 186.56 500.038C186.56 499.327 185.981 498.75 185.268 498.75C184.555 498.75 183.976 499.327 183.976 500.038C183.976 500.749 184.555 501.326 185.268 501.326Z" fill="black"/>
<path d="M168.046 500.467C168.76 500.467 169.338 499.891 169.338 499.18C169.338 498.469 168.76 497.892 168.046 497.892C167.333 497.892 166.755 498.469 166.755 499.18C166.755 499.891 167.333 500.467 168.046 500.467Z" fill="black"/>
<path d="M172.352 501.326C173.065 501.326 173.643 500.749 173.643 500.038C173.643 499.327 173.065 498.75 172.352 498.75C171.638 498.75 171.06 499.327 171.06 500.038C171.06 500.749 171.638 501.326 172.352 501.326Z" fill="black"/>
<path d="M121.549 496.175C122.262 496.175 122.84 495.599 122.84 494.887C122.84 494.176 122.262 493.6 121.549 493.6C120.835 493.6 120.257 494.176 120.257 494.887C120.257 495.599 120.835 496.175 121.549 496.175Z" fill="black"/>
<path d="M249.848 495.317C250.561 495.317 251.14 494.74 251.14 494.029C251.14 493.318 250.561 492.741 249.848 492.741C249.135 492.741 248.557 493.318 248.557 494.029C248.557 494.74 249.135 495.317 249.848 495.317Z" fill="black"/>
<path d="M235.21 496.175C235.923 496.175 236.502 495.599 236.502 494.887C236.502 494.176 235.923 493.6 235.21 493.6C234.497 493.6 233.918 494.176 233.918 494.887C233.918 495.599 234.497 496.175 235.21 496.175Z" fill="black"/>
<path d="M257.598 488.449C258.311 488.449 258.889 487.872 258.889 487.161C258.889 486.45 258.311 485.874 257.598 485.874C256.884 485.874 256.306 486.45 256.306 487.161C256.306 487.872 256.884 488.449 257.598 488.449Z" fill="black"/>
<path d="M204.211 442.092C204.925 442.092 205.503 441.515 205.503 440.804C205.503 440.093 204.925 439.517 204.211 439.517C203.498 439.517 202.92 440.093 202.92 440.804C202.92 441.515 203.498 442.092 204.211 442.092Z" fill="black"/>
<path d="M190.434 444.667C191.148 444.667 191.726 444.091 191.726 443.38C191.726 442.668 191.148 442.092 190.434 442.092C189.721 442.092 189.143 442.668 189.143 443.38C189.143 444.091 189.721 444.667 190.434 444.667Z" fill="black"/>
<path d="M168.908 446.384C169.621 446.384 170.199 445.808 170.199 445.097C170.199 444.385 169.621 443.809 168.908 443.809C168.194 443.809 167.616 444.385 167.616 445.097C167.616 445.808 168.194 446.384 168.908 446.384Z" fill="black"/>
<path d="M177.518 440.375C178.232 440.375 178.81 439.798 178.81 439.087C178.81 438.376 178.232 437.8 177.518 437.8C176.805 437.8 176.227 438.376 176.227 439.087C176.227 439.798 176.805 440.375 177.518 440.375Z" fill="black"/>
<path d="M158.575 440.375C159.288 440.375 159.866 439.798 159.866 439.087C159.866 438.376 159.288 437.8 158.575 437.8C157.861 437.8 157.283 438.376 157.283 439.087C157.283 439.798 157.861 440.375 158.575 440.375Z" fill="black"/>
<path d="M167.185 436.941C167.899 436.941 168.477 436.365 168.477 435.653C168.477 434.942 167.899 434.366 167.185 434.366C166.472 434.366 165.894 434.942 165.894 435.653C165.894 436.365 166.472 436.941 167.185 436.941Z" fill="black"/>
<path d="M149.103 432.649C149.816 432.649 150.394 432.072 150.394 431.361C150.394 430.65 149.816 430.073 149.103 430.073C148.39 430.073 147.811 430.65 147.811 431.361C147.811 432.072 148.39 432.649 149.103 432.649Z" fill="black"/>
<path d="M139.631 430.932C140.345 430.932 140.923 430.355 140.923 429.644C140.923 428.933 140.345 428.356 139.631 428.356C138.918 428.356 138.34 428.933 138.34 429.644C138.34 430.355 138.918 430.932 139.631 430.932Z" fill="black"/>
<path d="M196.462 438.658C197.175 438.658 197.753 438.082 197.753 437.37C197.753 436.659 197.175 436.083 196.462 436.083C195.748 436.083 195.17 436.659 195.17 437.37C195.17 438.082 195.748 438.658 196.462 438.658Z" fill="black"/>
<path d="M173.213 436.941C173.926 436.941 174.504 436.365 174.504 435.653C174.504 434.942 173.926 434.366 173.213 434.366C172.5 434.366 171.921 434.942 171.921 435.653C171.921 436.365 172.5 436.941 173.213 436.941Z" fill="black"/>
<path d="M211.1 456.686C211.813 456.686 212.392 456.109 212.392 455.398C212.392 454.687 211.813 454.11 211.1 454.11C210.387 454.11 209.808 454.687 209.808 455.398C209.808 456.109 210.387 456.686 211.1 456.686Z" fill="black"/>
<path d="M149.964 440.375C150.677 440.375 151.256 439.798 151.256 439.087C151.256 438.376 150.677 437.8 149.964 437.8C149.251 437.8 148.672 438.376 148.672 439.087C148.672 439.798 149.251 440.375 149.964 440.375Z" fill="black"/>
<path d="M184.407 443.809C185.12 443.809 185.698 443.232 185.698 442.521C185.698 441.81 185.12 441.233 184.407 441.233C183.694 441.233 183.115 441.81 183.115 442.521C183.115 443.232 183.694 443.809 184.407 443.809Z" fill="black"/>
<path d="M226.599 448.96C227.313 448.96 227.891 448.383 227.891 447.672C227.891 446.961 227.313 446.384 226.599 446.384C225.886 446.384 225.308 446.961 225.308 447.672C225.308 448.383 225.886 448.96 226.599 448.96Z" fill="black"/>
<path d="M198.184 445.526C198.897 445.526 199.476 444.949 199.476 444.238C199.476 443.527 198.897 442.95 198.184 442.95C197.471 442.95 196.892 443.527 196.892 444.238C196.892 444.949 197.471 445.526 198.184 445.526Z" fill="black"/>
<path d="M222.294 440.375C223.007 440.375 223.586 439.798 223.586 439.087C223.586 438.376 223.007 437.8 222.294 437.8C221.581 437.8 221.002 438.376 221.002 439.087C221.002 439.798 221.581 440.375 222.294 440.375Z" fill="black"/>
<path d="M189.573 435.224C190.287 435.224 190.865 434.648 190.865 433.937C190.865 433.225 190.287 432.649 189.573 432.649C188.86 432.649 188.282 433.225 188.282 433.937C188.282 434.648 188.86 435.224 189.573 435.224Z" fill="black"/>
<path d="M226.599 435.224C227.313 435.224 227.891 434.648 227.891 433.937C227.891 433.225 227.313 432.649 226.599 432.649C225.886 432.649 225.308 433.225 225.308 433.937C225.308 434.648 225.886 435.224 226.599 435.224Z" fill="black"/>
<path d="M210.239 369.981C210.952 369.981 211.53 369.404 211.53 368.693C211.53 367.982 210.952 367.406 210.239 367.406C209.526 367.406 208.947 367.982 208.947 368.693C208.947 369.404 209.526 369.981 210.239 369.981Z" fill="black"/>
<path d="M184.407 360.538C185.12 360.538 185.698 359.961 185.698 359.25C185.698 358.539 185.12 357.962 184.407 357.962C183.694 357.962 183.115 358.539 183.115 359.25C183.115 359.961 183.694 360.538 184.407 360.538Z" fill="black"/>
<path d="M201.628 297.011C202.342 297.011 202.92 296.435 202.92 295.724C202.92 295.013 202.342 294.436 201.628 294.436C200.915 294.436 200.337 295.013 200.337 295.724C200.337 296.435 200.915 297.011 201.628 297.011Z" fill="black"/>
<path d="M202.489 360.538C203.203 360.538 203.781 359.961 203.781 359.25C203.781 358.539 203.203 357.962 202.489 357.962C201.776 357.962 201.198 358.539 201.198 359.25C201.198 359.961 201.776 360.538 202.489 360.538Z" fill="black"/>
<path d="M311.845 467.846C312.559 467.846 313.137 467.269 313.137 466.558C313.137 465.847 312.559 465.271 311.845 465.271C311.132 465.271 310.554 465.847 310.554 466.558C310.554 467.269 311.132 467.846 311.845 467.846Z" fill="black"/>
<path d="M268.792 484.157C269.505 484.157 270.083 483.58 270.083 482.869C270.083 482.158 269.505 481.581 268.792 481.581C268.078 481.581 267.5 482.158 267.5 482.869C267.5 483.58 268.078 484.157 268.792 484.157Z" fill="black"/>
<path d="M304.096 469.563C304.809 469.563 305.387 468.986 305.387 468.275C305.387 467.564 304.809 466.987 304.096 466.987C303.382 466.987 302.804 467.564 302.804 468.275C302.804 468.986 303.382 469.563 304.096 469.563Z" fill="black"/>
<path d="M224.877 497.034C225.59 497.034 226.169 496.457 226.169 495.746C226.169 495.035 225.59 494.458 224.877 494.458C224.164 494.458 223.585 495.035 223.585 495.746C223.585 496.457 224.164 497.034 224.877 497.034Z" fill="black"/>
<path d="M261.903 487.591C262.617 487.591 263.195 487.014 263.195 486.303C263.195 485.592 262.617 485.015 261.903 485.015C261.19 485.015 260.612 485.592 260.612 486.303C260.612 487.014 261.19 487.591 261.903 487.591Z" fill="black"/>
<path d="M253.292 490.166C254.006 490.166 254.584 489.589 254.584 488.878C254.584 488.167 254.006 487.591 253.292 487.591C252.579 487.591 252.001 488.167 252.001 488.878C252.001 489.589 252.579 490.166 253.292 490.166Z" fill="black"/>
<path d="M243.821 491.883C244.534 491.883 245.112 491.306 245.112 490.595C245.112 489.884 244.534 489.307 243.821 489.307C243.107 489.307 242.529 489.884 242.529 490.595C242.529 491.306 243.107 491.883 243.821 491.883Z" fill="black"/>
<path d="M143.937 499.609C144.65 499.609 145.228 499.033 145.228 498.321C145.228 497.61 144.65 497.034 143.937 497.034C143.223 497.034 142.645 497.61 142.645 498.321C142.645 499.033 143.223 499.609 143.937 499.609Z" fill="black"/>
<path d="M168.908 503.901C169.621 503.901 170.199 503.325 170.199 502.614C170.199 501.902 169.621 501.326 168.908 501.326C168.194 501.326 167.616 501.902 167.616 502.614C167.616 503.325 168.194 503.901 168.908 503.901Z" fill="black"/>
<path d="M180.963 502.184C181.676 502.184 182.254 501.608 182.254 500.897C182.254 500.186 181.676 499.609 180.963 499.609C180.249 499.609 179.671 500.186 179.671 500.897C179.671 501.608 180.249 502.184 180.963 502.184Z" fill="black"/>
<path d="M163.741 501.326C164.454 501.326 165.033 500.749 165.033 500.038C165.033 499.327 164.454 498.75 163.741 498.75C163.028 498.75 162.449 499.327 162.449 500.038C162.449 500.749 163.028 501.326 163.741 501.326Z" fill="black"/>
<path d="M176.657 500.467C177.371 500.467 177.949 499.891 177.949 499.18C177.949 498.469 177.371 497.892 176.657 497.892C175.944 497.892 175.366 498.469 175.366 499.18C175.366 499.891 175.944 500.467 176.657 500.467Z" fill="black"/>
<path d="M128.437 496.175C129.151 496.175 129.729 495.599 129.729 494.887C129.729 494.176 129.151 493.6 128.437 493.6C127.724 493.6 127.146 494.176 127.146 494.887C127.146 495.599 127.724 496.175 128.437 496.175Z" fill="black"/>
<path d="M129.298 289.285C130.012 289.285 130.59 288.709 130.59 287.998C130.59 287.286 130.012 286.71 129.298 286.71C128.585 286.71 128.007 287.286 128.007 287.998C128.007 288.709 128.585 289.285 129.298 289.285Z" fill="black"/>
<path d="M115.521 278.125C116.235 278.125 116.813 277.549 116.813 276.838C116.813 276.126 116.235 275.55 115.521 275.55C114.808 275.55 114.23 276.126 114.23 276.838C114.23 277.549 114.808 278.125 115.521 278.125Z" fill="black"/>
<path d="M124.132 291.861C124.845 291.861 125.424 291.284 125.424 290.573C125.424 289.862 124.845 289.285 124.132 289.285C123.419 289.285 122.84 289.862 122.84 290.573C122.84 291.284 123.419 291.861 124.132 291.861Z" fill="black"/>
<path d="M160.297 289.285C161.01 289.285 161.588 288.709 161.588 287.998C161.588 287.286 161.01 286.71 160.297 286.71C159.584 286.71 159.005 287.286 159.005 287.998C159.005 288.709 159.584 289.285 160.297 289.285Z" fill="black"/>
<path d="M87.1058 297.011C87.8191 297.011 88.3974 296.435 88.3974 295.724C88.3974 295.013 87.8191 294.436 87.1058 294.436C86.3925 294.436 85.8142 295.013 85.8142 295.724C85.8142 296.435 86.3925 297.011 87.1058 297.011Z" fill="black"/>
<path d="M97.4387 287.568C98.152 287.568 98.7303 286.992 98.7303 286.281C98.7303 285.569 98.152 284.993 97.4387 284.993C96.7254 284.993 96.1471 285.569 96.1471 286.281C96.1471 286.992 96.7254 287.568 97.4387 287.568Z" fill="black"/>
<path d="M122.41 282.418C123.123 282.418 123.701 281.841 123.701 281.13C123.701 280.419 123.123 279.842 122.41 279.842C121.696 279.842 121.118 280.419 121.118 281.13C121.118 281.841 121.696 282.418 122.41 282.418Z" fill="black"/>
<path d="M208.517 297.87C209.23 297.87 209.808 297.293 209.808 296.582C209.808 295.871 209.23 295.295 208.517 295.295C207.803 295.295 207.225 295.871 207.225 296.582C207.225 297.293 207.803 297.87 208.517 297.87Z" fill="black"/>
<path d="M194.74 299.587C195.453 299.587 196.031 299.01 196.031 298.299C196.031 297.588 195.453 297.011 194.74 297.011C194.026 297.011 193.448 297.588 193.448 298.299C193.448 299.01 194.026 299.587 194.74 299.587Z" fill="black"/>
<path d="M215.405 301.304C216.119 301.304 216.697 300.727 216.697 300.016C216.697 299.305 216.119 298.728 215.405 298.728C214.692 298.728 214.114 299.305 214.114 300.016C214.114 300.727 214.692 301.304 215.405 301.304Z" fill="black"/>
<path d="M208.517 291.002C209.23 291.002 209.808 290.426 209.808 289.715C209.808 289.003 209.23 288.427 208.517 288.427C207.803 288.427 207.225 289.003 207.225 289.715C207.225 290.426 207.803 291.002 208.517 291.002Z" fill="black"/>
<path d="M230.044 312.464C230.757 312.464 231.335 311.887 231.335 311.176C231.335 310.465 230.757 309.888 230.044 309.888C229.33 309.888 228.752 310.465 228.752 311.176C228.752 311.887 229.33 312.464 230.044 312.464Z" fill="black"/>
<path d="M222.294 296.153C223.007 296.153 223.586 295.577 223.586 294.865C223.586 294.154 223.007 293.578 222.294 293.578C221.581 293.578 221.002 294.154 221.002 294.865C221.002 295.577 221.581 296.153 222.294 296.153Z" fill="black"/>
<path d="M224.016 289.285C224.729 289.285 225.308 288.709 225.308 287.998C225.308 287.286 224.729 286.71 224.016 286.71C223.303 286.71 222.724 287.286 222.724 287.998C222.724 288.709 223.303 289.285 224.016 289.285Z" fill="black"/>
<path d="M218.85 299.587C219.563 299.587 220.141 299.01 220.141 298.299C220.141 297.588 219.563 297.011 218.85 297.011C218.136 297.011 217.558 297.588 217.558 298.299C217.558 299.01 218.136 299.587 218.85 299.587Z" fill="black"/>
<path d="M228.321 293.578C229.035 293.578 229.613 293.001 229.613 292.29C229.613 291.579 229.035 291.002 228.321 291.002C227.608 291.002 227.03 291.579 227.03 292.29C227.03 293.001 227.608 293.578 228.321 293.578Z" fill="black"/>
<path d="M219.711 293.578C220.424 293.578 221.002 293.001 221.002 292.29C221.002 291.579 220.424 291.002 219.711 291.002C218.997 291.002 218.419 291.579 218.419 292.29C218.419 293.001 218.997 293.578 219.711 293.578Z" fill="black"/>
<path d="M149.964 286.71C150.677 286.71 151.256 286.133 151.256 285.422C151.256 284.711 150.677 284.135 149.964 284.135C149.251 284.135 148.672 284.711 148.672 285.422C148.672 286.133 149.251 286.71 149.964 286.71Z" fill="black"/>
<path d="M147.381 292.719C148.094 292.719 148.672 292.143 148.672 291.431C148.672 290.72 148.094 290.144 147.381 290.144C146.668 290.144 146.089 290.72 146.089 291.431C146.089 292.143 146.668 292.719 147.381 292.719Z" fill="black"/>
<path d="M181.824 297.87C182.537 297.87 183.115 297.293 183.115 296.582C183.115 295.871 182.537 295.295 181.824 295.295C181.11 295.295 180.532 295.871 180.532 296.582C180.532 297.293 181.11 297.87 181.824 297.87Z" fill="black"/>
<path d="M191.295 290.144C192.009 290.144 192.587 289.567 192.587 288.856C192.587 288.145 192.009 287.568 191.295 287.568C190.582 287.568 190.004 288.145 190.004 288.856C190.004 289.567 190.582 290.144 191.295 290.144Z" fill="black"/>
<path d="M174.074 290.144C174.787 290.144 175.366 289.567 175.366 288.856C175.366 288.145 174.787 287.568 174.074 287.568C173.361 287.568 172.782 288.145 172.782 288.856C172.782 289.567 173.361 290.144 174.074 290.144Z" fill="black"/>
<path d="M199.045 290.144C199.758 290.144 200.337 289.567 200.337 288.856C200.337 288.145 199.758 287.568 199.045 287.568C198.332 287.568 197.753 288.145 197.753 288.856C197.753 289.567 198.332 290.144 199.045 290.144Z" fill="black"/>
<path d="M221.433 205.156C222.146 205.156 222.724 204.579 222.724 203.868C222.724 203.157 222.146 202.58 221.433 202.58C220.72 202.58 220.141 203.157 220.141 203.868C220.141 204.579 220.72 205.156 221.433 205.156Z" fill="black"/>
<path d="M221.433 201.722C222.146 201.722 222.724 201.145 222.724 200.434C222.724 199.723 222.146 199.147 221.433 199.147C220.72 199.147 220.141 199.723 220.141 200.434C220.141 201.145 220.72 201.722 221.433 201.722Z" fill="black"/>
<path d="M96.1472 155.365C97.5738 155.365 98.7304 154.212 98.7304 152.789C98.7304 151.367 97.5738 150.214 96.1472 150.214C94.7205 150.214 93.564 151.367 93.564 152.789C93.564 154.212 94.7205 155.365 96.1472 155.365Z" fill="black"/>
<path d="M306.248 157.94C307.675 157.94 308.831 156.787 308.831 155.365C308.831 153.942 307.675 152.789 306.248 152.789C304.822 152.789 303.665 153.942 303.665 155.365C303.665 156.787 304.822 157.94 306.248 157.94Z" fill="black"/>
<path d="M322.609 167.383C324.035 167.383 325.192 166.23 325.192 164.808C325.192 163.386 324.035 162.233 322.609 162.233C321.182 162.233 320.025 163.386 320.025 164.808C320.025 166.23 321.182 167.383 322.609 167.383Z" fill="black"/>
<path d="M338.969 177.685C340.396 177.685 341.552 176.532 341.552 175.11C341.552 173.687 340.396 172.534 338.969 172.534C337.542 172.534 336.386 173.687 336.386 175.11C336.386 176.532 337.542 177.685 338.969 177.685Z" fill="black"/>
<path d="M344.135 369.981C345.562 369.981 346.719 368.828 346.719 367.406C346.719 365.983 345.562 364.83 344.135 364.83C342.709 364.83 341.552 365.983 341.552 367.406C341.552 368.828 342.709 369.981 344.135 369.981Z" fill="black"/>
<path d="M138.34 350.236C139.766 350.236 140.923 349.083 140.923 347.661C140.923 346.238 139.766 345.085 138.34 345.085C136.913 345.085 135.756 346.238 135.756 347.661C135.756 349.083 136.913 350.236 138.34 350.236Z" fill="black"/>
<path d="M128.007 560.56C129.433 560.56 130.59 559.407 130.59 557.985C130.59 556.562 129.433 555.409 128.007 555.409C126.58 555.409 125.423 556.562 125.423 557.985C125.423 559.407 126.58 560.56 128.007 560.56Z" fill="black"/>
<path d="M151.256 557.985C152.682 557.985 153.839 556.831 153.839 555.409C153.839 553.987 152.682 552.834 151.256 552.834C149.829 552.834 148.672 553.987 148.672 555.409C148.672 556.831 149.829 557.985 151.256 557.985Z" fill="black"/>
<path d="M129.703 571.196H126.818V569.737C127.283 569.728 127.688 569.694 128.05 569.66C128.403 569.617 128.721 569.548 128.997 569.437C129.273 569.334 129.505 569.17 129.712 568.964C129.91 568.758 130.099 568.475 130.263 568.123H131.83V581H129.712V571.196H129.703Z" fill="black"/>
<path d="M156.026 568.209C156.534 568.355 156.973 568.569 157.335 568.853C157.705 569.136 157.989 569.488 158.204 569.909C158.411 570.329 158.523 570.801 158.523 571.342C158.523 571.995 158.368 572.639 158.067 573.282C157.765 573.926 157.335 574.562 156.784 575.197C156.233 575.832 155.561 576.467 154.777 577.111C153.994 577.755 153.124 578.399 152.168 579.068H158.816V580.88H149.577V579.171C150.636 578.347 151.583 577.583 152.418 576.888C153.253 576.193 153.959 575.532 154.545 574.905C155.13 574.287 155.578 573.695 155.88 573.145C156.19 572.596 156.345 572.055 156.345 571.531C156.345 570.913 156.164 570.441 155.793 570.098C155.423 569.763 154.924 569.591 154.295 569.591C153.994 569.591 153.701 569.634 153.408 569.728C153.116 569.823 152.874 569.977 152.659 570.192C152.444 570.407 152.272 570.69 152.134 571.033C151.996 571.377 151.936 571.789 151.936 572.278H149.852C149.843 571.634 149.938 571.059 150.153 570.535C150.36 570.012 150.67 569.565 151.066 569.188C151.462 568.818 151.944 568.527 152.504 568.312C153.064 568.106 153.692 567.994 154.399 567.994C154.967 567.986 155.518 568.063 156.026 568.209Z" fill="black"/>
<path d="M310.02 142.316C310.33 142.222 310.597 142.076 310.829 141.896C311.062 141.715 311.234 141.492 311.363 141.226C311.492 140.96 311.552 140.659 311.552 140.316C311.552 139.912 311.475 139.578 311.329 139.303C311.182 139.028 310.967 138.805 310.691 138.642C310.416 138.479 310.089 138.359 309.701 138.281C309.314 138.204 308.892 138.17 308.435 138.17H307.833V136.47H308.349C310.278 136.47 311.242 135.826 311.242 134.547C311.242 134.238 311.182 133.963 311.062 133.732C310.941 133.5 310.786 133.302 310.588 133.156C310.39 133.01 310.166 132.899 309.899 132.822C309.632 132.744 309.357 132.71 309.073 132.71C308.315 132.71 307.729 132.925 307.299 133.345C306.877 133.766 306.618 134.341 306.524 135.079H304.526C304.569 134.487 304.716 133.946 304.948 133.465C305.18 132.985 305.499 132.573 305.895 132.229C306.291 131.886 306.765 131.62 307.325 131.431C307.884 131.242 308.504 131.148 309.193 131.148C309.71 131.148 310.218 131.208 310.717 131.328C311.217 131.448 311.664 131.645 312.052 131.912C312.439 132.178 312.758 132.521 312.99 132.933C313.223 133.345 313.343 133.843 313.343 134.427C313.343 135.045 313.18 135.594 312.844 136.092C312.508 136.582 312.069 136.959 311.518 137.226C311.897 137.363 312.224 137.543 312.491 137.758C312.758 137.972 312.982 138.213 313.154 138.479C313.326 138.745 313.455 139.028 313.541 139.329C313.628 139.629 313.671 139.947 313.671 140.264C313.671 140.908 313.541 141.458 313.292 141.93C313.042 142.402 312.698 142.788 312.267 143.106C311.837 143.424 311.337 143.655 310.769 143.81C310.201 143.964 309.606 144.042 308.986 144.042C308.263 144.042 307.626 143.93 307.066 143.715C306.507 143.501 306.042 143.2 305.654 142.823C305.267 142.445 304.965 142.007 304.75 141.518C304.535 141.029 304.406 140.505 304.371 139.955H306.369C306.412 140.299 306.507 140.625 306.636 140.925C306.765 141.226 306.946 141.492 307.161 141.724C307.376 141.956 307.643 142.136 307.945 142.265C308.246 142.393 308.608 142.462 309.021 142.462C309.374 142.462 309.71 142.419 310.02 142.316Z" fill="black"/>
<path d="M332.123 153.038V156.06H330.005V153.038H323.625V151.279L330.022 143.183H332.123V151.21H334.405V153.038H332.123ZM330.005 151.21V145.939L325.941 151.21H330.005Z" fill="black"/>
<path d="M353.151 171.573C353.452 171.452 353.719 171.272 353.943 171.049C354.167 170.826 354.348 170.542 354.477 170.199C354.606 169.864 354.666 169.487 354.666 169.066C354.666 168.602 354.597 168.19 354.451 167.847C354.305 167.495 354.107 167.203 353.865 166.971C353.624 166.739 353.349 166.568 353.039 166.456C352.737 166.345 352.428 166.293 352.109 166.293C351.515 166.293 351.015 166.422 350.611 166.679C350.206 166.937 349.939 167.246 349.818 167.624L347.855 167.521L348.699 160.49H356.294V162.318H350.413L350.008 165.495C350.309 165.254 350.68 165.057 351.119 164.92C351.558 164.782 352.057 164.714 352.634 164.714C353.168 164.714 353.693 164.808 354.201 164.997C354.709 165.186 355.157 165.46 355.545 165.821C355.932 166.181 356.242 166.636 356.475 167.177C356.707 167.718 356.828 168.345 356.828 169.049C356.828 169.761 356.698 170.379 356.449 170.912C356.199 171.444 355.855 171.899 355.424 172.268C354.993 172.637 354.494 172.912 353.926 173.101C353.357 173.29 352.763 173.375 352.135 173.375C351.403 173.375 350.748 173.264 350.189 173.041C349.629 172.817 349.155 172.517 348.768 172.139C348.38 171.762 348.088 171.324 347.872 170.834C347.657 170.345 347.537 169.821 347.502 169.272H349.517C349.612 170.002 349.862 170.603 350.275 171.066C350.688 171.53 351.317 171.762 352.161 171.762C352.522 171.762 352.841 171.693 353.151 171.573Z" fill="black"/>
<path d="M90.3865 136.719C90.0507 136.925 89.7752 137.217 89.5427 137.586C89.3102 137.955 89.138 138.402 89.0088 138.925C88.8797 139.449 88.8108 140.024 88.8022 140.668C89.0777 140.264 89.4652 139.93 89.9646 139.655C90.464 139.38 91.0754 139.243 91.7987 139.243C92.3756 139.243 92.9095 139.346 93.4175 139.543C93.9255 139.741 94.3647 140.024 94.7349 140.393C95.1052 140.762 95.4066 141.2 95.6219 141.724C95.8371 142.247 95.9491 142.831 95.9491 143.484C95.9491 144.102 95.8371 144.668 95.6132 145.192C95.3894 145.716 95.0794 146.162 94.6833 146.54C94.2872 146.918 93.805 147.209 93.2453 147.424C92.6856 147.639 92.0742 147.742 91.4026 147.742C90.5846 147.742 89.8871 147.596 89.3016 147.304C88.7161 147.012 88.2339 146.6 87.8464 146.068C87.4589 145.535 87.1748 144.9 86.9939 144.153C86.8131 143.406 86.7184 142.582 86.7184 141.664C86.7184 140.771 86.8045 139.912 86.9767 139.088C87.1489 138.264 87.4331 137.543 87.8292 136.908C88.2253 136.281 88.7333 135.775 89.3619 135.406C89.9905 135.036 90.7568 134.848 91.6782 134.848C92.3326 134.848 92.9009 134.942 93.3917 135.139C93.8825 135.337 94.2872 135.586 94.6144 135.903C94.9416 136.221 95.1913 136.573 95.3721 136.977C95.553 137.38 95.6649 137.783 95.708 138.196H93.6242C93.5553 137.586 93.3314 137.14 92.9439 136.848C92.5564 136.556 92.0829 136.41 91.5232 136.41C91.1012 136.41 90.7224 136.513 90.3865 136.719ZM89.646 145.45C90.1024 145.922 90.6793 146.154 91.394 146.154C91.747 146.154 92.0742 146.093 92.3756 145.973C92.677 145.853 92.9353 145.681 93.1506 145.45C93.3658 145.218 93.5381 144.943 93.6586 144.617C93.7792 144.291 93.8394 143.921 93.8394 143.509C93.8394 142.685 93.6156 142.041 93.1592 141.561C92.7028 141.089 92.1259 140.848 91.4112 140.848C90.6965 140.848 90.1196 141.089 89.6546 141.561C89.1983 142.033 88.9658 142.685 88.9658 143.509C88.9658 144.334 89.1897 144.977 89.646 145.45Z" fill="black"/>
<path d="M143.523 358.658V360.521C142.705 361.302 141.973 362.092 141.345 362.89C140.707 363.688 140.165 364.53 139.726 365.423C139.287 366.315 138.934 367.251 138.675 368.255C138.417 369.26 138.253 370.35 138.185 371.535H135.782C135.842 370.402 136.023 369.311 136.316 368.281C136.609 367.251 137.005 366.272 137.496 365.354C137.986 364.427 138.546 363.568 139.201 362.761C139.846 361.954 140.544 361.207 141.293 360.521H134.258V358.658H143.523Z" fill="black"/>
<path d="M360.883 362.332C361.408 362.495 361.856 362.71 362.227 362.993C362.597 363.276 362.89 363.611 363.088 364.006C363.286 364.401 363.389 364.83 363.389 365.285C363.389 365.826 363.268 366.341 363.019 366.856C362.769 367.363 362.364 367.783 361.787 368.118C362.519 368.496 363.036 368.959 363.329 369.517C363.621 370.075 363.768 370.642 363.768 371.226C363.768 371.844 363.647 372.385 363.406 372.848C363.165 373.312 362.838 373.707 362.425 374.024C362.011 374.342 361.52 374.582 360.952 374.745C360.384 374.909 359.772 374.986 359.118 374.986C358.464 374.986 357.852 374.909 357.284 374.745C356.716 374.582 356.225 374.342 355.812 374.024C355.398 373.707 355.071 373.312 354.83 372.848C354.589 372.385 354.468 371.844 354.468 371.226C354.468 370.942 354.503 370.651 354.572 370.359C354.64 370.067 354.752 369.784 354.907 369.517C355.062 369.251 355.269 368.994 355.519 368.753C355.768 368.513 356.078 368.298 356.449 368.118C355.898 367.809 355.493 367.397 355.235 366.873C354.976 366.35 354.847 365.826 354.847 365.285C354.847 364.83 354.95 364.401 355.149 364.006C355.347 363.611 355.631 363.276 356.001 362.993C356.371 362.71 356.819 362.495 357.344 362.332C357.869 362.169 358.464 362.092 359.118 362.092C359.772 362.092 360.358 362.169 360.883 362.332ZM357.284 369.5C356.828 369.904 356.604 370.453 356.604 371.148C356.604 371.861 356.828 372.41 357.284 372.805C357.74 373.2 358.352 373.398 359.118 373.398C359.884 373.398 360.496 373.2 360.952 372.805C361.408 372.41 361.632 371.861 361.632 371.148C361.632 370.453 361.408 369.904 360.952 369.5C360.496 369.097 359.893 368.899 359.118 368.899C358.352 368.899 357.74 369.097 357.284 369.5ZM360.754 364.152C360.349 363.817 359.807 363.654 359.118 363.654C358.438 363.654 357.895 363.817 357.482 364.152C357.069 364.487 356.862 364.95 356.862 365.543C356.862 366.135 357.069 366.616 357.482 366.976C357.895 367.337 358.438 367.517 359.118 367.517C359.807 367.517 360.349 367.337 360.754 366.976C361.159 366.616 361.357 366.135 361.357 365.543C361.357 364.95 361.15 364.478 360.754 364.152Z" fill="black"/>
</g>
<defs>
<clipPath id="clip0_714_6449">
<rect width="446" height="581" fill="white"/>
</clipPath>
</defs>
</svg>
