<svg width="323" height="248" viewBox="0 0 323 248" fill="none" xmlns="http://www.w3.org/2000/svg">
<g clip-path="url(#clip0_721_14774)">
<path d="M79.568 208.191L79.4093 207.356L260.206 172.453V73.5361H261.056V173.157L79.568 208.191Z" fill="black"/>
<path d="M43.3724 177.916H42.5221V36.1463L42.9132 36.1123L261.056 17.335V41.637H260.206V18.2605L43.3724 36.9242V177.916Z" fill="black"/>
<path d="M209.572 242.044L76.5352 147.476V3.00391L102.533 11.9241L102.255 12.7304L77.3855 4.1963V147.039L210.065 241.346L209.572 242.044Z" fill="black"/>
<path d="M219.073 205.539L218.223 205.516L222.219 53.8729L122.022 19.5094L122.3 18.7031L223.086 53.2654L219.073 205.539Z" fill="black"/>
<path d="M217.956 248L209.572 242.044L210.065 241.346L217.145 246.382L217.565 230.427L218.415 230.449L217.956 248Z" fill="black"/>
<path d="M300.149 139.782L299.996 138.942L320.715 135.109L202.14 59.682L3.57699 77.7666L12.3524 87.6748L11.7175 88.2426L1.82532 77.0682L2.65864 76.9944L202.35 58.8076L323 135.552L300.149 139.782Z" fill="black"/>
<path d="M91.5407 178.382L91.382 178.2L29.0189 107.781L29.6538 107.213L91.8582 177.456L272.065 144.115L272.224 144.949L91.5407 178.382Z" fill="black"/>
<path d="M150.23 198.822H149.38V197.675H150.23V198.822ZM150.23 195.972H149.38V194.269H150.23V195.972ZM150.23 192.565H149.38V190.862H150.23V192.565ZM150.23 189.158H149.38V187.455H150.23V189.158ZM150.23 185.751H149.38V184.048H150.23V185.751ZM150.23 182.345H149.38V180.641H150.23V182.345ZM150.23 178.938H149.38V177.234H150.23V178.938ZM150.23 175.531H149.38V173.828H150.23V175.531ZM150.23 172.124H149.38V170.421H150.23V172.124ZM150.23 168.717H149.38V167.014H150.23V168.717ZM150.23 165.311H149.38V163.607H150.23V165.311ZM150.23 161.904H149.38V160.2H150.23V161.904ZM150.23 158.497H149.38V156.793H150.23V158.497ZM150.23 155.09H149.38V153.387H150.23V155.09ZM150.23 151.683H149.38V149.98H150.23V151.683ZM150.23 148.276H149.38V146.573H150.23V148.276ZM150.23 144.87H149.38V143.166H150.23V144.87ZM150.23 141.463H149.38V139.759H150.23V141.463ZM150.23 138.056H149.38V136.352H150.23V138.056ZM150.23 134.649H149.38V132.946H150.23V134.649ZM150.23 131.242H149.38V129.539H150.23V131.242ZM150.23 127.835H149.38V126.132H150.23V127.835ZM150.23 124.429H149.38V122.725H150.23V124.429ZM150.23 121.022H149.38V119.318H150.23V121.022ZM150.23 117.615H149.38V115.911H150.23V117.615ZM150.23 114.208H149.38V112.505H150.23V114.208ZM150.23 110.801H149.38V109.098H150.23V110.801ZM150.23 107.394H149.38V105.691H150.23V107.394ZM150.23 103.988H149.38V102.284H150.23V103.988ZM150.23 100.581H149.38V98.8774H150.23V100.581ZM150.23 97.174H149.38V95.4705H150.23V97.174ZM150.23 93.7671H149.38V92.0637H150.23V93.7671ZM150.23 90.3603H149.38V88.6569H150.23V90.3603ZM150.23 86.9535H149.38V85.25H150.23V86.9535ZM150.23 83.5466H149.38V81.8432H150.23V83.5466ZM150.23 80.1398H149.38V78.4364H150.23V80.1398ZM150.23 76.733H149.38V75.0296H150.23V76.733ZM150.23 73.3262H149.38V71.6227H150.23V73.3262ZM150.23 69.9193H149.38V68.2159H150.23V69.9193ZM150.23 66.5125H149.38V64.8091H150.23V66.5125ZM150.23 63.1057H149.38V61.4023H150.23V63.1057ZM150.23 59.6988H149.38V57.9954H150.23V59.6988ZM150.23 56.292H149.38V54.5886H150.23V56.292ZM150.23 52.8852H149.38V51.1818H150.23V52.8852ZM150.23 49.4784H149.38V47.7749H150.23V49.4784ZM150.23 46.0715H149.38V44.3681H150.23V46.0715ZM150.23 42.6647H149.38V40.9613H150.23V42.6647ZM150.23 39.2579H149.38V37.5545H150.23V39.2579ZM150.23 35.8511H149.38V34.1476H150.23V35.8511ZM150.23 32.4442H149.38V30.7408H150.23V32.4442ZM150.23 29.0374H149.38V27.334H150.23V29.0374Z" fill="black"/>
<path d="M219.26 154.239L217.792 153.381L218.223 152.643L219.691 153.501L219.26 154.239ZM216.323 152.524L214.855 151.667L215.286 150.928L216.754 151.786L216.323 152.524ZM213.387 150.809L211.919 149.952L212.35 149.214L213.818 150.071L213.387 150.809ZM210.445 149.094L208.977 148.237L209.407 147.499L210.876 148.356L210.445 149.094ZM207.508 147.38L206.04 146.522L206.471 145.784L207.939 146.642L207.508 147.38ZM204.572 145.659L203.104 144.802L203.535 144.064L205.003 144.921L204.572 145.659ZM201.63 143.944L200.162 143.087L200.592 142.349L202.061 143.206L201.63 143.944ZM198.693 142.23L197.225 141.372L197.656 140.634L199.124 141.492L198.693 142.23ZM195.751 140.515L194.283 139.658L194.714 138.919L196.182 139.777L195.751 140.515ZM192.815 138.8L191.347 137.943L191.777 137.205L193.246 138.062L192.815 138.8ZM189.878 137.085L188.41 136.228L188.841 135.49L190.309 136.347L189.878 137.085ZM186.936 135.365L185.468 134.508L185.899 133.769L187.367 134.627L186.936 135.365ZM184 133.65L182.531 132.793L182.962 132.055L184.431 132.912L184 133.65ZM181.063 131.935L179.595 131.078L180.026 130.34L181.494 131.197L181.063 131.935ZM178.121 130.221L176.653 129.363L177.084 128.625L178.552 129.483L178.121 130.221ZM175.185 128.506L173.716 127.649L174.147 126.91L175.615 127.768L175.185 128.506ZM172.248 126.785L170.78 125.928L171.211 125.19L172.679 126.047L172.248 126.785ZM169.306 125.071L167.838 124.213L168.269 123.475L169.737 124.333L169.306 125.071ZM166.37 123.356L164.901 122.499L165.332 121.76L166.8 122.618L166.37 123.356ZM163.433 121.641L161.965 120.784L162.396 120.046L163.864 120.903L163.433 121.641ZM160.491 119.926L159.023 119.069L159.454 118.331L160.922 119.188L160.491 119.926ZM157.554 118.206L156.086 117.349L156.517 116.61L157.985 117.468L157.554 118.206ZM154.618 116.491L153.15 115.634L153.581 114.896L155.049 115.753L154.618 116.491ZM151.676 114.776L150.208 113.919L150.638 113.181L152.107 114.038L151.676 114.776ZM148.739 113.062L147.271 112.204L147.702 111.466L149.17 112.323L148.739 113.062ZM145.803 111.347L144.335 110.489L144.766 109.751L146.234 110.609L145.803 111.347ZM142.861 109.626L141.393 108.769L141.823 108.031L143.292 108.888L142.861 109.626ZM139.924 107.912L138.456 107.054L138.887 106.316L140.355 107.173L139.924 107.912ZM136.988 106.197L135.52 105.339L135.95 104.601L137.419 105.459L136.988 106.197ZM134.046 104.482L132.577 103.625L133.008 102.887L134.477 103.744L134.046 104.482ZM131.109 102.767L129.641 101.91L130.072 101.172L131.54 102.029L131.109 102.767ZM128.173 101.053L126.705 100.195L127.135 99.457L128.604 100.314L128.173 101.053ZM125.231 99.3321L123.762 98.4747L124.193 97.7366L125.661 98.5939L125.231 99.3321ZM122.294 97.6173L120.826 96.7599L121.257 96.0218L122.725 96.8792L122.294 97.6173ZM119.352 95.9025L117.884 95.0452L118.315 94.307L119.783 95.1644L119.352 95.9025ZM116.416 94.1878L114.947 93.3304L115.378 92.5923L116.846 93.4496L116.416 94.1878ZM113.479 92.473L112.011 91.6156L112.442 90.8775L113.91 91.7349L113.479 92.473ZM110.543 90.7526L109.074 89.8952L109.505 89.157L110.973 90.0144L110.543 90.7526ZM107.601 89.0378L106.132 88.1804L106.563 87.4423L108.031 88.2996L107.601 89.0378ZM104.664 87.323L103.196 86.4656L103.627 85.7275L105.095 86.5849L104.664 87.323ZM101.722 85.6083L100.254 84.7509L100.685 84.0127L102.153 84.8701L101.722 85.6083ZM98.7854 83.8935L97.3172 83.0361L97.748 82.298L99.2163 83.1553L98.7854 83.8935ZM95.849 82.173L94.3808 81.3157L94.8116 80.5775L96.2798 81.4349L95.849 82.173ZM92.9068 80.4583L91.4386 79.6009L91.8694 78.8627L93.3377 79.7201L92.9068 80.4583ZM89.9704 78.7435L88.5021 77.8861L88.933 77.148L90.4012 78.0053L89.9704 78.7435ZM87.0339 77.0287L85.5657 76.1713L85.9965 75.4332L87.4647 76.2906L87.0339 77.0287ZM84.0918 75.314L82.6235 74.4566L83.0544 73.7184L84.5226 74.5758L84.0918 75.314ZM81.1553 73.5992L79.6871 72.7418L80.1179 72.0037L81.5861 72.861L81.1553 73.5992ZM78.2188 71.8787L76.7506 71.0214L77.1758 70.2832L78.644 71.1406L78.2188 71.8787Z" fill="black"/>
<path d="M160.922 124.548C158.161 124.548 155.559 124.361 153.841 123.816C151.75 123.152 141.109 119.461 137.135 112.272C134.692 107.855 133.059 99.934 133.184 99.0425L134.029 99.1618L133.609 99.0993L134.029 99.1561C133.978 99.7523 135.389 107.355 137.878 111.858C140.837 117.212 148.462 121.204 154.097 122.998C158.45 124.384 169.011 123.328 172.481 122.981C177.407 122.487 180.156 121.42 180.888 119.711C181.585 118.081 180.581 114.385 180.156 112.806C180.094 112.585 180.049 112.403 180.015 112.267C179.64 110.779 181.936 108.161 182.617 107.554C182.877 107.321 182.877 107.122 182.333 106.464C182.208 106.316 182.106 106.191 182.038 106.061C181.84 105.657 182.129 105.305 182.458 104.897C182.821 104.448 183.274 103.892 183.325 103.176C183.359 102.642 183.064 102.018 182.719 101.297C182.259 100.337 181.744 99.2526 181.8 97.9467C181.891 95.8912 185.474 95.6016 187.843 95.4143C188.41 95.3688 188.949 95.3234 189.153 95.2666C189.975 95.0395 190.553 93.8017 190.553 92.2459C190.553 90.6901 189.039 88.1464 188.677 87.783C188.314 87.4196 185.723 83.8027 185.508 82.0027C185.389 81.0147 184.153 78.982 183.059 77.1934C182.48 76.2509 181.936 75.3594 181.556 74.6213C180.417 72.4295 182.282 68.8751 182.651 68.2107C182.645 66.2461 182.458 63.3219 182.061 62.7541C181.607 62.1068 181.477 60.3239 181.347 57.8767C181.29 56.8149 181.233 55.8156 181.137 55.3556C181.08 55.0945 181.001 54.5891 180.893 53.9361C180.088 48.894 179.397 46.2424 178.841 46.0437C178.388 45.879 177.821 45.2771 176.834 44.1585L111.234 85.0575L109.443 80.7308C105.639 75.4957 103.213 67.2171 103.394 60.1139C103.598 52.3065 112.005 42.1712 114.936 39.2357C118.439 35.7266 127.096 30.6732 131.778 29.407C136.279 28.1862 146.642 29.3843 147.504 29.4865C153.649 29.0152 157.985 31.4965 161.812 33.6882C164.023 34.9544 165.927 36.0446 167.832 36.3512C171.54 36.9474 174.788 40.5303 177.004 43.0456L179.816 41.2911L180.264 42.0122L177.571 43.6929C178.24 44.4481 178.869 45.1408 179.136 45.2317C180.236 45.6235 180.922 48.6669 181.744 53.7942C181.846 54.4244 181.925 54.9184 181.976 55.1683C182.089 55.6963 182.14 56.6843 182.203 57.8256C182.288 59.3927 182.412 61.7605 182.764 62.2602C183.473 63.2708 183.507 67.484 183.507 68.3186V68.4322L183.45 68.5344C183.427 68.5741 181.301 72.2649 182.316 74.2238C182.69 74.9392 183.223 75.8193 183.79 76.7505C184.98 78.7038 186.216 80.7252 186.352 81.9005C186.522 83.3598 188.881 86.7836 189.277 87.1754C189.72 87.6126 191.398 90.4062 191.398 92.2402C191.398 94.2048 190.581 95.7493 189.374 96.0843C189.09 96.1638 188.597 96.2035 187.906 96.2546C186.216 96.3909 182.702 96.6748 182.645 97.9751C182.6 99.0709 183.047 100.013 183.478 100.922C183.858 101.717 184.215 102.466 184.164 103.227C184.096 104.21 183.501 104.942 183.11 105.43C183.025 105.538 182.911 105.674 182.849 105.765C182.889 105.816 182.934 105.873 182.974 105.919C183.319 106.339 184.136 107.321 183.166 108.19C182.242 109.013 180.61 111.216 180.825 112.057C180.859 112.187 180.905 112.369 180.967 112.585C181.454 114.39 182.475 118.149 181.664 120.051C180.791 122.095 177.894 123.299 172.56 123.833C170.383 124.054 165.44 124.548 160.922 124.548ZM137.606 29.7193C135.457 29.7193 133.405 29.8499 132.005 30.2303C127.43 31.4738 118.967 36.4137 115.543 39.8432C112.674 42.7163 104.443 52.6132 104.25 60.1422C104.069 67.0922 106.444 75.1834 110.163 80.2766L110.214 80.3674L111.637 83.814L176.273 43.5169C174.142 41.0981 171.063 37.748 167.702 37.2086C165.644 36.8793 163.581 35.6926 161.392 34.4434C157.662 32.3085 153.445 29.8896 147.532 30.3552L147.492 30.3609L147.453 30.3552C147.373 30.3325 142.254 29.7193 137.606 29.7193Z" fill="black"/>
<path d="M133.921 98.429C133.399 98.429 132.895 98.2473 132.515 97.7533C132.039 97.1401 130.928 96.2543 129.947 95.4707C128.587 94.3862 127.742 93.6935 127.515 93.1825C127.368 92.8475 127.294 92.274 127.198 91.5529C127.045 90.3889 126.818 88.6287 126.16 88.2256C125.072 87.5556 124.97 86.8231 124.868 86.1076C124.834 85.8805 124.8 85.6477 124.737 85.3979C124.596 84.8698 124.499 84.1771 124.403 83.5014C124.307 82.8201 124.21 82.1103 124.074 81.7015C123.757 80.7532 123.649 77.9824 124.652 76.9774C124.89 76.7389 125.304 76.1143 125.741 75.4556C127.232 73.2128 128.377 71.623 129.454 71.7081C129.715 71.7252 129.924 71.7024 130.151 71.6797C131.211 71.5662 132.022 71.64 134.357 73.6159L133.808 74.2689C131.58 72.3838 130.985 72.4463 130.236 72.5258C129.992 72.5485 129.72 72.5825 129.386 72.5542C129.38 72.5542 129.375 72.5542 129.363 72.5542C128.683 72.5542 127.169 74.8254 126.438 75.9269C125.934 76.6821 125.537 77.284 125.242 77.5792C124.573 78.2492 124.584 80.5716 124.868 81.4346C125.027 81.9172 125.129 82.6327 125.231 83.3879C125.321 84.0352 125.412 84.6995 125.542 85.1764C125.622 85.4717 125.661 85.7443 125.695 85.9884C125.786 86.6414 125.843 87.0388 126.591 87.4988C127.595 88.1177 127.838 89.963 128.031 91.445C128.105 92.0185 128.184 92.609 128.28 92.8361C128.434 93.1825 129.562 94.0796 130.463 94.8064C131.529 95.6581 132.634 96.5382 133.173 97.2253C133.944 98.2076 135.792 96.788 135.814 96.771L136.336 97.441C135.752 97.9066 134.8 98.429 133.921 98.429Z" fill="black"/>
<path d="M177.804 106.867C177.39 106.867 176.976 106.804 176.63 106.645L176.982 105.867C177.815 106.248 179.533 105.777 179.759 105.493C179.98 104.925 180.904 104.437 181.092 104.346L181.471 105.107C181.08 105.305 180.61 105.646 180.536 105.839C180.434 106.095 180.156 106.316 179.691 106.503C179.232 106.691 178.507 106.867 177.804 106.867Z" fill="black"/>
<path d="M176.755 107.214H175.905C175.905 106.169 176.999 105.34 177.129 105.249L177.628 105.936C177.401 106.101 176.755 106.691 176.755 107.214Z" fill="black"/>
<path d="M179.408 97.0952L178.575 96.9305C178.637 96.6239 178.801 96.3797 178.96 96.2037C178.796 95.9652 178.626 95.6189 178.569 95.159C178.507 94.6763 178.711 94.2562 178.892 93.8871C179.062 93.535 179.215 93.2227 179.147 92.9161L179.119 92.7969C178.926 91.9509 178.665 90.7869 180.083 89.8046C181.556 88.7825 183.631 90.3213 183.722 90.3837L183.212 91.0651C182.747 90.7187 181.369 89.9465 180.57 90.503C179.629 91.1559 179.771 91.7976 179.952 92.6095L179.98 92.7344C180.117 93.3363 179.861 93.853 179.663 94.2675C179.516 94.5684 179.391 94.8353 179.419 95.0624C179.487 95.6302 179.822 95.9198 179.839 95.9312L180.292 96.3173L179.788 96.6296C179.697 96.6693 179.459 96.8624 179.408 97.0952Z" fill="black"/>
<path d="M171.936 74.6611L171.398 74.0024C171.562 73.8718 173.008 72.7078 173.909 72.4069C174.289 72.2763 174.913 71.8277 175.508 71.3849C176.12 70.9363 176.749 70.4764 177.293 70.2265C178.388 69.7269 179.924 69.5338 179.986 69.5225L180.094 70.3685C180.077 70.3685 178.62 70.5559 177.651 70.9988C177.186 71.2088 176.59 71.646 176.018 72.0662C175.338 72.5659 174.691 73.0372 174.187 73.2075C173.541 73.4233 172.339 74.3318 171.936 74.6611Z" fill="black"/>
<path d="M177.537 79.5324L177.027 78.8511C177.305 78.641 177.594 78.3344 177.622 78.2208C177.622 77.8688 177.877 77.5054 178.104 77.1874C178.178 77.0795 178.291 76.9205 178.314 76.8637C178.308 76.7899 178.178 76.5628 178.098 76.5344C177.713 76.6934 177.055 76.6537 176.296 76.6082C175.956 76.5855 175.604 76.5628 175.292 76.5628C174.578 76.5628 172.203 76.0972 171.857 75.4045C171.761 75.2171 171.783 75.0014 171.908 74.8367C172.146 74.513 172.713 74.3086 173.694 73.968C174.159 73.809 174.635 73.6443 175.026 73.4626C175.893 73.0708 177.781 72.7472 178.58 72.6223V72.1339C178.58 71.7194 178.263 70.8791 178.059 70.4532L178.83 70.0898C178.892 70.2204 179.431 71.3958 179.431 72.1339V73.3604L179.062 73.4115C179.034 73.4172 176.352 73.7919 175.372 74.2348C174.947 74.4279 174.448 74.5982 173.966 74.7685C173.643 74.8821 173.212 75.0297 172.911 75.1603C173.495 75.4102 174.674 75.7111 175.292 75.7111C175.627 75.7111 175.99 75.7338 176.352 75.7565C176.897 75.7906 177.577 75.8303 177.798 75.7452C178.115 75.6146 178.456 75.6941 178.728 75.9496C179.022 76.2278 179.249 76.7445 179.119 77.1306C179.062 77.301 178.943 77.4713 178.801 77.6757C178.699 77.8233 178.484 78.13 178.478 78.2378C178.467 78.7716 177.815 79.3223 177.537 79.5324Z" fill="black"/>
<path d="M177.526 76.643L177.39 75.8026C177.39 75.8026 177.719 75.7402 177.894 75.5074C178.138 75.1837 178.263 74.7352 178.2 74.4172C178.093 73.8835 178.212 73.0772 178.229 72.9863L179.068 73.1169C179.034 73.3213 178.966 73.9232 179.034 74.2525C179.147 74.809 178.966 75.5017 178.575 76.0184C178.195 76.5181 177.588 76.6316 177.526 76.643Z" fill="black"/>
<path d="M181.568 69.8059L181.137 69.6583C181.137 69.7207 181.16 69.7605 181.171 69.7718C181.092 69.6867 180.723 69.5504 180.542 69.4879C180.321 69.4085 180.128 69.3403 179.992 69.2495C179.686 69.0451 179.011 68.375 178.881 68.2445L179.482 67.6426C179.765 67.9265 180.281 68.4205 180.462 68.5397C180.513 68.5738 180.7 68.6419 180.825 68.6873C181.341 68.869 181.982 69.1018 181.982 69.6583L181.568 69.8059Z" fill="black"/>
<path d="M172.571 69.2557L171.902 68.7333C172.526 67.9327 173.83 67.6034 175.094 67.2797C175.383 67.2059 175.666 67.1378 175.927 67.0583C177.299 66.6665 179.436 66.8709 179.924 67.0753C180.797 67.4501 180.95 68.8412 180.961 68.9945L180.117 69.074C180.077 68.6595 179.878 67.9838 179.589 67.8589C179.323 67.751 177.39 67.5239 176.165 67.8759C175.893 67.9554 175.604 68.0292 175.309 68.103C174.232 68.3756 173.013 68.6822 172.571 69.2557Z" fill="black"/>
<path d="M173.416 68.6711L172.917 67.9784C173.036 67.8932 175.837 65.8945 178.416 65.8945C181.556 65.8945 181.993 66.5021 182.14 66.7008C182.293 66.9109 182.327 67.1607 182.248 67.4049C182.169 67.6434 182.021 68.0806 181.636 68.109C181.443 68.1203 181.262 68.0181 181.177 67.8421L181.556 67.6547L181.63 67.2629C181.483 67.2573 181.369 67.3311 181.341 67.3765C181.341 67.3765 181.375 67.3311 181.426 67.1834C181.318 67.0926 180.757 66.7519 178.416 66.7519C176.114 66.7519 173.444 68.6541 173.416 68.6711Z" fill="black"/>
<path d="M181.698 108.951L181.432 108.145C181.471 108.105 181.641 107.804 181.738 107.543L182.531 107.844C182.395 108.196 182.112 108.809 181.698 108.951Z" fill="black"/>
<path d="M179.997 108.786C179.901 108.786 179.805 108.757 179.714 108.706C179.391 108.519 179.226 107.991 179.147 107.576L179.98 107.412C179.992 107.48 180.014 107.554 180.031 107.622C180.06 107.548 180.082 107.468 180.099 107.395L180.927 107.599C180.836 107.968 180.615 108.61 180.173 108.757C180.116 108.78 180.06 108.786 179.997 108.786Z" fill="black"/>
<path d="M179.011 108.372L178.41 107.77C178.756 107.423 179.107 107.298 179.147 107.287L179.414 108.093L179.277 107.69L179.419 108.093C179.414 108.093 179.215 108.167 179.011 108.372Z" fill="black"/>
<path d="M177.889 108.474L177.622 107.668C177.724 107.633 178.002 107.412 178.217 107.196L178.818 107.798C178.688 107.929 178.246 108.355 177.889 108.474Z" fill="black"/>
<path d="M182.18 106.373C181.675 106.373 180.95 106.168 180.638 105.93C180.23 105.623 180.088 105.441 180.088 105.226H180.938C180.938 105.095 180.882 105.021 180.882 105.016C180.882 105.016 180.938 105.084 181.154 105.248C181.364 105.407 182.067 105.555 182.248 105.521C182.157 105.538 181.999 105.669 181.999 105.873H182.849C182.849 106.055 182.747 106.219 182.577 106.305C182.48 106.356 182.339 106.373 182.18 106.373Z" fill="black"/>
<path d="M180.87 96.2204C180.632 96.2204 180.496 96.0898 180.44 96.0217C180.167 95.6924 180.377 95.2154 180.621 94.7952C181.075 94.0003 181.704 93.7051 182.662 93.8243L182.866 93.847C183.484 93.9208 183.739 93.9549 184.323 94.2445C184.731 94.4489 185.519 94.5568 185.791 94.5852L185.712 95.4312C185.695 95.4312 185.661 95.4255 185.615 95.4198L185.729 95.681C185.604 95.7321 184.958 95.999 184.516 95.999C184.124 95.999 183.54 95.999 182.662 95.9025C182.033 95.8287 181.585 95.999 181.29 96.1126C181.233 96.1353 181.177 96.1523 181.131 96.1693C181.029 96.2091 180.944 96.2204 180.87 96.2204ZM182.259 94.6533C181.845 94.6533 181.607 94.8066 181.381 95.187C181.721 95.0848 182.186 94.9997 182.752 95.0621C183.438 95.1416 183.943 95.153 184.3 95.153C184.17 95.1132 184.051 95.0621 183.943 95.0053C183.495 94.7782 183.342 94.7612 182.764 94.693L182.554 94.6703C182.446 94.659 182.35 94.6533 182.259 94.6533Z" fill="black"/>
<path d="M130.554 88.3735C130.497 88.3564 129.114 87.9987 128.995 86.5679L128.966 86.2328C128.91 85.5458 128.91 85.5174 128.966 84.8304L128.995 84.4954C129.103 83.2235 129.465 82.6103 130.452 82.0595C130.673 81.9402 130.905 81.821 131.132 81.7074C131.688 81.4292 132.317 81.1169 132.47 80.8103C132.742 80.2652 132.929 79.7996 132.929 79.7939L133.717 80.1119C133.711 80.1346 133.519 80.6116 133.229 81.1907C132.952 81.7472 132.254 82.0992 131.512 82.4683C131.296 82.5762 131.075 82.6898 130.866 82.8033C130.18 83.1837 129.936 83.4904 129.845 84.5635L129.817 84.8985C129.766 85.5288 129.766 85.5288 129.817 86.1534L129.845 86.4884C129.913 87.306 130.729 87.5331 130.763 87.5388L130.554 88.3735Z" fill="black"/>
<path d="M132.629 84.7733L132.113 84.0976C132.714 83.6376 133.564 82.7519 133.564 82.2408C133.564 81.9058 133.609 81.5084 133.649 81.1223C133.706 80.5999 133.802 79.7311 133.655 79.5495C133.201 78.9816 132.714 78.0448 132.351 77.0454C132.209 76.6593 132.084 76.1426 131.96 75.6486C131.818 75.0751 131.58 74.1156 131.41 73.9395C131.41 73.9566 131.047 73.9623 130.004 75.0127C129.805 75.2114 129.533 75.4499 129.233 75.7168C128.677 76.2051 127.986 76.8183 127.566 77.3577C126.75 78.4138 126.172 79.5835 126.223 79.8845L125.384 80.0264C125.214 79.01 126.88 76.8581 126.897 76.8353C127.362 76.2335 128.088 75.5918 128.672 75.0808C128.961 74.831 129.216 74.5982 129.403 74.4165C130.48 73.3377 131.206 72.9572 131.767 73.1787C132.254 73.3717 132.464 74.1326 132.787 75.4556C132.906 75.9325 133.025 76.4208 133.15 76.7672C133.541 77.846 134.012 78.641 134.318 79.0271C134.681 79.4813 134.59 80.3273 134.494 81.2245C134.454 81.5992 134.414 81.9569 134.414 82.2465C134.409 83.3708 132.81 84.6313 132.629 84.7733Z" fill="black"/>
<path d="M129.749 89.8895L128.898 89.8441C128.898 89.8271 128.961 88.4019 127.895 87.4139C126.444 86.0739 125.951 84.6714 126.342 83.0021C126.455 82.5081 126.529 81.9914 126.603 81.4406C126.767 80.2255 126.937 78.965 127.64 77.9032C128.088 77.2275 128.728 76.7108 129.295 76.2509C129.89 75.7682 130.457 75.3083 130.423 74.9392C130.338 73.991 130.253 73.7071 130.253 73.6958L131.064 73.4346C131.081 73.4914 131.177 73.8207 131.274 74.8654C131.347 75.6888 130.61 76.285 129.834 76.9152C129.29 77.3581 128.728 77.8123 128.349 78.3801C127.753 79.2773 127.595 80.4356 127.447 81.5599C127.373 82.1049 127.3 82.6671 127.175 83.2008C126.858 84.5579 127.26 85.6651 128.479 86.795C129.839 88.0555 129.754 89.8157 129.749 89.8895Z" fill="black"/>
<path d="M134.749 91.2462C134.278 91.2462 133.416 91.0418 133.195 90.2696C133.025 89.6791 132.714 89.3555 132.611 89.3157C132.555 89.2987 132.453 89.2703 132.334 89.2419C131.625 89.0716 130.894 88.8899 130.894 88.3391C130.894 87.8905 131.342 87.7826 131.557 87.7259C131.875 87.6464 131.931 87.6066 131.943 87.5158C132.016 86.9991 132.186 86.6754 132.368 86.3347C132.453 86.1758 132.543 86.0054 132.634 85.7896C132.94 85.0799 133.552 84.3304 133.932 84.0806C134.04 84.0067 134.244 83.8705 134.494 83.9329C134.749 83.9897 134.868 84.1941 135.015 84.4439L135.106 84.5973C135.486 85.2332 135.253 86.3347 135.145 86.6641L135.072 86.8855C135.077 87.3625 135.128 88.481 135.321 88.9353C135.61 89.611 135.514 90.5365 135.247 90.9453C135.083 91.2065 134.862 91.2462 134.749 91.2462ZM132.3 88.3561C132.396 88.3788 132.481 88.4016 132.538 88.4129C132.685 88.447 132.81 88.481 132.884 88.5037C133.343 88.6571 133.796 89.2703 134.017 90.0311C134.085 90.2639 134.397 90.3434 134.59 90.3718C134.664 90.139 134.703 89.6337 134.545 89.2646C134.233 88.5378 134.227 86.982 134.227 86.8117L134.25 86.6754L134.346 86.3915C134.448 86.0792 134.556 85.3184 134.386 85.0288L134.295 84.8812C134.051 85.1083 133.649 85.6079 133.428 86.1246C133.326 86.3631 133.224 86.5562 133.127 86.7379C132.963 87.0502 132.844 87.2716 132.793 87.6407C132.736 88.0098 132.526 88.2255 132.3 88.3561Z" fill="black"/>
<path d="M155.281 153.375L154.561 152.927C154.561 152.921 154.975 152.223 154.975 150.769C154.975 149.577 155.599 147.073 156.098 145.063C156.307 144.217 156.489 143.49 156.602 142.962C156.67 142.627 156.761 142.15 156.869 141.593C157.526 138.147 158.172 134.984 158.887 134.189C159.55 133.451 159.765 128.42 159.454 126.74C159.136 125.048 159.964 123.923 159.998 123.878L160.678 124.389L160.338 124.133L160.678 124.389C160.65 124.423 160.043 125.275 160.287 126.586C160.559 128.029 160.542 133.621 159.522 134.763C158.904 135.45 158.093 139.708 157.702 141.758C157.594 142.32 157.503 142.803 157.43 143.144C157.316 143.683 157.135 144.421 156.92 145.273C156.432 147.237 155.82 149.685 155.82 150.775C155.82 152.49 155.304 153.341 155.281 153.375Z" fill="black"/>
<path d="M154.221 166.424C153.229 166.424 152.124 166.276 151.047 165.839C148.263 164.703 139.335 159.633 135.741 154.931C133.706 152.274 130.554 150.883 126.897 149.27C124.601 148.26 121.994 147.113 119.392 145.5C117.17 144.126 114.766 142.854 112.447 141.622C108.065 139.3 103.921 137.108 102.062 134.723L101.915 134.536L105.804 123.924C105.826 123.861 108.179 117.439 108.74 114.924C109.301 112.386 111.665 100.189 111.688 100.064L112.521 100.229C112.498 100.354 110.135 112.556 109.568 115.111C108.995 117.683 106.699 123.952 106.603 124.219L102.878 134.383C104.704 136.557 108.661 138.652 112.844 140.867C115.18 142.105 117.595 143.382 119.84 144.773C122.391 146.352 124.857 147.436 127.237 148.487C131.002 150.145 134.25 151.576 136.415 154.409C139.913 158.986 148.643 163.931 151.37 165.044C153.671 165.981 156.171 165.413 157.084 165.152C156.795 163.92 156.211 161.569 155.882 160.973C155.633 160.519 155.661 159.945 155.689 159.281C155.729 158.429 155.78 157.464 155.23 156.612C154.142 154.926 153.66 150.423 153.643 150.23L154.488 150.139C154.493 150.185 154.964 154.63 155.945 156.147C156.642 157.225 156.585 158.384 156.54 159.315C156.517 159.826 156.489 160.314 156.625 160.553C157.118 161.438 157.912 164.942 158.002 165.334L158.082 165.697L157.736 165.828C157.64 165.879 156.137 166.424 154.221 166.424Z" fill="black"/>
<path d="M113.02 126.813L110.231 44.3739L180.927 41.1885L182.849 123.242L113.02 126.813ZM111.115 45.1915L113.848 125.922L181.987 122.441L180.099 42.0856L111.115 45.1915Z" fill="black"/>
<path d="M137.997 127.206L111.654 84.66L112.374 84.2058L137.016 124.003L133.178 29.5546L134.029 29.5205L137.997 127.206Z" fill="black"/>
<path d="M158.777 32.3849L157.927 32.4033L159.918 124.136L160.769 124.118L158.777 32.3849Z" fill="black"/>
<path d="M182.214 123.214L109.891 84.0805L181.205 80.5771L181.245 81.4232L112.975 84.7846L182.622 122.464L182.214 123.214Z" fill="black"/>
<path d="M170.2 37.53L169.35 37.5488L171.259 123.509L172.109 123.49L170.2 37.53Z" fill="black"/>
<path d="M259.735 173.072L181.228 74.4957L260.382 17.4541L260.881 18.1411L182.446 74.6604L260.399 172.544L259.735 173.072Z" fill="black"/>
<path d="M182.012 74.192L181.677 74.9746L317.729 133.479L318.064 132.696L182.012 74.192Z" fill="black"/>
<path d="M77.3345 147.464L76.5919 147.05L111.07 84.2053L77.1361 4.33793L77.9184 4.00293L112.017 84.2564L111.915 84.4381L77.3345 147.464Z" fill="black"/>
<path d="M92.1189 178.007L91.2855 177.831L111.024 84.626L3.24255 78.4085L3.29357 77.5625L112.062 83.8367L92.1189 178.007Z" fill="black"/>
<path d="M226.601 215.618H224.702V214.652C225.008 214.647 225.275 214.624 225.513 214.601C225.745 214.573 225.955 214.528 226.136 214.454C226.318 214.386 226.471 214.278 226.607 214.141C226.737 214.005 226.862 213.818 226.97 213.585H228.001V222.102H226.607V215.618H226.601Z" fill="black"/>
<path d="M269.084 53.72C268.675 53.51 268.335 53.2204 268.063 52.8456C267.791 52.4709 267.587 52.0223 267.451 51.4999C267.315 50.9775 267.247 50.3984 267.247 49.7624C267.247 49.1322 267.315 48.5587 267.451 48.0363C267.587 47.5139 267.791 47.0654 268.063 46.6906C268.335 46.3159 268.675 46.0263 269.084 45.8162C269.492 45.6061 269.968 45.5039 270.512 45.5039C271.062 45.5039 271.544 45.6061 271.952 45.8162C272.36 46.0263 272.7 46.3159 272.972 46.6906C273.244 47.0654 273.449 47.5139 273.585 48.0363C273.721 48.5587 273.789 49.1322 273.789 49.7624C273.789 50.3984 273.721 50.9775 273.585 51.4999C273.449 52.0223 273.244 52.4709 272.972 52.8456C272.7 53.2204 272.36 53.51 271.952 53.72C271.544 53.9301 271.068 54.0323 270.512 54.0323C269.968 54.0323 269.492 53.9244 269.084 53.72ZM271.89 52.1586C272.213 51.6078 272.377 50.8072 272.377 49.7681C272.377 48.7234 272.213 47.9284 271.89 47.3777C271.566 46.8269 271.107 46.5487 270.506 46.5487C269.917 46.5487 269.463 46.8269 269.135 47.3777C268.811 47.9284 268.647 48.729 268.647 49.7681C268.647 50.8129 268.811 51.6078 269.135 52.1586C269.458 52.7093 269.917 52.9876 270.506 52.9876C271.107 52.9876 271.566 52.7093 271.89 52.1586Z" fill="black"/>
<path d="M113.547 0.14177C113.882 0.238297 114.171 0.380248 114.409 0.567623C114.653 0.754999 114.84 0.987799 114.981 1.26602C115.117 1.54425 115.191 1.85654 115.191 2.21426C115.191 2.64579 115.089 3.07164 114.891 3.49749C114.692 3.92335 114.409 4.34352 114.046 4.7637C113.683 5.18387 113.241 5.60405 112.725 6.0299C112.209 6.45576 111.637 6.88161 111.007 7.3245H115.384V8.51689H109.301V7.38696C109.998 6.84186 110.622 6.33652 111.172 5.8766C111.722 5.41667 112.187 4.97946 112.572 4.56497C112.958 4.15615 113.252 3.76436 113.451 3.40097C113.655 3.03757 113.757 2.67986 113.757 2.3335C113.757 1.92468 113.638 1.61238 113.394 1.38526C113.15 1.16382 112.822 1.05026 112.408 1.05026C112.209 1.05026 112.017 1.07865 111.824 1.14111C111.637 1.20356 111.472 1.30577 111.331 1.44772C111.189 1.58967 111.075 1.77705 110.985 2.00417C110.894 2.23129 110.854 2.50384 110.854 2.82749H109.483C109.477 2.40163 109.539 2.0212 109.681 1.67484C109.817 1.32848 110.021 1.03322 110.282 0.783389C110.543 0.539233 110.86 0.346179 111.229 0.204228C111.597 0.0679552 112.011 -0.00585938 112.476 -0.00585938C112.85 -0.00018133 113.213 0.045243 113.547 0.14177Z" fill="black"/>
<path d="M31.825 196.545C32.029 196.483 32.2048 196.386 32.3578 196.267C32.5109 196.148 32.6243 196 32.7093 195.824C32.7943 195.648 32.834 195.449 32.834 195.222C32.834 194.955 32.783 194.734 32.6866 194.552C32.5903 194.371 32.4485 194.223 32.2671 194.115C32.0857 194.007 31.8703 193.928 31.6152 193.877C31.3601 193.826 31.0823 193.803 30.7819 193.803H30.3851V192.679H30.7252C31.995 192.679 32.6299 192.253 32.6299 191.407C32.6299 191.202 32.5903 191.021 32.5109 190.867C32.4315 190.714 32.3295 190.583 32.1991 190.487C32.0687 190.39 31.9213 190.317 31.7456 190.265C31.5699 190.214 31.3885 190.192 31.2014 190.192C30.7025 190.192 30.3171 190.334 30.0336 190.612C29.7558 190.89 29.5858 191.27 29.5234 191.759H28.2082C28.2366 191.367 28.333 191.009 28.486 190.691C28.6391 190.373 28.8488 190.101 29.1096 189.874C29.3704 189.647 29.6821 189.47 30.0506 189.346C30.4191 189.221 30.8273 189.158 31.2808 189.158C31.6209 189.158 31.9554 189.198 32.2841 189.277C32.6129 189.357 32.9077 189.488 33.1628 189.664C33.4179 189.84 33.6277 190.067 33.7807 190.339C33.9338 190.612 34.0131 190.941 34.0131 191.327C34.0131 191.736 33.9054 192.099 33.6844 192.429C33.4633 192.752 33.1742 193.002 32.8113 193.178C33.0608 193.269 33.2762 193.388 33.4519 193.53C33.6277 193.672 33.7751 193.831 33.8884 194.007C34.0018 194.183 34.0868 194.371 34.1435 194.569C34.2002 194.768 34.2286 194.978 34.2286 195.188C34.2286 195.614 34.1435 195.978 33.9791 196.29C33.8147 196.602 33.588 196.858 33.3045 197.068C33.0211 197.278 32.6923 197.431 32.3182 197.533C31.944 197.636 31.5529 197.687 31.1447 197.687C30.6685 197.687 30.249 197.613 29.8806 197.471C29.5121 197.329 29.206 197.13 28.9509 196.88C28.6958 196.63 28.4974 196.341 28.3556 196.017C28.2139 195.694 28.1289 195.347 28.1062 194.984H29.4214C29.4497 195.211 29.5121 195.427 29.5971 195.625C29.6821 195.824 29.8012 196 29.9429 196.154C30.0846 196.307 30.2604 196.426 30.4588 196.511C30.6572 196.596 30.8953 196.642 31.1674 196.642C31.3998 196.642 31.6209 196.608 31.825 196.545Z" fill="black"/>
<path d="M44.6762 226.918V228.916H43.2817V226.918H39.0811V225.754L43.293 220.399H44.6762V225.708H46.1785V226.918H44.6762ZM43.2817 225.708V222.222L40.606 225.708H43.2817Z" fill="black"/>
<path d="M67.5897 228.955C67.7882 228.876 67.9639 228.757 68.1113 228.609C68.2587 228.461 68.3777 228.274 68.4627 228.047C68.5478 227.825 68.5875 227.576 68.5875 227.297C68.5875 226.991 68.5421 226.718 68.4457 226.491C68.3494 226.258 68.219 226.065 68.0603 225.912C67.9015 225.759 67.7201 225.645 67.516 225.571C67.3176 225.497 67.1136 225.463 66.9038 225.463C66.5127 225.463 66.1839 225.549 65.9174 225.719C65.651 225.889 65.4753 226.094 65.3959 226.343L64.1034 226.275L64.6589 221.625H69.6589V222.834H65.787L65.5206 224.935C65.719 224.776 65.9628 224.646 66.2519 224.555C66.541 224.464 66.8698 224.419 67.2496 224.419C67.6011 224.419 67.9469 224.481 68.2813 224.606C68.6158 224.731 68.9106 224.913 69.1657 225.151C69.4208 225.39 69.6249 225.69 69.7779 226.048C69.931 226.406 70.0103 226.82 70.0103 227.286C70.0103 227.757 69.9253 228.166 69.7609 228.518C69.5965 228.87 69.3698 229.171 69.0863 229.415C68.8029 229.659 68.4741 229.841 68.0999 229.966C67.7258 230.091 67.3346 230.153 66.9208 230.153C66.439 230.153 66.0081 230.08 65.6397 229.932C65.2712 229.784 64.9594 229.586 64.7043 229.336C64.4492 229.086 64.2565 228.796 64.1147 228.473C63.973 228.149 63.8936 227.803 63.871 227.439H65.1975C65.2598 227.922 65.4242 228.319 65.6963 228.626C65.9684 228.933 66.3823 229.086 66.9378 229.086C67.1759 229.075 67.3857 229.035 67.5897 228.955Z" fill="black"/>
<path d="M269.883 62.2486C269.662 62.3848 269.48 62.5779 269.327 62.822C269.174 63.0662 269.061 63.3615 268.976 63.7078C268.891 64.0542 268.845 64.4346 268.84 64.8605C269.021 64.5936 269.276 64.3721 269.605 64.1905C269.934 64.0088 270.336 63.9179 270.813 63.9179C271.192 63.9179 271.544 63.986 271.878 64.1166C272.213 64.2472 272.502 64.4346 272.746 64.6788C272.989 64.9229 273.188 65.2125 273.329 65.5589C273.471 65.9052 273.545 66.2913 273.545 66.7229C273.545 67.1317 273.471 67.5064 273.324 67.8528C273.176 68.1992 272.972 68.4944 272.712 68.7442C272.451 68.9941 272.133 69.1871 271.765 69.3291C271.396 69.471 270.994 69.5392 270.552 69.5392C270.013 69.5392 269.554 69.4426 269.169 69.2496C268.783 69.0565 268.466 68.784 268.211 68.4319C267.955 68.0799 267.768 67.6597 267.649 67.1657C267.53 66.6718 267.468 66.1267 267.468 65.5191C267.468 64.9286 267.525 64.3608 267.638 63.8157C267.751 63.2706 267.938 62.7936 268.199 62.3735C268.46 61.959 268.794 61.624 269.208 61.3798C269.622 61.1357 270.127 61.0107 270.733 61.0107C271.164 61.0107 271.538 61.0732 271.861 61.2038C272.184 61.3344 272.451 61.4991 272.666 61.7091C272.882 61.9192 273.046 62.152 273.165 62.4189C273.284 62.6858 273.358 62.9526 273.386 63.2252H272.014C271.969 62.822 271.822 62.5268 271.566 62.3337C271.311 62.1407 271 62.0441 270.631 62.0441C270.348 62.0441 270.098 62.1123 269.883 62.2486ZM269.39 68.0175C269.69 68.3297 270.07 68.4831 270.54 68.4831C270.773 68.4831 270.988 68.4433 271.187 68.3638C271.385 68.2843 271.555 68.1708 271.697 68.0175C271.839 67.8641 271.952 67.6824 272.031 67.4667C272.111 67.2509 272.15 67.0068 272.15 66.7342C272.15 66.1891 272.003 65.7633 271.703 65.4453C271.402 65.133 271.022 64.974 270.552 64.974C270.081 64.974 269.701 65.133 269.395 65.4453C269.095 65.7576 268.942 66.1891 268.942 66.7342C268.942 67.2793 269.089 67.7108 269.39 68.0175Z" fill="black"/>
<path d="M6.11103 90.9395V92.1716C5.57248 92.6883 5.09063 93.2107 4.67681 93.7387C4.25731 94.2668 3.90017 94.8232 3.61106 95.4137C3.31628 95.9986 3.08953 96.6232 2.91946 97.2875C2.74939 97.9518 2.64169 98.673 2.59634 99.4565H1.00906C1.04874 98.707 1.16778 97.9859 1.36053 97.3045C1.55327 96.6232 1.81403 95.9759 2.13716 95.3683C2.46028 94.7551 2.82876 94.1873 3.25959 93.6536C3.68476 93.1198 4.14393 92.6258 4.63712 92.1716H0V90.9395H6.11103Z" fill="black"/>
<path d="M286.396 150.15C286.742 150.258 287.037 150.4 287.28 150.587C287.524 150.775 287.717 150.996 287.847 151.257C287.978 151.519 288.046 151.803 288.046 152.103C288.046 152.461 287.966 152.802 287.802 153.143C287.638 153.478 287.371 153.756 286.991 153.977C287.473 154.227 287.813 154.534 288.006 154.903C288.199 155.272 288.295 155.647 288.295 156.033C288.295 156.441 288.216 156.799 288.057 157.106C287.898 157.412 287.683 157.674 287.411 157.884C287.139 158.094 286.816 158.253 286.441 158.361C286.067 158.469 285.665 158.52 285.234 158.52C284.803 158.52 284.401 158.469 284.027 158.361C283.652 158.253 283.329 158.094 283.057 157.884C282.785 157.674 282.57 157.412 282.411 157.106C282.252 156.799 282.173 156.441 282.173 156.033C282.173 155.845 282.196 155.652 282.241 155.459C282.286 155.266 282.36 155.079 282.462 154.903C282.564 154.727 282.7 154.556 282.864 154.397C283.029 154.238 283.233 154.096 283.477 153.977C283.114 153.773 282.847 153.5 282.677 153.154C282.507 152.808 282.422 152.461 282.422 152.103C282.422 151.803 282.49 151.519 282.621 151.257C282.751 150.996 282.938 150.775 283.182 150.587C283.426 150.4 283.72 150.258 284.066 150.15C284.412 150.042 284.803 149.991 285.234 149.991C285.665 149.991 286.05 150.042 286.396 150.15ZM284.027 154.886C283.726 155.153 283.579 155.516 283.579 155.976C283.579 156.447 283.726 156.811 284.027 157.072C284.327 157.333 284.73 157.464 285.234 157.464C285.739 157.464 286.141 157.333 286.441 157.072C286.742 156.811 286.889 156.447 286.889 155.976C286.889 155.516 286.742 155.153 286.441 154.886C286.141 154.619 285.744 154.488 285.234 154.488C284.73 154.494 284.327 154.624 284.027 154.886ZM286.311 151.348C286.045 151.127 285.688 151.019 285.234 151.019C284.786 151.019 284.429 151.127 284.157 151.348C283.885 151.57 283.749 151.876 283.749 152.268C283.749 152.66 283.885 152.978 284.157 153.216C284.429 153.455 284.786 153.574 285.234 153.574C285.688 153.574 286.045 153.455 286.311 153.216C286.578 152.978 286.708 152.66 286.708 152.268C286.708 151.876 286.572 151.57 286.311 151.348Z" fill="black"/>
<path d="M218.115 219.366C219.054 219.366 219.815 218.603 219.815 217.662C219.815 216.722 219.054 215.959 218.115 215.959C217.176 215.959 216.414 216.722 216.414 217.662C216.414 218.603 217.176 219.366 218.115 219.366Z" fill="black"/>
<path d="M112.107 17.7945C113.047 17.7945 113.808 17.0319 113.808 16.0911C113.808 15.1503 113.047 14.3877 112.107 14.3877C111.168 14.3877 110.407 15.1503 110.407 16.0911C110.407 17.0319 111.168 17.7945 112.107 17.7945Z" fill="black"/>
<path d="M42.9472 214.823C43.8865 214.823 44.6479 214.06 44.6479 213.119C44.6479 212.179 43.8865 211.416 42.9472 211.416C42.008 211.416 41.2466 212.179 41.2466 213.119C41.2466 214.06 42.008 214.823 42.9472 214.823Z" fill="black"/>
<path d="M66.7564 211.984C67.6957 211.984 68.4571 211.221 68.4571 210.281C68.4571 209.34 67.6957 208.577 66.7564 208.577C65.8172 208.577 65.0558 209.34 65.0558 210.281C65.0558 211.221 65.8172 211.984 66.7564 211.984Z" fill="black"/>
<path d="M42.9472 194.95C43.8865 194.95 44.6479 194.187 44.6479 193.246C44.6479 192.306 43.8865 191.543 42.9472 191.543C42.008 191.543 41.2466 192.306 41.2466 193.246C41.2466 194.187 42.008 194.95 42.9472 194.95Z" fill="black"/>
<path d="M260.631 67.1939C261.57 67.1939 262.332 66.4313 262.332 65.4905C262.332 64.5498 261.57 63.7871 260.631 63.7871C259.692 63.7871 258.931 64.5498 258.931 65.4905C258.931 66.4313 259.692 67.1939 260.631 67.1939Z" fill="black"/>
<path d="M19.138 96.7203C20.0773 96.7203 20.8387 95.9577 20.8387 95.0169C20.8387 94.0761 20.0773 93.3135 19.138 93.3135C18.1988 93.3135 17.4374 94.0761 17.4374 95.0169C17.4374 95.9577 18.1988 96.7203 19.138 96.7203Z" fill="black"/>
<path d="M285.007 142.712C285.947 142.712 286.708 141.949 286.708 141.008C286.708 140.067 285.947 139.305 285.007 139.305C284.068 139.305 283.307 140.067 283.307 141.008C283.307 141.949 284.068 142.712 285.007 142.712Z" fill="black"/>
<path d="M260.631 51.2955C261.57 51.2955 262.332 50.5329 262.332 49.5921C262.332 48.6513 261.57 47.8887 260.631 47.8887C259.692 47.8887 258.931 48.6513 258.931 49.5921C258.931 50.5329 259.692 51.2955 260.631 51.2955Z" fill="black"/>
</g>
<defs>
<clipPath id="clip0_721_14774">
<rect width="323" height="248" fill="white"/>
</clipPath>
</defs>
</svg>
