<svg width="560" height="476" viewBox="0 0 560 476" fill="none" xmlns="http://www.w3.org/2000/svg">
<g clip-path="url(#clip0_723_6036)">
<path d="M305.333 388.966L305.324 387.202C321.229 387.105 334.128 386.769 344.773 386.178C348.738 385.958 355.47 384.776 362.598 383.523C372.485 381.794 383.684 379.826 390.777 379.826C397.756 379.826 402.928 380.338 407.492 380.788C410.858 381.123 413.757 381.405 416.665 381.405C420.233 381.405 423.934 381.961 427.503 382.508C430.957 383.029 434.226 383.523 437.266 383.523C438.799 383.523 440.456 383.488 442.165 383.461C447.443 383.364 453.426 383.249 457.515 384.07C458.951 384.361 462.942 384.511 469.375 384.52V386.284C462.74 386.275 458.739 386.117 457.171 385.799C453.267 385.014 447.381 385.129 442.2 385.226C440.482 385.261 438.817 385.287 437.275 385.287C434.103 385.287 430.772 384.784 427.247 384.255C423.74 383.726 420.101 383.179 416.665 383.179C413.678 383.179 410.726 382.888 407.316 382.552C402.796 382.102 397.667 381.6 390.777 381.6C383.834 381.6 372.714 383.549 362.898 385.27C355.716 386.531 348.932 387.722 344.861 387.943C334.199 388.534 321.273 388.869 305.333 388.966Z" fill="black"/>
<path d="M536.606 387.943C531.513 387.943 524.904 387.352 518.507 386.778C513 386.284 507.81 385.825 504.382 385.825C502.479 385.825 498.831 385.896 494.205 385.984C491.967 386.028 489.526 386.072 486.998 386.116L486.971 384.352C489.5 384.308 491.941 384.264 494.179 384.22C498.805 384.131 502.462 384.061 504.382 384.061C507.889 384.061 513.123 384.528 518.666 385.022C525.019 385.587 531.592 386.178 536.606 386.178C544.095 386.178 548.951 384.828 550.519 384.317V380.029C549.356 378.891 545.144 374.382 544.192 368.145C543.064 360.822 538.729 346.962 533.821 341.069C530.552 337.134 530.684 331.196 530.825 324.906C530.922 320.556 531.028 316.057 529.953 312.175C528.772 307.923 525.662 304.376 522.657 300.953C519.053 296.85 515.661 292.977 515.661 288.134H517.423C517.423 292.307 520.613 295.942 523.988 299.788C527.125 303.361 530.367 307.058 531.663 311.707C532.808 315.836 532.702 320.468 532.605 324.95C532.473 330.896 532.341 336.516 535.196 339.939C540.8 346.671 544.968 361.458 545.955 367.88C546.95 374.374 551.964 378.953 552.017 378.997L552.308 379.261V385.543L551.753 385.763C551.506 385.852 546.175 387.943 536.606 387.943Z" fill="black"/>
<path d="M494.426 251.873C487.747 247.938 486.601 242.777 485.579 238.225C485.165 236.354 484.768 234.581 484.028 232.958C479.182 222.283 467.648 199.82 462.934 198.532C461.621 198.171 460.325 196.786 458.977 194.298L460.528 193.459C461.964 196.106 462.942 196.706 463.401 196.83C464.405 197.103 467.48 197.941 475.957 213.116C480.177 220.677 484.134 228.917 485.632 232.226C486.442 234.016 486.874 235.957 487.297 237.837C488.284 242.248 489.297 246.8 495.316 250.347L494.426 251.873Z" fill="black"/>
<path d="M451.117 170.989L450.853 169.992C450.131 167.275 449.443 164.716 449.214 164.301C448.474 163.19 439.566 146.833 439.566 143.727C439.566 141.063 439.019 136.396 435.38 135.028C430.604 133.237 426.366 120.683 425.3 105.173C424.313 90.8982 412.409 85.6489 407.325 83.4079L406.796 83.1786C400.928 80.5671 396.971 68.8685 396.813 68.3656C396.46 67.3069 396.469 65.5689 396.469 63.3721C396.487 58.502 396.504 51.8411 392.495 49.8384C388.248 47.7121 387.261 44.0596 386.389 40.8394C385.878 38.9426 385.393 37.1516 384.292 35.8723C382.997 34.3637 381.719 33.4109 380.362 32.4139C378.52 31.0553 376.617 29.6437 374.714 26.794C371.542 22.0299 367.506 17.0981 361.638 16.604C357.602 16.2688 354.077 13.2427 350.667 10.3136C348.359 8.32852 346.174 6.44933 343.909 5.42592C338.472 2.95562 332.075 2.37334 326.427 1.86163L325.696 1.79988C323.167 1.57049 319.167 4.09373 315.298 6.54638C310.752 9.41369 306.055 12.3869 302.002 12.3869C296.504 12.3869 293.155 14.7689 291.754 19.6831C290.574 23.8208 288.767 23.5385 283.419 22.6827L281.789 22.4269C278 21.8446 275.48 23.6973 273.462 25.1971C271.982 26.2911 270.695 27.2351 269.382 26.5823C268.387 26.1323 262.139 27.3939 258.007 28.2321C253.901 29.0614 250.024 29.8466 248.111 29.8466C246.807 29.8466 244.825 32.5374 243.08 34.9195C240.111 38.9514 236.419 43.9626 232.313 41.3511C228.497 38.9249 225.801 33.6403 224.215 29.6348C223.915 28.8849 223.316 28.3115 222.558 28.0468C221.809 27.7821 220.999 27.8527 220.312 28.2409C214.91 31.3023 211.403 36.7987 208.839 40.8129C208.407 41.4835 208.011 42.1187 207.632 42.6833C206.98 43.6626 206.134 45.1713 205.147 46.9269C201.27 53.8173 195.402 64.2367 189.472 64.2367C184.396 64.2367 179.973 76.747 178.704 81.564L178.669 81.6699C178.607 81.8287 172.369 97.4798 171.858 102.588C171.717 103.964 171.849 105.561 171.99 107.255C172.369 111.931 172.8 117.225 167.725 120.189C165.346 121.574 165.24 123.083 165.073 125.359C164.844 128.482 164.562 132.355 158.306 137.058C155.883 138.875 153.556 141.186 151.204 144.107L149.829 142.995C152.279 139.96 154.702 137.552 157.248 135.646C162.861 131.429 163.108 128.138 163.319 125.227C163.496 122.8 163.663 120.515 166.844 118.663C170.959 116.263 170.589 111.755 170.236 107.396C170.095 105.623 169.954 103.947 170.113 102.412C170.642 97.1534 176.563 82.2169 177.021 81.0612C177.594 78.9173 182.211 62.4722 189.48 62.4722C194.388 62.4722 200.169 52.2028 203.623 46.0623C204.627 44.2802 205.491 42.7362 206.178 41.704C206.548 41.1394 206.945 40.5218 207.368 39.8601C210.029 35.6871 213.677 29.9789 219.457 26.697C220.585 26.0617 221.933 25.9382 223.158 26.3705C224.391 26.8028 225.378 27.7557 225.863 28.9732C227.087 32.0522 229.678 37.5663 233.273 39.8601C235.793 41.4658 238.348 38.3956 241.67 33.8696C243.953 30.7641 245.926 28.0821 248.12 28.0821C249.856 28.0821 253.821 27.2792 257.663 26.5029C265.17 24.9854 268.854 24.3413 270.175 25.003C270.528 25.1795 271.532 24.4384 272.422 23.7767C274.466 22.2681 277.55 19.9919 282.071 20.6888L283.71 20.9447C289.217 21.8181 289.331 21.7828 290.071 19.1978C291.693 13.5073 295.711 10.6224 302.011 10.6224C305.553 10.6224 310.029 7.79035 314.364 5.05538C318.673 2.33805 322.735 -0.238119 325.863 0.0442011L326.586 0.105959C332.375 0.626486 338.931 1.21759 344.632 3.82023C347.116 4.94951 349.504 6.99633 351.804 8.98139C355.003 11.7252 358.307 14.566 361.77 14.8572C368.387 15.413 372.758 20.7153 376.168 25.8235C377.895 28.4173 379.595 29.6701 381.393 31.0023C382.767 32.0169 384.195 33.0668 385.613 34.7342C386.97 36.3135 387.526 38.3868 388.072 40.3895C388.927 43.5303 389.728 46.5034 393.262 48.2679C398.249 50.7647 398.223 58.0609 398.205 63.3897C398.196 65.2689 398.196 67.0334 398.452 67.8186C399.765 71.7711 403.351 79.7378 407.483 81.5729L408.003 81.8023C413.378 84.1755 425.97 89.7248 427.018 105.067C428.111 120.904 432.508 132.099 435.962 133.396C440.597 135.134 441.293 140.631 441.293 143.745C441.293 145.906 449.294 161.311 450.65 163.357C450.976 163.843 451.373 165.272 452.51 169.551L452.774 170.548L451.117 170.989Z" fill="black"/>
<path d="M168.201 393.236L168.016 393.157C163.681 391.278 151.618 386.575 147.952 387.387C143.45 388.393 119.174 388.463 111.834 388.463C110.812 388.463 106.53 388.384 101.111 388.287C92.7048 388.137 81.1971 387.934 76.9676 387.934C75.0643 387.934 72.6412 387.696 70.0683 387.44C63.2306 386.769 54.7188 385.931 49.9606 388.86C47.934 390.104 46.1629 390.325 44.6826 389.496C41.255 387.581 41.2197 380.77 41.2197 380.7C41.2197 379.12 48.1455 369.169 50.9916 366.319L52.234 367.563C49.1852 370.615 43.3433 379.464 42.982 380.752C42.9908 382.067 43.449 386.778 45.5461 387.952C46.4185 388.446 47.5992 388.243 49.0354 387.352C54.2959 384.105 63.1337 384.978 70.2445 385.675C72.7734 385.922 75.1613 386.161 76.9764 386.161C81.2235 386.161 92.273 386.355 101.155 386.514C106.565 386.611 110.847 386.69 111.852 386.69C117.042 386.69 143.15 386.637 147.582 385.649C152.323 384.59 166.192 390.422 168.536 391.436C170.386 391.348 184.396 390.687 197.19 390.245L197.252 392.01C183.612 392.478 168.571 393.201 168.421 393.21L168.201 393.236Z" fill="black"/>
<path d="M549.62 135.187H546.977V133.864H549.62V135.187ZM544.333 135.187H541.69V133.864H544.333V135.187ZM539.046 135.187H536.403V133.864H539.046V135.187ZM533.76 135.187H531.116V133.864H533.76V135.187ZM528.473 135.187H525.829V133.864H528.473V135.187ZM523.186 135.187H520.542V133.864H523.186V135.187ZM517.899 135.187H515.256V133.864H517.899V135.187ZM512.612 135.187H509.969V133.864H512.612V135.187ZM507.325 135.187H504.682V133.864H507.325V135.187ZM502.039 135.187H499.395V133.864H502.039V135.187ZM496.752 135.187H494.108V133.864H496.752V135.187ZM491.465 135.187H488.821V133.864H491.465V135.187ZM486.178 135.187H483.535V133.864H486.178V135.187ZM480.891 135.187H478.248V133.864H480.891V135.187ZM475.604 135.187H472.961V133.864H475.604V135.187ZM470.317 135.187H467.674V133.864H470.317V135.187ZM465.031 135.187H462.387V133.864H465.031V135.187ZM459.744 135.187H457.1V133.864H459.744V135.187ZM454.457 135.187H451.814V133.864H454.457V135.187ZM449.17 135.187H446.527V133.864H449.17V135.187ZM443.883 135.187H441.24V133.864H443.883V135.187ZM438.596 135.187H435.953V133.864H438.596V135.187ZM433.31 135.187H430.666V133.864H433.31V135.187ZM428.023 135.187H425.379V133.864H428.023V135.187ZM422.736 135.187H420.092V133.864H422.736V135.187ZM417.449 135.187H414.806V133.864H417.449V135.187ZM412.162 135.187H409.519V133.864H412.162V135.187ZM406.875 135.187H404.232V133.864H406.875V135.187ZM401.589 135.187H398.945V133.864H401.589V135.187ZM396.302 135.187H393.658V133.864H396.302V135.187ZM391.015 135.187H388.371V133.864H391.015V135.187ZM385.728 135.187H383.085V133.864H385.728V135.187ZM380.441 135.187H377.798V133.864H380.441V135.187ZM375.154 135.187H372.511V133.864H375.154V135.187ZM369.867 135.187H367.224V133.864H369.867V135.187ZM364.581 135.187H361.937V133.864H364.581V135.187ZM359.294 135.187H356.65V133.864H359.294V135.187ZM354.007 135.187H351.364V133.864H354.007V135.187ZM348.72 135.187H346.077V133.864H348.72V135.187ZM343.433 135.187H340.79V133.864H343.433V135.187ZM338.146 135.187H335.503V133.864H338.146V135.187ZM332.86 135.187H330.216V133.864H332.86V135.187ZM327.573 135.187H324.929V133.864H327.573V135.187ZM322.286 135.187H319.642V133.864H322.286V135.187ZM316.999 135.187H314.356V133.864H316.999V135.187ZM311.712 135.187H309.069V133.864H311.712V135.187ZM306.425 135.187H303.782V133.864H306.425V135.187ZM301.139 135.187H298.495V133.864H301.139V135.187ZM295.852 135.187H293.208V133.864H295.852V135.187ZM290.565 135.187H287.921V133.864H290.565V135.187ZM285.278 135.187H282.635V133.864H285.278V135.187ZM279.991 135.187H277.348V133.864H279.991V135.187ZM274.704 135.187H272.061V133.864H274.704V135.187ZM269.417 135.187H266.774V133.864H269.417V135.187ZM264.131 135.187H261.487V133.864H264.131V135.187ZM258.844 135.187H256.2V133.864H258.844V135.187ZM253.557 135.187H250.914V133.864H253.557V135.187ZM248.27 135.187H245.627V133.864H248.27V135.187ZM242.983 135.187H240.34V133.864H242.983V135.187ZM237.696 135.187H235.053V133.864H237.696V135.187ZM232.41 135.187H229.766V133.864H232.41V135.187ZM227.123 135.187H224.479V133.864H227.123V135.187ZM221.836 135.187H219.192V133.864H221.836V135.187ZM216.549 135.187H213.906V133.864H216.549V135.187ZM211.262 135.187H208.619V133.864H211.262V135.187ZM205.975 135.187H203.332V133.864H205.975V135.187ZM200.689 135.187H198.045V133.864H200.689V135.187ZM195.402 135.187H192.758V133.864H195.402V135.187ZM190.115 135.187H187.471V133.864H190.115V135.187ZM184.828 135.187H182.185V133.864H184.828V135.187ZM179.541 135.187H176.898V133.864H179.541V135.187ZM174.254 135.187H171.611V133.864H174.254V135.187ZM168.967 135.187H166.324V133.864H168.967V135.187ZM163.681 135.187H161.037V133.864H163.681V135.187ZM158.394 135.187H155.75V133.864H158.394V135.187ZM153.107 135.187H150.463V133.864H153.107V135.187ZM147.82 135.187H145.177V133.864H147.82V135.187ZM142.533 135.187H139.89V133.864H142.533V135.187ZM137.246 135.187H134.603V133.864H137.246V135.187ZM131.96 135.187H129.316V133.864H131.96V135.187ZM126.673 135.187H124.029V133.864H126.673V135.187ZM121.386 135.187H118.742V133.864H121.386V135.187ZM116.099 135.187H113.456V133.864H116.099V135.187ZM110.812 135.187H108.169V133.864H110.812V135.187ZM105.525 135.187H102.882V133.864H105.525V135.187ZM100.238 135.187H97.5951V133.864H100.238V135.187ZM94.9517 135.187H92.3082V133.864H94.9517V135.187ZM89.6648 135.187H87.0214V133.864H89.6648V135.187ZM84.378 135.187H81.7346V133.864H84.378V135.187ZM79.0911 135.187H76.4477V133.864H79.0911V135.187ZM73.8043 135.187H71.1609V133.864H73.8043V135.187ZM68.5174 135.187H65.874V133.864H68.5174V135.187Z" fill="black"/>
<path d="M65.6549 270.513L64.3921 270.903L68.0713 282.822L69.3341 282.431L65.6549 270.513Z" fill="black"/>
<path d="M68.6408 283.29C68.1914 283.246 23.6498 278.341 14.0189 245.874L15.2878 245.495C24.6719 277.114 68.3412 281.923 68.773 281.967L68.6408 283.29Z" fill="black"/>
<path d="M68.3304 282.091L58.7179 288.987L59.4877 290.063L69.1001 283.167L68.3304 282.091Z" fill="black"/>
<path d="M233.349 397.685L232.463 398.667L241.708 407.03L242.594 406.048L233.349 397.685Z" fill="black"/>
<path d="M243.071 463.26C218.725 433.537 232.145 398.3 232.286 397.947L233.52 398.432C233.388 398.777 220.259 433.317 244.102 462.422L243.071 463.26Z" fill="black"/>
<path d="M232.572 397.616L222.276 403.438L222.926 404.591L233.222 398.768L232.572 397.616Z" fill="black"/>
<path d="M506.8 239.362L504.188 251.561L505.481 251.838L508.092 239.64L506.8 239.362Z" fill="black"/>
<path d="M504.964 252.359L504.717 251.062C505.149 250.982 548.228 242.31 554.775 209.993L556.07 210.258C549.347 243.439 505.413 252.279 504.964 252.359Z" fill="black"/>
<path d="M505.162 251.164L504.491 252.304L514.676 258.318L515.347 257.178L505.162 251.164Z" fill="black"/>
<path d="M209.518 392.486C210.977 392.486 212.161 391.301 212.161 389.84C212.161 388.378 210.977 387.193 209.518 387.193C208.058 387.193 206.874 388.378 206.874 389.84C206.874 391.301 208.058 392.486 209.518 392.486Z" fill="black"/>
<path d="M77.3465 302.497C78.8065 302.497 79.99 301.312 79.99 299.85C79.99 298.388 78.8065 297.203 77.3465 297.203C75.8866 297.203 74.7031 298.388 74.7031 299.85C74.7031 301.312 75.8866 302.497 77.3465 302.497Z" fill="black"/>
<path d="M106.424 247.797C107.884 247.797 109.068 246.612 109.068 245.151C109.068 243.689 107.884 242.504 106.424 242.504C104.964 242.504 103.781 243.689 103.781 245.151C103.781 246.612 104.964 247.797 106.424 247.797Z" fill="black"/>
<path d="M129.334 191.334C130.794 191.334 131.977 190.149 131.977 188.687C131.977 187.225 130.794 186.04 129.334 186.04C127.874 186.04 126.69 187.225 126.69 188.687C126.69 190.149 127.874 191.334 129.334 191.334Z" fill="black"/>
<path d="M141.67 160.455C143.13 160.455 144.313 159.27 144.313 157.808C144.313 156.346 143.13 155.161 141.67 155.161C140.21 155.161 139.026 156.346 139.026 157.808C139.026 159.27 140.21 160.455 141.67 160.455Z" fill="black"/>
<path d="M53.5558 351.903C55.0157 351.903 56.1992 350.718 56.1992 349.256C56.1992 347.794 55.0157 346.609 53.5558 346.609C52.0959 346.609 50.9124 347.794 50.9124 349.256C50.9124 350.718 52.0959 351.903 53.5558 351.903Z" fill="black"/>
<path d="M101.137 257.502C102.597 257.502 103.781 256.317 103.781 254.855C103.781 253.393 102.597 252.208 101.137 252.208C99.6774 252.208 98.4939 253.393 98.4939 254.855C98.4939 256.317 99.6774 257.502 101.137 257.502Z" fill="black"/>
<path d="M117.879 212.507C119.339 212.507 120.522 211.322 120.522 209.861C120.522 208.399 119.339 207.214 117.879 207.214C116.419 207.214 115.236 208.399 115.236 209.861C115.236 211.322 116.419 212.507 117.879 212.507Z" fill="black"/>
<path d="M131.977 180.747C133.437 180.747 134.621 179.562 134.621 178.1C134.621 176.638 133.437 175.453 131.977 175.453C130.517 175.453 129.334 176.638 129.334 178.1C129.334 179.562 130.517 180.747 131.977 180.747Z" fill="black"/>
<path d="M126.69 201.92C128.15 201.92 129.334 200.735 129.334 199.274C129.334 197.812 128.15 196.627 126.69 196.627C125.23 196.627 124.047 197.812 124.047 199.274C124.047 200.735 125.23 201.92 126.69 201.92Z" fill="black"/>
<path d="M93.207 274.265C94.6669 274.265 95.8504 273.08 95.8504 271.618C95.8504 270.156 94.6669 268.971 93.207 268.971C91.7471 268.971 90.5636 270.156 90.5636 271.618C90.5636 273.08 91.7471 274.265 93.207 274.265Z" fill="black"/>
<path d="M82.6334 288.381C84.0933 288.381 85.2768 287.196 85.2768 285.734C85.2768 284.272 84.0933 283.087 82.6334 283.087C81.1735 283.087 79.99 284.272 79.99 285.734C79.99 287.196 81.1735 288.381 82.6334 288.381Z" fill="black"/>
<path d="M506.462 269.854C507.922 269.854 509.105 268.669 509.105 267.207C509.105 265.745 507.922 264.56 506.462 264.56C505.002 264.56 503.819 265.745 503.819 267.207C503.819 268.669 505.002 269.854 506.462 269.854Z" fill="black"/>
<path d="M509.105 281.323C510.565 281.323 511.749 280.138 511.749 278.676C511.749 277.214 510.565 276.029 509.105 276.029C507.645 276.029 506.462 277.214 506.462 278.676C506.462 280.138 507.645 281.323 509.105 281.323Z" fill="black"/>
<path d="M497.651 257.502C499.11 257.502 500.294 256.317 500.294 254.855C500.294 253.393 499.11 252.208 497.651 252.208C496.191 252.208 495.007 253.393 495.007 254.855C495.007 256.317 496.191 257.502 497.651 257.502Z" fill="black"/>
<path d="M292.345 390.722C293.805 390.722 294.988 389.537 294.988 388.075C294.988 386.613 293.805 385.428 292.345 385.428C290.885 385.428 289.701 386.613 289.701 388.075C289.701 389.537 290.885 390.722 292.345 390.722Z" fill="black"/>
<path d="M252.693 387.193C254.153 387.193 255.337 386.008 255.337 384.546C255.337 383.084 254.153 381.899 252.693 381.899C251.234 381.899 250.05 383.084 250.05 384.546C250.05 386.008 251.234 387.193 252.693 387.193Z" fill="black"/>
<path d="M235.952 392.486C237.412 392.486 238.595 391.301 238.595 389.84C238.595 388.378 237.412 387.193 235.952 387.193C234.492 387.193 233.308 388.378 233.308 389.84C233.308 391.301 234.492 392.486 235.952 392.486Z" fill="black"/>
<path d="M274.722 389.839C276.182 389.839 277.365 388.654 277.365 387.193C277.365 385.731 276.182 384.546 274.722 384.546C273.262 384.546 272.079 385.731 272.079 387.193C272.079 388.654 273.262 389.839 274.722 389.839Z" fill="black"/>
<path d="M108.186 389.839C109.646 389.839 110.83 388.654 110.83 387.193C110.83 385.731 109.646 384.546 108.186 384.546C106.726 384.546 105.543 385.731 105.543 387.193C105.543 388.654 106.726 389.839 108.186 389.839Z" fill="black"/>
<path d="M61.486 329.847C62.9459 329.847 64.1294 328.662 64.1294 327.2C64.1294 325.738 62.9459 324.553 61.486 324.553C60.026 324.553 58.8425 325.738 58.8425 327.2C58.8425 328.662 60.026 329.847 61.486 329.847Z" fill="black"/>
<path d="M452.712 178.1C454.172 178.1 455.356 176.915 455.356 175.453C455.356 173.991 454.172 172.806 452.712 172.806C451.252 172.806 450.069 173.991 450.069 175.453C450.069 176.915 451.252 178.1 452.712 178.1Z" fill="black"/>
<path d="M457.118 188.687C458.578 188.687 459.761 187.502 459.761 186.04C459.761 184.578 458.578 183.393 457.118 183.393C455.658 183.393 454.475 184.578 454.475 186.04C454.475 187.502 455.658 188.687 457.118 188.687Z" fill="black"/>
<path d="M476.503 387.193C477.963 387.193 479.147 386.008 479.147 384.546C479.147 383.084 477.963 381.899 476.503 381.899C475.043 381.899 473.86 383.084 473.86 384.546C473.86 386.008 475.043 387.193 476.503 387.193Z" fill="black"/>
<path d="M287.86 258.623C287.225 258.296 286.697 257.846 286.274 257.264C285.851 256.682 285.534 255.985 285.322 255.173C285.111 254.361 285.005 253.461 285.005 252.473C285.005 251.494 285.111 250.603 285.322 249.791C285.534 248.98 285.851 248.283 286.274 247.7C286.697 247.118 287.225 246.668 287.86 246.342C288.494 246.015 289.234 245.856 290.08 245.856C290.935 245.856 291.684 246.015 292.318 246.342C292.953 246.668 293.481 247.118 293.904 247.7C294.327 248.283 294.645 248.98 294.856 249.791C295.068 250.603 295.173 251.494 295.173 252.473C295.173 253.461 295.068 254.361 294.856 255.173C294.645 255.985 294.327 256.682 293.904 257.264C293.481 257.846 292.953 258.296 292.318 258.623C291.684 258.949 290.944 259.108 290.08 259.108C289.226 259.108 288.485 258.94 287.86 258.623ZM292.221 256.196C292.724 255.341 292.979 254.097 292.979 252.482C292.979 250.859 292.724 249.624 292.221 248.768C291.719 247.912 291.005 247.48 290.071 247.48C289.155 247.48 288.45 247.912 287.939 248.768C287.437 249.624 287.181 250.868 287.181 252.482C287.181 254.105 287.437 255.341 287.939 256.196C288.441 257.052 289.155 257.484 290.071 257.484C290.997 257.484 291.719 257.052 292.221 256.196Z" fill="black"/>
<path d="M252.279 462.987C252.799 463.137 253.249 463.357 253.619 463.648C253.998 463.94 254.288 464.301 254.509 464.734C254.72 465.166 254.835 465.651 254.835 466.207C254.835 466.877 254.676 467.539 254.368 468.201C254.059 468.862 253.619 469.515 253.055 470.168C252.491 470.821 251.803 471.474 251.002 472.136C250.2 472.797 249.31 473.459 248.332 474.147H255.134V476.009H245.68V474.253C246.763 473.406 247.733 472.621 248.587 471.906C249.442 471.192 250.165 470.512 250.764 469.868C251.363 469.233 251.821 468.624 252.13 468.06C252.447 467.495 252.605 466.939 252.605 466.401C252.605 465.766 252.42 465.28 252.041 464.928C251.663 464.584 251.151 464.407 250.508 464.407C250.2 464.407 249.9 464.451 249.601 464.548C249.301 464.645 249.054 464.804 248.834 465.025C248.614 465.245 248.438 465.536 248.297 465.889C248.156 466.242 248.094 466.666 248.094 467.169H245.962C245.953 466.507 246.05 465.916 246.27 465.378C246.481 464.839 246.799 464.381 247.204 463.992C247.609 463.613 248.103 463.313 248.675 463.093C249.248 462.881 249.891 462.766 250.614 462.766C251.204 462.766 251.759 462.846 252.279 462.987Z" fill="black"/>
<path d="M253.901 408.199C254.218 408.102 254.491 407.952 254.729 407.767C254.967 407.582 255.143 407.352 255.275 407.079C255.407 406.805 255.469 406.497 255.469 406.144C255.469 405.729 255.39 405.385 255.24 405.103C255.09 404.82 254.87 404.591 254.588 404.423C254.306 404.256 253.971 404.132 253.575 404.053C253.178 403.973 252.746 403.938 252.279 403.938H251.663V402.191H252.191C254.165 402.191 255.152 401.529 255.152 400.215C255.152 399.897 255.09 399.615 254.967 399.377C254.843 399.139 254.685 398.936 254.482 398.786C254.28 398.636 254.05 398.521 253.777 398.442C253.504 398.362 253.222 398.327 252.931 398.327C252.156 398.327 251.557 398.547 251.116 398.98C250.684 399.412 250.42 400.003 250.323 400.762H248.279C248.323 400.153 248.473 399.597 248.711 399.103C248.949 398.609 249.275 398.186 249.68 397.833C250.085 397.48 250.57 397.206 251.143 397.012C251.715 396.818 252.35 396.721 253.055 396.721C253.583 396.721 254.103 396.783 254.614 396.906C255.125 397.03 255.584 397.233 255.98 397.506C256.377 397.78 256.703 398.133 256.941 398.556C257.178 398.98 257.302 399.491 257.302 400.091C257.302 400.727 257.134 401.291 256.791 401.803C256.447 402.306 255.998 402.694 255.434 402.968C255.822 403.109 256.156 403.294 256.43 403.514C256.703 403.735 256.932 403.982 257.108 404.256C257.284 404.529 257.416 404.82 257.505 405.129C257.593 405.438 257.637 405.764 257.637 406.091C257.637 406.752 257.505 407.317 257.249 407.802C256.993 408.287 256.641 408.684 256.2 409.011C255.76 409.337 255.249 409.576 254.667 409.734C254.086 409.893 253.478 409.973 252.843 409.973C252.103 409.973 251.451 409.858 250.878 409.637C250.306 409.417 249.83 409.108 249.433 408.72C249.037 408.332 248.728 407.882 248.508 407.379C248.288 406.876 248.156 406.338 248.12 405.773H250.165C250.209 406.126 250.306 406.461 250.438 406.77C250.57 407.079 250.755 407.352 250.975 407.59C251.196 407.829 251.469 408.014 251.777 408.146C252.085 408.279 252.456 408.349 252.879 408.349C253.249 408.349 253.592 408.296 253.901 408.199Z" fill="black"/>
<path d="M277.401 409.513V412.619H275.233V409.513H268.704V407.705L275.251 399.385H277.401V407.634H279.736V409.513H277.401ZM275.233 407.634V402.217L271.074 407.634H275.233Z" fill="black"/>
<path d="M293.631 410.916C293.94 410.793 294.213 410.607 294.442 410.378C294.671 410.149 294.856 409.858 294.988 409.505C295.12 409.161 295.182 408.772 295.182 408.34C295.182 407.864 295.112 407.44 294.962 407.087C294.812 406.726 294.609 406.426 294.363 406.187C294.116 405.949 293.834 405.773 293.517 405.658C293.208 405.543 292.891 405.49 292.565 405.49C291.957 405.49 291.446 405.623 291.032 405.887C290.618 406.152 290.345 406.47 290.221 406.858L288.212 406.752L289.076 399.526H296.847V401.406H290.829L290.415 404.67C290.723 404.423 291.102 404.22 291.552 404.079C292.001 403.938 292.512 403.867 293.103 403.867C293.649 403.867 294.186 403.964 294.706 404.158C295.226 404.352 295.684 404.635 296.081 405.005C296.477 405.376 296.795 405.843 297.032 406.399C297.27 406.955 297.394 407.599 297.394 408.322C297.394 409.055 297.262 409.69 297.006 410.237C296.75 410.784 296.398 411.251 295.957 411.631C295.517 412.01 295.006 412.293 294.424 412.487C293.843 412.681 293.235 412.769 292.591 412.769C291.843 412.769 291.173 412.654 290.6 412.425C290.027 412.195 289.543 411.887 289.146 411.498C288.75 411.11 288.45 410.66 288.23 410.157C288.018 409.646 287.886 409.116 287.851 408.552H289.913C290.01 409.302 290.265 409.919 290.688 410.396C291.111 410.872 291.754 411.11 292.618 411.11C292.988 411.101 293.323 411.04 293.631 410.916Z" fill="black"/>
<path d="M554.317 194.236C553.973 194.448 553.691 194.748 553.453 195.127C553.215 195.506 553.039 195.965 552.907 196.503C552.775 197.041 552.704 197.632 552.695 198.294C552.977 197.879 553.374 197.535 553.885 197.253C554.396 196.971 555.022 196.83 555.762 196.83C556.352 196.83 556.898 196.935 557.418 197.138C557.938 197.341 558.388 197.632 558.766 198.012C559.145 198.391 559.454 198.841 559.674 199.379C559.894 199.917 560.009 200.517 560.009 201.188C560.009 201.823 559.894 202.405 559.665 202.944C559.436 203.482 559.119 203.941 558.714 204.329C558.308 204.717 557.815 205.017 557.242 205.237C556.669 205.458 556.044 205.564 555.356 205.564C554.519 205.564 553.806 205.414 553.206 205.114C552.607 204.814 552.114 204.39 551.717 203.844C551.321 203.297 551.03 202.644 550.845 201.876C550.66 201.109 550.563 200.262 550.563 199.318C550.563 198.4 550.651 197.518 550.827 196.671C551.004 195.824 551.294 195.083 551.7 194.43C552.105 193.786 552.625 193.265 553.268 192.886C553.911 192.507 554.696 192.312 555.638 192.312C556.308 192.312 556.89 192.41 557.392 192.612C557.894 192.815 558.308 193.071 558.643 193.398C558.978 193.724 559.233 194.086 559.418 194.5C559.603 194.915 559.718 195.33 559.762 195.753H557.63C557.559 195.127 557.33 194.668 556.934 194.368C556.537 194.068 556.052 193.918 555.48 193.918C555.048 193.918 554.66 194.024 554.317 194.236ZM553.55 203.199C554.017 203.685 554.607 203.923 555.339 203.923C555.7 203.923 556.035 203.861 556.343 203.738C556.652 203.614 556.916 203.438 557.136 203.199C557.357 202.961 557.533 202.679 557.656 202.344C557.78 202.008 557.841 201.629 557.841 201.206C557.841 200.359 557.612 199.697 557.145 199.203C556.678 198.718 556.088 198.471 555.356 198.471C554.625 198.471 554.035 198.718 553.559 199.203C553.092 199.688 552.854 200.359 552.854 201.206C552.854 202.053 553.092 202.723 553.55 203.199Z" fill="black"/>
<path d="M532.905 260.872V262.787C532.068 263.589 531.319 264.401 530.676 265.222C530.024 266.042 529.468 266.907 529.019 267.824C528.561 268.733 528.208 269.703 527.944 270.736C527.68 271.768 527.512 272.888 527.442 274.106H524.983C525.045 272.941 525.23 271.821 525.53 270.762C525.829 269.703 526.235 268.698 526.737 267.754C527.239 266.801 527.812 265.919 528.482 265.089C529.142 264.26 529.856 263.492 530.623 262.787H523.424V260.872H532.905Z" fill="black"/>
<path d="M541.214 272.589C541.752 272.756 542.21 272.977 542.589 273.268C542.968 273.559 543.267 273.903 543.47 274.309C543.673 274.715 543.778 275.156 543.778 275.624C543.778 276.18 543.655 276.709 543.399 277.238C543.144 277.759 542.73 278.191 542.139 278.535C542.888 278.923 543.417 279.4 543.717 279.973C544.016 280.547 544.166 281.129 544.166 281.729C544.166 282.364 544.043 282.92 543.796 283.396C543.549 283.873 543.214 284.279 542.791 284.605C542.368 284.931 541.866 285.179 541.285 285.346C540.703 285.514 540.077 285.593 539.408 285.593C538.738 285.593 538.113 285.514 537.531 285.346C536.949 285.179 536.447 284.931 536.024 284.605C535.601 284.279 535.266 283.873 535.02 283.396C534.773 282.92 534.65 282.364 534.65 281.729C534.65 281.438 534.685 281.138 534.755 280.838C534.826 280.538 534.94 280.247 535.099 279.973C535.258 279.7 535.469 279.435 535.725 279.188C535.98 278.941 536.297 278.72 536.676 278.535C536.112 278.218 535.698 277.794 535.434 277.256C535.169 276.718 535.037 276.18 535.037 275.624C535.037 275.156 535.143 274.715 535.346 274.309C535.548 273.903 535.839 273.559 536.218 273.268C536.597 272.977 537.055 272.756 537.593 272.589C538.13 272.421 538.738 272.342 539.408 272.342C540.086 272.342 540.685 272.421 541.214 272.589ZM537.54 279.947C537.073 280.361 536.844 280.926 536.844 281.641C536.844 282.373 537.073 282.938 537.54 283.343C538.007 283.749 538.632 283.952 539.417 283.952C540.201 283.952 540.826 283.749 541.293 283.343C541.76 282.938 541.99 282.373 541.99 281.641C541.99 280.926 541.76 280.361 541.293 279.947C540.826 279.532 540.21 279.329 539.417 279.329C538.624 279.338 538.007 279.541 537.54 279.947ZM541.082 274.45C540.668 274.106 540.113 273.939 539.408 273.939C538.712 273.939 538.157 274.106 537.734 274.45C537.311 274.794 537.099 275.271 537.099 275.88C537.099 276.488 537.311 276.982 537.734 277.353C538.157 277.724 538.712 277.909 539.408 277.909C540.113 277.909 540.668 277.724 541.082 277.353C541.496 276.982 541.699 276.488 541.699 275.88C541.699 275.271 541.496 274.794 541.082 274.45Z" fill="black"/>
<path d="M130.347 153.767C130.691 153.556 130.973 153.265 131.211 152.885C131.449 152.506 131.625 152.056 131.757 151.518C131.889 150.98 131.96 150.388 131.968 149.727C131.686 150.141 131.29 150.485 130.779 150.768C130.268 151.05 129.642 151.191 128.902 151.191C128.312 151.191 127.765 151.085 127.245 150.883C126.726 150.68 126.285 150.388 125.897 150.009C125.518 149.63 125.21 149.171 124.99 148.633C124.769 148.095 124.655 147.486 124.655 146.815C124.655 146.18 124.769 145.598 124.999 145.06C125.228 144.521 125.545 144.063 125.95 143.683C126.356 143.304 126.84 143.004 127.413 142.783C127.986 142.563 128.611 142.457 129.307 142.457C130.127 142.457 130.841 142.607 131.448 142.907C132.056 143.207 132.55 143.63 132.946 144.177C133.343 144.724 133.634 145.377 133.819 146.154C134.004 146.921 134.101 147.768 134.101 148.703C134.101 149.621 134.013 150.503 133.828 151.35C133.643 152.197 133.352 152.938 132.955 153.591C132.559 154.235 132.03 154.747 131.378 155.135C130.726 155.514 129.942 155.708 129.008 155.708C128.338 155.708 127.757 155.611 127.263 155.408C126.77 155.206 126.356 154.95 126.021 154.623C125.686 154.297 125.43 153.935 125.245 153.52C125.06 153.106 124.946 152.691 124.902 152.268H127.034C127.104 152.894 127.334 153.353 127.73 153.644C128.127 153.935 128.611 154.085 129.184 154.085C129.625 154.085 130.012 153.979 130.347 153.767ZM131.105 144.804C130.638 144.319 130.039 144.08 129.325 144.08C128.585 144.08 127.986 144.319 127.519 144.804C127.052 145.289 126.823 145.951 126.823 146.815C126.823 147.662 127.052 148.324 127.519 148.818C127.986 149.303 128.576 149.55 129.307 149.55C129.66 149.55 129.986 149.489 130.294 149.356C130.603 149.224 130.867 149.047 131.087 148.809C131.308 148.571 131.484 148.289 131.616 147.953C131.748 147.618 131.81 147.239 131.81 146.815C131.81 145.951 131.581 145.28 131.105 144.804Z" fill="black"/>
<path d="M115.191 164.936H112.337V163.489C112.795 163.481 113.2 163.454 113.553 163.41C113.905 163.366 114.213 163.295 114.487 163.19C114.76 163.084 114.989 162.925 115.191 162.722C115.394 162.519 115.57 162.237 115.738 161.884H117.289V174.659H115.191V164.936Z" fill="black"/>
<path d="M122.161 174.403C121.527 174.076 120.998 173.626 120.575 173.044C120.152 172.462 119.835 171.765 119.624 170.953C119.412 170.142 119.306 169.242 119.306 168.254C119.306 167.274 119.412 166.383 119.624 165.572C119.835 164.76 120.152 164.063 120.575 163.481C120.998 162.898 121.527 162.448 122.161 162.122C122.796 161.796 123.536 161.637 124.382 161.637C125.236 161.637 125.985 161.796 126.62 162.122C127.254 162.448 127.783 162.898 128.206 163.481C128.629 164.063 128.946 164.76 129.158 165.572C129.369 166.383 129.475 167.274 129.475 168.254C129.475 169.242 129.369 170.142 129.158 170.953C128.946 171.765 128.629 172.462 128.206 173.044C127.783 173.626 127.254 174.076 126.62 174.403C125.985 174.729 125.245 174.888 124.382 174.888C123.536 174.888 122.796 174.729 122.161 174.403ZM126.523 171.986C127.025 171.13 127.281 169.886 127.281 168.271C127.281 166.648 127.025 165.413 126.523 164.557C126.021 163.701 125.298 163.269 124.373 163.269C123.457 163.269 122.752 163.701 122.241 164.557C121.738 165.413 121.483 166.657 121.483 168.271C121.483 169.895 121.738 171.13 122.241 171.986C122.743 172.841 123.457 173.274 124.373 173.274C125.307 173.274 126.021 172.841 126.523 171.986Z" fill="black"/>
<path d="M108.874 181.576H105.922V180.076C106.398 180.067 106.812 180.041 107.182 179.997C107.543 179.953 107.869 179.882 108.151 179.767C108.433 179.661 108.671 179.494 108.883 179.282C109.085 179.07 109.279 178.779 109.446 178.417H111.05V191.651H108.883V181.576H108.874Z" fill="black"/>
<path d="M115.799 181.576H112.848V180.076C113.323 180.067 113.738 180.041 114.108 179.997C114.469 179.953 114.795 179.882 115.077 179.767C115.359 179.661 115.597 179.494 115.808 179.282C116.011 179.07 116.205 178.779 116.372 178.417H117.976V191.651H115.808V181.576H115.799Z" fill="black"/>
<path d="M99.2605 196.636H96.3616V195.162C96.8286 195.154 97.2427 195.127 97.5952 195.083C97.9476 195.039 98.2736 194.968 98.5468 194.862C98.82 194.757 99.0579 194.598 99.2605 194.386C99.4632 194.174 99.6482 193.892 99.8156 193.53H101.393V206.535H99.2605V196.636Z" fill="black"/>
<path d="M109.755 193.521C110.275 193.671 110.724 193.892 111.094 194.183C111.473 194.474 111.764 194.836 111.984 195.268C112.196 195.7 112.31 196.186 112.31 196.742C112.31 197.412 112.152 198.074 111.843 198.735C111.535 199.397 111.094 200.05 110.53 200.703C109.966 201.356 109.279 202.009 108.477 202.67C107.675 203.332 106.785 203.994 105.807 204.682H112.61V206.543H103.155V204.788C104.239 203.941 105.208 203.156 106.063 202.441C106.918 201.726 107.64 201.047 108.239 200.403C108.839 199.768 109.297 199.159 109.605 198.594C109.922 198.03 110.081 197.474 110.081 196.936C110.081 196.3 109.896 195.815 109.517 195.462C109.138 195.118 108.627 194.942 107.984 194.942C107.675 194.942 107.376 194.986 107.076 195.083C106.785 195.18 106.53 195.339 106.31 195.559C106.089 195.78 105.913 196.071 105.772 196.424C105.631 196.777 105.569 197.2 105.569 197.703H103.437C103.428 197.042 103.525 196.45 103.746 195.912C103.966 195.374 104.274 194.915 104.68 194.527C105.085 194.148 105.578 193.848 106.151 193.627C106.724 193.415 107.367 193.301 108.09 193.301C108.671 193.301 109.235 193.371 109.755 193.521Z" fill="black"/>
<path d="M91.1892 213.46H88.3344V212.013C88.7925 212.005 89.1979 211.978 89.5503 211.934C89.9028 211.89 90.2112 211.819 90.4843 211.713C90.7575 211.608 90.9866 211.449 91.1892 211.246C91.3919 211.043 91.5681 210.761 91.7356 210.408H93.2864V223.183H91.1892V213.46Z" fill="black"/>
<path d="M100.767 221.647C101.084 221.55 101.358 221.4 101.595 221.215C101.833 221.03 102.01 220.801 102.142 220.527C102.274 220.254 102.336 219.945 102.336 219.592C102.336 219.177 102.256 218.833 102.107 218.551C101.957 218.268 101.736 218.039 101.455 217.871C101.173 217.704 100.838 217.58 100.441 217.501C100.045 217.422 99.6129 217.386 99.1459 217.386H98.5291V215.639H99.0578C101.032 215.639 102.018 214.978 102.018 213.663C102.018 213.346 101.957 213.063 101.833 212.825C101.71 212.587 101.551 212.384 101.349 212.234C101.146 212.084 100.917 211.969 100.644 211.89C100.371 211.81 100.089 211.775 99.798 211.775C99.0226 211.775 98.4234 211.996 97.9828 212.428C97.5511 212.86 97.2867 213.46 97.1898 214.21H95.1455C95.1896 213.601 95.3394 213.046 95.5773 212.552C95.8152 212.057 96.1412 211.634 96.5466 211.281C96.9519 210.928 97.4365 210.655 98.0093 210.461C98.582 210.266 99.2164 210.169 99.9213 210.169C100.45 210.169 100.97 210.231 101.481 210.355C101.992 210.478 102.45 210.681 102.847 210.955C103.243 211.228 103.569 211.581 103.807 212.005C104.045 212.428 104.168 212.94 104.168 213.54C104.168 214.175 104.001 214.739 103.657 215.251C103.314 215.754 102.864 216.142 102.3 216.416C102.688 216.557 103.023 216.742 103.296 216.963C103.569 217.183 103.798 217.43 103.975 217.704C104.151 217.977 104.283 218.268 104.371 218.577C104.459 218.886 104.503 219.212 104.503 219.539C104.503 220.201 104.371 220.765 104.116 221.25C103.86 221.736 103.508 222.133 103.067 222.459C102.626 222.786 102.115 223.024 101.534 223.183C100.952 223.341 100.344 223.421 99.7099 223.421C98.9697 223.421 98.3176 223.306 97.7449 223.086C97.1722 222.865 96.6963 222.556 96.2998 222.168C95.9033 221.78 95.5949 221.33 95.3746 220.827C95.1544 220.324 95.0222 219.786 94.9869 219.221H97.0312C97.0752 219.574 97.1722 219.909 97.3043 220.218C97.4365 220.527 97.6215 220.801 97.8418 221.039C98.0621 221.277 98.3353 221.462 98.6437 221.595C98.9521 221.727 99.3221 221.797 99.7451 221.797C100.106 221.797 100.45 221.745 100.767 221.647Z" fill="black"/>
<path d="M89.9556 231.864H87.0038V230.364C87.4796 230.355 87.8937 230.329 88.2638 230.285C88.6251 230.241 88.9511 230.17 89.2331 230.055C89.515 229.95 89.7529 229.782 89.9644 229.57C90.1671 229.358 90.3609 229.067 90.5283 228.706H92.132V241.939H89.9644V231.864H89.9556Z" fill="black"/>
<path d="M102.327 238.843V241.948H100.159V238.843H93.63V237.034L100.177 228.714H102.327V236.963H104.662V238.843H102.327ZM100.159 236.955V231.538L96.0003 236.955H100.159Z" fill="black"/>
<path d="M80.4922 246.933H77.5933V245.459C78.0603 245.45 78.4744 245.424 78.8269 245.38C79.1881 245.336 79.5053 245.265 79.7785 245.159C80.0516 245.053 80.2896 244.895 80.4922 244.683C80.6949 244.471 80.8799 244.189 81.0473 243.827H82.6246V256.831H80.4922V246.933Z" fill="black"/>
<path d="M90.3081 255.226C90.6165 255.102 90.8897 254.917 91.1276 254.688C91.3567 254.458 91.5417 254.167 91.6739 253.814C91.8061 253.47 91.8677 253.082 91.8677 252.65C91.8677 252.173 91.7884 251.75 91.6474 251.397C91.4977 251.035 91.295 250.735 91.0483 250.497C90.8016 250.259 90.5196 250.082 90.2024 249.968C89.894 249.853 89.5768 249.8 89.2507 249.8C88.6428 249.8 88.1317 249.932 87.7176 250.197C87.3034 250.462 87.0303 250.779 86.8981 251.167L84.8891 251.062L85.7526 243.836H93.5243V245.715H87.5061L87.0919 248.979C87.4003 248.732 87.7792 248.53 88.2286 248.388C88.678 248.247 89.1891 248.177 89.7794 248.177C90.3257 248.177 90.8632 248.274 91.3831 248.468C91.903 248.662 92.3612 248.944 92.7577 249.315C93.1542 249.685 93.4714 250.153 93.7093 250.709C93.9472 251.264 94.0706 251.909 94.0706 252.632C94.0706 253.364 93.9384 253.999 93.6829 254.546C93.4274 255.093 93.0749 255.561 92.6343 255.94C92.1938 256.32 91.6827 256.602 91.1011 256.796C90.5196 256.99 89.9116 257.087 89.2684 257.087C88.5194 257.087 87.8497 256.973 87.277 256.743C86.7043 256.514 86.2196 256.205 85.8231 255.817C85.4266 255.429 85.127 254.979 84.9067 254.476C84.6952 253.964 84.5631 253.435 84.5278 252.87H86.5897C86.6866 253.62 86.9422 254.238 87.3651 254.714C87.7881 255.19 88.4313 255.429 89.286 255.429C89.6649 255.411 89.9997 255.349 90.3081 255.226Z" fill="black"/>
<path d="M76.0689 263.748H73.214V262.302C73.6722 262.293 74.0775 262.266 74.43 262.222C74.7824 262.178 75.0908 262.107 75.364 262.002C75.6371 261.896 75.8662 261.737 76.0689 261.534C76.2716 261.331 76.4478 261.049 76.6152 260.696H78.166V273.471H76.0689V263.748Z" fill="black"/>
<path d="M83.9375 262.39C83.5939 262.601 83.3119 262.901 83.074 263.281C82.8361 263.66 82.6598 264.119 82.5277 264.657C82.3955 265.195 82.325 265.786 82.3162 266.448C82.5982 266.033 82.9947 265.689 83.5057 265.407C84.0168 265.125 84.6424 264.983 85.3826 264.983C85.9729 264.983 86.5192 265.089 87.0391 265.292C87.559 265.495 88.0084 265.786 88.3873 266.166C88.7661 266.545 89.0745 266.995 89.2948 267.533C89.5151 268.071 89.6297 268.671 89.6297 269.342C89.6297 269.977 89.5151 270.559 89.286 271.097C89.0569 271.636 88.7397 272.094 88.3344 272.483C87.9291 272.871 87.4444 273.171 86.8629 273.391C86.2901 273.612 85.6645 273.718 84.9772 273.718C84.1402 273.718 83.4264 273.568 82.8273 273.268C82.2281 272.968 81.7346 272.544 81.3381 271.997C80.9416 271.45 80.6508 270.797 80.4658 270.03C80.2808 269.262 80.1838 268.415 80.1838 267.471C80.1838 266.554 80.272 265.672 80.4482 264.825C80.6244 263.978 80.9152 263.237 81.3205 262.584C81.7258 261.94 82.2457 261.419 82.8889 261.04C83.5322 260.66 84.3164 260.466 85.2592 260.466C85.9289 260.466 86.5104 260.563 87.0127 260.766C87.5149 260.969 87.9291 261.225 88.2639 261.551C88.5987 261.878 88.8543 262.24 89.0393 262.654C89.2243 263.069 89.3389 263.484 89.3829 263.907H87.2506C87.1801 263.281 86.951 262.822 86.5545 262.522C86.158 262.222 85.6733 262.072 85.1006 262.072C84.66 262.072 84.2723 262.178 83.9375 262.39ZM83.1709 271.362C83.6379 271.847 84.2283 272.086 84.9596 272.086C85.3209 272.086 85.6557 272.024 85.9641 271.9C86.2725 271.777 86.5369 271.6 86.7571 271.362C86.9774 271.124 87.1537 270.842 87.277 270.506C87.4004 270.171 87.4621 269.792 87.4621 269.368C87.4621 268.521 87.233 267.86 86.766 267.365C86.299 266.88 85.7086 266.633 84.9772 266.633C84.2459 266.633 83.6555 266.88 83.1797 267.365C82.7039 267.851 82.4748 268.521 82.4748 269.368C82.4748 270.215 82.7039 270.877 83.1709 271.362Z" fill="black"/>
<path d="M2.95182 228.335H0V226.835C0.475816 226.826 0.889952 226.8 1.26003 226.755C1.6213 226.711 1.94732 226.641 2.22929 226.526C2.51125 226.42 2.74916 226.253 2.96063 226.041C3.16329 225.829 3.35715 225.538 3.52456 225.176H5.12824V238.41H2.95182V228.335Z" fill="black"/>
<path d="M15.9311 225.176V227.091C15.094 227.894 14.345 228.705 13.7018 229.526C13.0497 230.346 12.4946 231.211 12.0452 232.128C11.587 233.037 11.2346 234.008 10.9702 235.04C10.7059 236.072 10.5385 237.193 10.468 238.41H8.0008C8.06248 237.245 8.24752 236.125 8.54711 235.066C8.8467 234.008 9.25202 233.002 9.75427 232.058C10.2565 231.105 10.8293 230.223 11.4989 229.393C12.1598 228.564 12.8735 227.797 13.6401 227.091H6.43237V225.176H15.9311Z" fill="black"/>
<path d="M55.6529 299.038H52.798V297.592C53.2562 297.583 53.6615 297.556 54.0139 297.512C54.3664 297.468 54.6748 297.397 54.948 297.292C55.2211 297.186 55.4502 297.027 55.6529 296.824C55.8555 296.621 56.0318 296.339 56.1992 295.986H57.75V308.761H55.6529V299.038Z" fill="black"/>
<path d="M66.4292 296.003C66.9667 296.171 67.4249 296.392 67.8038 296.683C68.1827 296.974 68.4823 297.318 68.685 297.724C68.8876 298.13 68.9934 298.571 68.9934 299.038C68.9934 299.594 68.87 300.132 68.6145 300.653C68.3589 301.173 67.9448 301.606 67.3544 301.95C68.1034 302.338 68.6321 302.814 68.9317 303.388C69.2313 303.961 69.3811 304.544 69.3811 305.143C69.3811 305.779 69.2577 306.335 69.011 306.811C68.7643 307.287 68.4294 307.693 68.0065 308.02C67.5835 308.346 67.0813 308.593 66.4997 308.761C65.9182 308.928 65.2926 309.008 64.6229 309.008C63.9532 309.008 63.3276 308.928 62.7461 308.761C62.1645 308.593 61.6623 308.346 61.2393 308.02C60.8164 307.693 60.4815 307.287 60.2348 306.811C59.9881 306.335 59.8647 305.779 59.8647 305.143C59.8647 304.852 59.9 304.552 59.9705 304.252C60.041 303.952 60.1555 303.661 60.3141 303.388C60.4727 303.114 60.6842 302.85 60.9397 302.603C61.1953 302.356 61.5125 302.135 61.8914 301.95C61.3274 301.632 60.9133 301.209 60.649 300.67C60.3846 300.132 60.2524 299.594 60.2524 299.038C60.2524 298.571 60.3582 298.13 60.5608 297.724C60.7635 297.318 61.0543 296.974 61.4332 296.683C61.8121 296.392 62.2703 296.171 62.8078 296.003C63.3452 295.836 63.9532 295.756 64.6229 295.756C65.2926 295.756 65.8917 295.845 66.4292 296.003ZM62.7549 303.37C62.2879 303.785 62.0588 304.349 62.0588 305.064C62.0588 305.796 62.2879 306.361 62.7549 306.767C63.2219 307.173 63.8475 307.376 64.6317 307.376C65.4159 307.376 66.0415 307.173 66.5085 306.767C66.9756 306.361 67.2046 305.796 67.2046 305.064C67.2046 304.349 66.9756 303.785 66.5085 303.37C66.0415 302.955 65.4159 302.753 64.6317 302.753C63.8387 302.753 63.2131 302.955 62.7549 303.37ZM66.2971 297.874C65.8829 297.53 65.3278 297.362 64.6229 297.362C63.9268 297.362 63.3717 297.53 62.9487 297.874C62.5258 298.218 62.3143 298.694 62.3143 299.303C62.3143 299.912 62.5258 300.406 62.9487 300.776C63.3717 301.147 63.9268 301.332 64.6229 301.332C65.3278 301.332 65.8829 301.147 66.2971 300.776C66.7112 300.406 66.9139 299.912 66.9139 299.303C66.9139 298.685 66.7112 298.218 66.2971 297.874Z" fill="black"/>
<path d="M41.7748 321.095H38.9199V319.648C39.3781 319.639 39.7834 319.612 40.1359 319.568C40.4884 319.524 40.7968 319.454 41.0699 319.348C41.3431 319.242 41.5722 319.083 41.7748 318.88C41.9775 318.677 42.1537 318.395 42.3211 318.042H43.8719V330.817H41.7748V321.095Z" fill="black"/>
<path d="M51.4585 329.114C51.8022 328.902 52.0841 328.611 52.322 328.232C52.56 327.853 52.7362 327.403 52.8684 326.864C53.0005 326.326 53.071 325.735 53.0798 325.073C52.7979 325.488 52.4013 325.832 51.8903 326.115C51.3792 326.397 50.7536 326.538 50.0135 326.538C49.4231 326.538 48.8768 326.432 48.3569 326.229C47.837 326.026 47.3965 325.735 47.0088 325.356C46.6299 324.976 46.3215 324.518 46.1012 323.979C45.8809 323.441 45.7664 322.833 45.7664 322.162C45.7664 321.527 45.8809 320.945 46.11 320.406C46.3391 319.868 46.6563 319.409 47.0616 319.03C47.467 318.651 47.9516 318.351 48.5243 318.13C49.0971 317.91 49.7227 317.804 50.4188 317.804C51.2382 317.804 51.952 317.954 52.56 318.254C53.1679 318.554 53.6614 318.977 54.0579 319.524C54.4544 320.071 54.7452 320.724 54.9302 321.5C55.1153 322.268 55.2122 323.115 55.2122 324.05C55.2122 324.968 55.1241 325.85 54.939 326.697C54.754 327.544 54.4632 328.285 54.0667 328.938C53.6702 329.582 53.1415 330.093 52.4895 330.482C51.8374 330.861 51.0532 331.055 50.1192 331.055C49.4495 331.055 48.868 330.958 48.3745 330.755C47.8811 330.552 47.467 330.296 47.1321 329.97C46.7973 329.644 46.5418 329.282 46.3567 328.867C46.1717 328.452 46.0571 328.038 46.0131 327.614H48.1454C48.2159 328.241 48.445 328.699 48.8415 328.991C49.2381 329.282 49.7139 329.432 50.2954 329.432C50.7272 329.432 51.1149 329.317 51.4585 329.114ZM52.2075 320.142C51.7405 319.656 51.1501 319.418 50.4276 319.418C49.6874 319.418 49.0883 319.656 48.6213 320.142C48.1542 320.627 47.9252 321.289 47.9252 322.153C47.9252 323 48.1542 323.662 48.6213 324.156C49.0883 324.641 49.6786 324.888 50.41 324.888C50.7624 324.888 51.0884 324.826 51.3968 324.694C51.7052 324.562 51.9696 324.385 52.1899 324.147C52.4102 323.909 52.5864 323.627 52.7186 323.291C52.8507 322.956 52.9124 322.577 52.9124 322.153C52.9124 321.289 52.6833 320.627 52.2075 320.142Z" fill="black"/>
<path d="M33.7917 342.737C34.3028 342.887 34.7433 343.098 35.1134 343.39C35.4835 343.681 35.7743 344.034 35.9858 344.457C36.1972 344.881 36.303 345.366 36.303 345.904C36.303 346.566 36.1532 347.21 35.8448 347.863C35.5364 348.507 35.1046 349.151 34.5495 349.795C33.9944 350.439 33.3247 351.074 32.5317 351.727C31.7475 352.371 30.8751 353.033 29.9059 353.703H36.5937V355.538H27.3065V353.809C28.3727 352.971 29.3243 352.203 30.1702 351.497C31.0073 350.792 31.721 350.13 32.3114 349.495C32.9018 348.868 33.3423 348.277 33.6595 347.713C33.9679 347.157 34.1265 346.61 34.1265 346.08C34.1265 345.454 33.9415 344.978 33.5714 344.634C33.2013 344.289 32.6991 344.122 32.0647 344.122C31.7563 344.122 31.4655 344.166 31.1747 344.263C30.884 344.36 30.6372 344.51 30.4169 344.731C30.1967 344.951 30.0204 345.233 29.8883 345.578C29.7561 345.922 29.6856 346.345 29.6856 346.839H27.5885C27.5797 346.195 27.6766 345.604 27.8881 345.075C28.0995 344.545 28.4079 344.095 28.8045 343.716C29.201 343.337 29.6856 343.045 30.2495 342.834C30.8135 342.622 31.4479 342.516 32.1528 342.516C32.7343 342.516 33.2807 342.596 33.7917 342.737Z" fill="black"/>
<path d="M40.5765 355.264C39.942 354.938 39.4133 354.488 38.9904 353.906C38.5675 353.323 38.2502 352.626 38.0388 351.815C37.8273 351.003 37.7216 350.103 37.7216 349.115C37.7216 348.136 37.8273 347.245 38.0388 346.433C38.2502 345.621 38.5675 344.924 38.9904 344.342C39.4133 343.76 39.942 343.31 40.5765 342.983C41.2109 342.657 41.951 342.498 42.7969 342.498C43.6516 342.498 44.4006 342.657 45.035 342.983C45.6694 343.31 46.1981 343.76 46.6211 344.342C47.044 344.924 47.3612 345.621 47.5727 346.433C47.7842 347.245 47.8899 348.136 47.8899 349.115C47.8899 350.103 47.7842 351.003 47.5727 351.815C47.3612 352.626 47.044 353.323 46.6211 353.906C46.1981 354.488 45.6694 354.938 45.035 355.264C44.4006 355.591 43.6604 355.749 42.7969 355.749C41.951 355.749 41.2109 355.591 40.5765 355.264ZM44.9381 352.847C45.4403 351.991 45.6959 350.747 45.6959 349.133C45.6959 347.518 45.4403 346.274 44.9381 345.418C44.4358 344.563 43.7133 344.13 42.7881 344.13C41.8717 344.13 41.1668 344.563 40.6558 345.418C40.1535 346.274 39.898 347.518 39.898 349.133C39.898 350.747 40.1535 351.991 40.6558 352.847C41.158 353.703 41.8717 354.135 42.7881 354.135C43.7221 354.135 44.4358 353.703 44.9381 352.847Z" fill="black"/>
</g>
<defs>
<clipPath id="clip0_723_6036">
<rect width="560" height="476" fill="white"/>
</clipPath>
</defs>
</svg>
