<svg width="304" height="258" viewBox="0 0 304 258" fill="none" xmlns="http://www.w3.org/2000/svg">
<g clip-path="url(#clip0_721_14611)">
<path d="M165.752 210.826L165.747 209.87C174.381 209.817 181.384 209.635 187.162 209.315C189.315 209.196 192.969 208.555 196.839 207.876C202.206 206.938 208.285 205.872 212.136 205.872C215.924 205.872 218.732 206.149 221.21 206.393C223.037 206.575 224.611 206.728 226.19 206.728C228.127 206.728 230.136 207.029 232.073 207.326C233.948 207.608 235.723 207.876 237.373 207.876C238.205 207.876 239.105 207.857 240.032 207.842C242.898 207.79 246.146 207.727 248.365 208.172C249.145 208.33 251.312 208.411 254.803 208.416V209.372C251.202 209.368 249.03 209.282 248.179 209.109C246.06 208.684 242.864 208.746 240.052 208.799C239.119 208.818 238.215 208.832 237.378 208.832C235.656 208.832 233.848 208.56 231.934 208.273C230.031 207.986 228.055 207.689 226.19 207.689C224.568 207.689 222.966 207.531 221.114 207.35C218.661 207.106 215.877 206.833 212.136 206.833C208.367 206.833 202.33 207.89 197.002 208.823C193.103 209.506 189.42 210.152 187.21 210.271C181.422 210.592 174.405 210.774 165.752 210.826Z" fill="black"/>
<path d="M291.3 210.272C288.535 210.272 284.948 209.952 281.475 209.641C278.486 209.373 275.668 209.124 273.808 209.124C272.774 209.124 270.794 209.162 268.283 209.21C267.068 209.234 265.743 209.258 264.37 209.282L264.356 208.326C265.729 208.302 267.054 208.278 268.269 208.254C270.78 208.206 272.765 208.168 273.808 208.168C275.711 208.168 278.553 208.421 281.561 208.689C285.01 208.995 288.579 209.316 291.3 209.316C295.366 209.316 298.002 208.584 298.853 208.307V205.983C298.222 205.366 295.935 202.922 295.419 199.541C294.806 195.572 292.453 188.06 289.789 184.865C288.014 182.733 288.086 179.514 288.162 176.105C288.215 173.747 288.272 171.309 287.689 169.205C287.048 166.9 285.359 164.977 283.728 163.122C281.772 160.898 279.93 158.799 279.93 156.174H280.887C280.887 158.436 282.618 160.406 284.451 162.491C286.153 164.427 287.914 166.431 288.617 168.951C289.239 171.189 289.181 173.7 289.129 176.129C289.057 179.352 288.985 182.398 290.535 184.253C293.577 187.902 295.84 195.917 296.375 199.398C296.916 202.917 299.638 205.399 299.666 205.423L299.824 205.566V208.971L299.523 209.091C299.389 209.139 296.495 210.272 291.3 210.272Z" fill="black"/>
<path d="M268.402 136.52C264.777 134.387 264.155 131.589 263.6 129.122C263.375 128.108 263.16 127.147 262.758 126.267C260.127 120.481 253.866 108.306 251.307 107.608C250.594 107.412 249.891 106.661 249.159 105.313L250.001 104.858C250.781 106.293 251.312 106.618 251.56 106.685C252.106 106.833 253.775 107.288 258.377 115.513C260.668 119.611 262.815 124.077 263.629 125.87C264.069 126.841 264.303 127.893 264.533 128.912C265.068 131.303 265.619 133.77 268.886 135.692L268.402 136.52Z" fill="black"/>
<path d="M244.892 92.6791L244.749 92.1387C244.357 90.6659 243.984 89.2791 243.859 89.0544C243.457 88.4518 238.621 79.5861 238.621 77.9029C238.621 76.4587 238.325 73.9291 236.349 73.1879C233.757 72.2172 231.456 65.4125 230.877 57.0058C230.341 49.2686 223.879 46.4234 221.119 45.2088L220.832 45.0844C217.646 43.669 215.499 37.3281 215.413 37.0556C215.221 36.4817 215.226 35.5397 215.226 34.349C215.236 31.7093 215.245 28.099 213.069 27.0135C210.763 25.861 210.228 23.8813 209.754 22.1359C209.477 21.1078 209.213 20.1371 208.616 19.4437C207.912 18.626 207.219 18.1095 206.482 17.5692C205.482 16.8327 204.449 16.0676 203.416 14.5231C201.694 11.9408 199.503 9.2677 196.318 8.99992C194.127 8.8182 192.213 7.178 190.362 5.59039C189.109 4.51446 187.923 3.4959 186.694 2.9412C183.742 1.60225 180.269 1.28665 177.203 1.00929L176.806 0.97582C175.434 0.85149 173.262 2.21912 171.162 3.5485C168.694 5.10263 166.144 6.71415 163.944 6.71415C160.959 6.71415 159.142 8.00527 158.381 10.6688C157.74 12.9115 156.759 12.7585 153.856 12.2947L152.971 12.156C150.914 11.8404 149.546 12.8446 148.451 13.6575C147.647 14.2505 146.949 14.7622 146.236 14.4083C145.696 14.1644 142.304 14.8482 140.061 15.3025C137.832 15.752 135.727 16.1776 134.689 16.1776C133.981 16.1776 132.905 17.6361 131.958 18.9272C130.346 21.1126 128.342 23.8287 126.113 22.4133C124.041 21.0982 122.578 18.2338 121.717 16.0628C121.554 15.6564 121.229 15.3455 120.817 15.2021C120.411 15.0586 119.971 15.0969 119.598 15.3073C116.666 16.9666 114.762 19.9458 113.37 22.1216C113.135 22.485 112.92 22.8293 112.714 23.1353C112.361 23.6661 111.901 24.4838 111.366 25.4354C109.261 29.1701 106.075 34.8176 102.856 34.8176C100.101 34.8176 97.6996 41.5984 97.0108 44.2093L96.9917 44.2667C96.9582 44.3528 93.5716 52.836 93.2941 55.6047C93.2176 56.3507 93.2894 57.2162 93.3659 58.1343C93.5716 60.6688 93.806 63.5379 91.0508 65.1447C89.7593 65.8954 89.7019 66.7131 89.611 67.9469C89.4866 69.6397 89.3336 71.739 85.9374 74.2877C84.622 75.2728 83.3592 76.5257 82.082 78.1085L81.3358 77.506C82.6656 75.861 83.981 74.5555 85.3634 73.5226C88.4104 71.2369 88.5443 69.4532 88.6591 67.8752C88.7548 66.5601 88.8457 65.3216 90.5724 64.3174C92.8063 63.0167 92.6054 60.5731 92.414 58.2109C92.3375 57.2497 92.261 56.3411 92.3471 55.5091C92.6341 52.659 95.8484 44.5632 96.0972 43.9368C96.4081 42.7748 98.9146 33.8612 102.861 33.8612C105.525 33.8612 108.663 28.295 110.538 24.9668C111.083 24.0009 111.552 23.164 111.925 22.6045C112.126 22.2985 112.341 21.9638 112.571 21.6051C114.016 19.3433 115.996 16.2493 119.134 14.4705C119.746 14.1262 120.478 14.0592 121.143 14.2935C121.812 14.5278 122.348 15.0443 122.611 15.7042C123.276 17.3731 124.682 20.3618 126.634 21.6051C128.002 22.4754 129.389 20.8113 131.192 18.3582C132.431 16.6749 133.503 15.2212 134.694 15.2212C135.636 15.2212 137.789 14.7861 139.874 14.3653C143.95 13.5428 145.949 13.1937 146.667 13.5523C146.858 13.648 147.403 13.2463 147.886 12.8876C148.996 12.0699 150.67 10.8362 153.124 11.214L154.014 11.3526C157.003 11.826 157.066 11.8069 157.467 10.4058C158.347 7.32145 160.529 5.75776 163.949 5.75776C165.872 5.75776 168.302 4.22276 170.655 2.74036C172.994 1.26752 175.199 -0.128808 176.897 0.0242142L177.289 0.0576878C180.432 0.339822 183.991 0.660212 187.086 2.07088C188.435 2.68297 189.731 3.79238 190.979 4.86832C192.716 6.3555 194.509 7.89529 196.389 8.05309C199.982 8.35435 202.354 11.2283 204.205 13.997C205.143 15.4029 206.066 16.082 207.042 16.804C207.788 17.354 208.563 17.923 209.333 18.8268C210.07 19.6828 210.371 20.8065 210.668 21.892C211.132 23.5944 211.567 25.2059 213.485 26.1623C216.192 27.5156 216.178 31.4702 216.168 34.3585C216.164 35.3771 216.164 36.3335 216.302 36.7591C217.015 38.9014 218.962 43.2195 221.205 44.2141L221.487 44.3385C224.405 45.6248 231.241 48.6326 231.81 56.9484C232.403 65.532 234.79 71.6003 236.665 72.3032C239.181 73.2453 239.559 76.2244 239.559 77.9124C239.559 79.084 243.902 87.4333 244.639 88.5427C244.816 88.8057 245.031 89.5804 245.648 91.8996L245.792 92.44L244.892 92.6791Z" fill="black"/>
<path d="M91.3091 213.14L91.2086 213.097C88.8552 212.079 82.3069 209.53 80.317 209.97C77.8727 210.515 64.6946 210.553 60.7101 210.553C60.1552 210.553 57.8305 210.51 54.8888 210.458C50.3255 210.377 44.0785 210.267 41.7825 210.267C40.7493 210.267 39.4338 210.137 38.0371 209.999C34.3252 209.635 29.7045 209.181 27.1215 210.769C26.0214 211.443 25.0599 211.562 24.2563 211.113C22.3956 210.075 22.3765 206.384 22.3765 206.345C22.3765 205.489 26.1362 200.095 27.6812 198.551L28.3556 199.225C26.7006 200.88 23.5292 205.676 23.3331 206.374C23.3379 207.087 23.5866 209.64 24.7251 210.276C25.1986 210.544 25.8396 210.434 26.6193 209.951C29.4749 208.191 34.2726 208.665 38.1328 209.042C39.5056 209.176 40.8019 209.305 41.7872 209.305C44.0928 209.305 50.0911 209.411 54.9127 209.497C57.8497 209.549 60.1744 209.592 60.7197 209.592C63.5371 209.592 77.7101 209.564 80.1161 209.028C82.6895 208.454 90.2185 211.615 91.4909 212.165C92.4954 212.117 100.101 211.758 107.046 211.519L107.08 212.476C99.6751 212.729 91.51 213.121 91.4287 213.126L91.3091 213.14Z" fill="black"/>
<path d="M298.365 73.2739H296.93V72.5566H298.365V73.2739ZM295.495 73.2739H294.06V72.5566H295.495V73.2739ZM292.625 73.2739H291.19V72.5566H292.625V73.2739ZM289.755 73.2739H288.32V72.5566H289.755V73.2739ZM286.885 73.2739H285.45V72.5566H286.885V73.2739ZM284.015 73.2739H282.58V72.5566H284.015V73.2739ZM281.145 73.2739H279.71V72.5566H281.145V73.2739ZM278.275 73.2739H276.84V72.5566H278.275V73.2739ZM275.405 73.2739H273.97V72.5566H275.405V73.2739ZM272.535 73.2739H271.1V72.5566H272.535V73.2739ZM269.665 73.2739H268.23V72.5566H269.665V73.2739ZM266.795 73.2739H265.36V72.5566H266.795V73.2739ZM263.925 73.2739H262.49V72.5566H263.925V73.2739ZM261.055 73.2739H259.62V72.5566H261.055V73.2739ZM258.185 73.2739H256.75V72.5566H258.185V73.2739ZM255.315 73.2739H253.88V72.5566H255.315V73.2739ZM252.445 73.2739H251.01V72.5566H252.445V73.2739ZM249.575 73.2739H248.14V72.5566H249.575V73.2739ZM246.705 73.2739H245.27V72.5566H246.705V73.2739ZM243.835 73.2739H242.4V72.5566H243.835V73.2739ZM240.965 73.2739H239.53V72.5566H240.965V73.2739ZM238.095 73.2739H236.66V72.5566H238.095V73.2739ZM235.225 73.2739H233.79V72.5566H235.225V73.2739ZM232.355 73.2739H230.92V72.5566H232.355V73.2739ZM229.485 73.2739H228.05V72.5566H229.485V73.2739ZM226.615 73.2739H225.18V72.5566H226.615V73.2739ZM223.745 73.2739H222.31V72.5566H223.745V73.2739ZM220.875 73.2739H219.44V72.5566H220.875V73.2739ZM218.005 73.2739H216.57V72.5566H218.005V73.2739ZM215.135 73.2739H213.7V72.5566H215.135V73.2739ZM212.265 73.2739H210.83V72.5566H212.265V73.2739ZM209.395 73.2739H207.96V72.5566H209.395V73.2739ZM206.525 73.2739H205.09V72.5566H206.525V73.2739ZM203.655 73.2739H202.22V72.5566H203.655V73.2739ZM200.785 73.2739H199.35V72.5566H200.785V73.2739ZM197.915 73.2739H196.48V72.5566H197.915V73.2739ZM195.045 73.2739H193.61V72.5566H195.045V73.2739ZM192.175 73.2739H190.74V72.5566H192.175V73.2739ZM189.305 73.2739H187.87V72.5566H189.305V73.2739ZM186.435 73.2739H185V72.5566H186.435V73.2739ZM183.565 73.2739H182.13V72.5566H183.565V73.2739ZM180.695 73.2739H179.26V72.5566H180.695V73.2739ZM177.825 73.2739H176.39V72.5566H177.825V73.2739ZM174.955 73.2739H173.52V72.5566H174.955V73.2739ZM172.085 73.2739H170.65V72.5566H172.085V73.2739ZM169.215 73.2739H167.78V72.5566H169.215V73.2739ZM166.345 73.2739H164.91V72.5566H166.345V73.2739ZM163.475 73.2739H162.04V72.5566H163.475V73.2739ZM160.605 73.2739H159.17V72.5566H160.605V73.2739ZM157.735 73.2739H156.3V72.5566H157.735V73.2739ZM154.865 73.2739H153.43V72.5566H154.865V73.2739ZM151.995 73.2739H150.56V72.5566H151.995V73.2739ZM149.125 73.2739H147.69V72.5566H149.125V73.2739ZM146.255 73.2739H144.82V72.5566H146.255V73.2739ZM143.385 73.2739H141.95V72.5566H143.385V73.2739ZM140.515 73.2739H139.08V72.5566H140.515V73.2739ZM137.645 73.2739H136.21V72.5566H137.645V73.2739ZM134.775 73.2739H133.34V72.5566H134.775V73.2739ZM131.905 73.2739H130.47V72.5566H131.905V73.2739ZM129.035 73.2739H127.6V72.5566H129.035V73.2739ZM126.165 73.2739H124.73V72.5566H126.165V73.2739ZM123.295 73.2739H121.86V72.5566H123.295V73.2739ZM120.425 73.2739H118.99V72.5566H120.425V73.2739ZM117.555 73.2739H116.12V72.5566H117.555V73.2739ZM114.685 73.2739H113.25V72.5566H114.685V73.2739ZM111.815 73.2739H110.38V72.5566H111.815V73.2739ZM108.945 73.2739H107.51V72.5566H108.945V73.2739ZM106.075 73.2739H104.64V72.5566H106.075V73.2739ZM103.205 73.2739H101.77V72.5566H103.205V73.2739ZM100.335 73.2739H98.9003V72.5566H100.335V73.2739ZM97.4653 73.2739H96.0303V72.5566H97.4653V73.2739ZM94.5953 73.2739H93.1603V72.5566H94.5953V73.2739ZM91.7253 73.2739H90.2903V72.5566H91.7253V73.2739ZM88.8553 73.2739H87.4203V72.5566H88.8553V73.2739ZM85.9853 73.2739H84.5503V72.5566H85.9853V73.2739ZM83.1153 73.2739H81.6803V72.5566H83.1153V73.2739ZM80.2453 73.2739H78.8103V72.5566H80.2453V73.2739ZM77.3753 73.2739H75.9403V72.5566H77.3753V73.2739ZM74.5053 73.2739H73.0703V72.5566H74.5053V73.2739ZM71.6353 73.2739H70.2003V72.5566H71.6353V73.2739ZM68.7653 73.2739H67.3303V72.5566H68.7653V73.2739ZM65.8953 73.2739H64.4603V72.5566H65.8953V73.2739ZM63.0253 73.2739H61.5903V72.5566H63.0253V73.2739ZM60.1553 73.2739H58.7203V72.5566H60.1553V73.2739ZM57.2853 73.2739H55.8503V72.5566H57.2853V73.2739ZM54.4153 73.2739H52.9803V72.5566H54.4153V73.2739ZM51.5453 73.2739H50.1103V72.5566H51.5453V73.2739ZM48.6753 73.2739H47.2403V72.5566H48.6753V73.2739ZM45.8053 73.2739H44.3703V72.5566H45.8053V73.2739ZM42.9353 73.2739H41.5003V72.5566H42.9353V73.2739ZM40.0653 73.2739H38.6303V72.5566H40.0653V73.2739ZM37.1953 73.2739H35.7603V72.5566H37.1953V73.2739Z" fill="black"/>
<path d="M35.6412 146.623L34.9557 146.835L36.953 153.295L37.6385 153.083L35.6412 146.623Z" fill="black"/>
<path d="M37.2621 153.548C37.0182 153.524 12.8384 150.866 7.61023 133.268L8.29903 133.062C13.3933 150.201 37.0995 152.807 37.3339 152.831L37.2621 153.548Z" fill="black"/>
<path d="M37.0936 152.898L31.8754 156.636L32.2932 157.219L37.5114 153.481L37.0936 152.898Z" fill="black"/>
<path d="M126.675 215.552L126.194 216.084L131.213 220.617L131.694 220.085L126.675 215.552Z" fill="black"/>
<path d="M131.953 251.095C118.737 234.985 126.022 215.886 126.098 215.694L126.768 215.957C126.696 216.144 119.569 234.865 132.513 250.641L131.953 251.095Z" fill="black"/>
<path d="M126.253 215.515L120.664 218.671L121.017 219.295L126.606 216.139L126.253 215.515Z" fill="black"/>
<path d="M275.12 129.738L273.702 136.35L274.404 136.5L275.821 129.888L275.12 129.738Z" fill="black"/>
<path d="M274.123 136.782L273.989 136.079C274.224 136.036 297.609 131.336 301.163 113.819L301.867 113.963C298.217 131.948 274.367 136.739 274.123 136.782Z" fill="black"/>
<path d="M274.231 136.135L273.866 136.753L279.395 140.013L279.76 139.395L274.231 136.135Z" fill="black"/>
<path d="M113.738 212.734C114.531 212.734 115.173 212.092 115.173 211.3C115.173 210.508 114.531 209.865 113.738 209.865C112.946 209.865 112.303 210.508 112.303 211.3C112.303 212.092 112.946 212.734 113.738 212.734Z" fill="black"/>
<path d="M41.9881 163.958C42.7806 163.958 43.4231 163.316 43.4231 162.523C43.4231 161.731 42.7806 161.089 41.9881 161.089C41.1956 161.089 40.5531 161.731 40.5531 162.523C40.5531 163.316 41.1956 163.958 41.9881 163.958Z" fill="black"/>
<path d="M57.7731 134.311C58.5657 134.311 59.2081 133.668 59.2081 132.876C59.2081 132.084 58.5657 131.441 57.7731 131.441C56.9806 131.441 56.3381 132.084 56.3381 132.876C56.3381 133.668 56.9806 134.311 57.7731 134.311Z" fill="black"/>
<path d="M70.2098 103.706C71.0023 103.706 71.6448 103.064 71.6448 102.271C71.6448 101.479 71.0023 100.837 70.2098 100.837C69.4173 100.837 68.7748 101.479 68.7748 102.271C68.7748 103.064 69.4173 103.706 70.2098 103.706Z" fill="black"/>
<path d="M76.9064 86.9688C77.699 86.9688 78.3414 86.3265 78.3414 85.5342C78.3414 84.7419 77.699 84.0996 76.9064 84.0996C76.1139 84.0996 75.4714 84.7419 75.4714 85.5342C75.4714 86.3265 76.1139 86.9688 76.9064 86.9688Z" fill="black"/>
<path d="M29.0731 190.737C29.8656 190.737 30.5081 190.095 30.5081 189.303C30.5081 188.51 29.8656 187.868 29.0731 187.868C28.2805 187.868 27.6381 188.51 27.6381 189.303C27.6381 190.095 28.2805 190.737 29.0731 190.737Z" fill="black"/>
<path d="M54.9031 139.57C55.6957 139.57 56.3381 138.928 56.3381 138.136C56.3381 137.343 55.6957 136.701 54.9031 136.701C54.1106 136.701 53.4681 137.343 53.4681 138.136C53.4681 138.928 54.1106 139.57 54.9031 139.57Z" fill="black"/>
<path d="M63.9914 115.183C64.7839 115.183 65.4264 114.54 65.4264 113.748C65.4264 112.956 64.7839 112.313 63.9914 112.313C63.1989 112.313 62.5564 112.956 62.5564 113.748C62.5564 114.54 63.1989 115.183 63.9914 115.183Z" fill="black"/>
<path d="M71.6447 97.9678C72.4372 97.9678 73.0797 97.3255 73.0797 96.5332C73.0797 95.7409 72.4372 95.0986 71.6447 95.0986C70.8522 95.0986 70.2097 95.7409 70.2097 96.5332C70.2097 97.3255 70.8522 97.9678 71.6447 97.9678Z" fill="black"/>
<path d="M68.7748 109.444C69.5674 109.444 70.2098 108.802 70.2098 108.01C70.2098 107.217 69.5674 106.575 68.7748 106.575C67.9823 106.575 67.3398 107.217 67.3398 108.01C67.3398 108.802 67.9823 109.444 68.7748 109.444Z" fill="black"/>
<path d="M50.5981 148.656C51.3906 148.656 52.0331 148.014 52.0331 147.222C52.0331 146.429 51.3906 145.787 50.5981 145.787C49.8056 145.787 49.1631 146.429 49.1631 147.222C49.1631 148.014 49.8056 148.656 50.5981 148.656Z" fill="black"/>
<path d="M44.8581 156.308C45.6506 156.308 46.2931 155.665 46.2931 154.873C46.2931 154.081 45.6506 153.438 44.8581 153.438C44.0656 153.438 43.4231 154.081 43.4231 154.873C43.4231 155.665 44.0656 156.308 44.8581 156.308Z" fill="black"/>
<path d="M274.936 146.266C275.729 146.266 276.371 145.623 276.371 144.831C276.371 144.039 275.729 143.396 274.936 143.396C274.144 143.396 273.501 144.039 273.501 144.831C273.501 145.623 274.144 146.266 274.936 146.266Z" fill="black"/>
<path d="M276.372 152.481C277.164 152.481 277.807 151.839 277.807 151.047C277.807 150.255 277.164 149.612 276.372 149.612C275.579 149.612 274.937 150.255 274.937 151.047C274.937 151.839 275.579 152.481 276.372 152.481Z" fill="black"/>
<path d="M270.153 139.57C270.946 139.57 271.588 138.928 271.588 138.136C271.588 137.343 270.946 136.701 270.153 136.701C269.361 136.701 268.718 137.343 268.718 138.136C268.718 138.928 269.361 139.57 270.153 139.57Z" fill="black"/>
<path d="M158.701 211.777C159.494 211.777 160.136 211.135 160.136 210.343C160.136 209.55 159.494 208.908 158.701 208.908C157.909 208.908 157.266 209.55 157.266 210.343C157.266 211.135 157.909 211.777 158.701 211.777Z" fill="black"/>
<path d="M137.176 209.865C137.969 209.865 138.611 209.223 138.611 208.431C138.611 207.638 137.969 206.996 137.176 206.996C136.384 206.996 135.741 207.638 135.741 208.431C135.741 209.223 136.384 209.865 137.176 209.865Z" fill="black"/>
<path d="M128.088 212.734C128.881 212.734 129.523 212.092 129.523 211.3C129.523 210.508 128.881 209.865 128.088 209.865C127.296 209.865 126.653 210.508 126.653 211.3C126.653 212.092 127.296 212.734 128.088 212.734Z" fill="black"/>
<path d="M149.135 211.3C149.927 211.3 150.57 210.658 150.57 209.865C150.57 209.073 149.927 208.431 149.135 208.431C148.342 208.431 147.7 209.073 147.7 209.865C147.7 210.658 148.342 211.3 149.135 211.3Z" fill="black"/>
<path d="M58.7298 211.3C59.5223 211.3 60.1648 210.658 60.1648 209.865C60.1648 209.073 59.5223 208.431 58.7298 208.431C57.9373 208.431 57.2948 209.073 57.2948 209.865C57.2948 210.658 57.9373 211.3 58.7298 211.3Z" fill="black"/>
<path d="M33.3781 178.782C34.1706 178.782 34.8131 178.14 34.8131 177.348C34.8131 176.555 34.1706 175.913 33.3781 175.913C32.5856 175.913 31.9431 176.555 31.9431 177.348C31.9431 178.14 32.5856 178.782 33.3781 178.782Z" fill="black"/>
<path d="M245.758 96.5332C246.551 96.5332 247.193 95.8909 247.193 95.0986C247.193 94.3063 246.551 93.6641 245.758 93.6641C244.966 93.6641 244.323 94.3063 244.323 95.0986C244.323 95.8909 244.966 96.5332 245.758 96.5332Z" fill="black"/>
<path d="M248.15 102.272C248.942 102.272 249.585 101.629 249.585 100.837C249.585 100.045 248.942 99.4023 248.15 99.4023C247.357 99.4023 246.715 100.045 246.715 100.837C246.715 101.629 247.357 102.272 248.15 102.272Z" fill="black"/>
<path d="M258.673 209.865C259.466 209.865 260.108 209.223 260.108 208.431C260.108 207.638 259.466 206.996 258.673 206.996C257.881 206.996 257.238 207.638 257.238 208.431C257.238 209.223 257.881 209.865 258.673 209.865Z" fill="black"/>
<path d="M156.267 140.178C155.922 140.001 155.635 139.757 155.406 139.442C155.176 139.126 155.004 138.748 154.889 138.309C154.774 137.869 154.717 137.381 154.717 136.845C154.717 136.314 154.774 135.831 154.889 135.392C155.004 134.952 155.176 134.574 155.406 134.258C155.635 133.943 155.922 133.699 156.267 133.522C156.611 133.345 157.013 133.259 157.472 133.259C157.936 133.259 158.343 133.345 158.687 133.522C159.031 133.699 159.318 133.943 159.548 134.258C159.778 134.574 159.95 134.952 160.065 135.392C160.179 135.831 160.237 136.314 160.237 136.845C160.237 137.381 160.179 137.869 160.065 138.309C159.95 138.748 159.778 139.126 159.548 139.442C159.318 139.757 159.031 140.001 158.687 140.178C158.343 140.355 157.941 140.441 157.472 140.441C157.008 140.441 156.606 140.35 156.267 140.178ZM158.634 138.863C158.907 138.399 159.046 137.725 159.046 136.85C159.046 135.97 158.907 135.301 158.634 134.837C158.362 134.373 157.974 134.139 157.467 134.139C156.97 134.139 156.587 134.373 156.31 134.837C156.037 135.301 155.898 135.975 155.898 136.85C155.898 137.73 156.037 138.399 156.31 138.863C156.582 139.327 156.97 139.561 157.467 139.561C157.97 139.561 158.362 139.327 158.634 138.863Z" fill="black"/>
<path d="M136.952 250.947C137.234 251.028 137.478 251.148 137.679 251.305C137.884 251.463 138.042 251.659 138.162 251.894C138.277 252.128 138.339 252.391 138.339 252.692C138.339 253.056 138.253 253.414 138.085 253.773C137.918 254.131 137.679 254.485 137.373 254.839C137.066 255.193 136.693 255.547 136.258 255.906C135.823 256.264 135.34 256.623 134.809 256.996H138.501V258.005H133.369V257.053C133.957 256.594 134.483 256.169 134.947 255.781C135.411 255.394 135.804 255.026 136.129 254.677C136.454 254.332 136.703 254.002 136.87 253.696C137.043 253.39 137.129 253.089 137.129 252.797C137.129 252.453 137.028 252.19 136.822 251.999C136.617 251.812 136.339 251.717 135.99 251.717C135.823 251.717 135.66 251.74 135.497 251.793C135.335 251.846 135.201 251.932 135.081 252.051C134.962 252.171 134.866 252.329 134.79 252.52C134.713 252.711 134.68 252.941 134.68 253.213H133.522C133.517 252.855 133.57 252.534 133.689 252.243C133.804 251.951 133.976 251.702 134.196 251.492C134.416 251.286 134.684 251.124 134.995 251.004C135.306 250.889 135.655 250.827 136.048 250.827C136.368 250.827 136.669 250.87 136.952 250.947Z" fill="black"/>
<path d="M137.832 221.251C138.004 221.198 138.152 221.117 138.281 221.016C138.41 220.916 138.506 220.792 138.578 220.643C138.65 220.495 138.683 220.328 138.683 220.136C138.683 219.912 138.64 219.725 138.559 219.572C138.477 219.419 138.358 219.295 138.205 219.204C138.052 219.113 137.87 219.046 137.655 219.003C137.439 218.96 137.205 218.941 136.952 218.941H136.617V217.994H136.904C137.975 217.994 138.511 217.635 138.511 216.923C138.511 216.751 138.477 216.598 138.41 216.469C138.344 216.34 138.257 216.23 138.147 216.148C138.037 216.067 137.913 216.005 137.765 215.962C137.616 215.919 137.463 215.9 137.306 215.9C136.885 215.9 136.559 216.019 136.32 216.253C136.086 216.488 135.942 216.808 135.89 217.219H134.78C134.804 216.889 134.885 216.588 135.014 216.32C135.143 216.053 135.32 215.823 135.54 215.632C135.761 215.441 136.024 215.292 136.335 215.187C136.645 215.082 136.99 215.029 137.373 215.029C137.66 215.029 137.942 215.063 138.219 215.13C138.497 215.197 138.745 215.307 138.961 215.455C139.176 215.603 139.353 215.794 139.482 216.024C139.611 216.253 139.678 216.531 139.678 216.856C139.678 217.2 139.587 217.506 139.401 217.784C139.214 218.056 138.97 218.267 138.664 218.415C138.874 218.491 139.056 218.592 139.205 218.711C139.353 218.831 139.477 218.965 139.573 219.113C139.669 219.261 139.74 219.419 139.788 219.586C139.836 219.754 139.86 219.931 139.86 220.108C139.86 220.466 139.788 220.772 139.649 221.035C139.511 221.298 139.319 221.514 139.08 221.691C138.841 221.867 138.564 221.997 138.248 222.083C137.932 222.169 137.602 222.212 137.258 222.212C136.856 222.212 136.502 222.15 136.191 222.03C135.88 221.911 135.622 221.743 135.407 221.533C135.191 221.322 135.024 221.078 134.904 220.806C134.785 220.533 134.713 220.242 134.694 219.936H135.804C135.828 220.127 135.88 220.309 135.952 220.476C136.024 220.643 136.124 220.792 136.244 220.921C136.363 221.05 136.512 221.15 136.679 221.222C136.846 221.294 137.047 221.332 137.277 221.332C137.478 221.332 137.664 221.303 137.832 221.251Z" fill="black"/>
<path d="M150.589 221.963V223.647H149.412V221.963H145.868V220.983L149.422 216.474H150.589V220.945H151.857V221.963H150.589ZM149.412 220.945V218.009L147.155 220.945H149.412Z" fill="black"/>
<path d="M159.4 222.723C159.567 222.656 159.716 222.556 159.84 222.432C159.964 222.307 160.065 222.149 160.136 221.958C160.208 221.772 160.242 221.561 160.242 221.327C160.242 221.069 160.203 220.839 160.122 220.648C160.041 220.452 159.931 220.289 159.797 220.16C159.663 220.031 159.51 219.935 159.338 219.873C159.17 219.811 158.998 219.782 158.821 219.782C158.491 219.782 158.214 219.854 157.989 219.998C157.764 220.141 157.616 220.313 157.549 220.524L156.458 220.466L156.927 216.55H161.146V217.568H157.879L157.654 219.338C157.821 219.204 158.027 219.094 158.271 219.017C158.515 218.941 158.792 218.903 159.113 218.903C159.409 218.903 159.701 218.955 159.983 219.06C160.266 219.166 160.514 219.319 160.73 219.519C160.945 219.72 161.117 219.974 161.246 220.275C161.375 220.576 161.442 220.925 161.442 221.317C161.442 221.714 161.371 222.059 161.232 222.355C161.093 222.652 160.902 222.905 160.663 223.111C160.423 223.316 160.146 223.469 159.83 223.574C159.515 223.68 159.185 223.727 158.835 223.727C158.429 223.727 158.065 223.665 157.754 223.541C157.443 223.417 157.18 223.249 156.965 223.039C156.75 222.828 156.587 222.585 156.468 222.312C156.353 222.035 156.281 221.748 156.262 221.442H157.381C157.434 221.848 157.573 222.183 157.802 222.441C158.032 222.699 158.381 222.828 158.85 222.828C159.051 222.824 159.232 222.79 159.4 222.723Z" fill="black"/>
<path d="M300.915 105.279C300.728 105.394 300.575 105.556 300.446 105.762C300.317 105.967 300.221 106.216 300.149 106.508C300.078 106.799 300.039 107.12 300.035 107.478C300.188 107.254 300.403 107.067 300.68 106.914C300.958 106.761 301.297 106.685 301.699 106.685C302.02 106.685 302.316 106.742 302.598 106.852C302.881 106.962 303.125 107.12 303.33 107.325C303.536 107.531 303.703 107.775 303.823 108.067C303.943 108.358 304.005 108.684 304.005 109.047C304.005 109.391 303.943 109.707 303.818 109.999C303.694 110.29 303.522 110.539 303.302 110.749C303.082 110.96 302.814 111.122 302.503 111.242C302.192 111.361 301.852 111.419 301.479 111.419C301.025 111.419 300.637 111.338 300.312 111.175C299.987 111.012 299.719 110.783 299.504 110.486C299.288 110.19 299.131 109.836 299.03 109.42C298.93 109.004 298.877 108.545 298.877 108.033C298.877 107.536 298.925 107.058 299.021 106.599C299.116 106.14 299.274 105.738 299.494 105.384C299.714 105.035 299.996 104.753 300.346 104.547C300.695 104.342 301.12 104.236 301.632 104.236C301.996 104.236 302.312 104.289 302.584 104.399C302.857 104.509 303.082 104.648 303.263 104.825C303.445 105.001 303.584 105.198 303.684 105.422C303.785 105.647 303.847 105.872 303.871 106.101H302.713C302.675 105.762 302.551 105.513 302.335 105.351C302.12 105.188 301.857 105.107 301.546 105.107C301.312 105.107 301.101 105.164 300.915 105.279ZM300.499 110.137C300.752 110.4 301.073 110.529 301.47 110.529C301.666 110.529 301.848 110.496 302.015 110.429C302.182 110.362 302.326 110.266 302.445 110.137C302.565 110.008 302.661 109.855 302.728 109.673C302.795 109.492 302.828 109.286 302.828 109.057C302.828 108.597 302.704 108.239 302.45 107.971C302.197 107.708 301.876 107.574 301.479 107.574C301.082 107.574 300.762 107.708 300.503 107.971C300.25 108.234 300.121 108.597 300.121 109.057C300.121 109.516 300.25 109.879 300.499 110.137Z" fill="black"/>
<path d="M289.291 141.397V142.435C288.837 142.87 288.43 143.31 288.081 143.755C287.727 144.2 287.426 144.668 287.182 145.166C286.933 145.658 286.742 146.184 286.598 146.744C286.455 147.303 286.364 147.91 286.326 148.57H284.991C285.025 147.939 285.125 147.332 285.288 146.758C285.45 146.184 285.67 145.639 285.943 145.127C286.216 144.611 286.527 144.133 286.89 143.683C287.249 143.234 287.636 142.818 288.052 142.435H284.144V141.397H289.291Z" fill="black"/>
<path d="M293.802 147.747C294.094 147.838 294.343 147.958 294.548 148.115C294.754 148.273 294.917 148.46 295.027 148.68C295.137 148.9 295.194 149.139 295.194 149.392C295.194 149.693 295.127 149.98 294.988 150.267C294.85 150.549 294.625 150.784 294.304 150.97C294.711 151.181 294.998 151.439 295.16 151.75C295.323 152.06 295.404 152.376 295.404 152.701C295.404 153.046 295.337 153.347 295.204 153.605C295.07 153.863 294.888 154.083 294.658 154.26C294.429 154.437 294.156 154.571 293.84 154.662C293.525 154.753 293.185 154.796 292.821 154.796C292.458 154.796 292.118 154.753 291.803 154.662C291.487 154.571 291.214 154.437 290.985 154.26C290.755 154.083 290.573 153.863 290.439 153.605C290.305 153.347 290.238 153.046 290.238 152.701C290.238 152.543 290.258 152.381 290.296 152.218C290.334 152.056 290.396 151.898 290.482 151.75C290.568 151.601 290.683 151.458 290.822 151.324C290.961 151.19 291.133 151.071 291.339 150.97C291.032 150.798 290.808 150.569 290.664 150.277C290.521 149.985 290.449 149.693 290.449 149.392C290.449 149.139 290.506 148.9 290.616 148.68C290.726 148.46 290.884 148.273 291.09 148.115C291.296 147.958 291.544 147.838 291.836 147.747C292.128 147.656 292.458 147.613 292.821 147.613C293.19 147.613 293.515 147.656 293.802 147.747ZM291.807 151.735C291.554 151.96 291.429 152.266 291.429 152.653C291.429 153.05 291.554 153.356 291.807 153.576C292.061 153.796 292.4 153.906 292.826 153.906C293.252 153.906 293.592 153.796 293.845 153.576C294.099 153.356 294.223 153.05 294.223 152.653C294.223 152.266 294.099 151.96 293.845 151.735C293.592 151.511 293.257 151.401 292.826 151.401C292.396 151.405 292.061 151.515 291.807 151.735ZM293.73 148.756C293.505 148.57 293.204 148.479 292.821 148.479C292.444 148.479 292.142 148.57 291.913 148.756C291.683 148.943 291.568 149.201 291.568 149.531C291.568 149.861 291.683 150.129 291.913 150.329C292.142 150.53 292.444 150.631 292.821 150.631C293.204 150.631 293.505 150.53 293.73 150.329C293.955 150.129 294.065 149.861 294.065 149.531C294.065 149.201 293.955 148.943 293.73 148.756Z" fill="black"/>
<path d="M70.7598 83.3443C70.9464 83.2295 71.0995 83.0717 71.2286 82.8661C71.3578 82.6605 71.4534 82.4166 71.5252 82.1249C71.5969 81.8332 71.6352 81.5128 71.64 81.1542C71.4869 81.3789 71.2716 81.5654 70.9942 81.7185C70.7168 81.8715 70.3772 81.948 69.9754 81.948C69.6549 81.948 69.3583 81.8906 69.0761 81.7806C68.7939 81.6706 68.5547 81.5128 68.3443 81.3072C68.1386 81.1016 67.9712 80.8529 67.8516 80.5612C67.732 80.2695 67.6698 79.9396 67.6698 79.5761C67.6698 79.2318 67.732 78.9162 67.8563 78.6245C67.9807 78.3328 68.1529 78.0842 68.373 77.8786C68.593 77.6729 68.8561 77.5103 69.167 77.3908C69.4779 77.2712 69.8175 77.2139 70.1954 77.2139C70.6402 77.2139 71.0277 77.2952 71.3577 77.4577C71.6878 77.6203 71.9557 77.8499 72.1709 78.1463C72.3862 78.4428 72.544 78.7967 72.6445 79.2175C72.7449 79.6335 72.7975 80.0926 72.7975 80.5995C72.7975 81.0968 72.7497 81.575 72.6493 82.0341C72.5488 82.4931 72.3909 82.8948 72.1757 83.2487C71.9604 83.5978 71.6735 83.8751 71.3195 84.0855C70.9655 84.2911 70.5398 84.3963 70.0328 84.3963C69.6692 84.3963 69.3535 84.3437 69.0857 84.2338C68.8178 84.1238 68.593 83.9851 68.4112 83.8082C68.2295 83.6312 68.0907 83.4352 67.9903 83.2104C67.8898 82.9857 67.8276 82.7609 67.8037 82.5314H68.9613C68.9996 82.8709 69.1239 83.1196 69.3392 83.2774C69.5544 83.4352 69.8175 83.5165 70.1284 83.5165C70.3676 83.5165 70.5781 83.4591 70.7598 83.3443ZM71.1712 78.4859C70.9177 78.2229 70.5924 78.0937 70.205 78.0937C69.8032 78.0937 69.4779 78.2229 69.2244 78.4859C68.9709 78.7489 68.8465 79.1075 68.8465 79.5761C68.8465 80.0352 68.9709 80.3939 69.2244 80.6616C69.4779 80.9246 69.7984 81.0585 70.1954 81.0585C70.3867 81.0585 70.5637 81.0251 70.7311 80.9533C70.8985 80.8816 71.0421 80.786 71.1616 80.6569C71.2812 80.5278 71.3769 80.3747 71.4486 80.193C71.5204 80.0113 71.5539 79.8057 71.5539 79.5761C71.5539 79.1075 71.4295 78.7441 71.1712 78.4859Z" fill="black"/>
<path d="M62.5325 89.3987H60.9827V88.6144C61.2314 88.6097 61.4514 88.5953 61.6428 88.5714C61.8341 88.5475 62.0015 88.5092 62.1498 88.4519C62.2981 88.3945 62.4224 88.3084 62.5325 88.1984C62.6425 88.0884 62.7382 87.9354 62.829 87.7441H63.6709V94.6684H62.5325V89.3987Z" fill="black"/>
<path d="M66.316 94.5298C65.9716 94.3529 65.6846 94.109 65.455 93.7934C65.2254 93.4778 65.0532 93.1 64.9384 92.6601C64.8236 92.2201 64.7662 91.7324 64.7662 91.1968C64.7662 90.666 64.8236 90.183 64.9384 89.7431C65.0532 89.3032 65.2254 88.9254 65.455 88.6098C65.6846 88.2942 65.9716 88.0503 66.316 87.8734C66.6604 87.6964 67.0622 87.6104 67.5214 87.6104C67.9854 87.6104 68.392 87.6964 68.7364 87.8734C69.0808 88.0503 69.3678 88.2942 69.5974 88.6098C69.827 88.9254 69.9992 89.3032 70.114 89.7431C70.2288 90.183 70.2862 90.666 70.2862 91.1968C70.2862 91.7324 70.2288 92.2201 70.114 92.6601C69.9992 93.1 69.827 93.4778 69.5974 93.7934C69.3678 94.109 69.0808 94.3529 68.7364 94.5298C68.392 94.7067 67.9902 94.7928 67.5214 94.7928C67.0622 94.7928 66.6604 94.7067 66.316 94.5298ZM68.6838 93.2196C68.9564 92.7557 69.0952 92.0815 69.0952 91.2064C69.0952 90.3265 68.9564 89.657 68.6838 89.1932C68.4111 88.7293 68.0189 88.495 67.5167 88.495C67.0192 88.495 66.6365 88.7293 66.3591 89.1932C66.0864 89.657 65.9477 90.3313 65.9477 91.2064C65.9477 92.0862 66.0864 92.7557 66.3591 93.2196C66.6317 93.6834 67.0192 93.9177 67.5167 93.9177C68.0237 93.9177 68.4111 93.6834 68.6838 93.2196Z" fill="black"/>
<path d="M59.1029 98.417H57.5005V97.6041C57.7588 97.5993 57.9836 97.585 58.1845 97.561C58.3806 97.5371 58.5576 97.4989 58.7107 97.4367C58.8637 97.3793 58.9929 97.2885 59.1077 97.1737C59.2177 97.0589 59.3229 96.9011 59.4138 96.7051H60.2844V103.878H59.1077V98.417H59.1029Z" fill="black"/>
<path d="M62.8627 98.417H61.2603V97.6041C61.5186 97.5993 61.7434 97.585 61.9443 97.561C62.1404 97.5371 62.3174 97.4989 62.4704 97.4367C62.6235 97.3793 62.7526 97.2885 62.8674 97.1737C62.9775 97.0589 63.0827 96.9011 63.1736 96.7051H64.0442V103.878H62.8674V98.417H62.8627Z" fill="black"/>
<path d="M53.8843 106.58H52.3105V105.781C52.5641 105.776 52.7889 105.762 52.9802 105.738C53.1715 105.714 53.3485 105.676 53.4968 105.619C53.6451 105.561 53.7742 105.475 53.8843 105.36C53.9943 105.246 54.0947 105.093 54.1856 104.896H55.0418V111.945H53.8843V106.58Z" fill="black"/>
<path d="M59.5813 104.892C59.8635 104.973 60.1074 105.093 60.3083 105.251C60.514 105.408 60.6719 105.605 60.7914 105.839C60.9062 106.073 60.9684 106.336 60.9684 106.637C60.9684 107.001 60.8823 107.359 60.7149 107.718C60.5475 108.077 60.3083 108.431 60.0022 108.785C59.6961 109.138 59.323 109.492 58.8877 109.851C58.4524 110.21 57.9693 110.568 57.4383 110.941H61.1311V111.95H55.9985V110.999C56.5869 110.539 57.1131 110.114 57.577 109.727C58.041 109.339 58.4333 108.971 58.7585 108.622C59.0838 108.278 59.3325 107.948 59.4999 107.642C59.6721 107.336 59.7582 107.034 59.7582 106.743C59.7582 106.398 59.6578 106.135 59.4521 105.944C59.2464 105.758 58.969 105.662 58.6198 105.662C58.4524 105.662 58.2898 105.686 58.1271 105.738C57.9693 105.791 57.8306 105.877 57.711 105.997C57.5914 106.116 57.4957 106.274 57.4192 106.465C57.3427 106.657 57.3092 106.886 57.3092 107.159H56.1516C56.1468 106.8 56.1994 106.48 56.319 106.188C56.4386 105.896 56.606 105.648 56.8261 105.437C57.0461 105.232 57.314 105.069 57.6249 104.949C57.9358 104.835 58.285 104.772 58.6772 104.772C58.9929 104.772 59.299 104.811 59.5813 104.892Z" fill="black"/>
<path d="M49.5027 115.698H47.9529V114.914C48.2016 114.909 48.4216 114.895 48.613 114.871C48.8043 114.847 48.9717 114.809 49.12 114.752C49.2683 114.694 49.3927 114.608 49.5027 114.498C49.6127 114.388 49.7084 114.235 49.7992 114.044H50.6411V120.968H49.5027V115.698Z" fill="black"/>
<path d="M54.7022 120.136C54.8744 120.084 55.0227 120.002 55.1518 119.902C55.281 119.802 55.3766 119.677 55.4484 119.529C55.5201 119.381 55.5536 119.213 55.5536 119.022C55.5536 118.797 55.5106 118.611 55.4293 118.458C55.3479 118.305 55.2284 118.181 55.0753 118.09C54.9222 117.999 54.7405 117.932 54.5252 117.889C54.31 117.846 54.0756 117.827 53.8221 117.827H53.4872V116.88H53.7742C54.8457 116.88 55.3814 116.521 55.3814 115.809C55.3814 115.637 55.3479 115.484 55.281 115.354C55.214 115.225 55.1279 115.115 55.0179 115.034C54.9079 114.953 54.7835 114.891 54.6352 114.848C54.4869 114.804 54.3339 114.785 54.176 114.785C53.7551 114.785 53.4298 114.905 53.1907 115.139C52.9563 115.374 52.8128 115.699 52.7602 116.105H51.6504C51.6743 115.775 51.7557 115.474 51.8848 115.206C52.014 114.938 52.1909 114.709 52.411 114.518C52.631 114.326 52.8941 114.178 53.205 114.073C53.5159 113.968 53.8603 113.915 54.243 113.915C54.53 113.915 54.8122 113.949 55.0896 114.015C55.3671 114.082 55.6158 114.192 55.8311 114.341C56.0463 114.489 56.2233 114.68 56.3524 114.91C56.4816 115.139 56.5486 115.417 56.5486 115.742C56.5486 116.086 56.4577 116.392 56.2711 116.669C56.0846 116.942 55.8406 117.152 55.5345 117.301C55.745 117.377 55.9267 117.478 56.075 117.597C56.2233 117.717 56.3477 117.851 56.4433 117.999C56.539 118.147 56.6107 118.305 56.6586 118.472C56.7064 118.64 56.7303 118.817 56.7303 118.993C56.7303 119.352 56.6586 119.658 56.5199 119.921C56.3811 120.184 56.1898 120.399 55.9506 120.576C55.7115 120.753 55.434 120.882 55.1183 120.968C54.8026 121.054 54.4726 121.098 54.1282 121.098C53.7264 121.098 53.3724 121.035 53.0615 120.916C52.7506 120.796 52.4923 120.629 52.277 120.418C52.0618 120.208 51.8944 119.964 51.7748 119.692C51.6552 119.419 51.5835 119.127 51.5643 118.821H52.6741C52.698 119.013 52.7506 119.194 52.8223 119.362C52.8941 119.529 52.9945 119.677 53.1141 119.806C53.2337 119.935 53.382 120.036 53.5494 120.108C53.7168 120.179 53.9177 120.218 54.1473 120.218C54.3434 120.218 54.53 120.189 54.7022 120.136Z" fill="black"/>
<path d="M48.833 125.674H47.2306V124.861C47.4889 124.856 47.7137 124.842 47.9146 124.818C48.1107 124.794 48.2877 124.756 48.4408 124.694C48.5938 124.636 48.723 124.545 48.8378 124.431C48.9478 124.316 49.053 124.158 49.1439 123.962H50.0145V131.135H48.8378V125.674H48.833Z" fill="black"/>
<path d="M55.5488 129.456V131.14H54.3721V129.456H50.8276V128.476L54.3817 123.967H55.5488V128.438H56.8164V129.456H55.5488ZM54.3721 128.433V125.497L52.1144 128.433H54.3721Z" fill="black"/>
<path d="M43.6958 133.841H42.1221V133.043C42.3756 133.038 42.6004 133.024 42.7917 133C42.9879 132.976 43.1601 132.938 43.3083 132.88C43.4566 132.823 43.5858 132.737 43.6958 132.622C43.8058 132.507 43.9063 132.354 43.9971 132.158H44.8534V139.207H43.6958V133.841Z" fill="black"/>
<path d="M49.0245 138.337C49.1919 138.27 49.3402 138.169 49.4693 138.045C49.5937 137.921 49.6941 137.763 49.7659 137.571C49.8376 137.385 49.8711 137.175 49.8711 136.94C49.8711 136.682 49.8281 136.452 49.7515 136.261C49.6702 136.065 49.5602 135.903 49.4263 135.773C49.2923 135.644 49.1393 135.549 48.9671 135.487C48.7996 135.424 48.6274 135.396 48.4505 135.396C48.1204 135.396 47.843 135.467 47.6182 135.611C47.3933 135.754 47.2451 135.926 47.1733 136.137L46.0827 136.079L46.5515 132.163H50.7704V133.182H47.5034L47.2785 134.951C47.446 134.817 47.6516 134.707 47.8956 134.631C48.1395 134.554 48.417 134.516 48.7375 134.516C49.034 134.516 49.3258 134.568 49.608 134.674C49.8902 134.779 50.139 134.932 50.3542 135.133C50.5695 135.334 50.7417 135.587 50.8708 135.888C51 136.189 51.0669 136.539 51.0669 136.931C51.0669 137.328 50.9952 137.672 50.8565 137.968C50.7178 138.265 50.5264 138.518 50.2873 138.724C50.0481 138.93 49.7707 139.083 49.455 139.188C49.1393 139.293 48.8092 139.346 48.46 139.346C48.0534 139.346 47.6899 139.283 47.379 139.159C47.0681 139.035 46.805 138.867 46.5897 138.657C46.3745 138.447 46.2119 138.203 46.0923 137.93C45.9775 137.653 45.9057 137.366 45.8866 137.06H47.0059C47.0585 137.466 47.1972 137.801 47.4268 138.059C47.6564 138.317 48.0056 138.447 48.4696 138.447C48.6753 138.437 48.857 138.404 49.0245 138.337Z" fill="black"/>
<path d="M41.2946 142.955H39.7448V142.171C39.9935 142.166 40.2135 142.152 40.4049 142.128C40.5962 142.104 40.7636 142.066 40.9119 142.009C41.0602 141.951 41.1845 141.865 41.2946 141.755C41.4046 141.645 41.5002 141.492 41.5911 141.301H42.433V148.225H41.2946V142.955Z" fill="black"/>
<path d="M45.566 142.219C45.3795 142.334 45.2264 142.497 45.0973 142.702C44.9681 142.908 44.8724 143.156 44.8007 143.448C44.7289 143.74 44.6907 144.06 44.6859 144.419C44.839 144.194 45.0542 144.008 45.3316 143.855C45.6091 143.702 45.9487 143.625 46.3505 143.625C46.671 143.625 46.9675 143.682 47.2498 143.792C47.532 143.902 47.7759 144.06 47.9816 144.266C48.1873 144.472 48.3547 144.715 48.4743 145.007C48.5939 145.299 48.6561 145.624 48.6561 145.987C48.6561 146.332 48.5939 146.647 48.4695 146.939C48.3451 147.231 48.1729 147.479 47.9529 147.69C47.7329 147.9 47.4698 148.063 47.1541 148.182C46.8432 148.302 46.5036 148.359 46.1305 148.359C45.676 148.359 45.2886 148.278 44.9633 148.115C44.6381 147.953 44.3702 147.723 44.1549 147.427C43.9397 147.13 43.7818 146.776 43.6814 146.36C43.5809 145.944 43.5283 145.485 43.5283 144.974C43.5283 144.476 43.5762 143.998 43.6718 143.539C43.7675 143.08 43.9253 142.678 44.1454 142.324C44.3654 141.975 44.6476 141.693 44.9968 141.488C45.346 141.282 45.7717 141.177 46.2835 141.177C46.6471 141.177 46.9628 141.229 47.2354 141.339C47.5081 141.449 47.7329 141.588 47.9146 141.765C48.0964 141.942 48.2351 142.138 48.3356 142.363C48.436 142.587 48.4982 142.812 48.5221 143.042H47.3646C47.3263 142.702 47.2019 142.454 46.9867 142.291C46.7714 142.128 46.5083 142.047 46.1974 142.047C45.9583 142.047 45.7478 142.104 45.566 142.219ZM45.1499 147.082C45.4034 147.345 45.7239 147.475 46.1209 147.475C46.317 147.475 46.4988 147.441 46.6662 147.374C46.8336 147.307 46.9771 147.212 47.0967 147.082C47.2163 146.953 47.3119 146.8 47.3789 146.619C47.4459 146.437 47.4794 146.231 47.4794 146.002C47.4794 145.543 47.355 145.184 47.1015 144.916C46.848 144.653 46.5275 144.519 46.1305 144.519C45.7334 144.519 45.413 144.653 45.1547 144.916C44.8964 145.179 44.772 145.543 44.772 146.002C44.772 146.461 44.8964 146.819 45.1499 147.082Z" fill="black"/>
<path d="M1.60242 123.762H0V122.949C0.2583 122.944 0.483117 122.93 0.684017 122.906C0.880133 122.882 1.05712 122.844 1.21018 122.781C1.36325 122.724 1.4924 122.633 1.6072 122.518C1.71722 122.404 1.82245 122.246 1.91333 122.05H2.7839V129.223H1.60242V123.762Z" fill="black"/>
<path d="M8.64826 122.05V123.087C8.19384 123.523 7.78726 123.963 7.43807 124.407C7.08411 124.852 6.78276 125.321 6.53881 125.818C6.29007 126.311 6.09874 126.837 5.95524 127.396C5.81174 127.956 5.72085 128.563 5.68259 129.223H4.34325C4.37674 128.592 4.47719 127.984 4.63982 127.41C4.80245 126.837 5.02249 126.291 5.29514 125.78C5.56779 125.263 5.87871 124.785 6.24224 124.336C6.60099 123.886 6.98844 123.47 7.40459 123.087H3.49182V122.05H8.64826Z" fill="black"/>
<path d="M30.2115 162.083H28.6617V161.299C28.9105 161.294 29.1305 161.28 29.3218 161.256C29.5132 161.232 29.6806 161.194 29.8289 161.136C29.9772 161.079 30.1015 160.993 30.2115 160.883C30.3216 160.773 30.4172 160.62 30.5081 160.429H31.35V167.353H30.2115V162.083Z" fill="black"/>
<path d="M36.0615 160.439C36.3533 160.529 36.602 160.649 36.8077 160.807C37.0134 160.965 37.176 161.151 37.286 161.371C37.3961 161.591 37.4535 161.83 37.4535 162.084C37.4535 162.385 37.3865 162.677 37.2478 162.959C37.1091 163.241 36.8842 163.475 36.5638 163.662C36.9703 163.872 37.2573 164.13 37.42 164.441C37.5826 164.752 37.6639 165.067 37.6639 165.393C37.6639 165.737 37.597 166.038 37.463 166.296C37.3291 166.555 37.1473 166.775 36.9177 166.952C36.6881 167.129 36.4155 167.262 36.0998 167.353C35.7841 167.444 35.4445 167.487 35.0809 167.487C34.7174 167.487 34.3778 167.444 34.0621 167.353C33.7464 167.262 33.4737 167.129 33.2441 166.952C33.0145 166.775 32.8328 166.555 32.6988 166.296C32.5649 166.038 32.4979 165.737 32.4979 165.393C32.4979 165.235 32.5171 165.072 32.5553 164.91C32.5936 164.747 32.6558 164.589 32.7419 164.441C32.828 164.293 32.9428 164.149 33.0815 164.015C33.2202 163.882 33.3924 163.762 33.5981 163.662C33.292 163.489 33.0671 163.26 32.9236 162.968C32.7801 162.677 32.7084 162.385 32.7084 162.084C32.7084 161.83 32.7658 161.591 32.8758 161.371C32.9858 161.151 33.1437 160.965 33.3494 160.807C33.555 160.649 33.8038 160.529 34.0956 160.439C34.3873 160.348 34.7174 160.305 35.0809 160.305C35.4445 160.305 35.7697 160.353 36.0615 160.439ZM34.0669 164.431C33.8133 164.656 33.689 164.962 33.689 165.35C33.689 165.747 33.8133 166.053 34.0669 166.273C34.3204 166.493 34.66 166.602 35.0857 166.602C35.5114 166.602 35.851 166.493 36.1046 166.273C36.3581 166.053 36.4824 165.747 36.4824 165.35C36.4824 164.962 36.3581 164.656 36.1046 164.431C35.851 164.207 35.5114 164.097 35.0857 164.097C34.6552 164.097 34.3156 164.207 34.0669 164.431ZM35.9898 161.452C35.7649 161.266 35.4636 161.175 35.0809 161.175C34.703 161.175 34.4017 161.266 34.1721 161.452C33.9425 161.639 33.8277 161.897 33.8277 162.227C33.8277 162.557 33.9425 162.825 34.1721 163.026C34.4017 163.226 34.703 163.327 35.0809 163.327C35.4636 163.327 35.7649 163.226 35.9898 163.026C36.2146 162.825 36.3246 162.557 36.3246 162.227C36.3246 161.892 36.2146 161.639 35.9898 161.452Z" fill="black"/>
<path d="M22.6777 174.038H21.1279V173.254C21.3767 173.249 21.5967 173.235 21.788 173.211C21.9794 173.187 22.1468 173.149 22.2951 173.092C22.4433 173.034 22.5677 172.948 22.6777 172.838C22.7877 172.728 22.8834 172.575 22.9743 172.384H23.8162V179.308H22.6777V174.038Z" fill="black"/>
<path d="M27.9346 178.385C28.1212 178.271 28.2743 178.113 28.4034 177.907C28.5326 177.702 28.6282 177.458 28.7 177.166C28.7717 176.874 28.81 176.554 28.8148 176.195C28.6617 176.42 28.4465 176.606 28.169 176.759C27.8916 176.912 27.552 176.989 27.1502 176.989C26.8297 176.989 26.5331 176.932 26.2509 176.822C25.9687 176.712 25.7295 176.554 25.5191 176.348C25.3134 176.143 25.146 175.894 25.0264 175.602C24.9068 175.311 24.8446 174.981 24.8446 174.617C24.8446 174.273 24.9068 173.957 25.0312 173.666C25.1555 173.374 25.3277 173.125 25.5478 172.92C25.7678 172.714 26.0309 172.551 26.3418 172.432C26.6527 172.312 26.9923 172.255 27.3702 172.255C27.8151 172.255 28.2025 172.336 28.5326 172.499C28.8626 172.661 29.1305 172.891 29.3457 173.187C29.561 173.484 29.7188 173.838 29.8193 174.259C29.9197 174.675 29.9723 175.134 29.9723 175.64C29.9723 176.138 29.9245 176.616 29.8241 177.075C29.7236 177.534 29.5658 177.936 29.3505 178.29C29.1353 178.639 28.8483 178.916 28.4943 179.127C28.1403 179.332 27.7146 179.437 27.2076 179.437C26.844 179.437 26.5283 179.385 26.2605 179.275C25.9926 179.165 25.7678 179.026 25.586 178.849C25.4043 178.672 25.2655 178.476 25.1651 178.251C25.0646 178.027 25.0025 177.802 24.9785 177.572H26.1361C26.1744 177.912 26.2987 178.161 26.514 178.318C26.7292 178.476 26.9875 178.557 27.3032 178.557C27.5376 178.557 27.7481 178.495 27.9346 178.385ZM28.3412 173.522C28.0877 173.259 27.7672 173.13 27.375 173.13C26.9732 173.13 26.6479 173.259 26.3944 173.522C26.1409 173.785 26.0165 174.144 26.0165 174.612C26.0165 175.071 26.1409 175.43 26.3944 175.698C26.6479 175.961 26.9684 176.095 27.3654 176.095C27.5568 176.095 27.7337 176.061 27.9012 175.99C28.0686 175.918 28.2121 175.822 28.3317 175.693C28.4512 175.564 28.5469 175.411 28.6187 175.229C28.6904 175.048 28.7239 174.842 28.7239 174.612C28.7239 174.144 28.5995 173.785 28.3412 173.522Z" fill="black"/>
<path d="M18.3441 185.769C18.6216 185.85 18.8607 185.965 19.0616 186.123C19.2625 186.281 19.4204 186.472 19.5352 186.701C19.65 186.931 19.7074 187.194 19.7074 187.486C19.7074 187.844 19.6261 188.193 19.4587 188.547C19.2912 188.896 19.0569 189.245 18.7555 189.595C18.4542 189.944 18.0906 190.288 17.6601 190.642C17.2344 190.991 16.7609 191.349 16.2347 191.713H19.8652V192.708H14.8236V191.77C15.4024 191.316 15.919 190.9 16.3782 190.517C16.8326 190.135 17.2201 189.776 17.5405 189.432C17.861 189.092 18.1002 188.772 18.2724 188.466C18.4398 188.165 18.5259 187.868 18.5259 187.581C18.5259 187.242 18.4255 186.984 18.2246 186.797C18.0237 186.611 17.751 186.52 17.4066 186.52C17.2392 186.52 17.0813 186.544 16.9235 186.596C16.7656 186.649 16.6317 186.73 16.5121 186.85C16.3925 186.969 16.2969 187.122 16.2251 187.309C16.1534 187.495 16.1151 187.725 16.1151 187.993H14.9767C14.9719 187.643 15.0245 187.323 15.1393 187.036C15.2541 186.749 15.4215 186.505 15.6368 186.3C15.852 186.094 16.1151 185.936 16.4212 185.822C16.7274 185.707 17.0718 185.649 17.4544 185.649C17.7701 185.649 18.0667 185.692 18.3441 185.769Z" fill="black"/>
<path d="M22.0273 192.559C21.6829 192.382 21.3959 192.138 21.1663 191.823C20.9367 191.507 20.7645 191.129 20.6497 190.689C20.5349 190.249 20.4775 189.762 20.4775 189.226C20.4775 188.695 20.5349 188.212 20.6497 187.772C20.7645 187.332 20.9367 186.955 21.1663 186.639C21.3959 186.323 21.6829 186.08 22.0273 185.903C22.3717 185.726 22.7735 185.64 23.2327 185.64C23.6967 185.64 24.1033 185.726 24.4477 185.903C24.7921 186.08 25.0791 186.323 25.3087 186.639C25.5383 186.955 25.7105 187.332 25.8253 187.772C25.9401 188.212 25.9975 188.695 25.9975 189.226C25.9975 189.762 25.9401 190.249 25.8253 190.689C25.7105 191.129 25.5383 191.507 25.3087 191.823C25.0791 192.138 24.7921 192.382 24.4477 192.559C24.1033 192.736 23.7015 192.822 23.2327 192.822C22.7735 192.822 22.3717 192.736 22.0273 192.559ZM24.3951 191.249C24.6677 190.785 24.8065 190.111 24.8065 189.236C24.8065 188.361 24.6677 187.686 24.3951 187.222C24.1224 186.759 23.7302 186.524 23.228 186.524C22.7305 186.524 22.3478 186.759 22.0704 187.222C21.7977 187.686 21.659 188.361 21.659 189.236C21.659 190.111 21.7977 190.785 22.0704 191.249C22.343 191.713 22.7305 191.947 23.228 191.947C23.735 191.947 24.1224 191.713 24.3951 191.249Z" fill="black"/>
</g>
<defs>
<clipPath id="clip0_721_14611">
<rect width="304" height="258" fill="white"/>
</clipPath>
</defs>
</svg>
