<svg width="24" height="24" viewBox="0 0 24 24" fill="none" xmlns="http://www.w3.org/2000/svg">
<circle cx="12" cy="12" r="12" fill="#111111"/>
<path d="M12.1188 6.668C11.6148 6.668 11.1668 6.752 10.7468 6.892C10.3268 7.032 9.96284 7.242 9.65484 7.494C9.34684 7.76 9.10884 8.082 8.94084 8.446C8.77284 8.81 8.68884 9.23 8.68884 9.678H9.96284C9.96284 9.468 10.0048 9.244 10.0888 9.02C10.1728 8.796 10.2848 8.586 10.4528 8.39C10.6208 8.194 10.8308 8.04 11.0968 7.914C11.3628 7.802 11.6988 7.732 12.0908 7.732C12.6228 7.732 13.0708 7.872 13.4208 8.124C13.7708 8.39 13.9528 8.74 13.9528 9.188C13.9528 9.65 13.8268 10.028 13.5748 10.322C13.3228 10.63 13.0148 10.896 12.6508 11.12C12.3568 11.316 12.1048 11.484 11.8808 11.652C11.6568 11.82 11.4748 12.002 11.3348 12.184C11.1948 12.366 11.0828 12.562 11.0128 12.786C10.9428 13.01 10.9148 13.276 10.9148 13.556V14.032H12.2168V13.598C12.2168 13.402 12.2308 13.248 12.2728 13.108C12.3148 12.968 12.3848 12.842 12.4828 12.73C12.5668 12.618 12.6928 12.506 12.8468 12.394C12.9868 12.282 13.1688 12.156 13.3928 12.016C13.6168 11.876 13.8548 11.694 14.0788 11.498C14.3028 11.302 14.5128 11.092 14.6948 10.854C14.8628 10.616 15.0028 10.35 15.1148 10.07C15.2268 9.79 15.2828 9.468 15.2828 9.132C15.2828 8.712 15.1848 8.348 15.0028 8.04C14.8208 7.732 14.5828 7.466 14.2888 7.27C13.9948 7.074 13.6588 6.92 13.2808 6.822C12.8888 6.724 12.5108 6.668 12.1188 6.668ZM10.7888 17.014H12.3988V15.404H10.7888V17.014Z" fill="white"/>
</svg>
