<svg width="350" height="396" viewBox="0 0 350 396" fill="none" xmlns="http://www.w3.org/2000/svg">
<path d="M105.047 318.312L112.391 333H119.255L111.287 317.208C115.607 315.72 117.815 312.744 117.815 308.28C117.815 306.36 117.479 304.728 116.807 303.432C116.135 302.136 115.175 301.128 113.879 300.36C112.583 299.592 110.951 299.016 109.031 298.728C107.111 298.392 104.855 298.248 102.311 298.248H91.2228V333.048H97.3188V318.408H103.223H104.135C104.423 318.408 104.759 318.36 105.047 318.312ZM97.3188 303.144H103.175C104.327 303.144 105.431 303.192 106.487 303.288C107.543 303.384 108.407 303.624 109.175 304.008C109.895 304.392 110.471 304.92 110.903 305.592C111.335 306.264 111.575 307.176 111.575 308.328C111.575 309.384 111.383 310.248 110.999 310.92C110.615 311.592 110.087 312.12 109.415 312.504C108.743 312.888 107.879 313.128 106.871 313.32C105.815 313.464 104.663 313.56 103.367 313.56H97.3188V303.144ZM127.124 321.72H146.372C146.468 319.56 146.276 317.544 145.748 315.72C145.172 313.896 144.356 312.312 143.3 310.968C142.244 309.624 140.9 308.568 139.316 307.8C137.732 307.032 135.956 306.648 133.988 306.648C132.164 306.648 130.436 306.936 128.9 307.608C127.364 308.28 126.02 309.192 124.868 310.392C123.716 311.544 122.852 312.936 122.228 314.568C121.604 316.2 121.316 317.976 121.316 319.944C121.316 321.768 121.604 323.544 122.18 325.224C122.756 326.856 123.572 328.344 124.724 329.592C125.828 330.84 127.172 331.8 128.804 332.568C130.436 333.288 132.26 333.672 134.372 333.672C136.004 333.672 137.492 333.432 138.836 332.952C140.132 332.472 141.284 331.8 142.244 331.032C143.204 330.264 144.02 329.352 144.692 328.344C145.316 327.336 145.796 326.328 146.084 325.32H140.468C139.94 326.52 139.124 327.432 138.02 328.008C136.916 328.584 135.62 328.92 134.132 328.92C133.268 328.92 132.452 328.776 131.684 328.488C130.916 328.2 130.196 327.72 129.524 327.144C128.852 326.52 128.324 325.752 127.892 324.888C127.46 324.024 127.22 322.968 127.124 321.72ZM133.988 311.112C134.804 311.112 135.62 311.256 136.388 311.544C137.156 311.832 137.876 312.264 138.452 312.84C139.028 313.368 139.508 314.04 139.892 314.856C140.276 315.672 140.516 316.584 140.516 317.592H127.076C127.22 316.344 127.508 315.336 127.988 314.52C128.468 313.656 129.044 312.984 129.716 312.504C130.388 312.024 131.06 311.64 131.828 311.448C132.596 311.208 133.316 311.112 133.988 311.112ZM165.905 314.232H171.281C170.993 312.984 170.561 311.832 169.889 310.872C169.217 309.912 168.401 309.144 167.441 308.472C166.481 307.848 165.377 307.368 164.225 307.08C163.025 306.792 161.825 306.648 160.577 306.648C159.137 306.648 157.793 306.792 156.545 307.176C155.297 307.512 154.193 307.992 153.233 308.664C152.273 309.336 151.505 310.104 150.929 311.016C150.353 311.928 150.065 312.984 150.065 314.136C150.065 315.288 150.257 316.296 150.641 317.16C151.025 318.024 151.601 318.744 152.321 319.32C152.993 319.896 153.809 320.376 154.769 320.76C155.729 321.144 156.737 321.432 157.841 321.672L161.729 322.44C162.977 322.68 164.033 323.064 164.897 323.592C165.761 324.12 166.193 324.936 166.193 325.992C166.193 327.048 165.665 327.864 164.705 328.44C163.745 329.016 162.497 329.352 161.009 329.352C159.281 329.352 157.985 328.968 157.025 328.248C156.065 327.528 155.441 326.52 155.201 325.176H149.633C149.777 326.376 150.161 327.48 150.737 328.536C151.313 329.592 152.129 330.456 153.089 331.224C154.049 331.992 155.153 332.568 156.449 333C157.745 333.432 159.185 333.672 160.817 333.672C162.257 333.672 163.649 333.48 164.993 333.096C166.289 332.712 167.441 332.184 168.449 331.512C169.457 330.792 170.273 329.928 170.849 328.872C171.425 327.816 171.761 326.664 171.761 325.32C171.761 324.072 171.521 323.016 171.041 322.152C170.561 321.288 169.937 320.52 169.121 319.944C168.257 319.368 167.297 318.888 166.193 318.552C165.041 318.168 163.841 317.88 162.545 317.64L158.897 316.92C157.745 316.68 156.881 316.344 156.305 315.864C155.729 315.384 155.441 314.712 155.441 313.848C155.441 312.984 155.921 312.264 156.881 311.784C157.841 311.256 158.993 311.016 160.241 311.016C161.681 311.016 162.881 311.256 163.889 311.736C164.897 312.216 165.569 313.08 165.905 314.232ZM177.579 300.36V307.176H173.739V311.304H177.579V326.232C177.579 327.576 177.627 328.68 177.819 329.544C178.011 330.408 178.347 331.128 178.827 331.608C179.307 332.136 179.979 332.52 180.843 332.712C181.707 332.904 182.811 333 184.203 333H188.427V328.632H186.363C185.115 328.632 184.299 328.44 183.915 328.008C183.483 327.576 183.291 326.712 183.291 325.368V311.304H188.475V307.176H183.291V300.36H177.579ZM209.059 320.856V322.824C209.059 325.032 208.435 326.712 207.283 327.768C206.083 328.824 204.451 329.352 202.339 329.352C200.899 329.352 199.747 329.064 198.883 328.392C198.019 327.768 197.587 326.904 197.587 325.8C197.587 325.032 197.779 324.408 198.211 323.88C198.643 323.352 199.315 322.92 200.275 322.536C201.187 322.152 202.387 321.816 203.827 321.576C205.267 321.288 206.995 321.048 209.059 320.856ZM201.091 333.672C203.011 333.672 204.691 333.336 206.131 332.664C207.571 331.992 208.723 330.936 209.539 329.544C209.635 330.408 209.683 331.08 209.779 331.56C209.875 331.992 209.923 332.472 210.019 333H215.251C215.011 331.944 214.819 330.6 214.675 329.016C214.579 327.432 214.483 325.8 214.483 324.168C214.483 323.592 214.531 323.016 214.531 322.344C214.531 321.672 214.531 321.048 214.531 320.424C214.531 319.848 214.579 319.272 214.579 318.744C214.579 318.264 214.579 317.832 214.579 317.496C214.627 315.48 214.387 313.752 213.859 312.312C213.283 310.872 212.515 309.72 211.555 308.856C210.547 307.992 209.395 307.368 208.051 306.984C206.707 306.6 205.267 306.408 203.731 306.408C202.147 306.408 200.707 306.648 199.411 307.08C198.115 307.512 197.011 308.136 196.051 308.904C195.091 309.672 194.323 310.632 193.747 311.688C193.171 312.792 192.835 313.992 192.739 315.288H198.355C198.403 313.752 198.931 312.552 199.891 311.784C200.851 311.016 202.051 310.632 203.491 310.632C204.211 310.632 204.883 310.728 205.555 310.92C206.227 311.112 206.803 311.448 207.283 311.88C207.763 312.312 208.195 312.888 208.483 313.656C208.771 314.424 208.915 315.336 208.915 316.392V316.872C206.515 317.16 204.307 317.448 202.195 317.784C200.083 318.168 198.259 318.648 196.675 319.32C195.091 319.992 193.843 320.856 192.931 321.912C191.971 322.968 191.539 324.312 191.539 325.896C191.539 327.096 191.731 328.152 192.211 329.112C192.691 330.072 193.315 330.84 194.179 331.512C195.043 332.184 196.051 332.712 197.203 333.096C198.355 333.48 199.651 333.672 201.091 333.672ZM234.516 312.984V307.224C234.276 307.224 234.036 307.176 233.748 307.176C233.46 307.176 233.22 307.128 232.98 307.128C231.444 307.176 230.052 307.608 228.852 308.424C227.652 309.24 226.692 310.344 225.972 311.784V307.176H220.355V333H226.068V319.464C226.068 318.216 226.212 317.112 226.452 316.248C226.74 315.384 227.076 314.712 227.556 314.232C228.036 313.752 228.66 313.368 229.332 313.176C230.052 312.984 230.868 312.888 231.732 312.888C232.596 312.888 233.556 312.888 234.516 312.984ZM238.938 300.36V307.176H235.098V311.304H238.938V326.232C238.938 327.576 238.986 328.68 239.178 329.544C239.37 330.408 239.706 331.128 240.186 331.608C240.666 332.136 241.338 332.52 242.202 332.712C243.066 332.904 244.17 333 245.562 333H249.786V328.632H247.722C246.474 328.632 245.658 328.44 245.274 328.008C244.842 327.576 244.65 326.712 244.65 325.368V311.304H249.834V307.176H244.65V300.36H238.938ZM48.6646 373.088C48.6646 371.648 48.8086 370.352 49.1446 369.2C49.4806 368.096 49.9606 367.184 50.5846 366.464C51.1606 365.744 51.8806 365.216 52.6966 364.832C53.5126 364.448 54.3766 364.256 55.3366 364.256C56.2966 364.256 57.1606 364.496 57.9766 364.88C58.7446 365.312 59.4646 365.888 60.0406 366.656C60.6166 367.424 61.0486 368.384 61.3846 369.44C61.6726 370.544 61.8646 371.744 61.8646 373.088C61.8646 375.872 61.2406 378.032 60.0406 379.616C58.7926 381.2 57.2566 381.968 55.3366 381.968C54.3766 381.968 53.5126 381.824 52.6966 381.44C51.8806 381.056 51.1606 380.528 50.5846 379.76C49.9606 379.04 49.4806 378.128 49.1446 377.024C48.8086 375.92 48.6646 374.624 48.6646 373.088ZM48.9046 351.2H43.1926V386H48.9046V382.592C49.6726 383.888 50.6806 384.896 52.0246 385.616C53.3206 386.288 54.8566 386.672 56.5846 386.672C58.1206 386.672 59.5606 386.336 60.9046 385.712C62.2486 385.088 63.4486 384.176 64.4566 383.024C65.5126 381.824 66.3286 380.384 66.9046 378.704C67.4806 377.072 67.7686 375.2 67.7686 373.088C67.7686 371.072 67.4806 369.2 66.9046 367.52C66.3286 365.888 65.5126 364.448 64.4566 363.248C63.4486 362.096 62.2486 361.184 60.9046 360.56C59.5606 359.936 58.1206 359.6 56.5846 359.6C54.8566 359.6 53.3206 359.984 52.0246 360.656C50.6806 361.376 49.6726 362.384 48.9046 363.632V351.2ZM86.6014 365.984V360.224C86.3614 360.224 86.1214 360.176 85.8334 360.176C85.5454 360.176 85.3054 360.128 85.0654 360.128C83.5294 360.176 82.1374 360.608 80.9374 361.424C79.7374 362.24 78.7774 363.344 78.0574 364.784V360.176H72.4414V386H78.1534V372.464C78.1534 371.216 78.2974 370.112 78.5374 369.248C78.8254 368.384 79.1614 367.712 79.6414 367.232C80.1214 366.752 80.7454 366.368 81.4174 366.176C82.1374 365.984 82.9534 365.888 83.8174 365.888C84.6814 365.888 85.6414 365.888 86.6014 365.984ZM105.255 373.856V375.824C105.255 378.032 104.631 379.712 103.479 380.768C102.279 381.824 100.647 382.352 98.5347 382.352C97.0947 382.352 95.9427 382.064 95.0787 381.392C94.2147 380.768 93.7827 379.904 93.7827 378.8C93.7827 378.032 93.9747 377.408 94.4067 376.88C94.8387 376.352 95.5107 375.92 96.4707 375.536C97.3827 375.152 98.5827 374.816 100.023 374.576C101.463 374.288 103.191 374.048 105.255 373.856ZM97.2867 386.672C99.2067 386.672 100.887 386.336 102.327 385.664C103.767 384.992 104.919 383.936 105.735 382.544C105.831 383.408 105.879 384.08 105.975 384.56C106.071 384.992 106.119 385.472 106.215 386H111.447C111.207 384.944 111.015 383.6 110.871 382.016C110.775 380.432 110.679 378.8 110.679 377.168C110.679 376.592 110.727 376.016 110.727 375.344C110.727 374.672 110.727 374.048 110.727 373.424C110.727 372.848 110.775 372.272 110.775 371.744C110.775 371.264 110.775 370.832 110.775 370.496C110.823 368.48 110.583 366.752 110.055 365.312C109.479 363.872 108.711 362.72 107.751 361.856C106.743 360.992 105.591 360.368 104.247 359.984C102.903 359.6 101.463 359.408 99.9267 359.408C98.3427 359.408 96.9027 359.648 95.6067 360.08C94.3107 360.512 93.2067 361.136 92.2467 361.904C91.2867 362.672 90.5187 363.632 89.9427 364.688C89.3667 365.792 89.0307 366.992 88.9347 368.288H94.5507C94.5987 366.752 95.1267 365.552 96.0867 364.784C97.0467 364.016 98.2467 363.632 99.6867 363.632C100.407 363.632 101.079 363.728 101.751 363.92C102.423 364.112 102.999 364.448 103.479 364.88C103.959 365.312 104.391 365.888 104.679 366.656C104.967 367.424 105.111 368.336 105.111 369.392V369.872C102.711 370.16 100.503 370.448 98.3907 370.784C96.2787 371.168 94.4547 371.648 92.8707 372.32C91.2867 372.992 90.0387 373.856 89.1267 374.912C88.1667 375.968 87.7347 377.312 87.7347 378.896C87.7347 380.096 87.9267 381.152 88.4067 382.112C88.8867 383.072 89.5107 383.84 90.3747 384.512C91.2387 385.184 92.2467 385.712 93.3987 386.096C94.5507 386.48 95.8467 386.672 97.2867 386.672ZM122.311 351.2H116.599V356.96H122.311V351.2ZM122.311 360.176H116.599V386H122.311V360.176ZM134.451 363.776V360.176H128.739V386H134.451V372.272C134.451 371.12 134.547 370.064 134.739 369.056C134.931 368.096 135.315 367.232 135.795 366.512C136.275 365.84 136.899 365.264 137.667 364.88C138.435 364.496 139.347 364.256 140.451 364.256C141.507 364.256 142.371 364.448 143.043 364.832C143.715 365.216 144.195 365.744 144.531 366.416C144.867 367.088 145.107 367.808 145.203 368.624C145.299 369.488 145.347 370.304 145.347 371.168V386H151.059V369.776C151.059 368.24 150.867 366.848 150.531 365.6C150.195 364.352 149.667 363.296 148.995 362.384C148.275 361.52 147.363 360.8 146.259 360.32C145.155 359.84 143.811 359.6 142.275 359.6C140.451 359.6 138.867 359.984 137.523 360.704C136.179 361.424 135.171 362.432 134.451 363.776ZM171.741 367.232H177.117C176.829 365.984 176.397 364.832 175.725 363.872C175.053 362.912 174.237 362.144 173.277 361.472C172.317 360.848 171.213 360.368 170.061 360.08C168.861 359.792 167.661 359.648 166.413 359.648C164.973 359.648 163.629 359.792 162.381 360.176C161.133 360.512 160.029 360.992 159.069 361.664C158.109 362.336 157.341 363.104 156.765 364.016C156.189 364.928 155.901 365.984 155.901 367.136C155.901 368.288 156.093 369.296 156.477 370.16C156.861 371.024 157.437 371.744 158.157 372.32C158.829 372.896 159.645 373.376 160.605 373.76C161.565 374.144 162.573 374.432 163.677 374.672L167.565 375.44C168.813 375.68 169.869 376.064 170.733 376.592C171.597 377.12 172.029 377.936 172.029 378.992C172.029 380.048 171.501 380.864 170.541 381.44C169.581 382.016 168.333 382.352 166.845 382.352C165.117 382.352 163.821 381.968 162.861 381.248C161.901 380.528 161.277 379.52 161.037 378.176H155.469C155.613 379.376 155.997 380.48 156.573 381.536C157.149 382.592 157.965 383.456 158.925 384.224C159.885 384.992 160.989 385.568 162.285 386C163.581 386.432 165.021 386.672 166.653 386.672C168.093 386.672 169.485 386.48 170.829 386.096C172.125 385.712 173.277 385.184 174.285 384.512C175.293 383.792 176.109 382.928 176.685 381.872C177.261 380.816 177.597 379.664 177.597 378.32C177.597 377.072 177.357 376.016 176.877 375.152C176.397 374.288 175.773 373.52 174.957 372.944C174.093 372.368 173.133 371.888 172.029 371.552C170.877 371.168 169.677 370.88 168.381 370.64L164.733 369.92C163.581 369.68 162.717 369.344 162.141 368.864C161.565 368.384 161.277 367.712 161.277 366.848C161.277 365.984 161.757 365.264 162.717 364.784C163.677 364.256 164.829 364.016 166.077 364.016C167.517 364.016 168.717 364.256 169.725 364.736C170.733 365.216 171.405 366.08 171.741 367.232ZM183.415 353.36V360.176H179.575V364.304H183.415V379.232C183.415 380.576 183.463 381.68 183.655 382.544C183.847 383.408 184.183 384.128 184.663 384.608C185.143 385.136 185.815 385.52 186.679 385.712C187.543 385.904 188.647 386 190.039 386H194.263V381.632H192.199C190.951 381.632 190.135 381.44 189.751 381.008C189.319 380.576 189.127 379.712 189.127 378.368V364.304H194.311V360.176H189.127V353.36H183.415ZM203.087 373.136C203.087 371.696 203.231 370.4 203.615 369.248C203.999 368.144 204.479 367.232 205.103 366.512C205.727 365.744 206.447 365.216 207.311 364.832C208.127 364.448 208.991 364.304 209.903 364.304C210.767 364.304 211.631 364.448 212.495 364.832C213.311 365.216 214.031 365.744 214.655 366.512C215.279 367.232 215.759 368.144 216.143 369.248C216.527 370.4 216.719 371.696 216.719 373.136C216.719 374.672 216.527 375.968 216.143 377.072C215.759 378.176 215.279 379.088 214.655 379.808C214.031 380.528 213.311 381.056 212.495 381.44C211.631 381.824 210.767 381.968 209.903 381.968C208.991 381.968 208.127 381.824 207.311 381.44C206.447 381.056 205.727 380.528 205.103 379.808C204.479 379.088 203.999 378.176 203.615 377.072C203.231 375.968 203.087 374.672 203.087 373.136ZM209.903 359.6C208.319 359.6 206.783 359.888 205.247 360.416C203.711 360.992 202.367 361.808 201.167 362.912C199.967 364.016 199.007 365.408 198.239 367.088C197.519 368.816 197.135 370.832 197.135 373.136C197.135 375.488 197.519 377.504 198.239 379.184C199.007 380.912 199.967 382.304 201.167 383.408C202.367 384.512 203.711 385.328 205.247 385.856C206.783 386.384 208.319 386.624 209.903 386.624C211.439 386.624 212.975 386.384 214.511 385.856C216.047 385.328 217.391 384.512 218.591 383.408C219.791 382.304 220.751 380.912 221.519 379.184C222.239 377.504 222.623 375.488 222.623 373.136C222.623 370.832 222.239 368.816 221.519 367.088C220.751 365.408 219.791 364.016 218.591 362.912C217.391 361.808 216.047 360.992 214.511 360.416C212.975 359.888 211.439 359.6 209.903 359.6ZM241.43 365.984V360.224C241.19 360.224 240.95 360.176 240.662 360.176C240.374 360.176 240.134 360.128 239.894 360.128C238.358 360.176 236.966 360.608 235.766 361.424C234.566 362.24 233.606 363.344 232.886 364.784V360.176H227.27V386H232.982V372.464C232.982 371.216 233.126 370.112 233.366 369.248C233.654 368.384 233.99 367.712 234.47 367.232C234.95 366.752 235.574 366.368 236.246 366.176C236.966 365.984 237.782 365.888 238.646 365.888C239.51 365.888 240.47 365.888 241.43 365.984ZM250.748 386V372.272C250.748 371.12 250.844 370.064 251.036 369.056C251.228 368.096 251.516 367.232 251.996 366.512C252.428 365.84 253.004 365.264 253.724 364.88C254.444 364.496 255.356 364.256 256.412 364.256C257.468 364.256 258.284 364.448 258.908 364.832C259.484 365.216 259.964 365.744 260.252 366.416C260.54 367.088 260.732 367.808 260.828 368.624C260.924 369.488 260.972 370.304 260.972 371.168V386H266.684V372.272C266.684 371.12 266.78 370.064 266.972 369.056C267.164 368.096 267.452 367.232 267.932 366.512C268.364 365.84 268.94 365.264 269.66 364.88C270.38 364.496 271.292 364.256 272.348 364.256C273.404 364.256 274.22 364.448 274.844 364.832C275.42 365.216 275.9 365.744 276.188 366.416C276.476 367.088 276.668 367.808 276.764 368.624C276.86 369.488 276.908 370.304 276.908 371.168V386H282.62V369.776C282.62 368.24 282.428 366.848 282.14 365.6C281.852 364.352 281.372 363.296 280.7 362.384C280.028 361.52 279.116 360.8 278.06 360.32C277.004 359.84 275.708 359.6 274.172 359.6C272.54 359.6 271.052 359.984 269.612 360.656C268.172 361.376 266.876 362.528 265.772 364.16C265.148 362.72 264.236 361.616 263.036 360.8C261.836 360.032 260.252 359.6 258.236 359.6C256.508 359.6 254.972 359.984 253.724 360.704C252.476 361.424 251.468 362.432 250.748 363.776V360.176H245.036V386H250.748ZM298.279 350.576C296.455 350.576 294.823 350.864 293.287 351.392C291.751 351.92 290.407 352.64 289.303 353.6C288.199 354.56 287.335 355.76 286.711 357.104C286.087 358.448 285.799 359.984 285.799 361.664H291.463C291.511 359.696 292.087 358.112 293.239 356.96C294.391 355.808 296.023 355.184 298.183 355.184C298.951 355.184 299.671 355.28 300.343 355.472C301.015 355.664 301.591 355.952 302.071 356.288C302.551 356.672 302.983 357.104 303.271 357.632C303.559 358.208 303.751 358.784 303.751 359.456C303.751 360.848 303.271 362 302.359 362.96C301.447 363.92 300.295 364.832 298.903 365.648C297.991 366.224 297.223 366.752 296.551 367.28C295.879 367.856 295.303 368.432 294.823 369.104C294.343 369.776 294.007 370.544 293.767 371.36C293.575 372.224 293.431 373.184 293.431 374.288V375.92H299.143V374.432C299.143 373.664 299.239 372.992 299.431 372.416C299.623 371.888 299.863 371.408 300.199 370.976C300.583 370.544 301.015 370.112 301.591 369.728C302.167 369.344 302.791 368.96 303.511 368.48C304.279 368.048 304.999 367.52 305.719 366.896C306.439 366.32 307.063 365.6 307.639 364.832C308.215 364.064 308.695 363.2 309.031 362.24C309.415 361.28 309.559 360.272 309.559 359.12C309.559 357.68 309.271 356.384 308.599 355.328C307.975 354.272 307.111 353.36 306.055 352.64C304.999 351.968 303.799 351.44 302.455 351.104C301.111 350.768 299.719 350.576 298.279 350.576ZM293.047 386H299.575V379.472H293.047V386Z" fill="#4B4B4B"/>
<path d="M261.458 41.3199C259.087 41.3199 256.729 40.7909 255.619 39.104C254.98 38.1338 255.239 36.8221 256.198 36.1747C257.138 35.5392 258.4 35.7809 259.05 36.7055C259.265 36.8542 260.239 37.1889 262.337 37.0537C264.176 36.9354 265.631 36.5432 265.928 36.3996C267.826 35.4378 271.204 36.0176 272.194 36.2187C273.323 36.4469 274.055 37.5608 273.83 38.7051C273.605 39.8494 272.508 40.5897 271.379 40.3632C269.993 40.0843 268.249 39.9998 267.781 40.1858C266.89 40.6286 264.166 41.3199 261.458 41.3199Z" fill="#4B4B4B"/>
<path d="M188.018 210.585C187.085 210.585 186.234 209.945 185.997 208.984C185.459 206.802 186.244 201.596 186.759 198.687C186.983 197.426 188.16 191.03 189.377 188.87C189.989 187.669 190.219 181.181 190.358 177.306C190.479 173.864 190.596 170.616 190.883 168.57C191.306 165.568 190.376 158.241 189.759 153.392C189.377 150.388 189.102 148.218 189.102 147.104C189.102 145.358 189.457 140.245 189.769 135.735C189.961 132.984 190.158 130.139 190.158 129.622C190.158 128.937 190.376 125.871 190.761 120.511C191.12 115.523 191.566 109.315 191.566 108.215C191.566 97.1754 191.408 92.3582 191.27 91.5739C190.886 89.9851 189.102 79.5325 189.102 77.1746C189.102 75.9694 189.377 71.9568 189.774 68.1249C190.581 60.3058 191.223 59.3356 191.613 58.8065C192.107 57.9631 193.069 53.7358 193.681 50.2183C193.701 49.3174 193.869 45.6107 195.265 42.4228C195.845 41.0994 197.272 39.6018 200.782 39.9872C202.606 40.1866 204.714 40.8272 206.753 41.4476C208.41 41.9513 209.976 42.4279 211.211 42.6206C215.393 43.273 219.331 42.9806 222.631 42.6088C225.894 42.242 234.721 41.882 237.996 41.882C239.936 41.882 249.464 38.8209 255.611 36.6489C256.698 36.2652 257.887 36.8467 258.266 37.9487C258.644 39.0508 258.071 40.2559 256.983 40.6396C254.401 41.5524 241.347 46.1093 237.996 46.1093C234.883 46.1093 226.177 46.4626 223.093 46.8091C219.521 47.2114 215.243 47.5241 210.579 46.7972C209.057 46.5606 207.278 46.018 205.557 45.4957C204.012 45.0258 202.414 44.5407 201.092 44.3007C199.743 44.0556 199.205 44.1655 199.041 44.2196C197.881 46.9325 197.847 50.384 197.847 50.4178C197.847 50.5395 197.837 50.6595 197.817 50.7795C197.272 53.9538 196.2 59.4522 195.053 61.1966C194.308 63.0187 193.274 74.7508 193.274 77.1763C193.274 79.0592 194.966 89.1281 195.323 90.5784C195.436 91.0381 195.736 92.2585 195.736 108.216C195.736 109.381 195.398 114.174 194.921 120.82C194.644 124.681 194.329 129.059 194.329 129.623C194.329 130.257 194.186 132.365 193.931 136.033C193.637 140.253 193.274 145.508 193.274 147.106C193.274 147.947 193.577 150.331 193.897 152.853C194.619 158.532 195.516 165.599 195.013 169.167C194.756 170.989 194.644 174.131 194.526 177.456C194.248 185.292 194.006 189.178 192.999 190.966C192.545 191.771 191.623 195.158 190.864 199.434C189.974 204.458 189.887 207.328 190.044 207.958C190.323 209.091 189.644 210.237 188.527 210.521C188.355 210.565 188.185 210.585 188.018 210.585ZM191.273 91.5925C191.273 91.5959 191.275 91.5993 191.276 91.6026C191.276 91.5993 191.275 91.5959 191.273 91.5925ZM194.968 61.3166C194.968 61.3183 194.966 61.3183 194.966 61.3199C194.966 61.3183 194.968 61.3166 194.968 61.3166ZM191.631 58.7829C191.63 58.7846 191.63 58.7863 191.628 58.7879C191.628 58.7863 191.63 58.7846 191.631 58.7829Z" fill="#4B4B4B"/>
<path d="M188.37 217.718C187.498 217.718 186.684 217.159 186.392 216.273C186.029 215.166 186.619 213.969 187.711 213.601C188.398 213.369 188.933 213.357 189.375 213.415L191.446 211.841C192.512 213.281 192.973 215.355 191.605 216.743C190.584 217.777 189.624 217.76 188.965 217.63C188.768 217.689 188.567 217.718 188.37 217.718ZM188.647 213.763C188.522 213.893 188.437 214.033 188.38 214.169L189.27 213.491C189.017 213.54 188.782 213.645 188.647 213.763Z" fill="#4B4B4B"/>
<path d="M180.981 218.078C178.568 218.078 177.489 216.121 177.489 214.182V212.756C177.489 211.59 178.423 210.643 179.573 210.643C180.724 210.643 181.658 211.59 181.658 212.756V213.814C182.473 213.751 183.827 213.626 184.997 213.508C186.144 213.391 187.165 214.238 187.278 215.399C187.393 216.561 186.558 217.597 185.412 217.712C184.562 217.796 181.731 218.078 180.981 218.078Z" fill="#4B4B4B"/>
<path d="M169.19 211.832C168.256 211.832 167.406 211.192 167.169 210.232C167.139 210.112 166.435 207.242 166.072 204.667C165.845 203.055 166.06 199.651 166.415 194.639C166.589 192.185 166.754 189.866 166.754 188.669C166.754 187.483 166.842 185.464 166.944 183.127C167.105 179.413 167.327 174.329 167.127 172.912C167.079 172.573 167.019 172.172 166.95 171.728C166.347 167.774 165.812 163.692 166.465 161.042C167.12 158.386 168.163 151.379 168.163 149.066C168.163 148.627 168.151 148.121 168.138 147.587C168.079 145.114 167.999 141.727 168.973 138.764C169.922 135.879 169.922 131.119 169.922 129.086C169.922 127.832 170.387 125.949 170.927 123.768C171.446 121.671 172.034 119.294 172.034 118.025C172.034 114.974 172.756 111.642 172.788 111.5C172.953 110.748 173.51 110.146 174.24 109.93C174.97 109.715 175.759 109.92 176.296 110.464C176.896 111.073 177.61 112.506 177.61 115.883C177.61 118.723 178.927 124.539 179.614 126.631C180.073 128.028 180.073 129.721 180.073 131.357C180.073 132.468 180.073 133.849 180.276 134.363C181.205 136.717 181.817 145.412 181.47 148.916C181.271 150.922 182.077 154.847 182.722 157.999C183.11 159.894 183.446 161.53 183.579 162.744C183.984 166.444 182.794 175.857 182.507 177.596C182.307 178.813 182.567 183.999 182.722 187.097C182.815 188.95 182.889 190.413 182.889 191.164C182.889 192.156 183.065 194.565 183.235 196.894C183.419 199.411 183.594 201.789 183.594 202.937C183.594 205.251 182.599 209.693 182.485 210.191C182.227 211.327 181.106 212.037 179.986 211.775C178.864 211.513 178.165 210.379 178.424 209.241C178.702 208.016 179.426 204.493 179.426 202.937C179.426 201.944 179.249 199.536 179.079 197.205C178.895 194.688 178.722 192.31 178.722 191.162C178.722 190.518 178.647 189.031 178.562 187.31C178.313 182.358 178.145 178.446 178.398 176.9C178.779 174.593 179.751 166.062 179.439 163.209C179.327 162.193 178.995 160.574 178.644 158.858C177.903 155.244 177.063 151.147 177.325 148.495C177.663 145.064 176.935 137.268 176.408 135.931C175.907 134.662 175.907 133.056 175.907 131.356C175.907 130.115 175.907 128.71 175.662 127.965C175.441 127.292 175.165 126.302 174.884 125.151C174.495 126.721 174.093 128.399 174.093 129.081C174.093 131.319 174.093 136.56 172.931 140.096C172.188 142.359 172.254 145.199 172.308 147.481C172.321 148.042 172.334 148.571 172.334 149.061C172.334 151.771 171.266 159.008 170.512 162.061C170.008 164.105 170.7 168.64 171.072 171.075C171.142 171.538 171.207 171.956 171.256 172.309C171.492 173.986 171.344 177.924 171.11 183.306C171.015 185.498 170.925 187.569 170.925 188.662C170.925 190.011 170.755 192.403 170.577 194.935C170.342 198.244 170.02 202.778 170.202 204.062C170.534 206.419 171.209 209.174 171.216 209.201C171.494 210.333 170.815 211.479 169.698 211.763C169.526 211.812 169.356 211.832 169.19 211.832Z" fill="#4B4B4B"/>
<path d="M164.088 217.369V213.143H164.053C164.058 213.143 164.508 213.124 165.188 212.894C166.164 212.565 167.161 212.747 168.041 212.91C168.036 212.874 168.031 212.839 168.024 212.805C167.799 211.66 168.531 210.553 169.66 210.325C170.789 210.095 171.888 210.844 172.114 211.988C172.248 212.666 172.578 214.99 171.192 216.395C170.032 217.571 168.455 217.282 167.304 217.069C167.019 217.017 166.6 216.939 166.407 216.937C165.15 217.347 164.258 217.369 164.088 217.369Z" fill="#4B4B4B"/>
<path d="M162.328 217.366C162.292 217.366 161.411 217.364 160.514 217.264C159.901 217.195 159.404 217.095 158.997 216.956C157.215 216.355 157.076 214.955 157.076 214.539C157.076 213.066 158.082 211.931 158.39 211.619L161.245 214.512C161.231 213.591 160.601 213.052 160.313 212.947C160.613 213.055 161.643 213.14 162.328 213.14C163.479 213.14 164.413 214.086 164.413 215.253C164.413 216.419 163.479 217.366 162.328 217.366Z" fill="#4B4B4B"/>
<path d="M162.153 209.687C162.123 209.687 162.094 209.687 162.064 209.685C160.914 209.636 160.022 208.653 160.069 207.486C160.222 203.698 159.849 198.88 159.048 197.742C158.683 197.223 157.569 195.644 155.957 185.2C155.702 183.547 154.453 175.243 154.845 173.544C155.142 172.069 156.167 156.189 156.195 154.757C156.197 154.485 156.239 154.159 156.392 153.011C157.257 146.542 157.463 142.558 157.006 141.167C156.37 139.234 156.034 134.661 155.593 127.905C155.353 124.229 155.107 120.426 154.836 119.194C154.138 116.004 154.083 105.748 154.083 102.68C154.083 102.558 154.078 102.313 154.071 101.97C153.978 97.2221 153.959 90.581 154.893 87.7397C155.83 84.8882 156.545 77.637 156.545 75.563C156.545 73.2744 156.18 66.7872 155.882 65.2744C155.795 64.8332 155.442 63.6737 155.07 62.4449C153.759 58.1314 152.674 54.3705 152.674 52.016C152.674 48.6557 152.027 45.2549 151.425 44.1968C150.751 44.3253 149.876 44.5366 148.962 44.7597C146.191 45.4324 143.05 46.1964 140.776 45.9074C139.577 45.7553 138.135 46.0511 136.864 46.3113C135.453 46.6004 134.235 46.8505 133.137 46.5733C132.721 46.4685 132.319 46.3401 131.93 46.2167C130.878 45.882 129.883 45.5659 128.364 45.5659C127.11 45.5659 125.741 45.4814 124.292 45.3918C122.827 45.3023 121.309 45.2093 119.917 45.2093C119.128 45.2093 118.115 45.3107 117.043 45.4189C114.406 45.6843 111.419 45.9834 109.243 45.0386C108.122 44.5518 105.786 44.0802 103.909 43.6999C101.528 43.2182 100.139 42.9258 99.2768 42.488C97.9396 41.8102 93.101 39.7075 93.0526 39.6855C91.9938 39.2258 91.5036 37.9834 91.9572 36.9118C92.4107 35.8385 93.6362 35.3432 94.6933 35.8013C94.8967 35.8892 99.6937 37.975 101.139 38.7085C101.578 38.9198 103.395 39.2866 104.721 39.5554C107.002 40.0168 109.361 40.4935 110.882 41.1544C112.072 41.6716 114.598 41.418 116.629 41.2135C117.808 41.0952 118.922 40.9836 119.915 40.9836C121.433 40.9836 123.013 41.0817 124.542 41.1746C125.926 41.2592 127.235 41.3403 128.362 41.3403C130.52 41.3403 131.992 41.8085 133.176 42.1837C133.513 42.2902 133.829 42.3916 134.121 42.466C134.435 42.4964 135.358 42.3071 136.035 42.1685C137.541 41.8592 139.415 41.4755 141.291 41.7121C142.816 41.9048 145.806 41.178 147.99 40.649C149.282 40.3346 150.4 40.0641 151.297 39.934C152.262 39.7937 153.216 40.0895 153.986 40.7673C156.706 43.1573 156.842 50.5573 156.842 52.016C156.842 53.926 158.226 58.4795 159.053 61.2009C159.51 62.7069 159.842 63.7937 159.97 64.4462C160.377 66.5049 160.714 73.5516 160.714 75.5647C160.714 77.8905 159.99 85.6032 158.846 89.0767C158.475 90.2058 158.068 93.3463 158.236 101.885C158.243 102.269 158.25 102.543 158.25 102.68C158.25 108.498 158.421 116.074 158.903 118.276C159.243 119.824 159.478 123.44 159.75 127.626C160.042 132.118 160.444 138.268 160.957 139.83C161.833 142.491 161.264 148.009 160.519 153.577C160.444 154.133 160.367 154.708 160.357 154.852C160.359 154.818 160.359 154.791 160.359 154.769C160.359 154.904 159.387 171.964 158.918 174.411C158.871 175.283 159.295 179.585 160.115 184.833C161.227 191.954 162.124 194.791 162.443 195.296C163.058 196.17 163.919 197.918 164.184 202.865C164.319 205.39 164.232 207.571 164.229 207.662C164.187 208.798 163.263 209.687 162.153 209.687Z" fill="#4B4B4B"/>
<path d="M69.0671 38.968C68.2567 38.968 67.4847 38.4863 67.1479 37.6834C66.6977 36.6118 67.1863 35.3728 68.2417 34.9147C68.3584 34.864 71.1312 33.6741 73.9908 33.6741H78.2142C79.3647 33.6741 80.2984 34.6206 80.2984 35.7869C80.2984 36.9532 79.3647 37.8998 78.2142 37.8998H73.9908C72.0033 37.8998 69.9007 38.7922 69.8807 38.8007C69.6139 38.9139 69.3388 38.968 69.0671 38.968Z" fill="#4B4B4B"/>
<path d="M88.7149 40.2711C86.7291 40.2711 84.8383 39.8941 83.8879 39.573C82.7775 39.1977 80.0997 39.3938 78.5541 39.6524C77.4186 39.8417 76.3448 39.0642 76.1564 37.9148C75.968 36.7638 76.735 35.677 77.8688 35.4843C78.6591 35.3507 82.7275 34.727 85.2052 35.5637C87.2944 36.2702 90.7691 36.1401 91.3727 35.5248C92.0913 34.6138 93.4002 34.4701 94.2989 35.2003C95.1976 35.9305 95.3394 37.2641 94.6207 38.1751C93.3519 39.7843 90.9709 40.2711 88.7149 40.2711Z" fill="#4B4B4B"/>
<path d="M68.6927 37.2428C67.4356 36.4788 66.817 35.3244 67.0354 34.1564C67.1921 33.3214 67.794 32.2548 69.7732 31.9202C70.2667 31.8374 70.4568 31.6818 70.8036 31.4013C71.3672 30.9432 72.4176 30.0913 74.1417 30.5274C75.2588 30.8097 75.9374 31.9574 75.6573 33.0898C75.4039 34.1192 74.4468 34.7835 73.433 34.6804C73.4247 34.6871 73.418 34.6939 73.4097 34.699C72.8911 35.1199 72.0241 35.8247 70.4585 36.0884C70.3234 36.1103 70.2667 36.1306 70.2651 36.1306C70.4835 36.0546 70.982 35.6726 71.1238 34.9711C71.2555 34.3204 71.002 33.8065 70.8336 33.6223L68.6927 37.2428Z" fill="#4B4B4B"/>
<path d="M279.879 38.9708C279.742 38.9708 279.605 38.9572 279.47 38.9302C277.87 38.6074 275.957 38.4265 275.457 38.5516C273.846 38.9589 271.674 38.9708 271.432 38.9708C270.282 38.9708 269.348 38.0242 269.348 36.8579C269.348 35.6917 270.282 34.7451 271.432 34.7451C271.919 34.7451 273.318 34.6961 274.268 34.4933C273.875 34.1975 273.623 33.8949 273.44 33.5214C273.151 32.9348 273.118 32.2807 273.341 31.6891C270.577 31.5691 265.129 32.9213 263.754 33.7073C263.5 34.0538 263.142 34.3395 262.683 34.5609C260.668 35.5362 254.527 36.1751 253.316 36.2934C249.853 36.6314 245.326 36.8833 243.424 36.1615C242.844 35.9418 240.389 35.7069 236.006 35.9638C232.433 36.1734 229.923 36.5757 229.043 36.8343C228.094 37.7994 226.388 37.7808 225.178 37.7707C223.771 37.7571 222.033 37.6338 220.353 37.5138C218.757 37.4005 216.571 37.245 216.041 37.3278C214.553 37.6304 211.407 36.907 204.924 35.1694C203.694 34.8398 202.632 34.5541 202.217 34.4713C200.513 34.1265 194.475 33.4588 193.812 33.4419C192.945 33.4419 192.291 32.9822 191.532 32.4514C190.754 31.9055 189.688 31.1584 188.841 31.2801C188.579 31.3173 188.314 31.3359 188.053 31.3359C184.374 31.3359 180.776 27.8658 180.738 27.8286C179.682 26.757 178.824 23.8869 178.937 21.8062C179.04 19.9114 179.847 18.8516 180.523 18.2921C181.051 17.6279 181.528 14.5533 181.536 11.7728C181.435 10.2702 180.691 6.26595 178.4 4.99994C175.946 3.64267 173.41 4.36441 171.557 4.89177C171.166 5.00333 170.819 5.10136 170.49 5.17742C169.583 5.92452 167.756 9.94564 167.756 12.0652C167.756 14.4603 168.656 17.5484 169.763 18.9513C171.457 21.098 170.735 22.866 170.389 23.7145C170.322 23.8784 170.22 24.1252 170.22 24.1945C170.22 26.4645 167.888 28.3982 166.884 29.125C166.41 29.4681 165.823 29.5898 165.265 29.4783C164.703 29.5814 163.299 30.1544 162.347 30.5431C159.527 31.6942 157.56 32.4278 156.003 32.1658C154.562 31.9207 147.791 33.3456 146.464 34.162C145.805 34.7637 144.756 35.0713 142.455 35.3502C141.066 35.5193 139.222 35.6714 136.976 35.8015C133.12 36.0263 129.273 36.1176 128.895 36.1176C128.685 36.1176 128.381 36.1007 127.923 36.0753C126.579 36.001 123.784 35.8455 121.763 36.1007C120.334 36.2832 116.104 35.9486 109.32 35.3891C104.64 35.0037 97.6351 34.4257 96.1545 34.5795C95.4909 34.8617 94.0369 35.1508 89.4667 33.8019C87.2741 33.1546 84.3663 32.0999 82.8123 31.199C81.8002 30.6124 79.1824 30.8744 77.4601 31.1161C77.335 31.9308 76.7431 32.6289 75.9061 32.8419C71.8044 33.8814 69.4951 33.4301 68.8482 31.4609C68.5831 30.6564 68.7148 29.7994 69.205 29.1081C70.4505 27.357 73.9453 27.2556 74.6806 27.2539C74.839 27.2454 75.3459 27.166 75.7544 27.1018C78.949 26.6031 82.5522 26.1823 84.8815 27.5328C87.0257 28.7751 93.2366 30.6953 94.7372 30.5938C95.8093 30.1628 97.8935 30.2085 109.658 31.1787C114.342 31.564 120.173 32.0458 121.247 31.9089C123.639 31.6063 126.574 31.7686 128.151 31.8565C128.456 31.8734 128.801 31.892 128.896 31.892C130.979 31.892 141.862 31.4677 143.891 30.8322C144.439 30.4011 145.83 29.6236 149.877 28.7295C151.324 28.41 154.874 27.6984 156.671 27.9925C156.683 27.9925 156.696 27.9925 156.71 27.9925C157.433 27.9925 159.611 27.1035 160.793 26.62C162.587 25.8865 163.908 25.3473 165 25.2492C165.492 24.8148 165.93 24.328 166.055 24.0593C166.082 23.2125 166.355 22.5448 166.539 22.0952C166.577 22.0006 166.625 21.8822 166.655 21.796C166.627 21.7487 166.582 21.6794 166.509 21.5881C164.816 19.4449 163.589 15.4373 163.589 12.0618C163.589 10.0809 164.439 7.51674 165.235 5.77746C166.52 2.96656 167.951 1.38279 169.488 1.07179C169.717 1.02615 170.048 0.931493 170.432 0.821626C172.536 0.223274 176.454 -0.890604 180.396 1.28814C185.148 3.91649 185.66 10.8111 185.703 11.5886C185.705 11.6274 185.707 11.6663 185.707 11.7052C185.707 11.7796 185.703 13.5476 185.471 15.5235C185.106 18.6403 184.381 20.552 183.194 21.5374C182.89 22.0732 183.296 24.159 183.756 24.9078C184.563 25.6803 186.962 27.2843 188.254 27.0984C190.722 26.74 192.716 28.1413 193.908 28.9779C194.027 29.0608 194.173 29.1639 194.288 29.2416C196.037 29.3701 201.378 29.9921 203.035 30.3285C203.576 30.4383 204.588 30.7088 205.992 31.0857C208.201 31.6773 214.043 33.2459 215.292 33.1732C216.232 32.9974 217.87 33.1022 220.646 33.2999C222.412 33.425 225.248 33.6279 226.36 33.5231C226.547 33.3642 226.764 33.2256 227.01 33.1073C228.838 32.2232 234.117 31.848 235.692 31.7534C238.273 31.5995 242.902 31.4525 244.889 32.208C245.445 32.4126 248.127 32.5613 252.956 32.088C256.786 31.7111 259.679 31.1635 260.646 30.8457C261.168 30.2592 261.976 29.8467 262.984 29.4546C264.001 29.0574 265.336 28.6551 266.743 28.3204C268.356 27.9384 272.331 27.1187 274.905 27.6325C278.945 27.9942 280.909 29.147 280.909 31.1533C280.909 31.4305 280.851 32.11 280.351 32.7422C280.644 32.8689 280.916 32.9889 281.149 33.0988C281.756 33.3845 283.02 33.9811 283.02 35.4347C283.02 36.4878 282.362 37.1554 281.881 37.6422C281.848 37.676 281.805 37.72 281.766 37.7588C281.636 38.0411 281.445 38.293 281.201 38.4958C280.824 38.8051 280.356 38.9708 279.879 38.9708ZM281.963 36.8579C281.963 36.8596 281.963 36.863 281.963 36.8647C281.963 36.863 281.963 36.8596 281.963 36.8579ZM225.638 34.5795C225.638 34.5812 225.636 34.5828 225.636 34.5845C225.638 34.5828 225.638 34.5812 225.638 34.5795ZM146.557 34.0707L146.555 34.0724C146.555 34.0724 146.555 34.0707 146.557 34.0707ZM215.259 33.1766C215.252 33.1782 215.245 33.1799 215.239 33.1799C215.245 33.1799 215.252 33.1782 215.259 33.1766ZM264.082 33.0667C264.082 33.0684 264.081 33.0718 264.081 33.0734C264.081 33.0701 264.081 33.0684 264.082 33.0667ZM94.8139 30.5837C94.8139 30.5854 94.8139 30.5854 94.8139 30.5837V30.5837ZM164.85 29.3447C164.851 29.3447 164.853 29.3464 164.855 29.3464C164.853 29.3464 164.851 29.3464 164.85 29.3447ZM193.833 29.2146C193.84 29.2146 193.845 29.2146 193.852 29.2146C193.845 29.2163 193.838 29.2146 193.833 29.2146ZM193.83 29.2146C193.832 29.2146 193.832 29.2146 193.83 29.2146C193.832 29.2146 193.832 29.2146 193.83 29.2146ZM170.559 5.12164C170.559 5.12333 170.559 5.12333 170.559 5.12164V5.12164Z" fill="#4B4B4B"/>
<path fill-rule="evenodd" clip-rule="evenodd" d="M177.168 113.75C138.405 113.75 107.456 144.975 107.456 183.462C107.456 184.789 106.38 185.865 105.052 185.865C103.725 185.865 102.648 184.789 102.648 183.462C102.648 142.333 135.738 108.942 177.168 108.942C201.932 108.942 220.487 119.274 232.803 129.548C238.96 134.684 243.576 139.819 246.657 143.677C246.732 143.771 246.806 143.864 246.879 143.956V115.385C246.879 114.057 247.955 112.981 249.283 112.981C250.611 112.981 251.687 114.057 251.687 115.385V151.442C251.687 152.77 250.611 153.846 249.283 153.846H217.264C215.936 153.846 214.86 152.77 214.86 151.442C214.86 150.115 215.936 149.039 217.264 149.039H244.719C244.195 148.331 243.589 147.539 242.901 146.678C239.977 143.017 235.583 138.128 229.723 133.24C218.007 123.466 200.504 113.75 177.168 113.75ZM249.283 181.058C250.611 181.058 251.687 182.134 251.687 183.462C251.687 224.597 218.303 257.981 177.168 257.981C156.429 257.981 139.848 247.54 128.57 237.309C122.915 232.18 118.538 227.057 115.573 223.214C115.536 223.166 115.498 223.117 115.461 223.069V251.539C115.461 252.866 114.385 253.942 113.057 253.942C111.729 253.942 110.653 252.866 110.653 251.539V215.481C110.653 214.153 111.729 213.077 113.057 213.077H145.653C146.981 213.077 148.057 214.153 148.057 215.481C148.057 216.808 146.981 217.885 145.653 217.885H117.591C118.109 218.601 118.706 219.404 119.38 220.277C122.215 223.953 126.403 228.853 131.799 233.748C142.624 243.566 158.099 253.173 177.168 253.173C215.648 253.173 246.879 221.942 246.879 183.462C246.879 182.134 247.955 181.058 249.283 181.058Z" fill="#4B4B4B"/>
</svg>
